<?xml version="1.0" standalone="no"?>
 <!DOCTYPE svg PUBLIC "-//W3C//DTD SVG 1.1//EN" 
 "http://www.w3.org/Graphics/SVG/1.1/DTD/svg11.dtd"> 
<svg
  xmlns:svg="http://www.w3.org/2000/svg"
  xmlns="http://www.w3.org/2000/svg"
  xmlns:xlink="http://www.w3.org/1999/xlink"
  version="1.1"
  width="297.0022mm" height="210.0072mm" viewBox="0.0000 0.0000 297.0022 210.0072">
<title>SVG Image created as Untitled-B_Silkscreen.svg date 2023/10/21 23:19:05 </title>
  <desc>Image generated by PCBNEW </desc>
<g style="fill:#000000; fill-opacity:1.0000;stroke:#000000; stroke-opacity:1.0000;
stroke-linecap:round; stroke-linejoin:round;"
 transform="translate(0 0) scale(1 1)">
</g>
<g style="fill:#000000; fill-opacity:0.0; 
stroke:#000000; stroke-width:0.0000; stroke-opacity:1; 
stroke-linecap:round; stroke-linejoin:round;">
</g>
<g style="fill:#E8B2A7; fill-opacity:0.0; 
stroke:#E8B2A7; stroke-width:0.0000; stroke-opacity:1; 
stroke-linecap:round; stroke-linejoin:round;">
</g>
<g style="fill:#E8B2A7; fill-opacity:0.0; 
stroke:#E8B2A7; stroke-width:0.0000; stroke-opacity:1; 
stroke-linecap:round; stroke-linejoin:round;">
</g>
<g style="fill:#E8B2A7; fill-opacity:1.0000; 
stroke:#E8B2A7; stroke-width:0.0000; stroke-opacity:1; 
stroke-linecap:round; stroke-linejoin:round;">
<path style="fill:#E8B2A7; fill-opacity:1.0000; 
stroke:#E8B2A7; stroke-width:0.0000; stroke-opacity:1; 
stroke-linecap:round; stroke-linejoin:round;fill-rule:evenodd;"
d="M 171.1781,94.5677
167.7385,94.5677
167.7385,91.8319
156.3456,98.9373
154.5253,96.0189
161.0613,91.9427
160.8668,91.8867
160.6728,91.8251
160.4795,91.7577
160.2873,91.6844
160.0963,91.6048
159.9070,91.5189
159.7195,91.4265
159.5341,91.3273
159.3512,91.2212
159.1709,91.1079
158.9936,90.9873
158.8195,90.8592
158.6489,90.7234
158.4822,90.5798
158.3195,90.4280
158.1612,90.2679
157.9790,90.0666
157.8070,89.8567
157.6451,89.6385
157.4936,89.4118
157.3524,89.1769
157.2215,88.9337
157.1011,88.6824
156.9911,88.4230
156.8918,88.1556
156.8030,87.8802
156.7249,87.5971
156.6575,87.3061
156.6009,87.0074
156.5552,86.7011
156.5203,86.3872
156.4964,86.0659
156.4847,85.7246
156.4850,85.6945
159.9243,85.6945
159.9307,85.8715
159.9451,86.0668
159.9652,86.2513
159.9907,86.4255
160.0213,86.5895
160.0566,86.7438
160.0963,86.8888
160.1400,87.0247
160.1873,87.1519
160.2379,87.2708
160.2914,87.3817
160.3475,87.4850
160.4059,87.5810
160.4661,87.6700
160.5279,87.7524
160.5908,87.8286
160.6546,87.8988
160.7240,87.9685
160.7975,88.0357
160.8753,88.1004
160.9573,88.1627
161.0437,88.2224
161.1343,88.2796
161.2294,88.3341
161.3289,88.3860
161.4329,88.4352
161.5413,88.4817
161.6544,88.5253
161.7721,88.5662
161.8944,88.6042
162.0214,88.6393
162.1532,88.6714
162.2897,88.7005
162.5836,88.7505
162.8860,88.7859
163.1954,88.8075
163.5102,88.8160
163.8291,88.8122
164.1506,88.7969
164.4730,88.7709
164.7949,88.7349
165.1149,88.6897
165.4314,88.6361
165.7429,88.5749
166.0480,88.5067
166.3451,88.4325
166.6327,88.3529
166.9094,88.2688
167.1736,88.1809
167.2086,88.1691
167.2437,88.1582
167.2788,88.1480
167.3141,88.1386
167.3494,88.1300
167.3847,88.1221
167.4555,88.1087
167.5264,88.0983
167.5972,88.0910
167.6680,88.0866
167.7385,88.0851
167.7385,81.9986
167.1319,81.9847
166.5080,81.9903
165.8736,82.0173
165.2354,82.0679
164.9170,82.1026
164.6003,82.1439
164.2859,82.1921
163.9749,82.2475
163.6680,82.3101
163.3660,82.3805
163.0699,82.4586
162.7805,82.5449
162.5942,82.6062
162.4142,82.6702
162.2407,82.7368
162.0736,82.8059
161.9129,82.8775
161.7586,82.9515
161.6108,83.0280
161.4695,83.1067
161.3346,83.1877
161.2062,83.2709
161.0842,83.3563
160.9687,83.4438
160.8597,83.5333
160.7572,83.6248
160.6613,83.7182
160.5718,83.8135
160.4950,83.9031
160.4218,83.9966
160.3525,84.0943
160.2873,84.1966
160.2266,84.3036
160.1706,84.4157
160.1195,84.5330
160.0737,84.6560
160.0335,84.7847
159.9991,84.9196
159.9708,85.0608
159.9489,85.2086
159.9337,85.3634
159.9253,85.5253
159.9243,85.6945
156.4850,85.6945
156.4884,85.3905
156.5072,85.0639
156.5409,84.7446
156.5891,84.4329
156.6518,84.1287
156.7285,83.8321
156.8191,83.5433
156.9232,83.2622
157.0406,82.9890
157.1711,82.7237
157.3144,82.4664
157.4702,82.2172
157.6382,81.9760
157.8183,81.7431
158.0101,81.5184
158.2039,81.3116
158.4055,81.1147
158.6144,80.9275
158.8299,80.7499
159.0515,80.5814
159.2787,80.4220
159.5111,80.2712
159.7480,80.1289
159.9889,79.9949
160.2332,79.8688
160.4806,79.7504
160.7303,79.6395
160.9820,79.5358
161.2349,79.4391
161.4887,79.3491
161.7428,79.2656
162.2524,79.1162
162.7707,78.9865
163.2956,78.8757
163.8248,78.7826
164.3558,78.7064
164.8866,78.6461
165.4147,78.6007
165.9379,78.5694
166.4539,78.5510
166.9604,78.5446
167.9357,78.5643
168.8456,78.6206
169.6717,78.7060
169.7517,78.7179
169.8304,78.7333
169.9077,78.7523
169.9835,78.7746
170.0577,78.8002
170.1303,78.8291
170.2011,78.8610
170.2701,78.8960
170.3373,78.9339
170.4024,78.9747
170.4655,79.0183
170.5265,79.0645
170.5853,79.1133
170.6418,79.1646
170.6959,79.2183
170.7476,79.2743
170.7968,79.3325
170.8434,79.3929
170.8873,79.4553
170.9284,79.5197
170.9667,79.5860
171.0021,79.6540
171.0345,79.7237
171.0638,79.7950
171.0899,79.8679
171.1129,79.9421
171.1325,80.0177
171.1487,80.0945
171.1615,80.1725
171.1707,80.2515
171.1763,80.3316
171.1781,80.4125
171.1781,88.0851
Z" /> 
<path style="fill:#E8B2A7; fill-opacity:1.0000; 
stroke:#E8B2A7; stroke-width:0.0000; stroke-opacity:1; 
stroke-linecap:round; stroke-linejoin:round;fill-rule:evenodd;"
d="M 140.3907,60.9693
140.6870,60.9804
140.9777,60.9986
141.2627,61.0238
141.8158,61.0948
142.3465,61.1921
142.8551,61.3143
143.3418,61.4604
143.8068,61.6290
144.2505,61.8189
144.6729,62.0290
145.0743,62.2579
145.4551,62.5044
145.8153,62.7674
146.1553,63.0455
146.4753,63.3376
146.7755,63.6423
147.0561,63.9586
147.3069,64.2712
147.5385,64.5898
147.7516,64.9128
147.9467,65.2392
148.1243,65.5674
148.2850,65.8963
148.4292,66.2245
148.5577,66.5506
148.6708,66.8733
148.7693,67.1914
148.8535,67.5035
148.9241,67.8083
148.9816,68.1045
149.0266,68.3907
149.0596,68.6657
149.0812,68.9281
149.0826,68.9549
149.0836,68.9817
149.0842,69.0085
149.0844,69.0354
149.0844,88.7299
149.0834,88.9921
149.0708,89.2666
149.0458,89.5519
149.0076,89.8466
148.9555,90.1496
148.8888,90.4593
148.8068,90.7746
148.7086,91.0939
148.5936,91.4160
148.4610,91.7395
148.3101,92.0631
148.1402,92.3855
147.9505,92.7052
147.7403,93.0210
147.5088,93.3315
147.2553,93.6353
146.9679,93.9423
146.6597,94.2349
146.3303,94.5120
145.9796,94.7729
145.6074,95.0165
145.2134,95.2418
144.7974,95.4480
144.3592,95.6341
143.8985,95.7992
143.4152,95.9423
142.9091,96.0624
142.3798,96.1587
141.8272,96.2302
141.2510,96.2759
140.6511,96.2950
140.0272,96.2864
139.4121,96.2522
138.8210,96.1948
138.2535,96.1152
137.7095,96.0143
137.1885,95.8927
136.6903,95.7515
136.2147,95.5914
135.7613,95.4134
135.3299,95.2181
134.9202,95.0066
134.5318,94.7796
134.1646,94.5380
133.8183,94.2826
133.4925,94.0143
133.1869,93.7340
132.9014,93.4424
132.6439,93.1502
132.4073,92.8524
132.1911,92.5502
131.9947,92.2446
131.8174,91.9370
131.6587,91.6284
131.5179,91.3200
131.3945,91.0130
131.2879,90.7085
131.1974,90.4078
131.1225,90.1119
131.0625,89.8221
131.0170,89.5395
130.9851,89.2654
130.9665,89.0007
130.9604,88.7468
130.9604,80.4125
130.9626,80.3240
130.9693,80.2366
130.9802,80.1506
130.9953,80.0659
131.0146,79.9827
131.0377,79.9011
131.0648,79.8211
131.0956,79.7430
131.1300,79.6669
131.1680,79.5927
131.2094,79.5207
131.2541,79.4509
131.3021,79.3835
131.3531,79.3185
131.4072,79.2561
131.4641,79.1964
131.5238,79.1394
131.5862,79.0854
131.6512,79.0343
131.7186,78.9864
131.7884,78.9417
131.8604,78.9002
131.9346,78.8623
132.0108,78.8278
132.0889,78.7970
132.1688,78.7700
132.2504,78.7468
132.3336,78.7276
132.4183,78.7125
132.5044,78.7016
132.5917,78.6949
132.6802,78.6927
141.0146,78.6927
141.0146,82.1323
134.4000,82.1323
134.4000,88.7468
134.4028,88.8510
134.4114,88.9648
134.4265,89.0874
134.4484,89.2179
134.4776,89.3556
134.5147,89.4995
134.5600,89.6489
134.6142,89.8029
134.6777,89.9607
134.7509,90.1215
134.8343,90.2845
134.9285,90.4487
135.0339,90.6135
135.1510,90.7779
135.2804,90.9412
135.4223,91.1024
135.5711,91.2547
135.7357,91.4065
135.9169,91.5568
136.1155,91.7045
136.3324,91.8483
136.5682,91.9871
136.8239,92.1198
137.1002,92.2453
137.3980,92.3623
137.7180,92.4697
138.0610,92.5664
138.4279,92.6512
138.8194,92.7231
139.2364,92.7807
139.6796,92.8231
140.1499,92.8489
140.3840,92.8548
140.6109,92.8557
140.8308,92.8517
141.0438,92.8430
141.2501,92.8297
141.4497,92.8121
141.6428,92.7902
141.8294,92.7643
142.0098,92.7346
142.1839,92.7011
142.3519,92.6640
142.5140,92.6236
142.6702,92.5800
142.8206,92.5333
142.9655,92.4837
143.1048,92.4314
143.2387,92.3765
143.3673,92.3192
143.4907,92.2598
143.6091,92.1982
143.8311,92.0696
144.0343,91.9348
144.2194,91.7950
144.3875,91.6516
144.5394,91.5059
144.6761,91.3593
144.8105,91.1980
144.9332,91.0324
145.0447,90.8637
145.1452,90.6925
145.2354,90.5200
145.3154,90.3468
145.3857,90.1741
145.4467,90.0026
145.4987,89.8332
145.5422,89.6670
145.5776,89.5047
145.6051,89.3472
145.6253,89.1955
145.6385,89.0505
145.6450,88.9131
145.6453,88.7841
145.6449,88.7655
145.6448,88.7562
145.6448,88.7468
145.6448,69.0946
145.6306,68.9479
145.6095,68.7921
145.5812,68.6279
145.5454,68.4565
145.5019,68.2788
145.4502,68.0956
145.3903,67.9080
145.3216,67.7169
145.2440,67.5232
145.1572,67.3279
145.0608,67.1319
144.9546,66.9361
144.8383,66.7416
144.7115,66.5492
144.5741,66.3599
144.4256,66.1747
144.2724,66.0014
144.1064,65.8314
143.9269,65.6658
143.7335,65.5055
143.5254,65.3518
143.3019,65.2058
143.0626,65.0684
142.8067,64.9409
142.5337,64.8243
142.2428,64.7196
141.9335,64.6281
141.6051,64.5508
141.2571,64.4887
140.8887,64.4430
140.4994,64.4148
140.0885,64.4052
139.8802,64.4076
139.6771,64.4148
139.4793,64.4267
139.2866,64.4431
139.0990,64.4639
138.9165,64.4890
138.7388,64.5181
138.5661,64.5513
138.3981,64.5882
138.2348,64.6289
138.0762,64.6732
137.9222,64.7209
137.7726,64.7719
137.6275,64.8261
137.4867,64.8834
137.3503,64.9435
137.0898,65.0719
136.8456,65.2104
136.6171,65.3577
136.4036,65.5129
136.2046,65.6749
136.0194,65.8425
135.8476,66.0147
135.6885,66.1905
135.5315,66.3817
135.3860,66.5770
135.2518,66.7754
135.1285,66.9760
135.0159,67.1776
134.9137,67.3794
134.8215,67.5802
134.7390,67.7791
134.6660,67.9750
134.6022,68.1669
134.5472,68.3539
134.5007,68.5348
134.4624,68.7087
134.4322,68.8746
134.4095,69.0314
134.3942,69.1782
130.9665,68.8926
130.9934,68.6304
131.0321,68.3559
131.0829,68.0702
131.1464,67.7748
131.2231,67.4709
131.3135,67.1598
131.4182,66.8429
131.5376,66.5214
131.6723,66.1966
131.8227,65.8700
131.9894,65.5427
132.1729,65.2161
132.3737,64.8915
132.5923,64.5702
132.8292,64.2535
133.0850,63.9428
133.3699,63.6290
133.6742,63.3265
133.9979,63.0364
134.3415,62.7600
134.7050,62.4985
135.0888,62.2533
135.4930,62.0255
135.9179,61.8163
136.3637,61.6271
136.8307,61.4591
137.3189,61.3135
137.8288,61.1916
138.3605,61.0946
138.9142,61.0237
139.4901,60.9803
140.0885,60.9656
Z" /> 
<path style="fill:#E8B2A7; fill-opacity:1.0000; 
stroke:#E8B2A7; stroke-width:0.0000; stroke-opacity:1; 
stroke-linecap:round; stroke-linejoin:round;fill-rule:evenodd;"
d="M 155.0385,94.5677
151.5990,94.5677
151.5990,80.4125
155.0385,80.4125
Z" /> 
<path style="fill:#E8B2A7; fill-opacity:1.0000; 
stroke:#E8B2A7; stroke-width:0.0000; stroke-opacity:1; 
stroke-linecap:round; stroke-linejoin:round;fill-rule:evenodd;"
d="M 176.8019,107.1289
175.0000,109.0000
179.7018,109.0000
179.7018,110.8521
175.0000,110.8521
176.8019,112.7232
175.4678,114.0080
171.5371,109.9260
175.4678,105.8441
Z" /> 
<path style="fill:#E8B2A7; fill-opacity:1.0000; 
stroke:#E8B2A7; stroke-width:0.0000; stroke-opacity:1; 
stroke-linecap:round; stroke-linejoin:round;fill-rule:evenodd;"
d="M 114.8521,114.7304
113.4125,115.5008
108.2531,112.0613
108.2531,111.2908
110.4362,111.2908
113.0000,113.0000
113.0000,109.5816
110.4362,111.2908
108.2531,111.2908
108.2531,110.5203
113.4125,107.0807
114.8521,107.8512
114.8521,109.5816
Z" /> 
<path style="fill:#E8B2A7; fill-opacity:1.0000; 
stroke:#E8B2A7; stroke-width:0.0000; stroke-opacity:1; 
stroke-linecap:round; stroke-linejoin:round;fill-rule:evenodd;"
d="M 181.7990,60.9693
182.0954,60.9804
182.3860,60.9986
182.6710,61.0238
183.2241,61.0948
183.7548,61.1921
184.2634,61.3143
184.7501,61.4604
185.2151,61.6290
185.6587,61.8189
186.0811,62.0290
186.4826,62.2579
186.8633,62.5044
187.2236,62.7674
187.5635,63.0455
187.8835,63.3376
188.1837,63.6423
188.4643,63.9586
188.7151,64.2712
188.9468,64.5897
189.1599,64.9128
189.3550,65.2392
189.5326,65.5674
189.6933,65.8963
189.8376,66.2245
189.9660,66.5506
190.0792,66.8733
190.1776,67.1914
190.2618,67.5035
190.3324,67.8083
190.3899,68.1045
190.4349,68.3907
190.4679,68.6657
190.4894,68.9281
190.4908,68.9549
190.4919,68.9817
190.4925,69.0085
190.4927,69.0354
190.4927,88.7299
190.4918,88.9921
190.4792,89.2666
190.4542,89.5519
190.4160,89.8466
190.3639,90.1496
190.2972,90.4593
190.2151,90.7746
190.1169,91.0939
190.0019,91.4160
189.8693,91.7395
189.7184,92.0631
189.5485,92.3855
189.3588,92.7052
189.1485,93.0210
188.9170,93.3315
188.6635,93.6353
188.3761,93.9423
188.0678,94.2349
187.7385,94.5120
187.3878,94.7729
187.0156,95.0165
186.6216,95.2418
186.2056,95.4480
185.7674,95.6341
185.3068,95.7992
184.8235,95.9423
184.3174,96.0624
183.7881,96.1587
183.2355,96.2302
182.6593,96.2759
182.0594,96.2950
181.4355,96.2864
180.8204,96.2522
180.2293,96.1948
179.6618,96.1152
179.1177,96.0143
178.5967,95.8927
178.0986,95.7515
177.6229,95.5914
177.1695,95.4134
176.7381,95.2181
176.3284,95.0066
175.9401,94.7796
175.5729,94.5380
175.2265,94.2826
174.9007,94.0143
174.5952,93.7340
174.3097,93.4424
174.0522,93.1502
173.8156,92.8524
173.5994,92.5502
173.4030,92.2446
173.2257,91.9370
173.0670,91.6284
172.9262,91.3200
172.8028,91.0130
172.6962,90.7085
172.6057,90.4078
172.5308,90.1119
172.4709,89.8221
172.4253,89.5395
172.3935,89.2654
172.3748,89.0007
172.3688,88.7468
172.3688,80.4125
172.3710,80.3240
172.3776,80.2366
172.3886,80.1506
172.4037,80.0659
172.4229,79.9827
172.4461,79.9010
172.4731,79.8211
172.5039,79.7430
172.5383,79.6669
172.5763,79.5927
172.6177,79.5207
172.6625,79.4509
172.7104,79.3835
172.7615,79.3185
172.8155,79.2561
172.8725,79.1964
172.9322,79.1394
172.9946,79.0854
173.0596,79.0343
173.1270,78.9864
173.1968,78.9416
173.2688,78.9002
173.3430,78.8623
173.4191,78.8278
173.4972,78.7970
173.5771,78.7700
173.6587,78.7468
173.7420,78.7276
173.8266,78.7125
173.9127,78.7016
174.0000,78.6949
174.0885,78.6927
182.4229,78.6927
182.4229,82.1323
175.8083,82.1323
175.8083,88.7468
175.8111,88.8510
175.8198,88.9648
175.8348,89.0874
175.8567,89.2179
175.8859,89.3556
175.9230,89.4995
175.9683,89.6489
176.0225,89.8029
176.0859,89.9607
176.1592,90.1215
176.2426,90.2845
176.3368,90.4487
176.4422,90.6135
176.5594,90.7779
176.6887,90.9412
176.8307,91.1024
176.9795,91.2547
177.1440,91.4065
177.3252,91.5568
177.5238,91.7045
177.7406,91.8483
177.9765,91.9871
178.2322,92.1198
178.5085,92.2453
178.8063,92.3623
179.1263,92.4697
179.4693,92.5664
179.8362,92.6512
180.2277,92.7231
180.6447,92.7807
181.0880,92.8231
181.5583,92.8489
181.7923,92.8548
182.0192,92.8557
182.2391,92.8517
182.4522,92.8430
182.6585,92.8297
182.8581,92.8121
183.0511,92.7902
183.2378,92.7643
183.4181,92.7346
183.5922,92.7011
183.7603,92.6640
183.9223,92.6236
184.0785,92.5800
184.2290,92.5333
184.3738,92.4837
184.5131,92.4314
184.6470,92.3765
184.7756,92.3192
184.8991,92.2598
185.0174,92.1982
185.2394,92.0696
185.4426,91.9348
185.6277,91.7950
185.7958,91.6516
185.9477,91.5059
186.0844,91.3593
186.2188,91.1980
186.3415,91.0324
186.4530,90.8637
186.5536,90.6925
186.6437,90.5200
186.7237,90.3468
186.7940,90.1741
186.8550,90.0026
186.9071,89.8332
186.9506,89.6670
186.9859,89.5047
187.0134,89.3472
187.0336,89.1955
187.0467,89.0505
187.0533,88.9131
187.0536,88.7841
187.0532,88.7655
187.0532,88.7562
187.0531,88.7468
187.0531,69.0946
187.0389,68.9479
187.0178,68.7921
186.9895,68.6279
186.9537,68.4565
186.9101,68.2788
186.8585,68.0956
186.7985,67.9080
186.7299,67.7169
186.6523,67.5232
186.5655,67.3279
186.4691,67.1319
186.3629,66.9361
186.2465,66.7416
186.1198,66.5492
185.9823,66.3599
185.8338,66.1747
185.6806,66.0014
185.5146,65.8314
185.3352,65.6658
185.1417,65.5055
184.9336,65.3518
184.7102,65.2058
184.4709,65.0684
184.2150,64.9409
183.9420,64.8243
183.6511,64.7196
183.3418,64.6281
183.0135,64.5508
182.6654,64.4887
182.2971,64.4430
181.9078,64.4148
181.4969,64.4052
181.2885,64.4076
181.0854,64.4148
180.8876,64.4267
180.6949,64.4431
180.5073,64.4639
180.3248,64.4890
180.1471,64.5181
179.9743,64.5513
179.8064,64.5882
179.6431,64.6289
179.4845,64.6732
179.3305,64.7209
179.1809,64.7719
179.0358,64.8261
178.8951,64.8834
178.7586,64.9435
178.4982,65.0719
178.2540,65.2104
178.0254,65.3577
177.8120,65.5129
177.6129,65.6749
177.4278,65.8425
177.2560,66.0147
177.0969,66.1905
176.9398,66.3817
176.7943,66.5770
176.6601,66.7754
176.5368,66.9760
176.4242,67.1776
176.3220,67.3794
176.2298,67.5802
176.1473,67.7791
176.0743,67.9750
176.0105,68.1669
175.9554,68.3539
175.9090,68.5348
175.8707,68.7087
175.8404,68.8746
175.8178,69.0314
175.8024,69.1782
172.3747,68.8926
172.4017,68.6304
172.4403,68.3559
172.4911,68.0702
172.5546,67.7748
172.6314,67.4709
172.7218,67.1598
172.8265,66.8429
172.9459,66.5214
173.0806,66.1966
173.2310,65.8700
173.3977,65.5427
173.5812,65.2161
173.7820,64.8915
174.0007,64.5702
174.2376,64.2535
174.4933,63.9428
174.7783,63.6290
175.0825,63.3265
175.4063,63.0364
175.7498,62.7600
176.1134,62.4985
176.4972,62.2533
176.9014,62.0255
177.3263,61.8163
177.7721,61.6271
178.2390,61.4591
178.7273,61.3135
179.2371,61.1916
179.7688,61.0946
180.3225,61.0237
180.8984,60.9803
181.4969,60.9656
Z" /> 
<path style="fill:#E8B2A7; fill-opacity:1.0000; 
stroke:#E8B2A7; stroke-width:0.0000; stroke-opacity:1; 
stroke-linecap:round; stroke-linejoin:round;fill-rule:evenodd;"
d="M 113.6302,94.5677
110.1906,94.5677
110.1906,80.4125
113.6302,80.4125
Z" /> 
<path style="fill:#E8B2A7; fill-opacity:1.0000; 
stroke:#E8B2A7; stroke-width:0.0000; stroke-opacity:1; 
stroke-linecap:round; stroke-linejoin:round;fill-rule:evenodd;"
d="M 127.9490,115.3918
120.0115,115.3918
120.0115,113.5397
121.8635,113.5397
126.0969,113.5397
126.0969,109.3064
121.8635,109.3064
121.8635,113.5397
120.0115,113.5397
120.0115,107.4543
127.9490,107.4543
127.9490,109.3064
Z" /> 
<path style="fill:#E8B2A7; fill-opacity:1.0000; 
stroke:#E8B2A7; stroke-width:0.0000; stroke-opacity:1; 
stroke-linecap:round; stroke-linejoin:round;fill-rule:evenodd;"
d="M 129.7698,94.5677
126.3302,94.5677
126.3302,91.8319
114.9372,98.9373
113.1172,96.0189
119.6529,91.9427
119.4584,91.8867
119.2644,91.8251
119.0712,91.7577
118.8789,91.6844
118.6880,91.6048
118.4986,91.5189
118.3111,91.4265
118.1258,91.3273
117.9428,91.2212
117.7625,91.1079
117.5852,90.9873
117.4111,90.8592
117.2406,90.7234
117.0738,90.5798
116.9111,90.4280
116.7528,90.2679
116.5706,90.0666
116.3986,89.8567
116.2368,89.6385
116.0853,89.4118
115.9441,89.1769
115.8132,88.9337
115.6928,88.6824
115.5829,88.4230
115.4836,88.1556
115.3948,87.8802
115.3167,87.5971
115.2494,87.3061
115.1928,87.0074
115.1471,86.7011
115.1122,86.3872
115.0883,86.0659
115.0766,85.7246
115.0769,85.6945
118.5159,85.6945
118.5223,85.8715
118.5367,86.0668
118.5568,86.2513
118.5824,86.4255
118.6130,86.5895
118.6483,86.7438
118.6880,86.8888
118.7316,87.0247
118.7789,87.1519
118.8295,87.2708
118.8831,87.3817
118.9392,87.4850
118.9976,87.5810
119.0578,87.6700
119.1196,87.7524
119.1825,87.8286
119.2462,87.8988
119.3156,87.9685
119.3892,88.0357
119.4670,88.1004
119.5490,88.1627
119.6353,88.2224
119.7260,88.2796
119.8210,88.3341
119.9205,88.3860
120.0245,88.4352
120.1330,88.4817
120.2461,88.5253
120.3637,88.5662
120.4860,88.6042
120.6131,88.6393
120.7448,88.6714
120.8814,88.7005
121.1752,88.7505
121.4776,88.7859
121.7870,88.8075
122.1019,88.8160
122.4208,88.8122
122.7422,88.7969
123.0647,88.7709
123.3866,88.7349
123.7066,88.6897
124.0231,88.6361
124.3347,88.5749
124.6397,88.5067
124.9368,88.4325
125.2244,88.3529
125.5011,88.2688
125.7653,88.1809
125.8003,88.1691
125.8354,88.1582
125.8705,88.1480
125.9057,88.1386
125.9410,88.1300
125.9764,88.1221
126.0472,88.1087
126.1180,88.0983
126.1889,88.0910
126.2596,88.0866
126.3302,88.0851
126.3302,81.9986
125.7236,81.9847
125.0997,81.9903
124.4653,82.0173
123.8271,82.0679
123.5087,82.1026
123.1919,82.1439
122.8776,82.1921
122.5665,82.2475
122.2596,82.3102
121.9577,82.3805
121.6616,82.4586
121.3722,82.5449
121.1858,82.6062
121.0059,82.6702
120.8323,82.7368
120.6652,82.8059
120.5045,82.8775
120.3503,82.9515
120.2025,83.0280
120.0611,83.1067
119.9262,83.1877
119.7978,83.2709
119.6759,83.3563
119.5604,83.4438
119.4514,83.5333
119.3489,83.6248
119.2529,83.7182
119.1634,83.8135
119.0867,83.9031
119.0135,83.9966
118.9441,84.0943
118.8790,84.1966
118.8182,84.3036
118.7622,84.4157
118.7112,84.5330
118.6654,84.6560
118.6252,84.7847
118.5908,84.9196
118.5625,85.0608
118.5405,85.2086
118.5253,85.3634
118.5170,85.5253
118.5159,85.6945
115.0769,85.6945
115.0802,85.3905
115.0990,85.0639
115.1327,84.7446
115.1809,84.4329
115.2436,84.1287
115.3203,83.8321
115.4108,83.5433
115.5150,83.2622
115.6324,82.9890
115.7629,82.7237
115.9061,82.4664
116.0619,82.2172
116.2299,81.9760
116.4100,81.7431
116.6017,81.5184
116.7956,81.3116
116.9973,81.1147
117.2061,80.9275
117.4216,80.7499
117.6433,80.5814
117.8705,80.4220
118.1028,80.2712
118.3397,80.1289
118.5806,79.9949
118.8250,79.8688
119.0723,79.7504
119.3220,79.6395
119.5736,79.5358
119.8266,79.4391
120.0804,79.3491
120.3345,79.2656
120.8440,79.1162
121.3624,78.9865
121.8873,78.8757
122.4165,78.7826
122.9476,78.7064
123.4783,78.6461
124.0064,78.6007
124.5296,78.5694
125.0456,78.5510
125.5521,78.5446
126.5274,78.5643
127.4373,78.6206
128.2632,78.7060
128.3433,78.7179
128.4220,78.7333
128.4993,78.7523
128.5751,78.7746
128.6493,78.8002
128.7219,78.8291
128.7927,78.8610
128.8617,78.8960
128.9289,78.9339
128.9940,78.9747
129.0572,79.0183
129.1182,79.0645
129.1769,79.1133
129.2334,79.1646
129.2876,79.2183
129.3393,79.2743
129.3884,79.3325
129.4350,79.3929
129.4789,79.4553
129.5200,79.5197
129.5583,79.5860
129.5937,79.6540
129.6261,79.7237
129.6554,79.7950
129.6816,79.8679
129.7045,79.9421
129.7241,80.0177
129.7404,80.0945
129.7531,80.1725
129.7623,80.2515
129.7679,80.3316
129.7698,80.4125
129.7698,88.0851
Z" /> 
<path style="fill:#E8B2A7; fill-opacity:1.0000; 
stroke:#E8B2A7; stroke-width:0.0000; stroke-opacity:1; 
stroke-linecap:round; stroke-linejoin:round;fill-rule:evenodd;"
d="M 194.4812,109.7938
190.5504,113.8757
189.2164,112.5909
191.0182,110.7198
186.3164,110.7198
186.3164,108.8677
191.0182,108.8677
189.2164,106.9966
190.5504,105.7118
Z" /> 
</g>
<g style="fill:#E8B2A7; fill-opacity:1.0000; 
stroke:#E8B2A7; stroke-width:0.1524; stroke-opacity:1; 
stroke-linecap:round; stroke-linejoin:round;">
</g>
<g style="fill:#E8B2A7; fill-opacity:0.0; 
stroke:#E8B2A7; stroke-width:0.1524; stroke-opacity:1; 
stroke-linecap:round; stroke-linejoin:round;">
<text x="110.0000" y="101.0000"
transform="scale(-1 1) translate(-220.000000 0)"
textLength="3.1588" font-size="1.0837" lengthAdjust="spacingAndGlyphs"
text-anchor="start" opacity="0">BETA</text>
<g class="stroked-text"><desc>BETA</desc>
<path d="M109.4353 100.4669
L109.3192 100.5056
" />
<path d="M109.3192 100.5056
L109.2805 100.5443
" />
<path d="M109.2805 100.5443
L109.2418 100.6217
" />
<path d="M109.2418 100.6217
L109.2418 100.7378
" />
<path d="M109.2418 100.7378
L109.2805 100.8152
" />
<path d="M109.2805 100.8152
L109.3192 100.8539
" />
<path d="M109.3192 100.8539
L109.3966 100.8926
" />
<path d="M109.3966 100.8926
L109.7062 100.8926
" />
<path d="M109.7062 100.8926
L109.7062 100.0798
" />
<path d="M109.7062 100.0798
L109.4353 100.0798
" />
<path d="M109.4353 100.0798
L109.3579 100.1185
" />
<path d="M109.3579 100.1185
L109.3192 100.1572
" />
<path d="M109.3192 100.1572
L109.2805 100.2346
" />
<path d="M109.2805 100.2346
L109.2805 100.3120
" />
<path d="M109.2805 100.3120
L109.3192 100.3894
" />
<path d="M109.3192 100.3894
L109.3579 100.4281
" />
<path d="M109.3579 100.4281
L109.4353 100.4669
" />
<path d="M109.4353 100.4669
L109.7062 100.4669
" />
<path d="M108.8934 100.4669
L108.6225 100.4669
" />
<path d="M108.5064 100.8926
L108.8934 100.8926
" />
<path d="M108.8934 100.8926
L108.8934 100.0798
" />
<path d="M108.8934 100.0798
L108.5064 100.0798
" />
<path d="M108.2741 100.0798
L107.8097 100.0798
" />
<path d="M108.0419 100.8926
L108.0419 100.0798
" />
<path d="M107.5775 100.6604
L107.1904 100.6604
" />
<path d="M107.6549 100.8926
L107.3839 100.0798
" />
<path d="M107.3839 100.0798
L107.1130 100.8926
" />
</g><g >
</g>
<g >
</g>
<g >
</g>
<g >
</g>
<g >
</g>
<g >
</g>
<g >
</g>
<g >
</g>
<g >
</g>
<g >
</g>
<g >
</g>
<g >
</g>
<g >
</g>
<g >
</g>
<g >
</g>
<g >
</g>
<g >
</g>
<g >
</g>
<g >
</g>
<g >
</g>
<g >
</g>
<g >
</g>
<g >
</g>
<g >
</g>
<g >
</g>
<g >
</g>
<g >
</g>
<g >
</g>
<g >
</g>
<g >
</g>
<g >
</g>
<g >
</g>
<g >
</g>
<g >
</g>
<g >
</g>
<g >
</g>
<g >
</g>
<g >
</g>
<g >
</g>
<g >
</g>
<g >
</g>
<g >
</g>
<g >
</g>
<g >
</g>
<g >
</g>
<g >
</g>
<g >
</g>
<g >
</g>
<g >
</g>
<g >
</g>
<g >
</g>
<g >
</g>
<g >
</g>
<g >
</g>
<g >
</g>
<g >
</g>
<g >
</g>
<g >
</g>
<g >
</g>
<g >
</g>
<g >
</g>
<g >
</g>
<g >
</g>
<g >
</g>
<g >
</g>
<g >
</g>
<g >
</g>
<g >
</g>
<g >
</g>
<g >
</g>
<g >
</g>
<g >
</g>
<g >
</g>
<g >
</g>
<g >
</g>
<g >
</g>
<g >
</g>
<g >
</g>
</g> 
</svg>
