<?xml version="1.0" standalone="no"?>
 <!DOCTYPE svg PUBLIC "-//W3C//DTD SVG 1.1//EN" 
 "http://www.w3.org/Graphics/SVG/1.1/DTD/svg11.dtd"> 
<svg
  xmlns:svg="http://www.w3.org/2000/svg"
  xmlns="http://www.w3.org/2000/svg"
  xmlns:xlink="http://www.w3.org/1999/xlink"
  version="1.1"
  width="297.0022mm" height="210.0072mm" viewBox="0.0000 0.0000 297.0022 210.0072">
<title>SVG Image created as Untitled-B_Silkscreen.svg date 2023/12/03 02:24:16 </title>
  <desc>Image generated by PCBNEW </desc>
<g style="fill:#000000; fill-opacity:1.0000;stroke:#000000; stroke-opacity:1.0000;
stroke-linecap:round; stroke-linejoin:round;"
 transform="translate(0 0) scale(1 1)">
</g>
<g style="fill:#000000; fill-opacity:0.0; 
stroke:#000000; stroke-width:0.0000; stroke-opacity:1; 
stroke-linecap:round; stroke-linejoin:round;">
</g>
<g style="fill:#E8B2A7; fill-opacity:0.0; 
stroke:#E8B2A7; stroke-width:0.0000; stroke-opacity:1; 
stroke-linecap:round; stroke-linejoin:round;">
</g>
<g style="fill:#E8B2A7; fill-opacity:0.0; 
stroke:#E8B2A7; stroke-width:0.0000; stroke-opacity:1; 
stroke-linecap:round; stroke-linejoin:round;">
</g>
<g style="fill:#E8B2A7; fill-opacity:1.0000; 
stroke:#E8B2A7; stroke-width:0.0000; stroke-opacity:1; 
stroke-linecap:round; stroke-linejoin:round;">
<path style="fill:#E8B2A7; fill-opacity:1.0000; 
stroke:#E8B2A7; stroke-width:0.0000; stroke-opacity:1; 
stroke-linecap:round; stroke-linejoin:round;fill-rule:evenodd;"
d="M 151.3469,70.3338
151.4010,70.3389
151.4547,70.3468
151.5078,70.3572
151.5602,70.3703
151.6118,70.3859
151.6626,70.4040
151.7124,70.4246
151.7612,70.4477
151.8089,70.4731
151.8553,70.5010
151.9003,70.5311
151.9440,70.5636
151.9861,70.5983
152.0266,70.6353
157.1224,75.5261
157.1522,75.5558
157.1807,75.5866
157.2080,75.6184
157.2340,75.6511
157.2587,75.6848
157.2821,75.7193
157.3041,75.7547
157.3248,75.7909
157.3440,75.8278
157.3618,75.8655
157.3782,75.9038
157.3932,75.9428
157.4066,75.9823
157.4186,76.0225
157.4290,76.0631
157.4378,76.1043
158.8227,83.1933
158.8298,83.2335
158.8354,83.2737
158.8394,83.3141
158.8419,83.3545
158.8430,83.3949
158.8425,83.4353
158.8405,83.4756
158.8371,83.5158
158.8321,83.5559
158.8257,83.5957
158.8178,83.6354
158.8085,83.6747
158.7977,83.7137
158.7854,83.7524
158.7716,83.7906
158.7564,83.8284
156.0943,90.1075
156.0716,90.1575
156.0465,90.2061
156.0192,90.2531
155.9896,90.2986
155.9579,90.3425
155.9241,90.3847
155.8883,90.4251
155.8506,90.4637
155.8110,90.5003
155.7697,90.5350
155.7266,90.5676
155.6818,90.5982
155.6355,90.6265
155.5877,90.6525
155.5385,90.6763
155.4879,90.6976
146.9020,94.0680
146.8621,94.0828
146.8219,94.0959
146.7812,94.1075
146.7402,94.1174
146.6989,94.1258
146.6574,94.1326
146.6156,94.1377
146.5737,94.1413
146.5318,94.1432
146.4897,94.1435
146.4476,94.1422
146.4056,94.1393
146.3637,94.1347
146.3219,94.1285
146.2803,94.1207
146.2389,94.1113
138.5541,92.1991
138.5043,92.1854
138.4553,92.1695
138.4074,92.1513
138.3604,92.1310
138.3146,92.1085
138.2699,92.0840
138.2265,92.0575
138.1844,92.0289
138.1436,91.9985
138.1043,91.9661
138.0665,91.9319
138.0303,91.8960
137.9958,91.8583
137.9629,91.8189
137.9319,91.7779
137.9027,91.7353
135.2072,87.5962
135.1826,87.5565
135.1597,87.5159
135.1387,87.4745
135.1195,87.4323
135.1021,87.3895
135.0865,87.3460
135.0729,87.3019
135.0611,87.2572
135.0512,87.2122
135.0432,87.1667
135.0371,87.1209
135.0330,87.0748
135.0308,87.0286
135.0306,86.9821
135.0324,86.9356
135.0362,86.8890
135.6296,81.1271
135.6363,81.0748
135.6454,81.0230
135.6570,80.9719
135.6710,80.9216
135.6873,80.8721
135.7060,80.8236
135.7269,80.7760
135.7500,80.7295
135.7754,80.6841
135.8029,80.6400
135.8324,80.5972
135.8641,80.5558
135.8978,80.5159
135.9334,80.4775
135.9710,80.4407
136.0104,80.4057
140.2205,76.8444
140.2487,76.8213
140.2776,76.7992
140.3072,76.7782
140.3374,76.7581
140.3682,76.7391
140.3996,76.7212
140.4316,76.7043
140.4641,76.6884
140.4972,76.6737
140.5307,76.6601
140.5646,76.6475
140.5990,76.6361
140.6338,76.6258
140.6689,76.6167
140.7044,76.6087
140.7402,76.6019
147.2388,75.4807
147.2996,75.4719
147.3606,75.4666
147.4215,75.4647
147.4821,75.4663
147.5424,75.4711
147.6022,75.4793
147.6614,75.4907
147.7198,75.5054
147.7773,75.5233
147.8338,75.5443
147.8891,75.5684
147.9431,75.5957
147.9957,75.6259
148.0467,75.6592
148.0960,75.6954
148.1434,75.7346
152.6760,79.6958
152.7233,79.7397
152.7676,79.7859
152.8090,79.8344
152.8473,79.8851
152.8824,79.9377
152.9144,79.9921
152.9431,80.0482
152.9686,80.1058
152.9907,80.1648
153.0093,80.2250
153.0245,80.2863
153.0361,80.3485
153.0441,80.4115
153.0484,80.4750
153.0490,80.5391
153.0458,80.6035
152.7363,84.5183
152.7315,84.5655
152.7247,84.6122
152.7160,84.6585
152.7053,84.7042
152.6926,84.7493
152.6780,84.7939
152.6616,84.8377
152.6433,84.8807
152.6231,84.9229
152.6012,84.9643
152.5775,85.0047
152.5520,85.0441
152.5248,85.0824
152.4960,85.1196
152.4654,85.1557
152.4333,85.1905
149.1340,88.6060
149.0916,88.6475
149.0473,88.6865
149.0012,88.7229
148.9533,88.7566
148.9039,88.7876
148.8529,88.8159
148.8006,88.8414
148.7471,88.8641
148.6924,88.8838
148.6367,88.9007
148.5801,88.9146
148.5227,88.9254
148.4647,88.9332
148.4061,88.9379
148.3471,88.9394
148.2879,88.9378
142.7806,88.6324
142.7364,88.6291
142.6926,88.6240
142.6493,88.6172
142.6066,88.6087
142.5644,88.5986
142.5229,88.5868
142.4819,88.5735
142.4417,88.5586
142.4022,88.5422
142.3635,88.5243
142.3256,88.5049
142.2885,88.4841
142.2524,88.4620
142.2171,88.4384
142.1828,88.4135
142.1495,88.3874
142.1172,88.3599
142.0860,88.3312
142.0559,88.3013
142.0270,88.2703
141.9993,88.2381
141.9728,88.2048
141.9476,88.1704
141.9237,88.1349
141.9011,88.0985
141.8799,88.0610
141.8602,88.0227
141.8419,87.9834
141.8251,87.9432
141.8099,87.9021
141.7962,87.8602
141.7842,87.8176
140.6307,83.3892
140.6198,83.3432
140.6109,83.2971
140.6040,83.2510
140.5992,83.2049
140.5963,83.1589
140.5954,83.1131
140.5964,83.0674
140.5993,83.0220
140.6041,82.9769
140.6107,82.9321
140.6192,82.8877
140.6295,82.8439
140.6415,82.8005
140.6553,82.7577
140.6709,82.7156
140.6882,82.6741
140.7071,82.6334
140.7277,82.5935
140.7500,82.5544
140.7739,82.5162
140.7993,82.4790
140.8264,82.4428
140.8549,82.4077
140.8850,82.3738
140.9166,82.3410
140.9496,82.3094
140.9841,82.2791
141.0200,82.2502
141.0573,82.2227
141.0960,82.1966
141.1360,82.1721
141.1774,82.1491
143.7998,80.7641
143.8471,80.7406
143.8949,80.7195
143.9433,80.7009
143.9922,80.6848
144.0415,80.6710
144.0910,80.6596
144.1408,80.6506
144.1907,80.6440
144.2407,80.6397
144.2907,80.6377
144.3405,80.6380
144.3902,80.6405
144.4397,80.6453
144.4888,80.6524
144.5376,80.6616
144.5858,80.6730
144.6335,80.6866
144.6805,80.7023
144.7268,80.7202
144.7723,80.7402
144.8169,80.7622
144.8606,80.7863
144.9032,80.8125
144.9447,80.8407
144.9850,80.8708
145.0240,80.9030
145.0617,80.9371
145.0980,80.9731
145.1327,81.0111
145.1658,81.0510
145.1973,81.0927
145.2270,81.1363
145.8719,82.1328
145.9030,82.1837
145.9310,82.2357
145.9558,82.2884
145.9777,82.3419
145.9965,82.3960
146.0123,82.4507
146.0251,82.5057
146.0350,82.5611
146.0420,82.6166
146.0460,82.6722
146.0473,82.7278
146.0457,82.7832
146.0413,82.8384
146.0342,82.8932
146.0243,82.9475
146.0117,83.0012
145.9964,83.0543
145.9785,83.1065
145.9579,83.1578
145.9348,83.2081
145.9091,83.2572
145.8808,83.3051
145.8501,83.3516
145.8168,83.3967
145.7812,83.4401
145.7431,83.4819
145.7026,83.5219
145.6597,83.5599
145.6145,83.5960
145.5670,83.6298
145.5172,83.6615
145.4652,83.6908
145.1851,83.8387
145.1518,83.8572
145.1195,83.8770
145.0583,83.9201
145.0016,83.9678
144.9496,84.0196
144.9024,84.0753
144.8601,84.1344
144.8229,84.1966
144.7910,84.2615
144.7646,84.3289
144.7438,84.3982
144.7286,84.4693
144.7194,84.5417
144.7163,84.6151
144.7194,84.6891
144.7288,84.7633
144.7360,84.8004
144.7448,84.8375
144.7545,84.8719
144.7655,84.9056
144.7913,84.9710
144.8219,85.0336
144.8571,85.0931
144.8967,85.1494
144.9403,85.2021
144.9879,85.2512
145.0390,85.2964
145.0934,85.3376
145.1510,85.3744
145.2114,85.4067
145.2744,85.4344
145.3397,85.4571
145.4071,85.4747
145.4764,85.4871
145.5117,85.4912
145.5473,85.4939
146.7239,85.5591
146.7832,85.5608
146.8422,85.5592
146.9008,85.5545
146.9588,85.5467
147.0162,85.5359
147.0728,85.5220
147.1285,85.5051
147.1832,85.4854
147.2367,85.4627
147.2890,85.4372
147.3400,85.4089
147.3895,85.3779
147.4373,85.3442
147.4835,85.3078
147.5278,85.2688
147.5701,85.2273
148.8917,83.8590
148.9239,83.8243
148.9545,83.7882
148.9833,83.7510
149.0105,83.7127
149.0360,83.6733
149.0597,83.6329
149.0816,83.5916
149.1018,83.5493
149.1201,83.5063
149.1365,83.4625
149.1511,83.4180
149.1638,83.3728
149.1745,83.3271
149.1833,83.2808
149.1900,83.2340
149.1948,83.1869
149.2966,81.8989
149.2998,81.8345
149.2992,81.7704
149.2949,81.7068
149.2869,81.6439
149.2753,81.5816
149.2601,81.5204
149.2415,81.4602
149.2194,81.4012
149.1940,81.3435
149.1652,81.2874
149.1332,81.2330
149.0981,81.1804
149.0598,81.1298
149.0184,81.0812
148.9741,81.0350
148.9268,80.9911
146.9712,79.2820
146.9237,79.2429
146.8745,79.2066
146.8235,79.1734
146.7709,79.1431
146.7169,79.1159
146.6616,79.0918
146.6051,79.0707
146.5476,79.0529
146.4892,79.0382
146.4300,79.0268
146.3702,79.0186
146.3099,79.0137
146.2493,79.0122
146.1884,79.0141
146.1274,79.0194
146.0665,79.0281
142.4575,79.6508
142.4217,79.6576
142.3862,79.6656
142.3511,79.6747
142.3163,79.6850
142.2819,79.6964
142.2480,79.7089
142.2145,79.7226
142.1815,79.7373
142.1489,79.7532
142.1170,79.7701
142.0855,79.7880
142.0547,79.8070
142.0245,79.8271
141.9949,79.8482
141.9660,79.8702
141.9378,79.8933
139.5045,81.9517
139.4650,81.9867
139.4274,82.0235
139.3918,82.0619
139.3581,82.1018
139.3264,82.1432
139.2969,82.1860
139.2694,82.2302
139.2441,82.2755
139.2209,82.3220
139.2000,82.3696
139.1813,82.4182
139.1650,82.4676
139.1510,82.5179
139.1394,82.5690
139.1303,82.6208
139.1236,82.6731
138.7668,86.1373
138.7630,86.1838
138.7612,86.2304
138.7614,86.2768
138.7636,86.3231
138.7677,86.3692
138.7738,86.4150
138.7818,86.4605
138.7917,86.5055
138.8035,86.5501
138.8172,86.5942
138.8327,86.6377
138.8501,86.6806
138.8693,86.7227
138.8904,86.7641
138.9132,86.8047
138.9379,86.8444
140.2903,88.9212
140.3195,88.9638
140.3505,89.0048
140.3834,89.0442
140.4179,89.0819
140.4541,89.1179
140.4919,89.1520
140.5312,89.1844
140.5720,89.2148
140.6141,89.2434
140.6576,89.2699
140.7022,89.2945
140.7481,89.3169
140.7950,89.3372
140.8430,89.3554
140.8919,89.3713
140.9418,89.3850
145.9668,90.6354
146.0083,90.6448
146.0499,90.6526
146.0917,90.6588
146.1336,90.6634
146.1757,90.6663
146.2177,90.6676
146.2598,90.6673
146.3018,90.6654
146.3436,90.6619
146.3854,90.6567
146.4269,90.6500
146.4682,90.6416
146.5092,90.6316
146.5498,90.6201
146.5901,90.6069
146.6299,90.5922
152.6373,88.2340
152.6879,88.2126
152.7371,88.1889
152.7849,88.1628
152.8312,88.1345
152.8760,88.1040
152.9190,88.0714
152.9604,88.0367
153.0000,88.0000
153.0377,87.9614
153.0735,87.9210
153.1073,87.8788
153.1390,87.8350
153.1686,87.7895
153.1959,87.7424
153.2210,87.6938
153.2436,87.6439
154.9992,83.5031
155.0144,83.4653
155.0281,83.4271
155.0404,83.3884
155.0512,83.3494
155.0606,83.3101
155.0685,83.2705
155.0749,83.2306
155.0798,83.1906
155.0833,83.1504
155.0852,83.1101
155.0857,83.0697
155.0847,83.0293
155.0821,82.9888
155.0781,82.9485
155.0726,82.9082
155.0655,82.8681
154.0445,77.6417
154.0356,77.6005
154.0252,77.5599
154.0133,77.5197
153.9998,77.4802
153.9849,77.4412
153.9685,77.4028
153.9507,77.3652
153.9314,77.3282
153.9108,77.2921
153.8887,77.2567
153.8654,77.2222
153.8407,77.1885
153.8147,77.1558
153.7874,77.1240
153.7588,77.0932
153.7290,77.0635
150.5042,73.9685
150.4637,73.9315
150.4216,73.8968
150.3780,73.8643
150.3329,73.8341
150.2865,73.8063
150.2389,73.7808
150.1901,73.7578
150.1403,73.7372
150.0895,73.7191
150.0379,73.7035
149.9855,73.6904
149.9324,73.6800
149.8787,73.6721
149.8246,73.6670
149.7700,73.6645
149.7152,73.6648
143.1034,73.8627
143.0792,73.8637
143.0550,73.8652
143.0309,73.8673
143.0069,73.8698
142.9829,73.8730
142.9590,73.8766
142.9353,73.8808
142.9116,73.8855
142.8880,73.8907
142.8645,73.8965
142.8412,73.9027
142.8180,73.9095
142.7950,73.9168
142.7721,73.9246
142.7493,73.9329
142.7268,73.9418
138.5436,75.6322
138.4938,75.6510
138.4435,75.6672
138.3930,75.6809
138.3423,75.6920
138.2915,75.7007
138.2406,75.7069
138.1897,75.7106
138.1389,75.7120
138.0883,75.7110
138.0380,75.7077
137.9880,75.7021
137.9385,75.6942
137.8894,75.6841
137.8409,75.6717
137.7931,75.6572
137.7460,75.6405
137.6997,75.6217
137.6543,75.6008
137.6098,75.5778
137.5664,75.5528
137.5241,75.5258
137.4830,75.4967
137.4432,75.4658
137.4048,75.4329
137.3678,75.3982
137.3323,75.3616
137.2984,75.3231
137.2661,75.2829
137.2356,75.2409
137.2070,75.1971
137.1802,75.1516
137.1554,75.1045
136.6418,74.0673
136.6169,74.0136
136.5952,73.9593
136.5766,73.9045
136.5611,73.8493
136.5486,73.7938
136.5391,73.7382
136.5326,73.6825
136.5289,73.6268
136.5281,73.5712
136.5302,73.5159
136.5351,73.4610
136.5427,73.4065
136.5530,73.3525
136.5659,73.2992
136.5816,73.2466
136.5998,73.1950
136.6205,73.1443
136.6438,73.0946
136.6695,73.0462
136.6977,72.9990
136.7283,72.9532
136.7612,72.9089
136.7964,72.8662
136.8340,72.8252
136.8737,72.7861
136.9156,72.7488
136.9597,72.7135
137.0060,72.6804
137.0542,72.6495
137.1046,72.6209
137.1569,72.5947
137.2111,72.5711
141.8928,70.6791
141.9154,70.6703
141.9382,70.6620
141.9611,70.6542
141.9841,70.6469
142.0073,70.6401
142.0307,70.6338
142.0541,70.6281
142.0777,70.6229
142.1014,70.6182
142.1252,70.6140
142.1491,70.6103
142.1730,70.6072
142.1971,70.6046
142.2212,70.6025
142.2454,70.6010
142.2696,70.6000
151.2374,70.3316
151.2923,70.3313
Z" /> 
<g >
</g>
<g >
</g>
<g >
</g>
<g >
</g>
<g >
</g>
<g >
</g>
<g >
</g>
<g >
</g>
<g >
</g>
<g >
</g>
<g >
</g>
<g >
</g>
<g >
</g>
<g >
</g>
<g >
</g>
<g >
</g>
<g >
</g>
<g >
</g>
<g >
</g>
<g >
</g>
<g >
</g>
<g >
</g>
<g >
</g>
<g >
</g>
<g >
</g>
<g >
</g>
<g >
</g>
<g >
</g>
<g >
</g>
<g >
</g>
<g >
</g>
<g >
</g>
<g >
</g>
<g >
</g>
<g >
</g>
<g >
</g>
<g >
</g>
<g >
</g>
<g >
</g>
<g >
</g>
<g >
</g>
<g >
</g>
<g >
</g>
<g >
</g>
<g >
</g>
<g >
</g>
<g >
</g>
<g >
</g>
<g >
</g>
<g >
</g>
<g >
</g>
<g >
</g>
<g >
</g>
<g >
</g>
<g >
</g>
<g >
</g>
<g >
</g>
<g >
</g>
<g >
</g>
<g >
</g>
<g >
</g>
<g >
</g>
<g >
</g>
<g >
</g>
<g >
</g>
<g >
</g>
<g >
</g>
<g >
</g>
<g >
</g>
<g >
</g>
<g >
</g>
<g >
</g>
<g >
</g>
<g >
</g>
</g> 
</svg>
