<?xml version="1.0" standalone="no"?>
 <!DOCTYPE svg PUBLIC "-//W3C//DTD SVG 1.1//EN" 
 "http://www.w3.org/Graphics/SVG/1.1/DTD/svg11.dtd"> 
<svg
  xmlns:svg="http://www.w3.org/2000/svg"
  xmlns="http://www.w3.org/2000/svg"
  xmlns:xlink="http://www.w3.org/1999/xlink"
  version="1.1"
  width="297.0022mm" height="210.0072mm" viewBox="0.0000 0.0000 297.0022 210.0072">
<title>SVG Image created as Untitled-B_Silkscreen.svg date 2023/12/06 20:26:37 </title>
  <desc>Image generated by PCBNEW </desc>
<g style="fill:#000000; fill-opacity:1.0000;stroke:#000000; stroke-opacity:1.0000;
stroke-linecap:round; stroke-linejoin:round;"
 transform="translate(0 0) scale(1 1)">
</g>
<g style="fill:#000000; fill-opacity:0.0; 
stroke:#000000; stroke-width:0.0000; stroke-opacity:1; 
stroke-linecap:round; stroke-linejoin:round;">
</g>
<g style="fill:#000000; fill-opacity:0.0; 
stroke:#000000; stroke-width:0.0000; stroke-opacity:1; 
stroke-linecap:round; stroke-linejoin:round;">
</g>
<g style="fill:#000000; fill-opacity:1.0000; 
stroke:#000000; stroke-width:0.0000; stroke-opacity:1; 
stroke-linecap:round; stroke-linejoin:round;">
<path style="fill:#000000; fill-opacity:1.0000; 
stroke:#000000; stroke-width:0.0000; stroke-opacity:1; 
stroke-linecap:round; stroke-linejoin:round;fill-rule:evenodd;"
d="M 148.0000,68.0000
148.1505,68.0030
148.2953,68.0076
148.4375,68.0137
148.5772,68.0211
148.7143,68.0300
148.8489,68.0403
148.9808,68.0521
149.1101,68.0653
149.2367,68.0801
149.4726,68.1107
149.7026,68.1439
149.9269,68.1795
150.1454,68.2177
150.2499,68.2373
150.3480,68.2570
150.4392,68.2767
150.4820,68.2867
150.5228,68.2966
150.5953,68.3155
150.6380,68.3278
150.6837,68.3422
150.7315,68.3589
150.7805,68.3779
150.8052,68.3884
150.8298,68.3995
150.8542,68.4114
150.8784,68.4239
150.9173,68.4458
150.9551,68.4690
150.9918,68.4936
151.0275,68.5196
151.0619,68.5468
151.0952,68.5753
151.1273,68.6051
151.1582,68.6360
151.1878,68.6682
151.2161,68.7015
151.2432,68.7360
151.2689,68.7716
151.2933,68.8083
151.3163,68.8461
151.3379,68.8849
151.3581,68.9247
151.3767,68.9653
151.3936,69.0063
151.4089,69.0478
151.4224,69.0898
151.4343,69.1320
151.4445,69.1747
151.4529,69.2176
151.4597,69.2608
151.4648,69.3042
151.4681,69.3479
151.4697,69.3917
151.4696,69.4356
151.4677,69.4796
151.4641,69.5237
151.4588,69.5678
151.4517,69.6118
151.4429,69.6556
151.4325,69.6988
151.4204,69.7413
151.4068,69.7832
151.3915,69.8244
151.3747,69.8649
151.3563,69.9046
151.3364,69.9435
151.3149,69.9816
151.2920,70.0189
151.2676,70.0552
151.2417,70.0907
151.2143,70.1252
151.1855,70.1588
151.1553,70.1913
151.1236,70.2228
150.8794,70.4567
149.4282,70.3962
149.4156,70.3953
148.0299,70.2933
147.2468,70.2954
147.0658,70.2981
146.8928,70.3051
146.7276,70.3164
146.5703,70.3317
146.4207,70.3509
146.2787,70.3739
146.1441,70.4006
146.0170,70.4309
145.8887,70.4666
145.7543,70.5093
145.6137,70.5590
145.4670,70.6159
145.3141,70.6802
145.1548,70.7521
144.9892,70.8317
144.8173,70.9192
144.6450,71.0122
144.4684,71.1136
144.2873,71.2234
144.1019,71.3417
143.9121,71.4686
143.7179,71.6043
143.5193,71.7486
143.3163,71.9019
143.1126,72.0613
142.9097,72.2260
142.7077,72.3957
142.5065,72.5707
142.3062,72.7510
142.1067,72.9364
141.9081,73.1270
141.7104,73.3230
141.5145,73.5226
141.3247,73.7210
141.1412,73.9181
140.9639,74.1138
140.7928,74.3082
140.6278,74.5013
140.4689,74.6931
140.3161,74.8835
140.1762,75.0659
140.0459,75.2460
139.9251,75.4237
139.8137,75.5991
139.7116,75.7722
139.6186,75.9429
139.5345,76.1112
139.4593,76.2772
139.4270,76.3552
139.3962,76.4355
139.3392,76.6033
139.2886,76.7806
139.2446,76.9677
139.2074,77.1648
139.1773,77.3720
139.1544,77.5895
139.1390,77.8175
139.1307,78.0611
139.1296,78.3188
139.1357,78.5907
139.1491,78.8770
139.1700,79.1777
139.1984,79.4929
139.2345,79.8227
139.2783,80.1673
139.3295,80.5201
139.3880,80.8799
139.4541,81.2467
139.5276,81.6205
139.6087,82.0014
139.6973,82.3893
139.7934,82.7842
139.8972,83.1863
140.0070,83.5888
140.1216,83.9868
140.2410,84.3801
140.3651,84.7688
140.4941,85.1530
140.6279,85.5326
140.7664,85.9075
140.9097,86.2779
141.0551,86.6315
141.2061,86.9717
141.3625,87.2984
141.5244,87.6119
141.6917,87.9123
141.8643,88.1995
142.0422,88.4738
142.2252,88.7352
142.3153,88.8557
142.4083,88.9734
142.5042,89.0883
142.6029,89.2005
142.7046,89.3100
142.8092,89.4166
142.9168,89.5206
143.0273,89.6218
143.1407,89.7203
143.2572,89.8160
143.3766,89.9090
143.4990,89.9992
143.6244,90.0868
143.7528,90.1716
143.8843,90.2537
144.0188,90.3330
144.3033,90.4882
144.6011,90.6351
144.9123,90.7734
145.2372,90.9031
145.5756,91.0242
145.9279,91.1364
146.2941,91.2398
146.6742,91.3341
147.0702,91.4214
147.4711,91.5009
147.8767,91.5724
148.2872,91.6361
148.7026,91.6917
149.1228,91.7395
149.5480,91.7792
149.9780,91.8110
150.4120,91.8360
150.8395,91.8548
151.2605,91.8674
151.6751,91.8738
152.0833,91.8739
152.4850,91.8679
152.8803,91.8558
153.2691,91.8375
153.6380,91.8115
153.9914,91.7755
154.3296,91.7296
154.6526,91.6741
154.8086,91.6427
154.9608,91.6090
155.1093,91.5729
155.2542,91.5345
155.3954,91.4939
155.5329,91.4510
155.6669,91.4058
155.7972,91.3584
155.9118,91.3128
156.0236,91.2632
156.1329,91.2096
156.2396,91.1519
156.3436,91.0902
156.4451,91.0244
156.5440,90.9544
156.6404,90.8803
156.7342,90.8019
156.8255,90.7192
156.9143,90.6322
157.0006,90.5409
157.0844,90.4452
157.1657,90.3450
157.2445,90.2404
157.3210,90.1313
157.3977,90.0138
157.4723,89.8913
157.5449,89.7638
157.6154,89.6312
157.6837,89.4934
157.7499,89.3506
157.8138,89.2025
157.8754,89.0492
157.9347,88.8906
157.9918,88.7266
158.0464,88.5573
158.0986,88.3825
158.1484,88.2022
158.1956,88.0165
158.2826,87.6282
158.3612,87.2178
158.4307,86.7985
158.4911,86.3704
158.5424,85.9335
158.5845,85.4876
158.6174,85.0329
158.6410,84.5692
158.6554,84.0966
158.6655,83.1377
158.6634,82.6668
158.6564,82.2016
158.6447,81.7421
158.6282,81.2883
158.6069,80.8402
158.5808,80.3978
158.5499,79.9674
158.5140,79.5532
158.4731,79.1553
158.4273,78.7736
158.3766,78.4079
158.3211,78.0583
158.2609,77.7246
158.1959,77.4067
158.1628,77.2618
158.1271,77.1213
158.0892,76.9853
158.0488,76.8536
158.0062,76.7263
157.9614,76.6032
157.9143,76.4843
157.8650,76.3696
157.8137,76.2589
157.7602,76.1523
157.7047,76.0498
157.6472,75.9511
157.5878,75.8564
157.5264,75.7655
157.4632,75.6783
157.3981,75.5949
157.3304,75.5141
157.2599,75.4355
157.1867,75.3590
157.1106,75.2849
157.0316,75.2129
156.9498,75.1432
156.8651,75.0758
156.7773,75.0107
156.6866,74.9478
156.5929,74.8873
156.4960,74.8290
156.3961,74.7731
156.2930,74.7195
156.1868,74.6682
156.0773,74.6193
155.9646,74.5727
155.7236,74.4834
155.4757,74.4038
155.2208,74.3342
154.9589,74.2747
154.6898,74.2252
154.4135,74.1860
154.1299,74.1572
153.8389,74.1387
153.5424,74.1305
153.2467,74.1323
152.9519,74.1442
152.6580,74.1663
152.3649,74.1984
152.0726,74.2407
151.7810,74.2930
151.4902,74.3555
151.2046,74.4273
150.9252,74.5086
150.7878,74.5527
150.6519,74.5992
150.5176,74.6480
150.3848,74.6992
150.2535,74.7526
150.1237,74.8084
149.9954,74.8666
149.8686,74.9270
149.7432,74.9898
149.6194,75.0549
149.4971,75.1223
149.3762,75.1920
149.2556,75.2646
149.1365,75.3392
149.0190,75.4157
148.9031,75.4943
148.7887,75.5749
148.6759,75.6575
148.5646,75.7421
148.4549,75.8287
148.3467,75.9174
148.2401,76.0080
148.1350,76.1007
148.0314,76.1954
147.9293,76.2921
147.8288,76.3909
147.7299,76.4917
147.6324,76.5945
147.4371,76.8099
147.2476,77.0304
147.0641,77.2560
146.8863,77.4867
146.7145,77.7225
146.5485,77.9634
146.3883,78.2095
146.2340,78.4607
146.0844,78.7178
145.9419,78.9758
145.8064,79.2345
145.6779,79.4941
145.5565,79.7544
145.4420,80.0156
145.3345,80.2776
145.2340,80.5403
145.1415,80.8011
145.0580,81.0577
144.9833,81.3102
144.9174,81.5587
144.8601,81.8031
144.8114,82.0435
144.7712,82.2799
144.7395,82.5122
144.7275,82.6224
144.7182,82.7307
144.7115,82.8371
144.7074,82.9418
144.7058,83.0446
144.7067,83.1457
144.7102,83.2450
144.7161,83.3426
144.7244,83.4385
144.7351,83.5327
144.7483,83.6252
144.7637,83.7160
144.7815,83.8052
144.8016,83.8927
144.8239,83.9787
144.8484,84.0631
144.8746,84.1437
144.9034,84.2238
144.9350,84.3033
144.9693,84.3823
145.0064,84.4607
145.0463,84.5385
145.0890,84.6158
145.1347,84.6925
145.1832,84.7687
145.2348,84.8443
145.2893,84.9194
145.3468,84.9939
145.4074,85.0678
145.4711,85.1413
145.5379,85.2142
145.6079,85.2865
145.7626,85.4358
145.9283,85.5828
146.1051,85.7275
146.2932,85.8698
146.4928,86.0096
146.7039,86.1469
146.9268,86.2816
147.1615,86.4135
147.4082,86.5435
147.6600,86.6686
147.9168,86.7888
148.1787,86.9040
148.4457,87.0142
148.7178,87.1195
148.9950,87.2197
149.2773,87.3149
149.5620,87.4045
149.8433,87.4869
150.1210,87.5621
150.3953,87.6300
150.6661,87.6909
150.9334,87.7447
151.1973,87.7914
151.4578,87.8311
151.7089,87.8626
151.9490,87.8851
152.1782,87.8990
152.3968,87.9044
152.6047,87.9016
152.7048,87.8973
152.8023,87.8910
152.8972,87.8827
152.9896,87.8726
153.0794,87.8606
153.1667,87.8468
153.2508,87.8313
153.3322,87.8141
153.4111,87.7953
153.4874,87.7749
153.5613,87.7529
153.6328,87.7293
153.7018,87.7042
153.7685,87.6777
153.8330,87.6496
153.8951,87.6202
153.9551,87.5894
154.0128,87.5573
154.0685,87.5238
154.1220,87.4890
154.1736,87.4531
154.2231,87.4159
154.2769,87.3728
154.3296,87.3284
154.3812,87.2827
154.4316,87.2355
154.4808,87.1869
154.5289,87.1370
154.5758,87.0856
154.6216,87.0327
154.6662,86.9784
154.7097,86.9227
154.7520,86.8654
154.7932,86.8067
154.8333,86.7464
154.8721,86.6847
154.9099,86.6214
154.9465,86.5565
155.0208,86.4150
155.0905,86.2700
155.1555,86.1214
155.2158,85.9692
155.2713,85.8133
155.3221,85.6538
155.3681,85.4905
155.4092,85.3234
155.4458,85.1523
155.4770,84.9813
155.5029,84.8102
155.5235,84.6393
155.5389,84.4683
155.5490,84.2974
155.5538,84.1264
155.5534,83.9554
155.5477,83.7875
155.5367,83.6232
155.5203,83.4623
155.4987,83.3047
155.4718,83.1506
155.4398,82.9997
155.4027,82.8521
155.3605,82.7078
155.3375,82.6365
155.3135,82.5665
155.2883,82.4976
155.2621,82.4298
155.2348,82.3631
155.2064,82.2975
155.1769,82.2330
155.1464,82.1696
155.1149,82.1073
155.0823,82.0461
155.0487,81.9860
155.0140,81.9269
154.9783,81.8688
154.9415,81.8118
154.9038,81.7558
154.8650,81.7009
154.8235,81.6445
154.7814,81.5892
154.7385,81.5350
154.6948,81.4818
154.6504,81.4297
154.6053,81.3786
154.5595,81.3286
154.5129,81.2796
154.4656,81.2316
154.4176,81.1847
154.3688,81.1387
154.3193,81.0938
154.2690,81.0499
154.2180,81.0071
154.1663,80.9652
154.1138,80.9243
154.0029,80.8421
153.8910,80.7645
153.7782,80.6912
153.6644,80.6224
153.5497,80.5580
153.4340,80.4978
153.3173,80.4420
153.1997,80.3904
153.1503,80.3706
153.0995,80.3520
153.0472,80.3346
152.9933,80.3184
152.9378,80.3035
152.8808,80.2898
152.8221,80.2775
152.7618,80.2666
152.6999,80.2570
152.6362,80.2489
152.5709,80.2423
152.5038,80.2371
152.4349,80.2335
152.3642,80.2314
152.2918,80.2309
152.2174,80.2321
152.1439,80.2349
152.0711,80.2393
151.9992,80.2453
151.9280,80.2530
151.8576,80.2623
151.7880,80.2731
151.7191,80.2856
151.6510,80.2996
151.5835,80.3153
151.5168,80.3325
151.4508,80.3513
151.3855,80.3717
151.3209,80.3937
151.2570,80.4172
151.1937,80.4422
151.1310,80.4688
151.0678,80.4975
151.0079,80.5264
150.9512,80.5555
150.8978,80.5847
150.8474,80.6140
150.8001,80.6434
150.7557,80.6727
150.7141,80.7021
150.6753,80.7314
150.6391,80.7605
150.6056,80.7895
150.5745,80.8183
150.5458,80.8469
150.5195,80.8752
150.4954,80.9031
150.4734,80.9307
150.4533,80.9581
150.4336,80.9874
150.4144,81.0186
150.3956,81.0518
150.3774,81.0871
150.3598,81.1246
150.3429,81.1643
150.3267,81.2063
150.3113,81.2506
150.2968,81.2974
150.2832,81.3466
150.2706,81.3985
150.2591,81.4530
150.2487,81.5101
150.2394,81.5701
150.2314,81.6329
150.2273,81.6771
150.2252,81.7214
150.2250,81.7658
150.2270,81.8103
150.2311,81.8550
150.2375,81.9000
150.2463,81.9452
150.2574,81.9907
150.2710,82.0366
150.2871,82.0828
150.3059,82.1295
150.3274,82.1766
150.3517,82.2243
150.3788,82.2725
150.4088,82.3214
150.4419,82.3708
150.4651,82.4025
150.4904,82.4333
150.5179,82.4632
150.5480,82.4921
150.5807,82.5197
150.6162,82.5462
150.6549,82.5712
150.6968,82.5947
150.7422,82.6166
150.7913,82.6368
150.8442,82.6552
150.9013,82.6717
150.9627,82.6861
151.0285,82.6983
151.0990,82.7082
151.1744,82.7158
151.3010,82.7268
151.4228,82.7387
151.5395,82.7518
151.6510,82.7661
151.6922,82.7610
151.7336,82.7576
151.7750,82.7558
151.8165,82.7555
151.8579,82.7569
151.8993,82.7599
151.9406,82.7645
151.9818,82.7707
152.0229,82.7785
152.0637,82.7879
152.1044,82.7989
152.1448,82.8115
152.1850,82.8258
152.2248,82.8416
152.2643,82.8591
152.3034,82.8781
152.3527,82.9048
152.4002,82.9336
152.4458,82.9643
152.4896,82.9970
152.5314,83.0316
152.5712,83.0680
152.6090,83.1062
152.6448,83.1461
152.6785,83.1877
152.7100,83.2309
152.7393,83.2756
152.7664,83.3218
152.7913,83.3695
152.8138,83.4185
152.8340,83.4688
152.8518,83.5204
152.8617,83.5520
152.8706,83.5836
152.8785,83.6155
152.8855,83.6474
152.8915,83.6794
152.8965,83.7116
152.9005,83.7438
152.9036,83.7760
152.9056,83.8083
152.9067,83.8407
152.9069,83.8730
152.9060,83.9053
152.9042,83.9376
152.9013,83.9699
152.8975,84.0021
152.8928,84.0342
152.8873,84.0663
152.8809,84.0981
152.8736,84.1297
152.8653,84.1610
152.8561,84.1920
152.8459,84.2227
152.8349,84.2531
152.8229,84.2831
152.8099,84.3129
152.7961,84.3422
152.7814,84.3712
152.7657,84.3998
152.7492,84.4280
152.7317,84.4558
152.7134,84.4832
152.6942,84.5101
152.6745,84.5366
152.6541,84.5625
152.6330,84.5876
152.6113,84.6120
152.5889,84.6357
152.5658,84.6586
152.5421,84.6808
152.5178,84.7023
152.4929,84.7229
152.4674,84.7428
152.4413,84.7619
152.4146,84.7802
152.3874,84.7977
152.3596,84.8144
152.3313,84.8303
152.3025,84.8453
152.2734,84.8598
152.2439,84.8733
152.2141,84.8859
152.1839,84.8976
152.1534,84.9083
152.1226,84.9182
152.0915,84.9270
152.0601,84.9350
152.0285,84.9420
151.9966,84.9481
151.9645,84.9532
151.9321,84.9573
151.8996,84.9605
151.8669,84.9627
151.8340,84.9640
151.8010,84.9643
151.7769,84.9641
151.7529,84.9635
151.7290,84.9623
151.7053,84.9606
151.6816,84.9584
151.6580,84.9557
151.6345,84.9525
151.6111,84.9488
151.5918,84.9476
151.5647,84.9463
151.5292,84.9451
151.4847,84.9440
151.4009,84.9431
151.3033,84.9432
151.1918,84.9444
151.0660,84.9467
150.9741,84.9473
150.8827,84.9454
150.7916,84.9408
150.7008,84.9336
150.6104,84.9239
150.5204,84.9116
150.4309,84.8967
150.3417,84.8793
150.2529,84.8594
150.1645,84.8370
150.0766,84.8121
149.9891,84.7848
149.9021,84.7550
149.8156,84.7228
149.7295,84.6882
149.6440,84.6511
149.5570,84.6106
149.4718,84.5679
149.3883,84.5229
149.3066,84.4756
149.2268,84.4260
149.1489,84.3741
149.0729,84.3199
148.9988,84.2634
148.9267,84.2045
148.8566,84.1434
148.7886,84.0799
148.7226,84.0140
148.6588,83.9458
148.5972,83.8752
148.5377,83.8023
148.4804,83.7269
148.4256,83.6494
148.3738,83.5705
148.3251,83.4903
148.2793,83.4088
148.2366,83.3260
148.1968,83.2420
148.1600,83.1567
148.1263,83.0703
148.0955,82.9826
148.0676,82.8939
148.0427,82.8040
148.0208,82.7131
148.0018,82.6211
147.9857,82.5280
147.9725,82.4340
147.9623,82.3391
147.9550,82.2444
147.9507,82.1500
147.9492,82.0557
147.9505,81.9617
147.9547,81.8678
147.9617,81.7743
147.9715,81.6809
147.9840,81.5879
147.9993,81.4951
148.0173,81.4026
148.0380,81.3104
148.0614,81.2185
148.0875,81.1269
148.1162,81.0357
148.1475,80.9448
148.1815,80.8543
148.2154,80.7698
148.2509,80.6861
148.2879,80.6033
148.3265,80.5214
148.3666,80.4403
148.4083,80.3602
148.4515,80.2809
148.4962,80.2026
148.5425,80.1251
148.5903,80.0486
148.6397,79.9730
148.6906,79.8982
148.7430,79.8244
148.7969,79.7515
148.8524,79.6795
148.9094,79.6085
148.9673,79.5391
149.0262,79.4712
149.0861,79.4047
149.1471,79.3396
149.2091,79.2760
149.2721,79.2139
149.3362,79.1533
149.4014,79.0942
149.4676,79.0366
149.5348,78.9805
149.6031,78.9260
149.6725,78.8731
149.7429,78.8217
149.8144,78.7719
149.8870,78.7237
149.9606,78.6771
150.0362,78.6316
150.1126,78.5882
150.1897,78.5468
150.2676,78.5074
150.3462,78.4701
150.4255,78.4348
150.5055,78.4017
150.5862,78.3706
150.6676,78.3416
150.7497,78.3147
150.8324,78.2899
150.9159,78.2673
151.0000,78.2468
151.0848,78.2285
151.1702,78.2123
151.2563,78.1983
151.3402,78.1868
151.4244,78.1771
151.5088,78.1693
151.5934,78.1634
151.6783,78.1594
151.7634,78.1572
151.9342,78.1583
152.1058,78.1666
152.2782,78.1820
152.4512,78.2044
152.6249,78.2337
152.7960,78.2688
152.9669,78.3098
153.1375,78.3566
153.3077,78.4091
153.4777,78.4673
153.6473,78.5311
153.8166,78.6004
153.9855,78.6752
154.1572,78.7575
154.3263,78.8455
154.4927,78.9390
154.6565,79.0382
154.8177,79.1429
154.9763,79.2531
155.1322,79.3688
155.2854,79.4899
155.3630,79.5544
155.4394,79.6202
155.5144,79.6874
155.5881,79.7560
155.6606,79.8258
155.7317,79.8970
155.8015,79.9696
155.8701,80.0435
155.9373,80.1187
156.0032,80.1952
156.0679,80.2730
156.1312,80.3522
156.1932,80.4326
156.2540,80.5144
156.3134,80.5974
156.3715,80.6817
156.4294,80.7693
156.4855,80.8579
156.5921,81.0385
156.6916,81.2236
156.7837,81.4129
156.8687,81.6066
156.9466,81.8045
157.0173,82.0065
157.0809,82.2127
157.1371,82.4222
157.1859,82.6341
157.2272,82.8484
157.2610,83.0650
157.2875,83.2839
157.3066,83.5051
157.3185,83.7285
157.3231,83.9541
157.3206,84.1798
157.3112,84.4051
157.2948,84.6299
157.2715,84.8543
157.2413,85.0781
157.2042,85.3014
157.1602,85.5242
157.1093,85.7465
157.0507,85.9696
156.9850,86.1888
156.9121,86.4043
156.8321,86.6159
156.7449,86.8236
156.6504,87.0274
156.5487,87.2271
156.4398,87.4229
156.3804,87.5224
156.3189,87.6199
156.2553,87.7156
156.1897,87.8093
156.1221,87.9010
156.0524,87.9908
155.9806,88.0786
155.9068,88.1644
155.8309,88.2483
155.7529,88.3301
155.6730,88.4099
155.5909,88.4876
155.5068,88.5633
155.4207,88.6370
155.3325,88.7086
155.2423,88.7781
155.1450,88.8486
155.0456,88.9158
154.9441,88.9797
154.8405,89.0404
154.7349,89.0980
154.6272,89.1523
154.5176,89.2036
154.4060,89.2517
154.2925,89.2968
154.1771,89.3388
154.0599,89.3778
153.9409,89.4138
153.8201,89.4468
153.6976,89.4770
153.5734,89.5042
153.4476,89.5286
153.3198,89.5501
153.1902,89.5687
152.9262,89.5971
152.6558,89.6142
152.3789,89.6200
152.0959,89.6150
151.8067,89.5992
151.5117,89.5730
151.2108,89.5367
150.9077,89.4912
150.6025,89.4375
150.2953,89.3754
149.9860,89.3050
149.6747,89.2264
149.3615,89.1396
149.0462,89.0447
148.7290,88.9416
148.4129,88.8315
148.1015,88.7154
147.7949,88.5935
147.4931,88.4657
147.1961,88.3320
146.9039,88.1923
146.6165,88.0466
146.3340,87.8950
146.1932,87.8160
146.0549,87.7355
145.9192,87.6537
145.7860,87.5704
145.6553,87.4857
145.5272,87.3995
145.4018,87.3119
145.2789,87.2229
145.1586,87.1324
145.0410,87.0404
144.9260,86.9469
144.8138,86.8520
144.7042,86.7556
144.5973,86.6576
144.4932,86.5582
144.3918,86.4572
144.2906,86.3515
144.1929,86.2439
144.0989,86.1345
144.0086,86.0233
143.9219,85.9103
143.8389,85.7955
143.7597,85.6788
143.6842,85.5603
143.6126,85.4400
143.5447,85.3179
143.4808,85.1939
143.4207,85.0682
143.3646,84.9406
143.3124,84.8113
143.2641,84.6801
143.2199,84.5471
143.1804,84.4152
143.1446,84.2821
143.1124,84.1478
143.0840,84.0124
143.0591,83.8758
143.0378,83.7382
143.0201,83.5994
143.0060,83.4595
142.9953,83.3185
142.9882,83.1765
142.9845,83.0335
142.9843,82.8895
142.9875,82.7444
142.9940,82.5984
143.0040,82.4514
143.0173,82.3035
143.0517,82.0122
143.0964,81.7190
143.1514,81.4237
143.2165,81.1265
143.2917,80.8272
143.3770,80.5261
143.4721,80.2230
143.5770,79.9180
143.6908,79.6133
143.8127,79.3103
143.9427,79.0091
144.0808,78.7097
144.2270,78.4120
144.3813,78.1161
144.5435,77.8219
144.7138,77.5295
144.8928,77.2386
145.0790,76.9531
145.2721,76.6732
145.4723,76.3988
145.6796,76.1299
145.8938,75.8665
146.1151,75.6087
146.3434,75.3564
146.4628,75.2302
146.5841,75.1063
146.7073,74.9849
146.8325,74.8658
146.9596,74.7492
147.0887,74.6349
147.2197,74.5230
147.3526,74.4135
147.4875,74.3065
147.6243,74.2018
147.7630,74.0995
147.9036,73.9997
148.0462,73.9022
148.1906,73.8072
148.3370,73.7145
148.4853,73.6243
148.7907,73.4505
149.1027,73.2891
149.4212,73.1402
149.7463,73.0037
150.0778,72.8797
150.4157,72.7681
150.7599,72.6689
151.1104,72.5821
151.4624,72.5081
151.8156,72.4465
152.1699,72.3973
152.5254,72.3604
152.8820,72.3358
153.2397,72.3237
153.5984,72.3238
153.9583,72.3364
154.3164,72.3612
154.6698,72.3982
155.0184,72.4476
155.3622,72.5092
155.7011,72.5832
156.0351,72.6697
156.3642,72.7687
156.6882,72.8802
156.8514,72.9422
157.0123,73.0079
157.1708,73.0773
157.3270,73.1503
157.4809,73.2270
157.6324,73.3074
157.7816,73.3914
157.9284,73.4791
158.0728,73.5704
158.2149,73.6654
158.3545,73.7640
158.4917,73.8663
158.6265,73.9722
158.7589,74.0818
158.8888,74.1950
159.0163,74.3118
159.1451,74.4368
159.2700,74.5662
159.3912,74.6999
159.5086,74.8380
159.6223,74.9803
159.7323,75.1268
159.8386,75.2776
159.9413,75.4324
160.0403,75.5914
160.1357,75.7544
160.2275,75.9214
160.3158,76.0924
160.4006,76.2672
160.4819,76.4460
160.5596,76.6286
160.6340,76.8150
160.7723,77.2014
160.8950,77.6021
161.0024,78.0172
161.0947,78.4464
161.1720,78.8896
161.2345,79.3465
161.2825,79.8171
161.3160,80.3011
161.3363,80.7905
161.3448,81.2839
161.3414,81.7813
161.3261,82.2828
161.2991,82.7883
161.2603,83.2978
161.2098,83.8113
161.1475,84.3289
161.0755,84.8417
160.9951,85.3463
160.9062,85.8426
160.8088,86.3306
160.7029,86.8102
160.5885,87.2815
160.4655,87.7443
160.3339,88.1988
160.1917,88.6458
160.0395,89.0777
159.8770,89.4944
159.7918,89.6969
159.7041,89.8956
159.6138,90.0903
159.5208,90.2811
159.4251,90.4680
159.3268,90.6509
159.2258,90.8298
159.1222,91.0047
159.0158,91.1755
158.9066,91.3423
158.7905,91.5100
158.6703,91.6728
158.5461,91.8308
158.4179,91.9838
158.2856,92.1319
158.1493,92.2749
158.0090,92.4130
157.8647,92.5461
157.7164,92.6742
157.5641,92.7971
157.4078,92.9150
157.2475,93.0277
157.0832,93.1354
156.9149,93.2378
156.7427,93.3350
156.5665,93.4271
156.3903,93.5124
156.2108,93.5931
156.0282,93.6693
155.8423,93.7409
155.6532,93.8081
155.4610,93.8708
155.2657,93.9291
155.0672,93.9830
154.8657,94.0325
154.6612,94.0777
154.4536,94.1185
154.2430,94.1551
154.0295,94.1874
153.8130,94.2154
153.3713,94.2589
152.9295,94.2875
152.4830,94.3039
152.0319,94.3082
151.5762,94.3006
151.1160,94.2809
150.6512,94.2494
150.1818,94.2058
149.7079,94.1505
149.2372,94.0852
148.7713,94.0112
148.3102,93.9284
147.8540,93.8369
147.4026,93.7366
146.9562,93.6275
146.5146,93.5096
146.0780,93.3829
145.6467,93.2467
145.2262,93.1017
144.8165,92.9479
144.4176,92.7851
144.0297,92.6134
143.6527,92.4326
143.2867,92.2428
142.9318,92.0438
142.7545,91.9378
142.5806,91.8284
142.4101,91.7155
142.2429,91.5992
142.0792,91.4795
141.9188,91.3563
141.7619,91.2297
141.6084,91.0996
141.4584,90.9661
141.3118,90.8292
141.1687,90.6889
141.0291,90.5451
140.8929,90.3979
140.7603,90.2472
140.6312,90.0931
140.5055,89.9356
140.3843,89.7761
140.2661,89.6132
140.1511,89.4470
140.0392,89.2775
139.9304,89.1048
139.8247,88.9288
139.7221,88.7496
139.6226,88.5672
139.4327,88.1928
139.2550,87.8057
139.0894,87.4060
138.9358,86.9939
138.7959,86.5847
138.6635,86.1714
138.5387,85.7541
138.4214,85.3326
138.3117,84.9072
138.2095,84.4776
138.1148,84.0440
138.0276,83.6064
137.8740,82.7556
137.7415,81.9320
137.6831,81.5304
137.6300,81.1356
137.5823,80.7476
137.5398,80.3665
137.5033,79.9939
137.4733,79.6327
137.4501,79.2829
137.4337,78.9447
137.4242,78.6182
137.4216,78.3033
137.4260,78.0003
137.4376,77.7092
137.4582,77.4201
137.4723,77.2780
137.4891,77.1375
137.5085,76.9987
137.5306,76.8616
137.5553,76.7263
137.5828,76.5927
137.6131,76.4608
137.6461,76.3308
137.6819,76.2026
137.7206,76.0762
137.7621,75.9517
137.8065,75.8291
137.8538,75.7085
137.9041,75.5897
138.0070,75.3671
138.1193,75.1453
138.2411,74.9242
138.3722,74.7038
138.5125,74.4842
138.6618,74.2652
138.8201,74.0470
138.9872,73.8294
139.1550,73.6195
139.3283,73.4084
139.5070,73.1960
139.6911,72.9823
139.8806,72.7673
140.0755,72.5510
140.2757,72.3335
140.4813,72.1146
140.6898,71.8969
140.8992,71.6826
141.1094,71.4715
141.3204,71.2638
141.5322,71.0594
141.7449,70.8583
141.9583,70.6606
142.1726,70.4662
142.3894,70.2747
142.6048,70.0905
142.8189,69.9138
142.8985,69.8504
150.1882,69.8504
150.1894,69.8509
150.1903,69.8512
150.1909,69.8513
150.1911,69.8514
150.1911,69.8514
150.1911,69.8514
150.1911,69.8514
150.1907,69.8513
150.1900,69.8510
150.1890,69.8507
150.1887,69.8506
150.1885,69.8505
150.1882,69.8504
142.8985,69.8504
143.0317,69.7445
143.2432,69.5826
143.4534,69.4284
143.6622,69.2818
143.8697,69.1428
144.0763,69.0116
144.2815,68.8886
144.4855,68.7742
144.6882,68.6686
144.8895,68.5719
145.0894,68.4844
145.2880,68.4063
145.3867,68.3708
145.4851,68.3377
145.6677,68.2810
145.8494,68.2297
146.0300,68.1839
146.2096,68.1435
146.3881,68.1088
146.5655,68.0798
146.7418,68.0566
146.9170,68.0393
147.0748,68.0273
147.2316,68.0174
147.3874,68.0096
147.5421,68.0040
147.6958,68.0005
147.8484,67.9992
Z" /> 
<g >
</g>
<g >
</g>
<g >
</g>
<g >
</g>
<g >
</g>
<g >
</g>
<g >
</g>
<g >
</g>
<g >
</g>
<g >
</g>
<g >
</g>
<g >
</g>
<g >
</g>
<g >
</g>
<g >
</g>
<g >
</g>
<g >
</g>
<g >
</g>
<g >
</g>
<g >
</g>
<g >
</g>
<g >
</g>
<g >
</g>
<g >
</g>
<g >
</g>
<g >
</g>
<g >
</g>
<g >
</g>
<g >
</g>
<g >
</g>
<g >
</g>
<g >
</g>
<g >
</g>
<g >
</g>
<g >
</g>
<g >
</g>
<g >
</g>
<g >
</g>
<g >
</g>
<g >
</g>
<g >
</g>
<g >
</g>
<g >
</g>
<g >
</g>
<g >
</g>
<g >
</g>
<g >
</g>
<g >
</g>
<g >
</g>
<g >
</g>
<g >
</g>
<g >
</g>
<g >
</g>
<g >
</g>
<g >
</g>
<g >
</g>
<g >
</g>
<g >
</g>
<g >
</g>
<g >
</g>
<g >
</g>
<g >
</g>
<g >
</g>
<g >
</g>
<g >
</g>
<g >
</g>
<g >
</g>
<g >
</g>
<g >
</g>
<g >
</g>
<g >
</g>
<g >
</g>
<g >
</g>
<g >
</g>
<g >
</g>
<g >
</g>
<g >
</g>
<g >
</g>
</g> 
</svg>
