<?xml version="1.0" standalone="no"?>
 <!DOCTYPE svg PUBLIC "-//W3C//DTD SVG 1.1//EN" 
 "http://www.w3.org/Graphics/SVG/1.1/DTD/svg11.dtd"> 
<svg
  xmlns:svg="http://www.w3.org/2000/svg"
  xmlns="http://www.w3.org/2000/svg"
  xmlns:xlink="http://www.w3.org/1999/xlink"
  version="1.1"
  width="297.0022mm" height="210.0072mm" viewBox="0.0000 0.0000 297.0022 210.0072">
<title>SVG Image created as Untitled-Edge_Cuts.svg date 2023/12/09 23:49:21 </title>
  <desc>Image generated by PCBNEW </desc>
<g style="fill:#000000; fill-opacity:1.0000;stroke:#000000; stroke-opacity:1.0000;
stroke-linecap:round; stroke-linejoin:round;"
 transform="translate(0 0) scale(1 1)">
</g>
<g style="fill:#000000; fill-opacity:0.0; 
stroke:#000000; stroke-width:0.0000; stroke-opacity:1; 
stroke-linecap:round; stroke-linejoin:round;">
</g>
<g style="fill:#D0D2CD; fill-opacity:0.0; 
stroke:#D0D2CD; stroke-width:0.0000; stroke-opacity:1; 
stroke-linecap:round; stroke-linejoin:round;">
</g>
<g style="fill:#D0D2CD; fill-opacity:0.0; 
stroke:#D0D2CD; stroke-width:0.2000; stroke-opacity:1; 
stroke-linecap:round; stroke-linejoin:round;">
<path d="M134.3130 126.4034
L134.3130 105.5559
" />
<path d="M97.8513 129.4034
L131.3130 129.4034
" />
<path d="M137.3130 102.5559 A3.0000 3.0000 0.0 0 0 134.3130 105.5559" />
<path d="M161.3181 105.5559 A3.0000 3.0000 0.0 0 0 158.3181 102.5559" />
<path d="M197.8513 59.4034
L97.8513 59.4034
" />
<path d="M164.3181 129.4034
L197.8513 129.4034
" />
<path d="M92.8513 64.4034
L92.8513 124.4034
" />
<path d="M197.8513 129.4034 A5.0000 5.0000 0.0 0 0 202.8513 124.4034" />
<path d="M97.8513 59.4034 A5.0000 5.0000 0.0 0 0 92.8513 64.4034" />
<path d="M131.3130 129.4034 A3.0000 3.0000 0.0 0 0 134.3130 126.4034" />
<path d="M137.3130 102.5559
L158.3181 102.5559
" />
<path d="M202.8513 64.4034 A5.0000 5.0000 0.0 0 0 197.8513 59.4034" />
<path d="M161.3181 105.5559
L161.3181 126.4034
" />
<path d="M92.8513 124.4034 A5.0000 5.0000 0.0 0 0 97.8513 129.4034" />
<path d="M202.8513 124.4034
L202.8513 64.4034
" />
<path d="M161.3181 126.4034 A3.0000 3.0000 0.0 0 0 164.3181 129.4034" />
<g >
</g>
<g >
</g>
<g >
</g>
<g >
</g>
<g >
</g>
<g >
</g>
<g >
</g>
<g >
</g>
<g >
</g>
<g >
</g>
<g >
</g>
<g >
</g>
<g >
</g>
<g >
</g>
<g >
</g>
<g >
</g>
<g >
</g>
<g >
</g>
<g >
</g>
<g >
</g>
<g >
</g>
<g >
</g>
<g >
</g>
<g >
</g>
<g >
</g>
<g >
</g>
<g >
</g>
<g >
</g>
<g >
</g>
<g >
</g>
<g >
</g>
<g >
</g>
<g >
</g>
<g >
</g>
<g >
</g>
<g >
</g>
<g >
</g>
<g >
</g>
<g >
</g>
<g >
</g>
<g >
</g>
<g >
</g>
<g >
</g>
<g >
</g>
<g >
</g>
<g >
</g>
<g >
</g>
<g >
</g>
<g >
</g>
<g >
</g>
<g >
</g>
<g >
</g>
<g >
</g>
<g >
</g>
<g >
</g>
<g >
</g>
<g >
</g>
<g >
</g>
<g >
</g>
<g >
</g>
<g >
</g>
<g >
</g>
<g >
</g>
<g >
</g>
<g >
</g>
<g >
</g>
<g >
</g>
<g >
</g>
<g >
</g>
<g >
</g>
<g >
</g>
<g >
</g>
<g >
</g>
<g >
</g>
<g >
</g>
<g >
</g>
<g >
</g>
<g >
</g>
</g> 
</svg>
