%TF.GenerationSoftware,KiCad,Pcbnew,7.0.7*%
%TF.CreationDate,2023-12-09T22:21:25+01:00*%
%TF.ProjectId,Untitled,556e7469-746c-4656-942e-6b696361645f,rev?*%
%TF.SameCoordinates,Original*%
%TF.FileFunction,Paste,Top*%
%TF.FilePolarity,Positive*%
%FSLAX46Y46*%
G04 Gerber Fmt 4.6, Leading zero omitted, Abs format (unit mm)*
G04 Created by KiCad (PCBNEW 7.0.7) date 2023-12-09 22:21:25*
%MOMM*%
%LPD*%
G01*
G04 APERTURE LIST*
G04 Aperture macros list*
%AMRoundRect*
0 Rectangle with rounded corners*
0 $1 Rounding radius*
0 $2 $3 $4 $5 $6 $7 $8 $9 X,Y pos of 4 corners*
0 Add a 4 corners polygon primitive as box body*
4,1,4,$2,$3,$4,$5,$6,$7,$8,$9,$2,$3,0*
0 Add four circle primitives for the rounded corners*
1,1,$1+$1,$2,$3*
1,1,$1+$1,$4,$5*
1,1,$1+$1,$6,$7*
1,1,$1+$1,$8,$9*
0 Add four rect primitives between the rounded corners*
20,1,$1+$1,$2,$3,$4,$5,0*
20,1,$1+$1,$4,$5,$6,$7,0*
20,1,$1+$1,$6,$7,$8,$9,0*
20,1,$1+$1,$8,$9,$2,$3,0*%
G04 Aperture macros list end*
%ADD10RoundRect,0.250000X-0.262500X-0.450000X0.262500X-0.450000X0.262500X0.450000X-0.262500X0.450000X0*%
%ADD11R,1.070000X0.530000*%
%ADD12R,1.150000X1.400000*%
%ADD13R,1.500000X1.500000*%
%ADD14R,1.200000X1.200000*%
%ADD15R,0.750000X0.300000*%
%ADD16R,1.600000X1.600000*%
%ADD17R,1.250000X0.700000*%
%ADD18RoundRect,0.250000X0.450000X-0.262500X0.450000X0.262500X-0.450000X0.262500X-0.450000X-0.262500X0*%
%ADD19RoundRect,0.250000X0.250000X0.475000X-0.250000X0.475000X-0.250000X-0.475000X0.250000X-0.475000X0*%
%ADD20R,1.900000X1.200000*%
%ADD21RoundRect,0.250000X0.475000X-0.250000X0.475000X0.250000X-0.475000X0.250000X-0.475000X-0.250000X0*%
%ADD22RoundRect,0.250000X0.262500X0.450000X-0.262500X0.450000X-0.262500X-0.450000X0.262500X-0.450000X0*%
%ADD23RoundRect,0.250000X-0.250000X-0.475000X0.250000X-0.475000X0.250000X0.475000X-0.250000X0.475000X0*%
%ADD24RoundRect,0.250000X-0.475000X0.250000X-0.475000X-0.250000X0.475000X-0.250000X0.475000X0.250000X0*%
%ADD25R,3.500000X1.000000*%
%ADD26R,3.500000X1.500000*%
%ADD27R,0.900000X1.500000*%
%ADD28R,1.500000X0.900000*%
%ADD29R,0.900000X0.900000*%
%ADD30R,0.800000X0.800000*%
%ADD31R,0.570000X1.500000*%
%ADD32O,1.760000X2.940000*%
%ADD33R,0.550000X2.210000*%
%ADD34R,1.000000X0.750000*%
%ADD35R,1.000000X1.700000*%
%ADD36R,1.100000X0.600000*%
%ADD37R,1.100000X0.300000*%
%ADD38R,1.500000X0.300000*%
%ADD39R,1.600000X2.000000*%
%ADD40R,0.700000X1.600000*%
%ADD41R,1.600000X1.500000*%
%ADD42R,1.200000X2.200000*%
%ADD43R,1.200000X1.500000*%
%ADD44RoundRect,0.250000X-0.450000X0.262500X-0.450000X-0.262500X0.450000X-0.262500X0.450000X0.262500X0*%
%ADD45R,0.600000X0.250000*%
%ADD46R,0.250000X0.600000*%
G04 APERTURE END LIST*
D10*
%TO.C,R14*%
X130087500Y-98000000D03*
X131912500Y-98000000D03*
%TD*%
D11*
%TO.C,D3*%
X105850000Y-109050000D03*
X105850000Y-110000000D03*
X105850000Y-110950000D03*
X108150000Y-110950000D03*
X108150000Y-110000000D03*
X108150000Y-109050000D03*
%TD*%
D12*
%TO.C,LED1*%
X187900000Y-87800000D03*
X187900000Y-90200000D03*
X186100000Y-87800000D03*
X186100000Y-90200000D03*
%TD*%
D13*
%TO.C,SW6*%
X200550000Y-80900000D03*
X200550000Y-74000000D03*
D14*
X198710000Y-79550000D03*
X198710000Y-75350000D03*
%TD*%
D15*
%TO.C,U2*%
X133500000Y-96750000D03*
X133500000Y-96250000D03*
X133500000Y-95750000D03*
X133500000Y-95250000D03*
X130500000Y-95250000D03*
X130500000Y-95750000D03*
X130500000Y-96250000D03*
X130500000Y-96750000D03*
D16*
X132000000Y-96000000D03*
%TD*%
D17*
%TO.C,Q3*%
X141000000Y-80950000D03*
X141000000Y-79050000D03*
X139000000Y-80000000D03*
%TD*%
D18*
%TO.C,R27*%
X184200000Y-65860580D03*
X184200000Y-64035580D03*
%TD*%
%TO.C,R3*%
X116000000Y-94737500D03*
X116000000Y-92912500D03*
%TD*%
%TO.C,R31*%
X193000000Y-65874029D03*
X193000000Y-64049029D03*
%TD*%
D19*
%TO.C,C18*%
X146950000Y-66000000D03*
X145050000Y-66000000D03*
%TD*%
D20*
%TO.C,SW3*%
X187460000Y-101000000D03*
X194540000Y-101000000D03*
X194540000Y-104000000D03*
X187460000Y-104000000D03*
%TD*%
D21*
%TO.C,C19*%
X147197921Y-91146008D03*
X147197921Y-89246008D03*
%TD*%
D22*
%TO.C,R1*%
X144912500Y-69000000D03*
X143087500Y-69000000D03*
%TD*%
D23*
%TO.C,C8*%
X111271645Y-119000000D03*
X113171645Y-119000000D03*
%TD*%
D22*
%TO.C,R5*%
X120087500Y-92000000D03*
X118262500Y-92000000D03*
%TD*%
D23*
%TO.C,C11*%
X100396555Y-91750898D03*
X102296555Y-91750898D03*
%TD*%
D24*
%TO.C,C3*%
X112000000Y-100050000D03*
X112000000Y-101950000D03*
%TD*%
D23*
%TO.C,C2*%
X100396555Y-94000000D03*
X102296555Y-94000000D03*
%TD*%
D18*
%TO.C,R28*%
X186400000Y-65854941D03*
X186400000Y-64029941D03*
%TD*%
D20*
%TO.C,SW2*%
X116460000Y-115500000D03*
X123540000Y-115500000D03*
X123540000Y-118500000D03*
X116460000Y-118500000D03*
%TD*%
D10*
%TO.C,R40*%
X143087500Y-78000000D03*
X144912500Y-78000000D03*
%TD*%
D20*
%TO.C,SW1*%
X101460000Y-101000000D03*
X108540000Y-101000000D03*
X108540000Y-104000000D03*
X101460000Y-104000000D03*
%TD*%
D13*
%TO.C,SW7*%
X200550000Y-94600000D03*
X200550000Y-87700000D03*
D14*
X198710000Y-93250000D03*
X198710000Y-89050000D03*
%TD*%
D22*
%TO.C,R17*%
X144912500Y-75000000D03*
X143087500Y-75000000D03*
%TD*%
D25*
%TO.C,H2*%
X126300000Y-108350000D03*
X126300000Y-106350000D03*
D26*
X132000000Y-104000000D03*
X132000000Y-110700000D03*
%TD*%
D27*
%TO.C,U1*%
X101060000Y-86650000D03*
X102330000Y-86650000D03*
X103600000Y-86650000D03*
X104870000Y-86650000D03*
X106140000Y-86650000D03*
X107410000Y-86650000D03*
X108680000Y-86650000D03*
X109950000Y-86650000D03*
X111220000Y-86650000D03*
X112490000Y-86650000D03*
X113760000Y-86650000D03*
X115030000Y-86650000D03*
X116300000Y-86650000D03*
X117570000Y-86650000D03*
D28*
X118840000Y-84890000D03*
X118840000Y-83620000D03*
X118840000Y-82350000D03*
X118840000Y-81080000D03*
X118840000Y-79810000D03*
X118840000Y-78530000D03*
X118840000Y-77270000D03*
X118840000Y-76000000D03*
X118840000Y-74730000D03*
X118840000Y-73450000D03*
X118840000Y-72180000D03*
X118810000Y-70910000D03*
D27*
X117570000Y-69150000D03*
X116300000Y-69150000D03*
X115030000Y-69150000D03*
X113760000Y-69150000D03*
X112490000Y-69150000D03*
X111220000Y-69150000D03*
X109950000Y-69150000D03*
X108680000Y-69150000D03*
X107410000Y-69150000D03*
X106140000Y-69150000D03*
X104870000Y-69150000D03*
X103600000Y-69150000D03*
X102330000Y-69150000D03*
X101060000Y-69150000D03*
D29*
X107380000Y-80800000D03*
X108780000Y-80800000D03*
X110180000Y-80800000D03*
X107380000Y-79400000D03*
X108780000Y-79400000D03*
X110180000Y-79400000D03*
X107380000Y-78000000D03*
X108780000Y-78000000D03*
X110180000Y-78000000D03*
%TD*%
D10*
%TO.C,R15*%
X107087500Y-107000000D03*
X108912500Y-107000000D03*
%TD*%
%TO.C,R4*%
X118262500Y-94000000D03*
X120087500Y-94000000D03*
%TD*%
D24*
%TO.C,C20*%
X149197921Y-89246008D03*
X149197921Y-91146008D03*
%TD*%
D30*
%TO.C,CHARGE_LED1*%
X94000000Y-98400000D03*
X94000000Y-100000000D03*
%TD*%
D20*
%TO.C,SW4*%
X172460000Y-115500000D03*
X179540000Y-115500000D03*
X179540000Y-118500000D03*
X172460000Y-118500000D03*
%TD*%
D31*
%TO.C,U3*%
X118500000Y-98000000D03*
D32*
X117000000Y-100770000D03*
D33*
X117000000Y-98360000D03*
D31*
X115500000Y-98000000D03*
X115500000Y-101400000D03*
X118500000Y-101400000D03*
%TD*%
D21*
%TO.C,C17*%
X143197921Y-91146008D03*
X143197921Y-89246008D03*
%TD*%
D34*
%TO.C,D1*%
X120170000Y-96000000D03*
X117830000Y-96000000D03*
%TD*%
D23*
%TO.C,C10*%
X135050000Y-95000000D03*
X136950000Y-95000000D03*
%TD*%
%TO.C,C9*%
X135050000Y-97000000D03*
X136950000Y-97000000D03*
%TD*%
D21*
%TO.C,C12*%
X125000000Y-102950000D03*
X125000000Y-101050000D03*
%TD*%
D18*
%TO.C,R29*%
X188600000Y-65858174D03*
X188600000Y-64033174D03*
%TD*%
D35*
%TO.C,SW10*%
X200850000Y-112700000D03*
X200850000Y-119300000D03*
X197150000Y-112700000D03*
X197150000Y-119300000D03*
%TD*%
D10*
%TO.C,R12*%
X191087500Y-123000000D03*
X192912500Y-123000000D03*
%TD*%
D36*
%TO.C,USB1*%
X99144549Y-109520000D03*
X99144549Y-108720000D03*
D37*
X99144549Y-108070000D03*
X99144549Y-107570000D03*
X99144549Y-107070000D03*
X99144549Y-106570000D03*
X99144549Y-106070000D03*
X99144549Y-105570000D03*
X99144549Y-105070000D03*
X99144549Y-104570000D03*
D36*
X99144549Y-103920000D03*
X99144549Y-103120000D03*
%TD*%
D23*
%TO.C,C7*%
X111275000Y-121000000D03*
X113175000Y-121000000D03*
%TD*%
D38*
%TO.C,J8*%
X152300185Y-68657278D03*
X152300185Y-69157278D03*
X152300185Y-69657278D03*
X152300185Y-70157278D03*
X152300185Y-70657278D03*
X152300185Y-71157278D03*
X152300185Y-71657278D03*
X152300185Y-72157278D03*
X152300185Y-72657278D03*
X152300185Y-73157278D03*
X152300185Y-73657278D03*
X152300185Y-74157278D03*
X152300185Y-74657278D03*
X152300185Y-75157278D03*
X152300185Y-75657278D03*
X152300185Y-76157278D03*
X152300185Y-76657278D03*
X152300185Y-77157278D03*
X152300185Y-77657278D03*
X152300185Y-78157278D03*
X152300185Y-78657278D03*
X152300185Y-79157278D03*
X152300185Y-79657278D03*
X152300185Y-80157278D03*
X152300185Y-80657278D03*
X152300185Y-81157278D03*
X152300185Y-81657278D03*
X152300185Y-82157278D03*
X152300185Y-82657278D03*
X152300185Y-83157278D03*
X152300185Y-83657278D03*
X152300185Y-84157278D03*
X152300185Y-84657278D03*
X152300185Y-85157278D03*
X152300185Y-85657278D03*
X152300185Y-86157278D03*
X152300185Y-86657278D03*
X152300185Y-87157278D03*
X152300185Y-87657278D03*
X152300185Y-88157278D03*
X152300185Y-88657278D03*
X152300185Y-89157278D03*
X152300185Y-89657278D03*
X152300185Y-90157278D03*
X152300185Y-90657278D03*
X152300185Y-91157278D03*
X152300185Y-91657278D03*
X152300185Y-92157278D03*
X152300185Y-92657278D03*
X152300185Y-93157278D03*
D39*
X155000000Y-94900000D03*
X155000000Y-67000000D03*
%TD*%
D22*
%TO.C,R2*%
X144912500Y-71000000D03*
X143087500Y-71000000D03*
%TD*%
D18*
%TO.C,R16*%
X128000000Y-96912500D03*
X128000000Y-95087500D03*
%TD*%
%TO.C,R30*%
X190800000Y-65859394D03*
X190800000Y-64034394D03*
%TD*%
D25*
%TO.C,H1*%
X169505390Y-106000000D03*
X169505390Y-108000000D03*
D26*
X163805390Y-110350000D03*
X163805390Y-103650000D03*
%TD*%
D13*
%TO.C,SW5*%
X112332277Y-61159046D03*
X105432277Y-61159046D03*
D14*
X110982277Y-62999046D03*
X106782277Y-62999046D03*
%TD*%
D35*
%TO.C,SW9*%
X194850000Y-112700000D03*
X194850000Y-119300000D03*
X191150000Y-112700000D03*
X191150000Y-119300000D03*
%TD*%
D10*
%TO.C,R18*%
X120175000Y-125000000D03*
X122000000Y-125000000D03*
%TD*%
D17*
%TO.C,Q1*%
X123000000Y-99900000D03*
X123000000Y-98000000D03*
X121000000Y-98950000D03*
%TD*%
D22*
%TO.C,R8*%
X183825000Y-94000000D03*
X182000000Y-94000000D03*
%TD*%
%TO.C,R33*%
X144923978Y-81472254D03*
X143098978Y-81472254D03*
%TD*%
D18*
%TO.C,R6*%
X108000000Y-120912500D03*
X108000000Y-119087500D03*
%TD*%
%TO.C,R26*%
X182000000Y-65860580D03*
X182000000Y-64035580D03*
%TD*%
D40*
%TO.C,Card1*%
X182450000Y-68000000D03*
D41*
X195850000Y-69000000D03*
D42*
X196750000Y-78600000D03*
X181250000Y-78600000D03*
D43*
X181250000Y-69000000D03*
D40*
X183550000Y-68000000D03*
X184650000Y-68000000D03*
X185750000Y-68000000D03*
X186850000Y-68000000D03*
X187950000Y-68000000D03*
X189050000Y-68000000D03*
X190150000Y-68000000D03*
X191250000Y-68000000D03*
%TD*%
D10*
%TO.C,R13*%
X107087500Y-113000000D03*
X108912500Y-113000000D03*
%TD*%
D21*
%TO.C,C16*%
X145197921Y-91146008D03*
X145197921Y-89246008D03*
%TD*%
D23*
%TO.C,C14*%
X191050000Y-125000000D03*
X192950000Y-125000000D03*
%TD*%
D44*
%TO.C,R19*%
X175000000Y-106175000D03*
X175000000Y-108000000D03*
%TD*%
D22*
%TO.C,R11*%
X144912500Y-73000000D03*
X143087500Y-73000000D03*
%TD*%
D45*
%TO.C,U6*%
X115500000Y-124750000D03*
X115500000Y-124250000D03*
X115500000Y-123750000D03*
X115500000Y-123250000D03*
D46*
X114750000Y-122500000D03*
X114250000Y-122500000D03*
X113750000Y-122500000D03*
X113250000Y-122500000D03*
D45*
X112500000Y-123250000D03*
X112500000Y-123750000D03*
X112500000Y-124250000D03*
X112500000Y-124750000D03*
D46*
X113250000Y-125500000D03*
X113750000Y-125500000D03*
X114250000Y-125500000D03*
X114750000Y-125500000D03*
D13*
X114000000Y-124000000D03*
%TD*%
D23*
%TO.C,C1*%
X100396555Y-89501796D03*
X102296555Y-89501796D03*
%TD*%
D22*
%TO.C,R9*%
X183825000Y-91000000D03*
X182000000Y-91000000D03*
%TD*%
%TO.C,R32*%
X144912500Y-84000000D03*
X143087500Y-84000000D03*
%TD*%
%TO.C,R10*%
X183825000Y-96950000D03*
X182000000Y-96950000D03*
%TD*%
D21*
%TO.C,C5*%
X113991029Y-90552424D03*
X113991029Y-88652424D03*
%TD*%
D24*
%TO.C,C4*%
X114000000Y-100050000D03*
X114000000Y-101950000D03*
%TD*%
D19*
%TO.C,C15*%
X183950000Y-62000000D03*
X182050000Y-62000000D03*
%TD*%
D22*
%TO.C,R7*%
X121912500Y-102000000D03*
X120087500Y-102000000D03*
%TD*%
M02*
