M48
; DRILL file {KiCad 7.0.7} date 2023 December 09, Saturday 22:21:25
; FORMAT={-:-/ absolute / inch / decimal}
; #@! TF.CreationDate,2023-12-09T22:21:25+01:00
; #@! TF.GenerationSoftware,Kicad,Pcbnew,7.0.7
; #@! TF.FileFunction,Plated,1,2,PTH
FMAT,2
INCH
; #@! TA.AperFunction,Plated,PTH,ViaDrill
T1C0.0157
; #@! TA.AperFunction,Plated,PTH,ComponentDrill
T2C0.0236
; #@! TA.AperFunction,Plated,PTH,ComponentDrill
T3C0.0276
; #@! TA.AperFunction,Plated,PTH,ComponentDrill
T4C0.0354
; #@! TA.AperFunction,Plated,PTH,ComponentDrill
T5C0.0472
; #@! TA.AperFunction,Plated,PTH,ComponentDrill
T6C0.0591
; #@! TA.AperFunction,Plated,PTH,ComponentDrill
T7C0.1260
%
G90
G05
T1
X3.8976Y-3.4646
X3.9764Y-2.874
X3.9764Y-2.9528
X3.9764Y-3.0315
X3.9764Y-3.1102
X3.9764Y-3.189
X3.9764Y-3.2677
X4.0547Y-2.6374
X4.0551Y-2.874
X4.0551Y-2.9528
X4.0551Y-3.0315
X4.0551Y-3.1102
X4.0551Y-3.189
X4.0551Y-3.2677
X4.0945Y-2.6378
X4.0945Y-4.0945
X4.0945Y-4.2913
X4.1339Y-2.874
X4.1339Y-2.9528
X4.1339Y-3.0315
X4.1339Y-3.1102
X4.1339Y-3.189
X4.1339Y-3.2677
X4.1339Y-3.5039
X4.1339Y-4.9213
X4.1732Y-3.5039
X4.1732Y-4.9213
X4.2126Y-2.874
X4.2126Y-2.9528
X4.2126Y-3.5039
X4.2126Y-4.9213
X4.2413Y-3.869
X4.2545Y-3.0982
X4.2545Y-3.1542
X4.2899Y-2.6363
X4.2913Y-2.874
X4.2913Y-2.9528
X4.2913Y-3.5039
X4.3078Y-3.0996
X4.3078Y-3.1549
X4.3136Y-4.7504
X4.3297Y-2.6368
X4.3307Y-4.3701
X4.3307Y-4.4882
X4.3307Y-4.6457
X4.3696Y-2.6373
X4.3701Y-2.874
X4.3701Y-2.9528
X4.3701Y-4.6063
X4.3701Y-4.9213
X4.3706Y-3.3469
X4.3863Y-4.8499
X4.3947Y-4.9783
X4.4094Y-2.6378
X4.4102Y-3.3462
X4.4488Y-3.5827
X4.4696Y-4.9
X4.4704Y-4.8658
X4.4882Y-3.3465
X4.4882Y-4.2126
X4.505Y-4.8658
X4.5061Y-4.9008
X4.5158Y-4.7244
X4.5457Y-3.7886
X4.5463Y-4.2119
X4.5669Y-3.5039
X4.6058Y-4.842
X4.6063Y-2.9921
X4.6063Y-3.1496
X4.6063Y-3.189
X4.6063Y-3.2283
X4.6063Y-3.2677
X4.6063Y-3.3071
X4.6063Y-3.5039
X4.6063Y-4.2126
X4.6467Y-4.1152
X4.685Y-4.4094
X4.7244Y-2.7165
X4.7638Y-3.5039
X4.8031Y-3.6614
X4.8425Y-2.874
X4.8425Y-2.9921
X4.8425Y-3.0709
X4.8425Y-3.1102
X4.8425Y-3.8189
X4.8429Y-2.9138
X5.0394Y-3.8583
X5.0787Y-4.0551
X5.2756Y-3.7008
X5.3937Y-2.9921
X5.4331Y-3.7008
X5.5512Y-2.9921
X5.8661Y-3.3467
X5.8661Y-3.386
X5.8661Y-3.4254
X5.8661Y-3.4647
X6.1024Y-3.4252
X6.8898Y-4.0945
X7.0472Y-3.0709
X7.0866Y-2.7564
X7.1216Y-3.7795
X7.126Y-3.5433
X7.126Y-3.6614
X7.2119Y-2.7559
X7.2518Y-2.7564
X7.3694Y-2.7559
X7.4409Y-3.0315
X7.4481Y-2.7559
X7.4875Y-2.7559
X7.5197Y-3.622
X7.5269Y-2.7559
X7.6771Y-2.913
X7.7165Y-2.9139
X7.7165Y-3.189
T3
X3.8608Y-4.072
X3.8608Y-4.2996
T4
X4.2414Y-2.4295
X4.332Y-2.4295
X7.874Y-3.0039
X7.874Y-3.0945
X7.874Y-3.5433
X7.874Y-3.6339
T5
X7.2461Y-3.1102
X7.561Y-3.1102
T6
X3.7451Y-4.6718
X4.0207Y-4.6718
T7
X3.8583Y-2.5197
X3.8583Y-4.9213
X7.7953Y-2.5197
X7.7953Y-4.9213
T2
G00X3.7277Y-4.0157
M15
G01X3.7041Y-4.0157
M16
G05
G00X3.7277Y-4.3559
M15
G01X3.7041Y-4.3559
M16
G05
G00X3.7175Y-4.5777
M15
G01X3.749Y-4.5777
M16
G05
G00X3.7175Y-4.7797
M15
G01X3.749Y-4.7797
M16
G05
G00X3.8376Y-4.5435
M15
G01X3.8691Y-4.5435
M16
G05
G00X3.8994Y-4.0157
M15
G01X3.864Y-4.0157
M16
G05
G00X3.8994Y-4.3559
M15
G01X3.864Y-4.3559
M16
G05
G00X3.9577Y-4.5848
M15
G01X3.9892Y-4.5848
M16
G05
G00X3.9577Y-4.7797
M15
G01X3.9892Y-4.7797
M16
G05
G00X4.0836Y-4.5659
M15
G01X4.1151Y-4.5659
M16
G05
G00X4.0836Y-4.7797
M15
G01X4.1151Y-4.7797
M16
G05
T0
M30
