%TF.GenerationSoftware,KiCad,Pcbnew,7.0.7*%
%TF.CreationDate,2023-10-03T15:02:23+02:00*%
%TF.ProjectId,Untitled,556e7469-746c-4656-942e-6b696361645f,rev?*%
%TF.SameCoordinates,Original*%
%TF.FileFunction,Soldermask,Top*%
%TF.FilePolarity,Negative*%
%FSLAX46Y46*%
G04 Gerber Fmt 4.6, Leading zero omitted, Abs format (unit mm)*
G04 Created by KiCad (PCBNEW 7.0.7) date 2023-10-03 15:02:23*
%MOMM*%
%LPD*%
G01*
G04 APERTURE LIST*
G04 APERTURE END LIST*
G36*
X98494897Y-122193298D02*
G01*
X98817389Y-122269730D01*
X99128827Y-122383084D01*
X99425000Y-122531828D01*
X99701902Y-122713949D01*
X99955789Y-122926985D01*
X100183227Y-123168055D01*
X100381140Y-123433899D01*
X100546853Y-123720922D01*
X100678124Y-124025243D01*
X100773178Y-124342745D01*
X100830729Y-124669135D01*
X100850000Y-125000000D01*
X100830729Y-125330865D01*
X100773178Y-125657255D01*
X100678124Y-125974757D01*
X100546853Y-126279078D01*
X100381140Y-126566101D01*
X100183227Y-126831945D01*
X99955789Y-127073015D01*
X99701902Y-127286051D01*
X99425000Y-127468172D01*
X99128827Y-127616916D01*
X98817389Y-127730270D01*
X98494897Y-127806702D01*
X98165713Y-127845178D01*
X97834287Y-127845178D01*
X97505103Y-127806702D01*
X97182611Y-127730270D01*
X96871173Y-127616916D01*
X96575000Y-127468172D01*
X96298098Y-127286051D01*
X96044211Y-127073015D01*
X95816773Y-126831945D01*
X95618860Y-126566101D01*
X95453147Y-126279078D01*
X95321876Y-125974757D01*
X95226822Y-125657255D01*
X95169271Y-125330865D01*
X95150000Y-125000000D01*
X95169271Y-124669135D01*
X95226822Y-124342745D01*
X95321876Y-124025243D01*
X95453147Y-123720922D01*
X95618860Y-123433899D01*
X95816773Y-123168055D01*
X96044211Y-122926985D01*
X96298098Y-122713949D01*
X96575000Y-122531828D01*
X96871173Y-122383084D01*
X97182611Y-122269730D01*
X97505103Y-122193298D01*
X97834287Y-122154822D01*
X98165713Y-122154822D01*
X98494897Y-122193298D01*
G37*
G36*
X198494897Y-122193298D02*
G01*
X198817389Y-122269730D01*
X199128827Y-122383084D01*
X199425000Y-122531828D01*
X199701902Y-122713949D01*
X199955789Y-122926985D01*
X200183227Y-123168055D01*
X200381140Y-123433899D01*
X200546853Y-123720922D01*
X200678124Y-124025243D01*
X200773178Y-124342745D01*
X200830729Y-124669135D01*
X200850000Y-125000000D01*
X200830729Y-125330865D01*
X200773178Y-125657255D01*
X200678124Y-125974757D01*
X200546853Y-126279078D01*
X200381140Y-126566101D01*
X200183227Y-126831945D01*
X199955789Y-127073015D01*
X199701902Y-127286051D01*
X199425000Y-127468172D01*
X199128827Y-127616916D01*
X198817389Y-127730270D01*
X198494897Y-127806702D01*
X198165713Y-127845178D01*
X197834287Y-127845178D01*
X197505103Y-127806702D01*
X197182611Y-127730270D01*
X196871173Y-127616916D01*
X196575000Y-127468172D01*
X196298098Y-127286051D01*
X196044211Y-127073015D01*
X195816773Y-126831945D01*
X195618860Y-126566101D01*
X195453147Y-126279078D01*
X195321876Y-125974757D01*
X195226822Y-125657255D01*
X195169271Y-125330865D01*
X195150000Y-125000000D01*
X195169271Y-124669135D01*
X195226822Y-124342745D01*
X195321876Y-124025243D01*
X195453147Y-123720922D01*
X195618860Y-123433899D01*
X195816773Y-123168055D01*
X196044211Y-122926985D01*
X196298098Y-122713949D01*
X196575000Y-122531828D01*
X196871173Y-122383084D01*
X197182611Y-122269730D01*
X197505103Y-122193298D01*
X197834287Y-122154822D01*
X198165713Y-122154822D01*
X198494897Y-122193298D01*
G37*
G36*
X191454850Y-124525964D02*
G01*
X191499317Y-124531123D01*
X191514510Y-124537831D01*
X191536104Y-124542127D01*
X191559222Y-124557574D01*
X191576567Y-124565233D01*
X191588412Y-124577078D01*
X191609099Y-124590901D01*
X191622921Y-124611587D01*
X191634766Y-124623432D01*
X191642423Y-124640774D01*
X191657873Y-124663896D01*
X191662168Y-124685491D01*
X191668876Y-124700682D01*
X191674033Y-124745139D01*
X191675000Y-124750000D01*
X191675000Y-125250000D01*
X191674032Y-125254862D01*
X191668876Y-125299317D01*
X191662168Y-125314506D01*
X191657873Y-125336104D01*
X191642422Y-125359227D01*
X191634766Y-125376567D01*
X191622923Y-125388409D01*
X191609099Y-125409099D01*
X191588409Y-125422923D01*
X191576567Y-125434766D01*
X191559227Y-125442422D01*
X191536104Y-125457873D01*
X191514506Y-125462168D01*
X191499317Y-125468876D01*
X191454861Y-125474032D01*
X191450000Y-125475000D01*
X191000000Y-125475000D01*
X190995138Y-125474033D01*
X190950682Y-125468876D01*
X190935491Y-125462168D01*
X190913896Y-125457873D01*
X190890774Y-125442423D01*
X190873432Y-125434766D01*
X190861587Y-125422921D01*
X190840901Y-125409099D01*
X190827078Y-125388412D01*
X190815233Y-125376567D01*
X190807574Y-125359222D01*
X190792127Y-125336104D01*
X190787831Y-125314510D01*
X190781123Y-125299317D01*
X190775964Y-125254849D01*
X190775000Y-125250000D01*
X190775000Y-124750000D01*
X190775964Y-124745150D01*
X190781123Y-124700682D01*
X190787832Y-124685487D01*
X190792127Y-124663896D01*
X190807573Y-124640779D01*
X190815233Y-124623432D01*
X190827080Y-124611584D01*
X190840901Y-124590901D01*
X190861584Y-124577080D01*
X190873432Y-124565233D01*
X190890779Y-124557573D01*
X190913896Y-124542127D01*
X190935487Y-124537832D01*
X190950682Y-124531123D01*
X190995151Y-124525964D01*
X191000000Y-124525000D01*
X191450000Y-124525000D01*
X191454850Y-124525964D01*
G37*
G36*
X193004850Y-124525964D02*
G01*
X193049317Y-124531123D01*
X193064510Y-124537831D01*
X193086104Y-124542127D01*
X193109222Y-124557574D01*
X193126567Y-124565233D01*
X193138412Y-124577078D01*
X193159099Y-124590901D01*
X193172921Y-124611587D01*
X193184766Y-124623432D01*
X193192423Y-124640774D01*
X193207873Y-124663896D01*
X193212168Y-124685491D01*
X193218876Y-124700682D01*
X193224033Y-124745139D01*
X193225000Y-124750000D01*
X193225000Y-125250000D01*
X193224032Y-125254862D01*
X193218876Y-125299317D01*
X193212168Y-125314506D01*
X193207873Y-125336104D01*
X193192422Y-125359227D01*
X193184766Y-125376567D01*
X193172923Y-125388409D01*
X193159099Y-125409099D01*
X193138409Y-125422923D01*
X193126567Y-125434766D01*
X193109227Y-125442422D01*
X193086104Y-125457873D01*
X193064506Y-125462168D01*
X193049317Y-125468876D01*
X193004861Y-125474032D01*
X193000000Y-125475000D01*
X192550000Y-125475000D01*
X192545138Y-125474033D01*
X192500682Y-125468876D01*
X192485491Y-125462168D01*
X192463896Y-125457873D01*
X192440774Y-125442423D01*
X192423432Y-125434766D01*
X192411587Y-125422921D01*
X192390901Y-125409099D01*
X192377078Y-125388412D01*
X192365233Y-125376567D01*
X192357574Y-125359222D01*
X192342127Y-125336104D01*
X192337831Y-125314510D01*
X192331123Y-125299317D01*
X192325964Y-125254849D01*
X192325000Y-125250000D01*
X192325000Y-124750000D01*
X192325964Y-124745150D01*
X192331123Y-124700682D01*
X192337832Y-124685487D01*
X192342127Y-124663896D01*
X192357573Y-124640779D01*
X192365233Y-124623432D01*
X192377080Y-124611584D01*
X192390901Y-124590901D01*
X192411584Y-124577080D01*
X192423432Y-124565233D01*
X192440779Y-124557573D01*
X192463896Y-124542127D01*
X192485487Y-124537832D01*
X192500682Y-124531123D01*
X192545151Y-124525964D01*
X192550000Y-124525000D01*
X193000000Y-124525000D01*
X193004850Y-124525964D01*
G37*
G36*
X191451537Y-122540224D02*
G01*
X191516421Y-122583579D01*
X191559776Y-122648463D01*
X191575000Y-122725000D01*
X191575000Y-123275000D01*
X191559776Y-123351537D01*
X191516421Y-123416421D01*
X191451537Y-123459776D01*
X191375000Y-123475000D01*
X190975000Y-123475000D01*
X190898463Y-123459776D01*
X190833579Y-123416421D01*
X190790224Y-123351537D01*
X190775000Y-123275000D01*
X190775000Y-122725000D01*
X190790224Y-122648463D01*
X190833579Y-122583579D01*
X190898463Y-122540224D01*
X190975000Y-122525000D01*
X191375000Y-122525000D01*
X191451537Y-122540224D01*
G37*
G36*
X193101537Y-122540224D02*
G01*
X193166421Y-122583579D01*
X193209776Y-122648463D01*
X193225000Y-122725000D01*
X193225000Y-123275000D01*
X193209776Y-123351537D01*
X193166421Y-123416421D01*
X193101537Y-123459776D01*
X193025000Y-123475000D01*
X192625000Y-123475000D01*
X192548463Y-123459776D01*
X192483579Y-123416421D01*
X192440224Y-123351537D01*
X192425000Y-123275000D01*
X192425000Y-122725000D01*
X192440224Y-122648463D01*
X192483579Y-122583579D01*
X192548463Y-122540224D01*
X192625000Y-122525000D01*
X193025000Y-122525000D01*
X193101537Y-122540224D01*
G37*
G36*
X95326402Y-120904345D02*
G01*
X95390548Y-120908733D01*
X95425996Y-120918665D01*
X95465410Y-120924332D01*
X95495870Y-120938242D01*
X95523518Y-120945989D01*
X95555742Y-120965584D01*
X95594864Y-120983451D01*
X95617791Y-121003317D01*
X95639732Y-121016660D01*
X95667489Y-121046381D01*
X95702419Y-121076648D01*
X95717120Y-121099523D01*
X95732567Y-121116063D01*
X95752616Y-121154756D01*
X95779360Y-121196370D01*
X95786134Y-121219443D01*
X95795143Y-121236828D01*
X95804595Y-121282313D01*
X95819455Y-121332921D01*
X95819455Y-121353820D01*
X95822816Y-121369994D01*
X95819455Y-121419124D01*
X95819455Y-121475235D01*
X95814450Y-121492278D01*
X95813533Y-121505690D01*
X95796154Y-121554589D01*
X95779360Y-121611786D01*
X95771456Y-121624084D01*
X95767985Y-121633852D01*
X95736653Y-121678238D01*
X95702419Y-121731508D01*
X95693747Y-121739021D01*
X95689551Y-121744967D01*
X95645943Y-121780444D01*
X95594864Y-121824705D01*
X95587286Y-121828165D01*
X95584042Y-121830805D01*
X95532151Y-121853344D01*
X95465410Y-121883824D01*
X95460285Y-121884560D01*
X95459288Y-121884994D01*
X95413553Y-121891280D01*
X95324544Y-121904078D01*
X95320441Y-121904078D01*
X94326592Y-121904078D01*
X94324544Y-121904078D01*
X94322684Y-121903810D01*
X94258539Y-121899422D01*
X94223097Y-121889491D01*
X94183678Y-121883824D01*
X94153213Y-121869911D01*
X94125569Y-121862166D01*
X94093348Y-121842572D01*
X94054224Y-121824705D01*
X94031295Y-121804837D01*
X94009355Y-121791495D01*
X93981597Y-121761773D01*
X93946669Y-121731508D01*
X93931968Y-121708633D01*
X93916520Y-121692092D01*
X93896468Y-121653395D01*
X93869728Y-121611786D01*
X93862953Y-121588714D01*
X93853944Y-121571327D01*
X93844490Y-121525833D01*
X93829633Y-121475235D01*
X93829633Y-121454339D01*
X93826271Y-121438161D01*
X93829633Y-121389016D01*
X93829633Y-121332921D01*
X93834636Y-121315881D01*
X93835554Y-121302465D01*
X93852940Y-121253544D01*
X93869728Y-121196370D01*
X93877628Y-121184076D01*
X93881102Y-121174303D01*
X93912452Y-121129890D01*
X93946669Y-121076648D01*
X93955336Y-121069137D01*
X93959536Y-121063188D01*
X94003179Y-121027681D01*
X94054224Y-120983451D01*
X94061796Y-120979992D01*
X94065045Y-120977350D01*
X94117000Y-120954782D01*
X94183678Y-120924332D01*
X94188797Y-120923595D01*
X94189799Y-120923161D01*
X94235655Y-120916858D01*
X94324544Y-120904078D01*
X95324544Y-120904078D01*
X95326402Y-120904345D01*
G37*
G36*
X101426402Y-120904345D02*
G01*
X101490548Y-120908733D01*
X101525996Y-120918665D01*
X101565410Y-120924332D01*
X101595870Y-120938242D01*
X101623518Y-120945989D01*
X101655742Y-120965584D01*
X101694864Y-120983451D01*
X101717791Y-121003317D01*
X101739732Y-121016660D01*
X101767489Y-121046381D01*
X101802419Y-121076648D01*
X101817120Y-121099523D01*
X101832567Y-121116063D01*
X101852616Y-121154756D01*
X101879360Y-121196370D01*
X101886134Y-121219443D01*
X101895143Y-121236828D01*
X101904595Y-121282313D01*
X101919455Y-121332921D01*
X101919455Y-121353820D01*
X101922816Y-121369994D01*
X101919455Y-121419124D01*
X101919455Y-121475235D01*
X101914450Y-121492278D01*
X101913533Y-121505690D01*
X101896154Y-121554589D01*
X101879360Y-121611786D01*
X101871456Y-121624084D01*
X101867985Y-121633852D01*
X101836653Y-121678238D01*
X101802419Y-121731508D01*
X101793747Y-121739021D01*
X101789551Y-121744967D01*
X101745943Y-121780444D01*
X101694864Y-121824705D01*
X101687286Y-121828165D01*
X101684042Y-121830805D01*
X101632151Y-121853344D01*
X101565410Y-121883824D01*
X101560285Y-121884560D01*
X101559288Y-121884994D01*
X101513553Y-121891280D01*
X101424544Y-121904078D01*
X101420441Y-121904078D01*
X100426592Y-121904078D01*
X100424544Y-121904078D01*
X100422684Y-121903810D01*
X100358539Y-121899422D01*
X100323097Y-121889491D01*
X100283678Y-121883824D01*
X100253213Y-121869911D01*
X100225569Y-121862166D01*
X100193348Y-121842572D01*
X100154224Y-121824705D01*
X100131295Y-121804837D01*
X100109355Y-121791495D01*
X100081597Y-121761773D01*
X100046669Y-121731508D01*
X100031968Y-121708633D01*
X100016520Y-121692092D01*
X99996468Y-121653395D01*
X99969728Y-121611786D01*
X99962953Y-121588714D01*
X99953944Y-121571327D01*
X99944490Y-121525833D01*
X99929633Y-121475235D01*
X99929633Y-121454339D01*
X99926271Y-121438161D01*
X99929633Y-121389016D01*
X99929633Y-121332921D01*
X99934636Y-121315881D01*
X99935554Y-121302465D01*
X99952940Y-121253544D01*
X99969728Y-121196370D01*
X99977628Y-121184076D01*
X99981102Y-121174303D01*
X100012452Y-121129890D01*
X100046669Y-121076648D01*
X100055336Y-121069137D01*
X100059536Y-121063188D01*
X100103179Y-121027681D01*
X100154224Y-120983451D01*
X100161796Y-120979992D01*
X100165045Y-120977350D01*
X100217000Y-120954782D01*
X100283678Y-120924332D01*
X100288797Y-120923595D01*
X100289799Y-120923161D01*
X100335655Y-120916858D01*
X100424544Y-120904078D01*
X101424544Y-120904078D01*
X101426402Y-120904345D01*
G37*
G36*
X104626402Y-120904345D02*
G01*
X104690548Y-120908733D01*
X104725996Y-120918665D01*
X104765410Y-120924332D01*
X104795870Y-120938242D01*
X104823518Y-120945989D01*
X104855742Y-120965584D01*
X104894864Y-120983451D01*
X104917791Y-121003317D01*
X104939732Y-121016660D01*
X104967489Y-121046381D01*
X105002419Y-121076648D01*
X105017120Y-121099523D01*
X105032567Y-121116063D01*
X105052616Y-121154756D01*
X105079360Y-121196370D01*
X105086134Y-121219443D01*
X105095143Y-121236828D01*
X105104595Y-121282313D01*
X105119455Y-121332921D01*
X105119455Y-121353820D01*
X105122816Y-121369994D01*
X105119455Y-121419124D01*
X105119455Y-121475235D01*
X105114450Y-121492278D01*
X105113533Y-121505690D01*
X105096154Y-121554589D01*
X105079360Y-121611786D01*
X105071456Y-121624084D01*
X105067985Y-121633852D01*
X105036653Y-121678238D01*
X105002419Y-121731508D01*
X104993747Y-121739021D01*
X104989551Y-121744967D01*
X104945943Y-121780444D01*
X104894864Y-121824705D01*
X104887286Y-121828165D01*
X104884042Y-121830805D01*
X104832151Y-121853344D01*
X104765410Y-121883824D01*
X104760285Y-121884560D01*
X104759288Y-121884994D01*
X104713553Y-121891280D01*
X104624544Y-121904078D01*
X104620441Y-121904078D01*
X103626592Y-121904078D01*
X103624544Y-121904078D01*
X103622684Y-121903810D01*
X103558539Y-121899422D01*
X103523097Y-121889491D01*
X103483678Y-121883824D01*
X103453213Y-121869911D01*
X103425569Y-121862166D01*
X103393348Y-121842572D01*
X103354224Y-121824705D01*
X103331295Y-121804837D01*
X103309355Y-121791495D01*
X103281597Y-121761773D01*
X103246669Y-121731508D01*
X103231968Y-121708633D01*
X103216520Y-121692092D01*
X103196468Y-121653395D01*
X103169728Y-121611786D01*
X103162953Y-121588714D01*
X103153944Y-121571327D01*
X103144490Y-121525833D01*
X103129633Y-121475235D01*
X103129633Y-121454339D01*
X103126271Y-121438161D01*
X103129633Y-121389016D01*
X103129633Y-121332921D01*
X103134636Y-121315881D01*
X103135554Y-121302465D01*
X103152940Y-121253544D01*
X103169728Y-121196370D01*
X103177628Y-121184076D01*
X103181102Y-121174303D01*
X103212452Y-121129890D01*
X103246669Y-121076648D01*
X103255336Y-121069137D01*
X103259536Y-121063188D01*
X103303179Y-121027681D01*
X103354224Y-120983451D01*
X103361796Y-120979992D01*
X103365045Y-120977350D01*
X103417000Y-120954782D01*
X103483678Y-120924332D01*
X103488797Y-120923595D01*
X103489799Y-120923161D01*
X103535655Y-120916858D01*
X103624544Y-120904078D01*
X104624544Y-120904078D01*
X104626402Y-120904345D01*
G37*
G36*
X108284682Y-121300000D02*
G01*
X108034682Y-121300000D01*
X108034682Y-120700000D01*
X108284682Y-120700000D01*
X108284682Y-121300000D01*
G37*
G36*
X108784682Y-121300000D02*
G01*
X108534682Y-121300000D01*
X108534682Y-120700000D01*
X108784682Y-120700000D01*
X108784682Y-121300000D01*
G37*
G36*
X109284682Y-121300000D02*
G01*
X109034682Y-121300000D01*
X109034682Y-120700000D01*
X109284682Y-120700000D01*
X109284682Y-121300000D01*
G37*
G36*
X109784682Y-121300000D02*
G01*
X109534682Y-121300000D01*
X109534682Y-120700000D01*
X109784682Y-120700000D01*
X109784682Y-121300000D01*
G37*
G36*
X107709682Y-120375000D02*
G01*
X107109682Y-120375000D01*
X107109682Y-120125000D01*
X107709682Y-120125000D01*
X107709682Y-120375000D01*
G37*
G36*
X110709682Y-120375000D02*
G01*
X110109682Y-120375000D01*
X110109682Y-120125000D01*
X110709682Y-120125000D01*
X110709682Y-120375000D01*
G37*
G36*
X109659682Y-120250000D02*
G01*
X108159682Y-120250000D01*
X108159682Y-118750000D01*
X109659682Y-118750000D01*
X109659682Y-120250000D01*
G37*
G36*
X191803639Y-120150000D02*
G01*
X190803639Y-120150000D01*
X190803639Y-118450000D01*
X191803639Y-118450000D01*
X191803639Y-120150000D01*
G37*
G36*
X195503639Y-120150000D02*
G01*
X194503639Y-120150000D01*
X194503639Y-118450000D01*
X195503639Y-118450000D01*
X195503639Y-120150000D01*
G37*
G36*
X197650000Y-120150000D02*
G01*
X196650000Y-120150000D01*
X196650000Y-118450000D01*
X197650000Y-118450000D01*
X197650000Y-120150000D01*
G37*
G36*
X201350000Y-120150000D02*
G01*
X200350000Y-120150000D01*
X200350000Y-118450000D01*
X201350000Y-118450000D01*
X201350000Y-120150000D01*
G37*
G36*
X107709682Y-119875000D02*
G01*
X107109682Y-119875000D01*
X107109682Y-119625000D01*
X107709682Y-119625000D01*
X107709682Y-119875000D01*
G37*
G36*
X110709682Y-119875000D02*
G01*
X110109682Y-119875000D01*
X110109682Y-119625000D01*
X110709682Y-119625000D01*
X110709682Y-119875000D01*
G37*
G36*
X173184852Y-119551737D02*
G01*
X171284852Y-119551737D01*
X171284852Y-118351737D01*
X173184852Y-118351737D01*
X173184852Y-119551737D01*
G37*
G36*
X180264852Y-119551737D02*
G01*
X178364852Y-119551737D01*
X178364852Y-118351737D01*
X180264852Y-118351737D01*
X180264852Y-119551737D01*
G37*
G36*
X95291435Y-117932882D02*
G01*
X95449957Y-117988351D01*
X95592161Y-118077704D01*
X95710918Y-118196461D01*
X95800271Y-118338665D01*
X95855740Y-118497187D01*
X95874544Y-118664078D01*
X95855740Y-118830969D01*
X95800271Y-118989491D01*
X95710918Y-119131695D01*
X95592161Y-119250452D01*
X95449957Y-119339805D01*
X95291435Y-119395274D01*
X95124544Y-119414078D01*
X94957653Y-119395274D01*
X94799131Y-119339805D01*
X94656927Y-119250452D01*
X94538170Y-119131695D01*
X94448817Y-118989491D01*
X94393348Y-118830969D01*
X94374544Y-118664078D01*
X94393348Y-118497187D01*
X94448817Y-118338665D01*
X94538170Y-118196461D01*
X94656927Y-118077704D01*
X94799131Y-117988351D01*
X94957653Y-117932882D01*
X95124544Y-117914078D01*
X95291435Y-117932882D01*
G37*
G36*
X102291435Y-117932882D02*
G01*
X102449957Y-117988351D01*
X102592161Y-118077704D01*
X102710918Y-118196461D01*
X102800271Y-118338665D01*
X102855740Y-118497187D01*
X102874544Y-118664078D01*
X102855740Y-118830969D01*
X102800271Y-118989491D01*
X102710918Y-119131695D01*
X102592161Y-119250452D01*
X102449957Y-119339805D01*
X102291435Y-119395274D01*
X102124544Y-119414078D01*
X101957653Y-119395274D01*
X101799131Y-119339805D01*
X101656927Y-119250452D01*
X101538170Y-119131695D01*
X101448817Y-118989491D01*
X101393348Y-118830969D01*
X101374544Y-118664078D01*
X101393348Y-118497187D01*
X101448817Y-118338665D01*
X101538170Y-118196461D01*
X101656927Y-118077704D01*
X101799131Y-117988351D01*
X101957653Y-117932882D01*
X102124544Y-117914078D01*
X102291435Y-117932882D01*
G37*
G36*
X107709682Y-119375000D02*
G01*
X107109682Y-119375000D01*
X107109682Y-119125000D01*
X107709682Y-119125000D01*
X107709682Y-119375000D01*
G37*
G36*
X110709682Y-119375000D02*
G01*
X110109682Y-119375000D01*
X110109682Y-119125000D01*
X110709682Y-119125000D01*
X110709682Y-119375000D01*
G37*
G36*
X117278795Y-119197111D02*
G01*
X115378795Y-119197111D01*
X115378795Y-117997111D01*
X117278795Y-117997111D01*
X117278795Y-119197111D01*
G37*
G36*
X124358795Y-119197111D02*
G01*
X122458795Y-119197111D01*
X122458795Y-117997111D01*
X124358795Y-117997111D01*
X124358795Y-119197111D01*
G37*
G36*
X107709682Y-118875000D02*
G01*
X107109682Y-118875000D01*
X107109682Y-118625000D01*
X107709682Y-118625000D01*
X107709682Y-118875000D01*
G37*
G36*
X110709682Y-118875000D02*
G01*
X110109682Y-118875000D01*
X110109682Y-118625000D01*
X110709682Y-118625000D01*
X110709682Y-118875000D01*
G37*
G36*
X108284682Y-118300000D02*
G01*
X108034682Y-118300000D01*
X108034682Y-117700000D01*
X108284682Y-117700000D01*
X108284682Y-118300000D01*
G37*
G36*
X108784682Y-118300000D02*
G01*
X108534682Y-118300000D01*
X108534682Y-117700000D01*
X108784682Y-117700000D01*
X108784682Y-118300000D01*
G37*
G36*
X109284682Y-118300000D02*
G01*
X109034682Y-118300000D01*
X109034682Y-117700000D01*
X109284682Y-117700000D01*
X109284682Y-118300000D01*
G37*
G36*
X109784682Y-118300000D02*
G01*
X109534682Y-118300000D01*
X109534682Y-117700000D01*
X109784682Y-117700000D01*
X109784682Y-118300000D01*
G37*
G36*
X113638248Y-117353598D02*
G01*
X113682715Y-117358757D01*
X113697908Y-117365465D01*
X113719502Y-117369761D01*
X113742620Y-117385208D01*
X113759965Y-117392867D01*
X113771810Y-117404712D01*
X113792497Y-117418535D01*
X113806319Y-117439221D01*
X113818164Y-117451066D01*
X113825821Y-117468408D01*
X113841271Y-117491530D01*
X113845566Y-117513125D01*
X113852274Y-117528316D01*
X113857431Y-117572773D01*
X113858398Y-117577634D01*
X113858398Y-118027634D01*
X113857430Y-118032496D01*
X113852274Y-118076951D01*
X113845566Y-118092140D01*
X113841271Y-118113738D01*
X113825820Y-118136861D01*
X113818164Y-118154201D01*
X113806321Y-118166043D01*
X113792497Y-118186733D01*
X113771807Y-118200557D01*
X113759965Y-118212400D01*
X113742625Y-118220056D01*
X113719502Y-118235507D01*
X113697904Y-118239802D01*
X113682715Y-118246510D01*
X113638259Y-118251666D01*
X113633398Y-118252634D01*
X113133398Y-118252634D01*
X113128536Y-118251667D01*
X113084080Y-118246510D01*
X113068889Y-118239802D01*
X113047294Y-118235507D01*
X113024172Y-118220057D01*
X113006830Y-118212400D01*
X112994985Y-118200555D01*
X112974299Y-118186733D01*
X112960476Y-118166046D01*
X112948631Y-118154201D01*
X112940972Y-118136856D01*
X112925525Y-118113738D01*
X112921229Y-118092144D01*
X112914521Y-118076951D01*
X112909362Y-118032483D01*
X112908398Y-118027634D01*
X112908398Y-117577634D01*
X112909362Y-117572784D01*
X112914521Y-117528316D01*
X112921230Y-117513121D01*
X112925525Y-117491530D01*
X112940971Y-117468413D01*
X112948631Y-117451066D01*
X112960478Y-117439218D01*
X112974299Y-117418535D01*
X112994982Y-117404714D01*
X113006830Y-117392867D01*
X113024177Y-117385207D01*
X113047294Y-117369761D01*
X113068885Y-117365466D01*
X113084080Y-117358757D01*
X113128549Y-117353598D01*
X113133398Y-117352634D01*
X113633398Y-117352634D01*
X113638248Y-117353598D01*
G37*
G36*
X111871722Y-117465201D02*
G01*
X111936606Y-117508556D01*
X111979961Y-117573440D01*
X111995185Y-117649977D01*
X111995185Y-118049977D01*
X111979961Y-118126514D01*
X111936606Y-118191398D01*
X111871722Y-118234753D01*
X111795185Y-118249977D01*
X111245185Y-118249977D01*
X111168648Y-118234753D01*
X111103764Y-118191398D01*
X111060409Y-118126514D01*
X111045185Y-118049977D01*
X111045185Y-117649977D01*
X111060409Y-117573440D01*
X111103764Y-117508556D01*
X111168648Y-117465201D01*
X111245185Y-117449977D01*
X111795185Y-117449977D01*
X111871722Y-117465201D01*
G37*
G36*
X101426402Y-115954345D02*
G01*
X101490548Y-115958733D01*
X101525996Y-115968665D01*
X101565410Y-115974332D01*
X101595870Y-115988242D01*
X101623518Y-115995989D01*
X101655742Y-116015584D01*
X101694864Y-116033451D01*
X101717791Y-116053317D01*
X101739732Y-116066660D01*
X101767489Y-116096381D01*
X101802419Y-116126648D01*
X101817120Y-116149523D01*
X101832567Y-116166063D01*
X101852616Y-116204756D01*
X101879360Y-116246370D01*
X101886134Y-116269443D01*
X101895143Y-116286828D01*
X101904595Y-116332313D01*
X101919455Y-116382921D01*
X101919455Y-116403820D01*
X101922816Y-116419994D01*
X101919455Y-116469124D01*
X101919455Y-116525235D01*
X101914450Y-116542278D01*
X101913533Y-116555690D01*
X101896154Y-116604589D01*
X101879360Y-116661786D01*
X101871456Y-116674084D01*
X101867985Y-116683852D01*
X101836653Y-116728238D01*
X101802419Y-116781508D01*
X101793747Y-116789021D01*
X101789551Y-116794967D01*
X101745943Y-116830444D01*
X101694864Y-116874705D01*
X101687286Y-116878165D01*
X101684042Y-116880805D01*
X101632151Y-116903344D01*
X101565410Y-116933824D01*
X101560285Y-116934560D01*
X101559288Y-116934994D01*
X101513553Y-116941280D01*
X101424544Y-116954078D01*
X101420441Y-116954078D01*
X100426592Y-116954078D01*
X100424544Y-116954078D01*
X100422684Y-116953810D01*
X100358539Y-116949422D01*
X100323097Y-116939491D01*
X100283678Y-116933824D01*
X100253213Y-116919911D01*
X100225569Y-116912166D01*
X100193348Y-116892572D01*
X100154224Y-116874705D01*
X100131295Y-116854837D01*
X100109355Y-116841495D01*
X100081597Y-116811773D01*
X100046669Y-116781508D01*
X100031968Y-116758633D01*
X100016520Y-116742092D01*
X99996468Y-116703395D01*
X99969728Y-116661786D01*
X99962953Y-116638714D01*
X99953944Y-116621327D01*
X99944490Y-116575833D01*
X99929633Y-116525235D01*
X99929633Y-116504339D01*
X99926271Y-116488161D01*
X99929633Y-116439016D01*
X99929633Y-116382921D01*
X99934636Y-116365881D01*
X99935554Y-116352465D01*
X99952940Y-116303544D01*
X99969728Y-116246370D01*
X99977628Y-116234076D01*
X99981102Y-116224303D01*
X100012452Y-116179890D01*
X100046669Y-116126648D01*
X100055336Y-116119137D01*
X100059536Y-116113188D01*
X100103179Y-116077681D01*
X100154224Y-116033451D01*
X100161796Y-116029992D01*
X100165045Y-116027350D01*
X100217000Y-116004782D01*
X100283678Y-115974332D01*
X100288797Y-115973595D01*
X100289799Y-115973161D01*
X100335655Y-115966858D01*
X100424544Y-115954078D01*
X101424544Y-115954078D01*
X101426402Y-115954345D01*
G37*
G36*
X95326402Y-115774345D02*
G01*
X95390548Y-115778733D01*
X95425996Y-115788665D01*
X95465410Y-115794332D01*
X95495870Y-115808242D01*
X95523518Y-115815989D01*
X95555742Y-115835584D01*
X95594864Y-115853451D01*
X95617791Y-115873317D01*
X95639732Y-115886660D01*
X95667489Y-115916381D01*
X95702419Y-115946648D01*
X95717120Y-115969523D01*
X95732567Y-115986063D01*
X95752616Y-116024756D01*
X95779360Y-116066370D01*
X95786134Y-116089443D01*
X95795143Y-116106828D01*
X95804595Y-116152313D01*
X95819455Y-116202921D01*
X95819455Y-116223820D01*
X95822816Y-116239994D01*
X95819455Y-116289124D01*
X95819455Y-116345235D01*
X95814450Y-116362278D01*
X95813533Y-116375690D01*
X95796154Y-116424589D01*
X95779360Y-116481786D01*
X95771456Y-116494084D01*
X95767985Y-116503852D01*
X95736653Y-116548238D01*
X95702419Y-116601508D01*
X95693747Y-116609021D01*
X95689551Y-116614967D01*
X95645943Y-116650444D01*
X95594864Y-116694705D01*
X95587286Y-116698165D01*
X95584042Y-116700805D01*
X95532151Y-116723344D01*
X95465410Y-116753824D01*
X95460285Y-116754560D01*
X95459288Y-116754994D01*
X95413553Y-116761280D01*
X95324544Y-116774078D01*
X95320441Y-116774078D01*
X94326592Y-116774078D01*
X94324544Y-116774078D01*
X94322684Y-116773810D01*
X94258539Y-116769422D01*
X94223097Y-116759491D01*
X94183678Y-116753824D01*
X94153213Y-116739911D01*
X94125569Y-116732166D01*
X94093348Y-116712572D01*
X94054224Y-116694705D01*
X94031295Y-116674837D01*
X94009355Y-116661495D01*
X93981597Y-116631773D01*
X93946669Y-116601508D01*
X93931968Y-116578633D01*
X93916520Y-116562092D01*
X93896468Y-116523395D01*
X93869728Y-116481786D01*
X93862953Y-116458714D01*
X93853944Y-116441327D01*
X93844490Y-116395833D01*
X93829633Y-116345235D01*
X93829633Y-116324339D01*
X93826271Y-116308161D01*
X93829633Y-116259016D01*
X93829633Y-116202921D01*
X93834636Y-116185881D01*
X93835554Y-116172465D01*
X93852940Y-116123544D01*
X93869728Y-116066370D01*
X93877628Y-116054076D01*
X93881102Y-116044303D01*
X93912452Y-115999890D01*
X93946669Y-115946648D01*
X93955336Y-115939137D01*
X93959536Y-115933188D01*
X94003179Y-115897681D01*
X94054224Y-115853451D01*
X94061796Y-115849992D01*
X94065045Y-115847350D01*
X94117000Y-115824782D01*
X94183678Y-115794332D01*
X94188797Y-115793595D01*
X94189799Y-115793161D01*
X94235655Y-115786858D01*
X94324544Y-115774078D01*
X95324544Y-115774078D01*
X95326402Y-115774345D01*
G37*
G36*
X113638248Y-115803598D02*
G01*
X113682715Y-115808757D01*
X113697908Y-115815465D01*
X113719502Y-115819761D01*
X113742620Y-115835208D01*
X113759965Y-115842867D01*
X113771810Y-115854712D01*
X113792497Y-115868535D01*
X113806319Y-115889221D01*
X113818164Y-115901066D01*
X113825821Y-115918408D01*
X113841271Y-115941530D01*
X113845566Y-115963125D01*
X113852274Y-115978316D01*
X113857431Y-116022773D01*
X113858398Y-116027634D01*
X113858398Y-116477634D01*
X113857430Y-116482496D01*
X113852274Y-116526951D01*
X113845566Y-116542140D01*
X113841271Y-116563738D01*
X113825820Y-116586861D01*
X113818164Y-116604201D01*
X113806321Y-116616043D01*
X113792497Y-116636733D01*
X113771807Y-116650557D01*
X113759965Y-116662400D01*
X113742625Y-116670056D01*
X113719502Y-116685507D01*
X113697904Y-116689802D01*
X113682715Y-116696510D01*
X113638259Y-116701666D01*
X113633398Y-116702634D01*
X113133398Y-116702634D01*
X113128536Y-116701667D01*
X113084080Y-116696510D01*
X113068889Y-116689802D01*
X113047294Y-116685507D01*
X113024172Y-116670057D01*
X113006830Y-116662400D01*
X112994985Y-116650555D01*
X112974299Y-116636733D01*
X112960476Y-116616046D01*
X112948631Y-116604201D01*
X112940972Y-116586856D01*
X112925525Y-116563738D01*
X112921229Y-116542144D01*
X112914521Y-116526951D01*
X112909362Y-116482483D01*
X112908398Y-116477634D01*
X112908398Y-116027634D01*
X112909362Y-116022784D01*
X112914521Y-115978316D01*
X112921230Y-115963121D01*
X112925525Y-115941530D01*
X112940971Y-115918413D01*
X112948631Y-115901066D01*
X112960478Y-115889218D01*
X112974299Y-115868535D01*
X112994982Y-115854714D01*
X113006830Y-115842867D01*
X113024177Y-115835207D01*
X113047294Y-115819761D01*
X113068885Y-115815466D01*
X113084080Y-115808757D01*
X113128549Y-115803598D01*
X113133398Y-115802634D01*
X113633398Y-115802634D01*
X113638248Y-115803598D01*
G37*
G36*
X111871722Y-115815201D02*
G01*
X111936606Y-115858556D01*
X111979961Y-115923440D01*
X111995185Y-115999977D01*
X111995185Y-116399977D01*
X111979961Y-116476514D01*
X111936606Y-116541398D01*
X111871722Y-116584753D01*
X111795185Y-116599977D01*
X111245185Y-116599977D01*
X111168648Y-116584753D01*
X111103764Y-116541398D01*
X111060409Y-116476514D01*
X111045185Y-116399977D01*
X111045185Y-115999977D01*
X111060409Y-115923440D01*
X111103764Y-115858556D01*
X111168648Y-115815201D01*
X111245185Y-115799977D01*
X111795185Y-115799977D01*
X111871722Y-115815201D01*
G37*
G36*
X173184852Y-116551737D02*
G01*
X171284852Y-116551737D01*
X171284852Y-115351737D01*
X173184852Y-115351737D01*
X173184852Y-116551737D01*
G37*
G36*
X180264852Y-116551737D02*
G01*
X178364852Y-116551737D01*
X178364852Y-115351737D01*
X180264852Y-115351737D01*
X180264852Y-116551737D01*
G37*
G36*
X104626402Y-115474345D02*
G01*
X104690548Y-115478733D01*
X104725996Y-115488665D01*
X104765410Y-115494332D01*
X104795870Y-115508242D01*
X104823518Y-115515989D01*
X104855742Y-115535584D01*
X104894864Y-115553451D01*
X104917791Y-115573317D01*
X104939732Y-115586660D01*
X104967489Y-115616381D01*
X105002419Y-115646648D01*
X105017120Y-115669523D01*
X105032567Y-115686063D01*
X105052616Y-115724756D01*
X105079360Y-115766370D01*
X105086134Y-115789443D01*
X105095143Y-115806828D01*
X105104595Y-115852313D01*
X105119455Y-115902921D01*
X105119455Y-115923820D01*
X105122816Y-115939994D01*
X105119455Y-115989124D01*
X105119455Y-116045235D01*
X105114450Y-116062278D01*
X105113533Y-116075690D01*
X105096154Y-116124589D01*
X105079360Y-116181786D01*
X105071456Y-116194084D01*
X105067985Y-116203852D01*
X105036653Y-116248238D01*
X105002419Y-116301508D01*
X104993747Y-116309021D01*
X104989551Y-116314967D01*
X104945943Y-116350444D01*
X104894864Y-116394705D01*
X104887286Y-116398165D01*
X104884042Y-116400805D01*
X104832151Y-116423344D01*
X104765410Y-116453824D01*
X104760285Y-116454560D01*
X104759288Y-116454994D01*
X104713553Y-116461280D01*
X104624544Y-116474078D01*
X104620441Y-116474078D01*
X103626592Y-116474078D01*
X103624544Y-116474078D01*
X103622684Y-116473810D01*
X103558539Y-116469422D01*
X103523097Y-116459491D01*
X103483678Y-116453824D01*
X103453213Y-116439911D01*
X103425569Y-116432166D01*
X103393348Y-116412572D01*
X103354224Y-116394705D01*
X103331295Y-116374837D01*
X103309355Y-116361495D01*
X103281597Y-116331773D01*
X103246669Y-116301508D01*
X103231968Y-116278633D01*
X103216520Y-116262092D01*
X103196468Y-116223395D01*
X103169728Y-116181786D01*
X103162953Y-116158714D01*
X103153944Y-116141327D01*
X103144490Y-116095833D01*
X103129633Y-116045235D01*
X103129633Y-116024339D01*
X103126271Y-116008161D01*
X103129633Y-115959016D01*
X103129633Y-115902921D01*
X103134636Y-115885881D01*
X103135554Y-115872465D01*
X103152940Y-115823544D01*
X103169728Y-115766370D01*
X103177628Y-115754076D01*
X103181102Y-115744303D01*
X103212452Y-115699890D01*
X103246669Y-115646648D01*
X103255336Y-115639137D01*
X103259536Y-115633188D01*
X103303179Y-115597681D01*
X103354224Y-115553451D01*
X103361796Y-115549992D01*
X103365045Y-115547350D01*
X103417000Y-115524782D01*
X103483678Y-115494332D01*
X103488797Y-115493595D01*
X103489799Y-115493161D01*
X103535655Y-115486858D01*
X103624544Y-115474078D01*
X104624544Y-115474078D01*
X104626402Y-115474345D01*
G37*
G36*
X117278795Y-116197111D02*
G01*
X115378795Y-116197111D01*
X115378795Y-114997111D01*
X117278795Y-114997111D01*
X117278795Y-116197111D01*
G37*
G36*
X124358795Y-116197111D02*
G01*
X122458795Y-116197111D01*
X122458795Y-114997111D01*
X124358795Y-114997111D01*
X124358795Y-116197111D01*
G37*
G36*
X106511219Y-115265224D02*
G01*
X106576103Y-115308579D01*
X106619458Y-115373463D01*
X106634682Y-115450000D01*
X106634682Y-115850000D01*
X106619458Y-115926537D01*
X106576103Y-115991421D01*
X106511219Y-116034776D01*
X106434682Y-116050000D01*
X105884682Y-116050000D01*
X105808145Y-116034776D01*
X105743261Y-115991421D01*
X105699906Y-115926537D01*
X105684682Y-115850000D01*
X105684682Y-115450000D01*
X105699906Y-115373463D01*
X105743261Y-115308579D01*
X105808145Y-115265224D01*
X105884682Y-115250000D01*
X106434682Y-115250000D01*
X106511219Y-115265224D01*
G37*
G36*
X108511219Y-115265224D02*
G01*
X108576103Y-115308579D01*
X108619458Y-115373463D01*
X108634682Y-115450000D01*
X108634682Y-115850000D01*
X108619458Y-115926537D01*
X108576103Y-115991421D01*
X108511219Y-116034776D01*
X108434682Y-116050000D01*
X107884682Y-116050000D01*
X107808145Y-116034776D01*
X107743261Y-115991421D01*
X107699906Y-115926537D01*
X107684682Y-115850000D01*
X107684682Y-115450000D01*
X107699906Y-115373463D01*
X107743261Y-115308579D01*
X107808145Y-115265224D01*
X107884682Y-115250000D01*
X108434682Y-115250000D01*
X108511219Y-115265224D01*
G37*
G36*
X98376402Y-114904345D02*
G01*
X98440548Y-114908733D01*
X98475996Y-114918665D01*
X98515410Y-114924332D01*
X98545870Y-114938242D01*
X98573518Y-114945989D01*
X98605742Y-114965584D01*
X98644864Y-114983451D01*
X98667791Y-115003317D01*
X98689732Y-115016660D01*
X98717489Y-115046381D01*
X98752419Y-115076648D01*
X98767120Y-115099523D01*
X98782567Y-115116063D01*
X98802616Y-115154756D01*
X98829360Y-115196370D01*
X98836134Y-115219443D01*
X98845143Y-115236828D01*
X98854595Y-115282313D01*
X98869455Y-115332921D01*
X98869455Y-115353820D01*
X98872816Y-115369994D01*
X98869455Y-115419124D01*
X98869455Y-115475235D01*
X98864450Y-115492278D01*
X98863533Y-115505690D01*
X98846154Y-115554589D01*
X98829360Y-115611786D01*
X98821456Y-115624084D01*
X98817985Y-115633852D01*
X98786653Y-115678238D01*
X98752419Y-115731508D01*
X98743747Y-115739021D01*
X98739551Y-115744967D01*
X98695943Y-115780444D01*
X98644864Y-115824705D01*
X98637286Y-115828165D01*
X98634042Y-115830805D01*
X98582151Y-115853344D01*
X98515410Y-115883824D01*
X98510285Y-115884560D01*
X98509288Y-115884994D01*
X98463553Y-115891280D01*
X98374544Y-115904078D01*
X98370441Y-115904078D01*
X97376592Y-115904078D01*
X97374544Y-115904078D01*
X97372684Y-115903810D01*
X97308539Y-115899422D01*
X97273097Y-115889491D01*
X97233678Y-115883824D01*
X97203213Y-115869911D01*
X97175569Y-115862166D01*
X97143348Y-115842572D01*
X97104224Y-115824705D01*
X97081295Y-115804837D01*
X97059355Y-115791495D01*
X97031597Y-115761773D01*
X96996669Y-115731508D01*
X96981968Y-115708633D01*
X96966520Y-115692092D01*
X96946468Y-115653395D01*
X96919728Y-115611786D01*
X96912953Y-115588714D01*
X96903944Y-115571327D01*
X96894490Y-115525833D01*
X96879633Y-115475235D01*
X96879633Y-115454339D01*
X96876271Y-115438161D01*
X96879633Y-115389016D01*
X96879633Y-115332921D01*
X96884636Y-115315881D01*
X96885554Y-115302465D01*
X96902940Y-115253544D01*
X96919728Y-115196370D01*
X96927628Y-115184076D01*
X96931102Y-115174303D01*
X96962452Y-115129890D01*
X96996669Y-115076648D01*
X97005336Y-115069137D01*
X97009536Y-115063188D01*
X97053179Y-115027681D01*
X97104224Y-114983451D01*
X97111796Y-114979992D01*
X97115045Y-114977350D01*
X97167000Y-114954782D01*
X97233678Y-114924332D01*
X97238797Y-114923595D01*
X97239799Y-114923161D01*
X97285655Y-114916858D01*
X97374544Y-114904078D01*
X98374544Y-114904078D01*
X98376402Y-114904345D01*
G37*
G36*
X111928277Y-114140955D02*
G01*
X111972744Y-114146114D01*
X111987937Y-114152822D01*
X112009531Y-114157118D01*
X112032649Y-114172565D01*
X112049994Y-114180224D01*
X112061839Y-114192069D01*
X112082526Y-114205892D01*
X112096348Y-114226578D01*
X112108193Y-114238423D01*
X112115850Y-114255765D01*
X112131300Y-114278887D01*
X112135595Y-114300482D01*
X112142303Y-114315673D01*
X112147460Y-114360130D01*
X112148427Y-114364991D01*
X112148427Y-114864991D01*
X112147459Y-114869853D01*
X112142303Y-114914308D01*
X112135595Y-114929497D01*
X112131300Y-114951095D01*
X112115849Y-114974218D01*
X112108193Y-114991558D01*
X112096350Y-115003400D01*
X112082526Y-115024090D01*
X112061836Y-115037914D01*
X112049994Y-115049757D01*
X112032654Y-115057413D01*
X112009531Y-115072864D01*
X111987933Y-115077159D01*
X111972744Y-115083867D01*
X111928288Y-115089023D01*
X111923427Y-115089991D01*
X111473427Y-115089991D01*
X111468565Y-115089024D01*
X111424109Y-115083867D01*
X111408918Y-115077159D01*
X111387323Y-115072864D01*
X111364201Y-115057414D01*
X111346859Y-115049757D01*
X111335014Y-115037912D01*
X111314328Y-115024090D01*
X111300505Y-115003403D01*
X111288660Y-114991558D01*
X111281001Y-114974213D01*
X111265554Y-114951095D01*
X111261258Y-114929501D01*
X111254550Y-114914308D01*
X111249391Y-114869840D01*
X111248427Y-114864991D01*
X111248427Y-114364991D01*
X111249391Y-114360141D01*
X111254550Y-114315673D01*
X111261259Y-114300478D01*
X111265554Y-114278887D01*
X111281000Y-114255770D01*
X111288660Y-114238423D01*
X111300507Y-114226575D01*
X111314328Y-114205892D01*
X111335011Y-114192071D01*
X111346859Y-114180224D01*
X111364206Y-114172564D01*
X111387323Y-114157118D01*
X111408914Y-114152823D01*
X111424109Y-114146114D01*
X111468578Y-114140955D01*
X111473427Y-114139991D01*
X111923427Y-114139991D01*
X111928277Y-114140955D01*
G37*
G36*
X113478277Y-114140955D02*
G01*
X113522744Y-114146114D01*
X113537937Y-114152822D01*
X113559531Y-114157118D01*
X113582649Y-114172565D01*
X113599994Y-114180224D01*
X113611839Y-114192069D01*
X113632526Y-114205892D01*
X113646348Y-114226578D01*
X113658193Y-114238423D01*
X113665850Y-114255765D01*
X113681300Y-114278887D01*
X113685595Y-114300482D01*
X113692303Y-114315673D01*
X113697460Y-114360130D01*
X113698427Y-114364991D01*
X113698427Y-114864991D01*
X113697459Y-114869853D01*
X113692303Y-114914308D01*
X113685595Y-114929497D01*
X113681300Y-114951095D01*
X113665849Y-114974218D01*
X113658193Y-114991558D01*
X113646350Y-115003400D01*
X113632526Y-115024090D01*
X113611836Y-115037914D01*
X113599994Y-115049757D01*
X113582654Y-115057413D01*
X113559531Y-115072864D01*
X113537933Y-115077159D01*
X113522744Y-115083867D01*
X113478288Y-115089023D01*
X113473427Y-115089991D01*
X113023427Y-115089991D01*
X113018565Y-115089024D01*
X112974109Y-115083867D01*
X112958918Y-115077159D01*
X112937323Y-115072864D01*
X112914201Y-115057414D01*
X112896859Y-115049757D01*
X112885014Y-115037912D01*
X112864328Y-115024090D01*
X112850505Y-115003403D01*
X112838660Y-114991558D01*
X112831001Y-114974213D01*
X112815554Y-114951095D01*
X112811258Y-114929501D01*
X112804550Y-114914308D01*
X112799391Y-114869840D01*
X112798427Y-114864991D01*
X112798427Y-114364991D01*
X112799391Y-114360141D01*
X112804550Y-114315673D01*
X112811259Y-114300478D01*
X112815554Y-114278887D01*
X112831000Y-114255770D01*
X112838660Y-114238423D01*
X112850507Y-114226575D01*
X112864328Y-114205892D01*
X112885011Y-114192071D01*
X112896859Y-114180224D01*
X112914206Y-114172564D01*
X112937323Y-114157118D01*
X112958914Y-114152823D01*
X112974109Y-114146114D01*
X113018578Y-114140955D01*
X113023427Y-114139991D01*
X113473427Y-114139991D01*
X113478277Y-114140955D01*
G37*
G36*
X106511219Y-113615224D02*
G01*
X106576103Y-113658579D01*
X106619458Y-113723463D01*
X106634682Y-113800000D01*
X106634682Y-114200000D01*
X106619458Y-114276537D01*
X106576103Y-114341421D01*
X106511219Y-114384776D01*
X106434682Y-114400000D01*
X105884682Y-114400000D01*
X105808145Y-114384776D01*
X105743261Y-114341421D01*
X105699906Y-114276537D01*
X105684682Y-114200000D01*
X105684682Y-113800000D01*
X105699906Y-113723463D01*
X105743261Y-113658579D01*
X105808145Y-113615224D01*
X105884682Y-113600000D01*
X106434682Y-113600000D01*
X106511219Y-113615224D01*
G37*
G36*
X108511219Y-113615224D02*
G01*
X108576103Y-113658579D01*
X108619458Y-113723463D01*
X108634682Y-113800000D01*
X108634682Y-114200000D01*
X108619458Y-114276537D01*
X108576103Y-114341421D01*
X108511219Y-114384776D01*
X108434682Y-114400000D01*
X107884682Y-114400000D01*
X107808145Y-114384776D01*
X107743261Y-114341421D01*
X107699906Y-114276537D01*
X107684682Y-114200000D01*
X107684682Y-113800000D01*
X107699906Y-113723463D01*
X107743261Y-113658579D01*
X107808145Y-113615224D01*
X107884682Y-113600000D01*
X108434682Y-113600000D01*
X108511219Y-113615224D01*
G37*
G36*
X191803639Y-113550000D02*
G01*
X190803639Y-113550000D01*
X190803639Y-111850000D01*
X191803639Y-111850000D01*
X191803639Y-113550000D01*
G37*
G36*
X195503639Y-113550000D02*
G01*
X194503639Y-113550000D01*
X194503639Y-111850000D01*
X195503639Y-111850000D01*
X195503639Y-113550000D01*
G37*
G36*
X197650000Y-113550000D02*
G01*
X196650000Y-113550000D01*
X196650000Y-111850000D01*
X197650000Y-111850000D01*
X197650000Y-113550000D01*
G37*
G36*
X201350000Y-113550000D02*
G01*
X200350000Y-113550000D01*
X200350000Y-111850000D01*
X201350000Y-111850000D01*
X201350000Y-113550000D01*
G37*
G36*
X111914063Y-112477880D02*
G01*
X111958530Y-112483039D01*
X111973723Y-112489747D01*
X111995317Y-112494043D01*
X112018435Y-112509490D01*
X112035780Y-112517149D01*
X112047625Y-112528994D01*
X112068312Y-112542817D01*
X112082134Y-112563503D01*
X112093979Y-112575348D01*
X112101636Y-112592690D01*
X112117086Y-112615812D01*
X112121381Y-112637407D01*
X112128089Y-112652598D01*
X112133246Y-112697055D01*
X112134213Y-112701916D01*
X112134213Y-113201916D01*
X112133245Y-113206778D01*
X112128089Y-113251233D01*
X112121381Y-113266422D01*
X112117086Y-113288020D01*
X112101635Y-113311143D01*
X112093979Y-113328483D01*
X112082136Y-113340325D01*
X112068312Y-113361015D01*
X112047622Y-113374839D01*
X112035780Y-113386682D01*
X112018440Y-113394338D01*
X111995317Y-113409789D01*
X111973719Y-113414084D01*
X111958530Y-113420792D01*
X111914074Y-113425948D01*
X111909213Y-113426916D01*
X111459213Y-113426916D01*
X111454351Y-113425949D01*
X111409895Y-113420792D01*
X111394704Y-113414084D01*
X111373109Y-113409789D01*
X111349987Y-113394339D01*
X111332645Y-113386682D01*
X111320800Y-113374837D01*
X111300114Y-113361015D01*
X111286291Y-113340328D01*
X111274446Y-113328483D01*
X111266787Y-113311138D01*
X111251340Y-113288020D01*
X111247044Y-113266426D01*
X111240336Y-113251233D01*
X111235177Y-113206765D01*
X111234213Y-113201916D01*
X111234213Y-112701916D01*
X111235177Y-112697066D01*
X111240336Y-112652598D01*
X111247045Y-112637403D01*
X111251340Y-112615812D01*
X111266786Y-112592695D01*
X111274446Y-112575348D01*
X111286293Y-112563500D01*
X111300114Y-112542817D01*
X111320797Y-112528996D01*
X111332645Y-112517149D01*
X111349992Y-112509489D01*
X111373109Y-112494043D01*
X111394700Y-112489748D01*
X111409895Y-112483039D01*
X111454364Y-112477880D01*
X111459213Y-112476916D01*
X111909213Y-112476916D01*
X111914063Y-112477880D01*
G37*
G36*
X113464063Y-112477880D02*
G01*
X113508530Y-112483039D01*
X113523723Y-112489747D01*
X113545317Y-112494043D01*
X113568435Y-112509490D01*
X113585780Y-112517149D01*
X113597625Y-112528994D01*
X113618312Y-112542817D01*
X113632134Y-112563503D01*
X113643979Y-112575348D01*
X113651636Y-112592690D01*
X113667086Y-112615812D01*
X113671381Y-112637407D01*
X113678089Y-112652598D01*
X113683246Y-112697055D01*
X113684213Y-112701916D01*
X113684213Y-113201916D01*
X113683245Y-113206778D01*
X113678089Y-113251233D01*
X113671381Y-113266422D01*
X113667086Y-113288020D01*
X113651635Y-113311143D01*
X113643979Y-113328483D01*
X113632136Y-113340325D01*
X113618312Y-113361015D01*
X113597622Y-113374839D01*
X113585780Y-113386682D01*
X113568440Y-113394338D01*
X113545317Y-113409789D01*
X113523719Y-113414084D01*
X113508530Y-113420792D01*
X113464074Y-113425948D01*
X113459213Y-113426916D01*
X113009213Y-113426916D01*
X113004351Y-113425949D01*
X112959895Y-113420792D01*
X112944704Y-113414084D01*
X112923109Y-113409789D01*
X112899987Y-113394339D01*
X112882645Y-113386682D01*
X112870800Y-113374837D01*
X112850114Y-113361015D01*
X112836291Y-113340328D01*
X112824446Y-113328483D01*
X112816787Y-113311138D01*
X112801340Y-113288020D01*
X112797044Y-113266426D01*
X112790336Y-113251233D01*
X112785177Y-113206765D01*
X112784213Y-113201916D01*
X112784213Y-112701916D01*
X112785177Y-112697066D01*
X112790336Y-112652598D01*
X112797045Y-112637403D01*
X112801340Y-112615812D01*
X112816786Y-112592695D01*
X112824446Y-112575348D01*
X112836293Y-112563500D01*
X112850114Y-112542817D01*
X112870797Y-112528996D01*
X112882645Y-112517149D01*
X112899992Y-112509489D01*
X112923109Y-112494043D01*
X112944700Y-112489748D01*
X112959895Y-112483039D01*
X113004364Y-112477880D01*
X113009213Y-112476916D01*
X113459213Y-112476916D01*
X113464063Y-112477880D01*
G37*
G36*
X101254850Y-112100964D02*
G01*
X101299317Y-112106123D01*
X101314510Y-112112831D01*
X101336104Y-112117127D01*
X101359222Y-112132574D01*
X101376567Y-112140233D01*
X101388412Y-112152078D01*
X101409099Y-112165901D01*
X101422921Y-112186587D01*
X101434766Y-112198432D01*
X101442423Y-112215774D01*
X101457873Y-112238896D01*
X101462168Y-112260491D01*
X101468876Y-112275682D01*
X101474033Y-112320139D01*
X101475000Y-112325000D01*
X101475000Y-112775000D01*
X101474032Y-112779862D01*
X101468876Y-112824317D01*
X101462168Y-112839506D01*
X101457873Y-112861104D01*
X101442422Y-112884227D01*
X101434766Y-112901567D01*
X101422923Y-112913409D01*
X101409099Y-112934099D01*
X101388409Y-112947923D01*
X101376567Y-112959766D01*
X101359227Y-112967422D01*
X101336104Y-112982873D01*
X101314506Y-112987168D01*
X101299317Y-112993876D01*
X101254861Y-112999032D01*
X101250000Y-113000000D01*
X100750000Y-113000000D01*
X100745138Y-112999033D01*
X100700682Y-112993876D01*
X100685491Y-112987168D01*
X100663896Y-112982873D01*
X100640774Y-112967423D01*
X100623432Y-112959766D01*
X100611587Y-112947921D01*
X100590901Y-112934099D01*
X100577078Y-112913412D01*
X100565233Y-112901567D01*
X100557574Y-112884222D01*
X100542127Y-112861104D01*
X100537831Y-112839510D01*
X100531123Y-112824317D01*
X100525964Y-112779849D01*
X100525000Y-112775000D01*
X100525000Y-112325000D01*
X100525964Y-112320150D01*
X100531123Y-112275682D01*
X100537832Y-112260487D01*
X100542127Y-112238896D01*
X100557573Y-112215779D01*
X100565233Y-112198432D01*
X100577080Y-112186584D01*
X100590901Y-112165901D01*
X100611584Y-112152080D01*
X100623432Y-112140233D01*
X100640779Y-112132573D01*
X100663896Y-112117127D01*
X100685487Y-112112832D01*
X100700682Y-112106123D01*
X100745151Y-112100964D01*
X100750000Y-112100000D01*
X101250000Y-112100000D01*
X101254850Y-112100964D01*
G37*
G36*
X97229979Y-112025003D02*
G01*
X97294863Y-112068358D01*
X97338218Y-112133242D01*
X97353442Y-112209779D01*
X97353442Y-112759779D01*
X97338218Y-112836316D01*
X97294863Y-112901200D01*
X97229979Y-112944555D01*
X97153442Y-112959779D01*
X96753442Y-112959779D01*
X96676905Y-112944555D01*
X96612021Y-112901200D01*
X96568666Y-112836316D01*
X96553442Y-112759779D01*
X96553442Y-112209779D01*
X96568666Y-112133242D01*
X96612021Y-112068358D01*
X96676905Y-112025003D01*
X96753442Y-112009779D01*
X97153442Y-112009779D01*
X97229979Y-112025003D01*
G37*
G36*
X98879979Y-112025003D02*
G01*
X98944863Y-112068358D01*
X98988218Y-112133242D01*
X99003442Y-112209779D01*
X99003442Y-112759779D01*
X98988218Y-112836316D01*
X98944863Y-112901200D01*
X98879979Y-112944555D01*
X98803442Y-112959779D01*
X98403442Y-112959779D01*
X98326905Y-112944555D01*
X98262021Y-112901200D01*
X98218666Y-112836316D01*
X98203442Y-112759779D01*
X98203442Y-112209779D01*
X98218666Y-112133242D01*
X98262021Y-112068358D01*
X98326905Y-112025003D01*
X98403442Y-112009779D01*
X98803442Y-112009779D01*
X98879979Y-112025003D01*
G37*
G36*
X94069051Y-112000119D02*
G01*
X94133935Y-112043474D01*
X94177290Y-112108358D01*
X94192514Y-112184895D01*
X94192514Y-112734895D01*
X94177290Y-112811432D01*
X94133935Y-112876316D01*
X94069051Y-112919671D01*
X93992514Y-112934895D01*
X93592514Y-112934895D01*
X93515977Y-112919671D01*
X93451093Y-112876316D01*
X93407738Y-112811432D01*
X93392514Y-112734895D01*
X93392514Y-112184895D01*
X93407738Y-112108358D01*
X93451093Y-112043474D01*
X93515977Y-112000119D01*
X93592514Y-111984895D01*
X93992514Y-111984895D01*
X94069051Y-112000119D01*
G37*
G36*
X95719051Y-112000119D02*
G01*
X95783935Y-112043474D01*
X95827290Y-112108358D01*
X95842514Y-112184895D01*
X95842514Y-112734895D01*
X95827290Y-112811432D01*
X95783935Y-112876316D01*
X95719051Y-112919671D01*
X95642514Y-112934895D01*
X95242514Y-112934895D01*
X95165977Y-112919671D01*
X95101093Y-112876316D01*
X95057738Y-112811432D01*
X95042514Y-112734895D01*
X95042514Y-112184895D01*
X95057738Y-112108358D01*
X95101093Y-112043474D01*
X95165977Y-112000119D01*
X95242514Y-111984895D01*
X95642514Y-111984895D01*
X95719051Y-112000119D01*
G37*
G36*
X101254850Y-110550964D02*
G01*
X101299317Y-110556123D01*
X101314510Y-110562831D01*
X101336104Y-110567127D01*
X101359222Y-110582574D01*
X101376567Y-110590233D01*
X101388412Y-110602078D01*
X101409099Y-110615901D01*
X101422921Y-110636587D01*
X101434766Y-110648432D01*
X101442423Y-110665774D01*
X101457873Y-110688896D01*
X101462168Y-110710491D01*
X101468876Y-110725682D01*
X101474033Y-110770139D01*
X101475000Y-110775000D01*
X101475000Y-111225000D01*
X101474032Y-111229862D01*
X101468876Y-111274317D01*
X101462168Y-111289506D01*
X101457873Y-111311104D01*
X101442422Y-111334227D01*
X101434766Y-111351567D01*
X101422923Y-111363409D01*
X101409099Y-111384099D01*
X101388409Y-111397923D01*
X101376567Y-111409766D01*
X101359227Y-111417422D01*
X101336104Y-111432873D01*
X101314506Y-111437168D01*
X101299317Y-111443876D01*
X101254861Y-111449032D01*
X101250000Y-111450000D01*
X100750000Y-111450000D01*
X100745138Y-111449033D01*
X100700682Y-111443876D01*
X100685491Y-111437168D01*
X100663896Y-111432873D01*
X100640774Y-111417423D01*
X100623432Y-111409766D01*
X100611587Y-111397921D01*
X100590901Y-111384099D01*
X100577078Y-111363412D01*
X100565233Y-111351567D01*
X100557574Y-111334222D01*
X100542127Y-111311104D01*
X100537831Y-111289510D01*
X100531123Y-111274317D01*
X100525964Y-111229849D01*
X100525000Y-111225000D01*
X100525000Y-110775000D01*
X100525964Y-110770150D01*
X100531123Y-110725682D01*
X100537832Y-110710487D01*
X100542127Y-110688896D01*
X100557573Y-110665779D01*
X100565233Y-110648432D01*
X100577080Y-110636584D01*
X100590901Y-110615901D01*
X100611584Y-110602080D01*
X100623432Y-110590233D01*
X100640779Y-110582573D01*
X100663896Y-110567127D01*
X100685487Y-110562832D01*
X100700682Y-110556123D01*
X100745151Y-110550964D01*
X100750000Y-110550000D01*
X101250000Y-110550000D01*
X101254850Y-110550964D01*
G37*
G36*
X94727641Y-109997745D02*
G01*
X94828034Y-110009935D01*
X94832184Y-110011509D01*
X94839840Y-110012517D01*
X94894059Y-110034975D01*
X94963179Y-110061189D01*
X94971932Y-110067231D01*
X94984549Y-110072457D01*
X95029729Y-110107125D01*
X95082128Y-110143293D01*
X95093302Y-110155906D01*
X95108813Y-110167808D01*
X95140946Y-110209684D01*
X95177978Y-110251485D01*
X95188708Y-110271929D01*
X95204164Y-110292072D01*
X95222451Y-110336221D01*
X95245145Y-110379461D01*
X95252174Y-110407980D01*
X95264104Y-110436781D01*
X95269642Y-110478852D01*
X95279737Y-110519805D01*
X95279737Y-110555522D01*
X95284549Y-110592072D01*
X95279737Y-110628621D01*
X95279737Y-110664338D01*
X95269643Y-110705289D01*
X95264104Y-110747363D01*
X95252173Y-110776165D01*
X95245145Y-110804682D01*
X95222453Y-110847917D01*
X95204164Y-110892072D01*
X95188706Y-110912216D01*
X95177978Y-110932658D01*
X95140951Y-110974451D01*
X95108813Y-111016336D01*
X95093299Y-111028239D01*
X95082128Y-111040850D01*
X95029742Y-111077008D01*
X94984549Y-111111687D01*
X94971929Y-111116914D01*
X94963179Y-111122954D01*
X94894088Y-111149156D01*
X94839840Y-111171627D01*
X94832180Y-111172635D01*
X94828034Y-111174208D01*
X94727672Y-111186394D01*
X94684549Y-111192072D01*
X94680916Y-111192072D01*
X94088182Y-111192072D01*
X94084549Y-111192072D01*
X94041429Y-111186395D01*
X93941063Y-111174208D01*
X93936915Y-111172635D01*
X93929258Y-111171627D01*
X93875020Y-111149161D01*
X93805918Y-111122954D01*
X93797166Y-111116913D01*
X93784549Y-111111687D01*
X93739364Y-111077015D01*
X93686969Y-111040850D01*
X93675795Y-111028237D01*
X93660285Y-111016336D01*
X93628152Y-110974460D01*
X93591119Y-110932658D01*
X93580388Y-110912212D01*
X93564934Y-110892072D01*
X93546648Y-110847926D01*
X93523952Y-110804682D01*
X93516922Y-110776160D01*
X93504994Y-110747363D01*
X93499455Y-110705292D01*
X93489361Y-110664338D01*
X93489361Y-110628621D01*
X93484549Y-110592072D01*
X93489361Y-110555522D01*
X93489361Y-110519805D01*
X93499455Y-110478849D01*
X93504994Y-110436781D01*
X93516921Y-110407985D01*
X93523952Y-110379461D01*
X93546650Y-110336212D01*
X93564934Y-110292072D01*
X93580386Y-110271933D01*
X93591119Y-110251485D01*
X93628158Y-110209676D01*
X93660285Y-110167808D01*
X93675792Y-110155908D01*
X93686969Y-110143293D01*
X93739377Y-110107118D01*
X93784549Y-110072457D01*
X93797162Y-110067232D01*
X93805918Y-110061189D01*
X93875049Y-110034970D01*
X93929258Y-110012517D01*
X93936911Y-110011509D01*
X93941063Y-110009935D01*
X94041460Y-109997744D01*
X94084549Y-109992072D01*
X94684549Y-109992072D01*
X94727641Y-109997745D01*
G37*
G36*
X99037641Y-109997745D02*
G01*
X99138034Y-110009935D01*
X99142184Y-110011509D01*
X99149840Y-110012517D01*
X99204059Y-110034975D01*
X99273179Y-110061189D01*
X99281932Y-110067231D01*
X99294549Y-110072457D01*
X99339729Y-110107125D01*
X99392128Y-110143293D01*
X99403302Y-110155906D01*
X99418813Y-110167808D01*
X99450946Y-110209684D01*
X99487978Y-110251485D01*
X99498708Y-110271929D01*
X99514164Y-110292072D01*
X99532451Y-110336221D01*
X99555145Y-110379461D01*
X99562174Y-110407980D01*
X99574104Y-110436781D01*
X99579642Y-110478852D01*
X99589737Y-110519805D01*
X99589737Y-110555522D01*
X99594549Y-110592072D01*
X99589737Y-110628621D01*
X99589737Y-110664338D01*
X99579643Y-110705289D01*
X99574104Y-110747363D01*
X99562173Y-110776165D01*
X99555145Y-110804682D01*
X99532453Y-110847917D01*
X99514164Y-110892072D01*
X99498706Y-110912216D01*
X99487978Y-110932658D01*
X99450951Y-110974451D01*
X99418813Y-111016336D01*
X99403299Y-111028239D01*
X99392128Y-111040850D01*
X99339742Y-111077008D01*
X99294549Y-111111687D01*
X99281929Y-111116914D01*
X99273179Y-111122954D01*
X99204088Y-111149156D01*
X99149840Y-111171627D01*
X99142180Y-111172635D01*
X99138034Y-111174208D01*
X99037672Y-111186394D01*
X98994549Y-111192072D01*
X98990916Y-111192072D01*
X98198182Y-111192072D01*
X98194549Y-111192072D01*
X98151429Y-111186395D01*
X98051063Y-111174208D01*
X98046915Y-111172635D01*
X98039258Y-111171627D01*
X97985020Y-111149161D01*
X97915918Y-111122954D01*
X97907166Y-111116913D01*
X97894549Y-111111687D01*
X97849364Y-111077015D01*
X97796969Y-111040850D01*
X97785795Y-111028237D01*
X97770285Y-111016336D01*
X97738152Y-110974460D01*
X97701119Y-110932658D01*
X97690388Y-110912212D01*
X97674934Y-110892072D01*
X97656648Y-110847926D01*
X97633952Y-110804682D01*
X97626922Y-110776160D01*
X97614994Y-110747363D01*
X97609455Y-110705292D01*
X97599361Y-110664338D01*
X97599361Y-110628621D01*
X97594549Y-110592072D01*
X97599361Y-110555522D01*
X97599361Y-110519805D01*
X97609455Y-110478849D01*
X97614994Y-110436781D01*
X97626921Y-110407985D01*
X97633952Y-110379461D01*
X97656650Y-110336212D01*
X97674934Y-110292072D01*
X97690386Y-110271933D01*
X97701119Y-110251485D01*
X97738158Y-110209676D01*
X97770285Y-110167808D01*
X97785792Y-110155908D01*
X97796969Y-110143293D01*
X97849377Y-110107118D01*
X97894549Y-110072457D01*
X97907162Y-110067232D01*
X97915918Y-110061189D01*
X97985049Y-110034970D01*
X98039258Y-110012517D01*
X98046911Y-110011509D01*
X98051063Y-110009935D01*
X98151460Y-109997744D01*
X98194549Y-109992072D01*
X98994549Y-109992072D01*
X99037641Y-109997745D01*
G37*
G36*
X122399113Y-109852580D02*
G01*
X122463997Y-109895935D01*
X122507352Y-109960819D01*
X122522576Y-110037356D01*
X122522576Y-110587356D01*
X122507352Y-110663893D01*
X122463997Y-110728777D01*
X122399113Y-110772132D01*
X122322576Y-110787356D01*
X121922576Y-110787356D01*
X121846039Y-110772132D01*
X121781155Y-110728777D01*
X121737800Y-110663893D01*
X121722576Y-110587356D01*
X121722576Y-110037356D01*
X121737800Y-109960819D01*
X121781155Y-109895935D01*
X121846039Y-109852580D01*
X121922576Y-109837356D01*
X122322576Y-109837356D01*
X122399113Y-109852580D01*
G37*
G36*
X124049113Y-109852580D02*
G01*
X124113997Y-109895935D01*
X124157352Y-109960819D01*
X124172576Y-110037356D01*
X124172576Y-110587356D01*
X124157352Y-110663893D01*
X124113997Y-110728777D01*
X124049113Y-110772132D01*
X123972576Y-110787356D01*
X123572576Y-110787356D01*
X123496039Y-110772132D01*
X123431155Y-110728777D01*
X123387800Y-110663893D01*
X123372576Y-110587356D01*
X123372576Y-110037356D01*
X123387800Y-109960819D01*
X123431155Y-109895935D01*
X123496039Y-109852580D01*
X123572576Y-109837356D01*
X123972576Y-109837356D01*
X124049113Y-109852580D01*
G37*
G36*
X133705982Y-110688781D02*
G01*
X130205982Y-110688781D01*
X130205982Y-109188781D01*
X133705982Y-109188781D01*
X133705982Y-110688781D01*
G37*
G36*
X119625000Y-110612356D02*
G01*
X118375000Y-110612356D01*
X118375000Y-109912356D01*
X119625000Y-109912356D01*
X119625000Y-110612356D01*
G37*
G36*
X165436717Y-110423677D02*
G01*
X161936717Y-110423677D01*
X161936717Y-108923677D01*
X165436717Y-108923677D01*
X165436717Y-110423677D01*
G37*
G36*
X99694549Y-109772072D02*
G01*
X98594549Y-109772072D01*
X98594549Y-109172072D01*
X99694549Y-109172072D01*
X99694549Y-109772072D01*
G37*
G36*
X117625000Y-109662356D02*
G01*
X116375000Y-109662356D01*
X116375000Y-108962356D01*
X117625000Y-108962356D01*
X117625000Y-109662356D01*
G37*
G36*
X98172705Y-108829202D02*
G01*
X98270274Y-108878916D01*
X98347705Y-108956347D01*
X98397419Y-109053916D01*
X98414549Y-109162072D01*
X98397419Y-109270228D01*
X98347705Y-109367797D01*
X98270274Y-109445228D01*
X98172705Y-109494942D01*
X98064549Y-109512072D01*
X97956393Y-109494942D01*
X97858824Y-109445228D01*
X97781393Y-109367797D01*
X97731679Y-109270228D01*
X97714549Y-109162072D01*
X97731679Y-109053916D01*
X97781393Y-108956347D01*
X97858824Y-108878916D01*
X97956393Y-108829202D01*
X98064549Y-108812072D01*
X98172705Y-108829202D01*
G37*
G36*
X103535000Y-109165000D02*
G01*
X102465000Y-109165000D01*
X102465000Y-108635000D01*
X103535000Y-108635000D01*
X103535000Y-109165000D01*
G37*
G36*
X105835000Y-109165000D02*
G01*
X104765000Y-109165000D01*
X104765000Y-108635000D01*
X105835000Y-108635000D01*
X105835000Y-109165000D01*
G37*
G36*
X99694549Y-108972072D02*
G01*
X98594549Y-108972072D01*
X98594549Y-108372072D01*
X99694549Y-108372072D01*
X99694549Y-108972072D01*
G37*
G36*
X119625000Y-108712356D02*
G01*
X118375000Y-108712356D01*
X118375000Y-108012356D01*
X119625000Y-108012356D01*
X119625000Y-108712356D01*
G37*
G36*
X121500000Y-108687356D02*
G01*
X120500000Y-108687356D01*
X120500000Y-107937356D01*
X121500000Y-107937356D01*
X121500000Y-108687356D01*
G37*
G36*
X123840000Y-108687356D02*
G01*
X122840000Y-108687356D01*
X122840000Y-107937356D01*
X123840000Y-107937356D01*
X123840000Y-108687356D01*
G37*
G36*
X103535000Y-108215000D02*
G01*
X102465000Y-108215000D01*
X102465000Y-107685000D01*
X103535000Y-107685000D01*
X103535000Y-108215000D01*
G37*
G36*
X105835000Y-108215000D02*
G01*
X104765000Y-108215000D01*
X104765000Y-107685000D01*
X105835000Y-107685000D01*
X105835000Y-108215000D01*
G37*
G36*
X99694549Y-108172072D02*
G01*
X98594549Y-108172072D01*
X98594549Y-107872072D01*
X99694549Y-107872072D01*
X99694549Y-108172072D01*
G37*
G36*
X128005982Y-108088781D02*
G01*
X124505982Y-108088781D01*
X124505982Y-107088781D01*
X128005982Y-107088781D01*
X128005982Y-108088781D01*
G37*
G36*
X171136717Y-107823677D02*
G01*
X167636717Y-107823677D01*
X167636717Y-106823677D01*
X171136717Y-106823677D01*
X171136717Y-107823677D01*
G37*
G36*
X99694549Y-107672072D02*
G01*
X98594549Y-107672072D01*
X98594549Y-107372072D01*
X99694549Y-107372072D01*
X99694549Y-107672072D01*
G37*
G36*
X114083715Y-106691036D02*
G01*
X114128182Y-106696195D01*
X114143375Y-106702903D01*
X114164969Y-106707199D01*
X114188087Y-106722646D01*
X114205432Y-106730305D01*
X114217277Y-106742150D01*
X114237964Y-106755973D01*
X114251786Y-106776659D01*
X114263631Y-106788504D01*
X114271288Y-106805846D01*
X114286738Y-106828968D01*
X114291033Y-106850563D01*
X114297741Y-106865754D01*
X114302898Y-106910211D01*
X114303865Y-106915072D01*
X114303865Y-107415072D01*
X114302897Y-107419934D01*
X114297741Y-107464389D01*
X114291033Y-107479578D01*
X114286738Y-107501176D01*
X114271287Y-107524299D01*
X114263631Y-107541639D01*
X114251788Y-107553481D01*
X114237964Y-107574171D01*
X114217274Y-107587995D01*
X114205432Y-107599838D01*
X114188092Y-107607494D01*
X114164969Y-107622945D01*
X114143371Y-107627240D01*
X114128182Y-107633948D01*
X114083726Y-107639104D01*
X114078865Y-107640072D01*
X113628865Y-107640072D01*
X113624003Y-107639105D01*
X113579547Y-107633948D01*
X113564356Y-107627240D01*
X113542761Y-107622945D01*
X113519639Y-107607495D01*
X113502297Y-107599838D01*
X113490452Y-107587993D01*
X113469766Y-107574171D01*
X113455943Y-107553484D01*
X113444098Y-107541639D01*
X113436439Y-107524294D01*
X113420992Y-107501176D01*
X113416696Y-107479582D01*
X113409988Y-107464389D01*
X113404829Y-107419921D01*
X113403865Y-107415072D01*
X113403865Y-106915072D01*
X113404829Y-106910222D01*
X113409988Y-106865754D01*
X113416697Y-106850559D01*
X113420992Y-106828968D01*
X113436438Y-106805851D01*
X113444098Y-106788504D01*
X113455945Y-106776656D01*
X113469766Y-106755973D01*
X113490449Y-106742152D01*
X113502297Y-106730305D01*
X113519644Y-106722645D01*
X113542761Y-106707199D01*
X113564352Y-106702904D01*
X113579547Y-106696195D01*
X113624016Y-106691036D01*
X113628865Y-106690072D01*
X114078865Y-106690072D01*
X114083715Y-106691036D01*
G37*
G36*
X115633715Y-106691036D02*
G01*
X115678182Y-106696195D01*
X115693375Y-106702903D01*
X115714969Y-106707199D01*
X115738087Y-106722646D01*
X115755432Y-106730305D01*
X115767277Y-106742150D01*
X115787964Y-106755973D01*
X115801786Y-106776659D01*
X115813631Y-106788504D01*
X115821288Y-106805846D01*
X115836738Y-106828968D01*
X115841033Y-106850563D01*
X115847741Y-106865754D01*
X115852898Y-106910211D01*
X115853865Y-106915072D01*
X115853865Y-107415072D01*
X115852897Y-107419934D01*
X115847741Y-107464389D01*
X115841033Y-107479578D01*
X115836738Y-107501176D01*
X115821287Y-107524299D01*
X115813631Y-107541639D01*
X115801788Y-107553481D01*
X115787964Y-107574171D01*
X115767274Y-107587995D01*
X115755432Y-107599838D01*
X115738092Y-107607494D01*
X115714969Y-107622945D01*
X115693371Y-107627240D01*
X115678182Y-107633948D01*
X115633726Y-107639104D01*
X115628865Y-107640072D01*
X115178865Y-107640072D01*
X115174003Y-107639105D01*
X115129547Y-107633948D01*
X115114356Y-107627240D01*
X115092761Y-107622945D01*
X115069639Y-107607495D01*
X115052297Y-107599838D01*
X115040452Y-107587993D01*
X115019766Y-107574171D01*
X115005943Y-107553484D01*
X114994098Y-107541639D01*
X114986439Y-107524294D01*
X114970992Y-107501176D01*
X114966696Y-107479582D01*
X114959988Y-107464389D01*
X114954829Y-107419921D01*
X114953865Y-107415072D01*
X114953865Y-106915072D01*
X114954829Y-106910222D01*
X114959988Y-106865754D01*
X114966697Y-106850559D01*
X114970992Y-106828968D01*
X114986438Y-106805851D01*
X114994098Y-106788504D01*
X115005945Y-106776656D01*
X115019766Y-106755973D01*
X115040449Y-106742152D01*
X115052297Y-106730305D01*
X115069644Y-106722645D01*
X115092761Y-106707199D01*
X115114352Y-106702904D01*
X115129547Y-106696195D01*
X115174016Y-106691036D01*
X115178865Y-106690072D01*
X115628865Y-106690072D01*
X115633715Y-106691036D01*
G37*
G36*
X103535000Y-107265000D02*
G01*
X102465000Y-107265000D01*
X102465000Y-106735000D01*
X103535000Y-106735000D01*
X103535000Y-107265000D01*
G37*
G36*
X105835000Y-107265000D02*
G01*
X104765000Y-107265000D01*
X104765000Y-106735000D01*
X105835000Y-106735000D01*
X105835000Y-107265000D01*
G37*
G36*
X99694549Y-107172072D02*
G01*
X98594549Y-107172072D01*
X98594549Y-106872072D01*
X99694549Y-106872072D01*
X99694549Y-107172072D01*
G37*
G36*
X118627426Y-105838320D02*
G01*
X118671893Y-105843479D01*
X118687086Y-105850187D01*
X118708680Y-105854483D01*
X118731798Y-105869930D01*
X118749143Y-105877589D01*
X118760988Y-105889434D01*
X118781675Y-105903257D01*
X118795497Y-105923943D01*
X118807342Y-105935788D01*
X118814999Y-105953130D01*
X118830449Y-105976252D01*
X118834744Y-105997847D01*
X118841452Y-106013038D01*
X118846609Y-106057495D01*
X118847576Y-106062356D01*
X118847576Y-106562356D01*
X118846608Y-106567218D01*
X118841452Y-106611673D01*
X118834744Y-106626862D01*
X118830449Y-106648460D01*
X118814998Y-106671583D01*
X118807342Y-106688923D01*
X118795499Y-106700765D01*
X118781675Y-106721455D01*
X118760985Y-106735279D01*
X118749143Y-106747122D01*
X118731803Y-106754778D01*
X118708680Y-106770229D01*
X118687082Y-106774524D01*
X118671893Y-106781232D01*
X118627437Y-106786388D01*
X118622576Y-106787356D01*
X118172576Y-106787356D01*
X118167714Y-106786389D01*
X118123258Y-106781232D01*
X118108067Y-106774524D01*
X118086472Y-106770229D01*
X118063350Y-106754779D01*
X118046008Y-106747122D01*
X118034163Y-106735277D01*
X118013477Y-106721455D01*
X117999654Y-106700768D01*
X117987809Y-106688923D01*
X117980150Y-106671578D01*
X117964703Y-106648460D01*
X117960407Y-106626866D01*
X117953699Y-106611673D01*
X117948540Y-106567205D01*
X117947576Y-106562356D01*
X117947576Y-106062356D01*
X117948540Y-106057506D01*
X117953699Y-106013038D01*
X117960408Y-105997843D01*
X117964703Y-105976252D01*
X117980149Y-105953135D01*
X117987809Y-105935788D01*
X117999656Y-105923940D01*
X118013477Y-105903257D01*
X118034160Y-105889436D01*
X118046008Y-105877589D01*
X118063355Y-105869929D01*
X118086472Y-105854483D01*
X118108063Y-105850188D01*
X118123258Y-105843479D01*
X118167727Y-105838320D01*
X118172576Y-105837356D01*
X118622576Y-105837356D01*
X118627426Y-105838320D01*
G37*
G36*
X120177426Y-105838320D02*
G01*
X120221893Y-105843479D01*
X120237086Y-105850187D01*
X120258680Y-105854483D01*
X120281798Y-105869930D01*
X120299143Y-105877589D01*
X120310988Y-105889434D01*
X120331675Y-105903257D01*
X120345497Y-105923943D01*
X120357342Y-105935788D01*
X120364999Y-105953130D01*
X120380449Y-105976252D01*
X120384744Y-105997847D01*
X120391452Y-106013038D01*
X120396609Y-106057495D01*
X120397576Y-106062356D01*
X120397576Y-106562356D01*
X120396608Y-106567218D01*
X120391452Y-106611673D01*
X120384744Y-106626862D01*
X120380449Y-106648460D01*
X120364998Y-106671583D01*
X120357342Y-106688923D01*
X120345499Y-106700765D01*
X120331675Y-106721455D01*
X120310985Y-106735279D01*
X120299143Y-106747122D01*
X120281803Y-106754778D01*
X120258680Y-106770229D01*
X120237082Y-106774524D01*
X120221893Y-106781232D01*
X120177437Y-106786388D01*
X120172576Y-106787356D01*
X119722576Y-106787356D01*
X119717714Y-106786389D01*
X119673258Y-106781232D01*
X119658067Y-106774524D01*
X119636472Y-106770229D01*
X119613350Y-106754779D01*
X119596008Y-106747122D01*
X119584163Y-106735277D01*
X119563477Y-106721455D01*
X119549654Y-106700768D01*
X119537809Y-106688923D01*
X119530150Y-106671578D01*
X119514703Y-106648460D01*
X119510407Y-106626866D01*
X119503699Y-106611673D01*
X119498540Y-106567205D01*
X119497576Y-106562356D01*
X119497576Y-106062356D01*
X119498540Y-106057506D01*
X119503699Y-106013038D01*
X119510408Y-105997843D01*
X119514703Y-105976252D01*
X119530149Y-105953135D01*
X119537809Y-105935788D01*
X119549656Y-105923940D01*
X119563477Y-105903257D01*
X119584160Y-105889436D01*
X119596008Y-105877589D01*
X119613355Y-105869929D01*
X119636472Y-105854483D01*
X119658063Y-105850188D01*
X119673258Y-105843479D01*
X119717727Y-105838320D01*
X119722576Y-105837356D01*
X120172576Y-105837356D01*
X120177426Y-105838320D01*
G37*
G36*
X122229850Y-105838320D02*
G01*
X122274317Y-105843479D01*
X122289510Y-105850187D01*
X122311104Y-105854483D01*
X122334222Y-105869930D01*
X122351567Y-105877589D01*
X122363412Y-105889434D01*
X122384099Y-105903257D01*
X122397921Y-105923943D01*
X122409766Y-105935788D01*
X122417423Y-105953130D01*
X122432873Y-105976252D01*
X122437168Y-105997847D01*
X122443876Y-106013038D01*
X122449033Y-106057495D01*
X122450000Y-106062356D01*
X122450000Y-106562356D01*
X122449032Y-106567218D01*
X122443876Y-106611673D01*
X122437168Y-106626862D01*
X122432873Y-106648460D01*
X122417422Y-106671583D01*
X122409766Y-106688923D01*
X122397923Y-106700765D01*
X122384099Y-106721455D01*
X122363409Y-106735279D01*
X122351567Y-106747122D01*
X122334227Y-106754778D01*
X122311104Y-106770229D01*
X122289506Y-106774524D01*
X122274317Y-106781232D01*
X122229861Y-106786388D01*
X122225000Y-106787356D01*
X121775000Y-106787356D01*
X121770138Y-106786389D01*
X121725682Y-106781232D01*
X121710491Y-106774524D01*
X121688896Y-106770229D01*
X121665774Y-106754779D01*
X121648432Y-106747122D01*
X121636587Y-106735277D01*
X121615901Y-106721455D01*
X121602078Y-106700768D01*
X121590233Y-106688923D01*
X121582574Y-106671578D01*
X121567127Y-106648460D01*
X121562831Y-106626866D01*
X121556123Y-106611673D01*
X121550964Y-106567205D01*
X121550000Y-106562356D01*
X121550000Y-106062356D01*
X121550964Y-106057506D01*
X121556123Y-106013038D01*
X121562832Y-105997843D01*
X121567127Y-105976252D01*
X121582573Y-105953135D01*
X121590233Y-105935788D01*
X121602080Y-105923940D01*
X121615901Y-105903257D01*
X121636584Y-105889436D01*
X121648432Y-105877589D01*
X121665779Y-105869929D01*
X121688896Y-105854483D01*
X121710487Y-105850188D01*
X121725682Y-105843479D01*
X121770151Y-105838320D01*
X121775000Y-105837356D01*
X122225000Y-105837356D01*
X122229850Y-105838320D01*
G37*
G36*
X123779850Y-105838320D02*
G01*
X123824317Y-105843479D01*
X123839510Y-105850187D01*
X123861104Y-105854483D01*
X123884222Y-105869930D01*
X123901567Y-105877589D01*
X123913412Y-105889434D01*
X123934099Y-105903257D01*
X123947921Y-105923943D01*
X123959766Y-105935788D01*
X123967423Y-105953130D01*
X123982873Y-105976252D01*
X123987168Y-105997847D01*
X123993876Y-106013038D01*
X123999033Y-106057495D01*
X124000000Y-106062356D01*
X124000000Y-106562356D01*
X123999032Y-106567218D01*
X123993876Y-106611673D01*
X123987168Y-106626862D01*
X123982873Y-106648460D01*
X123967422Y-106671583D01*
X123959766Y-106688923D01*
X123947923Y-106700765D01*
X123934099Y-106721455D01*
X123913409Y-106735279D01*
X123901567Y-106747122D01*
X123884227Y-106754778D01*
X123861104Y-106770229D01*
X123839506Y-106774524D01*
X123824317Y-106781232D01*
X123779861Y-106786388D01*
X123775000Y-106787356D01*
X123325000Y-106787356D01*
X123320138Y-106786389D01*
X123275682Y-106781232D01*
X123260491Y-106774524D01*
X123238896Y-106770229D01*
X123215774Y-106754779D01*
X123198432Y-106747122D01*
X123186587Y-106735277D01*
X123165901Y-106721455D01*
X123152078Y-106700768D01*
X123140233Y-106688923D01*
X123132574Y-106671578D01*
X123117127Y-106648460D01*
X123112831Y-106626866D01*
X123106123Y-106611673D01*
X123100964Y-106567205D01*
X123100000Y-106562356D01*
X123100000Y-106062356D01*
X123100964Y-106057506D01*
X123106123Y-106013038D01*
X123112832Y-105997843D01*
X123117127Y-105976252D01*
X123132573Y-105953135D01*
X123140233Y-105935788D01*
X123152080Y-105923940D01*
X123165901Y-105903257D01*
X123186584Y-105889436D01*
X123198432Y-105877589D01*
X123215779Y-105869929D01*
X123238896Y-105854483D01*
X123260487Y-105850188D01*
X123275682Y-105843479D01*
X123320151Y-105838320D01*
X123325000Y-105837356D01*
X123775000Y-105837356D01*
X123779850Y-105838320D01*
G37*
G36*
X99694549Y-106672072D02*
G01*
X98594549Y-106672072D01*
X98594549Y-106372072D01*
X99694549Y-106372072D01*
X99694549Y-106672072D01*
G37*
G36*
X99694549Y-106172072D02*
G01*
X98594549Y-106172072D01*
X98594549Y-105872072D01*
X99694549Y-105872072D01*
X99694549Y-106172072D01*
G37*
G36*
X128005982Y-106088781D02*
G01*
X124505982Y-106088781D01*
X124505982Y-105088781D01*
X128005982Y-105088781D01*
X128005982Y-106088781D01*
G37*
G36*
X171136717Y-105823677D02*
G01*
X167636717Y-105823677D01*
X167636717Y-104823677D01*
X171136717Y-104823677D01*
X171136717Y-105823677D01*
G37*
G36*
X99694549Y-105672072D02*
G01*
X98594549Y-105672072D01*
X98594549Y-105372072D01*
X99694549Y-105372072D01*
X99694549Y-105672072D01*
G37*
G36*
X114347576Y-105562356D02*
G01*
X113347576Y-105562356D01*
X113347576Y-104962356D01*
X114347576Y-104962356D01*
X114347576Y-105562356D01*
G37*
G36*
X116547576Y-105562356D02*
G01*
X115547576Y-105562356D01*
X115547576Y-104962356D01*
X116547576Y-104962356D01*
X116547576Y-105562356D01*
G37*
G36*
X99694549Y-105172072D02*
G01*
X98594549Y-105172072D01*
X98594549Y-104872072D01*
X99694549Y-104872072D01*
X99694549Y-105172072D01*
G37*
G36*
X122020839Y-104021708D02*
G01*
X122085723Y-104065063D01*
X122129078Y-104129947D01*
X122144302Y-104206484D01*
X122144302Y-104756484D01*
X122129078Y-104833021D01*
X122085723Y-104897905D01*
X122020839Y-104941260D01*
X121944302Y-104956484D01*
X121544302Y-104956484D01*
X121467765Y-104941260D01*
X121402881Y-104897905D01*
X121359526Y-104833021D01*
X121344302Y-104756484D01*
X121344302Y-104206484D01*
X121359526Y-104129947D01*
X121402881Y-104065063D01*
X121467765Y-104021708D01*
X121544302Y-104006484D01*
X121944302Y-104006484D01*
X122020839Y-104021708D01*
G37*
G36*
X123670839Y-104021708D02*
G01*
X123735723Y-104065063D01*
X123779078Y-104129947D01*
X123794302Y-104206484D01*
X123794302Y-104756484D01*
X123779078Y-104833021D01*
X123735723Y-104897905D01*
X123670839Y-104941260D01*
X123594302Y-104956484D01*
X123194302Y-104956484D01*
X123117765Y-104941260D01*
X123052881Y-104897905D01*
X123009526Y-104833021D01*
X122994302Y-104756484D01*
X122994302Y-104206484D01*
X123009526Y-104129947D01*
X123052881Y-104065063D01*
X123117765Y-104021708D01*
X123194302Y-104006484D01*
X123594302Y-104006484D01*
X123670839Y-104021708D01*
G37*
G36*
X118574113Y-103852580D02*
G01*
X118638997Y-103895935D01*
X118682352Y-103960819D01*
X118697576Y-104037356D01*
X118697576Y-104587356D01*
X118682352Y-104663893D01*
X118638997Y-104728777D01*
X118574113Y-104772132D01*
X118497576Y-104787356D01*
X118097576Y-104787356D01*
X118021039Y-104772132D01*
X117956155Y-104728777D01*
X117912800Y-104663893D01*
X117897576Y-104587356D01*
X117897576Y-104037356D01*
X117912800Y-103960819D01*
X117956155Y-103895935D01*
X118021039Y-103852580D01*
X118097576Y-103837356D01*
X118497576Y-103837356D01*
X118574113Y-103852580D01*
G37*
G36*
X120224113Y-103852580D02*
G01*
X120288997Y-103895935D01*
X120332352Y-103960819D01*
X120347576Y-104037356D01*
X120347576Y-104587356D01*
X120332352Y-104663893D01*
X120288997Y-104728777D01*
X120224113Y-104772132D01*
X120147576Y-104787356D01*
X119747576Y-104787356D01*
X119671039Y-104772132D01*
X119606155Y-104728777D01*
X119562800Y-104663893D01*
X119547576Y-104587356D01*
X119547576Y-104037356D01*
X119562800Y-103960819D01*
X119606155Y-103895935D01*
X119671039Y-103852580D01*
X119747576Y-103837356D01*
X120147576Y-103837356D01*
X120224113Y-103852580D01*
G37*
G36*
X99694549Y-104672072D02*
G01*
X98594549Y-104672072D01*
X98594549Y-104372072D01*
X99694549Y-104372072D01*
X99694549Y-104672072D01*
G37*
G36*
X116547576Y-104612356D02*
G01*
X115547576Y-104612356D01*
X115547576Y-104012356D01*
X116547576Y-104012356D01*
X116547576Y-104612356D01*
G37*
G36*
X102329366Y-104554523D02*
G01*
X100429366Y-104554523D01*
X100429366Y-103354523D01*
X102329366Y-103354523D01*
X102329366Y-104554523D01*
G37*
G36*
X109409366Y-104554523D02*
G01*
X107509366Y-104554523D01*
X107509366Y-103354523D01*
X109409366Y-103354523D01*
X109409366Y-104554523D01*
G37*
G36*
X188249647Y-104464513D02*
G01*
X186349647Y-104464513D01*
X186349647Y-103264513D01*
X188249647Y-103264513D01*
X188249647Y-104464513D01*
G37*
G36*
X195329647Y-104464513D02*
G01*
X193429647Y-104464513D01*
X193429647Y-103264513D01*
X195329647Y-103264513D01*
X195329647Y-104464513D01*
G37*
G36*
X99694549Y-104172072D02*
G01*
X98594549Y-104172072D01*
X98594549Y-103572072D01*
X99694549Y-103572072D01*
X99694549Y-104172072D01*
G37*
G36*
X133705982Y-103988781D02*
G01*
X130205982Y-103988781D01*
X130205982Y-102488781D01*
X133705982Y-102488781D01*
X133705982Y-103988781D01*
G37*
G36*
X98172705Y-103049202D02*
G01*
X98270274Y-103098916D01*
X98347705Y-103176347D01*
X98397419Y-103273916D01*
X98414549Y-103382072D01*
X98397419Y-103490228D01*
X98347705Y-103587797D01*
X98270274Y-103665228D01*
X98172705Y-103714942D01*
X98064549Y-103732072D01*
X97956393Y-103714942D01*
X97858824Y-103665228D01*
X97781393Y-103587797D01*
X97731679Y-103490228D01*
X97714549Y-103382072D01*
X97731679Y-103273916D01*
X97781393Y-103176347D01*
X97858824Y-103098916D01*
X97956393Y-103049202D01*
X98064549Y-103032072D01*
X98172705Y-103049202D01*
G37*
G36*
X165436717Y-103723677D02*
G01*
X161936717Y-103723677D01*
X161936717Y-102223677D01*
X165436717Y-102223677D01*
X165436717Y-103723677D01*
G37*
G36*
X114347576Y-103662356D02*
G01*
X113347576Y-103662356D01*
X113347576Y-103062356D01*
X114347576Y-103062356D01*
X114347576Y-103662356D01*
G37*
G36*
X116547576Y-103662356D02*
G01*
X115547576Y-103662356D01*
X115547576Y-103062356D01*
X116547576Y-103062356D01*
X116547576Y-103662356D01*
G37*
G36*
X99694549Y-103372072D02*
G01*
X98594549Y-103372072D01*
X98594549Y-102772072D01*
X99694549Y-102772072D01*
X99694549Y-103372072D01*
G37*
G36*
X94727641Y-101357745D02*
G01*
X94828034Y-101369935D01*
X94832184Y-101371509D01*
X94839840Y-101372517D01*
X94894059Y-101394975D01*
X94963179Y-101421189D01*
X94971932Y-101427231D01*
X94984549Y-101432457D01*
X95029729Y-101467125D01*
X95082128Y-101503293D01*
X95093302Y-101515906D01*
X95108813Y-101527808D01*
X95140946Y-101569684D01*
X95177978Y-101611485D01*
X95188708Y-101631929D01*
X95204164Y-101652072D01*
X95222451Y-101696221D01*
X95245145Y-101739461D01*
X95252174Y-101767980D01*
X95264104Y-101796781D01*
X95269642Y-101838852D01*
X95279737Y-101879805D01*
X95279737Y-101915522D01*
X95284549Y-101952072D01*
X95279737Y-101988621D01*
X95279737Y-102024338D01*
X95269643Y-102065289D01*
X95264104Y-102107363D01*
X95252173Y-102136165D01*
X95245145Y-102164682D01*
X95222453Y-102207917D01*
X95204164Y-102252072D01*
X95188706Y-102272216D01*
X95177978Y-102292658D01*
X95140951Y-102334451D01*
X95108813Y-102376336D01*
X95093299Y-102388239D01*
X95082128Y-102400850D01*
X95029742Y-102437008D01*
X94984549Y-102471687D01*
X94971929Y-102476914D01*
X94963179Y-102482954D01*
X94894088Y-102509156D01*
X94839840Y-102531627D01*
X94832180Y-102532635D01*
X94828034Y-102534208D01*
X94727672Y-102546394D01*
X94684549Y-102552072D01*
X94680916Y-102552072D01*
X94088182Y-102552072D01*
X94084549Y-102552072D01*
X94041429Y-102546395D01*
X93941063Y-102534208D01*
X93936915Y-102532635D01*
X93929258Y-102531627D01*
X93875020Y-102509161D01*
X93805918Y-102482954D01*
X93797166Y-102476913D01*
X93784549Y-102471687D01*
X93739364Y-102437015D01*
X93686969Y-102400850D01*
X93675795Y-102388237D01*
X93660285Y-102376336D01*
X93628152Y-102334460D01*
X93591119Y-102292658D01*
X93580388Y-102272212D01*
X93564934Y-102252072D01*
X93546648Y-102207926D01*
X93523952Y-102164682D01*
X93516922Y-102136160D01*
X93504994Y-102107363D01*
X93499455Y-102065292D01*
X93489361Y-102024338D01*
X93489361Y-101988621D01*
X93484549Y-101952072D01*
X93489361Y-101915522D01*
X93489361Y-101879805D01*
X93499455Y-101838849D01*
X93504994Y-101796781D01*
X93516921Y-101767985D01*
X93523952Y-101739461D01*
X93546650Y-101696212D01*
X93564934Y-101652072D01*
X93580386Y-101631933D01*
X93591119Y-101611485D01*
X93628158Y-101569676D01*
X93660285Y-101527808D01*
X93675792Y-101515908D01*
X93686969Y-101503293D01*
X93739377Y-101467118D01*
X93784549Y-101432457D01*
X93797162Y-101427232D01*
X93805918Y-101421189D01*
X93875049Y-101394970D01*
X93929258Y-101372517D01*
X93936911Y-101371509D01*
X93941063Y-101369935D01*
X94041460Y-101357744D01*
X94084549Y-101352072D01*
X94684549Y-101352072D01*
X94727641Y-101357745D01*
G37*
G36*
X99037641Y-101357745D02*
G01*
X99138034Y-101369935D01*
X99142184Y-101371509D01*
X99149840Y-101372517D01*
X99204059Y-101394975D01*
X99273179Y-101421189D01*
X99281932Y-101427231D01*
X99294549Y-101432457D01*
X99339729Y-101467125D01*
X99392128Y-101503293D01*
X99403302Y-101515906D01*
X99418813Y-101527808D01*
X99450946Y-101569684D01*
X99487978Y-101611485D01*
X99498708Y-101631929D01*
X99514164Y-101652072D01*
X99532451Y-101696221D01*
X99555145Y-101739461D01*
X99562174Y-101767980D01*
X99574104Y-101796781D01*
X99579642Y-101838852D01*
X99589737Y-101879805D01*
X99589737Y-101915522D01*
X99594549Y-101952072D01*
X99589737Y-101988621D01*
X99589737Y-102024338D01*
X99579643Y-102065289D01*
X99574104Y-102107363D01*
X99562173Y-102136165D01*
X99555145Y-102164682D01*
X99532453Y-102207917D01*
X99514164Y-102252072D01*
X99498706Y-102272216D01*
X99487978Y-102292658D01*
X99450951Y-102334451D01*
X99418813Y-102376336D01*
X99403299Y-102388239D01*
X99392128Y-102400850D01*
X99339742Y-102437008D01*
X99294549Y-102471687D01*
X99281929Y-102476914D01*
X99273179Y-102482954D01*
X99204088Y-102509156D01*
X99149840Y-102531627D01*
X99142180Y-102532635D01*
X99138034Y-102534208D01*
X99037672Y-102546394D01*
X98994549Y-102552072D01*
X98990916Y-102552072D01*
X98198182Y-102552072D01*
X98194549Y-102552072D01*
X98151429Y-102546395D01*
X98051063Y-102534208D01*
X98046915Y-102532635D01*
X98039258Y-102531627D01*
X97985020Y-102509161D01*
X97915918Y-102482954D01*
X97907166Y-102476913D01*
X97894549Y-102471687D01*
X97849364Y-102437015D01*
X97796969Y-102400850D01*
X97785795Y-102388237D01*
X97770285Y-102376336D01*
X97738152Y-102334460D01*
X97701119Y-102292658D01*
X97690388Y-102272212D01*
X97674934Y-102252072D01*
X97656648Y-102207926D01*
X97633952Y-102164682D01*
X97626922Y-102136160D01*
X97614994Y-102107363D01*
X97609455Y-102065292D01*
X97599361Y-102024338D01*
X97599361Y-101988621D01*
X97594549Y-101952072D01*
X97599361Y-101915522D01*
X97599361Y-101879805D01*
X97609455Y-101838849D01*
X97614994Y-101796781D01*
X97626921Y-101767985D01*
X97633952Y-101739461D01*
X97656650Y-101696212D01*
X97674934Y-101652072D01*
X97690386Y-101631933D01*
X97701119Y-101611485D01*
X97738158Y-101569676D01*
X97770285Y-101527808D01*
X97785792Y-101515908D01*
X97796969Y-101503293D01*
X97849377Y-101467118D01*
X97894549Y-101432457D01*
X97907162Y-101427232D01*
X97915918Y-101421189D01*
X97985049Y-101394970D01*
X98039258Y-101372517D01*
X98046911Y-101371509D01*
X98051063Y-101369935D01*
X98151460Y-101357744D01*
X98194549Y-101352072D01*
X98994549Y-101352072D01*
X99037641Y-101357745D01*
G37*
G36*
X102329366Y-101554523D02*
G01*
X100429366Y-101554523D01*
X100429366Y-100354523D01*
X102329366Y-100354523D01*
X102329366Y-101554523D01*
G37*
G36*
X109409366Y-101554523D02*
G01*
X107509366Y-101554523D01*
X107509366Y-100354523D01*
X109409366Y-100354523D01*
X109409366Y-101554523D01*
G37*
G36*
X188249647Y-101464513D02*
G01*
X186349647Y-101464513D01*
X186349647Y-100264513D01*
X188249647Y-100264513D01*
X188249647Y-101464513D01*
G37*
G36*
X195329647Y-101464513D02*
G01*
X193429647Y-101464513D01*
X193429647Y-100264513D01*
X195329647Y-100264513D01*
X195329647Y-101464513D01*
G37*
G36*
X94400000Y-100400000D02*
G01*
X93600000Y-100400000D01*
X93600000Y-99600000D01*
X94400000Y-99600000D01*
X94400000Y-100400000D01*
G37*
G36*
X94400000Y-98800000D02*
G01*
X93600000Y-98800000D01*
X93600000Y-98000000D01*
X94400000Y-98000000D01*
X94400000Y-98800000D01*
G37*
G36*
X96626537Y-97540224D02*
G01*
X96691421Y-97583579D01*
X96734776Y-97648463D01*
X96750000Y-97725000D01*
X96750000Y-98275000D01*
X96734776Y-98351537D01*
X96691421Y-98416421D01*
X96626537Y-98459776D01*
X96550000Y-98475000D01*
X96150000Y-98475000D01*
X96073463Y-98459776D01*
X96008579Y-98416421D01*
X95965224Y-98351537D01*
X95950000Y-98275000D01*
X95950000Y-97725000D01*
X95965224Y-97648463D01*
X96008579Y-97583579D01*
X96073463Y-97540224D01*
X96150000Y-97525000D01*
X96550000Y-97525000D01*
X96626537Y-97540224D01*
G37*
G36*
X98276537Y-97540224D02*
G01*
X98341421Y-97583579D01*
X98384776Y-97648463D01*
X98400000Y-97725000D01*
X98400000Y-98275000D01*
X98384776Y-98351537D01*
X98341421Y-98416421D01*
X98276537Y-98459776D01*
X98200000Y-98475000D01*
X97800000Y-98475000D01*
X97723463Y-98459776D01*
X97658579Y-98416421D01*
X97615224Y-98351537D01*
X97600000Y-98275000D01*
X97600000Y-97725000D01*
X97615224Y-97648463D01*
X97658579Y-97583579D01*
X97723463Y-97540224D01*
X97800000Y-97525000D01*
X98200000Y-97525000D01*
X98276537Y-97540224D01*
G37*
G36*
X100556994Y-96560928D02*
G01*
X100601461Y-96566087D01*
X100616654Y-96572795D01*
X100638248Y-96577091D01*
X100661366Y-96592538D01*
X100678711Y-96600197D01*
X100690556Y-96612042D01*
X100711243Y-96625865D01*
X100725065Y-96646551D01*
X100736910Y-96658396D01*
X100744567Y-96675738D01*
X100760017Y-96698860D01*
X100764312Y-96720455D01*
X100771020Y-96735646D01*
X100776177Y-96780103D01*
X100777144Y-96784964D01*
X100777144Y-97284964D01*
X100776176Y-97289826D01*
X100771020Y-97334281D01*
X100764312Y-97349470D01*
X100760017Y-97371068D01*
X100744566Y-97394191D01*
X100736910Y-97411531D01*
X100725067Y-97423373D01*
X100711243Y-97444063D01*
X100690553Y-97457887D01*
X100678711Y-97469730D01*
X100661371Y-97477386D01*
X100638248Y-97492837D01*
X100616650Y-97497132D01*
X100601461Y-97503840D01*
X100557005Y-97508996D01*
X100552144Y-97509964D01*
X100102144Y-97509964D01*
X100097282Y-97508997D01*
X100052826Y-97503840D01*
X100037635Y-97497132D01*
X100016040Y-97492837D01*
X99992918Y-97477387D01*
X99975576Y-97469730D01*
X99963731Y-97457885D01*
X99943045Y-97444063D01*
X99929222Y-97423376D01*
X99917377Y-97411531D01*
X99909718Y-97394186D01*
X99894271Y-97371068D01*
X99889975Y-97349474D01*
X99883267Y-97334281D01*
X99878108Y-97289813D01*
X99877144Y-97284964D01*
X99877144Y-96784964D01*
X99878108Y-96780114D01*
X99883267Y-96735646D01*
X99889976Y-96720451D01*
X99894271Y-96698860D01*
X99909717Y-96675743D01*
X99917377Y-96658396D01*
X99929224Y-96646548D01*
X99943045Y-96625865D01*
X99963728Y-96612044D01*
X99975576Y-96600197D01*
X99992923Y-96592537D01*
X100016040Y-96577091D01*
X100037631Y-96572796D01*
X100052826Y-96566087D01*
X100097295Y-96560928D01*
X100102144Y-96559964D01*
X100552144Y-96559964D01*
X100556994Y-96560928D01*
G37*
G36*
X102106994Y-96560928D02*
G01*
X102151461Y-96566087D01*
X102166654Y-96572795D01*
X102188248Y-96577091D01*
X102211366Y-96592538D01*
X102228711Y-96600197D01*
X102240556Y-96612042D01*
X102261243Y-96625865D01*
X102275065Y-96646551D01*
X102286910Y-96658396D01*
X102294567Y-96675738D01*
X102310017Y-96698860D01*
X102314312Y-96720455D01*
X102321020Y-96735646D01*
X102326177Y-96780103D01*
X102327144Y-96784964D01*
X102327144Y-97284964D01*
X102326176Y-97289826D01*
X102321020Y-97334281D01*
X102314312Y-97349470D01*
X102310017Y-97371068D01*
X102294566Y-97394191D01*
X102286910Y-97411531D01*
X102275067Y-97423373D01*
X102261243Y-97444063D01*
X102240553Y-97457887D01*
X102228711Y-97469730D01*
X102211371Y-97477386D01*
X102188248Y-97492837D01*
X102166650Y-97497132D01*
X102151461Y-97503840D01*
X102107005Y-97508996D01*
X102102144Y-97509964D01*
X101652144Y-97509964D01*
X101647282Y-97508997D01*
X101602826Y-97503840D01*
X101587635Y-97497132D01*
X101566040Y-97492837D01*
X101542918Y-97477387D01*
X101525576Y-97469730D01*
X101513731Y-97457885D01*
X101493045Y-97444063D01*
X101479222Y-97423376D01*
X101467377Y-97411531D01*
X101459718Y-97394186D01*
X101444271Y-97371068D01*
X101439975Y-97349474D01*
X101433267Y-97334281D01*
X101428108Y-97289813D01*
X101427144Y-97284964D01*
X101427144Y-96784964D01*
X101428108Y-96780114D01*
X101433267Y-96735646D01*
X101439976Y-96720451D01*
X101444271Y-96698860D01*
X101459717Y-96675743D01*
X101467377Y-96658396D01*
X101479224Y-96646548D01*
X101493045Y-96625865D01*
X101513728Y-96612044D01*
X101525576Y-96600197D01*
X101542923Y-96592537D01*
X101566040Y-96577091D01*
X101587631Y-96572796D01*
X101602826Y-96566087D01*
X101647295Y-96560928D01*
X101652144Y-96559964D01*
X102102144Y-96559964D01*
X102106994Y-96560928D01*
G37*
G36*
X94351537Y-96265224D02*
G01*
X94416421Y-96308579D01*
X94459776Y-96373463D01*
X94475000Y-96450000D01*
X94475000Y-96850000D01*
X94459776Y-96926537D01*
X94416421Y-96991421D01*
X94351537Y-97034776D01*
X94275000Y-97050000D01*
X93725000Y-97050000D01*
X93648463Y-97034776D01*
X93583579Y-96991421D01*
X93540224Y-96926537D01*
X93525000Y-96850000D01*
X93525000Y-96450000D01*
X93540224Y-96373463D01*
X93583579Y-96308579D01*
X93648463Y-96265224D01*
X93725000Y-96250000D01*
X94275000Y-96250000D01*
X94351537Y-96265224D01*
G37*
G36*
X96375000Y-96650000D02*
G01*
X95625000Y-96650000D01*
X95625000Y-96350000D01*
X96375000Y-96350000D01*
X96375000Y-96650000D01*
G37*
G36*
X99375000Y-96650000D02*
G01*
X98625000Y-96650000D01*
X98625000Y-96350000D01*
X99375000Y-96350000D01*
X99375000Y-96650000D01*
G37*
G36*
X98300000Y-96550000D02*
G01*
X96700000Y-96550000D01*
X96700000Y-94950000D01*
X98300000Y-94950000D01*
X98300000Y-96550000D01*
G37*
G36*
X96375000Y-96150000D02*
G01*
X95625000Y-96150000D01*
X95625000Y-95850000D01*
X96375000Y-95850000D01*
X96375000Y-96150000D01*
G37*
G36*
X99375000Y-96150000D02*
G01*
X98625000Y-96150000D01*
X98625000Y-95850000D01*
X99375000Y-95850000D01*
X99375000Y-96150000D01*
G37*
G36*
X96375000Y-95650000D02*
G01*
X95625000Y-95650000D01*
X95625000Y-95350000D01*
X96375000Y-95350000D01*
X96375000Y-95650000D01*
G37*
G36*
X99375000Y-95650000D02*
G01*
X98625000Y-95650000D01*
X98625000Y-95350000D01*
X99375000Y-95350000D01*
X99375000Y-95650000D01*
G37*
G36*
X94351537Y-94615224D02*
G01*
X94416421Y-94658579D01*
X94459776Y-94723463D01*
X94475000Y-94800000D01*
X94475000Y-95200000D01*
X94459776Y-95276537D01*
X94416421Y-95341421D01*
X94351537Y-95384776D01*
X94275000Y-95400000D01*
X93725000Y-95400000D01*
X93648463Y-95384776D01*
X93583579Y-95341421D01*
X93540224Y-95276537D01*
X93525000Y-95200000D01*
X93525000Y-94800000D01*
X93540224Y-94723463D01*
X93583579Y-94658579D01*
X93648463Y-94615224D01*
X93725000Y-94600000D01*
X94275000Y-94600000D01*
X94351537Y-94615224D01*
G37*
G36*
X154725978Y-95306608D02*
G01*
X153125978Y-95306608D01*
X153125978Y-93306608D01*
X154725978Y-93306608D01*
X154725978Y-95306608D01*
G37*
G36*
X96375000Y-95150000D02*
G01*
X95625000Y-95150000D01*
X95625000Y-94850000D01*
X96375000Y-94850000D01*
X96375000Y-95150000D01*
G37*
G36*
X99375000Y-95150000D02*
G01*
X98625000Y-95150000D01*
X98625000Y-94850000D01*
X99375000Y-94850000D01*
X99375000Y-95150000D01*
G37*
G36*
X100168681Y-92844394D02*
G01*
X100213148Y-92849553D01*
X100228341Y-92856261D01*
X100249935Y-92860557D01*
X100273053Y-92876004D01*
X100290398Y-92883663D01*
X100302243Y-92895508D01*
X100322930Y-92909331D01*
X100336752Y-92930017D01*
X100348597Y-92941862D01*
X100356254Y-92959204D01*
X100371704Y-92982326D01*
X100375999Y-93003921D01*
X100382707Y-93019112D01*
X100387864Y-93063569D01*
X100388831Y-93068430D01*
X100388831Y-93568430D01*
X100387863Y-93573292D01*
X100382707Y-93617747D01*
X100375999Y-93632936D01*
X100371704Y-93654534D01*
X100356253Y-93677657D01*
X100348597Y-93694997D01*
X100336754Y-93706839D01*
X100322930Y-93727529D01*
X100302240Y-93741353D01*
X100290398Y-93753196D01*
X100273058Y-93760852D01*
X100249935Y-93776303D01*
X100228337Y-93780598D01*
X100213148Y-93787306D01*
X100168692Y-93792462D01*
X100163831Y-93793430D01*
X99713831Y-93793430D01*
X99708969Y-93792463D01*
X99664513Y-93787306D01*
X99649322Y-93780598D01*
X99627727Y-93776303D01*
X99604605Y-93760853D01*
X99587263Y-93753196D01*
X99575418Y-93741351D01*
X99554732Y-93727529D01*
X99540909Y-93706842D01*
X99529064Y-93694997D01*
X99521405Y-93677652D01*
X99505958Y-93654534D01*
X99501662Y-93632940D01*
X99494954Y-93617747D01*
X99489795Y-93573279D01*
X99488831Y-93568430D01*
X99488831Y-93068430D01*
X99489795Y-93063580D01*
X99494954Y-93019112D01*
X99501663Y-93003917D01*
X99505958Y-92982326D01*
X99521404Y-92959209D01*
X99529064Y-92941862D01*
X99540911Y-92930014D01*
X99554732Y-92909331D01*
X99575415Y-92895510D01*
X99587263Y-92883663D01*
X99604610Y-92876003D01*
X99627727Y-92860557D01*
X99649318Y-92856262D01*
X99664513Y-92849553D01*
X99708982Y-92844394D01*
X99713831Y-92843430D01*
X100163831Y-92843430D01*
X100168681Y-92844394D01*
G37*
G36*
X101718681Y-92844394D02*
G01*
X101763148Y-92849553D01*
X101778341Y-92856261D01*
X101799935Y-92860557D01*
X101823053Y-92876004D01*
X101840398Y-92883663D01*
X101852243Y-92895508D01*
X101872930Y-92909331D01*
X101886752Y-92930017D01*
X101898597Y-92941862D01*
X101906254Y-92959204D01*
X101921704Y-92982326D01*
X101925999Y-93003921D01*
X101932707Y-93019112D01*
X101937864Y-93063569D01*
X101938831Y-93068430D01*
X101938831Y-93568430D01*
X101937863Y-93573292D01*
X101932707Y-93617747D01*
X101925999Y-93632936D01*
X101921704Y-93654534D01*
X101906253Y-93677657D01*
X101898597Y-93694997D01*
X101886754Y-93706839D01*
X101872930Y-93727529D01*
X101852240Y-93741353D01*
X101840398Y-93753196D01*
X101823058Y-93760852D01*
X101799935Y-93776303D01*
X101778337Y-93780598D01*
X101763148Y-93787306D01*
X101718692Y-93792462D01*
X101713831Y-93793430D01*
X101263831Y-93793430D01*
X101258969Y-93792463D01*
X101214513Y-93787306D01*
X101199322Y-93780598D01*
X101177727Y-93776303D01*
X101154605Y-93760853D01*
X101137263Y-93753196D01*
X101125418Y-93741351D01*
X101104732Y-93727529D01*
X101090909Y-93706842D01*
X101079064Y-93694997D01*
X101071405Y-93677652D01*
X101055958Y-93654534D01*
X101051662Y-93632940D01*
X101044954Y-93617747D01*
X101039795Y-93573279D01*
X101038831Y-93568430D01*
X101038831Y-93068430D01*
X101039795Y-93063580D01*
X101044954Y-93019112D01*
X101051663Y-93003917D01*
X101055958Y-92982326D01*
X101071404Y-92959209D01*
X101079064Y-92941862D01*
X101090911Y-92930014D01*
X101104732Y-92909331D01*
X101125415Y-92895510D01*
X101137263Y-92883663D01*
X101154610Y-92876003D01*
X101177727Y-92860557D01*
X101199318Y-92856262D01*
X101214513Y-92849553D01*
X101258982Y-92844394D01*
X101263831Y-92843430D01*
X101713831Y-92843430D01*
X101718681Y-92844394D01*
G37*
G36*
X151976163Y-92713886D02*
G01*
X150476163Y-92713886D01*
X150476163Y-92413886D01*
X151976163Y-92413886D01*
X151976163Y-92713886D01*
G37*
G36*
X136571111Y-91489929D02*
G01*
X136635995Y-91533284D01*
X136679350Y-91598168D01*
X136694574Y-91674705D01*
X136694574Y-92224705D01*
X136679350Y-92301242D01*
X136635995Y-92366126D01*
X136571111Y-92409481D01*
X136494574Y-92424705D01*
X136094574Y-92424705D01*
X136018037Y-92409481D01*
X135953153Y-92366126D01*
X135909798Y-92301242D01*
X135894574Y-92224705D01*
X135894574Y-91674705D01*
X135909798Y-91598168D01*
X135953153Y-91533284D01*
X136018037Y-91489929D01*
X136094574Y-91474705D01*
X136494574Y-91474705D01*
X136571111Y-91489929D01*
G37*
G36*
X138221111Y-91489929D02*
G01*
X138285995Y-91533284D01*
X138329350Y-91598168D01*
X138344574Y-91674705D01*
X138344574Y-92224705D01*
X138329350Y-92301242D01*
X138285995Y-92366126D01*
X138221111Y-92409481D01*
X138144574Y-92424705D01*
X137744574Y-92424705D01*
X137668037Y-92409481D01*
X137603153Y-92366126D01*
X137559798Y-92301242D01*
X137544574Y-92224705D01*
X137544574Y-91674705D01*
X137559798Y-91598168D01*
X137603153Y-91533284D01*
X137668037Y-91489929D01*
X137744574Y-91474705D01*
X138144574Y-91474705D01*
X138221111Y-91489929D01*
G37*
G36*
X151976163Y-92213886D02*
G01*
X150476163Y-92213886D01*
X150476163Y-91913886D01*
X151976163Y-91913886D01*
X151976163Y-92213886D01*
G37*
G36*
X100168681Y-91162240D02*
G01*
X100213148Y-91167399D01*
X100228341Y-91174107D01*
X100249935Y-91178403D01*
X100273053Y-91193850D01*
X100290398Y-91201509D01*
X100302243Y-91213354D01*
X100322930Y-91227177D01*
X100336752Y-91247863D01*
X100348597Y-91259708D01*
X100356254Y-91277050D01*
X100371704Y-91300172D01*
X100375999Y-91321767D01*
X100382707Y-91336958D01*
X100387864Y-91381415D01*
X100388831Y-91386276D01*
X100388831Y-91886276D01*
X100387863Y-91891138D01*
X100382707Y-91935593D01*
X100375999Y-91950782D01*
X100371704Y-91972380D01*
X100356253Y-91995503D01*
X100348597Y-92012843D01*
X100336754Y-92024685D01*
X100322930Y-92045375D01*
X100302240Y-92059199D01*
X100290398Y-92071042D01*
X100273058Y-92078698D01*
X100249935Y-92094149D01*
X100228337Y-92098444D01*
X100213148Y-92105152D01*
X100168692Y-92110308D01*
X100163831Y-92111276D01*
X99713831Y-92111276D01*
X99708969Y-92110309D01*
X99664513Y-92105152D01*
X99649322Y-92098444D01*
X99627727Y-92094149D01*
X99604605Y-92078699D01*
X99587263Y-92071042D01*
X99575418Y-92059197D01*
X99554732Y-92045375D01*
X99540909Y-92024688D01*
X99529064Y-92012843D01*
X99521405Y-91995498D01*
X99505958Y-91972380D01*
X99501662Y-91950786D01*
X99494954Y-91935593D01*
X99489795Y-91891125D01*
X99488831Y-91886276D01*
X99488831Y-91386276D01*
X99489795Y-91381426D01*
X99494954Y-91336958D01*
X99501663Y-91321763D01*
X99505958Y-91300172D01*
X99521404Y-91277055D01*
X99529064Y-91259708D01*
X99540911Y-91247860D01*
X99554732Y-91227177D01*
X99575415Y-91213356D01*
X99587263Y-91201509D01*
X99604610Y-91193849D01*
X99627727Y-91178403D01*
X99649318Y-91174108D01*
X99664513Y-91167399D01*
X99708982Y-91162240D01*
X99713831Y-91161276D01*
X100163831Y-91161276D01*
X100168681Y-91162240D01*
G37*
G36*
X101718681Y-91162240D02*
G01*
X101763148Y-91167399D01*
X101778341Y-91174107D01*
X101799935Y-91178403D01*
X101823053Y-91193850D01*
X101840398Y-91201509D01*
X101852243Y-91213354D01*
X101872930Y-91227177D01*
X101886752Y-91247863D01*
X101898597Y-91259708D01*
X101906254Y-91277050D01*
X101921704Y-91300172D01*
X101925999Y-91321767D01*
X101932707Y-91336958D01*
X101937864Y-91381415D01*
X101938831Y-91386276D01*
X101938831Y-91886276D01*
X101937863Y-91891138D01*
X101932707Y-91935593D01*
X101925999Y-91950782D01*
X101921704Y-91972380D01*
X101906253Y-91995503D01*
X101898597Y-92012843D01*
X101886754Y-92024685D01*
X101872930Y-92045375D01*
X101852240Y-92059199D01*
X101840398Y-92071042D01*
X101823058Y-92078698D01*
X101799935Y-92094149D01*
X101778337Y-92098444D01*
X101763148Y-92105152D01*
X101718692Y-92110308D01*
X101713831Y-92111276D01*
X101263831Y-92111276D01*
X101258969Y-92110309D01*
X101214513Y-92105152D01*
X101199322Y-92098444D01*
X101177727Y-92094149D01*
X101154605Y-92078699D01*
X101137263Y-92071042D01*
X101125418Y-92059197D01*
X101104732Y-92045375D01*
X101090909Y-92024688D01*
X101079064Y-92012843D01*
X101071405Y-91995498D01*
X101055958Y-91972380D01*
X101051662Y-91950786D01*
X101044954Y-91935593D01*
X101039795Y-91891125D01*
X101038831Y-91886276D01*
X101038831Y-91386276D01*
X101039795Y-91381426D01*
X101044954Y-91336958D01*
X101051663Y-91321763D01*
X101055958Y-91300172D01*
X101071404Y-91277055D01*
X101079064Y-91259708D01*
X101090911Y-91247860D01*
X101104732Y-91227177D01*
X101125415Y-91213356D01*
X101137263Y-91201509D01*
X101154610Y-91193849D01*
X101177727Y-91178403D01*
X101199318Y-91174108D01*
X101214513Y-91167399D01*
X101258982Y-91162240D01*
X101263831Y-91161276D01*
X101713831Y-91161276D01*
X101718681Y-91162240D01*
G37*
G36*
X151976163Y-91713886D02*
G01*
X150476163Y-91713886D01*
X150476163Y-91413886D01*
X151976163Y-91413886D01*
X151976163Y-91713886D01*
G37*
G36*
X151976163Y-91213886D02*
G01*
X150476163Y-91213886D01*
X150476163Y-90913886D01*
X151976163Y-90913886D01*
X151976163Y-91213886D01*
G37*
G36*
X151976163Y-90713886D02*
G01*
X150476163Y-90713886D01*
X150476163Y-90413886D01*
X151976163Y-90413886D01*
X151976163Y-90713886D01*
G37*
G36*
X201963068Y-90700000D02*
G01*
X201163068Y-90700000D01*
X201163068Y-90100000D01*
X201963068Y-90100000D01*
X201963068Y-90700000D01*
G37*
G36*
X136354850Y-89058999D02*
G01*
X136405040Y-89064822D01*
X136422189Y-89072394D01*
X136445671Y-89077065D01*
X136470810Y-89093862D01*
X136490696Y-89102643D01*
X136504277Y-89116224D01*
X136526777Y-89131258D01*
X136541810Y-89153757D01*
X136555391Y-89167338D01*
X136564170Y-89187221D01*
X136580970Y-89212364D01*
X136585641Y-89235847D01*
X136593212Y-89252994D01*
X136599033Y-89303174D01*
X136600000Y-89308035D01*
X136600000Y-90258035D01*
X136599032Y-90262898D01*
X136593212Y-90313075D01*
X136585641Y-90330220D01*
X136580970Y-90353706D01*
X136564169Y-90378850D01*
X136555391Y-90398731D01*
X136541812Y-90412309D01*
X136526777Y-90434812D01*
X136504274Y-90449847D01*
X136490696Y-90463426D01*
X136470815Y-90472204D01*
X136445671Y-90489005D01*
X136422185Y-90493676D01*
X136405040Y-90501247D01*
X136354861Y-90507067D01*
X136350000Y-90508035D01*
X135850000Y-90508035D01*
X135845138Y-90507067D01*
X135794959Y-90501247D01*
X135777812Y-90493676D01*
X135754329Y-90489005D01*
X135729186Y-90472205D01*
X135709303Y-90463426D01*
X135695722Y-90449845D01*
X135673223Y-90434812D01*
X135658189Y-90412312D01*
X135644608Y-90398731D01*
X135635827Y-90378845D01*
X135619030Y-90353706D01*
X135614359Y-90330224D01*
X135606787Y-90313075D01*
X135600964Y-90262884D01*
X135600000Y-90258035D01*
X135600000Y-89308035D01*
X135600964Y-89303185D01*
X135606787Y-89252994D01*
X135614359Y-89235843D01*
X135619030Y-89212364D01*
X135635826Y-89187226D01*
X135644608Y-89167338D01*
X135658191Y-89153754D01*
X135673223Y-89131258D01*
X135695719Y-89116226D01*
X135709303Y-89102643D01*
X135729191Y-89093861D01*
X135754329Y-89077065D01*
X135777808Y-89072394D01*
X135794959Y-89064822D01*
X135845151Y-89058999D01*
X135850000Y-89058035D01*
X136350000Y-89058035D01*
X136354850Y-89058999D01*
G37*
G36*
X138254850Y-89058999D02*
G01*
X138305040Y-89064822D01*
X138322189Y-89072394D01*
X138345671Y-89077065D01*
X138370810Y-89093862D01*
X138390696Y-89102643D01*
X138404277Y-89116224D01*
X138426777Y-89131258D01*
X138441810Y-89153757D01*
X138455391Y-89167338D01*
X138464170Y-89187221D01*
X138480970Y-89212364D01*
X138485641Y-89235847D01*
X138493212Y-89252994D01*
X138499033Y-89303174D01*
X138500000Y-89308035D01*
X138500000Y-90258035D01*
X138499032Y-90262898D01*
X138493212Y-90313075D01*
X138485641Y-90330220D01*
X138480970Y-90353706D01*
X138464169Y-90378850D01*
X138455391Y-90398731D01*
X138441812Y-90412309D01*
X138426777Y-90434812D01*
X138404274Y-90449847D01*
X138390696Y-90463426D01*
X138370815Y-90472204D01*
X138345671Y-90489005D01*
X138322185Y-90493676D01*
X138305040Y-90501247D01*
X138254861Y-90507067D01*
X138250000Y-90508035D01*
X137750000Y-90508035D01*
X137745138Y-90507067D01*
X137694959Y-90501247D01*
X137677812Y-90493676D01*
X137654329Y-90489005D01*
X137629186Y-90472205D01*
X137609303Y-90463426D01*
X137595722Y-90449845D01*
X137573223Y-90434812D01*
X137558189Y-90412312D01*
X137544608Y-90398731D01*
X137535827Y-90378845D01*
X137519030Y-90353706D01*
X137514359Y-90330224D01*
X137506787Y-90313075D01*
X137500964Y-90262884D01*
X137500000Y-90258035D01*
X137500000Y-89308035D01*
X137500964Y-89303185D01*
X137506787Y-89252994D01*
X137514359Y-89235843D01*
X137519030Y-89212364D01*
X137535826Y-89187226D01*
X137544608Y-89167338D01*
X137558191Y-89153754D01*
X137573223Y-89131258D01*
X137595719Y-89116226D01*
X137609303Y-89102643D01*
X137629191Y-89093861D01*
X137654329Y-89077065D01*
X137677808Y-89072394D01*
X137694959Y-89064822D01*
X137745151Y-89058999D01*
X137750000Y-89058035D01*
X138250000Y-89058035D01*
X138254850Y-89058999D01*
G37*
G36*
X100168681Y-89525964D02*
G01*
X100213148Y-89531123D01*
X100228341Y-89537831D01*
X100249935Y-89542127D01*
X100273053Y-89557574D01*
X100290398Y-89565233D01*
X100302243Y-89577078D01*
X100322930Y-89590901D01*
X100336752Y-89611587D01*
X100348597Y-89623432D01*
X100356254Y-89640774D01*
X100371704Y-89663896D01*
X100375999Y-89685491D01*
X100382707Y-89700682D01*
X100387864Y-89745139D01*
X100388831Y-89750000D01*
X100388831Y-90250000D01*
X100387863Y-90254862D01*
X100382707Y-90299317D01*
X100375999Y-90314506D01*
X100371704Y-90336104D01*
X100356253Y-90359227D01*
X100348597Y-90376567D01*
X100336754Y-90388409D01*
X100322930Y-90409099D01*
X100302240Y-90422923D01*
X100290398Y-90434766D01*
X100273058Y-90442422D01*
X100249935Y-90457873D01*
X100228337Y-90462168D01*
X100213148Y-90468876D01*
X100168692Y-90474032D01*
X100163831Y-90475000D01*
X99713831Y-90475000D01*
X99708969Y-90474033D01*
X99664513Y-90468876D01*
X99649322Y-90462168D01*
X99627727Y-90457873D01*
X99604605Y-90442423D01*
X99587263Y-90434766D01*
X99575418Y-90422921D01*
X99554732Y-90409099D01*
X99540909Y-90388412D01*
X99529064Y-90376567D01*
X99521405Y-90359222D01*
X99505958Y-90336104D01*
X99501662Y-90314510D01*
X99494954Y-90299317D01*
X99489795Y-90254849D01*
X99488831Y-90250000D01*
X99488831Y-89750000D01*
X99489795Y-89745150D01*
X99494954Y-89700682D01*
X99501663Y-89685487D01*
X99505958Y-89663896D01*
X99521404Y-89640779D01*
X99529064Y-89623432D01*
X99540911Y-89611584D01*
X99554732Y-89590901D01*
X99575415Y-89577080D01*
X99587263Y-89565233D01*
X99604610Y-89557573D01*
X99627727Y-89542127D01*
X99649318Y-89537832D01*
X99664513Y-89531123D01*
X99708982Y-89525964D01*
X99713831Y-89525000D01*
X100163831Y-89525000D01*
X100168681Y-89525964D01*
G37*
G36*
X101718681Y-89525964D02*
G01*
X101763148Y-89531123D01*
X101778341Y-89537831D01*
X101799935Y-89542127D01*
X101823053Y-89557574D01*
X101840398Y-89565233D01*
X101852243Y-89577078D01*
X101872930Y-89590901D01*
X101886752Y-89611587D01*
X101898597Y-89623432D01*
X101906254Y-89640774D01*
X101921704Y-89663896D01*
X101925999Y-89685491D01*
X101932707Y-89700682D01*
X101937864Y-89745139D01*
X101938831Y-89750000D01*
X101938831Y-90250000D01*
X101937863Y-90254862D01*
X101932707Y-90299317D01*
X101925999Y-90314506D01*
X101921704Y-90336104D01*
X101906253Y-90359227D01*
X101898597Y-90376567D01*
X101886754Y-90388409D01*
X101872930Y-90409099D01*
X101852240Y-90422923D01*
X101840398Y-90434766D01*
X101823058Y-90442422D01*
X101799935Y-90457873D01*
X101778337Y-90462168D01*
X101763148Y-90468876D01*
X101718692Y-90474032D01*
X101713831Y-90475000D01*
X101263831Y-90475000D01*
X101258969Y-90474033D01*
X101214513Y-90468876D01*
X101199322Y-90462168D01*
X101177727Y-90457873D01*
X101154605Y-90442423D01*
X101137263Y-90434766D01*
X101125418Y-90422921D01*
X101104732Y-90409099D01*
X101090909Y-90388412D01*
X101079064Y-90376567D01*
X101071405Y-90359222D01*
X101055958Y-90336104D01*
X101051662Y-90314510D01*
X101044954Y-90299317D01*
X101039795Y-90254849D01*
X101038831Y-90250000D01*
X101038831Y-89750000D01*
X101039795Y-89745150D01*
X101044954Y-89700682D01*
X101051663Y-89685487D01*
X101055958Y-89663896D01*
X101071404Y-89640779D01*
X101079064Y-89623432D01*
X101090911Y-89611584D01*
X101104732Y-89590901D01*
X101125415Y-89577080D01*
X101137263Y-89565233D01*
X101154610Y-89557573D01*
X101177727Y-89542127D01*
X101199318Y-89537832D01*
X101214513Y-89531123D01*
X101258982Y-89525964D01*
X101263831Y-89525000D01*
X101713831Y-89525000D01*
X101718681Y-89525964D01*
G37*
G36*
X151976163Y-90213886D02*
G01*
X150476163Y-90213886D01*
X150476163Y-89913886D01*
X151976163Y-89913886D01*
X151976163Y-90213886D01*
G37*
G36*
X200373068Y-90205000D02*
G01*
X199273068Y-90205000D01*
X199273068Y-88755000D01*
X200373068Y-88755000D01*
X200373068Y-90205000D01*
G37*
G36*
X151976163Y-89713886D02*
G01*
X150476163Y-89713886D01*
X150476163Y-89413886D01*
X151976163Y-89413886D01*
X151976163Y-89713886D01*
G37*
G36*
X94456961Y-88517236D02*
G01*
X94521845Y-88560591D01*
X94565200Y-88625475D01*
X94580424Y-88702012D01*
X94580424Y-89252012D01*
X94565200Y-89328549D01*
X94521845Y-89393433D01*
X94456961Y-89436788D01*
X94380424Y-89452012D01*
X93980424Y-89452012D01*
X93903887Y-89436788D01*
X93839003Y-89393433D01*
X93795648Y-89328549D01*
X93780424Y-89252012D01*
X93780424Y-88702012D01*
X93795648Y-88625475D01*
X93839003Y-88560591D01*
X93903887Y-88517236D01*
X93980424Y-88502012D01*
X94380424Y-88502012D01*
X94456961Y-88517236D01*
G37*
G36*
X96106961Y-88517236D02*
G01*
X96171845Y-88560591D01*
X96215200Y-88625475D01*
X96230424Y-88702012D01*
X96230424Y-89252012D01*
X96215200Y-89328549D01*
X96171845Y-89393433D01*
X96106961Y-89436788D01*
X96030424Y-89452012D01*
X95630424Y-89452012D01*
X95553887Y-89436788D01*
X95489003Y-89393433D01*
X95445648Y-89328549D01*
X95430424Y-89252012D01*
X95430424Y-88702012D01*
X95445648Y-88625475D01*
X95489003Y-88560591D01*
X95553887Y-88517236D01*
X95630424Y-88502012D01*
X96030424Y-88502012D01*
X96106961Y-88517236D01*
G37*
G36*
X151976163Y-89213886D02*
G01*
X150476163Y-89213886D01*
X150476163Y-88913886D01*
X151976163Y-88913886D01*
X151976163Y-89213886D01*
G37*
G36*
X151976163Y-88713886D02*
G01*
X150476163Y-88713886D01*
X150476163Y-88413886D01*
X151976163Y-88413886D01*
X151976163Y-88713886D01*
G37*
G36*
X151976163Y-88213886D02*
G01*
X150476163Y-88213886D01*
X150476163Y-87913886D01*
X151976163Y-87913886D01*
X151976163Y-88213886D01*
G37*
G36*
X151976163Y-87713886D02*
G01*
X150476163Y-87713886D01*
X150476163Y-87413886D01*
X151976163Y-87413886D01*
X151976163Y-87713886D01*
G37*
G36*
X101450000Y-87550000D02*
G01*
X100550000Y-87550000D01*
X100550000Y-86050000D01*
X101450000Y-86050000D01*
X101450000Y-87550000D01*
G37*
G36*
X102720000Y-87550000D02*
G01*
X101820000Y-87550000D01*
X101820000Y-86050000D01*
X102720000Y-86050000D01*
X102720000Y-87550000D01*
G37*
G36*
X103990000Y-87550000D02*
G01*
X103090000Y-87550000D01*
X103090000Y-86050000D01*
X103990000Y-86050000D01*
X103990000Y-87550000D01*
G37*
G36*
X105260000Y-87550000D02*
G01*
X104360000Y-87550000D01*
X104360000Y-86050000D01*
X105260000Y-86050000D01*
X105260000Y-87550000D01*
G37*
G36*
X106530000Y-87550000D02*
G01*
X105630000Y-87550000D01*
X105630000Y-86050000D01*
X106530000Y-86050000D01*
X106530000Y-87550000D01*
G37*
G36*
X107800000Y-87550000D02*
G01*
X106900000Y-87550000D01*
X106900000Y-86050000D01*
X107800000Y-86050000D01*
X107800000Y-87550000D01*
G37*
G36*
X109070000Y-87550000D02*
G01*
X108170000Y-87550000D01*
X108170000Y-86050000D01*
X109070000Y-86050000D01*
X109070000Y-87550000D01*
G37*
G36*
X110340000Y-87550000D02*
G01*
X109440000Y-87550000D01*
X109440000Y-86050000D01*
X110340000Y-86050000D01*
X110340000Y-87550000D01*
G37*
G36*
X111610000Y-87550000D02*
G01*
X110710000Y-87550000D01*
X110710000Y-86050000D01*
X111610000Y-86050000D01*
X111610000Y-87550000D01*
G37*
G36*
X112880000Y-87550000D02*
G01*
X111980000Y-87550000D01*
X111980000Y-86050000D01*
X112880000Y-86050000D01*
X112880000Y-87550000D01*
G37*
G36*
X114150000Y-87550000D02*
G01*
X113250000Y-87550000D01*
X113250000Y-86050000D01*
X114150000Y-86050000D01*
X114150000Y-87550000D01*
G37*
G36*
X115420000Y-87550000D02*
G01*
X114520000Y-87550000D01*
X114520000Y-86050000D01*
X115420000Y-86050000D01*
X115420000Y-87550000D01*
G37*
G36*
X116690000Y-87550000D02*
G01*
X115790000Y-87550000D01*
X115790000Y-86050000D01*
X116690000Y-86050000D01*
X116690000Y-87550000D01*
G37*
G36*
X117960000Y-87550000D02*
G01*
X117060000Y-87550000D01*
X117060000Y-86050000D01*
X117960000Y-86050000D01*
X117960000Y-87550000D01*
G37*
G36*
X151976163Y-87213886D02*
G01*
X150476163Y-87213886D01*
X150476163Y-86913886D01*
X151976163Y-86913886D01*
X151976163Y-87213886D01*
G37*
G36*
X151976163Y-86713886D02*
G01*
X150476163Y-86713886D01*
X150476163Y-86413886D01*
X151976163Y-86413886D01*
X151976163Y-86713886D01*
G37*
G36*
X140625000Y-86300000D02*
G01*
X139375000Y-86300000D01*
X139375000Y-85600000D01*
X140625000Y-85600000D01*
X140625000Y-86300000D01*
G37*
G36*
X151976163Y-86213886D02*
G01*
X150476163Y-86213886D01*
X150476163Y-85913886D01*
X151976163Y-85913886D01*
X151976163Y-86213886D01*
G37*
G36*
X151976163Y-85713886D02*
G01*
X150476163Y-85713886D01*
X150476163Y-85413886D01*
X151976163Y-85413886D01*
X151976163Y-85713886D01*
G37*
G36*
X200373068Y-85645000D02*
G01*
X199273068Y-85645000D01*
X199273068Y-84195000D01*
X200373068Y-84195000D01*
X200373068Y-85645000D01*
G37*
G36*
X136354850Y-84116743D02*
G01*
X136405040Y-84122566D01*
X136422189Y-84130138D01*
X136445671Y-84134809D01*
X136470810Y-84151606D01*
X136490696Y-84160387D01*
X136504277Y-84173968D01*
X136526777Y-84189002D01*
X136541810Y-84211501D01*
X136555391Y-84225082D01*
X136564170Y-84244965D01*
X136580970Y-84270108D01*
X136585641Y-84293591D01*
X136593212Y-84310738D01*
X136599033Y-84360918D01*
X136600000Y-84365779D01*
X136600000Y-85315779D01*
X136599032Y-85320642D01*
X136593212Y-85370819D01*
X136585641Y-85387964D01*
X136580970Y-85411450D01*
X136564169Y-85436594D01*
X136555391Y-85456475D01*
X136541812Y-85470053D01*
X136526777Y-85492556D01*
X136504274Y-85507591D01*
X136490696Y-85521170D01*
X136470815Y-85529948D01*
X136445671Y-85546749D01*
X136422185Y-85551420D01*
X136405040Y-85558991D01*
X136354861Y-85564811D01*
X136350000Y-85565779D01*
X135850000Y-85565779D01*
X135845138Y-85564811D01*
X135794959Y-85558991D01*
X135777812Y-85551420D01*
X135754329Y-85546749D01*
X135729186Y-85529949D01*
X135709303Y-85521170D01*
X135695722Y-85507589D01*
X135673223Y-85492556D01*
X135658189Y-85470056D01*
X135644608Y-85456475D01*
X135635827Y-85436589D01*
X135619030Y-85411450D01*
X135614359Y-85387968D01*
X135606787Y-85370819D01*
X135600964Y-85320628D01*
X135600000Y-85315779D01*
X135600000Y-84365779D01*
X135600964Y-84360929D01*
X135606787Y-84310738D01*
X135614359Y-84293587D01*
X135619030Y-84270108D01*
X135635826Y-84244970D01*
X135644608Y-84225082D01*
X135658191Y-84211498D01*
X135673223Y-84189002D01*
X135695719Y-84173970D01*
X135709303Y-84160387D01*
X135729191Y-84151605D01*
X135754329Y-84134809D01*
X135777808Y-84130138D01*
X135794959Y-84122566D01*
X135845151Y-84116743D01*
X135850000Y-84115779D01*
X136350000Y-84115779D01*
X136354850Y-84116743D01*
G37*
G36*
X138254850Y-84116743D02*
G01*
X138305040Y-84122566D01*
X138322189Y-84130138D01*
X138345671Y-84134809D01*
X138370810Y-84151606D01*
X138390696Y-84160387D01*
X138404277Y-84173968D01*
X138426777Y-84189002D01*
X138441810Y-84211501D01*
X138455391Y-84225082D01*
X138464170Y-84244965D01*
X138480970Y-84270108D01*
X138485641Y-84293591D01*
X138493212Y-84310738D01*
X138499033Y-84360918D01*
X138500000Y-84365779D01*
X138500000Y-85315779D01*
X138499032Y-85320642D01*
X138493212Y-85370819D01*
X138485641Y-85387964D01*
X138480970Y-85411450D01*
X138464169Y-85436594D01*
X138455391Y-85456475D01*
X138441812Y-85470053D01*
X138426777Y-85492556D01*
X138404274Y-85507591D01*
X138390696Y-85521170D01*
X138370815Y-85529948D01*
X138345671Y-85546749D01*
X138322185Y-85551420D01*
X138305040Y-85558991D01*
X138254861Y-85564811D01*
X138250000Y-85565779D01*
X137750000Y-85565779D01*
X137745138Y-85564811D01*
X137694959Y-85558991D01*
X137677812Y-85551420D01*
X137654329Y-85546749D01*
X137629186Y-85529949D01*
X137609303Y-85521170D01*
X137595722Y-85507589D01*
X137573223Y-85492556D01*
X137558189Y-85470056D01*
X137544608Y-85456475D01*
X137535827Y-85436589D01*
X137519030Y-85411450D01*
X137514359Y-85387968D01*
X137506787Y-85370819D01*
X137500964Y-85320628D01*
X137500000Y-85315779D01*
X137500000Y-84365779D01*
X137500964Y-84360929D01*
X137506787Y-84310738D01*
X137514359Y-84293587D01*
X137519030Y-84270108D01*
X137535826Y-84244970D01*
X137544608Y-84225082D01*
X137558191Y-84211498D01*
X137573223Y-84189002D01*
X137595719Y-84173970D01*
X137609303Y-84160387D01*
X137629191Y-84151605D01*
X137654329Y-84134809D01*
X137677808Y-84130138D01*
X137694959Y-84122566D01*
X137745151Y-84116743D01*
X137750000Y-84115779D01*
X138250000Y-84115779D01*
X138254850Y-84116743D01*
G37*
G36*
X142625000Y-85350000D02*
G01*
X141375000Y-85350000D01*
X141375000Y-84650000D01*
X142625000Y-84650000D01*
X142625000Y-85350000D01*
G37*
G36*
X119650000Y-85330000D02*
G01*
X118150000Y-85330000D01*
X118150000Y-84430000D01*
X119650000Y-84430000D01*
X119650000Y-85330000D01*
G37*
G36*
X151976163Y-85213886D02*
G01*
X150476163Y-85213886D01*
X150476163Y-84913886D01*
X151976163Y-84913886D01*
X151976163Y-85213886D01*
G37*
G36*
X151976163Y-84713886D02*
G01*
X150476163Y-84713886D01*
X150476163Y-84413886D01*
X151976163Y-84413886D01*
X151976163Y-84713886D01*
G37*
G36*
X144679850Y-83525964D02*
G01*
X144724317Y-83531123D01*
X144739510Y-83537831D01*
X144761104Y-83542127D01*
X144784222Y-83557574D01*
X144801567Y-83565233D01*
X144813412Y-83577078D01*
X144834099Y-83590901D01*
X144847921Y-83611587D01*
X144859766Y-83623432D01*
X144867423Y-83640774D01*
X144882873Y-83663896D01*
X144887168Y-83685491D01*
X144893876Y-83700682D01*
X144899033Y-83745139D01*
X144900000Y-83750000D01*
X144900000Y-84250000D01*
X144899032Y-84254862D01*
X144893876Y-84299317D01*
X144887168Y-84314506D01*
X144882873Y-84336104D01*
X144867422Y-84359227D01*
X144859766Y-84376567D01*
X144847923Y-84388409D01*
X144834099Y-84409099D01*
X144813409Y-84422923D01*
X144801567Y-84434766D01*
X144784227Y-84442422D01*
X144761104Y-84457873D01*
X144739506Y-84462168D01*
X144724317Y-84468876D01*
X144679861Y-84474032D01*
X144675000Y-84475000D01*
X144225000Y-84475000D01*
X144220138Y-84474033D01*
X144175682Y-84468876D01*
X144160491Y-84462168D01*
X144138896Y-84457873D01*
X144115774Y-84442423D01*
X144098432Y-84434766D01*
X144086587Y-84422921D01*
X144065901Y-84409099D01*
X144052078Y-84388412D01*
X144040233Y-84376567D01*
X144032574Y-84359222D01*
X144017127Y-84336104D01*
X144012831Y-84314510D01*
X144006123Y-84299317D01*
X144000964Y-84254849D01*
X144000000Y-84250000D01*
X144000000Y-83750000D01*
X144000964Y-83745150D01*
X144006123Y-83700682D01*
X144012832Y-83685487D01*
X144017127Y-83663896D01*
X144032573Y-83640779D01*
X144040233Y-83623432D01*
X144052080Y-83611584D01*
X144065901Y-83590901D01*
X144086584Y-83577080D01*
X144098432Y-83565233D01*
X144115779Y-83557573D01*
X144138896Y-83542127D01*
X144160487Y-83537832D01*
X144175682Y-83531123D01*
X144220151Y-83525964D01*
X144225000Y-83525000D01*
X144675000Y-83525000D01*
X144679850Y-83525964D01*
G37*
G36*
X146229850Y-83525964D02*
G01*
X146274317Y-83531123D01*
X146289510Y-83537831D01*
X146311104Y-83542127D01*
X146334222Y-83557574D01*
X146351567Y-83565233D01*
X146363412Y-83577078D01*
X146384099Y-83590901D01*
X146397921Y-83611587D01*
X146409766Y-83623432D01*
X146417423Y-83640774D01*
X146432873Y-83663896D01*
X146437168Y-83685491D01*
X146443876Y-83700682D01*
X146449033Y-83745139D01*
X146450000Y-83750000D01*
X146450000Y-84250000D01*
X146449032Y-84254862D01*
X146443876Y-84299317D01*
X146437168Y-84314506D01*
X146432873Y-84336104D01*
X146417422Y-84359227D01*
X146409766Y-84376567D01*
X146397923Y-84388409D01*
X146384099Y-84409099D01*
X146363409Y-84422923D01*
X146351567Y-84434766D01*
X146334227Y-84442422D01*
X146311104Y-84457873D01*
X146289506Y-84462168D01*
X146274317Y-84468876D01*
X146229861Y-84474032D01*
X146225000Y-84475000D01*
X145775000Y-84475000D01*
X145770138Y-84474033D01*
X145725682Y-84468876D01*
X145710491Y-84462168D01*
X145688896Y-84457873D01*
X145665774Y-84442423D01*
X145648432Y-84434766D01*
X145636587Y-84422921D01*
X145615901Y-84409099D01*
X145602078Y-84388412D01*
X145590233Y-84376567D01*
X145582574Y-84359222D01*
X145567127Y-84336104D01*
X145562831Y-84314510D01*
X145556123Y-84299317D01*
X145550964Y-84254849D01*
X145550000Y-84250000D01*
X145550000Y-83750000D01*
X145550964Y-83745150D01*
X145556123Y-83700682D01*
X145562832Y-83685487D01*
X145567127Y-83663896D01*
X145582573Y-83640779D01*
X145590233Y-83623432D01*
X145602080Y-83611584D01*
X145615901Y-83590901D01*
X145636584Y-83577080D01*
X145648432Y-83565233D01*
X145665779Y-83557573D01*
X145688896Y-83542127D01*
X145710487Y-83537832D01*
X145725682Y-83531123D01*
X145770151Y-83525964D01*
X145775000Y-83525000D01*
X146225000Y-83525000D01*
X146229850Y-83525964D01*
G37*
G36*
X140625000Y-84400000D02*
G01*
X139375000Y-84400000D01*
X139375000Y-83700000D01*
X140625000Y-83700000D01*
X140625000Y-84400000D01*
G37*
G36*
X201963068Y-84300000D02*
G01*
X201163068Y-84300000D01*
X201163068Y-83700000D01*
X201963068Y-83700000D01*
X201963068Y-84300000D01*
G37*
G36*
X151976163Y-84213886D02*
G01*
X150476163Y-84213886D01*
X150476163Y-83913886D01*
X151976163Y-83913886D01*
X151976163Y-84213886D01*
G37*
G36*
X119650000Y-84060000D02*
G01*
X118150000Y-84060000D01*
X118150000Y-83160000D01*
X119650000Y-83160000D01*
X119650000Y-84060000D01*
G37*
G36*
X151976163Y-83713886D02*
G01*
X150476163Y-83713886D01*
X150476163Y-83413886D01*
X151976163Y-83413886D01*
X151976163Y-83713886D01*
G37*
G36*
X151976163Y-83213886D02*
G01*
X150476163Y-83213886D01*
X150476163Y-82913886D01*
X151976163Y-82913886D01*
X151976163Y-83213886D01*
G37*
G36*
X119650000Y-82790000D02*
G01*
X118150000Y-82790000D01*
X118150000Y-81890000D01*
X119650000Y-81890000D01*
X119650000Y-82790000D01*
G37*
G36*
X151976163Y-82713886D02*
G01*
X150476163Y-82713886D01*
X150476163Y-82413886D01*
X151976163Y-82413886D01*
X151976163Y-82713886D01*
G37*
G36*
X136501537Y-81381003D02*
G01*
X136566421Y-81424358D01*
X136609776Y-81489242D01*
X136625000Y-81565779D01*
X136625000Y-82115779D01*
X136609776Y-82192316D01*
X136566421Y-82257200D01*
X136501537Y-82300555D01*
X136425000Y-82315779D01*
X136025000Y-82315779D01*
X135948463Y-82300555D01*
X135883579Y-82257200D01*
X135840224Y-82192316D01*
X135825000Y-82115779D01*
X135825000Y-81565779D01*
X135840224Y-81489242D01*
X135883579Y-81424358D01*
X135948463Y-81381003D01*
X136025000Y-81365779D01*
X136425000Y-81365779D01*
X136501537Y-81381003D01*
G37*
G36*
X138151537Y-81381003D02*
G01*
X138216421Y-81424358D01*
X138259776Y-81489242D01*
X138275000Y-81565779D01*
X138275000Y-82115779D01*
X138259776Y-82192316D01*
X138216421Y-82257200D01*
X138151537Y-82300555D01*
X138075000Y-82315779D01*
X137675000Y-82315779D01*
X137598463Y-82300555D01*
X137533579Y-82257200D01*
X137490224Y-82192316D01*
X137475000Y-82115779D01*
X137475000Y-81565779D01*
X137490224Y-81489242D01*
X137533579Y-81424358D01*
X137598463Y-81381003D01*
X137675000Y-81365779D01*
X138075000Y-81365779D01*
X138151537Y-81381003D01*
G37*
G36*
X151976163Y-82213886D02*
G01*
X150476163Y-82213886D01*
X150476163Y-81913886D01*
X151976163Y-81913886D01*
X151976163Y-82213886D01*
G37*
G36*
X151976163Y-81713886D02*
G01*
X150476163Y-81713886D01*
X150476163Y-81413886D01*
X151976163Y-81413886D01*
X151976163Y-81713886D01*
G37*
G36*
X119650000Y-81520000D02*
G01*
X118150000Y-81520000D01*
X118150000Y-80620000D01*
X119650000Y-80620000D01*
X119650000Y-81520000D01*
G37*
G36*
X107760000Y-81250000D02*
G01*
X106860000Y-81250000D01*
X106860000Y-80350000D01*
X107760000Y-80350000D01*
X107760000Y-81250000D01*
G37*
G36*
X109160000Y-81250000D02*
G01*
X108260000Y-81250000D01*
X108260000Y-80350000D01*
X109160000Y-80350000D01*
X109160000Y-81250000D01*
G37*
G36*
X110560000Y-81250000D02*
G01*
X109660000Y-81250000D01*
X109660000Y-80350000D01*
X110560000Y-80350000D01*
X110560000Y-81250000D01*
G37*
G36*
X151976163Y-81213886D02*
G01*
X150476163Y-81213886D01*
X150476163Y-80913886D01*
X151976163Y-80913886D01*
X151976163Y-81213886D01*
G37*
G36*
X151976163Y-80713886D02*
G01*
X150476163Y-80713886D01*
X150476163Y-80413886D01*
X151976163Y-80413886D01*
X151976163Y-80713886D01*
G37*
G36*
X136501537Y-79334383D02*
G01*
X136566421Y-79377738D01*
X136609776Y-79442622D01*
X136625000Y-79519159D01*
X136625000Y-80069159D01*
X136609776Y-80145696D01*
X136566421Y-80210580D01*
X136501537Y-80253935D01*
X136425000Y-80269159D01*
X136025000Y-80269159D01*
X135948463Y-80253935D01*
X135883579Y-80210580D01*
X135840224Y-80145696D01*
X135825000Y-80069159D01*
X135825000Y-79519159D01*
X135840224Y-79442622D01*
X135883579Y-79377738D01*
X135948463Y-79334383D01*
X136025000Y-79319159D01*
X136425000Y-79319159D01*
X136501537Y-79334383D01*
G37*
G36*
X138151537Y-79334383D02*
G01*
X138216421Y-79377738D01*
X138259776Y-79442622D01*
X138275000Y-79519159D01*
X138275000Y-80069159D01*
X138259776Y-80145696D01*
X138216421Y-80210580D01*
X138151537Y-80253935D01*
X138075000Y-80269159D01*
X137675000Y-80269159D01*
X137598463Y-80253935D01*
X137533579Y-80210580D01*
X137490224Y-80145696D01*
X137475000Y-80069159D01*
X137475000Y-79519159D01*
X137490224Y-79442622D01*
X137533579Y-79377738D01*
X137598463Y-79334383D01*
X137675000Y-79319159D01*
X138075000Y-79319159D01*
X138151537Y-79334383D01*
G37*
G36*
X119650000Y-80250000D02*
G01*
X118150000Y-80250000D01*
X118150000Y-79350000D01*
X119650000Y-79350000D01*
X119650000Y-80250000D01*
G37*
G36*
X139980350Y-79292840D02*
G01*
X140045234Y-79336195D01*
X140088589Y-79401079D01*
X140103813Y-79477616D01*
X140103813Y-80027616D01*
X140088589Y-80104153D01*
X140045234Y-80169037D01*
X139980350Y-80212392D01*
X139903813Y-80227616D01*
X139503813Y-80227616D01*
X139427276Y-80212392D01*
X139362392Y-80169037D01*
X139319037Y-80104153D01*
X139303813Y-80027616D01*
X139303813Y-79477616D01*
X139319037Y-79401079D01*
X139362392Y-79336195D01*
X139427276Y-79292840D01*
X139503813Y-79277616D01*
X139903813Y-79277616D01*
X139980350Y-79292840D01*
G37*
G36*
X141630350Y-79292840D02*
G01*
X141695234Y-79336195D01*
X141738589Y-79401079D01*
X141753813Y-79477616D01*
X141753813Y-80027616D01*
X141738589Y-80104153D01*
X141695234Y-80169037D01*
X141630350Y-80212392D01*
X141553813Y-80227616D01*
X141153813Y-80227616D01*
X141077276Y-80212392D01*
X141012392Y-80169037D01*
X140969037Y-80104153D01*
X140953813Y-80027616D01*
X140953813Y-79477616D01*
X140969037Y-79401079D01*
X141012392Y-79336195D01*
X141077276Y-79292840D01*
X141153813Y-79277616D01*
X141553813Y-79277616D01*
X141630350Y-79292840D01*
G37*
G36*
X151976163Y-80213886D02*
G01*
X150476163Y-80213886D01*
X150476163Y-79913886D01*
X151976163Y-79913886D01*
X151976163Y-80213886D01*
G37*
G36*
X107760000Y-79850000D02*
G01*
X106860000Y-79850000D01*
X106860000Y-78950000D01*
X107760000Y-78950000D01*
X107760000Y-79850000D01*
G37*
G36*
X109160000Y-79850000D02*
G01*
X108260000Y-79850000D01*
X108260000Y-78950000D01*
X109160000Y-78950000D01*
X109160000Y-79850000D01*
G37*
G36*
X110560000Y-79850000D02*
G01*
X109660000Y-79850000D01*
X109660000Y-78950000D01*
X110560000Y-78950000D01*
X110560000Y-79850000D01*
G37*
G36*
X151976163Y-79713886D02*
G01*
X150476163Y-79713886D01*
X150476163Y-79413886D01*
X151976163Y-79413886D01*
X151976163Y-79713886D01*
G37*
G36*
X182900000Y-79700000D02*
G01*
X181700000Y-79700000D01*
X181700000Y-77500000D01*
X182900000Y-77500000D01*
X182900000Y-79700000D01*
G37*
G36*
X198400000Y-79700000D02*
G01*
X197200000Y-79700000D01*
X197200000Y-77500000D01*
X198400000Y-77500000D01*
X198400000Y-79700000D01*
G37*
G36*
X185136550Y-78404812D02*
G01*
X185172267Y-78404812D01*
X185213221Y-78414906D01*
X185255291Y-78420445D01*
X185284088Y-78432373D01*
X185312610Y-78439403D01*
X185355854Y-78462099D01*
X185400000Y-78480385D01*
X185420140Y-78495839D01*
X185440586Y-78506570D01*
X185482388Y-78543603D01*
X185524264Y-78575736D01*
X185536165Y-78591246D01*
X185548778Y-78602420D01*
X185584943Y-78654815D01*
X185619615Y-78700000D01*
X185624841Y-78712617D01*
X185630882Y-78721369D01*
X185657089Y-78790471D01*
X185679555Y-78844709D01*
X185680563Y-78852366D01*
X185682136Y-78856514D01*
X185694316Y-78956829D01*
X185700000Y-79000000D01*
X185694313Y-79043190D01*
X185682136Y-79143485D01*
X185680563Y-79147631D01*
X185679555Y-79155291D01*
X185657084Y-79209539D01*
X185630882Y-79278630D01*
X185624842Y-79287380D01*
X185619615Y-79300000D01*
X185584936Y-79345193D01*
X185548778Y-79397579D01*
X185536167Y-79408750D01*
X185524264Y-79424264D01*
X185482379Y-79456402D01*
X185440586Y-79493429D01*
X185420144Y-79504157D01*
X185400000Y-79519615D01*
X185355845Y-79537904D01*
X185312610Y-79560596D01*
X185284092Y-79567624D01*
X185255291Y-79579555D01*
X185213219Y-79585093D01*
X185172267Y-79595188D01*
X185136550Y-79595188D01*
X185100000Y-79600000D01*
X185063450Y-79595188D01*
X185027733Y-79595188D01*
X184986780Y-79585093D01*
X184944709Y-79579555D01*
X184915908Y-79567625D01*
X184887389Y-79560596D01*
X184844149Y-79537902D01*
X184800000Y-79519615D01*
X184779857Y-79504159D01*
X184759413Y-79493429D01*
X184717612Y-79456397D01*
X184675736Y-79424264D01*
X184663834Y-79408753D01*
X184651221Y-79397579D01*
X184615053Y-79345180D01*
X184580385Y-79300000D01*
X184575159Y-79287383D01*
X184569117Y-79278630D01*
X184542903Y-79209510D01*
X184520445Y-79155291D01*
X184519437Y-79147635D01*
X184517863Y-79143485D01*
X184505672Y-79043084D01*
X184500000Y-79000000D01*
X184505671Y-78956919D01*
X184517863Y-78856514D01*
X184519437Y-78852362D01*
X184520445Y-78844709D01*
X184542898Y-78790500D01*
X184569117Y-78721369D01*
X184575160Y-78712613D01*
X184580385Y-78700000D01*
X184615046Y-78654828D01*
X184651221Y-78602420D01*
X184663836Y-78591243D01*
X184675736Y-78575736D01*
X184717604Y-78543609D01*
X184759413Y-78506570D01*
X184779861Y-78495837D01*
X184800000Y-78480385D01*
X184844140Y-78462101D01*
X184887389Y-78439403D01*
X184915913Y-78432372D01*
X184944709Y-78420445D01*
X184986777Y-78414906D01*
X185027733Y-78404812D01*
X185063450Y-78404812D01*
X185100000Y-78400000D01*
X185136550Y-78404812D01*
G37*
G36*
X193136550Y-78404812D02*
G01*
X193172267Y-78404812D01*
X193213221Y-78414906D01*
X193255291Y-78420445D01*
X193284088Y-78432373D01*
X193312610Y-78439403D01*
X193355854Y-78462099D01*
X193400000Y-78480385D01*
X193420140Y-78495839D01*
X193440586Y-78506570D01*
X193482388Y-78543603D01*
X193524264Y-78575736D01*
X193536165Y-78591246D01*
X193548778Y-78602420D01*
X193584943Y-78654815D01*
X193619615Y-78700000D01*
X193624841Y-78712617D01*
X193630882Y-78721369D01*
X193657089Y-78790471D01*
X193679555Y-78844709D01*
X193680563Y-78852366D01*
X193682136Y-78856514D01*
X193694316Y-78956829D01*
X193700000Y-79000000D01*
X193694313Y-79043190D01*
X193682136Y-79143485D01*
X193680563Y-79147631D01*
X193679555Y-79155291D01*
X193657084Y-79209539D01*
X193630882Y-79278630D01*
X193624842Y-79287380D01*
X193619615Y-79300000D01*
X193584936Y-79345193D01*
X193548778Y-79397579D01*
X193536167Y-79408750D01*
X193524264Y-79424264D01*
X193482379Y-79456402D01*
X193440586Y-79493429D01*
X193420144Y-79504157D01*
X193400000Y-79519615D01*
X193355845Y-79537904D01*
X193312610Y-79560596D01*
X193284092Y-79567624D01*
X193255291Y-79579555D01*
X193213219Y-79585093D01*
X193172267Y-79595188D01*
X193136550Y-79595188D01*
X193100000Y-79600000D01*
X193063450Y-79595188D01*
X193027733Y-79595188D01*
X192986780Y-79585093D01*
X192944709Y-79579555D01*
X192915908Y-79567625D01*
X192887389Y-79560596D01*
X192844149Y-79537902D01*
X192800000Y-79519615D01*
X192779857Y-79504159D01*
X192759413Y-79493429D01*
X192717612Y-79456397D01*
X192675736Y-79424264D01*
X192663834Y-79408753D01*
X192651221Y-79397579D01*
X192615053Y-79345180D01*
X192580385Y-79300000D01*
X192575159Y-79287383D01*
X192569117Y-79278630D01*
X192542903Y-79209510D01*
X192520445Y-79155291D01*
X192519437Y-79147635D01*
X192517863Y-79143485D01*
X192505672Y-79043084D01*
X192500000Y-79000000D01*
X192505671Y-78956919D01*
X192517863Y-78856514D01*
X192519437Y-78852362D01*
X192520445Y-78844709D01*
X192542898Y-78790500D01*
X192569117Y-78721369D01*
X192575160Y-78712613D01*
X192580385Y-78700000D01*
X192615046Y-78654828D01*
X192651221Y-78602420D01*
X192663836Y-78591243D01*
X192675736Y-78575736D01*
X192717604Y-78543609D01*
X192759413Y-78506570D01*
X192779861Y-78495837D01*
X192800000Y-78480385D01*
X192844140Y-78462101D01*
X192887389Y-78439403D01*
X192915913Y-78432372D01*
X192944709Y-78420445D01*
X192986777Y-78414906D01*
X193027733Y-78404812D01*
X193063450Y-78404812D01*
X193100000Y-78400000D01*
X193136550Y-78404812D01*
G37*
G36*
X151976163Y-79213886D02*
G01*
X150476163Y-79213886D01*
X150476163Y-78913886D01*
X151976163Y-78913886D01*
X151976163Y-79213886D01*
G37*
G36*
X119650000Y-78980000D02*
G01*
X118150000Y-78980000D01*
X118150000Y-78080000D01*
X119650000Y-78080000D01*
X119650000Y-78980000D01*
G37*
G36*
X151976163Y-78713886D02*
G01*
X150476163Y-78713886D01*
X150476163Y-78413886D01*
X151976163Y-78413886D01*
X151976163Y-78713886D01*
G37*
G36*
X107760000Y-78450000D02*
G01*
X106860000Y-78450000D01*
X106860000Y-77550000D01*
X107760000Y-77550000D01*
X107760000Y-78450000D01*
G37*
G36*
X109160000Y-78450000D02*
G01*
X108260000Y-78450000D01*
X108260000Y-77550000D01*
X109160000Y-77550000D01*
X109160000Y-78450000D01*
G37*
G36*
X110560000Y-78450000D02*
G01*
X109660000Y-78450000D01*
X109660000Y-77550000D01*
X110560000Y-77550000D01*
X110560000Y-78450000D01*
G37*
G36*
X151976163Y-78213886D02*
G01*
X150476163Y-78213886D01*
X150476163Y-77913886D01*
X151976163Y-77913886D01*
X151976163Y-78213886D01*
G37*
G36*
X138657500Y-78190779D02*
G01*
X137407500Y-78190779D01*
X137407500Y-77490779D01*
X138657500Y-77490779D01*
X138657500Y-78190779D01*
G37*
G36*
X151976163Y-77713886D02*
G01*
X150476163Y-77713886D01*
X150476163Y-77413886D01*
X151976163Y-77413886D01*
X151976163Y-77713886D01*
G37*
G36*
X119650000Y-77710000D02*
G01*
X118150000Y-77710000D01*
X118150000Y-76810000D01*
X119650000Y-76810000D01*
X119650000Y-77710000D01*
G37*
G36*
X136657500Y-77240779D02*
G01*
X135407500Y-77240779D01*
X135407500Y-76540779D01*
X136657500Y-76540779D01*
X136657500Y-77240779D01*
G37*
G36*
X151976163Y-77213886D02*
G01*
X150476163Y-77213886D01*
X150476163Y-76913886D01*
X151976163Y-76913886D01*
X151976163Y-77213886D01*
G37*
G36*
X151976163Y-76713886D02*
G01*
X150476163Y-76713886D01*
X150476163Y-76413886D01*
X151976163Y-76413886D01*
X151976163Y-76713886D01*
G37*
G36*
X119650000Y-76440000D02*
G01*
X118150000Y-76440000D01*
X118150000Y-75540000D01*
X119650000Y-75540000D01*
X119650000Y-76440000D01*
G37*
G36*
X138657500Y-76290779D02*
G01*
X137407500Y-76290779D01*
X137407500Y-75590779D01*
X138657500Y-75590779D01*
X138657500Y-76290779D01*
G37*
G36*
X151976163Y-76213886D02*
G01*
X150476163Y-76213886D01*
X150476163Y-75913886D01*
X151976163Y-75913886D01*
X151976163Y-76213886D01*
G37*
G36*
X144465478Y-75007585D02*
G01*
X144530362Y-75050940D01*
X144573717Y-75115824D01*
X144588941Y-75192361D01*
X144588941Y-75742361D01*
X144573717Y-75818898D01*
X144530362Y-75883782D01*
X144465478Y-75927137D01*
X144388941Y-75942361D01*
X143988941Y-75942361D01*
X143912404Y-75927137D01*
X143847520Y-75883782D01*
X143804165Y-75818898D01*
X143788941Y-75742361D01*
X143788941Y-75192361D01*
X143804165Y-75115824D01*
X143847520Y-75050940D01*
X143912404Y-75007585D01*
X143988941Y-74992361D01*
X144388941Y-74992361D01*
X144465478Y-75007585D01*
G37*
G36*
X146115478Y-75007585D02*
G01*
X146180362Y-75050940D01*
X146223717Y-75115824D01*
X146238941Y-75192361D01*
X146238941Y-75742361D01*
X146223717Y-75818898D01*
X146180362Y-75883782D01*
X146115478Y-75927137D01*
X146038941Y-75942361D01*
X145638941Y-75942361D01*
X145562404Y-75927137D01*
X145497520Y-75883782D01*
X145454165Y-75818898D01*
X145438941Y-75742361D01*
X145438941Y-75192361D01*
X145454165Y-75115824D01*
X145497520Y-75050940D01*
X145562404Y-75007585D01*
X145638941Y-74992361D01*
X146038941Y-74992361D01*
X146115478Y-75007585D01*
G37*
G36*
X140626537Y-74980514D02*
G01*
X140691421Y-75023869D01*
X140734776Y-75088753D01*
X140750000Y-75165290D01*
X140750000Y-75715290D01*
X140734776Y-75791827D01*
X140691421Y-75856711D01*
X140626537Y-75900066D01*
X140550000Y-75915290D01*
X140150000Y-75915290D01*
X140073463Y-75900066D01*
X140008579Y-75856711D01*
X139965224Y-75791827D01*
X139950000Y-75715290D01*
X139950000Y-75165290D01*
X139965224Y-75088753D01*
X140008579Y-75023869D01*
X140073463Y-74980514D01*
X140150000Y-74965290D01*
X140550000Y-74965290D01*
X140626537Y-74980514D01*
G37*
G36*
X142276537Y-74980514D02*
G01*
X142341421Y-75023869D01*
X142384776Y-75088753D01*
X142400000Y-75165290D01*
X142400000Y-75715290D01*
X142384776Y-75791827D01*
X142341421Y-75856711D01*
X142276537Y-75900066D01*
X142200000Y-75915290D01*
X141800000Y-75915290D01*
X141723463Y-75900066D01*
X141658579Y-75856711D01*
X141615224Y-75791827D01*
X141600000Y-75715290D01*
X141600000Y-75165290D01*
X141615224Y-75088753D01*
X141658579Y-75023869D01*
X141723463Y-74980514D01*
X141800000Y-74965290D01*
X142200000Y-74965290D01*
X142276537Y-74980514D01*
G37*
G36*
X151976163Y-75713886D02*
G01*
X150476163Y-75713886D01*
X150476163Y-75413886D01*
X151976163Y-75413886D01*
X151976163Y-75713886D01*
G37*
G36*
X202030313Y-75578218D02*
G01*
X201230313Y-75578218D01*
X201230313Y-74978218D01*
X202030313Y-74978218D01*
X202030313Y-75578218D01*
G37*
G36*
X151976163Y-75213886D02*
G01*
X150476163Y-75213886D01*
X150476163Y-74913886D01*
X151976163Y-74913886D01*
X151976163Y-75213886D01*
G37*
G36*
X119650000Y-75170000D02*
G01*
X118150000Y-75170000D01*
X118150000Y-74270000D01*
X119650000Y-74270000D01*
X119650000Y-75170000D01*
G37*
G36*
X200440313Y-75083218D02*
G01*
X199340313Y-75083218D01*
X199340313Y-73633218D01*
X200440313Y-73633218D01*
X200440313Y-75083218D01*
G37*
G36*
X151976163Y-74713886D02*
G01*
X150476163Y-74713886D01*
X150476163Y-74413886D01*
X151976163Y-74413886D01*
X151976163Y-74713886D01*
G37*
G36*
X151976163Y-74213886D02*
G01*
X150476163Y-74213886D01*
X150476163Y-73913886D01*
X151976163Y-73913886D01*
X151976163Y-74213886D01*
G37*
G36*
X119650000Y-73900000D02*
G01*
X118150000Y-73900000D01*
X118150000Y-73000000D01*
X119650000Y-73000000D01*
X119650000Y-73900000D01*
G37*
G36*
X151976163Y-73713886D02*
G01*
X150476163Y-73713886D01*
X150476163Y-73413886D01*
X151976163Y-73413886D01*
X151976163Y-73713886D01*
G37*
G36*
X144449799Y-72473557D02*
G01*
X144514683Y-72516912D01*
X144558038Y-72581796D01*
X144573262Y-72658333D01*
X144573262Y-73208333D01*
X144558038Y-73284870D01*
X144514683Y-73349754D01*
X144449799Y-73393109D01*
X144373262Y-73408333D01*
X143973262Y-73408333D01*
X143896725Y-73393109D01*
X143831841Y-73349754D01*
X143788486Y-73284870D01*
X143773262Y-73208333D01*
X143773262Y-72658333D01*
X143788486Y-72581796D01*
X143831841Y-72516912D01*
X143896725Y-72473557D01*
X143973262Y-72458333D01*
X144373262Y-72458333D01*
X144449799Y-72473557D01*
G37*
G36*
X146099799Y-72473557D02*
G01*
X146164683Y-72516912D01*
X146208038Y-72581796D01*
X146223262Y-72658333D01*
X146223262Y-73208333D01*
X146208038Y-73284870D01*
X146164683Y-73349754D01*
X146099799Y-73393109D01*
X146023262Y-73408333D01*
X145623262Y-73408333D01*
X145546725Y-73393109D01*
X145481841Y-73349754D01*
X145438486Y-73284870D01*
X145423262Y-73208333D01*
X145423262Y-72658333D01*
X145438486Y-72581796D01*
X145481841Y-72516912D01*
X145546725Y-72473557D01*
X145623262Y-72458333D01*
X146023262Y-72458333D01*
X146099799Y-72473557D01*
G37*
G36*
X151976163Y-73213886D02*
G01*
X150476163Y-73213886D01*
X150476163Y-72913886D01*
X151976163Y-72913886D01*
X151976163Y-73213886D01*
G37*
G36*
X136354850Y-71509844D02*
G01*
X136405040Y-71515667D01*
X136422189Y-71523239D01*
X136445671Y-71527910D01*
X136470810Y-71544707D01*
X136490696Y-71553488D01*
X136504277Y-71567069D01*
X136526777Y-71582103D01*
X136541810Y-71604602D01*
X136555391Y-71618183D01*
X136564170Y-71638066D01*
X136580970Y-71663209D01*
X136585641Y-71686692D01*
X136593212Y-71703839D01*
X136599033Y-71754019D01*
X136600000Y-71758880D01*
X136600000Y-72708880D01*
X136599032Y-72713743D01*
X136593212Y-72763920D01*
X136585641Y-72781065D01*
X136580970Y-72804551D01*
X136564169Y-72829695D01*
X136555391Y-72849576D01*
X136541812Y-72863154D01*
X136526777Y-72885657D01*
X136504274Y-72900692D01*
X136490696Y-72914271D01*
X136470815Y-72923049D01*
X136445671Y-72939850D01*
X136422185Y-72944521D01*
X136405040Y-72952092D01*
X136354861Y-72957912D01*
X136350000Y-72958880D01*
X135850000Y-72958880D01*
X135845138Y-72957912D01*
X135794959Y-72952092D01*
X135777812Y-72944521D01*
X135754329Y-72939850D01*
X135729186Y-72923050D01*
X135709303Y-72914271D01*
X135695722Y-72900690D01*
X135673223Y-72885657D01*
X135658189Y-72863157D01*
X135644608Y-72849576D01*
X135635827Y-72829690D01*
X135619030Y-72804551D01*
X135614359Y-72781069D01*
X135606787Y-72763920D01*
X135600964Y-72713729D01*
X135600000Y-72708880D01*
X135600000Y-71758880D01*
X135600964Y-71754030D01*
X135606787Y-71703839D01*
X135614359Y-71686688D01*
X135619030Y-71663209D01*
X135635826Y-71638071D01*
X135644608Y-71618183D01*
X135658191Y-71604599D01*
X135673223Y-71582103D01*
X135695719Y-71567071D01*
X135709303Y-71553488D01*
X135729191Y-71544706D01*
X135754329Y-71527910D01*
X135777808Y-71523239D01*
X135794959Y-71515667D01*
X135845151Y-71509844D01*
X135850000Y-71508880D01*
X136350000Y-71508880D01*
X136354850Y-71509844D01*
G37*
G36*
X138254850Y-71509844D02*
G01*
X138305040Y-71515667D01*
X138322189Y-71523239D01*
X138345671Y-71527910D01*
X138370810Y-71544707D01*
X138390696Y-71553488D01*
X138404277Y-71567069D01*
X138426777Y-71582103D01*
X138441810Y-71604602D01*
X138455391Y-71618183D01*
X138464170Y-71638066D01*
X138480970Y-71663209D01*
X138485641Y-71686692D01*
X138493212Y-71703839D01*
X138499033Y-71754019D01*
X138500000Y-71758880D01*
X138500000Y-72708880D01*
X138499032Y-72713743D01*
X138493212Y-72763920D01*
X138485641Y-72781065D01*
X138480970Y-72804551D01*
X138464169Y-72829695D01*
X138455391Y-72849576D01*
X138441812Y-72863154D01*
X138426777Y-72885657D01*
X138404274Y-72900692D01*
X138390696Y-72914271D01*
X138370815Y-72923049D01*
X138345671Y-72939850D01*
X138322185Y-72944521D01*
X138305040Y-72952092D01*
X138254861Y-72957912D01*
X138250000Y-72958880D01*
X137750000Y-72958880D01*
X137745138Y-72957912D01*
X137694959Y-72952092D01*
X137677812Y-72944521D01*
X137654329Y-72939850D01*
X137629186Y-72923050D01*
X137609303Y-72914271D01*
X137595722Y-72900690D01*
X137573223Y-72885657D01*
X137558189Y-72863157D01*
X137544608Y-72849576D01*
X137535827Y-72829690D01*
X137519030Y-72804551D01*
X137514359Y-72781069D01*
X137506787Y-72763920D01*
X137500964Y-72713729D01*
X137500000Y-72708880D01*
X137500000Y-71758880D01*
X137500964Y-71754030D01*
X137506787Y-71703839D01*
X137514359Y-71686688D01*
X137519030Y-71663209D01*
X137535826Y-71638071D01*
X137544608Y-71618183D01*
X137558191Y-71604599D01*
X137573223Y-71582103D01*
X137595719Y-71567071D01*
X137609303Y-71553488D01*
X137629191Y-71544706D01*
X137654329Y-71527910D01*
X137677808Y-71523239D01*
X137694959Y-71515667D01*
X137745151Y-71509844D01*
X137750000Y-71508880D01*
X138250000Y-71508880D01*
X138254850Y-71509844D01*
G37*
G36*
X151976163Y-72713886D02*
G01*
X150476163Y-72713886D01*
X150476163Y-72413886D01*
X151976163Y-72413886D01*
X151976163Y-72713886D01*
G37*
G36*
X119650000Y-72630000D02*
G01*
X118150000Y-72630000D01*
X118150000Y-71730000D01*
X119650000Y-71730000D01*
X119650000Y-72630000D01*
G37*
G36*
X151976163Y-72213886D02*
G01*
X150476163Y-72213886D01*
X150476163Y-71913886D01*
X151976163Y-71913886D01*
X151976163Y-72213886D01*
G37*
G36*
X144468902Y-70830689D02*
G01*
X144533786Y-70874044D01*
X144577141Y-70938928D01*
X144592365Y-71015465D01*
X144592365Y-71565465D01*
X144577141Y-71642002D01*
X144533786Y-71706886D01*
X144468902Y-71750241D01*
X144392365Y-71765465D01*
X143992365Y-71765465D01*
X143915828Y-71750241D01*
X143850944Y-71706886D01*
X143807589Y-71642002D01*
X143792365Y-71565465D01*
X143792365Y-71015465D01*
X143807589Y-70938928D01*
X143850944Y-70874044D01*
X143915828Y-70830689D01*
X143992365Y-70815465D01*
X144392365Y-70815465D01*
X144468902Y-70830689D01*
G37*
G36*
X146118902Y-70830689D02*
G01*
X146183786Y-70874044D01*
X146227141Y-70938928D01*
X146242365Y-71015465D01*
X146242365Y-71565465D01*
X146227141Y-71642002D01*
X146183786Y-71706886D01*
X146118902Y-71750241D01*
X146042365Y-71765465D01*
X145642365Y-71765465D01*
X145565828Y-71750241D01*
X145500944Y-71706886D01*
X145457589Y-71642002D01*
X145442365Y-71565465D01*
X145442365Y-71015465D01*
X145457589Y-70938928D01*
X145500944Y-70874044D01*
X145565828Y-70830689D01*
X145642365Y-70815465D01*
X146042365Y-70815465D01*
X146118902Y-70830689D01*
G37*
G36*
X151976163Y-71713886D02*
G01*
X150476163Y-71713886D01*
X150476163Y-71413886D01*
X151976163Y-71413886D01*
X151976163Y-71713886D01*
G37*
G36*
X119650000Y-71360000D02*
G01*
X118150000Y-71360000D01*
X118150000Y-70460000D01*
X119650000Y-70460000D01*
X119650000Y-71360000D01*
G37*
G36*
X151976163Y-71213886D02*
G01*
X150476163Y-71213886D01*
X150476163Y-70913886D01*
X151976163Y-70913886D01*
X151976163Y-71213886D01*
G37*
G36*
X151976163Y-70713886D02*
G01*
X150476163Y-70713886D01*
X150476163Y-70413886D01*
X151976163Y-70413886D01*
X151976163Y-70713886D01*
G37*
G36*
X200440313Y-70523218D02*
G01*
X199340313Y-70523218D01*
X199340313Y-69073218D01*
X200440313Y-69073218D01*
X200440313Y-70523218D01*
G37*
G36*
X151976163Y-70213886D02*
G01*
X150476163Y-70213886D01*
X150476163Y-69913886D01*
X151976163Y-69913886D01*
X151976163Y-70213886D01*
G37*
G36*
X144468902Y-69187821D02*
G01*
X144533786Y-69231176D01*
X144577141Y-69296060D01*
X144592365Y-69372597D01*
X144592365Y-69922597D01*
X144577141Y-69999134D01*
X144533786Y-70064018D01*
X144468902Y-70107373D01*
X144392365Y-70122597D01*
X143992365Y-70122597D01*
X143915828Y-70107373D01*
X143850944Y-70064018D01*
X143807589Y-69999134D01*
X143792365Y-69922597D01*
X143792365Y-69372597D01*
X143807589Y-69296060D01*
X143850944Y-69231176D01*
X143915828Y-69187821D01*
X143992365Y-69172597D01*
X144392365Y-69172597D01*
X144468902Y-69187821D01*
G37*
G36*
X146118902Y-69187821D02*
G01*
X146183786Y-69231176D01*
X146227141Y-69296060D01*
X146242365Y-69372597D01*
X146242365Y-69922597D01*
X146227141Y-69999134D01*
X146183786Y-70064018D01*
X146118902Y-70107373D01*
X146042365Y-70122597D01*
X145642365Y-70122597D01*
X145565828Y-70107373D01*
X145500944Y-70064018D01*
X145457589Y-69999134D01*
X145442365Y-69922597D01*
X145442365Y-69372597D01*
X145457589Y-69296060D01*
X145500944Y-69231176D01*
X145565828Y-69187821D01*
X145642365Y-69172597D01*
X146042365Y-69172597D01*
X146118902Y-69187821D01*
G37*
G36*
X101450000Y-69750000D02*
G01*
X100550000Y-69750000D01*
X100550000Y-68250000D01*
X101450000Y-68250000D01*
X101450000Y-69750000D01*
G37*
G36*
X102720000Y-69750000D02*
G01*
X101820000Y-69750000D01*
X101820000Y-68250000D01*
X102720000Y-68250000D01*
X102720000Y-69750000D01*
G37*
G36*
X103990000Y-69750000D02*
G01*
X103090000Y-69750000D01*
X103090000Y-68250000D01*
X103990000Y-68250000D01*
X103990000Y-69750000D01*
G37*
G36*
X105260000Y-69750000D02*
G01*
X104360000Y-69750000D01*
X104360000Y-68250000D01*
X105260000Y-68250000D01*
X105260000Y-69750000D01*
G37*
G36*
X106530000Y-69750000D02*
G01*
X105630000Y-69750000D01*
X105630000Y-68250000D01*
X106530000Y-68250000D01*
X106530000Y-69750000D01*
G37*
G36*
X107800000Y-69750000D02*
G01*
X106900000Y-69750000D01*
X106900000Y-68250000D01*
X107800000Y-68250000D01*
X107800000Y-69750000D01*
G37*
G36*
X109070000Y-69750000D02*
G01*
X108170000Y-69750000D01*
X108170000Y-68250000D01*
X109070000Y-68250000D01*
X109070000Y-69750000D01*
G37*
G36*
X110340000Y-69750000D02*
G01*
X109440000Y-69750000D01*
X109440000Y-68250000D01*
X110340000Y-68250000D01*
X110340000Y-69750000D01*
G37*
G36*
X111610000Y-69750000D02*
G01*
X110710000Y-69750000D01*
X110710000Y-68250000D01*
X111610000Y-68250000D01*
X111610000Y-69750000D01*
G37*
G36*
X112880000Y-69750000D02*
G01*
X111980000Y-69750000D01*
X111980000Y-68250000D01*
X112880000Y-68250000D01*
X112880000Y-69750000D01*
G37*
G36*
X114150000Y-69750000D02*
G01*
X113250000Y-69750000D01*
X113250000Y-68250000D01*
X114150000Y-68250000D01*
X114150000Y-69750000D01*
G37*
G36*
X115420000Y-69750000D02*
G01*
X114520000Y-69750000D01*
X114520000Y-68250000D01*
X115420000Y-68250000D01*
X115420000Y-69750000D01*
G37*
G36*
X116690000Y-69750000D02*
G01*
X115790000Y-69750000D01*
X115790000Y-68250000D01*
X116690000Y-68250000D01*
X116690000Y-69750000D01*
G37*
G36*
X117960000Y-69750000D02*
G01*
X117060000Y-69750000D01*
X117060000Y-68250000D01*
X117960000Y-68250000D01*
X117960000Y-69750000D01*
G37*
G36*
X182900000Y-69750000D02*
G01*
X181700000Y-69750000D01*
X181700000Y-68250000D01*
X182900000Y-68250000D01*
X182900000Y-69750000D01*
G37*
G36*
X197700000Y-69750000D02*
G01*
X196100000Y-69750000D01*
X196100000Y-68250000D01*
X197700000Y-68250000D01*
X197700000Y-69750000D01*
G37*
G36*
X151976163Y-69713886D02*
G01*
X150476163Y-69713886D01*
X150476163Y-69413886D01*
X151976163Y-69413886D01*
X151976163Y-69713886D01*
G37*
G36*
X151976163Y-69213886D02*
G01*
X150476163Y-69213886D01*
X150476163Y-68913886D01*
X151976163Y-68913886D01*
X151976163Y-69213886D01*
G37*
G36*
X202030313Y-69178218D02*
G01*
X201230313Y-69178218D01*
X201230313Y-68578218D01*
X202030313Y-68578218D01*
X202030313Y-69178218D01*
G37*
G36*
X183850000Y-68800000D02*
G01*
X183150000Y-68800000D01*
X183150000Y-67200000D01*
X183850000Y-67200000D01*
X183850000Y-68800000D01*
G37*
G36*
X184950000Y-68800000D02*
G01*
X184250000Y-68800000D01*
X184250000Y-67200000D01*
X184950000Y-67200000D01*
X184950000Y-68800000D01*
G37*
G36*
X186050000Y-68800000D02*
G01*
X185350000Y-68800000D01*
X185350000Y-67200000D01*
X186050000Y-67200000D01*
X186050000Y-68800000D01*
G37*
G36*
X187150000Y-68800000D02*
G01*
X186450000Y-68800000D01*
X186450000Y-67200000D01*
X187150000Y-67200000D01*
X187150000Y-68800000D01*
G37*
G36*
X188250000Y-68800000D02*
G01*
X187550000Y-68800000D01*
X187550000Y-67200000D01*
X188250000Y-67200000D01*
X188250000Y-68800000D01*
G37*
G36*
X189350000Y-68800000D02*
G01*
X188650000Y-68800000D01*
X188650000Y-67200000D01*
X189350000Y-67200000D01*
X189350000Y-68800000D01*
G37*
G36*
X190450000Y-68800000D02*
G01*
X189750000Y-68800000D01*
X189750000Y-67200000D01*
X190450000Y-67200000D01*
X190450000Y-68800000D01*
G37*
G36*
X191550000Y-68800000D02*
G01*
X190850000Y-68800000D01*
X190850000Y-67200000D01*
X191550000Y-67200000D01*
X191550000Y-68800000D01*
G37*
G36*
X192650000Y-68800000D02*
G01*
X191950000Y-68800000D01*
X191950000Y-67200000D01*
X192650000Y-67200000D01*
X192650000Y-68800000D01*
G37*
G36*
X136354850Y-67275964D02*
G01*
X136405040Y-67281787D01*
X136422189Y-67289359D01*
X136445671Y-67294030D01*
X136470810Y-67310827D01*
X136490696Y-67319608D01*
X136504277Y-67333189D01*
X136526777Y-67348223D01*
X136541810Y-67370722D01*
X136555391Y-67384303D01*
X136564170Y-67404186D01*
X136580970Y-67429329D01*
X136585641Y-67452812D01*
X136593212Y-67469959D01*
X136599033Y-67520139D01*
X136600000Y-67525000D01*
X136600000Y-68475000D01*
X136599032Y-68479863D01*
X136593212Y-68530040D01*
X136585641Y-68547185D01*
X136580970Y-68570671D01*
X136564169Y-68595815D01*
X136555391Y-68615696D01*
X136541812Y-68629274D01*
X136526777Y-68651777D01*
X136504274Y-68666812D01*
X136490696Y-68680391D01*
X136470815Y-68689169D01*
X136445671Y-68705970D01*
X136422185Y-68710641D01*
X136405040Y-68718212D01*
X136354861Y-68724032D01*
X136350000Y-68725000D01*
X135850000Y-68725000D01*
X135845138Y-68724032D01*
X135794959Y-68718212D01*
X135777812Y-68710641D01*
X135754329Y-68705970D01*
X135729186Y-68689170D01*
X135709303Y-68680391D01*
X135695722Y-68666810D01*
X135673223Y-68651777D01*
X135658189Y-68629277D01*
X135644608Y-68615696D01*
X135635827Y-68595810D01*
X135619030Y-68570671D01*
X135614359Y-68547189D01*
X135606787Y-68530040D01*
X135600964Y-68479849D01*
X135600000Y-68475000D01*
X135600000Y-67525000D01*
X135600964Y-67520150D01*
X135606787Y-67469959D01*
X135614359Y-67452808D01*
X135619030Y-67429329D01*
X135635826Y-67404191D01*
X135644608Y-67384303D01*
X135658191Y-67370719D01*
X135673223Y-67348223D01*
X135695719Y-67333191D01*
X135709303Y-67319608D01*
X135729191Y-67310826D01*
X135754329Y-67294030D01*
X135777808Y-67289359D01*
X135794959Y-67281787D01*
X135845151Y-67275964D01*
X135850000Y-67275000D01*
X136350000Y-67275000D01*
X136354850Y-67275964D01*
G37*
G36*
X138254850Y-67275964D02*
G01*
X138305040Y-67281787D01*
X138322189Y-67289359D01*
X138345671Y-67294030D01*
X138370810Y-67310827D01*
X138390696Y-67319608D01*
X138404277Y-67333189D01*
X138426777Y-67348223D01*
X138441810Y-67370722D01*
X138455391Y-67384303D01*
X138464170Y-67404186D01*
X138480970Y-67429329D01*
X138485641Y-67452812D01*
X138493212Y-67469959D01*
X138499033Y-67520139D01*
X138500000Y-67525000D01*
X138500000Y-68475000D01*
X138499032Y-68479863D01*
X138493212Y-68530040D01*
X138485641Y-68547185D01*
X138480970Y-68570671D01*
X138464169Y-68595815D01*
X138455391Y-68615696D01*
X138441812Y-68629274D01*
X138426777Y-68651777D01*
X138404274Y-68666812D01*
X138390696Y-68680391D01*
X138370815Y-68689169D01*
X138345671Y-68705970D01*
X138322185Y-68710641D01*
X138305040Y-68718212D01*
X138254861Y-68724032D01*
X138250000Y-68725000D01*
X137750000Y-68725000D01*
X137745138Y-68724032D01*
X137694959Y-68718212D01*
X137677812Y-68710641D01*
X137654329Y-68705970D01*
X137629186Y-68689170D01*
X137609303Y-68680391D01*
X137595722Y-68666810D01*
X137573223Y-68651777D01*
X137558189Y-68629277D01*
X137544608Y-68615696D01*
X137535827Y-68595810D01*
X137519030Y-68570671D01*
X137514359Y-68547189D01*
X137506787Y-68530040D01*
X137500964Y-68479849D01*
X137500000Y-68475000D01*
X137500000Y-67525000D01*
X137500964Y-67520150D01*
X137506787Y-67469959D01*
X137514359Y-67452808D01*
X137519030Y-67429329D01*
X137535826Y-67404191D01*
X137544608Y-67384303D01*
X137558191Y-67370719D01*
X137573223Y-67348223D01*
X137595719Y-67333191D01*
X137609303Y-67319608D01*
X137629191Y-67310826D01*
X137654329Y-67294030D01*
X137677808Y-67289359D01*
X137694959Y-67281787D01*
X137745151Y-67275964D01*
X137750000Y-67275000D01*
X138250000Y-67275000D01*
X138254850Y-67275964D01*
G37*
G36*
X151976163Y-68713886D02*
G01*
X150476163Y-68713886D01*
X150476163Y-68413886D01*
X151976163Y-68413886D01*
X151976163Y-68713886D01*
G37*
G36*
X144451537Y-67540224D02*
G01*
X144516421Y-67583579D01*
X144559776Y-67648463D01*
X144575000Y-67725000D01*
X144575000Y-68275000D01*
X144559776Y-68351537D01*
X144516421Y-68416421D01*
X144451537Y-68459776D01*
X144375000Y-68475000D01*
X143975000Y-68475000D01*
X143898463Y-68459776D01*
X143833579Y-68416421D01*
X143790224Y-68351537D01*
X143775000Y-68275000D01*
X143775000Y-67725000D01*
X143790224Y-67648463D01*
X143833579Y-67583579D01*
X143898463Y-67540224D01*
X143975000Y-67525000D01*
X144375000Y-67525000D01*
X144451537Y-67540224D01*
G37*
G36*
X146101537Y-67540224D02*
G01*
X146166421Y-67583579D01*
X146209776Y-67648463D01*
X146225000Y-67725000D01*
X146225000Y-68275000D01*
X146209776Y-68351537D01*
X146166421Y-68416421D01*
X146101537Y-68459776D01*
X146025000Y-68475000D01*
X145625000Y-68475000D01*
X145548463Y-68459776D01*
X145483579Y-68416421D01*
X145440224Y-68351537D01*
X145425000Y-68275000D01*
X145425000Y-67725000D01*
X145440224Y-67648463D01*
X145483579Y-67583579D01*
X145548463Y-67540224D01*
X145625000Y-67525000D01*
X146025000Y-67525000D01*
X146101537Y-67540224D01*
G37*
G36*
X151976163Y-68213886D02*
G01*
X150476163Y-68213886D01*
X150476163Y-67913886D01*
X151976163Y-67913886D01*
X151976163Y-68213886D01*
G37*
G36*
X154725978Y-67406608D02*
G01*
X153125978Y-67406608D01*
X153125978Y-65406608D01*
X154725978Y-65406608D01*
X154725978Y-67406608D01*
G37*
G36*
X98494897Y-61193298D02*
G01*
X98817389Y-61269730D01*
X99128827Y-61383084D01*
X99425000Y-61531828D01*
X99701902Y-61713949D01*
X99955789Y-61926985D01*
X100183227Y-62168055D01*
X100381140Y-62433899D01*
X100546853Y-62720922D01*
X100678124Y-63025243D01*
X100773178Y-63342745D01*
X100830729Y-63669135D01*
X100850000Y-64000000D01*
X100830729Y-64330865D01*
X100773178Y-64657255D01*
X100678124Y-64974757D01*
X100546853Y-65279078D01*
X100381140Y-65566101D01*
X100183227Y-65831945D01*
X99955789Y-66073015D01*
X99701902Y-66286051D01*
X99425000Y-66468172D01*
X99128827Y-66616916D01*
X98817389Y-66730270D01*
X98494897Y-66806702D01*
X98165713Y-66845178D01*
X97834287Y-66845178D01*
X97505103Y-66806702D01*
X97182611Y-66730270D01*
X96871173Y-66616916D01*
X96575000Y-66468172D01*
X96298098Y-66286051D01*
X96044211Y-66073015D01*
X95816773Y-65831945D01*
X95618860Y-65566101D01*
X95453147Y-65279078D01*
X95321876Y-64974757D01*
X95226822Y-64657255D01*
X95169271Y-64330865D01*
X95150000Y-64000000D01*
X95169271Y-63669135D01*
X95226822Y-63342745D01*
X95321876Y-63025243D01*
X95453147Y-62720922D01*
X95618860Y-62433899D01*
X95816773Y-62168055D01*
X96044211Y-61926985D01*
X96298098Y-61713949D01*
X96575000Y-61531828D01*
X96871173Y-61383084D01*
X97182611Y-61269730D01*
X97505103Y-61193298D01*
X97834287Y-61154822D01*
X98165713Y-61154822D01*
X98494897Y-61193298D01*
G37*
G36*
X198494897Y-61193298D02*
G01*
X198817389Y-61269730D01*
X199128827Y-61383084D01*
X199425000Y-61531828D01*
X199701902Y-61713949D01*
X199955789Y-61926985D01*
X200183227Y-62168055D01*
X200381140Y-62433899D01*
X200546853Y-62720922D01*
X200678124Y-63025243D01*
X200773178Y-63342745D01*
X200830729Y-63669135D01*
X200850000Y-64000000D01*
X200830729Y-64330865D01*
X200773178Y-64657255D01*
X200678124Y-64974757D01*
X200546853Y-65279078D01*
X200381140Y-65566101D01*
X200183227Y-65831945D01*
X199955789Y-66073015D01*
X199701902Y-66286051D01*
X199425000Y-66468172D01*
X199128827Y-66616916D01*
X198817389Y-66730270D01*
X198494897Y-66806702D01*
X198165713Y-66845178D01*
X197834287Y-66845178D01*
X197505103Y-66806702D01*
X197182611Y-66730270D01*
X196871173Y-66616916D01*
X196575000Y-66468172D01*
X196298098Y-66286051D01*
X196044211Y-66073015D01*
X195816773Y-65831945D01*
X195618860Y-65566101D01*
X195453147Y-65279078D01*
X195321876Y-64974757D01*
X195226822Y-64657255D01*
X195169271Y-64330865D01*
X195150000Y-64000000D01*
X195169271Y-63669135D01*
X195226822Y-63342745D01*
X195321876Y-63025243D01*
X195453147Y-62720922D01*
X195618860Y-62433899D01*
X195816773Y-62168055D01*
X196044211Y-61926985D01*
X196298098Y-61713949D01*
X196575000Y-61531828D01*
X196871173Y-61383084D01*
X197182611Y-61269730D01*
X197505103Y-61193298D01*
X197834287Y-61154822D01*
X198165713Y-61154822D01*
X198494897Y-61193298D01*
G37*
G36*
X193685520Y-65401753D02*
G01*
X193750404Y-65445108D01*
X193793759Y-65509992D01*
X193808983Y-65586529D01*
X193808983Y-65986529D01*
X193793759Y-66063066D01*
X193750404Y-66127950D01*
X193685520Y-66171305D01*
X193608983Y-66186529D01*
X193058983Y-66186529D01*
X192982446Y-66171305D01*
X192917562Y-66127950D01*
X192874207Y-66063066D01*
X192858983Y-65986529D01*
X192858983Y-65586529D01*
X192874207Y-65509992D01*
X192917562Y-65445108D01*
X192982446Y-65401753D01*
X193058983Y-65386529D01*
X193608983Y-65386529D01*
X193685520Y-65401753D01*
G37*
G36*
X184320339Y-65388304D02*
G01*
X184385223Y-65431659D01*
X184428578Y-65496543D01*
X184443802Y-65573080D01*
X184443802Y-65973080D01*
X184428578Y-66049617D01*
X184385223Y-66114501D01*
X184320339Y-66157856D01*
X184243802Y-66173080D01*
X183693802Y-66173080D01*
X183617265Y-66157856D01*
X183552381Y-66114501D01*
X183509026Y-66049617D01*
X183493802Y-65973080D01*
X183493802Y-65573080D01*
X183509026Y-65496543D01*
X183552381Y-65431659D01*
X183617265Y-65388304D01*
X183693802Y-65373080D01*
X184243802Y-65373080D01*
X184320339Y-65388304D01*
G37*
G36*
X186064399Y-65388304D02*
G01*
X186129283Y-65431659D01*
X186172638Y-65496543D01*
X186187862Y-65573080D01*
X186187862Y-65973080D01*
X186172638Y-66049617D01*
X186129283Y-66114501D01*
X186064399Y-66157856D01*
X185987862Y-66173080D01*
X185437862Y-66173080D01*
X185361325Y-66157856D01*
X185296441Y-66114501D01*
X185253086Y-66049617D01*
X185237862Y-65973080D01*
X185237862Y-65573080D01*
X185253086Y-65496543D01*
X185296441Y-65431659D01*
X185361325Y-65388304D01*
X185437862Y-65373080D01*
X185987862Y-65373080D01*
X186064399Y-65388304D01*
G37*
G36*
X192031755Y-65387118D02*
G01*
X192096639Y-65430473D01*
X192139994Y-65495357D01*
X192155218Y-65571894D01*
X192155218Y-65971894D01*
X192139994Y-66048431D01*
X192096639Y-66113315D01*
X192031755Y-66156670D01*
X191955218Y-66171894D01*
X191405218Y-66171894D01*
X191328681Y-66156670D01*
X191263797Y-66113315D01*
X191220442Y-66048431D01*
X191205218Y-65971894D01*
X191205218Y-65571894D01*
X191220442Y-65495357D01*
X191263797Y-65430473D01*
X191328681Y-65387118D01*
X191405218Y-65371894D01*
X191955218Y-65371894D01*
X192031755Y-65387118D01*
G37*
G36*
X190417543Y-65385898D02*
G01*
X190482427Y-65429253D01*
X190525782Y-65494137D01*
X190541006Y-65570674D01*
X190541006Y-65970674D01*
X190525782Y-66047211D01*
X190482427Y-66112095D01*
X190417543Y-66155450D01*
X190341006Y-66170674D01*
X189791006Y-66170674D01*
X189714469Y-66155450D01*
X189649585Y-66112095D01*
X189606230Y-66047211D01*
X189591006Y-65970674D01*
X189591006Y-65570674D01*
X189606230Y-65494137D01*
X189649585Y-65429253D01*
X189714469Y-65385898D01*
X189791006Y-65370674D01*
X190341006Y-65370674D01*
X190417543Y-65385898D01*
G37*
G36*
X187733638Y-65382665D02*
G01*
X187798522Y-65426020D01*
X187841877Y-65490904D01*
X187857101Y-65567441D01*
X187857101Y-65967441D01*
X187841877Y-66043978D01*
X187798522Y-66108862D01*
X187733638Y-66152217D01*
X187657101Y-66167441D01*
X187107101Y-66167441D01*
X187030564Y-66152217D01*
X186965680Y-66108862D01*
X186922325Y-66043978D01*
X186907101Y-65967441D01*
X186907101Y-65567441D01*
X186922325Y-65490904D01*
X186965680Y-65426020D01*
X187030564Y-65382665D01*
X187107101Y-65367441D01*
X187657101Y-65367441D01*
X187733638Y-65382665D01*
G37*
G36*
X193685520Y-63751753D02*
G01*
X193750404Y-63795108D01*
X193793759Y-63859992D01*
X193808983Y-63936529D01*
X193808983Y-64336529D01*
X193793759Y-64413066D01*
X193750404Y-64477950D01*
X193685520Y-64521305D01*
X193608983Y-64536529D01*
X193058983Y-64536529D01*
X192982446Y-64521305D01*
X192917562Y-64477950D01*
X192874207Y-64413066D01*
X192858983Y-64336529D01*
X192858983Y-63936529D01*
X192874207Y-63859992D01*
X192917562Y-63795108D01*
X192982446Y-63751753D01*
X193058983Y-63736529D01*
X193608983Y-63736529D01*
X193685520Y-63751753D01*
G37*
G36*
X184320339Y-63738304D02*
G01*
X184385223Y-63781659D01*
X184428578Y-63846543D01*
X184443802Y-63923080D01*
X184443802Y-64323080D01*
X184428578Y-64399617D01*
X184385223Y-64464501D01*
X184320339Y-64507856D01*
X184243802Y-64523080D01*
X183693802Y-64523080D01*
X183617265Y-64507856D01*
X183552381Y-64464501D01*
X183509026Y-64399617D01*
X183493802Y-64323080D01*
X183493802Y-63923080D01*
X183509026Y-63846543D01*
X183552381Y-63781659D01*
X183617265Y-63738304D01*
X183693802Y-63723080D01*
X184243802Y-63723080D01*
X184320339Y-63738304D01*
G37*
G36*
X186064399Y-63738304D02*
G01*
X186129283Y-63781659D01*
X186172638Y-63846543D01*
X186187862Y-63923080D01*
X186187862Y-64323080D01*
X186172638Y-64399617D01*
X186129283Y-64464501D01*
X186064399Y-64507856D01*
X185987862Y-64523080D01*
X185437862Y-64523080D01*
X185361325Y-64507856D01*
X185296441Y-64464501D01*
X185253086Y-64399617D01*
X185237862Y-64323080D01*
X185237862Y-63923080D01*
X185253086Y-63846543D01*
X185296441Y-63781659D01*
X185361325Y-63738304D01*
X185437862Y-63723080D01*
X185987862Y-63723080D01*
X186064399Y-63738304D01*
G37*
G36*
X192031755Y-63737118D02*
G01*
X192096639Y-63780473D01*
X192139994Y-63845357D01*
X192155218Y-63921894D01*
X192155218Y-64321894D01*
X192139994Y-64398431D01*
X192096639Y-64463315D01*
X192031755Y-64506670D01*
X191955218Y-64521894D01*
X191405218Y-64521894D01*
X191328681Y-64506670D01*
X191263797Y-64463315D01*
X191220442Y-64398431D01*
X191205218Y-64321894D01*
X191205218Y-63921894D01*
X191220442Y-63845357D01*
X191263797Y-63780473D01*
X191328681Y-63737118D01*
X191405218Y-63721894D01*
X191955218Y-63721894D01*
X192031755Y-63737118D01*
G37*
G36*
X190417543Y-63735898D02*
G01*
X190482427Y-63779253D01*
X190525782Y-63844137D01*
X190541006Y-63920674D01*
X190541006Y-64320674D01*
X190525782Y-64397211D01*
X190482427Y-64462095D01*
X190417543Y-64505450D01*
X190341006Y-64520674D01*
X189791006Y-64520674D01*
X189714469Y-64505450D01*
X189649585Y-64462095D01*
X189606230Y-64397211D01*
X189591006Y-64320674D01*
X189591006Y-63920674D01*
X189606230Y-63844137D01*
X189649585Y-63779253D01*
X189714469Y-63735898D01*
X189791006Y-63720674D01*
X190341006Y-63720674D01*
X190417543Y-63735898D01*
G37*
G36*
X187733638Y-63732665D02*
G01*
X187798522Y-63776020D01*
X187841877Y-63840904D01*
X187857101Y-63917441D01*
X187857101Y-64317441D01*
X187841877Y-64393978D01*
X187798522Y-64458862D01*
X187733638Y-64502217D01*
X187657101Y-64517441D01*
X187107101Y-64517441D01*
X187030564Y-64502217D01*
X186965680Y-64458862D01*
X186922325Y-64393978D01*
X186907101Y-64317441D01*
X186907101Y-63917441D01*
X186922325Y-63840904D01*
X186965680Y-63776020D01*
X187030564Y-63732665D01*
X187107101Y-63717441D01*
X187657101Y-63717441D01*
X187733638Y-63732665D01*
G37*
G36*
X107489630Y-62606434D02*
G01*
X106039630Y-62606434D01*
X106039630Y-61506434D01*
X107489630Y-61506434D01*
X107489630Y-62606434D01*
G37*
G36*
X112049630Y-62606434D02*
G01*
X110599630Y-62606434D01*
X110599630Y-61506434D01*
X112049630Y-61506434D01*
X112049630Y-62606434D01*
G37*
G36*
X184241799Y-61140269D02*
G01*
X184291989Y-61146092D01*
X184309138Y-61153664D01*
X184332620Y-61158335D01*
X184357759Y-61175132D01*
X184377645Y-61183913D01*
X184391226Y-61197494D01*
X184413726Y-61212528D01*
X184428759Y-61235027D01*
X184442340Y-61248608D01*
X184451119Y-61268491D01*
X184467919Y-61293634D01*
X184472590Y-61317117D01*
X184480161Y-61334264D01*
X184485982Y-61384444D01*
X184486949Y-61389305D01*
X184486949Y-62339305D01*
X184485981Y-62344168D01*
X184480161Y-62394345D01*
X184472590Y-62411490D01*
X184467919Y-62434976D01*
X184451118Y-62460120D01*
X184442340Y-62480001D01*
X184428761Y-62493579D01*
X184413726Y-62516082D01*
X184391223Y-62531117D01*
X184377645Y-62544696D01*
X184357764Y-62553474D01*
X184332620Y-62570275D01*
X184309134Y-62574946D01*
X184291989Y-62582517D01*
X184241810Y-62588337D01*
X184236949Y-62589305D01*
X183736949Y-62589305D01*
X183732087Y-62588337D01*
X183681908Y-62582517D01*
X183664761Y-62574946D01*
X183641278Y-62570275D01*
X183616135Y-62553475D01*
X183596252Y-62544696D01*
X183582671Y-62531115D01*
X183560172Y-62516082D01*
X183545138Y-62493582D01*
X183531557Y-62480001D01*
X183522776Y-62460115D01*
X183505979Y-62434976D01*
X183501308Y-62411494D01*
X183493736Y-62394345D01*
X183487913Y-62344154D01*
X183486949Y-62339305D01*
X183486949Y-61389305D01*
X183487913Y-61384455D01*
X183493736Y-61334264D01*
X183501308Y-61317113D01*
X183505979Y-61293634D01*
X183522775Y-61268496D01*
X183531557Y-61248608D01*
X183545140Y-61235024D01*
X183560172Y-61212528D01*
X183582668Y-61197496D01*
X183596252Y-61183913D01*
X183616140Y-61175131D01*
X183641278Y-61158335D01*
X183664757Y-61153664D01*
X183681908Y-61146092D01*
X183732100Y-61140269D01*
X183736949Y-61139305D01*
X184236949Y-61139305D01*
X184241799Y-61140269D01*
G37*
G36*
X186141799Y-61140269D02*
G01*
X186191989Y-61146092D01*
X186209138Y-61153664D01*
X186232620Y-61158335D01*
X186257759Y-61175132D01*
X186277645Y-61183913D01*
X186291226Y-61197494D01*
X186313726Y-61212528D01*
X186328759Y-61235027D01*
X186342340Y-61248608D01*
X186351119Y-61268491D01*
X186367919Y-61293634D01*
X186372590Y-61317117D01*
X186380161Y-61334264D01*
X186385982Y-61384444D01*
X186386949Y-61389305D01*
X186386949Y-62339305D01*
X186385981Y-62344168D01*
X186380161Y-62394345D01*
X186372590Y-62411490D01*
X186367919Y-62434976D01*
X186351118Y-62460120D01*
X186342340Y-62480001D01*
X186328761Y-62493579D01*
X186313726Y-62516082D01*
X186291223Y-62531117D01*
X186277645Y-62544696D01*
X186257764Y-62553474D01*
X186232620Y-62570275D01*
X186209134Y-62574946D01*
X186191989Y-62582517D01*
X186141810Y-62588337D01*
X186136949Y-62589305D01*
X185636949Y-62589305D01*
X185632087Y-62588337D01*
X185581908Y-62582517D01*
X185564761Y-62574946D01*
X185541278Y-62570275D01*
X185516135Y-62553475D01*
X185496252Y-62544696D01*
X185482671Y-62531115D01*
X185460172Y-62516082D01*
X185445138Y-62493582D01*
X185431557Y-62480001D01*
X185422776Y-62460115D01*
X185405979Y-62434976D01*
X185401308Y-62411494D01*
X185393736Y-62394345D01*
X185387913Y-62344154D01*
X185386949Y-62339305D01*
X185386949Y-61389305D01*
X185387913Y-61384455D01*
X185393736Y-61334264D01*
X185401308Y-61317113D01*
X185405979Y-61293634D01*
X185422775Y-61268496D01*
X185431557Y-61248608D01*
X185445140Y-61235024D01*
X185460172Y-61212528D01*
X185482668Y-61197496D01*
X185496252Y-61183913D01*
X185516140Y-61175131D01*
X185541278Y-61158335D01*
X185564757Y-61153664D01*
X185581908Y-61146092D01*
X185632100Y-61140269D01*
X185636949Y-61139305D01*
X186136949Y-61139305D01*
X186141799Y-61140269D01*
G37*
G36*
X106144630Y-60716434D02*
G01*
X105544630Y-60716434D01*
X105544630Y-59916434D01*
X106144630Y-59916434D01*
X106144630Y-60716434D01*
G37*
G36*
X112544630Y-60716434D02*
G01*
X111944630Y-60716434D01*
X111944630Y-59916434D01*
X112544630Y-59916434D01*
X112544630Y-60716434D01*
G37*
M02*
