%TF.GenerationSoftware,KiCad,Pcbnew,7.0.7*%
%TF.CreationDate,2023-10-03T15:02:23+02:00*%
%TF.ProjectId,Untitled,556e7469-746c-4656-942e-6b696361645f,rev?*%
%TF.SameCoordinates,Original*%
%TF.FileFunction,Other,Comment*%
%FSLAX46Y46*%
G04 Gerber Fmt 4.6, Leading zero omitted, Abs format (unit mm)*
G04 Created by KiCad (PCBNEW 7.0.7) date 2023-10-03 15:02:23*
%MOMM*%
%LPD*%
G01*
G04 APERTURE LIST*
%ADD10C,0.150000*%
%ADD11C,0.400000*%
%ADD12C,0.250000*%
%ADD13C,0.500000*%
%ADD14C,0.200000*%
%ADD15C,0.300000*%
%ADD16C,0.240000*%
G04 APERTURE END LIST*
D10*
%TO.C,H6*%
X100850000Y-125000000D02*
G75*
G03*
X100850000Y-125000000I-2850000J0D01*
G01*
%TO.C,H5*%
X200850000Y-125000000D02*
G75*
G03*
X200850000Y-125000000I-2850000J0D01*
G01*
%TO.C,H4*%
X200850000Y-64000000D02*
G75*
G03*
X200850000Y-64000000I-2850000J0D01*
G01*
%TO.C,H3*%
X100850000Y-64000000D02*
G75*
G03*
X100850000Y-64000000I-2850000J0D01*
G01*
D11*
%TO.C,Card1*%
X193300000Y-79000000D02*
G75*
G03*
X193300000Y-79000000I-200000J0D01*
G01*
X185300000Y-79000000D02*
G75*
G03*
X185300000Y-79000000I-200000J0D01*
G01*
D12*
X192990000Y-67670000D02*
G75*
G03*
X192990000Y-67670000I-130000J0D01*
G01*
D13*
%TO.C,H1*%
X125395982Y-107578781D02*
G75*
G03*
X125395982Y-107578781I-250000J0D01*
G01*
D12*
%TO.C,USB1*%
X98184549Y-103382072D02*
G75*
G03*
X98184549Y-103382072I-120000J0D01*
G01*
X98184549Y-109162072D02*
G75*
G03*
X98184549Y-109162072I-120000J0D01*
G01*
D13*
%TO.C,H2*%
X170746717Y-105333677D02*
G75*
G03*
X170746717Y-105333677I-250000J0D01*
G01*
D14*
%TO.C,D3*%
X102570000Y-107030000D02*
G75*
G03*
X102570000Y-107030000I-100000J0D01*
G01*
%TO.C,U2*%
X99380000Y-96640000D02*
G75*
G03*
X99380000Y-96640000I-100000J0D01*
G01*
%TO.C,Q3*%
X139640000Y-83900000D02*
G75*
G03*
X139640000Y-83900000I-100000J0D01*
G01*
D11*
%TO.C,U1*%
X101200000Y-87250000D02*
G75*
G03*
X101200000Y-87250000I-200000J0D01*
G01*
D15*
%TO.C,U4*%
X116207576Y-105562356D02*
G75*
G03*
X116207576Y-105562356I-150000J0D01*
G01*
D16*
%TO.C,J8*%
X150905978Y-93606608D02*
G75*
G03*
X150905978Y-93606608I-120000J0D01*
G01*
D14*
%TO.C,Q1*%
X119560000Y-110412356D02*
G75*
G03*
X119560000Y-110412356I-100000J0D01*
G01*
%TO.C,U6*%
X110609682Y-120260000D02*
G75*
G03*
X110609682Y-120260000I-100000J0D01*
G01*
%TO.C,Q2*%
X138592500Y-77990779D02*
G75*
G03*
X138592500Y-77990779I-100000J0D01*
G01*
%TD*%
M02*
