M48
; DRILL file {KiCad 7.0.7} date 2023 October 03, Tuesday 15:02:23
; FORMAT={-:-/ absolute / inch / decimal}
; #@! TF.CreationDate,2023-10-03T15:02:23+02:00
; #@! TF.GenerationSoftware,Kicad,Pcbnew,7.0.7
; #@! TF.FileFunction,Plated,1,4,PTH
FMAT,2
INCH
; #@! TA.AperFunction,Plated,PTH,ViaDrill
T1C0.0157
; #@! TA.AperFunction,Plated,PTH,ComponentDrill
T2C0.0236
; #@! TA.AperFunction,Plated,PTH,ComponentDrill
T3C0.0276
; #@! TA.AperFunction,Plated,PTH,ComponentDrill
T4C0.0472
; #@! TA.AperFunction,Plated,PTH,ComponentDrill
T5C0.0591
; #@! TA.AperFunction,Plated,PTH,ComponentDrill
T6C0.1260
%
G90
G05
T1
X3.7008Y-3.5613
X3.7008Y-3.6614
X3.7507Y-3.8934
X3.8189Y-4.0945
X3.8386Y-3.7697
X3.937Y-3.8976
X3.9764Y-2.8346
X3.9764Y-2.9528
X3.9764Y-3.0709
X3.9764Y-3.189
X3.9969Y-4.2293
X4.0157Y-4.3307
X4.0551Y-4.8819
X4.0945Y-2.8346
X4.0945Y-2.9528
X4.0945Y-3.0709
X4.0945Y-3.189
X4.1339Y-3.3465
X4.1339Y-3.937
X4.1339Y-4.1732
X4.1452Y-4.3307
X4.1532Y-3.4835
X4.1732Y-3.937
X4.2126Y-2.8346
X4.2126Y-2.9528
X4.2126Y-3.4829
X4.252Y-3.3071
X4.2525Y-3.1533
X4.2531Y-3.096
X4.2632Y-3.4838
X4.2692Y-4.814
X4.2761Y-2.6378
X4.2878Y-4.7047
X4.2939Y-2.5222
X4.3061Y-3.0988
X4.3061Y-3.156
X4.3162Y-3.4826
X4.3307Y-2.6378
X4.3307Y-2.9528
X4.3763Y-2.6378
X4.397Y-4.3913
X4.4094Y-4.8031
X4.4271Y-3.4823
X4.4272Y-2.6378
X4.4488Y-4.7638
X4.4757Y-3.4817
X4.4771Y-2.6378
X4.4882Y-4.685
X4.5153Y-4.6094
X4.526Y-3.481
X4.5276Y-2.6378
X4.6063Y-3.0938
X4.6063Y-3.3465
X4.6119Y-4.2397
X4.7244Y-2.7167
X4.7584Y-4.1489
X4.7828Y-3.189
X4.8031Y-2.8964
X4.8819Y-4.4882
X5.2362Y-3.5827
X5.2362Y-3.6614
X5.2756Y-2.9528
X5.2957Y-3.1358
X5.4331Y-3.4252
X5.4724Y-2.7559
X5.4724Y-3.7402
X5.501Y-3.0831
X5.5118Y-2.8999
X6.3386Y-2.7165
X6.3386Y-3.189
X6.3386Y-3.3465
X6.7323Y-2.874
X7.2664Y-2.7559
X7.3105Y-2.7559
X7.397Y-2.7559
X7.4846Y-2.7559
X7.5304Y-2.7559
X7.5709Y-2.7559
X7.8141Y-2.9247
T3
X3.8608Y-4.0702
X3.8608Y-4.2977
T4
X7.2874Y-3.1102
X7.6024Y-3.1102
T5
X3.7451Y-4.6718
X4.0207Y-4.6718
T6
X3.8583Y-2.5197
X3.8583Y-4.9213
X7.7953Y-2.5197
X7.7953Y-4.9213
T2
G00X3.7277Y-4.0139
M15
G01X3.7041Y-4.0139
M16
G05
G00X3.7277Y-4.354
M15
G01X3.7041Y-4.354
M16
G05
G00X3.7175Y-4.5777
M15
G01X3.749Y-4.5777
M16
G05
G00X3.7175Y-4.7797
M15
G01X3.749Y-4.7797
M16
G05
G00X3.8376Y-4.5435
M15
G01X3.8691Y-4.5435
M16
G05
G00X3.8994Y-4.0139
M15
G01X3.864Y-4.0139
M16
G05
G00X3.8994Y-4.354
M15
G01X3.864Y-4.354
M16
G05
G00X3.9577Y-4.5848
M15
G01X3.9892Y-4.5848
M16
G05
G00X3.9577Y-4.7797
M15
G01X3.9892Y-4.7797
M16
G05
G00X4.0836Y-4.5659
M15
G01X4.1151Y-4.5659
M16
G05
G00X4.0836Y-4.7797
M15
G01X4.1151Y-4.7797
M16
G05
T0
M30
