%TF.GenerationSoftware,KiCad,Pcbnew,7.0.7*%
%TF.CreationDate,2023-12-09T22:21:25+01:00*%
%TF.ProjectId,Untitled,556e7469-746c-4656-942e-6b696361645f,rev?*%
%TF.SameCoordinates,Original*%
%TF.FileFunction,Copper,L2,Bot*%
%TF.FilePolarity,Positive*%
%FSLAX46Y46*%
G04 Gerber Fmt 4.6, Leading zero omitted, Abs format (unit mm)*
G04 Created by KiCad (PCBNEW 7.0.7) date 2023-12-09 22:21:25*
%MOMM*%
%LPD*%
G01*
G04 APERTURE LIST*
%TA.AperFunction,ComponentPad*%
%ADD10C,0.900000*%
%TD*%
%TA.AperFunction,ComponentPad*%
%ADD11C,5.700000*%
%TD*%
%TA.AperFunction,ComponentPad*%
%ADD12O,1.800000X1.200000*%
%TD*%
%TA.AperFunction,ComponentPad*%
%ADD13O,2.000000X1.200000*%
%TD*%
%TA.AperFunction,ComponentPad*%
%ADD14C,0.700000*%
%TD*%
%TA.AperFunction,ComponentPad*%
%ADD15O,2.000000X1.000000*%
%TD*%
%TA.AperFunction,ComponentPad*%
%ADD16C,1.500000*%
%TD*%
%TA.AperFunction,ComponentPad*%
%ADD17C,1.200000*%
%TD*%
%TA.AperFunction,ViaPad*%
%ADD18C,0.800000*%
%TD*%
%TA.AperFunction,Conductor*%
%ADD19C,0.300000*%
%TD*%
%TA.AperFunction,Conductor*%
%ADD20C,0.250000*%
%TD*%
G04 APERTURE END LIST*
D10*
%TO.P,SW6,*%
%TO.N,*%
X200000000Y-78600000D03*
X200000000Y-76300000D03*
%TD*%
D11*
%TO.P,H5,1,1*%
%TO.N,GND*%
X198000000Y-125000000D03*
%TD*%
%TO.P,H6,1,1*%
%TO.N,GND*%
X98000000Y-125000000D03*
%TD*%
D10*
%TO.P,SW7,*%
%TO.N,*%
X200000000Y-92300000D03*
X200000000Y-90000000D03*
%TD*%
D11*
%TO.P,H3,1,1*%
%TO.N,GND*%
X98000000Y-64000000D03*
%TD*%
D12*
%TO.P,USB1,14,SHELL*%
%TO.N,GND*%
X94384549Y-110640000D03*
D13*
X98594549Y-110640000D03*
D12*
%TO.P,USB1,13,SHELL*%
X94384549Y-102000000D03*
D13*
X98594549Y-102000000D03*
D14*
%TO.P,USB1,*%
%TO.N,*%
X98064549Y-109210000D03*
X98064549Y-103430000D03*
%TD*%
D11*
%TO.P,H4,1,1*%
%TO.N,GND*%
X198000000Y-64000000D03*
%TD*%
D10*
%TO.P,SW5,*%
%TO.N,*%
X110032277Y-61709046D03*
X107732277Y-61709046D03*
%TD*%
D15*
%TO.P,CN2,7,7*%
%TO.N,unconnected-(CN2-Pad7)*%
X97874544Y-115404078D03*
%TO.P,CN2,6,6*%
%TO.N,unconnected-(CN2-Pad6)*%
X100924544Y-121404078D03*
%TO.P,CN2,5,5*%
%TO.N,Net-(CN2-Pad5)*%
X100924544Y-116454078D03*
%TO.P,CN2,4,4*%
%TO.N,Net-(U6-OUTP)*%
X104124544Y-115974078D03*
%TO.P,CN2,3,3*%
X104124544Y-121404078D03*
%TO.P,CN2,2,2*%
%TO.N,unconnected-(CN2-Pad2)*%
X94824544Y-116274078D03*
%TO.P,CN2,1,1*%
%TO.N,Net-(CN2-Pad1)*%
X94824544Y-121404078D03*
D16*
%TO.P,CN2,*%
%TO.N,*%
X102124544Y-118664078D03*
X95124544Y-118664078D03*
%TD*%
D17*
%TO.P,Card1,*%
%TO.N,*%
X192050000Y-79000000D03*
X184050000Y-79000000D03*
%TD*%
D18*
%TO.N,GND*%
X111000000Y-73000000D03*
X111000000Y-75000000D03*
X109000000Y-73000000D03*
X109000000Y-75000000D03*
X107000000Y-73000000D03*
X107000000Y-75000000D03*
X105000000Y-77000000D03*
X105000000Y-75000000D03*
X105000000Y-83000000D03*
X105000000Y-79000000D03*
X105000000Y-81000000D03*
X105000000Y-73000000D03*
X103000000Y-77000000D03*
X103000000Y-75000000D03*
X103000000Y-83000000D03*
X103000000Y-79000000D03*
X103000000Y-81000000D03*
X103000000Y-73000000D03*
%TO.N,+5V*%
X110000000Y-111000000D03*
X115461122Y-96230741D03*
X115475503Y-106981926D03*
X110000000Y-114000000D03*
%TO.N,+BATT*%
X123000000Y-97000000D03*
X134000000Y-94000000D03*
X175000000Y-104000000D03*
X138000000Y-94000000D03*
%TO.N,GND*%
X101000000Y-73000000D03*
X101000000Y-81000000D03*
X109417545Y-78728755D03*
X113000000Y-91000000D03*
X116987701Y-122987701D03*
X109417545Y-80134022D03*
X101000000Y-79000000D03*
X113527025Y-124459190D03*
X111000000Y-125000000D03*
X99000000Y-88000000D03*
X122000000Y-93000000D03*
X141000000Y-76000000D03*
X189000000Y-77000000D03*
X104000000Y-104000000D03*
X101000000Y-83000000D03*
X111625201Y-126449500D03*
X155000000Y-87000000D03*
X104000000Y-109000000D03*
X101000000Y-75000000D03*
X101000000Y-77000000D03*
X108064326Y-78694057D03*
X110000000Y-118000000D03*
X113547223Y-123590646D03*
X108064326Y-80116673D03*
X114425867Y-123590646D03*
X114456165Y-124479389D03*
%TO.N,+3.3V*%
X114700500Y-120000000D03*
X118026000Y-104525000D03*
%TO.N,LCD_BL*%
X137000000Y-76000000D03*
X123000000Y-76000000D03*
%TO.N,EN*%
X117000000Y-84000000D03*
X191000000Y-92000000D03*
%TO.N,BOOT*%
X180000000Y-70013270D03*
X120000000Y-69000000D03*
%TO.N,GPIO_20*%
X117000000Y-107000000D03*
X117000000Y-89000000D03*
%TO.N,GPIO_19*%
X114000000Y-107000000D03*
X116000000Y-89000000D03*
%TO.N,SD_DAT_2*%
X191183008Y-70000000D03*
X102988479Y-66990185D03*
%TO.N,SD_DAT_3*%
X190183008Y-70000000D03*
X104000000Y-67000000D03*
%TO.N,SD_CMD*%
X189183008Y-70000000D03*
X108963102Y-66963102D03*
%TO.N,SD_CLK*%
X187183008Y-70000000D03*
X109975402Y-66975402D03*
%TO.N,SD_DAT_0*%
X184194837Y-70012770D03*
X110987701Y-66987701D03*
%TO.N,SD_DAT_1*%
X112000000Y-67000000D03*
X183183008Y-70000000D03*
%TO.N,I2S_DOUT*%
X107000000Y-89000000D03*
X107000000Y-125000000D03*
%TO.N,I2S_LRCLK*%
X105000000Y-125000000D03*
X105000000Y-89000000D03*
%TO.N,I2S_BCLK*%
X106000000Y-125000000D03*
X106000000Y-89000000D03*
%TO.N,Net-(CHARGE_LED1-K)*%
X129000000Y-103000000D03*
X128000000Y-98000000D03*
%TO.N,LCD_CS*%
X117000000Y-83000000D03*
X149000000Y-88003977D03*
%TO.N,LCD_SCK*%
X117000000Y-82000000D03*
X149000000Y-87004474D03*
%TO.N,LCD_DC*%
X117000000Y-81000000D03*
X149000000Y-86004971D03*
%TO.N,LCD_MOSI*%
X149000000Y-85005468D03*
X117000000Y-80000000D03*
%TO.N,BTN_1*%
X107728122Y-98271878D03*
X117000000Y-76000000D03*
%TO.N,BTN_2*%
X121000000Y-89000000D03*
X119000000Y-112000000D03*
%TO.N,BTN_3*%
X196000000Y-81000000D03*
X123000000Y-79000000D03*
%TO.N,BTN_4*%
X179000000Y-78000000D03*
X123000000Y-78000000D03*
%TO.N,BTN_6*%
X196000000Y-74012299D03*
X123008781Y-74010732D03*
%TO.N,BTN_7*%
X123000000Y-73000000D03*
X194997105Y-73990595D03*
%TO.N,AMP_EN*%
X109000000Y-89000000D03*
X111000000Y-117000000D03*
%TO.N,Net-(U6-OUTN)*%
X109565840Y-120660257D03*
X111412549Y-123187148D03*
%TO.N,LED_RGB_BLUE*%
X181000000Y-93000000D03*
X112018088Y-84993490D03*
%TO.N,LED_RGB_GREEN*%
X181000000Y-90000000D03*
X114000000Y-85000000D03*
%TO.N,LED_RGB_RED*%
X180888000Y-96000000D03*
X111012299Y-85012299D03*
%TD*%
D19*
%TO.N,+3.3V*%
X116025000Y-120000000D02*
X114700500Y-120000000D01*
X118225000Y-117800000D02*
X116025000Y-120000000D01*
X118225000Y-104724000D02*
X118225000Y-117800000D01*
X118026000Y-104525000D02*
X118225000Y-104724000D01*
%TO.N,+5V*%
X115461122Y-96230741D02*
X115461122Y-106967545D01*
X115461122Y-106967545D02*
X115475503Y-106981926D01*
X110000000Y-114000000D02*
X110000000Y-111000000D01*
%TO.N,+BATT*%
X126000000Y-94000000D02*
X123000000Y-97000000D01*
X175000000Y-104000000D02*
X169000000Y-104000000D01*
X169000000Y-104000000D02*
X159000000Y-94000000D01*
X159000000Y-94000000D02*
X138000000Y-94000000D01*
X134000000Y-94000000D02*
X126000000Y-94000000D01*
D20*
%TO.N,LCD_BL*%
X137000000Y-76000000D02*
X123000000Y-76000000D01*
%TO.N,EN*%
X148275000Y-88275000D02*
X144000000Y-84000000D01*
X187728977Y-88728977D02*
X148699695Y-88728977D01*
X148275000Y-88304282D02*
X148275000Y-88275000D01*
X144000000Y-84000000D02*
X117000000Y-84000000D01*
X148699695Y-88728977D02*
X148275000Y-88304282D01*
X191000000Y-92000000D02*
X187728977Y-88728977D01*
%TO.N,BOOT*%
X178986730Y-69000000D02*
X120000000Y-69000000D01*
X180000000Y-70013270D02*
X178986730Y-69000000D01*
%TO.N,GPIO_20*%
X117000000Y-89000000D02*
X117000000Y-107000000D01*
%TO.N,GPIO_19*%
X114000000Y-91000000D02*
X116000000Y-89000000D01*
X114000000Y-107000000D02*
X114000000Y-91000000D01*
%TO.N,SD_DAT_2*%
X191183008Y-70025305D02*
X191183008Y-70000000D01*
X102988479Y-66990185D02*
X102988479Y-67013784D01*
X190020543Y-71187770D02*
X191183008Y-70025305D01*
X191000000Y-70025305D02*
X191000000Y-70000000D01*
X102988479Y-67013784D02*
X107162465Y-71187770D01*
X107162465Y-71187770D02*
X190020543Y-71187770D01*
%TO.N,SD_DAT_3*%
X107737770Y-70737770D02*
X189470543Y-70737770D01*
X104000000Y-67000000D02*
X107737770Y-70737770D01*
X190183008Y-70025305D02*
X190183008Y-70000000D01*
X189470543Y-70737770D02*
X190183008Y-70025305D01*
%TO.N,SD_CMD*%
X110550499Y-65375000D02*
X185375000Y-65375000D01*
X189183008Y-69183008D02*
X189183008Y-70000000D01*
X108963102Y-66962397D02*
X110550499Y-65375000D01*
X108963102Y-66963102D02*
X108963102Y-66962397D01*
X185375000Y-65375000D02*
X189183008Y-69183008D01*
%TO.N,SD_CLK*%
X187183008Y-69183008D02*
X187183008Y-70000000D01*
X111125804Y-65825000D02*
X183825000Y-65825000D01*
X183825000Y-65825000D02*
X187183008Y-69183008D01*
X109975402Y-66975402D02*
X111125804Y-65825000D01*
%TO.N,SD_DAT_0*%
X110987701Y-66987701D02*
X111700402Y-66275000D01*
X111700402Y-66275000D02*
X182275000Y-66275000D01*
X182275000Y-66275000D02*
X184194837Y-68194837D01*
X184194837Y-68194837D02*
X184194837Y-70012770D01*
%TO.N,SD_DAT_1*%
X181000000Y-67000000D02*
X183183008Y-69183008D01*
X112000000Y-67000000D02*
X181000000Y-67000000D01*
X183183008Y-69183008D02*
X183183008Y-70000000D01*
%TO.N,I2S_DOUT*%
X107000000Y-125000000D02*
X107000000Y-89000000D01*
%TO.N,I2S_LRCLK*%
X105000000Y-90000000D02*
X105000000Y-89000000D01*
X105449544Y-90449544D02*
X105000000Y-90000000D01*
X105000000Y-124097674D02*
X105449544Y-123648130D01*
X105449544Y-123648130D02*
X105449544Y-90449544D01*
X105000000Y-125000000D02*
X105000000Y-124097674D01*
%TO.N,I2S_BCLK*%
X106000000Y-125000000D02*
X106000000Y-89000000D01*
%TO.N,Net-(U6-OUTP)*%
X104124544Y-121404078D02*
X104124544Y-115974078D01*
%TO.N,Net-(CHARGE_LED1-K)*%
X129000000Y-103000000D02*
X128000000Y-102000000D01*
X128000000Y-102000000D02*
X128000000Y-98000000D01*
%TO.N,LCD_CS*%
X148974198Y-88003977D02*
X149000000Y-88003977D01*
X117000000Y-83000000D02*
X143970221Y-83000000D01*
X143970221Y-83000000D02*
X148974198Y-88003977D01*
%TO.N,LCD_SCK*%
X117000000Y-82000000D02*
X143969724Y-82000000D01*
X148974198Y-87004474D02*
X149000000Y-87004474D01*
X143969724Y-82000000D02*
X148974198Y-87004474D01*
%TO.N,LCD_DC*%
X117000000Y-81000000D02*
X143969227Y-81000000D01*
X148974198Y-86004971D02*
X149000000Y-86004971D01*
X143969227Y-81000000D02*
X148974198Y-86004971D01*
%TO.N,LCD_MOSI*%
X149000000Y-85000000D02*
X144000000Y-80000000D01*
X144000000Y-80000000D02*
X117000000Y-80000000D01*
X149000000Y-85005468D02*
X149000000Y-85000000D01*
%TO.N,BTN_1*%
X117000000Y-76000000D02*
X117000000Y-78000000D01*
X108000000Y-98000000D02*
X107728122Y-98271878D01*
X108000000Y-87000000D02*
X108000000Y-98000000D01*
X117000000Y-78000000D02*
X108000000Y-87000000D01*
%TO.N,BTN_2*%
X119000000Y-91000000D02*
X119000000Y-112000000D01*
X121000000Y-89000000D02*
X119000000Y-91000000D01*
%TO.N,BTN_3*%
X143636396Y-79000000D02*
X123000000Y-79000000D01*
X145636396Y-81000000D02*
X143636396Y-79000000D01*
X196000000Y-81000000D02*
X145636396Y-81000000D01*
%TO.N,BTN_4*%
X123000000Y-78000000D02*
X179000000Y-78000000D01*
%TO.N,BTN_6*%
X123723049Y-74725000D02*
X123008781Y-74010732D01*
X196000000Y-74012299D02*
X195287299Y-74725000D01*
X195287299Y-74725000D02*
X123723049Y-74725000D01*
%TO.N,BTN_7*%
X194997105Y-73990595D02*
X194006510Y-73000000D01*
X194006510Y-73000000D02*
X123000000Y-73000000D01*
%TO.N,AMP_EN*%
X111000000Y-117000000D02*
X109000000Y-115000000D01*
X109000000Y-115000000D02*
X109000000Y-89000000D01*
%TO.N,Net-(U6-OUTN)*%
X109660257Y-120660257D02*
X111412549Y-122412549D01*
X111412549Y-122412549D02*
X111412549Y-123187148D01*
X109565840Y-120660257D02*
X109660257Y-120660257D01*
%TO.N,LED_RGB_BLUE*%
X112749598Y-85725000D02*
X144422926Y-85725000D01*
X144422926Y-85725000D02*
X148326903Y-89628977D01*
X177628977Y-89628977D02*
X181000000Y-93000000D01*
X112018088Y-84993490D02*
X112749598Y-85725000D01*
X148326903Y-89628977D02*
X177628977Y-89628977D01*
%TO.N,LED_RGB_GREEN*%
X114000000Y-85000000D02*
X144334322Y-85000000D01*
X180178977Y-89178977D02*
X181000000Y-90000000D01*
X144334322Y-85000000D02*
X148513299Y-89178977D01*
X148513299Y-89178977D02*
X180178977Y-89178977D01*
%TO.N,LED_RGB_RED*%
X112175000Y-86175000D02*
X144175000Y-86175000D01*
X111012299Y-85012299D02*
X112175000Y-86175000D01*
X144175000Y-86175000D02*
X148078977Y-90078977D01*
X148078977Y-90078977D02*
X174966977Y-90078977D01*
X174966977Y-90078977D02*
X180888000Y-96000000D01*
%TD*%
%TA.AperFunction,Conductor*%
%TO.N,GND*%
G36*
X198240771Y-59920933D02*
G01*
X198246124Y-59921402D01*
X198629958Y-59971934D01*
X198635258Y-59972869D01*
X199013213Y-60056660D01*
X199018432Y-60058059D01*
X199387631Y-60174468D01*
X199392716Y-60176319D01*
X199455916Y-60202497D01*
X199750380Y-60324468D01*
X199755250Y-60326739D01*
X200098662Y-60505508D01*
X200103311Y-60508193D01*
X200429817Y-60716201D01*
X200434236Y-60719295D01*
X200598619Y-60845431D01*
X200737264Y-60951818D01*
X200741371Y-60954969D01*
X200745500Y-60958434D01*
X201030918Y-61219972D01*
X201034732Y-61223785D01*
X201121199Y-61318148D01*
X201296276Y-61509213D01*
X201299754Y-61513358D01*
X201474355Y-61740904D01*
X201530844Y-61814523D01*
X201535407Y-61820469D01*
X201538511Y-61824902D01*
X201746508Y-62151395D01*
X201749214Y-62156081D01*
X201808702Y-62270357D01*
X201926195Y-62496061D01*
X201927965Y-62499460D01*
X201930246Y-62504353D01*
X202078392Y-62862012D01*
X202080239Y-62867088D01*
X202140002Y-63056635D01*
X202196646Y-63236286D01*
X202198046Y-63241514D01*
X202281832Y-63619459D01*
X202282772Y-63624788D01*
X202333296Y-64008581D01*
X202333768Y-64013972D01*
X202350796Y-64404028D01*
X202350796Y-64479305D01*
X202350797Y-64479318D01*
X202350797Y-124403426D01*
X202333791Y-124792877D01*
X202333319Y-124798268D01*
X202282789Y-125182063D01*
X202281849Y-125187392D01*
X202198060Y-125565334D01*
X202196659Y-125570561D01*
X202080250Y-125939757D01*
X202078399Y-125944842D01*
X201930255Y-126302487D01*
X201927969Y-126307391D01*
X201749222Y-126650759D01*
X201746516Y-126655446D01*
X201538519Y-126981930D01*
X201535416Y-126986362D01*
X201299752Y-127293486D01*
X201296273Y-127297632D01*
X201034744Y-127583037D01*
X201030918Y-127586864D01*
X200745503Y-127848396D01*
X200741358Y-127851874D01*
X200434248Y-128087527D01*
X200429815Y-128090631D01*
X200103317Y-128298632D01*
X200098631Y-128301337D01*
X199755266Y-128480081D01*
X199750361Y-128482368D01*
X199392712Y-128630511D01*
X199387627Y-128632361D01*
X199018434Y-128748767D01*
X199013207Y-128750167D01*
X198635264Y-128833954D01*
X198629935Y-128834894D01*
X198246140Y-128885421D01*
X198240749Y-128885893D01*
X198183138Y-128888408D01*
X197851297Y-128902897D01*
X197850572Y-128902929D01*
X164319940Y-128902929D01*
X164316195Y-128902816D01*
X164020526Y-128884925D01*
X164013087Y-128884022D01*
X163723583Y-128830965D01*
X163716307Y-128829172D01*
X163435312Y-128741606D01*
X163428306Y-128738949D01*
X163159915Y-128618154D01*
X163153284Y-128614674D01*
X163027342Y-128538538D01*
X162901406Y-128462405D01*
X162895239Y-128458148D01*
X162663551Y-128276630D01*
X162657942Y-128271661D01*
X162591486Y-128205205D01*
X162449820Y-128063538D01*
X162444859Y-128057938D01*
X162263333Y-127826237D01*
X162259086Y-127820082D01*
X162232947Y-127776843D01*
X162106815Y-127568196D01*
X162103338Y-127561570D01*
X161982539Y-127293168D01*
X161979891Y-127286187D01*
X161892320Y-127005165D01*
X161890530Y-126997901D01*
X161837475Y-126708396D01*
X161836572Y-126700957D01*
X161818665Y-126404975D01*
X161818552Y-126401230D01*
X161818552Y-125000002D01*
X194645080Y-125000002D01*
X194664746Y-125362728D01*
X194723517Y-125721214D01*
X194723519Y-125721222D01*
X194820695Y-126071220D01*
X194820697Y-126071227D01*
X194955152Y-126408684D01*
X194955161Y-126408702D01*
X195125316Y-126729647D01*
X195125318Y-126729651D01*
X195329170Y-127030309D01*
X195329177Y-127030319D01*
X195460968Y-127185475D01*
X195460969Y-127185476D01*
X196607413Y-126039032D01*
X196668736Y-126005547D01*
X196738428Y-126010531D01*
X196789381Y-126046179D01*
X196865130Y-126134870D01*
X196928855Y-126189296D01*
X196953816Y-126210615D01*
X196992009Y-126269122D01*
X196992507Y-126338990D01*
X196960965Y-126392586D01*
X195811889Y-127541663D01*
X195811889Y-127541664D01*
X195828070Y-127556992D01*
X196117266Y-127776832D01*
X196117282Y-127776843D01*
X196428522Y-127964109D01*
X196428535Y-127964116D01*
X196758205Y-128116639D01*
X196758210Y-128116640D01*
X197102461Y-128232632D01*
X197457235Y-128310724D01*
X197818366Y-128349999D01*
X197818374Y-128350000D01*
X198181626Y-128350000D01*
X198181633Y-128349999D01*
X198542764Y-128310724D01*
X198897538Y-128232632D01*
X199241789Y-128116640D01*
X199241794Y-128116639D01*
X199571464Y-127964116D01*
X199571477Y-127964109D01*
X199882717Y-127776843D01*
X199882733Y-127776832D01*
X200171924Y-127556996D01*
X200188109Y-127541663D01*
X199039033Y-126392586D01*
X199005548Y-126331263D01*
X199010532Y-126261571D01*
X199046180Y-126210617D01*
X199134870Y-126134870D01*
X199210617Y-126046180D01*
X199269121Y-126007990D01*
X199338989Y-126007490D01*
X199392586Y-126039033D01*
X200539029Y-127185475D01*
X200539030Y-127185475D01*
X200670822Y-127030319D01*
X200670829Y-127030309D01*
X200874681Y-126729651D01*
X200874683Y-126729647D01*
X201044838Y-126408702D01*
X201044847Y-126408684D01*
X201179302Y-126071227D01*
X201179304Y-126071220D01*
X201276480Y-125721222D01*
X201276482Y-125721214D01*
X201335253Y-125362728D01*
X201354920Y-125000002D01*
X201354920Y-124999997D01*
X201335253Y-124637271D01*
X201276482Y-124278785D01*
X201276480Y-124278777D01*
X201179304Y-123928779D01*
X201179302Y-123928772D01*
X201044847Y-123591315D01*
X201044838Y-123591297D01*
X200874683Y-123270352D01*
X200874681Y-123270348D01*
X200670829Y-122969690D01*
X200670822Y-122969680D01*
X200539030Y-122814523D01*
X200539029Y-122814522D01*
X199392586Y-123960965D01*
X199331263Y-123994450D01*
X199261571Y-123989466D01*
X199210615Y-123953816D01*
X199151824Y-123884981D01*
X199134870Y-123865130D01*
X199046179Y-123789381D01*
X199007989Y-123730878D01*
X199007489Y-123661010D01*
X199039032Y-123607413D01*
X200188109Y-122458335D01*
X200188109Y-122458334D01*
X200171929Y-122443007D01*
X199882733Y-122223167D01*
X199882717Y-122223156D01*
X199571477Y-122035890D01*
X199571464Y-122035883D01*
X199241794Y-121883360D01*
X199241789Y-121883359D01*
X198897538Y-121767367D01*
X198542764Y-121689275D01*
X198181633Y-121650000D01*
X197818366Y-121650000D01*
X197457235Y-121689275D01*
X197102461Y-121767367D01*
X196758210Y-121883359D01*
X196758205Y-121883360D01*
X196428535Y-122035883D01*
X196428522Y-122035890D01*
X196117282Y-122223156D01*
X196117266Y-122223167D01*
X195828071Y-122443006D01*
X195828070Y-122443007D01*
X195811889Y-122458334D01*
X195811889Y-122458336D01*
X196960966Y-123607413D01*
X196994451Y-123668736D01*
X196989467Y-123738428D01*
X196953817Y-123789384D01*
X196865130Y-123865130D01*
X196789384Y-123953817D01*
X196730877Y-123992010D01*
X196661009Y-123992508D01*
X196607413Y-123960966D01*
X195460969Y-122814522D01*
X195329170Y-122969690D01*
X195329169Y-122969691D01*
X195125313Y-123270357D01*
X194955161Y-123591297D01*
X194955152Y-123591315D01*
X194820697Y-123928772D01*
X194820695Y-123928779D01*
X194723519Y-124278777D01*
X194723517Y-124278785D01*
X194664746Y-124637271D01*
X194645080Y-124999997D01*
X194645080Y-125000002D01*
X161818552Y-125000002D01*
X161818552Y-105621760D01*
X161818553Y-105621757D01*
X161818552Y-105607306D01*
X161818629Y-105607043D01*
X161818629Y-105555865D01*
X161818630Y-105555865D01*
X161818629Y-105383894D01*
X161784913Y-105041609D01*
X161717810Y-104704278D01*
X161707275Y-104669551D01*
X161645887Y-104467190D01*
X161617965Y-104375147D01*
X161486341Y-104057388D01*
X161324204Y-103754061D01*
X161324200Y-103754056D01*
X161324192Y-103754042D01*
X161133115Y-103468084D01*
X161133112Y-103468080D01*
X160914916Y-103202214D01*
X160671714Y-102959019D01*
X160405852Y-102740837D01*
X160405844Y-102740831D01*
X160405840Y-102740828D01*
X160340164Y-102696946D01*
X160119871Y-102549755D01*
X160119864Y-102549751D01*
X160119861Y-102549749D01*
X159966512Y-102467785D01*
X159816530Y-102387620D01*
X159498761Y-102256001D01*
X159169638Y-102156169D01*
X159169635Y-102156168D01*
X159169634Y-102156168D01*
X159068425Y-102136038D01*
X158832303Y-102089074D01*
X158832294Y-102089073D01*
X158633532Y-102069500D01*
X158490015Y-102055367D01*
X158490012Y-102055367D01*
X158318044Y-102055370D01*
X137275758Y-102055370D01*
X137274231Y-102055423D01*
X137141065Y-102055423D01*
X137141064Y-102055423D01*
X137141062Y-102055423D01*
X137062288Y-102063181D01*
X136798796Y-102089130D01*
X136798793Y-102089130D01*
X136461455Y-102156227D01*
X136132332Y-102256063D01*
X135814574Y-102387678D01*
X135511257Y-102549802D01*
X135511250Y-102549805D01*
X135225284Y-102740878D01*
X135225277Y-102740884D01*
X134959417Y-102959065D01*
X134959408Y-102959073D01*
X134716216Y-103202260D01*
X134498028Y-103468116D01*
X134306936Y-103754099D01*
X134144808Y-104057414D01*
X134013182Y-104375175D01*
X133913347Y-104704278D01*
X133913343Y-104704295D01*
X133846242Y-105041610D01*
X133846241Y-105041618D01*
X133812525Y-105383901D01*
X133812525Y-105555865D01*
X133812524Y-105631752D01*
X133812524Y-126362193D01*
X133812525Y-126362198D01*
X133812525Y-126401544D01*
X133812412Y-126405290D01*
X133794523Y-126700957D01*
X133793620Y-126708396D01*
X133740564Y-126997904D01*
X133738771Y-127005180D01*
X133651208Y-127286173D01*
X133648551Y-127293180D01*
X133527756Y-127561570D01*
X133524274Y-127568205D01*
X133372005Y-127820087D01*
X133367748Y-127826254D01*
X133186232Y-128057941D01*
X133181263Y-128063550D01*
X132973149Y-128271664D01*
X132967540Y-128276633D01*
X132735850Y-128458151D01*
X132729682Y-128462408D01*
X132477803Y-128614675D01*
X132471167Y-128618158D01*
X132202777Y-128738952D01*
X132195770Y-128741609D01*
X131914777Y-128829172D01*
X131907501Y-128830965D01*
X131617993Y-128884021D01*
X131610554Y-128884924D01*
X131326686Y-128902098D01*
X131314821Y-128902816D01*
X131311079Y-128902929D01*
X97851297Y-128902929D01*
X97461842Y-128885925D01*
X97456451Y-128885453D01*
X97072654Y-128834925D01*
X97067325Y-128833985D01*
X96689382Y-128750198D01*
X96684155Y-128748797D01*
X96314954Y-128632388D01*
X96309869Y-128630537D01*
X95952226Y-128482397D01*
X95947321Y-128480110D01*
X95603944Y-128301360D01*
X95599258Y-128298654D01*
X95272763Y-128090655D01*
X95268330Y-128087551D01*
X94961218Y-127851897D01*
X94957073Y-127848419D01*
X94671657Y-127586885D01*
X94667831Y-127583058D01*
X94406300Y-127297650D01*
X94402821Y-127293504D01*
X94167151Y-126986374D01*
X94164057Y-126981955D01*
X93956046Y-126655446D01*
X93953358Y-126650789D01*
X93827324Y-126408684D01*
X93774601Y-126307404D01*
X93772314Y-126302500D01*
X93624170Y-125944851D01*
X93622319Y-125939767D01*
X93505909Y-125570568D01*
X93504508Y-125565341D01*
X93420909Y-125188259D01*
X93420717Y-125187392D01*
X93419781Y-125182086D01*
X93369247Y-124798257D01*
X93368777Y-124792897D01*
X93351797Y-124404021D01*
X93351797Y-122143350D01*
X93371482Y-122076312D01*
X93424286Y-122030557D01*
X93493444Y-122020613D01*
X93557000Y-122049638D01*
X93565666Y-122057914D01*
X93669485Y-122167131D01*
X93796812Y-122255753D01*
X93836493Y-122283372D01*
X93836494Y-122283372D01*
X93836495Y-122283373D01*
X94023486Y-122363618D01*
X94222803Y-122404578D01*
X95375287Y-122404578D01*
X95451134Y-122396864D01*
X95526982Y-122389152D01*
X95650617Y-122350360D01*
X95720473Y-122349073D01*
X95779937Y-122385758D01*
X95810129Y-122448768D01*
X95810752Y-122457199D01*
X96960966Y-123607413D01*
X96994451Y-123668736D01*
X96989467Y-123738428D01*
X96953817Y-123789384D01*
X96865130Y-123865130D01*
X96789384Y-123953817D01*
X96730877Y-123992010D01*
X96661009Y-123992508D01*
X96607413Y-123960966D01*
X95460969Y-122814522D01*
X95329170Y-122969690D01*
X95329169Y-122969691D01*
X95125313Y-123270357D01*
X94955161Y-123591297D01*
X94955152Y-123591315D01*
X94820697Y-123928772D01*
X94820695Y-123928779D01*
X94723519Y-124278777D01*
X94723517Y-124278785D01*
X94664746Y-124637271D01*
X94645080Y-124999997D01*
X94645080Y-125000002D01*
X94664746Y-125362728D01*
X94723517Y-125721214D01*
X94723519Y-125721222D01*
X94820695Y-126071220D01*
X94820697Y-126071227D01*
X94955152Y-126408684D01*
X94955161Y-126408702D01*
X95125316Y-126729647D01*
X95125318Y-126729651D01*
X95329170Y-127030309D01*
X95329177Y-127030319D01*
X95460968Y-127185475D01*
X95460969Y-127185476D01*
X96607413Y-126039032D01*
X96668736Y-126005547D01*
X96738428Y-126010531D01*
X96789381Y-126046179D01*
X96865130Y-126134870D01*
X96928855Y-126189296D01*
X96953816Y-126210615D01*
X96992009Y-126269122D01*
X96992507Y-126338990D01*
X96960965Y-126392586D01*
X95811889Y-127541663D01*
X95811889Y-127541664D01*
X95828070Y-127556992D01*
X96117266Y-127776832D01*
X96117282Y-127776843D01*
X96428522Y-127964109D01*
X96428535Y-127964116D01*
X96758205Y-128116639D01*
X96758210Y-128116640D01*
X97102461Y-128232632D01*
X97457235Y-128310724D01*
X97818366Y-128349999D01*
X97818374Y-128350000D01*
X98181626Y-128350000D01*
X98181633Y-128349999D01*
X98542764Y-128310724D01*
X98897538Y-128232632D01*
X99241789Y-128116640D01*
X99241794Y-128116639D01*
X99571464Y-127964116D01*
X99571477Y-127964109D01*
X99882717Y-127776843D01*
X99882733Y-127776832D01*
X100171924Y-127556996D01*
X100188109Y-127541663D01*
X99039033Y-126392586D01*
X99005548Y-126331263D01*
X99010532Y-126261571D01*
X99046180Y-126210617D01*
X99134870Y-126134870D01*
X99210617Y-126046180D01*
X99269121Y-126007990D01*
X99338989Y-126007490D01*
X99392586Y-126039033D01*
X100539029Y-127185475D01*
X100539030Y-127185475D01*
X100670822Y-127030319D01*
X100670829Y-127030309D01*
X100874681Y-126729651D01*
X100874683Y-126729647D01*
X101044838Y-126408702D01*
X101044847Y-126408684D01*
X101179302Y-126071227D01*
X101179304Y-126071220D01*
X101276480Y-125721222D01*
X101276482Y-125721214D01*
X101335253Y-125362728D01*
X101354920Y-125000002D01*
X101354920Y-124999997D01*
X101335253Y-124637271D01*
X101276482Y-124278785D01*
X101276480Y-124278777D01*
X101179304Y-123928779D01*
X101179302Y-123928772D01*
X101044847Y-123591315D01*
X101044838Y-123591297D01*
X100874683Y-123270352D01*
X100874681Y-123270348D01*
X100670829Y-122969690D01*
X100670822Y-122969680D01*
X100539030Y-122814523D01*
X100539029Y-122814522D01*
X99392586Y-123960965D01*
X99331263Y-123994450D01*
X99261571Y-123989466D01*
X99210615Y-123953816D01*
X99151824Y-123884981D01*
X99134870Y-123865130D01*
X99046179Y-123789381D01*
X99007989Y-123730878D01*
X99007489Y-123661010D01*
X99039032Y-123607413D01*
X100208439Y-122438005D01*
X100269762Y-122404520D01*
X100316511Y-122404251D01*
X100316543Y-122403942D01*
X100319420Y-122404234D01*
X100321084Y-122404225D01*
X100322801Y-122404578D01*
X100322803Y-122404578D01*
X101475287Y-122404578D01*
X101626983Y-122389152D01*
X101821123Y-122328240D01*
X101821124Y-122328239D01*
X101821132Y-122328237D01*
X101999046Y-122229487D01*
X102153439Y-122096944D01*
X102277992Y-121936036D01*
X102367604Y-121753349D01*
X102403760Y-121613705D01*
X102439618Y-121553743D01*
X102502204Y-121522684D01*
X102571648Y-121530392D01*
X102625900Y-121574421D01*
X102646370Y-121626009D01*
X102650987Y-121656144D01*
X102650989Y-121656153D01*
X102721655Y-121846959D01*
X102721657Y-121846962D01*
X102721658Y-121846965D01*
X102744343Y-121883360D01*
X102829289Y-122019645D01*
X102829291Y-122019647D01*
X102829292Y-122019649D01*
X102969485Y-122167131D01*
X103096812Y-122255753D01*
X103136493Y-122283372D01*
X103136494Y-122283372D01*
X103136495Y-122283373D01*
X103323486Y-122363618D01*
X103522803Y-122404578D01*
X104675286Y-122404578D01*
X104687498Y-122403336D01*
X104756185Y-122416137D01*
X104807048Y-122464040D01*
X104824044Y-122526700D01*
X104824043Y-123337676D01*
X104804358Y-123404716D01*
X104787724Y-123425357D01*
X104616208Y-123596873D01*
X104603951Y-123606694D01*
X104604134Y-123606915D01*
X104598123Y-123611887D01*
X104550772Y-123662310D01*
X104529889Y-123683193D01*
X104529877Y-123683206D01*
X104525621Y-123688691D01*
X104521837Y-123693121D01*
X104489937Y-123727092D01*
X104489936Y-123727094D01*
X104480284Y-123744650D01*
X104469610Y-123760900D01*
X104457329Y-123776735D01*
X104457324Y-123776742D01*
X104438815Y-123819512D01*
X104436245Y-123824758D01*
X104413803Y-123865580D01*
X104408822Y-123884981D01*
X104402521Y-123903384D01*
X104394562Y-123921776D01*
X104394561Y-123921779D01*
X104387271Y-123967801D01*
X104386087Y-123973520D01*
X104374501Y-124018646D01*
X104374500Y-124018656D01*
X104374500Y-124038690D01*
X104372973Y-124058089D01*
X104369840Y-124077868D01*
X104369840Y-124077869D01*
X104374225Y-124124257D01*
X104374500Y-124130095D01*
X104374500Y-124301312D01*
X104354815Y-124368351D01*
X104342650Y-124384284D01*
X104267466Y-124467784D01*
X104172821Y-124631715D01*
X104172818Y-124631722D01*
X104118704Y-124798269D01*
X104114326Y-124811744D01*
X104094540Y-125000000D01*
X104114326Y-125188256D01*
X104114327Y-125188259D01*
X104172818Y-125368277D01*
X104172821Y-125368284D01*
X104267467Y-125532216D01*
X104394129Y-125672888D01*
X104547265Y-125784148D01*
X104547270Y-125784151D01*
X104720192Y-125861142D01*
X104720197Y-125861144D01*
X104905354Y-125900500D01*
X104905355Y-125900500D01*
X105094644Y-125900500D01*
X105094646Y-125900500D01*
X105279803Y-125861144D01*
X105449566Y-125785559D01*
X105518813Y-125776275D01*
X105550430Y-125785557D01*
X105720197Y-125861144D01*
X105905354Y-125900500D01*
X105905355Y-125900500D01*
X106094644Y-125900500D01*
X106094646Y-125900500D01*
X106279803Y-125861144D01*
X106449566Y-125785559D01*
X106518813Y-125776275D01*
X106550430Y-125785557D01*
X106720197Y-125861144D01*
X106905354Y-125900500D01*
X106905355Y-125900500D01*
X107094644Y-125900500D01*
X107094646Y-125900500D01*
X107279803Y-125861144D01*
X107452730Y-125784151D01*
X107605871Y-125672888D01*
X107732533Y-125532216D01*
X107827179Y-125368284D01*
X107885674Y-125188256D01*
X107905460Y-125000000D01*
X107885674Y-124811744D01*
X107827179Y-124631716D01*
X107732533Y-124467784D01*
X107732532Y-124467784D01*
X107657350Y-124384284D01*
X107627120Y-124321292D01*
X107625500Y-124301312D01*
X107625500Y-120660257D01*
X108660380Y-120660257D01*
X108680166Y-120848513D01*
X108680167Y-120848516D01*
X108738658Y-121028534D01*
X108738661Y-121028541D01*
X108833307Y-121192473D01*
X108910102Y-121277762D01*
X108959969Y-121333145D01*
X109113105Y-121444405D01*
X109113110Y-121444408D01*
X109286032Y-121521399D01*
X109286037Y-121521401D01*
X109471194Y-121560757D01*
X109471195Y-121560757D01*
X109624804Y-121560757D01*
X109691843Y-121580442D01*
X109712485Y-121597076D01*
X110645797Y-122530388D01*
X110679282Y-122591711D01*
X110674298Y-122661403D01*
X110665503Y-122680069D01*
X110585370Y-122818863D01*
X110585367Y-122818870D01*
X110536363Y-122969690D01*
X110526875Y-122998892D01*
X110507089Y-123187148D01*
X110526875Y-123375404D01*
X110526876Y-123375407D01*
X110585367Y-123555425D01*
X110585370Y-123555432D01*
X110680016Y-123719364D01*
X110806678Y-123860036D01*
X110959814Y-123971296D01*
X110959819Y-123971299D01*
X111132741Y-124048290D01*
X111132746Y-124048292D01*
X111317903Y-124087648D01*
X111317904Y-124087648D01*
X111507193Y-124087648D01*
X111507195Y-124087648D01*
X111692352Y-124048292D01*
X111865279Y-123971299D01*
X112018420Y-123860036D01*
X112145082Y-123719364D01*
X112239728Y-123555432D01*
X112298223Y-123375404D01*
X112318009Y-123187148D01*
X112298223Y-122998892D01*
X112239728Y-122818864D01*
X112145082Y-122654932D01*
X112070945Y-122572595D01*
X112040716Y-122509605D01*
X112039647Y-122477946D01*
X112040218Y-122471891D01*
X112040221Y-122471882D01*
X112038049Y-122402752D01*
X112038049Y-122373199D01*
X112037178Y-122366308D01*
X112036721Y-122360494D01*
X112035258Y-122313921D01*
X112029671Y-122294693D01*
X112025723Y-122275633D01*
X112023212Y-122255753D01*
X112006061Y-122212436D01*
X112004168Y-122206907D01*
X111991167Y-122162158D01*
X111991165Y-122162155D01*
X111980972Y-122144920D01*
X111972410Y-122127443D01*
X111965036Y-122108819D01*
X111956409Y-122096945D01*
X111937628Y-122071094D01*
X111934437Y-122066235D01*
X111910721Y-122026132D01*
X111910714Y-122026123D01*
X111896555Y-122011964D01*
X111883917Y-121997168D01*
X111872143Y-121980962D01*
X111836237Y-121951258D01*
X111831925Y-121947335D01*
X110493709Y-120609118D01*
X110460226Y-120547798D01*
X110458074Y-120534420D01*
X110451514Y-120472001D01*
X110393019Y-120291973D01*
X110298373Y-120128041D01*
X110171711Y-119987369D01*
X110171710Y-119987368D01*
X110018574Y-119876108D01*
X110018569Y-119876105D01*
X109845647Y-119799114D01*
X109845642Y-119799112D01*
X109699840Y-119768122D01*
X109660486Y-119759757D01*
X109471194Y-119759757D01*
X109438737Y-119766655D01*
X109286037Y-119799112D01*
X109286032Y-119799114D01*
X109113110Y-119876105D01*
X109113105Y-119876108D01*
X108959969Y-119987368D01*
X108833306Y-120128042D01*
X108738661Y-120291972D01*
X108738658Y-120291979D01*
X108689089Y-120444538D01*
X108680166Y-120472001D01*
X108660380Y-120660257D01*
X107625500Y-120660257D01*
X107625500Y-99296378D01*
X107645185Y-99229339D01*
X107697989Y-99183584D01*
X107749500Y-99172378D01*
X107822766Y-99172378D01*
X107822768Y-99172378D01*
X108007925Y-99133022D01*
X108180852Y-99056029D01*
X108180855Y-99056026D01*
X108186485Y-99052777D01*
X108187654Y-99054802D01*
X108243406Y-99034902D01*
X108311461Y-99050719D01*
X108360162Y-99100819D01*
X108374500Y-99158699D01*
X108374500Y-114917255D01*
X108372775Y-114932872D01*
X108373061Y-114932899D01*
X108372326Y-114940665D01*
X108374500Y-115009814D01*
X108374500Y-115039343D01*
X108374501Y-115039360D01*
X108375368Y-115046231D01*
X108375826Y-115052050D01*
X108377290Y-115098624D01*
X108377291Y-115098627D01*
X108382880Y-115117867D01*
X108386824Y-115136911D01*
X108389336Y-115156791D01*
X108406490Y-115200119D01*
X108408382Y-115205647D01*
X108421381Y-115250388D01*
X108431580Y-115267634D01*
X108440136Y-115285100D01*
X108447514Y-115303732D01*
X108474898Y-115341423D01*
X108478106Y-115346307D01*
X108501827Y-115386416D01*
X108501833Y-115386424D01*
X108515990Y-115400580D01*
X108528627Y-115415375D01*
X108540406Y-115431587D01*
X108561052Y-115448667D01*
X108576309Y-115461288D01*
X108580620Y-115465210D01*
X109705054Y-116589645D01*
X110061038Y-116945629D01*
X110094523Y-117006952D01*
X110096678Y-117020348D01*
X110104968Y-117099227D01*
X110114326Y-117188256D01*
X110114327Y-117188259D01*
X110172818Y-117368277D01*
X110172821Y-117368284D01*
X110267467Y-117532216D01*
X110341958Y-117614946D01*
X110394129Y-117672888D01*
X110547265Y-117784148D01*
X110547270Y-117784151D01*
X110720192Y-117861142D01*
X110720197Y-117861144D01*
X110905354Y-117900500D01*
X110905355Y-117900500D01*
X111094644Y-117900500D01*
X111094646Y-117900500D01*
X111279803Y-117861144D01*
X111452730Y-117784151D01*
X111605871Y-117672888D01*
X111732533Y-117532216D01*
X111827179Y-117368284D01*
X111885674Y-117188256D01*
X111905460Y-117000000D01*
X111885674Y-116811744D01*
X111827179Y-116631716D01*
X111732533Y-116467784D01*
X111605871Y-116327112D01*
X111605870Y-116327111D01*
X111452734Y-116215851D01*
X111452729Y-116215848D01*
X111279807Y-116138857D01*
X111279802Y-116138855D01*
X111134001Y-116107865D01*
X111094646Y-116099500D01*
X111094645Y-116099500D01*
X111035453Y-116099500D01*
X110968414Y-116079815D01*
X110947772Y-116063181D01*
X109996772Y-115112181D01*
X109963287Y-115050858D01*
X109968271Y-114981166D01*
X110010143Y-114925233D01*
X110075607Y-114900816D01*
X110084453Y-114900500D01*
X110094644Y-114900500D01*
X110094646Y-114900500D01*
X110279803Y-114861144D01*
X110452730Y-114784151D01*
X110605871Y-114672888D01*
X110732533Y-114532216D01*
X110827179Y-114368284D01*
X110885674Y-114188256D01*
X110905460Y-114000000D01*
X110885674Y-113811744D01*
X110827179Y-113631716D01*
X110732533Y-113467784D01*
X110682350Y-113412050D01*
X110652120Y-113349058D01*
X110650500Y-113329078D01*
X110650500Y-111670921D01*
X110670185Y-111603882D01*
X110682351Y-111587948D01*
X110732533Y-111532216D01*
X110827179Y-111368284D01*
X110885674Y-111188256D01*
X110905460Y-111000000D01*
X110885674Y-110811744D01*
X110827179Y-110631716D01*
X110732533Y-110467784D01*
X110605871Y-110327112D01*
X110596516Y-110320315D01*
X110452734Y-110215851D01*
X110452729Y-110215848D01*
X110279807Y-110138857D01*
X110279802Y-110138855D01*
X110134001Y-110107865D01*
X110094646Y-110099500D01*
X109905354Y-110099500D01*
X109905352Y-110099500D01*
X109775280Y-110127147D01*
X109705613Y-110121831D01*
X109649880Y-110079693D01*
X109625775Y-110014113D01*
X109625500Y-110005857D01*
X109625500Y-107000000D01*
X113094540Y-107000000D01*
X113114326Y-107188256D01*
X113114327Y-107188259D01*
X113172818Y-107368277D01*
X113172821Y-107368284D01*
X113267467Y-107532216D01*
X113346261Y-107619725D01*
X113394129Y-107672888D01*
X113547265Y-107784148D01*
X113547270Y-107784151D01*
X113720192Y-107861142D01*
X113720197Y-107861144D01*
X113905354Y-107900500D01*
X113905355Y-107900500D01*
X114094644Y-107900500D01*
X114094646Y-107900500D01*
X114279803Y-107861144D01*
X114452730Y-107784151D01*
X114605871Y-107672888D01*
X114653740Y-107619724D01*
X114713223Y-107583077D01*
X114783080Y-107584406D01*
X114838038Y-107619725D01*
X114869632Y-107654814D01*
X115022768Y-107766074D01*
X115022773Y-107766077D01*
X115195695Y-107843068D01*
X115195700Y-107843070D01*
X115380857Y-107882426D01*
X115380858Y-107882426D01*
X115570147Y-107882426D01*
X115570149Y-107882426D01*
X115755306Y-107843070D01*
X115928233Y-107766077D01*
X116081374Y-107654814D01*
X116137465Y-107592517D01*
X116196950Y-107555870D01*
X116266807Y-107557200D01*
X116321764Y-107592519D01*
X116394129Y-107672888D01*
X116547265Y-107784148D01*
X116547270Y-107784151D01*
X116720192Y-107861142D01*
X116720197Y-107861144D01*
X116905354Y-107900500D01*
X116905355Y-107900500D01*
X117094644Y-107900500D01*
X117094646Y-107900500D01*
X117279803Y-107861144D01*
X117400066Y-107807598D01*
X117469313Y-107798313D01*
X117532590Y-107827941D01*
X117569804Y-107887076D01*
X117574500Y-107920878D01*
X117574500Y-117479192D01*
X117554815Y-117546231D01*
X117538181Y-117566873D01*
X115791873Y-119313181D01*
X115730550Y-119346666D01*
X115704192Y-119349500D01*
X115377475Y-119349500D01*
X115310436Y-119329815D01*
X115304590Y-119325818D01*
X115153234Y-119215851D01*
X115153229Y-119215848D01*
X114980307Y-119138857D01*
X114980302Y-119138855D01*
X114834501Y-119107865D01*
X114795146Y-119099500D01*
X114605854Y-119099500D01*
X114573397Y-119106398D01*
X114420697Y-119138855D01*
X114420692Y-119138857D01*
X114247770Y-119215848D01*
X114247765Y-119215851D01*
X114094629Y-119327111D01*
X113967966Y-119467785D01*
X113873321Y-119631715D01*
X113873318Y-119631722D01*
X113814827Y-119811740D01*
X113814826Y-119811744D01*
X113805520Y-119900285D01*
X113796368Y-119987369D01*
X113795040Y-120000000D01*
X113814826Y-120188256D01*
X113814827Y-120188259D01*
X113873318Y-120368277D01*
X113873321Y-120368284D01*
X113967967Y-120532216D01*
X114071857Y-120647597D01*
X114094629Y-120672888D01*
X114247765Y-120784148D01*
X114247770Y-120784151D01*
X114420692Y-120861142D01*
X114420697Y-120861144D01*
X114605854Y-120900500D01*
X114605855Y-120900500D01*
X114795144Y-120900500D01*
X114795146Y-120900500D01*
X114980303Y-120861144D01*
X115153230Y-120784151D01*
X115304589Y-120674182D01*
X115370396Y-120650702D01*
X115377475Y-120650500D01*
X115939495Y-120650500D01*
X115955505Y-120652267D01*
X115955528Y-120652026D01*
X115963289Y-120652758D01*
X115963296Y-120652760D01*
X116035203Y-120650500D01*
X116065925Y-120650500D01*
X116073190Y-120649581D01*
X116079016Y-120649122D01*
X116127569Y-120647597D01*
X116147956Y-120641673D01*
X116166996Y-120637731D01*
X116188058Y-120635071D01*
X116233235Y-120617183D01*
X116238735Y-120615300D01*
X116285398Y-120601744D01*
X116303665Y-120590939D01*
X116321136Y-120582380D01*
X116340871Y-120574568D01*
X116380177Y-120546010D01*
X116385043Y-120542813D01*
X116426865Y-120518081D01*
X116441870Y-120503075D01*
X116456668Y-120490436D01*
X116473837Y-120477963D01*
X116504809Y-120440522D01*
X116508723Y-120436221D01*
X118624513Y-118320431D01*
X118637079Y-118310365D01*
X118636925Y-118310178D01*
X118642937Y-118305204D01*
X118642937Y-118305203D01*
X118642940Y-118305202D01*
X118692190Y-118252755D01*
X118713911Y-118231035D01*
X118718401Y-118225245D01*
X118722183Y-118220815D01*
X118755448Y-118185393D01*
X118765674Y-118166789D01*
X118776347Y-118150541D01*
X118789363Y-118133763D01*
X118808651Y-118089187D01*
X118811224Y-118083936D01*
X118811561Y-118083321D01*
X118834627Y-118041368D01*
X118839904Y-118020808D01*
X118846206Y-118002403D01*
X118854636Y-117982926D01*
X118862235Y-117934945D01*
X118863417Y-117929234D01*
X118875500Y-117882177D01*
X118875500Y-117860954D01*
X118877027Y-117841555D01*
X118880347Y-117820595D01*
X118875775Y-117772230D01*
X118875500Y-117766392D01*
X118875500Y-113024500D01*
X118895185Y-112957461D01*
X118947989Y-112911706D01*
X118999500Y-112900500D01*
X119094644Y-112900500D01*
X119094646Y-112900500D01*
X119279803Y-112861144D01*
X119452730Y-112784151D01*
X119605871Y-112672888D01*
X119732533Y-112532216D01*
X119827179Y-112368284D01*
X119885674Y-112188256D01*
X119905460Y-112000000D01*
X119885674Y-111811744D01*
X119827179Y-111631716D01*
X119732533Y-111467784D01*
X119707274Y-111439731D01*
X119657350Y-111384284D01*
X119627120Y-111321292D01*
X119625500Y-111301312D01*
X119625500Y-98000000D01*
X127094540Y-98000000D01*
X127114326Y-98188256D01*
X127114327Y-98188259D01*
X127172818Y-98368277D01*
X127172821Y-98368284D01*
X127267467Y-98532216D01*
X127310772Y-98580310D01*
X127342650Y-98615715D01*
X127372880Y-98678706D01*
X127374500Y-98698687D01*
X127374500Y-101917255D01*
X127372775Y-101932872D01*
X127373061Y-101932899D01*
X127372326Y-101940665D01*
X127374500Y-102009814D01*
X127374500Y-102039343D01*
X127374501Y-102039360D01*
X127375368Y-102046231D01*
X127375826Y-102052050D01*
X127377290Y-102098624D01*
X127377291Y-102098627D01*
X127382880Y-102117867D01*
X127386824Y-102136911D01*
X127389336Y-102156792D01*
X127397539Y-102177511D01*
X127406490Y-102200119D01*
X127408382Y-102205647D01*
X127421381Y-102250388D01*
X127431580Y-102267634D01*
X127440138Y-102285103D01*
X127447514Y-102303732D01*
X127474898Y-102341423D01*
X127478106Y-102346307D01*
X127501827Y-102386416D01*
X127501833Y-102386424D01*
X127515990Y-102400580D01*
X127528628Y-102415376D01*
X127540405Y-102431586D01*
X127540406Y-102431587D01*
X127576309Y-102461288D01*
X127580620Y-102465210D01*
X127835663Y-102720253D01*
X128061038Y-102945628D01*
X128094523Y-103006951D01*
X128096678Y-103020347D01*
X128102385Y-103074646D01*
X128114326Y-103188256D01*
X128114327Y-103188259D01*
X128172818Y-103368277D01*
X128172821Y-103368284D01*
X128267467Y-103532216D01*
X128357063Y-103631722D01*
X128394129Y-103672888D01*
X128547265Y-103784148D01*
X128547270Y-103784151D01*
X128720192Y-103861142D01*
X128720197Y-103861144D01*
X128905354Y-103900500D01*
X128905355Y-103900500D01*
X129094644Y-103900500D01*
X129094646Y-103900500D01*
X129279803Y-103861144D01*
X129452730Y-103784151D01*
X129605871Y-103672888D01*
X129732533Y-103532216D01*
X129827179Y-103368284D01*
X129885674Y-103188256D01*
X129905460Y-103000000D01*
X129885674Y-102811744D01*
X129827179Y-102631716D01*
X129732533Y-102467784D01*
X129605871Y-102327112D01*
X129595649Y-102319685D01*
X129452734Y-102215851D01*
X129452729Y-102215848D01*
X129279807Y-102138857D01*
X129279802Y-102138855D01*
X129134000Y-102107865D01*
X129094646Y-102099500D01*
X129094645Y-102099500D01*
X129035452Y-102099500D01*
X128968413Y-102079815D01*
X128947771Y-102063181D01*
X128661819Y-101777228D01*
X128628334Y-101715905D01*
X128625500Y-101689547D01*
X128625500Y-98698687D01*
X128645185Y-98631648D01*
X128657350Y-98615715D01*
X128675891Y-98595122D01*
X128732533Y-98532216D01*
X128827179Y-98368284D01*
X128885674Y-98188256D01*
X128905460Y-98000000D01*
X128885674Y-97811744D01*
X128827179Y-97631716D01*
X128732533Y-97467784D01*
X128605871Y-97327112D01*
X128605870Y-97327111D01*
X128452734Y-97215851D01*
X128452729Y-97215848D01*
X128279807Y-97138857D01*
X128279802Y-97138855D01*
X128134001Y-97107865D01*
X128094646Y-97099500D01*
X127905354Y-97099500D01*
X127872897Y-97106398D01*
X127720197Y-97138855D01*
X127720192Y-97138857D01*
X127547270Y-97215848D01*
X127547265Y-97215851D01*
X127394129Y-97327111D01*
X127267466Y-97467785D01*
X127172821Y-97631715D01*
X127172818Y-97631722D01*
X127114327Y-97811740D01*
X127114326Y-97811744D01*
X127094540Y-98000000D01*
X119625500Y-98000000D01*
X119625500Y-97000000D01*
X122094540Y-97000000D01*
X122114326Y-97188256D01*
X122114327Y-97188259D01*
X122172818Y-97368277D01*
X122172821Y-97368284D01*
X122267467Y-97532216D01*
X122357063Y-97631722D01*
X122394129Y-97672888D01*
X122547265Y-97784148D01*
X122547270Y-97784151D01*
X122720192Y-97861142D01*
X122720197Y-97861144D01*
X122905354Y-97900500D01*
X122905355Y-97900500D01*
X123094644Y-97900500D01*
X123094646Y-97900500D01*
X123279803Y-97861144D01*
X123452730Y-97784151D01*
X123605871Y-97672888D01*
X123732533Y-97532216D01*
X123827179Y-97368284D01*
X123885674Y-97188256D01*
X123899168Y-97059855D01*
X123925752Y-96995242D01*
X123934799Y-96985145D01*
X126233126Y-94686819D01*
X126294450Y-94653334D01*
X126320808Y-94650500D01*
X133323025Y-94650500D01*
X133390064Y-94670185D01*
X133395910Y-94674182D01*
X133547265Y-94784148D01*
X133547270Y-94784151D01*
X133720192Y-94861142D01*
X133720197Y-94861144D01*
X133905354Y-94900500D01*
X133905355Y-94900500D01*
X134094644Y-94900500D01*
X134094646Y-94900500D01*
X134279803Y-94861144D01*
X134452730Y-94784151D01*
X134605871Y-94672888D01*
X134732533Y-94532216D01*
X134827179Y-94368284D01*
X134885674Y-94188256D01*
X134905460Y-94000000D01*
X137094540Y-94000000D01*
X137114326Y-94188256D01*
X137114327Y-94188259D01*
X137172818Y-94368277D01*
X137172821Y-94368284D01*
X137267467Y-94532216D01*
X137391695Y-94670185D01*
X137394129Y-94672888D01*
X137547265Y-94784148D01*
X137547270Y-94784151D01*
X137720192Y-94861142D01*
X137720197Y-94861144D01*
X137905354Y-94900500D01*
X137905355Y-94900500D01*
X138094644Y-94900500D01*
X138094646Y-94900500D01*
X138279803Y-94861144D01*
X138452730Y-94784151D01*
X138604089Y-94674182D01*
X138669896Y-94650702D01*
X138676975Y-94650500D01*
X158679192Y-94650500D01*
X158746231Y-94670185D01*
X158766873Y-94686819D01*
X168479564Y-104399510D01*
X168489635Y-104412080D01*
X168489822Y-104411926D01*
X168494796Y-104417937D01*
X168494798Y-104417940D01*
X168523345Y-104444748D01*
X168547243Y-104467190D01*
X168568966Y-104488912D01*
X168574758Y-104493405D01*
X168579198Y-104497198D01*
X168595260Y-104512280D01*
X168614607Y-104530448D01*
X168633198Y-104540668D01*
X168649463Y-104551352D01*
X168666234Y-104564361D01*
X168666237Y-104564363D01*
X168710827Y-104583658D01*
X168716056Y-104586220D01*
X168758632Y-104609627D01*
X168779193Y-104614905D01*
X168797597Y-104621207D01*
X168817074Y-104629636D01*
X168854927Y-104635630D01*
X168865054Y-104637235D01*
X168870764Y-104638417D01*
X168917823Y-104650500D01*
X168939045Y-104650500D01*
X168958442Y-104652026D01*
X168979405Y-104655347D01*
X169027772Y-104650774D01*
X169033609Y-104650500D01*
X174323025Y-104650500D01*
X174390064Y-104670185D01*
X174395910Y-104674182D01*
X174547265Y-104784148D01*
X174547270Y-104784151D01*
X174720192Y-104861142D01*
X174720197Y-104861144D01*
X174905354Y-104900500D01*
X174905355Y-104900500D01*
X175094644Y-104900500D01*
X175094646Y-104900500D01*
X175279803Y-104861144D01*
X175452730Y-104784151D01*
X175605871Y-104672888D01*
X175732533Y-104532216D01*
X175827179Y-104368284D01*
X175885674Y-104188256D01*
X175905460Y-104000000D01*
X175885674Y-103811744D01*
X175827179Y-103631716D01*
X175732533Y-103467784D01*
X175605871Y-103327112D01*
X175604090Y-103325818D01*
X175452734Y-103215851D01*
X175452729Y-103215848D01*
X175279807Y-103138857D01*
X175279802Y-103138855D01*
X175134000Y-103107865D01*
X175094646Y-103099500D01*
X174905354Y-103099500D01*
X174872897Y-103106398D01*
X174720197Y-103138855D01*
X174720192Y-103138857D01*
X174547270Y-103215848D01*
X174547265Y-103215851D01*
X174395910Y-103325818D01*
X174330104Y-103349298D01*
X174323025Y-103349500D01*
X169320808Y-103349500D01*
X169253769Y-103329815D01*
X169233127Y-103313181D01*
X159520434Y-93600488D01*
X159510361Y-93587914D01*
X159510174Y-93588070D01*
X159505201Y-93582059D01*
X159452756Y-93532810D01*
X159431035Y-93511089D01*
X159425240Y-93506594D01*
X159420798Y-93502799D01*
X159385396Y-93469554D01*
X159385388Y-93469548D01*
X159366792Y-93459325D01*
X159350531Y-93448644D01*
X159333763Y-93435637D01*
X159310180Y-93425432D01*
X159289178Y-93416343D01*
X159283956Y-93413786D01*
X159241368Y-93390373D01*
X159241365Y-93390372D01*
X159220801Y-93385092D01*
X159202396Y-93378790D01*
X159182927Y-93370365D01*
X159182921Y-93370363D01*
X159134951Y-93362766D01*
X159129236Y-93361582D01*
X159112772Y-93357355D01*
X159082180Y-93349500D01*
X159082177Y-93349500D01*
X159060955Y-93349500D01*
X159041555Y-93347973D01*
X159020596Y-93344653D01*
X159020595Y-93344653D01*
X158996786Y-93346903D01*
X158972230Y-93349225D01*
X158966392Y-93349500D01*
X138676975Y-93349500D01*
X138609936Y-93329815D01*
X138604090Y-93325818D01*
X138452734Y-93215851D01*
X138452729Y-93215848D01*
X138279807Y-93138857D01*
X138279802Y-93138855D01*
X138134001Y-93107865D01*
X138094646Y-93099500D01*
X137905354Y-93099500D01*
X137872897Y-93106398D01*
X137720197Y-93138855D01*
X137720192Y-93138857D01*
X137547270Y-93215848D01*
X137547265Y-93215851D01*
X137394129Y-93327111D01*
X137267466Y-93467785D01*
X137172821Y-93631715D01*
X137172818Y-93631722D01*
X137114327Y-93811740D01*
X137114326Y-93811744D01*
X137094540Y-94000000D01*
X134905460Y-94000000D01*
X134885674Y-93811744D01*
X134827179Y-93631716D01*
X134732533Y-93467784D01*
X134605871Y-93327112D01*
X134604090Y-93325818D01*
X134452734Y-93215851D01*
X134452729Y-93215848D01*
X134279807Y-93138857D01*
X134279802Y-93138855D01*
X134134001Y-93107865D01*
X134094646Y-93099500D01*
X133905354Y-93099500D01*
X133872897Y-93106398D01*
X133720197Y-93138855D01*
X133720192Y-93138857D01*
X133547270Y-93215848D01*
X133547265Y-93215851D01*
X133395910Y-93325818D01*
X133330104Y-93349298D01*
X133323025Y-93349500D01*
X126085506Y-93349500D01*
X126069495Y-93347732D01*
X126069473Y-93347974D01*
X126061706Y-93347239D01*
X125989783Y-93349500D01*
X125959075Y-93349500D01*
X125959071Y-93349500D01*
X125959060Y-93349501D01*
X125951804Y-93350417D01*
X125945986Y-93350875D01*
X125897433Y-93352401D01*
X125882873Y-93356630D01*
X125877040Y-93358325D01*
X125857996Y-93362269D01*
X125836942Y-93364929D01*
X125836940Y-93364929D01*
X125791781Y-93382808D01*
X125786255Y-93384700D01*
X125739601Y-93398254D01*
X125721325Y-93409063D01*
X125703860Y-93417619D01*
X125684124Y-93425433D01*
X125644824Y-93453986D01*
X125639942Y-93457193D01*
X125598136Y-93481917D01*
X125583124Y-93496929D01*
X125568336Y-93509558D01*
X125551167Y-93522032D01*
X125551165Y-93522034D01*
X125520194Y-93559470D01*
X125516262Y-93563791D01*
X123016873Y-96063181D01*
X122955550Y-96096666D01*
X122929192Y-96099500D01*
X122905354Y-96099500D01*
X122872897Y-96106398D01*
X122720197Y-96138855D01*
X122720192Y-96138857D01*
X122547270Y-96215848D01*
X122547265Y-96215851D01*
X122394129Y-96327111D01*
X122267466Y-96467785D01*
X122172821Y-96631715D01*
X122172818Y-96631722D01*
X122114327Y-96811740D01*
X122114326Y-96811744D01*
X122094540Y-97000000D01*
X119625500Y-97000000D01*
X119625500Y-91310452D01*
X119645185Y-91243413D01*
X119661819Y-91222771D01*
X120947772Y-89936819D01*
X121009095Y-89903334D01*
X121035453Y-89900500D01*
X121094644Y-89900500D01*
X121094646Y-89900500D01*
X121279803Y-89861144D01*
X121452730Y-89784151D01*
X121605871Y-89672888D01*
X121732533Y-89532216D01*
X121827179Y-89368284D01*
X121885674Y-89188256D01*
X121905460Y-89000000D01*
X121885674Y-88811744D01*
X121827179Y-88631716D01*
X121732533Y-88467784D01*
X121605871Y-88327112D01*
X121605870Y-88327111D01*
X121452734Y-88215851D01*
X121452729Y-88215848D01*
X121279807Y-88138857D01*
X121279802Y-88138855D01*
X121113356Y-88103477D01*
X121094646Y-88099500D01*
X120905354Y-88099500D01*
X120886644Y-88103477D01*
X120720197Y-88138855D01*
X120720192Y-88138857D01*
X120547270Y-88215848D01*
X120547265Y-88215851D01*
X120394129Y-88327111D01*
X120267466Y-88467785D01*
X120172821Y-88631715D01*
X120172818Y-88631722D01*
X120114327Y-88811740D01*
X120114326Y-88811744D01*
X120096679Y-88979649D01*
X120070094Y-89044263D01*
X120061039Y-89054368D01*
X118616208Y-90499199D01*
X118603951Y-90509020D01*
X118604134Y-90509241D01*
X118598123Y-90514213D01*
X118550772Y-90564636D01*
X118529889Y-90585519D01*
X118529877Y-90585532D01*
X118525621Y-90591017D01*
X118521837Y-90595447D01*
X118489937Y-90629418D01*
X118489936Y-90629420D01*
X118480284Y-90646976D01*
X118469610Y-90663226D01*
X118457329Y-90679061D01*
X118457324Y-90679068D01*
X118438815Y-90721838D01*
X118436245Y-90727084D01*
X118413803Y-90767906D01*
X118408822Y-90787307D01*
X118402521Y-90805710D01*
X118394562Y-90824102D01*
X118394561Y-90824105D01*
X118387271Y-90870127D01*
X118386087Y-90875846D01*
X118374501Y-90920972D01*
X118374500Y-90920982D01*
X118374500Y-90941016D01*
X118372973Y-90960415D01*
X118369840Y-90980194D01*
X118369840Y-90980195D01*
X118374225Y-91026583D01*
X118374500Y-91032421D01*
X118374500Y-103525331D01*
X118354815Y-103592370D01*
X118302011Y-103638125D01*
X118232853Y-103648069D01*
X118224720Y-103646621D01*
X118120646Y-103624500D01*
X117931354Y-103624500D01*
X117931353Y-103624500D01*
X117775279Y-103657674D01*
X117705612Y-103652358D01*
X117649879Y-103610221D01*
X117625774Y-103544641D01*
X117625499Y-103536384D01*
X117625499Y-96762957D01*
X117625499Y-89698683D01*
X117645184Y-89631648D01*
X117657350Y-89615714D01*
X117732533Y-89532216D01*
X117827179Y-89368284D01*
X117885674Y-89188256D01*
X117905460Y-89000000D01*
X117885674Y-88811744D01*
X117827179Y-88631716D01*
X117732533Y-88467784D01*
X117605871Y-88327112D01*
X117605870Y-88327111D01*
X117452734Y-88215851D01*
X117452729Y-88215848D01*
X117279807Y-88138857D01*
X117279802Y-88138855D01*
X117113356Y-88103477D01*
X117094646Y-88099500D01*
X116905354Y-88099500D01*
X116886644Y-88103477D01*
X116720197Y-88138855D01*
X116720192Y-88138857D01*
X116550435Y-88214439D01*
X116481185Y-88223724D01*
X116449563Y-88214439D01*
X116279807Y-88138857D01*
X116279802Y-88138855D01*
X116113356Y-88103477D01*
X116094646Y-88099500D01*
X115905354Y-88099500D01*
X115886644Y-88103477D01*
X115720197Y-88138855D01*
X115720192Y-88138857D01*
X115547270Y-88215848D01*
X115547265Y-88215851D01*
X115394129Y-88327111D01*
X115267466Y-88467785D01*
X115172821Y-88631715D01*
X115172818Y-88631722D01*
X115114327Y-88811740D01*
X115114326Y-88811744D01*
X115096679Y-88979649D01*
X115070094Y-89044263D01*
X115061039Y-89054368D01*
X113616208Y-90499199D01*
X113603951Y-90509020D01*
X113604134Y-90509241D01*
X113598123Y-90514213D01*
X113550772Y-90564636D01*
X113529889Y-90585519D01*
X113529877Y-90585532D01*
X113525621Y-90591017D01*
X113521837Y-90595447D01*
X113489937Y-90629418D01*
X113489936Y-90629420D01*
X113480284Y-90646976D01*
X113469610Y-90663226D01*
X113457329Y-90679061D01*
X113457324Y-90679068D01*
X113438815Y-90721838D01*
X113436245Y-90727084D01*
X113413803Y-90767906D01*
X113408822Y-90787307D01*
X113402521Y-90805710D01*
X113394562Y-90824102D01*
X113394561Y-90824105D01*
X113387271Y-90870127D01*
X113386087Y-90875846D01*
X113374501Y-90920972D01*
X113374500Y-90920982D01*
X113374500Y-90941016D01*
X113372973Y-90960415D01*
X113369840Y-90980194D01*
X113369840Y-90980195D01*
X113374225Y-91026583D01*
X113374500Y-91032421D01*
X113374500Y-106301312D01*
X113354815Y-106368351D01*
X113342650Y-106384284D01*
X113267466Y-106467784D01*
X113172821Y-106631715D01*
X113172818Y-106631722D01*
X113114327Y-106811740D01*
X113114326Y-106811744D01*
X113094540Y-107000000D01*
X109625500Y-107000000D01*
X109625500Y-89698687D01*
X109645185Y-89631648D01*
X109657350Y-89615715D01*
X109690183Y-89579250D01*
X109732533Y-89532216D01*
X109827179Y-89368284D01*
X109885674Y-89188256D01*
X109905460Y-89000000D01*
X109885674Y-88811744D01*
X109827179Y-88631716D01*
X109732533Y-88467784D01*
X109605871Y-88327112D01*
X109605870Y-88327111D01*
X109452734Y-88215851D01*
X109452729Y-88215848D01*
X109279807Y-88138857D01*
X109279802Y-88138855D01*
X109113356Y-88103477D01*
X109094646Y-88099500D01*
X108905354Y-88099500D01*
X108905352Y-88099500D01*
X108775280Y-88127147D01*
X108705613Y-88121831D01*
X108649880Y-88079693D01*
X108625775Y-88014113D01*
X108625500Y-88005857D01*
X108625500Y-87310451D01*
X108645185Y-87243412D01*
X108661814Y-87222775D01*
X110215944Y-85668644D01*
X110277265Y-85635161D01*
X110346957Y-85640145D01*
X110395772Y-85673353D01*
X110406426Y-85685185D01*
X110406429Y-85685188D01*
X110559564Y-85796447D01*
X110559569Y-85796450D01*
X110732491Y-85873441D01*
X110732496Y-85873443D01*
X110917653Y-85912799D01*
X110976847Y-85912799D01*
X111043886Y-85932484D01*
X111064528Y-85949118D01*
X111674194Y-86558784D01*
X111684019Y-86571048D01*
X111684240Y-86570866D01*
X111689210Y-86576873D01*
X111689213Y-86576876D01*
X111689214Y-86576877D01*
X111739651Y-86624241D01*
X111760530Y-86645120D01*
X111766004Y-86649366D01*
X111770442Y-86653156D01*
X111804418Y-86685062D01*
X111804422Y-86685064D01*
X111821973Y-86694713D01*
X111838231Y-86705392D01*
X111854064Y-86717674D01*
X111875810Y-86727084D01*
X111896837Y-86736183D01*
X111902081Y-86738752D01*
X111942908Y-86761197D01*
X111962312Y-86766179D01*
X111980710Y-86772478D01*
X111999105Y-86780438D01*
X112045129Y-86787726D01*
X112050832Y-86788907D01*
X112095981Y-86800500D01*
X112116016Y-86800500D01*
X112135413Y-86802026D01*
X112155196Y-86805160D01*
X112201583Y-86800775D01*
X112207422Y-86800500D01*
X143864548Y-86800500D01*
X143931587Y-86820185D01*
X143952229Y-86836819D01*
X147578174Y-90462765D01*
X147587999Y-90475028D01*
X147588220Y-90474846D01*
X147593191Y-90480855D01*
X147612726Y-90499199D01*
X147643612Y-90528203D01*
X147664506Y-90549097D01*
X147669988Y-90553350D01*
X147674420Y-90557134D01*
X147708395Y-90589039D01*
X147725953Y-90598691D01*
X147742212Y-90609372D01*
X147758041Y-90621650D01*
X147800815Y-90640159D01*
X147806033Y-90642715D01*
X147846885Y-90665174D01*
X147866293Y-90670157D01*
X147884694Y-90676457D01*
X147903081Y-90684414D01*
X147946465Y-90691285D01*
X147949096Y-90691702D01*
X147954816Y-90692886D01*
X147999958Y-90704477D01*
X148019993Y-90704477D01*
X148039391Y-90706003D01*
X148059171Y-90709136D01*
X148059172Y-90709137D01*
X148059172Y-90709136D01*
X148059173Y-90709137D01*
X148105560Y-90704752D01*
X148111399Y-90704477D01*
X174656525Y-90704477D01*
X174723564Y-90724162D01*
X174744206Y-90740796D01*
X179949038Y-95945629D01*
X179982523Y-96006952D01*
X179984678Y-96020348D01*
X179987005Y-96042485D01*
X180002326Y-96188256D01*
X180002327Y-96188259D01*
X180060818Y-96368277D01*
X180060821Y-96368284D01*
X180155467Y-96532216D01*
X180245063Y-96631722D01*
X180282129Y-96672888D01*
X180435265Y-96784148D01*
X180435270Y-96784151D01*
X180608192Y-96861142D01*
X180608197Y-96861144D01*
X180793354Y-96900500D01*
X180793355Y-96900500D01*
X180982644Y-96900500D01*
X180982646Y-96900500D01*
X181167803Y-96861144D01*
X181340730Y-96784151D01*
X181493871Y-96672888D01*
X181620533Y-96532216D01*
X181715179Y-96368284D01*
X181773674Y-96188256D01*
X181793460Y-96000000D01*
X181773674Y-95811744D01*
X181715179Y-95631716D01*
X181620533Y-95467784D01*
X181493871Y-95327112D01*
X181493870Y-95327111D01*
X181340734Y-95215851D01*
X181340729Y-95215848D01*
X181167807Y-95138857D01*
X181167802Y-95138855D01*
X181022000Y-95107865D01*
X180982646Y-95099500D01*
X180982645Y-95099500D01*
X180923452Y-95099500D01*
X180856413Y-95079815D01*
X180835771Y-95063181D01*
X176238749Y-90466158D01*
X176205264Y-90404835D01*
X176210248Y-90335143D01*
X176252120Y-90279210D01*
X176317584Y-90254793D01*
X176326430Y-90254477D01*
X177318525Y-90254477D01*
X177385564Y-90274162D01*
X177406206Y-90290796D01*
X180061038Y-92945629D01*
X180094523Y-93006952D01*
X180096678Y-93020348D01*
X180100702Y-93058630D01*
X180114326Y-93188256D01*
X180114327Y-93188259D01*
X180172818Y-93368277D01*
X180172821Y-93368284D01*
X180267467Y-93532216D01*
X180357063Y-93631722D01*
X180394129Y-93672888D01*
X180547265Y-93784148D01*
X180547270Y-93784151D01*
X180720192Y-93861142D01*
X180720197Y-93861144D01*
X180905354Y-93900500D01*
X180905355Y-93900500D01*
X181094644Y-93900500D01*
X181094646Y-93900500D01*
X181279803Y-93861144D01*
X181452730Y-93784151D01*
X181605871Y-93672888D01*
X181732533Y-93532216D01*
X181827179Y-93368284D01*
X181885674Y-93188256D01*
X181905460Y-93000000D01*
X181885674Y-92811744D01*
X181827213Y-92631820D01*
X181827181Y-92631722D01*
X181827180Y-92631721D01*
X181827179Y-92631716D01*
X181732533Y-92467784D01*
X181605871Y-92327112D01*
X181605870Y-92327111D01*
X181452734Y-92215851D01*
X181452729Y-92215848D01*
X181279807Y-92138857D01*
X181279802Y-92138855D01*
X181134000Y-92107865D01*
X181094646Y-92099500D01*
X181094645Y-92099500D01*
X181035453Y-92099500D01*
X180968414Y-92079815D01*
X180947772Y-92063181D01*
X178900749Y-90016158D01*
X178867264Y-89954835D01*
X178872248Y-89885143D01*
X178914120Y-89829210D01*
X178979584Y-89804793D01*
X178988430Y-89804477D01*
X179868525Y-89804477D01*
X179935564Y-89824162D01*
X179956200Y-89840790D01*
X180061039Y-89945630D01*
X180094523Y-90006952D01*
X180096678Y-90020348D01*
X180101969Y-90070682D01*
X180114326Y-90188256D01*
X180114327Y-90188259D01*
X180172818Y-90368277D01*
X180172821Y-90368284D01*
X180267467Y-90532216D01*
X180366968Y-90642723D01*
X180394129Y-90672888D01*
X180547265Y-90784148D01*
X180547270Y-90784151D01*
X180720192Y-90861142D01*
X180720197Y-90861144D01*
X180905354Y-90900500D01*
X180905355Y-90900500D01*
X181094644Y-90900500D01*
X181094646Y-90900500D01*
X181279803Y-90861144D01*
X181452730Y-90784151D01*
X181605871Y-90672888D01*
X181732533Y-90532216D01*
X181827179Y-90368284D01*
X181885674Y-90188256D01*
X181905460Y-90000000D01*
X181885674Y-89811744D01*
X181827179Y-89631716D01*
X181774501Y-89540476D01*
X181758029Y-89472577D01*
X181780882Y-89406550D01*
X181835803Y-89363359D01*
X181881889Y-89354477D01*
X187418525Y-89354477D01*
X187485564Y-89374162D01*
X187506206Y-89390796D01*
X190061038Y-91945629D01*
X190094523Y-92006952D01*
X190096678Y-92020348D01*
X190100901Y-92060525D01*
X190114326Y-92188256D01*
X190114327Y-92188259D01*
X190172818Y-92368277D01*
X190172821Y-92368284D01*
X190267467Y-92532216D01*
X190357151Y-92631820D01*
X190394129Y-92672888D01*
X190547265Y-92784148D01*
X190547270Y-92784151D01*
X190720192Y-92861142D01*
X190720197Y-92861144D01*
X190905354Y-92900500D01*
X190905355Y-92900500D01*
X191094644Y-92900500D01*
X191094646Y-92900500D01*
X191279803Y-92861144D01*
X191452730Y-92784151D01*
X191605871Y-92672888D01*
X191732533Y-92532216D01*
X191827179Y-92368284D01*
X191849367Y-92299998D01*
X199044901Y-92299998D01*
X199046224Y-92313439D01*
X199046661Y-92331858D01*
X199045824Y-92348382D01*
X199045824Y-92348395D01*
X199056332Y-92416987D01*
X199056748Y-92420297D01*
X199063252Y-92486326D01*
X199063253Y-92486332D01*
X199068164Y-92502522D01*
X199072071Y-92519732D01*
X199075094Y-92539465D01*
X199075095Y-92539468D01*
X199098082Y-92601537D01*
X199099272Y-92605071D01*
X199117604Y-92665501D01*
X199129182Y-92687163D01*
X199132646Y-92694862D01*
X199142235Y-92720752D01*
X199142236Y-92720754D01*
X199175544Y-92774193D01*
X199177607Y-92777761D01*
X199205865Y-92830626D01*
X199223489Y-92852101D01*
X199228183Y-92858644D01*
X199244489Y-92884805D01*
X199244490Y-92884806D01*
X199285667Y-92928124D01*
X199288658Y-92931509D01*
X199324639Y-92975353D01*
X199324641Y-92975354D01*
X199324643Y-92975357D01*
X199344097Y-92991322D01*
X199348608Y-92995025D01*
X199354213Y-93000235D01*
X199377677Y-93024919D01*
X199424104Y-93057233D01*
X199428006Y-93060185D01*
X199469375Y-93094136D01*
X199479411Y-93099500D01*
X199499555Y-93110267D01*
X199505754Y-93114063D01*
X199536334Y-93135348D01*
X199536336Y-93135349D01*
X199536342Y-93135353D01*
X199585373Y-93156393D01*
X199590127Y-93158678D01*
X199634499Y-93182396D01*
X199670323Y-93193263D01*
X199676780Y-93195620D01*
X199687125Y-93200059D01*
X199713988Y-93211587D01*
X199763114Y-93221682D01*
X199768597Y-93223074D01*
X199813669Y-93236747D01*
X199823246Y-93237690D01*
X199854127Y-93240732D01*
X199860536Y-93241703D01*
X199903343Y-93250500D01*
X199903344Y-93250500D01*
X199950257Y-93250500D01*
X199956338Y-93250799D01*
X199968160Y-93251963D01*
X200000000Y-93255099D01*
X200030470Y-93252097D01*
X200043622Y-93250803D01*
X200046564Y-93250583D01*
X200048206Y-93250500D01*
X200094755Y-93245766D01*
X200136009Y-93241703D01*
X200186331Y-93236747D01*
X200186343Y-93236743D01*
X200186426Y-93236727D01*
X200192259Y-93235851D01*
X200192321Y-93235845D01*
X200280262Y-93208252D01*
X200365501Y-93182396D01*
X200365507Y-93182392D01*
X200371779Y-93179795D01*
X200376616Y-93178038D01*
X200376762Y-93177975D01*
X200376768Y-93177974D01*
X200454696Y-93134720D01*
X200530625Y-93094136D01*
X200530635Y-93094127D01*
X200535694Y-93090748D01*
X200535850Y-93090982D01*
X200541686Y-93087015D01*
X200545783Y-93084162D01*
X200545791Y-93084159D01*
X200611128Y-93028068D01*
X200675357Y-92975357D01*
X200675361Y-92975351D01*
X200676539Y-92974174D01*
X200690328Y-92960077D01*
X200690754Y-92959710D01*
X200692468Y-92958240D01*
X200743326Y-92892535D01*
X200794136Y-92830625D01*
X200795657Y-92827777D01*
X200806966Y-92810320D01*
X200810796Y-92805373D01*
X200826090Y-92774193D01*
X200846068Y-92733466D01*
X200878447Y-92672888D01*
X200882396Y-92665501D01*
X200884324Y-92659142D01*
X200891664Y-92640511D01*
X200895930Y-92631816D01*
X200915253Y-92557184D01*
X200936747Y-92486331D01*
X200937734Y-92476300D01*
X200941096Y-92457374D01*
X200944385Y-92444674D01*
X200948063Y-92372138D01*
X200948281Y-92369216D01*
X200948373Y-92368284D01*
X200955099Y-92300000D01*
X200953776Y-92286571D01*
X200953337Y-92268137D01*
X200954176Y-92251610D01*
X200943661Y-92182978D01*
X200943249Y-92179693D01*
X200940849Y-92155322D01*
X200936747Y-92113669D01*
X200931833Y-92097472D01*
X200927926Y-92080263D01*
X200924903Y-92060526D01*
X200901908Y-91998440D01*
X200900726Y-91994926D01*
X200882396Y-91934499D01*
X200882394Y-91934496D01*
X200882394Y-91934494D01*
X200870817Y-91912836D01*
X200867353Y-91905140D01*
X200857764Y-91879247D01*
X200857762Y-91879245D01*
X200857761Y-91879241D01*
X200824453Y-91825804D01*
X200822397Y-91822249D01*
X200804981Y-91789665D01*
X200794137Y-91769376D01*
X200794135Y-91769373D01*
X200776507Y-91747894D01*
X200771816Y-91741356D01*
X200755509Y-91715193D01*
X200714329Y-91671872D01*
X200711348Y-91668497D01*
X200675357Y-91624643D01*
X200651390Y-91604973D01*
X200645781Y-91599759D01*
X200622323Y-91575081D01*
X200617797Y-91571931D01*
X200575904Y-91542772D01*
X200571988Y-91539810D01*
X200536494Y-91510681D01*
X200530625Y-91505864D01*
X200500429Y-91489724D01*
X200494246Y-91485937D01*
X200463658Y-91464647D01*
X200414630Y-91443607D01*
X200409867Y-91441318D01*
X200365501Y-91417604D01*
X200365500Y-91417603D01*
X200365499Y-91417603D01*
X200345887Y-91411654D01*
X200329669Y-91406734D01*
X200323219Y-91404379D01*
X200286009Y-91388411D01*
X200236909Y-91378321D01*
X200231391Y-91376921D01*
X200186336Y-91363254D01*
X200186327Y-91363252D01*
X200145864Y-91359266D01*
X200139458Y-91358295D01*
X200096657Y-91349500D01*
X200096656Y-91349500D01*
X200049743Y-91349500D01*
X200043662Y-91349201D01*
X200000000Y-91344901D01*
X199999999Y-91344901D01*
X199956377Y-91349197D01*
X199953442Y-91349416D01*
X199951795Y-91349499D01*
X199905244Y-91354233D01*
X199813654Y-91363254D01*
X199813523Y-91363281D01*
X199807738Y-91364148D01*
X199807690Y-91364152D01*
X199807669Y-91364157D01*
X199719738Y-91391746D01*
X199634493Y-91417605D01*
X199628195Y-91420213D01*
X199623380Y-91421962D01*
X199623232Y-91422025D01*
X199545303Y-91465279D01*
X199469378Y-91505862D01*
X199464311Y-91509248D01*
X199464156Y-91509016D01*
X199458105Y-91513129D01*
X199454207Y-91515841D01*
X199388871Y-91571931D01*
X199324643Y-91624643D01*
X199324641Y-91624644D01*
X199324635Y-91624650D01*
X199323617Y-91625667D01*
X199309691Y-91639906D01*
X199307536Y-91641755D01*
X199307527Y-91641765D01*
X199256673Y-91707464D01*
X199205869Y-91769368D01*
X199205866Y-91769372D01*
X199205864Y-91769375D01*
X199205861Y-91769379D01*
X199205858Y-91769385D01*
X199204331Y-91772241D01*
X199193044Y-91789665D01*
X199189204Y-91794626D01*
X199189202Y-91794629D01*
X199153932Y-91866533D01*
X199117604Y-91934497D01*
X199115669Y-91940876D01*
X199108344Y-91959468D01*
X199104070Y-91968181D01*
X199084746Y-92042815D01*
X199063252Y-92113668D01*
X199063251Y-92113674D01*
X199062262Y-92123712D01*
X199058905Y-92142614D01*
X199055615Y-92155322D01*
X199051935Y-92227852D01*
X199051716Y-92230786D01*
X199044901Y-92299997D01*
X199044901Y-92299998D01*
X191849367Y-92299998D01*
X191885674Y-92188256D01*
X191905460Y-92000000D01*
X191885674Y-91811744D01*
X191827179Y-91631716D01*
X191732533Y-91467784D01*
X191605871Y-91327112D01*
X191605870Y-91327111D01*
X191452734Y-91215851D01*
X191452729Y-91215848D01*
X191279807Y-91138857D01*
X191279802Y-91138855D01*
X191134000Y-91107865D01*
X191094646Y-91099500D01*
X191094645Y-91099500D01*
X191035452Y-91099500D01*
X190968413Y-91079815D01*
X190947771Y-91063181D01*
X189884588Y-89999998D01*
X199044901Y-89999998D01*
X199046224Y-90013439D01*
X199046661Y-90031858D01*
X199045824Y-90048382D01*
X199045824Y-90048395D01*
X199056332Y-90116987D01*
X199056748Y-90120297D01*
X199063252Y-90186326D01*
X199063253Y-90186332D01*
X199068164Y-90202522D01*
X199072071Y-90219732D01*
X199075094Y-90239465D01*
X199075095Y-90239468D01*
X199075096Y-90239472D01*
X199075097Y-90239474D01*
X199081656Y-90257184D01*
X199098082Y-90301537D01*
X199099272Y-90305071D01*
X199117604Y-90365501D01*
X199129182Y-90387163D01*
X199132646Y-90394862D01*
X199142235Y-90420752D01*
X199142236Y-90420754D01*
X199175544Y-90474193D01*
X199177607Y-90477761D01*
X199205864Y-90530625D01*
X199221024Y-90549097D01*
X199223489Y-90552101D01*
X199228183Y-90558644D01*
X199244489Y-90584805D01*
X199244490Y-90584806D01*
X199285667Y-90628124D01*
X199288658Y-90631509D01*
X199324639Y-90675353D01*
X199324641Y-90675354D01*
X199324643Y-90675357D01*
X199329165Y-90679068D01*
X199348608Y-90695025D01*
X199354213Y-90700235D01*
X199377677Y-90724919D01*
X199424104Y-90757233D01*
X199428006Y-90760185D01*
X199469375Y-90794136D01*
X199491029Y-90805710D01*
X199499555Y-90810267D01*
X199505754Y-90814063D01*
X199536334Y-90835348D01*
X199536336Y-90835349D01*
X199536342Y-90835353D01*
X199585373Y-90856393D01*
X199590127Y-90858678D01*
X199634499Y-90882396D01*
X199670323Y-90893263D01*
X199676780Y-90895620D01*
X199687125Y-90900059D01*
X199713988Y-90911587D01*
X199763114Y-90921682D01*
X199768597Y-90923074D01*
X199813669Y-90936747D01*
X199823246Y-90937690D01*
X199854127Y-90940732D01*
X199860536Y-90941703D01*
X199903343Y-90950500D01*
X199903344Y-90950500D01*
X199950257Y-90950500D01*
X199956338Y-90950799D01*
X199968160Y-90951963D01*
X200000000Y-90955099D01*
X200030470Y-90952097D01*
X200043622Y-90950803D01*
X200046564Y-90950583D01*
X200048206Y-90950500D01*
X200094755Y-90945766D01*
X200136009Y-90941703D01*
X200186331Y-90936747D01*
X200186343Y-90936743D01*
X200186426Y-90936727D01*
X200192259Y-90935851D01*
X200192321Y-90935845D01*
X200280262Y-90908252D01*
X200365501Y-90882396D01*
X200365507Y-90882392D01*
X200371779Y-90879795D01*
X200376616Y-90878038D01*
X200376762Y-90877975D01*
X200376768Y-90877974D01*
X200454696Y-90834720D01*
X200530625Y-90794136D01*
X200530635Y-90794127D01*
X200535694Y-90790748D01*
X200535850Y-90790982D01*
X200541686Y-90787015D01*
X200545783Y-90784162D01*
X200545791Y-90784159D01*
X200611128Y-90728068D01*
X200675357Y-90675357D01*
X200675361Y-90675351D01*
X200676539Y-90674174D01*
X200690328Y-90660077D01*
X200690754Y-90659710D01*
X200692468Y-90658240D01*
X200743326Y-90592535D01*
X200794136Y-90530625D01*
X200795657Y-90527777D01*
X200806966Y-90510320D01*
X200810796Y-90505373D01*
X200825231Y-90475944D01*
X200846068Y-90433466D01*
X200871216Y-90386416D01*
X200882396Y-90365501D01*
X200884324Y-90359142D01*
X200891664Y-90340511D01*
X200895930Y-90331816D01*
X200915253Y-90257184D01*
X200936747Y-90186331D01*
X200937734Y-90176300D01*
X200941096Y-90157374D01*
X200941247Y-90156791D01*
X200944385Y-90144674D01*
X200948063Y-90072138D01*
X200948281Y-90069216D01*
X200949972Y-90052050D01*
X200955099Y-90000000D01*
X200953776Y-89986571D01*
X200953337Y-89968137D01*
X200954176Y-89951610D01*
X200943661Y-89882978D01*
X200943249Y-89879693D01*
X200940849Y-89855322D01*
X200936747Y-89813669D01*
X200931833Y-89797472D01*
X200927926Y-89780263D01*
X200924903Y-89760526D01*
X200901908Y-89698440D01*
X200900726Y-89694926D01*
X200889970Y-89659468D01*
X200882396Y-89634499D01*
X200882394Y-89634496D01*
X200882394Y-89634494D01*
X200870817Y-89612836D01*
X200867353Y-89605140D01*
X200857764Y-89579247D01*
X200857762Y-89579245D01*
X200857761Y-89579241D01*
X200824453Y-89525804D01*
X200822397Y-89522249D01*
X200804981Y-89489665D01*
X200794137Y-89469376D01*
X200794135Y-89469373D01*
X200776507Y-89447894D01*
X200771816Y-89441356D01*
X200755509Y-89415193D01*
X200714329Y-89371872D01*
X200711348Y-89368497D01*
X200675357Y-89324643D01*
X200651390Y-89304973D01*
X200645781Y-89299759D01*
X200622323Y-89275081D01*
X200617797Y-89271931D01*
X200575904Y-89242772D01*
X200571988Y-89239810D01*
X200536494Y-89210681D01*
X200530625Y-89205864D01*
X200500429Y-89189724D01*
X200494246Y-89185937D01*
X200463659Y-89164648D01*
X200463660Y-89164648D01*
X200463658Y-89164647D01*
X200414630Y-89143607D01*
X200409867Y-89141318D01*
X200365501Y-89117604D01*
X200365500Y-89117603D01*
X200365499Y-89117603D01*
X200345887Y-89111654D01*
X200329669Y-89106734D01*
X200323219Y-89104379D01*
X200286009Y-89088411D01*
X200236909Y-89078321D01*
X200231391Y-89076921D01*
X200186336Y-89063254D01*
X200186327Y-89063252D01*
X200145864Y-89059266D01*
X200139458Y-89058295D01*
X200096657Y-89049500D01*
X200096656Y-89049500D01*
X200049743Y-89049500D01*
X200043662Y-89049201D01*
X200000000Y-89044901D01*
X199999999Y-89044901D01*
X199956377Y-89049197D01*
X199953442Y-89049416D01*
X199951795Y-89049499D01*
X199905244Y-89054233D01*
X199813654Y-89063254D01*
X199813523Y-89063281D01*
X199807738Y-89064148D01*
X199807690Y-89064152D01*
X199807669Y-89064157D01*
X199719738Y-89091746D01*
X199634493Y-89117605D01*
X199628195Y-89120213D01*
X199623380Y-89121962D01*
X199623232Y-89122025D01*
X199545303Y-89165279D01*
X199469378Y-89205862D01*
X199464311Y-89209248D01*
X199464156Y-89209016D01*
X199458105Y-89213129D01*
X199454207Y-89215841D01*
X199388871Y-89271931D01*
X199324643Y-89324643D01*
X199324641Y-89324644D01*
X199324635Y-89324650D01*
X199323617Y-89325667D01*
X199309691Y-89339906D01*
X199307536Y-89341755D01*
X199307527Y-89341765D01*
X199256673Y-89407464D01*
X199205869Y-89469368D01*
X199205866Y-89469372D01*
X199205864Y-89469375D01*
X199205861Y-89469379D01*
X199205858Y-89469385D01*
X199204331Y-89472241D01*
X199193044Y-89489665D01*
X199189204Y-89494626D01*
X199189202Y-89494629D01*
X199153932Y-89566533D01*
X199117604Y-89634497D01*
X199115669Y-89640876D01*
X199108344Y-89659468D01*
X199104070Y-89668181D01*
X199084746Y-89742815D01*
X199063252Y-89813668D01*
X199063251Y-89813674D01*
X199062262Y-89823712D01*
X199058905Y-89842614D01*
X199055615Y-89855322D01*
X199051935Y-89927852D01*
X199051716Y-89930786D01*
X199044901Y-89999997D01*
X199044901Y-89999998D01*
X189884588Y-89999998D01*
X188229780Y-88345189D01*
X188219957Y-88332927D01*
X188219736Y-88333111D01*
X188214763Y-88327100D01*
X188214762Y-88327099D01*
X188164341Y-88279750D01*
X188153896Y-88269304D01*
X188143452Y-88258860D01*
X188137963Y-88254602D01*
X188133538Y-88250824D01*
X188099559Y-88218915D01*
X188099557Y-88218913D01*
X188099554Y-88218912D01*
X188082006Y-88209265D01*
X188065740Y-88198581D01*
X188049910Y-88186302D01*
X188007145Y-88167795D01*
X188001899Y-88165225D01*
X187961070Y-88142780D01*
X187961069Y-88142779D01*
X187941670Y-88137799D01*
X187923258Y-88131495D01*
X187904875Y-88123539D01*
X187904869Y-88123537D01*
X187858851Y-88116249D01*
X187853129Y-88115064D01*
X187807998Y-88103477D01*
X187807996Y-88103477D01*
X187787961Y-88103477D01*
X187768563Y-88101950D01*
X187761139Y-88100774D01*
X187748782Y-88098817D01*
X187748781Y-88098817D01*
X187702393Y-88103202D01*
X187696555Y-88103477D01*
X150027568Y-88103477D01*
X149960529Y-88083792D01*
X149914774Y-88030988D01*
X149904247Y-87992439D01*
X149885674Y-87815721D01*
X149827179Y-87635693D01*
X149787070Y-87566222D01*
X149770598Y-87498325D01*
X149787069Y-87442229D01*
X149827179Y-87372758D01*
X149885674Y-87192730D01*
X149905460Y-87004474D01*
X149885674Y-86816218D01*
X149827179Y-86636190D01*
X149787070Y-86566719D01*
X149770598Y-86498822D01*
X149787069Y-86442726D01*
X149827179Y-86373255D01*
X149885674Y-86193227D01*
X149905460Y-86004971D01*
X149885674Y-85816715D01*
X149827179Y-85636687D01*
X149787070Y-85567216D01*
X149770598Y-85499319D01*
X149787069Y-85443223D01*
X149827179Y-85373752D01*
X149885674Y-85193724D01*
X149905460Y-85005468D01*
X149885674Y-84817212D01*
X149827179Y-84637184D01*
X149732533Y-84473252D01*
X149605871Y-84332580D01*
X149598344Y-84327111D01*
X149452734Y-84221319D01*
X149452729Y-84221316D01*
X149279807Y-84144325D01*
X149279802Y-84144323D01*
X149134001Y-84113333D01*
X149094646Y-84104968D01*
X149094645Y-84104968D01*
X149040920Y-84104968D01*
X148973881Y-84085283D01*
X148953239Y-84068649D01*
X146721772Y-81837181D01*
X146688287Y-81775858D01*
X146693271Y-81706166D01*
X146735143Y-81650233D01*
X146800607Y-81625816D01*
X146809453Y-81625500D01*
X195296252Y-81625500D01*
X195363291Y-81645185D01*
X195388400Y-81666526D01*
X195394126Y-81672885D01*
X195394130Y-81672889D01*
X195547265Y-81784148D01*
X195547270Y-81784151D01*
X195720192Y-81861142D01*
X195720197Y-81861144D01*
X195905354Y-81900500D01*
X195905355Y-81900500D01*
X196094644Y-81900500D01*
X196094646Y-81900500D01*
X196279803Y-81861144D01*
X196452730Y-81784151D01*
X196605871Y-81672888D01*
X196732533Y-81532216D01*
X196827179Y-81368284D01*
X196885674Y-81188256D01*
X196905460Y-81000000D01*
X196885674Y-80811744D01*
X196827179Y-80631716D01*
X196732533Y-80467784D01*
X196605871Y-80327112D01*
X196605870Y-80327111D01*
X196452734Y-80215851D01*
X196452729Y-80215848D01*
X196279807Y-80138857D01*
X196279802Y-80138855D01*
X196134000Y-80107865D01*
X196094646Y-80099500D01*
X195905354Y-80099500D01*
X195872897Y-80106398D01*
X195720197Y-80138855D01*
X195720192Y-80138857D01*
X195547270Y-80215848D01*
X195547265Y-80215851D01*
X195394130Y-80327110D01*
X195394126Y-80327114D01*
X195388400Y-80333474D01*
X195328913Y-80370121D01*
X195296252Y-80374500D01*
X145946849Y-80374500D01*
X145879810Y-80354815D01*
X145859168Y-80338181D01*
X144520990Y-79000003D01*
X182944785Y-79000003D01*
X182951789Y-79075596D01*
X182951983Y-79078365D01*
X182955745Y-79157328D01*
X182955746Y-79157330D01*
X182959468Y-79172675D01*
X182962433Y-79190458D01*
X182963603Y-79203083D01*
X182985607Y-79280421D01*
X182996403Y-79324919D01*
X183005295Y-79361573D01*
X183005297Y-79361579D01*
X183010421Y-79372799D01*
X183016891Y-79390369D01*
X183019419Y-79399253D01*
X183056635Y-79473992D01*
X183092605Y-79552756D01*
X183097753Y-79559984D01*
X183107748Y-79576643D01*
X183110327Y-79581821D01*
X183162511Y-79650924D01*
X183214514Y-79723952D01*
X183218443Y-79727698D01*
X183231822Y-79742707D01*
X183233236Y-79744579D01*
X183299522Y-79805006D01*
X183366622Y-79868986D01*
X183366623Y-79868986D01*
X183366623Y-79868987D01*
X183368285Y-79870055D01*
X183379352Y-79878559D01*
X183379380Y-79878523D01*
X183383952Y-79881975D01*
X183383959Y-79881981D01*
X183415258Y-79901360D01*
X183462841Y-79930823D01*
X183503988Y-79957266D01*
X183543428Y-79982613D01*
X183543432Y-79982614D01*
X183548684Y-79985323D01*
X183548647Y-79985394D01*
X183552064Y-79987120D01*
X183552229Y-79986791D01*
X183557358Y-79989345D01*
X183557363Y-79989348D01*
X183646728Y-80023968D01*
X183738543Y-80060725D01*
X183738761Y-80060767D01*
X183743989Y-80062012D01*
X183747537Y-80063021D01*
X183747544Y-80063024D01*
X183844766Y-80081198D01*
X183844767Y-80081198D01*
X183944914Y-80100500D01*
X183944915Y-80100500D01*
X184151976Y-80100500D01*
X184200996Y-80091336D01*
X184206478Y-80090564D01*
X184226226Y-80088677D01*
X184259218Y-80085528D01*
X184303802Y-80072435D01*
X184309837Y-80070989D01*
X184352456Y-80063024D01*
X184402030Y-80043818D01*
X184406896Y-80042164D01*
X184460875Y-80026316D01*
X184499269Y-80006521D01*
X184505248Y-80003832D01*
X184542637Y-79989348D01*
X184590586Y-79959657D01*
X184594791Y-79957276D01*
X184647682Y-79930011D01*
X184679074Y-79905322D01*
X184684722Y-79901371D01*
X184716041Y-79881981D01*
X184760155Y-79841764D01*
X184763553Y-79838886D01*
X184812886Y-79800092D01*
X184836884Y-79772395D01*
X184841955Y-79767193D01*
X184866764Y-79744579D01*
X184904693Y-79694350D01*
X184907296Y-79691136D01*
X184950519Y-79641256D01*
X184967210Y-79612344D01*
X184971424Y-79605984D01*
X184989673Y-79581821D01*
X185019185Y-79522550D01*
X185020949Y-79519265D01*
X185055604Y-79459244D01*
X185065456Y-79430775D01*
X185068543Y-79423425D01*
X185080582Y-79399250D01*
X185099577Y-79332485D01*
X185100618Y-79329183D01*
X185101335Y-79327112D01*
X185124344Y-79260633D01*
X185128165Y-79234048D01*
X185129901Y-79225911D01*
X185136397Y-79203083D01*
X185143103Y-79130692D01*
X185143467Y-79127619D01*
X185154254Y-79052602D01*
X185153132Y-79029056D01*
X185153326Y-79020377D01*
X185155215Y-79000003D01*
X190944785Y-79000003D01*
X190951789Y-79075596D01*
X190951983Y-79078365D01*
X190955745Y-79157328D01*
X190955746Y-79157330D01*
X190959468Y-79172675D01*
X190962433Y-79190458D01*
X190963603Y-79203083D01*
X190985607Y-79280421D01*
X190996403Y-79324919D01*
X191005295Y-79361573D01*
X191005297Y-79361579D01*
X191010421Y-79372799D01*
X191016891Y-79390369D01*
X191019419Y-79399253D01*
X191056635Y-79473992D01*
X191092605Y-79552756D01*
X191097753Y-79559984D01*
X191107748Y-79576643D01*
X191110327Y-79581821D01*
X191162511Y-79650924D01*
X191214514Y-79723952D01*
X191218443Y-79727698D01*
X191231822Y-79742707D01*
X191233236Y-79744579D01*
X191299522Y-79805006D01*
X191366622Y-79868986D01*
X191366623Y-79868986D01*
X191366623Y-79868987D01*
X191368285Y-79870055D01*
X191379352Y-79878559D01*
X191379380Y-79878523D01*
X191383952Y-79881975D01*
X191383959Y-79881981D01*
X191415258Y-79901360D01*
X191462841Y-79930823D01*
X191503988Y-79957266D01*
X191543428Y-79982613D01*
X191543432Y-79982614D01*
X191548684Y-79985323D01*
X191548647Y-79985394D01*
X191552064Y-79987120D01*
X191552229Y-79986791D01*
X191557358Y-79989345D01*
X191557363Y-79989348D01*
X191646728Y-80023968D01*
X191738543Y-80060725D01*
X191738761Y-80060767D01*
X191743989Y-80062012D01*
X191747537Y-80063021D01*
X191747544Y-80063024D01*
X191844766Y-80081198D01*
X191844767Y-80081198D01*
X191944914Y-80100500D01*
X191944915Y-80100500D01*
X192151976Y-80100500D01*
X192200996Y-80091336D01*
X192206478Y-80090564D01*
X192226226Y-80088677D01*
X192259218Y-80085528D01*
X192303802Y-80072435D01*
X192309837Y-80070989D01*
X192352456Y-80063024D01*
X192402030Y-80043818D01*
X192406896Y-80042164D01*
X192460875Y-80026316D01*
X192499269Y-80006521D01*
X192505248Y-80003832D01*
X192542637Y-79989348D01*
X192590586Y-79959657D01*
X192594791Y-79957276D01*
X192647682Y-79930011D01*
X192679074Y-79905322D01*
X192684722Y-79901371D01*
X192716041Y-79881981D01*
X192760155Y-79841764D01*
X192763553Y-79838886D01*
X192812886Y-79800092D01*
X192836884Y-79772395D01*
X192841955Y-79767193D01*
X192866764Y-79744579D01*
X192904693Y-79694350D01*
X192907296Y-79691136D01*
X192950519Y-79641256D01*
X192967210Y-79612344D01*
X192971424Y-79605984D01*
X192989673Y-79581821D01*
X193019185Y-79522550D01*
X193020949Y-79519265D01*
X193055604Y-79459244D01*
X193065456Y-79430775D01*
X193068543Y-79423425D01*
X193080582Y-79399250D01*
X193099577Y-79332485D01*
X193100618Y-79329183D01*
X193101335Y-79327112D01*
X193124344Y-79260633D01*
X193128165Y-79234048D01*
X193129901Y-79225911D01*
X193136397Y-79203083D01*
X193143103Y-79130692D01*
X193143467Y-79127619D01*
X193154254Y-79052602D01*
X193153132Y-79029056D01*
X193153326Y-79020377D01*
X193155215Y-79000000D01*
X193148208Y-78924400D01*
X193148014Y-78921628D01*
X193144254Y-78842669D01*
X193140534Y-78827338D01*
X193137565Y-78809531D01*
X193136916Y-78802522D01*
X193136397Y-78796917D01*
X193114392Y-78719578D01*
X193094704Y-78638424D01*
X193089579Y-78627202D01*
X193083107Y-78609627D01*
X193080582Y-78600750D01*
X193080208Y-78599998D01*
X199044901Y-78599998D01*
X199046224Y-78613439D01*
X199046661Y-78631858D01*
X199045824Y-78648382D01*
X199045824Y-78648395D01*
X199056332Y-78716987D01*
X199056748Y-78720297D01*
X199063252Y-78786326D01*
X199063253Y-78786332D01*
X199068164Y-78802522D01*
X199072071Y-78819732D01*
X199075094Y-78839465D01*
X199075095Y-78839468D01*
X199098082Y-78901537D01*
X199099272Y-78905071D01*
X199117604Y-78965501D01*
X199129182Y-78987163D01*
X199132646Y-78994862D01*
X199142235Y-79020752D01*
X199142236Y-79020754D01*
X199175544Y-79074193D01*
X199177607Y-79077761D01*
X199204257Y-79127619D01*
X199205865Y-79130626D01*
X199223489Y-79152101D01*
X199228183Y-79158644D01*
X199244489Y-79184805D01*
X199244490Y-79184806D01*
X199285667Y-79228124D01*
X199288656Y-79231507D01*
X199292902Y-79236681D01*
X199324639Y-79275353D01*
X199324641Y-79275354D01*
X199324643Y-79275357D01*
X199344097Y-79291322D01*
X199348608Y-79295025D01*
X199354213Y-79300235D01*
X199377677Y-79324919D01*
X199424104Y-79357233D01*
X199428006Y-79360185D01*
X199469375Y-79394136D01*
X199499555Y-79410267D01*
X199505754Y-79414063D01*
X199536334Y-79435348D01*
X199536336Y-79435349D01*
X199536342Y-79435353D01*
X199585373Y-79456393D01*
X199590127Y-79458678D01*
X199634499Y-79482396D01*
X199670323Y-79493263D01*
X199676780Y-79495620D01*
X199687125Y-79500059D01*
X199713988Y-79511587D01*
X199763114Y-79521682D01*
X199768597Y-79523074D01*
X199813669Y-79536747D01*
X199823246Y-79537690D01*
X199854127Y-79540732D01*
X199860536Y-79541703D01*
X199903343Y-79550500D01*
X199903344Y-79550500D01*
X199950257Y-79550500D01*
X199956338Y-79550799D01*
X199968160Y-79551963D01*
X200000000Y-79555099D01*
X200030470Y-79552097D01*
X200043622Y-79550803D01*
X200046564Y-79550583D01*
X200048206Y-79550500D01*
X200094755Y-79545766D01*
X200136009Y-79541703D01*
X200186331Y-79536747D01*
X200186343Y-79536743D01*
X200186426Y-79536727D01*
X200192259Y-79535851D01*
X200192321Y-79535845D01*
X200280262Y-79508252D01*
X200365501Y-79482396D01*
X200365507Y-79482392D01*
X200371779Y-79479795D01*
X200376616Y-79478038D01*
X200376762Y-79477975D01*
X200376768Y-79477974D01*
X200454696Y-79434720D01*
X200530625Y-79394136D01*
X200530635Y-79394127D01*
X200535694Y-79390748D01*
X200535850Y-79390982D01*
X200541686Y-79387015D01*
X200545783Y-79384162D01*
X200545791Y-79384159D01*
X200611128Y-79328068D01*
X200675357Y-79275357D01*
X200675361Y-79275351D01*
X200676539Y-79274174D01*
X200690328Y-79260077D01*
X200690754Y-79259710D01*
X200692468Y-79258240D01*
X200743326Y-79192535D01*
X200794136Y-79130625D01*
X200795657Y-79127777D01*
X200806966Y-79110320D01*
X200810796Y-79105373D01*
X200836684Y-79052596D01*
X200846068Y-79033466D01*
X200870817Y-78987163D01*
X200882396Y-78965501D01*
X200884324Y-78959142D01*
X200891664Y-78940511D01*
X200895930Y-78931816D01*
X200915253Y-78857184D01*
X200936747Y-78786331D01*
X200937734Y-78776300D01*
X200941096Y-78757374D01*
X200944385Y-78744674D01*
X200948063Y-78672138D01*
X200948281Y-78669216D01*
X200955099Y-78600000D01*
X200953776Y-78586571D01*
X200953337Y-78568137D01*
X200954176Y-78551610D01*
X200943661Y-78482978D01*
X200943249Y-78479693D01*
X200940054Y-78447246D01*
X200936747Y-78413669D01*
X200931833Y-78397472D01*
X200927926Y-78380263D01*
X200924903Y-78360526D01*
X200901908Y-78298440D01*
X200900726Y-78294926D01*
X200882396Y-78234499D01*
X200882394Y-78234496D01*
X200882394Y-78234494D01*
X200870817Y-78212836D01*
X200867353Y-78205140D01*
X200857764Y-78179247D01*
X200857762Y-78179245D01*
X200857761Y-78179241D01*
X200829949Y-78134621D01*
X200824451Y-78125800D01*
X200822397Y-78122249D01*
X200804981Y-78089665D01*
X200794137Y-78069376D01*
X200794135Y-78069373D01*
X200776507Y-78047894D01*
X200771816Y-78041356D01*
X200755509Y-78015193D01*
X200714329Y-77971872D01*
X200711348Y-77968497D01*
X200675357Y-77924643D01*
X200651390Y-77904973D01*
X200645781Y-77899759D01*
X200645535Y-77899500D01*
X200622323Y-77875081D01*
X200617797Y-77871931D01*
X200575904Y-77842772D01*
X200571988Y-77839810D01*
X200536494Y-77810681D01*
X200530625Y-77805864D01*
X200500429Y-77789724D01*
X200494246Y-77785937D01*
X200463659Y-77764648D01*
X200463660Y-77764648D01*
X200463658Y-77764647D01*
X200414630Y-77743607D01*
X200409867Y-77741318D01*
X200365501Y-77717604D01*
X200365500Y-77717603D01*
X200365499Y-77717603D01*
X200345887Y-77711654D01*
X200329669Y-77706734D01*
X200323219Y-77704379D01*
X200286009Y-77688411D01*
X200236909Y-77678321D01*
X200231391Y-77676921D01*
X200186336Y-77663254D01*
X200186327Y-77663252D01*
X200145864Y-77659266D01*
X200139458Y-77658295D01*
X200096657Y-77649500D01*
X200096656Y-77649500D01*
X200049743Y-77649500D01*
X200043662Y-77649201D01*
X200000000Y-77644901D01*
X199999999Y-77644901D01*
X199956377Y-77649197D01*
X199953442Y-77649416D01*
X199951795Y-77649499D01*
X199905244Y-77654233D01*
X199813654Y-77663254D01*
X199813523Y-77663281D01*
X199807738Y-77664148D01*
X199807690Y-77664152D01*
X199807669Y-77664157D01*
X199719738Y-77691746D01*
X199634493Y-77717605D01*
X199628195Y-77720213D01*
X199623380Y-77721962D01*
X199623232Y-77722025D01*
X199545303Y-77765279D01*
X199469378Y-77805862D01*
X199464311Y-77809248D01*
X199464156Y-77809016D01*
X199458105Y-77813129D01*
X199454207Y-77815841D01*
X199388871Y-77871931D01*
X199324643Y-77924643D01*
X199324641Y-77924644D01*
X199324635Y-77924650D01*
X199323617Y-77925667D01*
X199309691Y-77939906D01*
X199307536Y-77941755D01*
X199307527Y-77941765D01*
X199256673Y-78007464D01*
X199205869Y-78069368D01*
X199205866Y-78069372D01*
X199205864Y-78069375D01*
X199205861Y-78069379D01*
X199205858Y-78069385D01*
X199204331Y-78072241D01*
X199193044Y-78089665D01*
X199189204Y-78094626D01*
X199189202Y-78094629D01*
X199153932Y-78166533D01*
X199117604Y-78234497D01*
X199115669Y-78240876D01*
X199108344Y-78259468D01*
X199104070Y-78268181D01*
X199084746Y-78342815D01*
X199063252Y-78413668D01*
X199063251Y-78413674D01*
X199062262Y-78423712D01*
X199058905Y-78442614D01*
X199055615Y-78455322D01*
X199051935Y-78527852D01*
X199051716Y-78530786D01*
X199044901Y-78599997D01*
X199044901Y-78599998D01*
X193080208Y-78599998D01*
X193043364Y-78526007D01*
X193007396Y-78447247D01*
X193002243Y-78440011D01*
X192992249Y-78423353D01*
X192989673Y-78418179D01*
X192989669Y-78418173D01*
X192937488Y-78349075D01*
X192885488Y-78276050D01*
X192885486Y-78276048D01*
X192881550Y-78272295D01*
X192868175Y-78257289D01*
X192866763Y-78255420D01*
X192866762Y-78255418D01*
X192800478Y-78194993D01*
X192733387Y-78131022D01*
X192733382Y-78131017D01*
X192733378Y-78131014D01*
X192731708Y-78129940D01*
X192720647Y-78121441D01*
X192720621Y-78121477D01*
X192716048Y-78118024D01*
X192716042Y-78118020D01*
X192716041Y-78118019D01*
X192637158Y-78069177D01*
X192556572Y-78017387D01*
X192556569Y-78017386D01*
X192556568Y-78017385D01*
X192551321Y-78014680D01*
X192551356Y-78014610D01*
X192547920Y-78012874D01*
X192547758Y-78013202D01*
X192542641Y-78010653D01*
X192453271Y-77976031D01*
X192361455Y-77939274D01*
X192361236Y-77939232D01*
X192356019Y-77937989D01*
X192352455Y-77936975D01*
X192255232Y-77918801D01*
X192155086Y-77899500D01*
X192155085Y-77899500D01*
X192151976Y-77899500D01*
X191948024Y-77899500D01*
X191948018Y-77899500D01*
X191899004Y-77908662D01*
X191893506Y-77909436D01*
X191840785Y-77914471D01*
X191796226Y-77927554D01*
X191790151Y-77929010D01*
X191753499Y-77935862D01*
X191747544Y-77936976D01*
X191747542Y-77936976D01*
X191747535Y-77936978D01*
X191705906Y-77953105D01*
X191698004Y-77956167D01*
X191693080Y-77957840D01*
X191639135Y-77973680D01*
X191639116Y-77973687D01*
X191600750Y-77993466D01*
X191594736Y-77996172D01*
X191557361Y-78010652D01*
X191509427Y-78040332D01*
X191505198Y-78042726D01*
X191452321Y-78069986D01*
X191420945Y-78094659D01*
X191415257Y-78098639D01*
X191383959Y-78118018D01*
X191383956Y-78118020D01*
X191339869Y-78158211D01*
X191336426Y-78161127D01*
X191287116Y-78199904D01*
X191287115Y-78199906D01*
X191263120Y-78227597D01*
X191258031Y-78232816D01*
X191233239Y-78255417D01*
X191195322Y-78305625D01*
X191192702Y-78308863D01*
X191149482Y-78358741D01*
X191132792Y-78387647D01*
X191128575Y-78394013D01*
X191110326Y-78418180D01*
X191080837Y-78477399D01*
X191079032Y-78480762D01*
X191044397Y-78540752D01*
X191044394Y-78540758D01*
X191034548Y-78569208D01*
X191031457Y-78576569D01*
X191019416Y-78600753D01*
X191019416Y-78600754D01*
X191000422Y-78667509D01*
X190999379Y-78670817D01*
X190975656Y-78739365D01*
X190975655Y-78739369D01*
X190971834Y-78765939D01*
X190970097Y-78774088D01*
X190963603Y-78796915D01*
X190963603Y-78796917D01*
X190956897Y-78869281D01*
X190956530Y-78872383D01*
X190945746Y-78947396D01*
X190945745Y-78947402D01*
X190946866Y-78970950D01*
X190946672Y-78979624D01*
X190944785Y-79000002D01*
X190944785Y-79000003D01*
X185155215Y-79000003D01*
X185155215Y-79000000D01*
X185148208Y-78924400D01*
X185148014Y-78921628D01*
X185144254Y-78842669D01*
X185140534Y-78827338D01*
X185137565Y-78809531D01*
X185136916Y-78802522D01*
X185136397Y-78796917D01*
X185114392Y-78719578D01*
X185094704Y-78638424D01*
X185089579Y-78627202D01*
X185083107Y-78609627D01*
X185080582Y-78600750D01*
X185043364Y-78526007D01*
X185007396Y-78447247D01*
X185002243Y-78440011D01*
X184992249Y-78423353D01*
X184989673Y-78418179D01*
X184989669Y-78418173D01*
X184937488Y-78349075D01*
X184885488Y-78276050D01*
X184885486Y-78276048D01*
X184881550Y-78272295D01*
X184868175Y-78257289D01*
X184866763Y-78255420D01*
X184866762Y-78255418D01*
X184800478Y-78194993D01*
X184733387Y-78131022D01*
X184733382Y-78131017D01*
X184733378Y-78131014D01*
X184731708Y-78129940D01*
X184720647Y-78121441D01*
X184720621Y-78121477D01*
X184716048Y-78118024D01*
X184716042Y-78118020D01*
X184716041Y-78118019D01*
X184637158Y-78069177D01*
X184556572Y-78017387D01*
X184556569Y-78017386D01*
X184556568Y-78017385D01*
X184551321Y-78014680D01*
X184551356Y-78014610D01*
X184547920Y-78012874D01*
X184547758Y-78013202D01*
X184542641Y-78010653D01*
X184453271Y-77976031D01*
X184361455Y-77939274D01*
X184361236Y-77939232D01*
X184356019Y-77937989D01*
X184352455Y-77936975D01*
X184255232Y-77918801D01*
X184155086Y-77899500D01*
X184155085Y-77899500D01*
X184151976Y-77899500D01*
X183948024Y-77899500D01*
X183948018Y-77899500D01*
X183899004Y-77908662D01*
X183893506Y-77909436D01*
X183840785Y-77914471D01*
X183796226Y-77927554D01*
X183790151Y-77929010D01*
X183753499Y-77935862D01*
X183747544Y-77936976D01*
X183747542Y-77936976D01*
X183747535Y-77936978D01*
X183705906Y-77953105D01*
X183698004Y-77956167D01*
X183693080Y-77957840D01*
X183639135Y-77973680D01*
X183639116Y-77973687D01*
X183600750Y-77993466D01*
X183594736Y-77996172D01*
X183557361Y-78010652D01*
X183509427Y-78040332D01*
X183505198Y-78042726D01*
X183452321Y-78069986D01*
X183420945Y-78094659D01*
X183415257Y-78098639D01*
X183383959Y-78118018D01*
X183383956Y-78118020D01*
X183339869Y-78158211D01*
X183336426Y-78161127D01*
X183287116Y-78199904D01*
X183287115Y-78199906D01*
X183263120Y-78227597D01*
X183258031Y-78232816D01*
X183233239Y-78255417D01*
X183195322Y-78305625D01*
X183192702Y-78308863D01*
X183149482Y-78358741D01*
X183132792Y-78387647D01*
X183128575Y-78394013D01*
X183110326Y-78418180D01*
X183080837Y-78477399D01*
X183079032Y-78480762D01*
X183044397Y-78540752D01*
X183044394Y-78540758D01*
X183034548Y-78569208D01*
X183031457Y-78576569D01*
X183019416Y-78600753D01*
X183019416Y-78600754D01*
X183000422Y-78667509D01*
X182999379Y-78670817D01*
X182975656Y-78739365D01*
X182975655Y-78739369D01*
X182971834Y-78765939D01*
X182970097Y-78774088D01*
X182963603Y-78796915D01*
X182963603Y-78796917D01*
X182956897Y-78869281D01*
X182956530Y-78872383D01*
X182945746Y-78947396D01*
X182945745Y-78947402D01*
X182946866Y-78970950D01*
X182946672Y-78979624D01*
X182944785Y-79000002D01*
X182944785Y-79000003D01*
X144520990Y-79000003D01*
X144358168Y-78837181D01*
X144324683Y-78775858D01*
X144329667Y-78706166D01*
X144371539Y-78650233D01*
X144437003Y-78625816D01*
X144445849Y-78625500D01*
X178296252Y-78625500D01*
X178363291Y-78645185D01*
X178388400Y-78666526D01*
X178394126Y-78672885D01*
X178394130Y-78672889D01*
X178547265Y-78784148D01*
X178547270Y-78784151D01*
X178720192Y-78861142D01*
X178720197Y-78861144D01*
X178905354Y-78900500D01*
X178905355Y-78900500D01*
X179094644Y-78900500D01*
X179094646Y-78900500D01*
X179279803Y-78861144D01*
X179452730Y-78784151D01*
X179605871Y-78672888D01*
X179732533Y-78532216D01*
X179827179Y-78368284D01*
X179885674Y-78188256D01*
X179905460Y-78000000D01*
X179885674Y-77811744D01*
X179827179Y-77631716D01*
X179732533Y-77467784D01*
X179605871Y-77327112D01*
X179605870Y-77327111D01*
X179452734Y-77215851D01*
X179452729Y-77215848D01*
X179279807Y-77138857D01*
X179279802Y-77138855D01*
X179134000Y-77107865D01*
X179094646Y-77099500D01*
X178905354Y-77099500D01*
X178872897Y-77106398D01*
X178720197Y-77138855D01*
X178720192Y-77138857D01*
X178547270Y-77215848D01*
X178547265Y-77215851D01*
X178394130Y-77327110D01*
X178394126Y-77327114D01*
X178388400Y-77333474D01*
X178328913Y-77370121D01*
X178296252Y-77374500D01*
X123703748Y-77374500D01*
X123636709Y-77354815D01*
X123611600Y-77333474D01*
X123605873Y-77327114D01*
X123605869Y-77327110D01*
X123452734Y-77215851D01*
X123452729Y-77215848D01*
X123279807Y-77138857D01*
X123279800Y-77138855D01*
X123197161Y-77121290D01*
X123135679Y-77088098D01*
X123101902Y-77026935D01*
X123106554Y-76957221D01*
X123148158Y-76901088D01*
X123197161Y-76878710D01*
X123203201Y-76877426D01*
X123279803Y-76861144D01*
X123452730Y-76784151D01*
X123605871Y-76672888D01*
X123608788Y-76669647D01*
X123611600Y-76666526D01*
X123671087Y-76629879D01*
X123703748Y-76625500D01*
X136296252Y-76625500D01*
X136363291Y-76645185D01*
X136388400Y-76666526D01*
X136394126Y-76672885D01*
X136394130Y-76672889D01*
X136547265Y-76784148D01*
X136547270Y-76784151D01*
X136720192Y-76861142D01*
X136720197Y-76861144D01*
X136905354Y-76900500D01*
X136905355Y-76900500D01*
X137094644Y-76900500D01*
X137094646Y-76900500D01*
X137279803Y-76861144D01*
X137452730Y-76784151D01*
X137605871Y-76672888D01*
X137732533Y-76532216D01*
X137827179Y-76368284D01*
X137849367Y-76299998D01*
X199044901Y-76299998D01*
X199046224Y-76313439D01*
X199046661Y-76331858D01*
X199045824Y-76348382D01*
X199045824Y-76348395D01*
X199056332Y-76416987D01*
X199056748Y-76420297D01*
X199063252Y-76486326D01*
X199063253Y-76486332D01*
X199068164Y-76502522D01*
X199072071Y-76519732D01*
X199075094Y-76539465D01*
X199075095Y-76539468D01*
X199098082Y-76601537D01*
X199099272Y-76605071D01*
X199117604Y-76665501D01*
X199129182Y-76687163D01*
X199132646Y-76694862D01*
X199142235Y-76720752D01*
X199142236Y-76720754D01*
X199175544Y-76774193D01*
X199177607Y-76777761D01*
X199205865Y-76830626D01*
X199223489Y-76852101D01*
X199228183Y-76858644D01*
X199244489Y-76884805D01*
X199244490Y-76884806D01*
X199285667Y-76928124D01*
X199288658Y-76931509D01*
X199324639Y-76975353D01*
X199324641Y-76975354D01*
X199324643Y-76975357D01*
X199344097Y-76991322D01*
X199348608Y-76995025D01*
X199354213Y-77000235D01*
X199377677Y-77024919D01*
X199424104Y-77057233D01*
X199428006Y-77060185D01*
X199469375Y-77094136D01*
X199479411Y-77099500D01*
X199499555Y-77110267D01*
X199505754Y-77114063D01*
X199536334Y-77135348D01*
X199536336Y-77135349D01*
X199536342Y-77135353D01*
X199585373Y-77156393D01*
X199590127Y-77158678D01*
X199634499Y-77182396D01*
X199670323Y-77193263D01*
X199676780Y-77195620D01*
X199687125Y-77200059D01*
X199713988Y-77211587D01*
X199763114Y-77221682D01*
X199768597Y-77223074D01*
X199813669Y-77236747D01*
X199823246Y-77237690D01*
X199854127Y-77240732D01*
X199860536Y-77241703D01*
X199903343Y-77250500D01*
X199903344Y-77250500D01*
X199950257Y-77250500D01*
X199956338Y-77250799D01*
X199968160Y-77251963D01*
X200000000Y-77255099D01*
X200030470Y-77252097D01*
X200043622Y-77250803D01*
X200046564Y-77250583D01*
X200048206Y-77250500D01*
X200094755Y-77245766D01*
X200136009Y-77241703D01*
X200186331Y-77236747D01*
X200186343Y-77236743D01*
X200186426Y-77236727D01*
X200192259Y-77235851D01*
X200192321Y-77235845D01*
X200280262Y-77208252D01*
X200365501Y-77182396D01*
X200365507Y-77182392D01*
X200371779Y-77179795D01*
X200376616Y-77178038D01*
X200376762Y-77177975D01*
X200376768Y-77177974D01*
X200454696Y-77134720D01*
X200530625Y-77094136D01*
X200530635Y-77094127D01*
X200535694Y-77090748D01*
X200535850Y-77090982D01*
X200541686Y-77087015D01*
X200545783Y-77084162D01*
X200545791Y-77084159D01*
X200611128Y-77028068D01*
X200675357Y-76975357D01*
X200675361Y-76975351D01*
X200676539Y-76974174D01*
X200690328Y-76960077D01*
X200690754Y-76959710D01*
X200692468Y-76958240D01*
X200743326Y-76892535D01*
X200794136Y-76830625D01*
X200795657Y-76827777D01*
X200806966Y-76810320D01*
X200810796Y-76805373D01*
X200826090Y-76774193D01*
X200846068Y-76733466D01*
X200870817Y-76687163D01*
X200882396Y-76665501D01*
X200884324Y-76659142D01*
X200891664Y-76640511D01*
X200895930Y-76631816D01*
X200915253Y-76557184D01*
X200936747Y-76486331D01*
X200937734Y-76476300D01*
X200941096Y-76457374D01*
X200944385Y-76444674D01*
X200948063Y-76372138D01*
X200948281Y-76369216D01*
X200948373Y-76368284D01*
X200955099Y-76300000D01*
X200953776Y-76286571D01*
X200953337Y-76268137D01*
X200954176Y-76251610D01*
X200943661Y-76182978D01*
X200943249Y-76179693D01*
X200940849Y-76155322D01*
X200936747Y-76113669D01*
X200931833Y-76097472D01*
X200927926Y-76080263D01*
X200924903Y-76060526D01*
X200901908Y-75998440D01*
X200900726Y-75994926D01*
X200882394Y-75934494D01*
X200870817Y-75912836D01*
X200867353Y-75905140D01*
X200857764Y-75879247D01*
X200857762Y-75879245D01*
X200857761Y-75879241D01*
X200824453Y-75825804D01*
X200822397Y-75822249D01*
X200804981Y-75789665D01*
X200794137Y-75769376D01*
X200794135Y-75769373D01*
X200776507Y-75747894D01*
X200771816Y-75741356D01*
X200755509Y-75715193D01*
X200714329Y-75671872D01*
X200711348Y-75668497D01*
X200675357Y-75624643D01*
X200651390Y-75604973D01*
X200645781Y-75599759D01*
X200622323Y-75575081D01*
X200617797Y-75571931D01*
X200575904Y-75542772D01*
X200571988Y-75539810D01*
X200536494Y-75510681D01*
X200530625Y-75505864D01*
X200500429Y-75489724D01*
X200494246Y-75485937D01*
X200469337Y-75468600D01*
X200463658Y-75464647D01*
X200414630Y-75443607D01*
X200409867Y-75441318D01*
X200365501Y-75417604D01*
X200365500Y-75417603D01*
X200365499Y-75417603D01*
X200345887Y-75411654D01*
X200329669Y-75406734D01*
X200323219Y-75404379D01*
X200286009Y-75388411D01*
X200236909Y-75378321D01*
X200231391Y-75376921D01*
X200186336Y-75363254D01*
X200186327Y-75363252D01*
X200145864Y-75359266D01*
X200139458Y-75358295D01*
X200096657Y-75349500D01*
X200096656Y-75349500D01*
X200049743Y-75349500D01*
X200043662Y-75349201D01*
X200000000Y-75344901D01*
X199999999Y-75344901D01*
X199956377Y-75349197D01*
X199953442Y-75349416D01*
X199951795Y-75349499D01*
X199905244Y-75354233D01*
X199813654Y-75363254D01*
X199813523Y-75363281D01*
X199807738Y-75364148D01*
X199807690Y-75364152D01*
X199807669Y-75364157D01*
X199719738Y-75391746D01*
X199634493Y-75417605D01*
X199628195Y-75420213D01*
X199623380Y-75421962D01*
X199623232Y-75422025D01*
X199545303Y-75465279D01*
X199469378Y-75505862D01*
X199464311Y-75509248D01*
X199464156Y-75509016D01*
X199458105Y-75513129D01*
X199454207Y-75515841D01*
X199388871Y-75571931D01*
X199324643Y-75624643D01*
X199324641Y-75624644D01*
X199324635Y-75624650D01*
X199323617Y-75625667D01*
X199309691Y-75639906D01*
X199307536Y-75641755D01*
X199307527Y-75641765D01*
X199256673Y-75707464D01*
X199205869Y-75769368D01*
X199205866Y-75769372D01*
X199205864Y-75769375D01*
X199205861Y-75769379D01*
X199205858Y-75769385D01*
X199204331Y-75772241D01*
X199193044Y-75789665D01*
X199189204Y-75794626D01*
X199189202Y-75794629D01*
X199153932Y-75866533D01*
X199117604Y-75934497D01*
X199115669Y-75940876D01*
X199108344Y-75959468D01*
X199104070Y-75968181D01*
X199084746Y-76042815D01*
X199063252Y-76113668D01*
X199063251Y-76113674D01*
X199062262Y-76123712D01*
X199058905Y-76142614D01*
X199055615Y-76155322D01*
X199051935Y-76227852D01*
X199051716Y-76230786D01*
X199044901Y-76299997D01*
X199044901Y-76299998D01*
X137849367Y-76299998D01*
X137885674Y-76188256D01*
X137905460Y-76000000D01*
X137885674Y-75811744D01*
X137827179Y-75631716D01*
X137772205Y-75536499D01*
X137755733Y-75468600D01*
X137778586Y-75402573D01*
X137833507Y-75359382D01*
X137879593Y-75350500D01*
X195204556Y-75350500D01*
X195220176Y-75352224D01*
X195220203Y-75351939D01*
X195227959Y-75352671D01*
X195227966Y-75352673D01*
X195297113Y-75350500D01*
X195326649Y-75350500D01*
X195333527Y-75349630D01*
X195339340Y-75349172D01*
X195385926Y-75347709D01*
X195405168Y-75342117D01*
X195424211Y-75338174D01*
X195444091Y-75335664D01*
X195487421Y-75318507D01*
X195492945Y-75316617D01*
X195496695Y-75315527D01*
X195537689Y-75303618D01*
X195554928Y-75293422D01*
X195572402Y-75284862D01*
X195591026Y-75277488D01*
X195591026Y-75277487D01*
X195591031Y-75277486D01*
X195628748Y-75250082D01*
X195633604Y-75246892D01*
X195673719Y-75223170D01*
X195687888Y-75208999D01*
X195702678Y-75196368D01*
X195718886Y-75184594D01*
X195748598Y-75148676D01*
X195752511Y-75144376D01*
X195947772Y-74949115D01*
X196009095Y-74915633D01*
X196035452Y-74912799D01*
X196094644Y-74912799D01*
X196094646Y-74912799D01*
X196279803Y-74873443D01*
X196452730Y-74796450D01*
X196605871Y-74685187D01*
X196732533Y-74544515D01*
X196827179Y-74380583D01*
X196885674Y-74200555D01*
X196905460Y-74012299D01*
X196885674Y-73824043D01*
X196827179Y-73644015D01*
X196732533Y-73480083D01*
X196605871Y-73339411D01*
X196605870Y-73339410D01*
X196452734Y-73228150D01*
X196452729Y-73228147D01*
X196279807Y-73151156D01*
X196279802Y-73151154D01*
X196134001Y-73120164D01*
X196094646Y-73111799D01*
X195905354Y-73111799D01*
X195855375Y-73122422D01*
X195720199Y-73151154D01*
X195570781Y-73217680D01*
X195501531Y-73226964D01*
X195456253Y-73208335D01*
X195455468Y-73209696D01*
X195449834Y-73206443D01*
X195276912Y-73129452D01*
X195276907Y-73129450D01*
X195131106Y-73098460D01*
X195091751Y-73090095D01*
X195091750Y-73090095D01*
X195032557Y-73090095D01*
X194965518Y-73070410D01*
X194944876Y-73053776D01*
X194507313Y-72616212D01*
X194497490Y-72603950D01*
X194497269Y-72604134D01*
X194492296Y-72598123D01*
X194441874Y-72550773D01*
X194431428Y-72540328D01*
X194420985Y-72529883D01*
X194415496Y-72525625D01*
X194411071Y-72521847D01*
X194377092Y-72489938D01*
X194377090Y-72489936D01*
X194377087Y-72489935D01*
X194359539Y-72480288D01*
X194343273Y-72469604D01*
X194327443Y-72457325D01*
X194284678Y-72438818D01*
X194279432Y-72436248D01*
X194238603Y-72413803D01*
X194238602Y-72413802D01*
X194219203Y-72408822D01*
X194200791Y-72402518D01*
X194182408Y-72394562D01*
X194182402Y-72394560D01*
X194136384Y-72387272D01*
X194130662Y-72386087D01*
X194085531Y-72374500D01*
X194085529Y-72374500D01*
X194065494Y-72374500D01*
X194046096Y-72372973D01*
X194038672Y-72371797D01*
X194026315Y-72369840D01*
X194026314Y-72369840D01*
X193979926Y-72374225D01*
X193974088Y-72374500D01*
X123703748Y-72374500D01*
X123636709Y-72354815D01*
X123611600Y-72333474D01*
X123605873Y-72327114D01*
X123605869Y-72327110D01*
X123452734Y-72215851D01*
X123452729Y-72215848D01*
X123279807Y-72138857D01*
X123279802Y-72138855D01*
X123134000Y-72107865D01*
X123094646Y-72099500D01*
X122905354Y-72099500D01*
X122872897Y-72106398D01*
X122720197Y-72138855D01*
X122720192Y-72138857D01*
X122547270Y-72215848D01*
X122547265Y-72215851D01*
X122394129Y-72327111D01*
X122267466Y-72467785D01*
X122172821Y-72631715D01*
X122172818Y-72631722D01*
X122114327Y-72811740D01*
X122114326Y-72811744D01*
X122094540Y-73000000D01*
X122114326Y-73188256D01*
X122114327Y-73188259D01*
X122172821Y-73368285D01*
X122220559Y-73450970D01*
X122237032Y-73518870D01*
X122220560Y-73574969D01*
X122181601Y-73642448D01*
X122134368Y-73787818D01*
X122123107Y-73822476D01*
X122103321Y-74010732D01*
X122123107Y-74198988D01*
X122123108Y-74198991D01*
X122181599Y-74379009D01*
X122181602Y-74379016D01*
X122276248Y-74542948D01*
X122402910Y-74683619D01*
X122402910Y-74683620D01*
X122556046Y-74794880D01*
X122556051Y-74794883D01*
X122728973Y-74871874D01*
X122728974Y-74871874D01*
X122728978Y-74871876D01*
X122781985Y-74883143D01*
X122843464Y-74916333D01*
X122877242Y-74977496D01*
X122872590Y-75047210D01*
X122830987Y-75103343D01*
X122781985Y-75125722D01*
X122720196Y-75138856D01*
X122720192Y-75138857D01*
X122547270Y-75215848D01*
X122547265Y-75215851D01*
X122394129Y-75327111D01*
X122267466Y-75467785D01*
X122172821Y-75631715D01*
X122172818Y-75631722D01*
X122119887Y-75794629D01*
X122114326Y-75811744D01*
X122094540Y-76000000D01*
X122114326Y-76188256D01*
X122114327Y-76188259D01*
X122172818Y-76368277D01*
X122172821Y-76368284D01*
X122267467Y-76532216D01*
X122357151Y-76631820D01*
X122394129Y-76672888D01*
X122547265Y-76784148D01*
X122547270Y-76784151D01*
X122720192Y-76861142D01*
X122720197Y-76861144D01*
X122802839Y-76878710D01*
X122864321Y-76911902D01*
X122898097Y-76973065D01*
X122893445Y-77042780D01*
X122851840Y-77098912D01*
X122802839Y-77121290D01*
X122720197Y-77138855D01*
X122720192Y-77138857D01*
X122547270Y-77215848D01*
X122547265Y-77215851D01*
X122394129Y-77327111D01*
X122267466Y-77467785D01*
X122172821Y-77631715D01*
X122172818Y-77631722D01*
X122116236Y-77805865D01*
X122114326Y-77811744D01*
X122094540Y-78000000D01*
X122114326Y-78188256D01*
X122114327Y-78188259D01*
X122172818Y-78368277D01*
X122172821Y-78368284D01*
X122213071Y-78437999D01*
X122229544Y-78505900D01*
X122213071Y-78561999D01*
X122172821Y-78631714D01*
X122117322Y-78802522D01*
X122114326Y-78811744D01*
X122094540Y-79000000D01*
X122114326Y-79188256D01*
X122114327Y-79188259D01*
X122122100Y-79212182D01*
X122124095Y-79282023D01*
X122088015Y-79341856D01*
X122025314Y-79372684D01*
X122004169Y-79374500D01*
X117703748Y-79374500D01*
X117636709Y-79354815D01*
X117611600Y-79333474D01*
X117605873Y-79327114D01*
X117605869Y-79327110D01*
X117452734Y-79215851D01*
X117452729Y-79215848D01*
X117279807Y-79138857D01*
X117279802Y-79138855D01*
X117134001Y-79107865D01*
X117094646Y-79099500D01*
X117084452Y-79099500D01*
X117017413Y-79079815D01*
X116971658Y-79027011D01*
X116961714Y-78957853D01*
X116990739Y-78894297D01*
X116996771Y-78887819D01*
X117178424Y-78706166D01*
X117383788Y-78500801D01*
X117396042Y-78490986D01*
X117395859Y-78490764D01*
X117401866Y-78485792D01*
X117401877Y-78485786D01*
X117432775Y-78452882D01*
X117449227Y-78435364D01*
X117459671Y-78424918D01*
X117470120Y-78414471D01*
X117474379Y-78408978D01*
X117478152Y-78404561D01*
X117510062Y-78370582D01*
X117519715Y-78353020D01*
X117530389Y-78336770D01*
X117542673Y-78320936D01*
X117561180Y-78278167D01*
X117563749Y-78272924D01*
X117567921Y-78265335D01*
X117586197Y-78232092D01*
X117591177Y-78212691D01*
X117597478Y-78194288D01*
X117605438Y-78175896D01*
X117612730Y-78129849D01*
X117613911Y-78124152D01*
X117613936Y-78124055D01*
X117625500Y-78079019D01*
X117625499Y-78058986D01*
X117627027Y-78039583D01*
X117630159Y-78019808D01*
X117630160Y-78019806D01*
X117629931Y-78017387D01*
X117625775Y-77973415D01*
X117625500Y-77967577D01*
X117625500Y-76698687D01*
X117645185Y-76631648D01*
X117657350Y-76615715D01*
X117675891Y-76595122D01*
X117732533Y-76532216D01*
X117827179Y-76368284D01*
X117885674Y-76188256D01*
X117905460Y-76000000D01*
X117885674Y-75811744D01*
X117827179Y-75631716D01*
X117732533Y-75467784D01*
X117605871Y-75327112D01*
X117605870Y-75327111D01*
X117452734Y-75215851D01*
X117452729Y-75215848D01*
X117279807Y-75138857D01*
X117279802Y-75138855D01*
X117112726Y-75103343D01*
X117094646Y-75099500D01*
X116905354Y-75099500D01*
X116887274Y-75103343D01*
X116720197Y-75138855D01*
X116720192Y-75138857D01*
X116547270Y-75215848D01*
X116547265Y-75215851D01*
X116394129Y-75327111D01*
X116267466Y-75467785D01*
X116172821Y-75631715D01*
X116172818Y-75631722D01*
X116119887Y-75794629D01*
X116114326Y-75811744D01*
X116094540Y-76000000D01*
X116114326Y-76188256D01*
X116114327Y-76188259D01*
X116172818Y-76368277D01*
X116172821Y-76368284D01*
X116267467Y-76532216D01*
X116289949Y-76557184D01*
X116342650Y-76615715D01*
X116372880Y-76678706D01*
X116374500Y-76698687D01*
X116374500Y-77689546D01*
X116354815Y-77756585D01*
X116338181Y-77777227D01*
X107616208Y-86499199D01*
X107603951Y-86509020D01*
X107604134Y-86509241D01*
X107598123Y-86514213D01*
X107550772Y-86564636D01*
X107529889Y-86585519D01*
X107529877Y-86585532D01*
X107525621Y-86591017D01*
X107521837Y-86595447D01*
X107489937Y-86629418D01*
X107489936Y-86629420D01*
X107480284Y-86646976D01*
X107469610Y-86663226D01*
X107457329Y-86679061D01*
X107457324Y-86679068D01*
X107438815Y-86721838D01*
X107436245Y-86727084D01*
X107413803Y-86767906D01*
X107408822Y-86787307D01*
X107402521Y-86805710D01*
X107394562Y-86824102D01*
X107394561Y-86824105D01*
X107387271Y-86870127D01*
X107386087Y-86875846D01*
X107374501Y-86920972D01*
X107374500Y-86920982D01*
X107374500Y-86941016D01*
X107372973Y-86960415D01*
X107369840Y-86980194D01*
X107369839Y-86980197D01*
X107374224Y-87026585D01*
X107374499Y-87032421D01*
X107374500Y-88005857D01*
X107354816Y-88072896D01*
X107302012Y-88118651D01*
X107232853Y-88128595D01*
X107224720Y-88127147D01*
X107094647Y-88099500D01*
X107094646Y-88099500D01*
X106905354Y-88099500D01*
X106886644Y-88103477D01*
X106720197Y-88138855D01*
X106720192Y-88138857D01*
X106550435Y-88214439D01*
X106481185Y-88223724D01*
X106449563Y-88214439D01*
X106279807Y-88138857D01*
X106279802Y-88138855D01*
X106113356Y-88103477D01*
X106094646Y-88099500D01*
X105905354Y-88099500D01*
X105886644Y-88103477D01*
X105720197Y-88138855D01*
X105720192Y-88138857D01*
X105550435Y-88214439D01*
X105481185Y-88223724D01*
X105449563Y-88214439D01*
X105279807Y-88138857D01*
X105279802Y-88138855D01*
X105113356Y-88103477D01*
X105094646Y-88099500D01*
X104905354Y-88099500D01*
X104886644Y-88103477D01*
X104720197Y-88138855D01*
X104720192Y-88138857D01*
X104547270Y-88215848D01*
X104547265Y-88215851D01*
X104394129Y-88327111D01*
X104267466Y-88467785D01*
X104172821Y-88631715D01*
X104172818Y-88631722D01*
X104114327Y-88811740D01*
X104114326Y-88811744D01*
X104094540Y-89000000D01*
X104114326Y-89188256D01*
X104114327Y-89188259D01*
X104172818Y-89368277D01*
X104172821Y-89368284D01*
X104267467Y-89532216D01*
X104309809Y-89579241D01*
X104342650Y-89615715D01*
X104372880Y-89678706D01*
X104374500Y-89698687D01*
X104374500Y-89917255D01*
X104372775Y-89932872D01*
X104373061Y-89932899D01*
X104372326Y-89940665D01*
X104374500Y-90009814D01*
X104374500Y-90039343D01*
X104374501Y-90039360D01*
X104375368Y-90046231D01*
X104375826Y-90052050D01*
X104377290Y-90098624D01*
X104377291Y-90098627D01*
X104382880Y-90117867D01*
X104386824Y-90136911D01*
X104389336Y-90156792D01*
X104406490Y-90200119D01*
X104408382Y-90205647D01*
X104421381Y-90250388D01*
X104431580Y-90267634D01*
X104440138Y-90285103D01*
X104447514Y-90303732D01*
X104474898Y-90341423D01*
X104478106Y-90346307D01*
X104501827Y-90386416D01*
X104501833Y-90386424D01*
X104515990Y-90400580D01*
X104528628Y-90415376D01*
X104540405Y-90431586D01*
X104540406Y-90431587D01*
X104576309Y-90461288D01*
X104580620Y-90465210D01*
X104700215Y-90584805D01*
X104787724Y-90672314D01*
X104821209Y-90733637D01*
X104824043Y-90759995D01*
X104824043Y-114849578D01*
X104804358Y-114916617D01*
X104751554Y-114962372D01*
X104700043Y-114973578D01*
X103573801Y-114973578D01*
X103422104Y-114989003D01*
X103227964Y-115049915D01*
X103227949Y-115049922D01*
X103050044Y-115148667D01*
X103050039Y-115148670D01*
X102895650Y-115281210D01*
X102895648Y-115281212D01*
X102771098Y-115442115D01*
X102771097Y-115442118D01*
X102681484Y-115624806D01*
X102630481Y-115821792D01*
X102620175Y-116025014D01*
X102638425Y-116144144D01*
X102631371Y-116196627D01*
X102645547Y-116212685D01*
X102649513Y-116222168D01*
X102721655Y-116416959D01*
X102721659Y-116416966D01*
X102829289Y-116589645D01*
X102829291Y-116589647D01*
X102829292Y-116589649D01*
X102969485Y-116737131D01*
X103068490Y-116806040D01*
X103136493Y-116853372D01*
X103136494Y-116853372D01*
X103136495Y-116853373D01*
X103323486Y-116933618D01*
X103400005Y-116949342D01*
X103461709Y-116982118D01*
X103495898Y-117043051D01*
X103499044Y-117070804D01*
X103499044Y-118087303D01*
X103479359Y-118154342D01*
X103426555Y-118200097D01*
X103357397Y-118210041D01*
X103293841Y-118181016D01*
X103265851Y-118146063D01*
X103243571Y-118104662D01*
X103241976Y-118101483D01*
X103226882Y-118069114D01*
X103211646Y-118036440D01*
X103193056Y-118009891D01*
X103189242Y-118003703D01*
X103188537Y-118002393D01*
X103172396Y-117972397D01*
X103127736Y-117916396D01*
X103125440Y-117913325D01*
X103086142Y-117857201D01*
X103060897Y-117831956D01*
X103056259Y-117826767D01*
X103032050Y-117796410D01*
X102980583Y-117751444D01*
X102977534Y-117748593D01*
X102931422Y-117702480D01*
X102899484Y-117680117D01*
X102894249Y-117676017D01*
X102875666Y-117659781D01*
X102862540Y-117648313D01*
X102862538Y-117648311D01*
X102862536Y-117648310D01*
X102806693Y-117614946D01*
X102802930Y-117612509D01*
X102752185Y-117576977D01*
X102713877Y-117559113D01*
X102708279Y-117556145D01*
X102669313Y-117532865D01*
X102669311Y-117532864D01*
X102611472Y-117511157D01*
X102607059Y-117509304D01*
X102553874Y-117484503D01*
X102552654Y-117484176D01*
X102509865Y-117472710D01*
X102504125Y-117470868D01*
X102458569Y-117453770D01*
X102401000Y-117443323D01*
X102396024Y-117442206D01*
X102342521Y-117427871D01*
X102293871Y-117423614D01*
X102288203Y-117422853D01*
X102237095Y-117413578D01*
X102237091Y-117413578D01*
X102181853Y-117413578D01*
X102176452Y-117413342D01*
X102167488Y-117412558D01*
X102102419Y-117387105D01*
X102061441Y-117330514D01*
X102057563Y-117260752D01*
X102092018Y-117199968D01*
X102097526Y-117194944D01*
X102153438Y-117146945D01*
X102153438Y-117146944D01*
X102153439Y-117146944D01*
X102277992Y-116986036D01*
X102367604Y-116803349D01*
X102418607Y-116606363D01*
X102428913Y-116403142D01*
X102410662Y-116284009D01*
X102417715Y-116231526D01*
X102403540Y-116215469D01*
X102399574Y-116205987D01*
X102327432Y-116011196D01*
X102327431Y-116011195D01*
X102327430Y-116011191D01*
X102219796Y-115838507D01*
X102079603Y-115691025D01*
X101962286Y-115609370D01*
X101912594Y-115574783D01*
X101725600Y-115494537D01*
X101526285Y-115453578D01*
X100373802Y-115453578D01*
X100373801Y-115453578D01*
X100222104Y-115469003D01*
X100027964Y-115529915D01*
X100027949Y-115529922D01*
X99850044Y-115628667D01*
X99850039Y-115628670D01*
X99695650Y-115761210D01*
X99695648Y-115761212D01*
X99571098Y-115922115D01*
X99571097Y-115922118D01*
X99481484Y-116104806D01*
X99430481Y-116301792D01*
X99420175Y-116505014D01*
X99450986Y-116706141D01*
X99450989Y-116706153D01*
X99521655Y-116896959D01*
X99521659Y-116896966D01*
X99629289Y-117069645D01*
X99629293Y-117069650D01*
X99748394Y-117194944D01*
X99769485Y-117217131D01*
X99852022Y-117274578D01*
X99936493Y-117333372D01*
X99936494Y-117333372D01*
X99936495Y-117333373D01*
X100123486Y-117413618D01*
X100322803Y-117454578D01*
X101278430Y-117454578D01*
X101345469Y-117474263D01*
X101391224Y-117527067D01*
X101401168Y-117596225D01*
X101372143Y-117659781D01*
X101349554Y-117680152D01*
X101317667Y-117702479D01*
X101316785Y-117703362D01*
X101302005Y-117715984D01*
X101298472Y-117718550D01*
X101298460Y-117718561D01*
X101267021Y-117751444D01*
X101230412Y-117789734D01*
X101207923Y-117812222D01*
X101162947Y-117857198D01*
X101162946Y-117857199D01*
X101160255Y-117861043D01*
X101148317Y-117875599D01*
X101142912Y-117881252D01*
X101130207Y-117900500D01*
X101090372Y-117960846D01*
X101055004Y-118011358D01*
X101037442Y-118036440D01*
X101037435Y-118036452D01*
X101034001Y-118043816D01*
X101025116Y-118059706D01*
X101018906Y-118069113D01*
X101018906Y-118069114D01*
X101003713Y-118104662D01*
X100982652Y-118153936D01*
X100967983Y-118185395D01*
X100944969Y-118234747D01*
X100944968Y-118234749D01*
X100941969Y-118245938D01*
X100936225Y-118262553D01*
X100930443Y-118276083D01*
X100930440Y-118276094D01*
X100910607Y-118362985D01*
X100888337Y-118446100D01*
X100888337Y-118446101D01*
X100886656Y-118465304D01*
X100885337Y-118473703D01*
X100880353Y-118495537D01*
X100880353Y-118495542D01*
X100876493Y-118581475D01*
X100869267Y-118664074D01*
X100869267Y-118664081D01*
X100871232Y-118686548D01*
X100871406Y-118694738D01*
X100870253Y-118720402D01*
X100870254Y-118720406D01*
X100881185Y-118801109D01*
X100881510Y-118804027D01*
X100888336Y-118882050D01*
X100888339Y-118882065D01*
X100895026Y-118907019D01*
X100896578Y-118914748D01*
X100900468Y-118943459D01*
X100900470Y-118943470D01*
X100924619Y-119017791D01*
X100925541Y-119020903D01*
X100944967Y-119093402D01*
X100944971Y-119093414D01*
X100957280Y-119119810D01*
X100960056Y-119126857D01*
X100970027Y-119157542D01*
X101005514Y-119223489D01*
X101007102Y-119226654D01*
X101037442Y-119291717D01*
X101052471Y-119313181D01*
X101056034Y-119318269D01*
X101059847Y-119324456D01*
X101076690Y-119355756D01*
X101076696Y-119355765D01*
X101121336Y-119411741D01*
X101123650Y-119414836D01*
X101150054Y-119452543D01*
X101162946Y-119470955D01*
X101162949Y-119470958D01*
X101188190Y-119496199D01*
X101192827Y-119501387D01*
X101217036Y-119531744D01*
X101268503Y-119576710D01*
X101271552Y-119579561D01*
X101317660Y-119625670D01*
X101317666Y-119625675D01*
X101317667Y-119625676D01*
X101326292Y-119631715D01*
X101349599Y-119648035D01*
X101354834Y-119652135D01*
X101386548Y-119679843D01*
X101386557Y-119679849D01*
X101442393Y-119713209D01*
X101446157Y-119715646D01*
X101496903Y-119751179D01*
X101496908Y-119751182D01*
X101515298Y-119759757D01*
X101535221Y-119769047D01*
X101540815Y-119772013D01*
X101577893Y-119794166D01*
X101579780Y-119795293D01*
X101598372Y-119802270D01*
X101637627Y-119817003D01*
X101642047Y-119818860D01*
X101695214Y-119843653D01*
X101695218Y-119843655D01*
X101725613Y-119851798D01*
X101739221Y-119855444D01*
X101744957Y-119857285D01*
X101761808Y-119863609D01*
X101790520Y-119874385D01*
X101848089Y-119884832D01*
X101853055Y-119885946D01*
X101906567Y-119900285D01*
X101955233Y-119904542D01*
X101960850Y-119905296D01*
X102011997Y-119914578D01*
X102067235Y-119914578D01*
X102072636Y-119914813D01*
X102101092Y-119917303D01*
X102124542Y-119919355D01*
X102124544Y-119919355D01*
X102177536Y-119914718D01*
X102180665Y-119914578D01*
X102180699Y-119914578D01*
X102234716Y-119909716D01*
X102342521Y-119900285D01*
X102342544Y-119900278D01*
X102343019Y-119900195D01*
X102348257Y-119899497D01*
X102348732Y-119899455D01*
X102452541Y-119870804D01*
X102553874Y-119843653D01*
X102553881Y-119843649D01*
X102560798Y-119841131D01*
X102565492Y-119839632D01*
X102565714Y-119839571D01*
X102565725Y-119839565D01*
X102565727Y-119839565D01*
X102659998Y-119794166D01*
X102752183Y-119751180D01*
X102752188Y-119751175D01*
X102756871Y-119748473D01*
X102756944Y-119748600D01*
X102767708Y-119742296D01*
X102768517Y-119741907D01*
X102850700Y-119682196D01*
X102931421Y-119625676D01*
X102932291Y-119624805D01*
X102947094Y-119612162D01*
X102950622Y-119609600D01*
X103018675Y-119538421D01*
X103086142Y-119470955D01*
X103088829Y-119467117D01*
X103100783Y-119452543D01*
X103106173Y-119446906D01*
X103106172Y-119446906D01*
X103106176Y-119446903D01*
X103158708Y-119367319D01*
X103211646Y-119291717D01*
X103215087Y-119284337D01*
X103223976Y-119268442D01*
X103230179Y-119259046D01*
X103261023Y-119186879D01*
X103305470Y-119132974D01*
X103372007Y-119111653D01*
X103439509Y-119129690D01*
X103486543Y-119181358D01*
X103499044Y-119235616D01*
X103499044Y-120303809D01*
X103479359Y-120370848D01*
X103426555Y-120416603D01*
X103412165Y-120422122D01*
X103227964Y-120479915D01*
X103227949Y-120479922D01*
X103050044Y-120578667D01*
X103050039Y-120578670D01*
X102895650Y-120711210D01*
X102895648Y-120711212D01*
X102771098Y-120872115D01*
X102771097Y-120872118D01*
X102681482Y-121054810D01*
X102645328Y-121194447D01*
X102609469Y-121254413D01*
X102546882Y-121285471D01*
X102477438Y-121277762D01*
X102423187Y-121233733D01*
X102402717Y-121182143D01*
X102398101Y-121152014D01*
X102398100Y-121152007D01*
X102327430Y-120961191D01*
X102219796Y-120788507D01*
X102100937Y-120663468D01*
X102079605Y-120641027D01*
X102079604Y-120641026D01*
X102079603Y-120641025D01*
X101943104Y-120546019D01*
X101912594Y-120524783D01*
X101725600Y-120444537D01*
X101526285Y-120403578D01*
X100373802Y-120403578D01*
X100373801Y-120403578D01*
X100222104Y-120419003D01*
X100027964Y-120479915D01*
X100027949Y-120479922D01*
X99850044Y-120578667D01*
X99850039Y-120578670D01*
X99695650Y-120711210D01*
X99695648Y-120711212D01*
X99571098Y-120872115D01*
X99571097Y-120872118D01*
X99481484Y-121054806D01*
X99430481Y-121251792D01*
X99420175Y-121455014D01*
X99450986Y-121656141D01*
X99450987Y-121656144D01*
X99450988Y-121656149D01*
X99486986Y-121753348D01*
X99491438Y-121765368D01*
X99496261Y-121835071D01*
X99462634Y-121896317D01*
X99401234Y-121929660D01*
X99331554Y-121924514D01*
X99323090Y-121920973D01*
X99241784Y-121883357D01*
X98897538Y-121767367D01*
X98542764Y-121689275D01*
X98181633Y-121650000D01*
X97818366Y-121650000D01*
X97457235Y-121689275D01*
X97102461Y-121767367D01*
X96758210Y-121883359D01*
X96758205Y-121883360D01*
X96428535Y-122035883D01*
X96364182Y-122074603D01*
X96296590Y-122092298D01*
X96230161Y-122070641D01*
X96185987Y-122016508D01*
X96178091Y-121947086D01*
X96188923Y-121913750D01*
X96267604Y-121753349D01*
X96318607Y-121556363D01*
X96328913Y-121353142D01*
X96298100Y-121152007D01*
X96227430Y-120961191D01*
X96119796Y-120788507D01*
X96000937Y-120663468D01*
X95979605Y-120641027D01*
X95979604Y-120641026D01*
X95979603Y-120641025D01*
X95843104Y-120546019D01*
X95812594Y-120524783D01*
X95625600Y-120444537D01*
X95426285Y-120403578D01*
X94273802Y-120403578D01*
X94273801Y-120403578D01*
X94122104Y-120419003D01*
X93927964Y-120479915D01*
X93927949Y-120479922D01*
X93750044Y-120578667D01*
X93750039Y-120578670D01*
X93595651Y-120711209D01*
X93573853Y-120739370D01*
X93517251Y-120780334D01*
X93447488Y-120784193D01*
X93386713Y-120749723D01*
X93354221Y-120687868D01*
X93351797Y-120663468D01*
X93351797Y-117013351D01*
X93371482Y-116946312D01*
X93424286Y-116900557D01*
X93493444Y-116890613D01*
X93557000Y-116919638D01*
X93565666Y-116927914D01*
X93669485Y-117037131D01*
X93797888Y-117126502D01*
X93836493Y-117153372D01*
X93836494Y-117153372D01*
X93836495Y-117153373D01*
X94023486Y-117233618D01*
X94222803Y-117274578D01*
X94584483Y-117274578D01*
X94651522Y-117294263D01*
X94697277Y-117347067D01*
X94707221Y-117416225D01*
X94678196Y-117479781D01*
X94638283Y-117510299D01*
X94589072Y-117533997D01*
X94496902Y-117576977D01*
X94492214Y-117579684D01*
X94492142Y-117579559D01*
X94481415Y-117585842D01*
X94480574Y-117586246D01*
X94398375Y-117645967D01*
X94317667Y-117702479D01*
X94316785Y-117703362D01*
X94302005Y-117715984D01*
X94298472Y-117718550D01*
X94298460Y-117718561D01*
X94267021Y-117751444D01*
X94230412Y-117789734D01*
X94207923Y-117812222D01*
X94162947Y-117857198D01*
X94162946Y-117857199D01*
X94160255Y-117861043D01*
X94148317Y-117875599D01*
X94142912Y-117881252D01*
X94130207Y-117900500D01*
X94090372Y-117960846D01*
X94055004Y-118011358D01*
X94037442Y-118036440D01*
X94037435Y-118036452D01*
X94034001Y-118043816D01*
X94025116Y-118059706D01*
X94018906Y-118069113D01*
X94018906Y-118069114D01*
X94003713Y-118104662D01*
X93982652Y-118153936D01*
X93967983Y-118185395D01*
X93944969Y-118234747D01*
X93944968Y-118234749D01*
X93941969Y-118245938D01*
X93936225Y-118262553D01*
X93930443Y-118276083D01*
X93930440Y-118276094D01*
X93910607Y-118362985D01*
X93888337Y-118446100D01*
X93888337Y-118446101D01*
X93886656Y-118465304D01*
X93885337Y-118473703D01*
X93880353Y-118495537D01*
X93880353Y-118495542D01*
X93876493Y-118581475D01*
X93869267Y-118664074D01*
X93869267Y-118664081D01*
X93871232Y-118686548D01*
X93871406Y-118694738D01*
X93870253Y-118720402D01*
X93870254Y-118720406D01*
X93881185Y-118801109D01*
X93881510Y-118804027D01*
X93888336Y-118882050D01*
X93888339Y-118882065D01*
X93895026Y-118907019D01*
X93896578Y-118914748D01*
X93900468Y-118943459D01*
X93900470Y-118943470D01*
X93924619Y-119017791D01*
X93925541Y-119020903D01*
X93944967Y-119093402D01*
X93944971Y-119093414D01*
X93957280Y-119119810D01*
X93960056Y-119126857D01*
X93970027Y-119157542D01*
X94005514Y-119223489D01*
X94007102Y-119226654D01*
X94037442Y-119291717D01*
X94052471Y-119313181D01*
X94056034Y-119318269D01*
X94059847Y-119324456D01*
X94076690Y-119355756D01*
X94076696Y-119355765D01*
X94121336Y-119411741D01*
X94123650Y-119414836D01*
X94150054Y-119452543D01*
X94162946Y-119470955D01*
X94162949Y-119470958D01*
X94188190Y-119496199D01*
X94192827Y-119501387D01*
X94217036Y-119531744D01*
X94268503Y-119576710D01*
X94271552Y-119579561D01*
X94317660Y-119625670D01*
X94317666Y-119625675D01*
X94317667Y-119625676D01*
X94326292Y-119631715D01*
X94349599Y-119648035D01*
X94354834Y-119652135D01*
X94386548Y-119679843D01*
X94386557Y-119679849D01*
X94442393Y-119713209D01*
X94446157Y-119715646D01*
X94496903Y-119751179D01*
X94496908Y-119751182D01*
X94515298Y-119759757D01*
X94535221Y-119769047D01*
X94540815Y-119772013D01*
X94577893Y-119794166D01*
X94579780Y-119795293D01*
X94598372Y-119802270D01*
X94637627Y-119817003D01*
X94642047Y-119818860D01*
X94695214Y-119843653D01*
X94695218Y-119843655D01*
X94725613Y-119851798D01*
X94739221Y-119855444D01*
X94744957Y-119857285D01*
X94761808Y-119863609D01*
X94790520Y-119874385D01*
X94848089Y-119884832D01*
X94853055Y-119885946D01*
X94906567Y-119900285D01*
X94955233Y-119904542D01*
X94960850Y-119905296D01*
X95011997Y-119914578D01*
X95067235Y-119914578D01*
X95072636Y-119914813D01*
X95101092Y-119917303D01*
X95124542Y-119919355D01*
X95124544Y-119919355D01*
X95177536Y-119914718D01*
X95180665Y-119914578D01*
X95180699Y-119914578D01*
X95234716Y-119909716D01*
X95342521Y-119900285D01*
X95342544Y-119900278D01*
X95343019Y-119900195D01*
X95348257Y-119899497D01*
X95348732Y-119899455D01*
X95452541Y-119870804D01*
X95553874Y-119843653D01*
X95553881Y-119843649D01*
X95560798Y-119841131D01*
X95565492Y-119839632D01*
X95565714Y-119839571D01*
X95565725Y-119839565D01*
X95565727Y-119839565D01*
X95659998Y-119794166D01*
X95659997Y-119794166D01*
X95752183Y-119751180D01*
X95752188Y-119751175D01*
X95756871Y-119748473D01*
X95756944Y-119748600D01*
X95767708Y-119742296D01*
X95768517Y-119741907D01*
X95850700Y-119682196D01*
X95931421Y-119625676D01*
X95932291Y-119624805D01*
X95947094Y-119612162D01*
X95950622Y-119609600D01*
X96018675Y-119538421D01*
X96086142Y-119470955D01*
X96088829Y-119467117D01*
X96100783Y-119452543D01*
X96106173Y-119446906D01*
X96106172Y-119446906D01*
X96106176Y-119446903D01*
X96158708Y-119367319D01*
X96211646Y-119291717D01*
X96215087Y-119284337D01*
X96223976Y-119268442D01*
X96230179Y-119259046D01*
X96266433Y-119174224D01*
X96304119Y-119093408D01*
X96307114Y-119082226D01*
X96312869Y-119065583D01*
X96318647Y-119052066D01*
X96338480Y-118965170D01*
X96360751Y-118882055D01*
X96362431Y-118862844D01*
X96363750Y-118854455D01*
X96363989Y-118853403D01*
X96368735Y-118832615D01*
X96372594Y-118746680D01*
X96379821Y-118664078D01*
X96377854Y-118641606D01*
X96377681Y-118633412D01*
X96378834Y-118607748D01*
X96367897Y-118527017D01*
X96367578Y-118524145D01*
X96360751Y-118446101D01*
X96354059Y-118421131D01*
X96352507Y-118413400D01*
X96348620Y-118384696D01*
X96348619Y-118384694D01*
X96348619Y-118384691D01*
X96327741Y-118320436D01*
X96324465Y-118310354D01*
X96323542Y-118307239D01*
X96304120Y-118234751D01*
X96304118Y-118234747D01*
X96291810Y-118208352D01*
X96289032Y-118201300D01*
X96279063Y-118170619D01*
X96279061Y-118170615D01*
X96279061Y-118170614D01*
X96266532Y-118147331D01*
X96243571Y-118104661D01*
X96241976Y-118101483D01*
X96226882Y-118069114D01*
X96211646Y-118036440D01*
X96193056Y-118009891D01*
X96189242Y-118003703D01*
X96188537Y-118002393D01*
X96172396Y-117972397D01*
X96127736Y-117916396D01*
X96125440Y-117913325D01*
X96086142Y-117857201D01*
X96060897Y-117831956D01*
X96056259Y-117826767D01*
X96032050Y-117796410D01*
X95980583Y-117751444D01*
X95977534Y-117748593D01*
X95931422Y-117702480D01*
X95899484Y-117680117D01*
X95894249Y-117676017D01*
X95875666Y-117659781D01*
X95862540Y-117648313D01*
X95862538Y-117648311D01*
X95862536Y-117648310D01*
X95806693Y-117614946D01*
X95802930Y-117612509D01*
X95752185Y-117576977D01*
X95713877Y-117559113D01*
X95708279Y-117556145D01*
X95669313Y-117532865D01*
X95669311Y-117532864D01*
X95611472Y-117511157D01*
X95607059Y-117509304D01*
X95562628Y-117488585D01*
X95553877Y-117484504D01*
X95552974Y-117484176D01*
X95552631Y-117483923D01*
X95548967Y-117482215D01*
X95549310Y-117481478D01*
X95496709Y-117442752D01*
X95471770Y-117377484D01*
X95486077Y-117309095D01*
X95535087Y-117259297D01*
X95558259Y-117249339D01*
X95721123Y-117198240D01*
X95721124Y-117198239D01*
X95721132Y-117198237D01*
X95899046Y-117099487D01*
X96053439Y-116966944D01*
X96177992Y-116806036D01*
X96267604Y-116623349D01*
X96318607Y-116426363D01*
X96328913Y-116223142D01*
X96298100Y-116022007D01*
X96298099Y-116022005D01*
X96297359Y-116017172D01*
X96306665Y-115947925D01*
X96351931Y-115894702D01*
X96418786Y-115874400D01*
X96486004Y-115893466D01*
X96525161Y-115932804D01*
X96579288Y-116019645D01*
X96579292Y-116019649D01*
X96584392Y-116025014D01*
X96655196Y-116099500D01*
X96719485Y-116167131D01*
X96847888Y-116256502D01*
X96886493Y-116283372D01*
X96886494Y-116283372D01*
X96886495Y-116283373D01*
X97073486Y-116363618D01*
X97272803Y-116404578D01*
X98425287Y-116404578D01*
X98576983Y-116389152D01*
X98771123Y-116328240D01*
X98771124Y-116328239D01*
X98771132Y-116328237D01*
X98949046Y-116229487D01*
X99103439Y-116096944D01*
X99227992Y-115936036D01*
X99317604Y-115753349D01*
X99368607Y-115556363D01*
X99378913Y-115353142D01*
X99348100Y-115152007D01*
X99282018Y-114973578D01*
X99277432Y-114961196D01*
X99277431Y-114961195D01*
X99277430Y-114961191D01*
X99169796Y-114788507D01*
X99029603Y-114641025D01*
X98931131Y-114572487D01*
X98862594Y-114524783D01*
X98675600Y-114444537D01*
X98476285Y-114403578D01*
X97323802Y-114403578D01*
X97323801Y-114403578D01*
X97172104Y-114419003D01*
X96977964Y-114479915D01*
X96977949Y-114479922D01*
X96800044Y-114578667D01*
X96800039Y-114578670D01*
X96645650Y-114711210D01*
X96645648Y-114711212D01*
X96521098Y-114872115D01*
X96521097Y-114872118D01*
X96431484Y-115054806D01*
X96380481Y-115251792D01*
X96370175Y-115455014D01*
X96401728Y-115660983D01*
X96392422Y-115730230D01*
X96347155Y-115783454D01*
X96280300Y-115803755D01*
X96213082Y-115784688D01*
X96173926Y-115745351D01*
X96119798Y-115658510D01*
X96119794Y-115658505D01*
X96117554Y-115656149D01*
X95979603Y-115511025D01*
X95865471Y-115431587D01*
X95812594Y-115394783D01*
X95625600Y-115314537D01*
X95426285Y-115273578D01*
X94273802Y-115273578D01*
X94273801Y-115273578D01*
X94122104Y-115289003D01*
X93927964Y-115349915D01*
X93927949Y-115349922D01*
X93750044Y-115448667D01*
X93750039Y-115448670D01*
X93595651Y-115581209D01*
X93573853Y-115609370D01*
X93517251Y-115650334D01*
X93447488Y-115654193D01*
X93386713Y-115619723D01*
X93354221Y-115557868D01*
X93351797Y-115533468D01*
X93351797Y-111703751D01*
X93371482Y-111636712D01*
X93424286Y-111590957D01*
X93493444Y-111581013D01*
X93542837Y-111599436D01*
X93578204Y-111622165D01*
X93773234Y-111700244D01*
X93979511Y-111740000D01*
X94134549Y-111740000D01*
X94134549Y-111064000D01*
X94154234Y-110996961D01*
X94207038Y-110951206D01*
X94258549Y-110940000D01*
X94510549Y-110940000D01*
X94577588Y-110959685D01*
X94623343Y-111012489D01*
X94634549Y-111064000D01*
X94634549Y-111740000D01*
X94736947Y-111740000D01*
X94893671Y-111725034D01*
X94893675Y-111725033D01*
X95095235Y-111665850D01*
X95281963Y-111569586D01*
X95447086Y-111439731D01*
X95447089Y-111439728D01*
X95584654Y-111280969D01*
X95584663Y-111280958D01*
X95689693Y-111099039D01*
X95689696Y-111099032D01*
X95758404Y-110900517D01*
X95758404Y-110900515D01*
X95759917Y-110890000D01*
X95089527Y-110890000D01*
X95022488Y-110870315D01*
X94976733Y-110817511D01*
X94966789Y-110748353D01*
X94970261Y-110732066D01*
X94988442Y-110668162D01*
X94988443Y-110668160D01*
X94978094Y-110556482D01*
X94978094Y-110556479D01*
X94978092Y-110556475D01*
X94975663Y-110547937D01*
X94976249Y-110478070D01*
X95014514Y-110419610D01*
X95078311Y-110391119D01*
X95094929Y-110390000D01*
X95755806Y-110390000D01*
X97119181Y-110390000D01*
X97739571Y-110390000D01*
X97806610Y-110409685D01*
X97852365Y-110462489D01*
X97862309Y-110531647D01*
X97858837Y-110547934D01*
X97840655Y-110611837D01*
X97840654Y-110611837D01*
X97851003Y-110723517D01*
X97853435Y-110732063D01*
X97852849Y-110801930D01*
X97814584Y-110860390D01*
X97750787Y-110888881D01*
X97734169Y-110890000D01*
X97123291Y-110890000D01*
X97150319Y-111001409D01*
X97237589Y-111192507D01*
X97359438Y-111363619D01*
X97359444Y-111363625D01*
X97511481Y-111508592D01*
X97688206Y-111622166D01*
X97883234Y-111700244D01*
X98089511Y-111740000D01*
X98344549Y-111740000D01*
X98344549Y-111064000D01*
X98364234Y-110996961D01*
X98417038Y-110951206D01*
X98468549Y-110940000D01*
X98720549Y-110940000D01*
X98787588Y-110959685D01*
X98833343Y-111012489D01*
X98844549Y-111064000D01*
X98844549Y-111740000D01*
X99046947Y-111740000D01*
X99203671Y-111725034D01*
X99203675Y-111725033D01*
X99405235Y-111665850D01*
X99591963Y-111569586D01*
X99757086Y-111439731D01*
X99757089Y-111439728D01*
X99894654Y-111280969D01*
X99894663Y-111280958D01*
X99999693Y-111099039D01*
X99999696Y-111099032D01*
X100068404Y-110900517D01*
X100068404Y-110900515D01*
X100069917Y-110890000D01*
X99449527Y-110890000D01*
X99382488Y-110870315D01*
X99336733Y-110817511D01*
X99326789Y-110748353D01*
X99330261Y-110732066D01*
X99348442Y-110668162D01*
X99348443Y-110668160D01*
X99338094Y-110556482D01*
X99338094Y-110556479D01*
X99338092Y-110556475D01*
X99335663Y-110547937D01*
X99336249Y-110478070D01*
X99374514Y-110419610D01*
X99438311Y-110391119D01*
X99454929Y-110390000D01*
X100065806Y-110390000D01*
X100038778Y-110278590D01*
X99951508Y-110087492D01*
X99829659Y-109916380D01*
X99829653Y-109916374D01*
X99677616Y-109771407D01*
X99500891Y-109657833D01*
X99305863Y-109579755D01*
X99099587Y-109540000D01*
X99021823Y-109540000D01*
X98954784Y-109520315D01*
X98909029Y-109467511D01*
X98899085Y-109398353D01*
X98900534Y-109390213D01*
X98901046Y-109387801D01*
X98904033Y-109359375D01*
X98907637Y-109325077D01*
X98908106Y-109321593D01*
X98918809Y-109256317D01*
X98918001Y-109241420D01*
X98918499Y-109221747D01*
X98919734Y-109210000D01*
X98912796Y-109143992D01*
X98912552Y-109140924D01*
X98908794Y-109071593D01*
X98905751Y-109060632D01*
X98901910Y-109040417D01*
X98901046Y-109032199D01*
X98901046Y-109032198D01*
X98901046Y-109032197D01*
X98879120Y-108964716D01*
X98859303Y-108893341D01*
X98855633Y-108886420D01*
X98847257Y-108866653D01*
X98845799Y-108862165D01*
X98808783Y-108798052D01*
X98772649Y-108729896D01*
X98772648Y-108729894D01*
X98769875Y-108726630D01*
X98756996Y-108708354D01*
X98756408Y-108707335D01*
X98756407Y-108707334D01*
X98756406Y-108707332D01*
X98704811Y-108650031D01*
X98652887Y-108588901D01*
X98652299Y-108588454D01*
X98641707Y-108578707D01*
X98641606Y-108578820D01*
X98636781Y-108574475D01*
X98609250Y-108554473D01*
X98571903Y-108527338D01*
X98505613Y-108476946D01*
X98505612Y-108476945D01*
X98505610Y-108476944D01*
X98499851Y-108473479D01*
X98499953Y-108473309D01*
X98498035Y-108472183D01*
X98497773Y-108472638D01*
X98492147Y-108469390D01*
X98416074Y-108435520D01*
X98337724Y-108399271D01*
X98337718Y-108399269D01*
X98337716Y-108399268D01*
X98337713Y-108399267D01*
X98337604Y-108399230D01*
X98332037Y-108397717D01*
X98328820Y-108396672D01*
X98328816Y-108396671D01*
X98244400Y-108378727D01*
X98225132Y-108374486D01*
X98157048Y-108359500D01*
X98157046Y-108359500D01*
X98153940Y-108359500D01*
X97975158Y-108359500D01*
X97975156Y-108359500D01*
X97932882Y-108368484D01*
X97926694Y-108369476D01*
X97880635Y-108374486D01*
X97843000Y-108387167D01*
X97836090Y-108389059D01*
X97800281Y-108396671D01*
X97800280Y-108396671D01*
X97757774Y-108415596D01*
X97752352Y-108417711D01*
X97705336Y-108433552D01*
X97705329Y-108433555D01*
X97705328Y-108433556D01*
X97705325Y-108433558D01*
X97674132Y-108452325D01*
X97667382Y-108455841D01*
X97636956Y-108469388D01*
X97596648Y-108498672D01*
X97592170Y-108501638D01*
X97546813Y-108528930D01*
X97546806Y-108528935D01*
X97522778Y-108551694D01*
X97516582Y-108556843D01*
X97492324Y-108574469D01*
X97492320Y-108574472D01*
X97456773Y-108613950D01*
X97453336Y-108617474D01*
X97412510Y-108656149D01*
X97412504Y-108656157D01*
X97395789Y-108680808D01*
X97390543Y-108687506D01*
X97372690Y-108707334D01*
X97344476Y-108756201D01*
X97342100Y-108759994D01*
X97308690Y-108809271D01*
X97308685Y-108809281D01*
X97300546Y-108829707D01*
X97292746Y-108845799D01*
X97283300Y-108862161D01*
X97283297Y-108862168D01*
X97264837Y-108918980D01*
X97263468Y-108922769D01*
X97240217Y-108981127D01*
X97237231Y-108999339D01*
X97232798Y-109017586D01*
X97228052Y-109032193D01*
X97228051Y-109032198D01*
X97221462Y-109094881D01*
X97220985Y-109098428D01*
X97210289Y-109163680D01*
X97211096Y-109178577D01*
X97210599Y-109198243D01*
X97209364Y-109209998D01*
X97209364Y-109210001D01*
X97216296Y-109275967D01*
X97216544Y-109279089D01*
X97220303Y-109348401D01*
X97220306Y-109348416D01*
X97223348Y-109359375D01*
X97227186Y-109379570D01*
X97228051Y-109387801D01*
X97228053Y-109387807D01*
X97249977Y-109455284D01*
X97269792Y-109526652D01*
X97269796Y-109526662D01*
X97273469Y-109533591D01*
X97281838Y-109553340D01*
X97283297Y-109557829D01*
X97283301Y-109557840D01*
X97320314Y-109621947D01*
X97356447Y-109690103D01*
X97359217Y-109693363D01*
X97372101Y-109711645D01*
X97372689Y-109712664D01*
X97385975Y-109727420D01*
X97416204Y-109790412D01*
X97407578Y-109859747D01*
X97387537Y-109891594D01*
X97294443Y-109999030D01*
X97294434Y-109999041D01*
X97189404Y-110180960D01*
X97189401Y-110180967D01*
X97120693Y-110379482D01*
X97120693Y-110379484D01*
X97119181Y-110390000D01*
X95755806Y-110390000D01*
X95728778Y-110278590D01*
X95641508Y-110087492D01*
X95519659Y-109916380D01*
X95519653Y-109916374D01*
X95367616Y-109771407D01*
X95190891Y-109657833D01*
X94995863Y-109579755D01*
X94789587Y-109540000D01*
X94634549Y-109540000D01*
X94634549Y-110216000D01*
X94614864Y-110283039D01*
X94562060Y-110328794D01*
X94510549Y-110340000D01*
X94258549Y-110340000D01*
X94191510Y-110320315D01*
X94145755Y-110267511D01*
X94134549Y-110216000D01*
X94134549Y-109540000D01*
X94032151Y-109540000D01*
X93875426Y-109554965D01*
X93875422Y-109554966D01*
X93673862Y-109614149D01*
X93532617Y-109686966D01*
X93464010Y-109700188D01*
X93399145Y-109674220D01*
X93358617Y-109617306D01*
X93351797Y-109576750D01*
X93351797Y-103063751D01*
X93371482Y-102996712D01*
X93424286Y-102950957D01*
X93493444Y-102941013D01*
X93542837Y-102959436D01*
X93578204Y-102982165D01*
X93773234Y-103060244D01*
X93979511Y-103100000D01*
X94134549Y-103100000D01*
X94134549Y-102424000D01*
X94154234Y-102356961D01*
X94207038Y-102311206D01*
X94258549Y-102300000D01*
X94510549Y-102300000D01*
X94577588Y-102319685D01*
X94623343Y-102372489D01*
X94634549Y-102424000D01*
X94634549Y-103100000D01*
X94736947Y-103100000D01*
X94893671Y-103085034D01*
X94893675Y-103085033D01*
X95095235Y-103025850D01*
X95281963Y-102929586D01*
X95447086Y-102799731D01*
X95447089Y-102799728D01*
X95584654Y-102640969D01*
X95584663Y-102640958D01*
X95689693Y-102459039D01*
X95689696Y-102459032D01*
X95758404Y-102260517D01*
X95758404Y-102260515D01*
X95759917Y-102250000D01*
X95089527Y-102250000D01*
X95022488Y-102230315D01*
X94976733Y-102177511D01*
X94966789Y-102108353D01*
X94970261Y-102092066D01*
X94988442Y-102028162D01*
X94988443Y-102028160D01*
X94980335Y-101940665D01*
X94978094Y-101916479D01*
X94978092Y-101916475D01*
X94975663Y-101907937D01*
X94976249Y-101838070D01*
X95014514Y-101779610D01*
X95078311Y-101751119D01*
X95094929Y-101750000D01*
X95755806Y-101750000D01*
X97119181Y-101750000D01*
X97739571Y-101750000D01*
X97806610Y-101769685D01*
X97852365Y-101822489D01*
X97862309Y-101891647D01*
X97858837Y-101907934D01*
X97840655Y-101971837D01*
X97840654Y-101971837D01*
X97851003Y-102083517D01*
X97853435Y-102092063D01*
X97852849Y-102161930D01*
X97814584Y-102220390D01*
X97750787Y-102248881D01*
X97734169Y-102250000D01*
X97123291Y-102250000D01*
X97150319Y-102361409D01*
X97237589Y-102552507D01*
X97359438Y-102723619D01*
X97359444Y-102723625D01*
X97378046Y-102741362D01*
X97412981Y-102801871D01*
X97409656Y-102871661D01*
X97384630Y-102914073D01*
X97372690Y-102927334D01*
X97344476Y-102976201D01*
X97342103Y-102979987D01*
X97328536Y-103000000D01*
X97308690Y-103029271D01*
X97308685Y-103029281D01*
X97300546Y-103049707D01*
X97292746Y-103065799D01*
X97283300Y-103082161D01*
X97283297Y-103082168D01*
X97264837Y-103138980D01*
X97263468Y-103142769D01*
X97240217Y-103201127D01*
X97237231Y-103219339D01*
X97232798Y-103237586D01*
X97228052Y-103252193D01*
X97228051Y-103252198D01*
X97221462Y-103314881D01*
X97220985Y-103318428D01*
X97210289Y-103383680D01*
X97211096Y-103398577D01*
X97210599Y-103418243D01*
X97209364Y-103429998D01*
X97209364Y-103430001D01*
X97216296Y-103495967D01*
X97216544Y-103499089D01*
X97220303Y-103568401D01*
X97220306Y-103568416D01*
X97223348Y-103579375D01*
X97227186Y-103599570D01*
X97228051Y-103607801D01*
X97228053Y-103607807D01*
X97249977Y-103675284D01*
X97269792Y-103746652D01*
X97269796Y-103746662D01*
X97273469Y-103753591D01*
X97281838Y-103773340D01*
X97283297Y-103777829D01*
X97283301Y-103777840D01*
X97320314Y-103841947D01*
X97356447Y-103910103D01*
X97359217Y-103913363D01*
X97372101Y-103931645D01*
X97372689Y-103932665D01*
X97396574Y-103959191D01*
X97424286Y-103989968D01*
X97476212Y-104051100D01*
X97476216Y-104051103D01*
X97476796Y-104051544D01*
X97487390Y-104061292D01*
X97487492Y-104061180D01*
X97492319Y-104065526D01*
X97557194Y-104112661D01*
X97623485Y-104163054D01*
X97623487Y-104163055D01*
X97623490Y-104163057D01*
X97629246Y-104166520D01*
X97629141Y-104166693D01*
X97631064Y-104167822D01*
X97631329Y-104167364D01*
X97636952Y-104170610D01*
X97636955Y-104170611D01*
X97636956Y-104170612D01*
X97713023Y-104204479D01*
X97791382Y-104240732D01*
X97791387Y-104240733D01*
X97791504Y-104240773D01*
X97797070Y-104242285D01*
X97800274Y-104243325D01*
X97800282Y-104243329D01*
X97800290Y-104243330D01*
X97800291Y-104243331D01*
X97884696Y-104261272D01*
X97903924Y-104265504D01*
X97972052Y-104280500D01*
X97972055Y-104280500D01*
X98153938Y-104280500D01*
X98153940Y-104280500D01*
X98196225Y-104271511D01*
X98202394Y-104270523D01*
X98248459Y-104265514D01*
X98286101Y-104252829D01*
X98293001Y-104250940D01*
X98328816Y-104243329D01*
X98371335Y-104224397D01*
X98376723Y-104222295D01*
X98423770Y-104206444D01*
X98454972Y-104187669D01*
X98461700Y-104184164D01*
X98492142Y-104170612D01*
X98532471Y-104141309D01*
X98536912Y-104138368D01*
X98582285Y-104111070D01*
X98606330Y-104088291D01*
X98612510Y-104083157D01*
X98636779Y-104065526D01*
X98672340Y-104026029D01*
X98675743Y-104022540D01*
X98716590Y-103983849D01*
X98733316Y-103959177D01*
X98738541Y-103952506D01*
X98756408Y-103932665D01*
X98784627Y-103883786D01*
X98786990Y-103880014D01*
X98820407Y-103830730D01*
X98828547Y-103810297D01*
X98836352Y-103794195D01*
X98845799Y-103777835D01*
X98864264Y-103721001D01*
X98865621Y-103717247D01*
X98888880Y-103658875D01*
X98891864Y-103640665D01*
X98896297Y-103622413D01*
X98901046Y-103607803D01*
X98907637Y-103545077D01*
X98908106Y-103541593D01*
X98918809Y-103476317D01*
X98918001Y-103461420D01*
X98918499Y-103441747D01*
X98919734Y-103430000D01*
X98912796Y-103363992D01*
X98912552Y-103360924D01*
X98908794Y-103291593D01*
X98905751Y-103280632D01*
X98901910Y-103260417D01*
X98901742Y-103258826D01*
X98901046Y-103252197D01*
X98901044Y-103252193D01*
X98900533Y-103249781D01*
X98900642Y-103248351D01*
X98900367Y-103245733D01*
X98900845Y-103245682D01*
X98905849Y-103180114D01*
X98947986Y-103124381D01*
X99013565Y-103100275D01*
X99021823Y-103100000D01*
X99046947Y-103100000D01*
X99203671Y-103085034D01*
X99203675Y-103085033D01*
X99405235Y-103025850D01*
X99591963Y-102929586D01*
X99757086Y-102799731D01*
X99757089Y-102799728D01*
X99894654Y-102640969D01*
X99894663Y-102640958D01*
X99999693Y-102459039D01*
X99999696Y-102459032D01*
X100068404Y-102260517D01*
X100068404Y-102260515D01*
X100069917Y-102250000D01*
X99449527Y-102250000D01*
X99382488Y-102230315D01*
X99336733Y-102177511D01*
X99326789Y-102108353D01*
X99330261Y-102092066D01*
X99348442Y-102028162D01*
X99348443Y-102028160D01*
X99340335Y-101940665D01*
X99338094Y-101916479D01*
X99338092Y-101916475D01*
X99335663Y-101907937D01*
X99336249Y-101838070D01*
X99374514Y-101779610D01*
X99438311Y-101751119D01*
X99454929Y-101750000D01*
X100065806Y-101750000D01*
X100038778Y-101638590D01*
X99951508Y-101447492D01*
X99829659Y-101276380D01*
X99829653Y-101276374D01*
X99677616Y-101131407D01*
X99500891Y-101017833D01*
X99305863Y-100939755D01*
X99099587Y-100900000D01*
X98844549Y-100900000D01*
X98844549Y-101576000D01*
X98824864Y-101643039D01*
X98772060Y-101688794D01*
X98720549Y-101700000D01*
X98468549Y-101700000D01*
X98401510Y-101680315D01*
X98355755Y-101627511D01*
X98344549Y-101576000D01*
X98344549Y-100900000D01*
X98142151Y-100900000D01*
X97985426Y-100914965D01*
X97985422Y-100914966D01*
X97783862Y-100974149D01*
X97597134Y-101070413D01*
X97432011Y-101200268D01*
X97432008Y-101200271D01*
X97294443Y-101359030D01*
X97294434Y-101359041D01*
X97189404Y-101540960D01*
X97189401Y-101540967D01*
X97120693Y-101739482D01*
X97120693Y-101739484D01*
X97119181Y-101750000D01*
X95755806Y-101750000D01*
X95728778Y-101638590D01*
X95641508Y-101447492D01*
X95519659Y-101276380D01*
X95519653Y-101276374D01*
X95367616Y-101131407D01*
X95190891Y-101017833D01*
X94995863Y-100939755D01*
X94789587Y-100900000D01*
X94634549Y-100900000D01*
X94634549Y-101576000D01*
X94614864Y-101643039D01*
X94562060Y-101688794D01*
X94510549Y-101700000D01*
X94258549Y-101700000D01*
X94191510Y-101680315D01*
X94145755Y-101627511D01*
X94134549Y-101576000D01*
X94134549Y-100900000D01*
X94032151Y-100900000D01*
X93875426Y-100914965D01*
X93875422Y-100914966D01*
X93673862Y-100974149D01*
X93532617Y-101046966D01*
X93464010Y-101060188D01*
X93399145Y-101034220D01*
X93358617Y-100977306D01*
X93351797Y-100936750D01*
X93351797Y-64403425D01*
X93358450Y-64251069D01*
X93368804Y-64013959D01*
X93369273Y-64008606D01*
X93370406Y-64000002D01*
X94645080Y-64000002D01*
X94664746Y-64362728D01*
X94723517Y-64721214D01*
X94723519Y-64721222D01*
X94820695Y-65071220D01*
X94820697Y-65071227D01*
X94955152Y-65408684D01*
X94955161Y-65408702D01*
X95125316Y-65729647D01*
X95125318Y-65729651D01*
X95329170Y-66030309D01*
X95329177Y-66030319D01*
X95460968Y-66185475D01*
X95460969Y-66185476D01*
X96607413Y-65039032D01*
X96668736Y-65005547D01*
X96738428Y-65010531D01*
X96789381Y-65046179D01*
X96865130Y-65134870D01*
X96928855Y-65189296D01*
X96953816Y-65210615D01*
X96992009Y-65269122D01*
X96992507Y-65338990D01*
X96960965Y-65392586D01*
X95811889Y-66541663D01*
X95811889Y-66541664D01*
X95828070Y-66556992D01*
X96117266Y-66776832D01*
X96117282Y-66776843D01*
X96428522Y-66964109D01*
X96428535Y-66964116D01*
X96758205Y-67116639D01*
X96758210Y-67116640D01*
X97102461Y-67232632D01*
X97457235Y-67310724D01*
X97818366Y-67349999D01*
X97818374Y-67350000D01*
X98181626Y-67350000D01*
X98181633Y-67349999D01*
X98542764Y-67310724D01*
X98897538Y-67232632D01*
X99241789Y-67116640D01*
X99241794Y-67116639D01*
X99515117Y-66990185D01*
X102083019Y-66990185D01*
X102102805Y-67178441D01*
X102102806Y-67178444D01*
X102161297Y-67358462D01*
X102161300Y-67358469D01*
X102255946Y-67522401D01*
X102348777Y-67625500D01*
X102382608Y-67663073D01*
X102535744Y-67774333D01*
X102535749Y-67774336D01*
X102708671Y-67851327D01*
X102708676Y-67851329D01*
X102893833Y-67890685D01*
X102929428Y-67890685D01*
X102996467Y-67910370D01*
X103017109Y-67927004D01*
X106661659Y-71571554D01*
X106671484Y-71583818D01*
X106671705Y-71583636D01*
X106676675Y-71589643D01*
X106676678Y-71589646D01*
X106676679Y-71589647D01*
X106727116Y-71637011D01*
X106747995Y-71657890D01*
X106753469Y-71662136D01*
X106757907Y-71665926D01*
X106791883Y-71697832D01*
X106791887Y-71697834D01*
X106809438Y-71707483D01*
X106825696Y-71718162D01*
X106841529Y-71730444D01*
X106863480Y-71739942D01*
X106884302Y-71748953D01*
X106889546Y-71751522D01*
X106930373Y-71773967D01*
X106949777Y-71778949D01*
X106968175Y-71785248D01*
X106986570Y-71793208D01*
X107032594Y-71800496D01*
X107038297Y-71801677D01*
X107083446Y-71813270D01*
X107103481Y-71813270D01*
X107122878Y-71814796D01*
X107142661Y-71817930D01*
X107189048Y-71813545D01*
X107194887Y-71813270D01*
X189937800Y-71813270D01*
X189953420Y-71814994D01*
X189953447Y-71814709D01*
X189961203Y-71815441D01*
X189961210Y-71815443D01*
X190030357Y-71813270D01*
X190059893Y-71813270D01*
X190066771Y-71812400D01*
X190072584Y-71811942D01*
X190119170Y-71810479D01*
X190138412Y-71804887D01*
X190157455Y-71800944D01*
X190177335Y-71798434D01*
X190220665Y-71781277D01*
X190226189Y-71779387D01*
X190229939Y-71778297D01*
X190270933Y-71766388D01*
X190288172Y-71756192D01*
X190305646Y-71747632D01*
X190324270Y-71740258D01*
X190324270Y-71740257D01*
X190324275Y-71740256D01*
X190361992Y-71712852D01*
X190366848Y-71709662D01*
X190406963Y-71685940D01*
X190421132Y-71671769D01*
X190435922Y-71659138D01*
X190452130Y-71647364D01*
X190481842Y-71611446D01*
X190485755Y-71607146D01*
X191156083Y-70936819D01*
X191217407Y-70903334D01*
X191243765Y-70900500D01*
X191277652Y-70900500D01*
X191277654Y-70900500D01*
X191462811Y-70861144D01*
X191635738Y-70784151D01*
X191788879Y-70672888D01*
X191915541Y-70532216D01*
X192010187Y-70368284D01*
X192068682Y-70188256D01*
X192088468Y-70000000D01*
X192068682Y-69811744D01*
X192010187Y-69631716D01*
X191915541Y-69467784D01*
X191788879Y-69327112D01*
X191788878Y-69327111D01*
X191635742Y-69215851D01*
X191635737Y-69215848D01*
X191462815Y-69138857D01*
X191462810Y-69138855D01*
X191317008Y-69107865D01*
X191277654Y-69099500D01*
X191088362Y-69099500D01*
X191055905Y-69106398D01*
X190903205Y-69138855D01*
X190903200Y-69138857D01*
X190733444Y-69214439D01*
X190664194Y-69223724D01*
X190632572Y-69214439D01*
X190462815Y-69138857D01*
X190462810Y-69138855D01*
X190317008Y-69107865D01*
X190277654Y-69099500D01*
X190088362Y-69099500D01*
X189942296Y-69130547D01*
X189872629Y-69125231D01*
X189816895Y-69083094D01*
X189796959Y-69033430D01*
X189795613Y-69033776D01*
X189793672Y-69026217D01*
X189793672Y-69026216D01*
X189776512Y-68982875D01*
X189774632Y-68977387D01*
X189761626Y-68932618D01*
X189751430Y-68915378D01*
X189742869Y-68897902D01*
X189735495Y-68879278D01*
X189735494Y-68879276D01*
X189708087Y-68841553D01*
X189704896Y-68836694D01*
X189681180Y-68796591D01*
X189681173Y-68796582D01*
X189667014Y-68782423D01*
X189654376Y-68767627D01*
X189642602Y-68751421D01*
X189606696Y-68721717D01*
X189602384Y-68717794D01*
X185875803Y-64991212D01*
X185865980Y-64978950D01*
X185865759Y-64979134D01*
X185860786Y-64973123D01*
X185842159Y-64955631D01*
X185810364Y-64925773D01*
X185799919Y-64915328D01*
X185789475Y-64904883D01*
X185783986Y-64900625D01*
X185779561Y-64896847D01*
X185745582Y-64864938D01*
X185745580Y-64864936D01*
X185745577Y-64864935D01*
X185728029Y-64855288D01*
X185711763Y-64844604D01*
X185695933Y-64832325D01*
X185653168Y-64813818D01*
X185647922Y-64811248D01*
X185607093Y-64788803D01*
X185607092Y-64788802D01*
X185587693Y-64783822D01*
X185569281Y-64777518D01*
X185550898Y-64769562D01*
X185550892Y-64769560D01*
X185504874Y-64762272D01*
X185499152Y-64761087D01*
X185454021Y-64749500D01*
X185454019Y-64749500D01*
X185433984Y-64749500D01*
X185414586Y-64747973D01*
X185407162Y-64746797D01*
X185394805Y-64744840D01*
X185394804Y-64744840D01*
X185348416Y-64749225D01*
X185342578Y-64749500D01*
X110633236Y-64749500D01*
X110617619Y-64747776D01*
X110617592Y-64748062D01*
X110609830Y-64747327D01*
X110540702Y-64749500D01*
X110511149Y-64749500D01*
X110510428Y-64749590D01*
X110504256Y-64750369D01*
X110498444Y-64750826D01*
X110451871Y-64752290D01*
X110451868Y-64752291D01*
X110432625Y-64757881D01*
X110413582Y-64761825D01*
X110393703Y-64764336D01*
X110393702Y-64764337D01*
X110350377Y-64781490D01*
X110344851Y-64783382D01*
X110300107Y-64796383D01*
X110300103Y-64796385D01*
X110282864Y-64806580D01*
X110265397Y-64815137D01*
X110246768Y-64822512D01*
X110246766Y-64822513D01*
X110209063Y-64849906D01*
X110204181Y-64853112D01*
X110164079Y-64876828D01*
X110149907Y-64891000D01*
X110135122Y-64903628D01*
X110118911Y-64915407D01*
X110089208Y-64951310D01*
X110085276Y-64955631D01*
X109014625Y-66026283D01*
X108953302Y-66059768D01*
X108926944Y-66062602D01*
X108868456Y-66062602D01*
X108835999Y-66069500D01*
X108683299Y-66101957D01*
X108683294Y-66101959D01*
X108510372Y-66178950D01*
X108510367Y-66178953D01*
X108357231Y-66290213D01*
X108230568Y-66430887D01*
X108135923Y-66594817D01*
X108135920Y-66594824D01*
X108077429Y-66774842D01*
X108077428Y-66774846D01*
X108057642Y-66963102D01*
X108077428Y-67151358D01*
X108077429Y-67151361D01*
X108135920Y-67331379D01*
X108135923Y-67331386D01*
X108230569Y-67495318D01*
X108254955Y-67522401D01*
X108357231Y-67635990D01*
X108510367Y-67747250D01*
X108510372Y-67747253D01*
X108683294Y-67824244D01*
X108683299Y-67824246D01*
X108868456Y-67863602D01*
X108868457Y-67863602D01*
X109057746Y-67863602D01*
X109057748Y-67863602D01*
X109242905Y-67824246D01*
X109332959Y-67784151D01*
X109406406Y-67751450D01*
X109475656Y-67742165D01*
X109518837Y-67757339D01*
X109522672Y-67759553D01*
X109695594Y-67836544D01*
X109695599Y-67836546D01*
X109880756Y-67875902D01*
X109880757Y-67875902D01*
X110070046Y-67875902D01*
X110070048Y-67875902D01*
X110255205Y-67836546D01*
X110418708Y-67763748D01*
X110487955Y-67754463D01*
X110531142Y-67769641D01*
X110534967Y-67771849D01*
X110534971Y-67771852D01*
X110649642Y-67822907D01*
X110707893Y-67848843D01*
X110707898Y-67848845D01*
X110893055Y-67888201D01*
X110893056Y-67888201D01*
X111082345Y-67888201D01*
X111082347Y-67888201D01*
X111267504Y-67848845D01*
X111431007Y-67776047D01*
X111500254Y-67766762D01*
X111543441Y-67781940D01*
X111547266Y-67784148D01*
X111547270Y-67784151D01*
X111601772Y-67808417D01*
X111720192Y-67861142D01*
X111720197Y-67861144D01*
X111905354Y-67900500D01*
X111905355Y-67900500D01*
X112094644Y-67900500D01*
X112094646Y-67900500D01*
X112279803Y-67861144D01*
X112452730Y-67784151D01*
X112605871Y-67672888D01*
X112608788Y-67669647D01*
X112611600Y-67666526D01*
X112671087Y-67629879D01*
X112703748Y-67625500D01*
X180689548Y-67625500D01*
X180756587Y-67645185D01*
X180777229Y-67661819D01*
X182431773Y-69316363D01*
X182465258Y-69377686D01*
X182460274Y-69447378D01*
X182451479Y-69466043D01*
X182355831Y-69631710D01*
X182355826Y-69631722D01*
X182300939Y-69800648D01*
X182297334Y-69811744D01*
X182277548Y-70000000D01*
X182277419Y-70001231D01*
X182250835Y-70065846D01*
X182193537Y-70105831D01*
X182154098Y-70112270D01*
X181027515Y-70112270D01*
X180960476Y-70092585D01*
X180914721Y-70039781D01*
X180904195Y-70001235D01*
X180885674Y-69825014D01*
X180827179Y-69644986D01*
X180732533Y-69481054D01*
X180605871Y-69340382D01*
X180605870Y-69340381D01*
X180452734Y-69229121D01*
X180452729Y-69229118D01*
X180279807Y-69152127D01*
X180279802Y-69152125D01*
X180134001Y-69121135D01*
X180094646Y-69112770D01*
X180094645Y-69112770D01*
X180035453Y-69112770D01*
X179968414Y-69093085D01*
X179947772Y-69076451D01*
X179487533Y-68616212D01*
X179477710Y-68603950D01*
X179477489Y-68604134D01*
X179472516Y-68598123D01*
X179472515Y-68598122D01*
X179422094Y-68550773D01*
X179411648Y-68540328D01*
X179401205Y-68529883D01*
X179395716Y-68525625D01*
X179391291Y-68521847D01*
X179357312Y-68489938D01*
X179357310Y-68489936D01*
X179357307Y-68489935D01*
X179339759Y-68480288D01*
X179323493Y-68469604D01*
X179307663Y-68457325D01*
X179264898Y-68438818D01*
X179259652Y-68436248D01*
X179218823Y-68413803D01*
X179218822Y-68413802D01*
X179199423Y-68408822D01*
X179181011Y-68402518D01*
X179162628Y-68394562D01*
X179162622Y-68394560D01*
X179116604Y-68387272D01*
X179110882Y-68386087D01*
X179065751Y-68374500D01*
X179065749Y-68374500D01*
X179045714Y-68374500D01*
X179026316Y-68372973D01*
X179018892Y-68371797D01*
X179006535Y-68369840D01*
X179006534Y-68369840D01*
X178960146Y-68374225D01*
X178954308Y-68374500D01*
X120703748Y-68374500D01*
X120636709Y-68354815D01*
X120611600Y-68333474D01*
X120605873Y-68327114D01*
X120605869Y-68327110D01*
X120452734Y-68215851D01*
X120452729Y-68215848D01*
X120279807Y-68138857D01*
X120279802Y-68138855D01*
X120134000Y-68107865D01*
X120094646Y-68099500D01*
X119905354Y-68099500D01*
X119872897Y-68106398D01*
X119720197Y-68138855D01*
X119720192Y-68138857D01*
X119547270Y-68215848D01*
X119547265Y-68215851D01*
X119394129Y-68327111D01*
X119267466Y-68467785D01*
X119172821Y-68631715D01*
X119172818Y-68631722D01*
X119114327Y-68811740D01*
X119114326Y-68811744D01*
X119094540Y-69000000D01*
X119114326Y-69188256D01*
X119114327Y-69188259D01*
X119172818Y-69368277D01*
X119172821Y-69368284D01*
X119267467Y-69532216D01*
X119357059Y-69631718D01*
X119394129Y-69672888D01*
X119547265Y-69784148D01*
X119547270Y-69784151D01*
X119720192Y-69861142D01*
X119720193Y-69861142D01*
X119720197Y-69861144D01*
X119736089Y-69864522D01*
X119747652Y-69866980D01*
X119809134Y-69900172D01*
X119842911Y-69961335D01*
X119838259Y-70031049D01*
X119796655Y-70087182D01*
X119731307Y-70111911D01*
X119721872Y-70112270D01*
X108048222Y-70112270D01*
X107981183Y-70092585D01*
X107960541Y-70075951D01*
X104938960Y-67054369D01*
X104905475Y-66993046D01*
X104903323Y-66979668D01*
X104885674Y-66811744D01*
X104827179Y-66631716D01*
X104732533Y-66467784D01*
X104605871Y-66327112D01*
X104592362Y-66317297D01*
X104452734Y-66215851D01*
X104452729Y-66215848D01*
X104279807Y-66138857D01*
X104279802Y-66138855D01*
X104134000Y-66107865D01*
X104094646Y-66099500D01*
X103905354Y-66099500D01*
X103872897Y-66106398D01*
X103720197Y-66138855D01*
X103720192Y-66138857D01*
X103554705Y-66212538D01*
X103485455Y-66221823D01*
X103447266Y-66208402D01*
X103447145Y-66208677D01*
X103443767Y-66207173D01*
X103442273Y-66206648D01*
X103441211Y-66206035D01*
X103268286Y-66129042D01*
X103268281Y-66129040D01*
X103122480Y-66098050D01*
X103083125Y-66089685D01*
X102893833Y-66089685D01*
X102861376Y-66096583D01*
X102708676Y-66129040D01*
X102708671Y-66129042D01*
X102535749Y-66206033D01*
X102535744Y-66206036D01*
X102382608Y-66317296D01*
X102255945Y-66457970D01*
X102161300Y-66621900D01*
X102161297Y-66621907D01*
X102110956Y-66776843D01*
X102102805Y-66801929D01*
X102083019Y-66990185D01*
X99515117Y-66990185D01*
X99571464Y-66964116D01*
X99571477Y-66964109D01*
X99882717Y-66776843D01*
X99882733Y-66776832D01*
X100171924Y-66556996D01*
X100188109Y-66541663D01*
X99039033Y-65392586D01*
X99005548Y-65331263D01*
X99010532Y-65261571D01*
X99046180Y-65210617D01*
X99134870Y-65134870D01*
X99210617Y-65046180D01*
X99269121Y-65007990D01*
X99338989Y-65007490D01*
X99392586Y-65039033D01*
X100539029Y-66185475D01*
X100539030Y-66185475D01*
X100670822Y-66030319D01*
X100670829Y-66030309D01*
X100874681Y-65729651D01*
X100874683Y-65729647D01*
X101044838Y-65408702D01*
X101044847Y-65408684D01*
X101179302Y-65071227D01*
X101179304Y-65071220D01*
X101276480Y-64721222D01*
X101276482Y-64721214D01*
X101335253Y-64362728D01*
X101354920Y-64000002D01*
X194645080Y-64000002D01*
X194664746Y-64362728D01*
X194723517Y-64721214D01*
X194723519Y-64721222D01*
X194820695Y-65071220D01*
X194820697Y-65071227D01*
X194955152Y-65408684D01*
X194955161Y-65408702D01*
X195125316Y-65729647D01*
X195125318Y-65729651D01*
X195329170Y-66030309D01*
X195329177Y-66030319D01*
X195460968Y-66185475D01*
X195460969Y-66185476D01*
X196607413Y-65039032D01*
X196668736Y-65005547D01*
X196738428Y-65010531D01*
X196789381Y-65046179D01*
X196865130Y-65134870D01*
X196928855Y-65189296D01*
X196953816Y-65210615D01*
X196992009Y-65269122D01*
X196992507Y-65338990D01*
X196960965Y-65392586D01*
X195811889Y-66541663D01*
X195811889Y-66541664D01*
X195828070Y-66556992D01*
X196117266Y-66776832D01*
X196117282Y-66776843D01*
X196428522Y-66964109D01*
X196428535Y-66964116D01*
X196758205Y-67116639D01*
X196758210Y-67116640D01*
X197102461Y-67232632D01*
X197457235Y-67310724D01*
X197818366Y-67349999D01*
X197818374Y-67350000D01*
X198181626Y-67350000D01*
X198181633Y-67349999D01*
X198542764Y-67310724D01*
X198897538Y-67232632D01*
X199241789Y-67116640D01*
X199241794Y-67116639D01*
X199571464Y-66964116D01*
X199571477Y-66964109D01*
X199882717Y-66776843D01*
X199882733Y-66776832D01*
X200171924Y-66556996D01*
X200188109Y-66541663D01*
X199039033Y-65392586D01*
X199005548Y-65331263D01*
X199010532Y-65261571D01*
X199046180Y-65210617D01*
X199134870Y-65134870D01*
X199210617Y-65046180D01*
X199269121Y-65007990D01*
X199338989Y-65007490D01*
X199392586Y-65039033D01*
X200539029Y-66185475D01*
X200539030Y-66185475D01*
X200670822Y-66030319D01*
X200670829Y-66030309D01*
X200874681Y-65729651D01*
X200874683Y-65729647D01*
X201044838Y-65408702D01*
X201044847Y-65408684D01*
X201179302Y-65071227D01*
X201179304Y-65071220D01*
X201276480Y-64721222D01*
X201276482Y-64721214D01*
X201335253Y-64362728D01*
X201354920Y-64000002D01*
X201354920Y-63999997D01*
X201335253Y-63637271D01*
X201276482Y-63278785D01*
X201276480Y-63278777D01*
X201179304Y-62928779D01*
X201179302Y-62928772D01*
X201044847Y-62591315D01*
X201044838Y-62591297D01*
X200874683Y-62270352D01*
X200874681Y-62270348D01*
X200670829Y-61969690D01*
X200670822Y-61969680D01*
X200539030Y-61814523D01*
X200539029Y-61814522D01*
X199392586Y-62960965D01*
X199331263Y-62994450D01*
X199261571Y-62989466D01*
X199210615Y-62953816D01*
X199189225Y-62928772D01*
X199134870Y-62865130D01*
X199046179Y-62789381D01*
X199007989Y-62730878D01*
X199007489Y-62661010D01*
X199039032Y-62607413D01*
X200188109Y-61458335D01*
X200188109Y-61458334D01*
X200171929Y-61443007D01*
X199882733Y-61223167D01*
X199882717Y-61223156D01*
X199571477Y-61035890D01*
X199571464Y-61035883D01*
X199241794Y-60883360D01*
X199241789Y-60883359D01*
X198897538Y-60767367D01*
X198542764Y-60689275D01*
X198181633Y-60650000D01*
X197818366Y-60650000D01*
X197457235Y-60689275D01*
X197102461Y-60767367D01*
X196758210Y-60883359D01*
X196758205Y-60883360D01*
X196428535Y-61035883D01*
X196428522Y-61035890D01*
X196117282Y-61223156D01*
X196117266Y-61223167D01*
X195828071Y-61443006D01*
X195828070Y-61443007D01*
X195811889Y-61458334D01*
X195811889Y-61458336D01*
X196960966Y-62607413D01*
X196994451Y-62668736D01*
X196989467Y-62738428D01*
X196953817Y-62789384D01*
X196865130Y-62865130D01*
X196789384Y-62953817D01*
X196730877Y-62992010D01*
X196661009Y-62992508D01*
X196607413Y-62960966D01*
X195460969Y-61814522D01*
X195329170Y-61969690D01*
X195329169Y-61969691D01*
X195125313Y-62270357D01*
X194955161Y-62591297D01*
X194955152Y-62591315D01*
X194820697Y-62928772D01*
X194820695Y-62928779D01*
X194723519Y-63278777D01*
X194723517Y-63278785D01*
X194664746Y-63637271D01*
X194645080Y-63999997D01*
X194645080Y-64000002D01*
X101354920Y-64000002D01*
X101354920Y-63999997D01*
X101335253Y-63637271D01*
X101276482Y-63278785D01*
X101276480Y-63278777D01*
X101179304Y-62928779D01*
X101179302Y-62928772D01*
X101044847Y-62591315D01*
X101044838Y-62591297D01*
X100874683Y-62270352D01*
X100874681Y-62270348D01*
X100670829Y-61969690D01*
X100670822Y-61969680D01*
X100539030Y-61814523D01*
X100539029Y-61814522D01*
X99392586Y-62960965D01*
X99331263Y-62994450D01*
X99261571Y-62989466D01*
X99210615Y-62953816D01*
X99189225Y-62928772D01*
X99134870Y-62865130D01*
X99046179Y-62789381D01*
X99007989Y-62730878D01*
X99007489Y-62661010D01*
X99039032Y-62607413D01*
X99937400Y-61709044D01*
X106777178Y-61709044D01*
X106778501Y-61722485D01*
X106778938Y-61740904D01*
X106778101Y-61757428D01*
X106778101Y-61757441D01*
X106788609Y-61826033D01*
X106789025Y-61829343D01*
X106795529Y-61895372D01*
X106795530Y-61895378D01*
X106800441Y-61911568D01*
X106804348Y-61928778D01*
X106807371Y-61948511D01*
X106807372Y-61948514D01*
X106830359Y-62010583D01*
X106831549Y-62014117D01*
X106849881Y-62074547D01*
X106861459Y-62096209D01*
X106864923Y-62103908D01*
X106874512Y-62129798D01*
X106874513Y-62129800D01*
X106907821Y-62183239D01*
X106909884Y-62186807D01*
X106938142Y-62239672D01*
X106955766Y-62261147D01*
X106960460Y-62267690D01*
X106976766Y-62293851D01*
X106976767Y-62293852D01*
X107017944Y-62337170D01*
X107020935Y-62340555D01*
X107056916Y-62384399D01*
X107056918Y-62384400D01*
X107056920Y-62384403D01*
X107075925Y-62400000D01*
X107080885Y-62404071D01*
X107086490Y-62409281D01*
X107109954Y-62433965D01*
X107156381Y-62466279D01*
X107160283Y-62469231D01*
X107201652Y-62503182D01*
X107231832Y-62519313D01*
X107238031Y-62523109D01*
X107268611Y-62544394D01*
X107268613Y-62544395D01*
X107268619Y-62544399D01*
X107317650Y-62565439D01*
X107322404Y-62567724D01*
X107366776Y-62591442D01*
X107402600Y-62602309D01*
X107409057Y-62604666D01*
X107415459Y-62607413D01*
X107446265Y-62620633D01*
X107495391Y-62630728D01*
X107500874Y-62632120D01*
X107545946Y-62645793D01*
X107555523Y-62646736D01*
X107586404Y-62649778D01*
X107592813Y-62650749D01*
X107635620Y-62659546D01*
X107635621Y-62659546D01*
X107682534Y-62659546D01*
X107688615Y-62659845D01*
X107700437Y-62661009D01*
X107732277Y-62664145D01*
X107764107Y-62661010D01*
X107775899Y-62659849D01*
X107778841Y-62659629D01*
X107780483Y-62659546D01*
X107827032Y-62654812D01*
X107868286Y-62650749D01*
X107918608Y-62645793D01*
X107918620Y-62645789D01*
X107918703Y-62645773D01*
X107924536Y-62644897D01*
X107924598Y-62644891D01*
X108012539Y-62617298D01*
X108097778Y-62591442D01*
X108097784Y-62591438D01*
X108104056Y-62588841D01*
X108108893Y-62587084D01*
X108109039Y-62587021D01*
X108109045Y-62587020D01*
X108186973Y-62543766D01*
X108262902Y-62503182D01*
X108262912Y-62503173D01*
X108267971Y-62499794D01*
X108268127Y-62500028D01*
X108273963Y-62496061D01*
X108278060Y-62493208D01*
X108278068Y-62493205D01*
X108343405Y-62437114D01*
X108407634Y-62384403D01*
X108407638Y-62384397D01*
X108408816Y-62383220D01*
X108422605Y-62369123D01*
X108423031Y-62368756D01*
X108424745Y-62367286D01*
X108475603Y-62301581D01*
X108526413Y-62239671D01*
X108527934Y-62236823D01*
X108539243Y-62219366D01*
X108543073Y-62214419D01*
X108558367Y-62183239D01*
X108578345Y-62142512D01*
X108603094Y-62096209D01*
X108614673Y-62074547D01*
X108616601Y-62068188D01*
X108623941Y-62049557D01*
X108628207Y-62040862D01*
X108647530Y-61966230D01*
X108669024Y-61895377D01*
X108670011Y-61885346D01*
X108673373Y-61866420D01*
X108676662Y-61853720D01*
X108680340Y-61781184D01*
X108680558Y-61778262D01*
X108682610Y-61757436D01*
X108687376Y-61709046D01*
X108687376Y-61709044D01*
X109077178Y-61709044D01*
X109078501Y-61722485D01*
X109078938Y-61740904D01*
X109078101Y-61757428D01*
X109078101Y-61757441D01*
X109088609Y-61826033D01*
X109089025Y-61829343D01*
X109095529Y-61895372D01*
X109095530Y-61895378D01*
X109100441Y-61911568D01*
X109104348Y-61928778D01*
X109107371Y-61948511D01*
X109107372Y-61948514D01*
X109130359Y-62010583D01*
X109131549Y-62014117D01*
X109149881Y-62074547D01*
X109161459Y-62096209D01*
X109164923Y-62103908D01*
X109174512Y-62129798D01*
X109174513Y-62129800D01*
X109207821Y-62183239D01*
X109209884Y-62186807D01*
X109238142Y-62239672D01*
X109255766Y-62261147D01*
X109260460Y-62267690D01*
X109276766Y-62293851D01*
X109276767Y-62293852D01*
X109317944Y-62337170D01*
X109320935Y-62340555D01*
X109356916Y-62384399D01*
X109356918Y-62384400D01*
X109356920Y-62384403D01*
X109375925Y-62400000D01*
X109380885Y-62404071D01*
X109386490Y-62409281D01*
X109409954Y-62433965D01*
X109456381Y-62466279D01*
X109460283Y-62469231D01*
X109501652Y-62503182D01*
X109531832Y-62519313D01*
X109538031Y-62523109D01*
X109568611Y-62544394D01*
X109568613Y-62544395D01*
X109568619Y-62544399D01*
X109617650Y-62565439D01*
X109622404Y-62567724D01*
X109666776Y-62591442D01*
X109702600Y-62602309D01*
X109709057Y-62604666D01*
X109715459Y-62607413D01*
X109746265Y-62620633D01*
X109795391Y-62630728D01*
X109800874Y-62632120D01*
X109845946Y-62645793D01*
X109855523Y-62646736D01*
X109886404Y-62649778D01*
X109892813Y-62650749D01*
X109935620Y-62659546D01*
X109935621Y-62659546D01*
X109982534Y-62659546D01*
X109988615Y-62659845D01*
X110000437Y-62661009D01*
X110032277Y-62664145D01*
X110064107Y-62661010D01*
X110075899Y-62659849D01*
X110078841Y-62659629D01*
X110080483Y-62659546D01*
X110127032Y-62654812D01*
X110168286Y-62650749D01*
X110218608Y-62645793D01*
X110218620Y-62645789D01*
X110218703Y-62645773D01*
X110224536Y-62644897D01*
X110224598Y-62644891D01*
X110312539Y-62617298D01*
X110397778Y-62591442D01*
X110397784Y-62591438D01*
X110404056Y-62588841D01*
X110408893Y-62587084D01*
X110409039Y-62587021D01*
X110409045Y-62587020D01*
X110486973Y-62543766D01*
X110562902Y-62503182D01*
X110562912Y-62503173D01*
X110567971Y-62499794D01*
X110568127Y-62500028D01*
X110573963Y-62496061D01*
X110578060Y-62493208D01*
X110578068Y-62493205D01*
X110643405Y-62437114D01*
X110707634Y-62384403D01*
X110707638Y-62384397D01*
X110708816Y-62383220D01*
X110722605Y-62369123D01*
X110723031Y-62368756D01*
X110724745Y-62367286D01*
X110775603Y-62301581D01*
X110826413Y-62239671D01*
X110827934Y-62236823D01*
X110839243Y-62219366D01*
X110843073Y-62214419D01*
X110858367Y-62183239D01*
X110878345Y-62142512D01*
X110903094Y-62096209D01*
X110914673Y-62074547D01*
X110916601Y-62068188D01*
X110923941Y-62049557D01*
X110928207Y-62040862D01*
X110947530Y-61966230D01*
X110969024Y-61895377D01*
X110970011Y-61885346D01*
X110973373Y-61866420D01*
X110976662Y-61853720D01*
X110980340Y-61781184D01*
X110980558Y-61778262D01*
X110982610Y-61757436D01*
X110987376Y-61709046D01*
X110986053Y-61695617D01*
X110985614Y-61677183D01*
X110986453Y-61660656D01*
X110975938Y-61592024D01*
X110975526Y-61588739D01*
X110973126Y-61564368D01*
X110969024Y-61522715D01*
X110964110Y-61506518D01*
X110960203Y-61489309D01*
X110957180Y-61469572D01*
X110934185Y-61407486D01*
X110933003Y-61403972D01*
X110914671Y-61343540D01*
X110903094Y-61321882D01*
X110899630Y-61314186D01*
X110890041Y-61288293D01*
X110890039Y-61288291D01*
X110890038Y-61288287D01*
X110856730Y-61234850D01*
X110854674Y-61231295D01*
X110837258Y-61198711D01*
X110826414Y-61178422D01*
X110826412Y-61178419D01*
X110808784Y-61156940D01*
X110804093Y-61150402D01*
X110787786Y-61124239D01*
X110746606Y-61080918D01*
X110743625Y-61077543D01*
X110707634Y-61033689D01*
X110683667Y-61014019D01*
X110678058Y-61008805D01*
X110654600Y-60984127D01*
X110650074Y-60980977D01*
X110608181Y-60951818D01*
X110604265Y-60948856D01*
X110568771Y-60919727D01*
X110562902Y-60914910D01*
X110532706Y-60898770D01*
X110526523Y-60894983D01*
X110509824Y-60883360D01*
X110495935Y-60873693D01*
X110446907Y-60852653D01*
X110442144Y-60850364D01*
X110397778Y-60826650D01*
X110397777Y-60826649D01*
X110397776Y-60826649D01*
X110378164Y-60820700D01*
X110361946Y-60815780D01*
X110355496Y-60813425D01*
X110318286Y-60797457D01*
X110269186Y-60787367D01*
X110263668Y-60785967D01*
X110218613Y-60772300D01*
X110218604Y-60772298D01*
X110178141Y-60768312D01*
X110171735Y-60767341D01*
X110128934Y-60758546D01*
X110128933Y-60758546D01*
X110082020Y-60758546D01*
X110075939Y-60758247D01*
X110032277Y-60753947D01*
X110032276Y-60753947D01*
X109988654Y-60758243D01*
X109985719Y-60758462D01*
X109984072Y-60758545D01*
X109937521Y-60763279D01*
X109845931Y-60772300D01*
X109845800Y-60772327D01*
X109840015Y-60773194D01*
X109839967Y-60773198D01*
X109839946Y-60773203D01*
X109752015Y-60800792D01*
X109666770Y-60826651D01*
X109660472Y-60829259D01*
X109655657Y-60831008D01*
X109655509Y-60831071D01*
X109577580Y-60874325D01*
X109501655Y-60914908D01*
X109496588Y-60918294D01*
X109496433Y-60918062D01*
X109490382Y-60922175D01*
X109486484Y-60924887D01*
X109421147Y-60980977D01*
X109421148Y-60980977D01*
X109356920Y-61033689D01*
X109356918Y-61033690D01*
X109356912Y-61033696D01*
X109355894Y-61034713D01*
X109341968Y-61048952D01*
X109339813Y-61050801D01*
X109339804Y-61050811D01*
X109288950Y-61116510D01*
X109238146Y-61178414D01*
X109238143Y-61178418D01*
X109238141Y-61178421D01*
X109238138Y-61178425D01*
X109238135Y-61178431D01*
X109236608Y-61181287D01*
X109225321Y-61198711D01*
X109221481Y-61203672D01*
X109221479Y-61203675D01*
X109186209Y-61275579D01*
X109149881Y-61343543D01*
X109147946Y-61349922D01*
X109140621Y-61368514D01*
X109136347Y-61377227D01*
X109117023Y-61451861D01*
X109095529Y-61522714D01*
X109095528Y-61522720D01*
X109094539Y-61532758D01*
X109091182Y-61551660D01*
X109087892Y-61564368D01*
X109084212Y-61636898D01*
X109083993Y-61639832D01*
X109077178Y-61709043D01*
X109077178Y-61709044D01*
X108687376Y-61709044D01*
X108686053Y-61695617D01*
X108685614Y-61677183D01*
X108686453Y-61660656D01*
X108675938Y-61592024D01*
X108675526Y-61588739D01*
X108673126Y-61564368D01*
X108669024Y-61522715D01*
X108664110Y-61506518D01*
X108660203Y-61489309D01*
X108657180Y-61469572D01*
X108634185Y-61407486D01*
X108633003Y-61403972D01*
X108614671Y-61343540D01*
X108603094Y-61321882D01*
X108599630Y-61314186D01*
X108590041Y-61288293D01*
X108590039Y-61288291D01*
X108590038Y-61288287D01*
X108556730Y-61234850D01*
X108554674Y-61231295D01*
X108537258Y-61198711D01*
X108526414Y-61178422D01*
X108526412Y-61178419D01*
X108508784Y-61156940D01*
X108504093Y-61150402D01*
X108487786Y-61124239D01*
X108446606Y-61080918D01*
X108443625Y-61077543D01*
X108407634Y-61033689D01*
X108383667Y-61014019D01*
X108378058Y-61008805D01*
X108354600Y-60984127D01*
X108350074Y-60980977D01*
X108308181Y-60951818D01*
X108304265Y-60948856D01*
X108268771Y-60919727D01*
X108262902Y-60914910D01*
X108232706Y-60898770D01*
X108226523Y-60894983D01*
X108209824Y-60883360D01*
X108195935Y-60873693D01*
X108146907Y-60852653D01*
X108142144Y-60850364D01*
X108097778Y-60826650D01*
X108097777Y-60826649D01*
X108097776Y-60826649D01*
X108078164Y-60820700D01*
X108061946Y-60815780D01*
X108055496Y-60813425D01*
X108018286Y-60797457D01*
X107969186Y-60787367D01*
X107963668Y-60785967D01*
X107918613Y-60772300D01*
X107918604Y-60772298D01*
X107878141Y-60768312D01*
X107871735Y-60767341D01*
X107828934Y-60758546D01*
X107828933Y-60758546D01*
X107782020Y-60758546D01*
X107775939Y-60758247D01*
X107732277Y-60753947D01*
X107732276Y-60753947D01*
X107688654Y-60758243D01*
X107685719Y-60758462D01*
X107684072Y-60758545D01*
X107637521Y-60763279D01*
X107545931Y-60772300D01*
X107545800Y-60772327D01*
X107540015Y-60773194D01*
X107539967Y-60773198D01*
X107539946Y-60773203D01*
X107452015Y-60800792D01*
X107366770Y-60826651D01*
X107360472Y-60829259D01*
X107355657Y-60831008D01*
X107355509Y-60831071D01*
X107277580Y-60874325D01*
X107201655Y-60914908D01*
X107196588Y-60918294D01*
X107196433Y-60918062D01*
X107190382Y-60922175D01*
X107186484Y-60924887D01*
X107121147Y-60980977D01*
X107121148Y-60980977D01*
X107056920Y-61033689D01*
X107056918Y-61033690D01*
X107056912Y-61033696D01*
X107055894Y-61034713D01*
X107041968Y-61048952D01*
X107039813Y-61050801D01*
X107039804Y-61050811D01*
X106988950Y-61116510D01*
X106938146Y-61178414D01*
X106938143Y-61178418D01*
X106938141Y-61178421D01*
X106938138Y-61178425D01*
X106938135Y-61178431D01*
X106936608Y-61181287D01*
X106925321Y-61198711D01*
X106921481Y-61203672D01*
X106921479Y-61203675D01*
X106886209Y-61275579D01*
X106849881Y-61343543D01*
X106847946Y-61349922D01*
X106840621Y-61368514D01*
X106836347Y-61377227D01*
X106817023Y-61451861D01*
X106795529Y-61522714D01*
X106795528Y-61522720D01*
X106794539Y-61532758D01*
X106791182Y-61551660D01*
X106787892Y-61564368D01*
X106784212Y-61636898D01*
X106783993Y-61639832D01*
X106777178Y-61709043D01*
X106777178Y-61709044D01*
X99937400Y-61709044D01*
X100188109Y-61458335D01*
X100188109Y-61458334D01*
X100171929Y-61443007D01*
X99882733Y-61223167D01*
X99882717Y-61223156D01*
X99571477Y-61035890D01*
X99571464Y-61035883D01*
X99241794Y-60883360D01*
X99241789Y-60883359D01*
X98897538Y-60767367D01*
X98542764Y-60689275D01*
X98181633Y-60650000D01*
X97818366Y-60650000D01*
X97457235Y-60689275D01*
X97102461Y-60767367D01*
X96758210Y-60883359D01*
X96758205Y-60883360D01*
X96428535Y-61035883D01*
X96428522Y-61035890D01*
X96117282Y-61223156D01*
X96117266Y-61223167D01*
X95828071Y-61443006D01*
X95828070Y-61443007D01*
X95811889Y-61458334D01*
X95811889Y-61458336D01*
X96960966Y-62607413D01*
X96994451Y-62668736D01*
X96989467Y-62738428D01*
X96953817Y-62789384D01*
X96865130Y-62865130D01*
X96789384Y-62953817D01*
X96730877Y-62992010D01*
X96661009Y-62992508D01*
X96607413Y-62960966D01*
X95460969Y-61814522D01*
X95329170Y-61969690D01*
X95329169Y-61969691D01*
X95125313Y-62270357D01*
X94955161Y-62591297D01*
X94955152Y-62591315D01*
X94820697Y-62928772D01*
X94820695Y-62928779D01*
X94723519Y-63278777D01*
X94723517Y-63278785D01*
X94664746Y-63637271D01*
X94645080Y-63999997D01*
X94645080Y-64000002D01*
X93370406Y-64000002D01*
X93419808Y-63624771D01*
X93420745Y-63619464D01*
X93496276Y-63278777D01*
X93504537Y-63241514D01*
X93505936Y-63236294D01*
X93582191Y-62994450D01*
X93622349Y-62867086D01*
X93624192Y-62862024D01*
X93747046Y-62565432D01*
X93772341Y-62504366D01*
X93774618Y-62499479D01*
X93953394Y-62156056D01*
X93956067Y-62151427D01*
X94164088Y-61824901D01*
X94167175Y-61820493D01*
X94402859Y-61513344D01*
X94406314Y-61509228D01*
X94667869Y-61223792D01*
X94671666Y-61219994D01*
X94957097Y-60958445D01*
X94961213Y-60954990D01*
X95268366Y-60719302D01*
X95272770Y-60716219D01*
X95599289Y-60508203D01*
X95603935Y-60505519D01*
X95947351Y-60326748D01*
X95952234Y-60324472D01*
X96016637Y-60297794D01*
X96309892Y-60176322D01*
X96314954Y-60174479D01*
X96684163Y-60058066D01*
X96689383Y-60056667D01*
X97067339Y-59972873D01*
X97072640Y-59971938D01*
X97456477Y-59921403D01*
X97461826Y-59920934D01*
X97851255Y-59903929D01*
X97851301Y-59903929D01*
X97917193Y-59903929D01*
X197785405Y-59903929D01*
X197851297Y-59903929D01*
X198240771Y-59920933D01*
G37*
%TD.AperFunction*%
%TD*%
M02*
