%TF.GenerationSoftware,KiCad,Pcbnew,7.0.7*%
%TF.CreationDate,2023-12-09T22:21:25+01:00*%
%TF.ProjectId,Untitled,556e7469-746c-4656-942e-6b696361645f,rev?*%
%TF.SameCoordinates,Original*%
%TF.FileFunction,Legend,Bot*%
%TF.FilePolarity,Positive*%
%FSLAX46Y46*%
G04 Gerber Fmt 4.6, Leading zero omitted, Abs format (unit mm)*
G04 Created by KiCad (PCBNEW 7.0.7) date 2023-12-09 22:21:25*
%MOMM*%
%LPD*%
G01*
G04 APERTURE LIST*
%ADD10C,0.000000*%
%ADD11C,0.900000*%
%ADD12C,5.700000*%
%ADD13O,1.800000X1.200000*%
%ADD14O,2.000000X1.200000*%
%ADD15C,0.700000*%
%ADD16O,2.000000X1.000000*%
%ADD17C,1.500000*%
%ADD18C,1.200000*%
G04 APERTURE END LIST*
D10*
G36*
X148000000Y-68000000D02*
G01*
X148150514Y-68002980D01*
X148295287Y-68007630D01*
X148437525Y-68013676D01*
X148577209Y-68021132D01*
X148714324Y-68030012D01*
X148848852Y-68040330D01*
X148980777Y-68052102D01*
X149110081Y-68065342D01*
X149236748Y-68080064D01*
X149472559Y-68110740D01*
X149702628Y-68143882D01*
X149926926Y-68179512D01*
X150145421Y-68217652D01*
X150249924Y-68237311D01*
X150348015Y-68257000D01*
X150439166Y-68276750D01*
X150481974Y-68286656D01*
X150522849Y-68296587D01*
X150595293Y-68315516D01*
X150637959Y-68327818D01*
X150683677Y-68342216D01*
X150731511Y-68358867D01*
X150780527Y-68377925D01*
X150805187Y-68388405D01*
X150829791Y-68399545D01*
X150854224Y-68411363D01*
X150878369Y-68423880D01*
X150917279Y-68445757D01*
X150955113Y-68469012D01*
X150991847Y-68493620D01*
X151027456Y-68519553D01*
X151061915Y-68546787D01*
X151095200Y-68575295D01*
X151127287Y-68605051D01*
X151158150Y-68636029D01*
X151187765Y-68668203D01*
X151216107Y-68701547D01*
X151243152Y-68736034D01*
X151268876Y-68771640D01*
X151293253Y-68808337D01*
X151316258Y-68846101D01*
X151337869Y-68884903D01*
X151358059Y-68924720D01*
X151376669Y-68965288D01*
X151393603Y-69006340D01*
X151408855Y-69047839D01*
X151422421Y-69089751D01*
X151434294Y-69132039D01*
X151444470Y-69174668D01*
X151452943Y-69217602D01*
X151459708Y-69260805D01*
X151464761Y-69304242D01*
X151468095Y-69347876D01*
X151469705Y-69391672D01*
X151469587Y-69435595D01*
X151467734Y-69479609D01*
X151464143Y-69523677D01*
X151458807Y-69567764D01*
X151451721Y-69611835D01*
X151442932Y-69655601D01*
X151432501Y-69698770D01*
X151420446Y-69741312D01*
X151406783Y-69783195D01*
X151391530Y-69824386D01*
X151374703Y-69864854D01*
X151356319Y-69904567D01*
X151336396Y-69943494D01*
X151314950Y-69981602D01*
X151292000Y-70018861D01*
X151267561Y-70055237D01*
X151241651Y-70090701D01*
X151214286Y-70125219D01*
X151185485Y-70158760D01*
X151155263Y-70191292D01*
X151123639Y-70222784D01*
X150879428Y-70456663D01*
X149428215Y-70396206D01*
X149415594Y-70395280D01*
X148029905Y-70293296D01*
X147246844Y-70295399D01*
X147065789Y-70298106D01*
X146892756Y-70305145D01*
X146727638Y-70316383D01*
X146570324Y-70331685D01*
X146420708Y-70350918D01*
X146278680Y-70373949D01*
X146144131Y-70400643D01*
X146016954Y-70430866D01*
X145888663Y-70466636D01*
X145754277Y-70509281D01*
X145613746Y-70558973D01*
X145467025Y-70615886D01*
X145314065Y-70680192D01*
X145154820Y-70752063D01*
X144989241Y-70831673D01*
X144817281Y-70919194D01*
X144645009Y-71012219D01*
X144468367Y-71113589D01*
X144287348Y-71223392D01*
X144101942Y-71341712D01*
X143912142Y-71468637D01*
X143717938Y-71604252D01*
X143519323Y-71748643D01*
X143316287Y-71901896D01*
X143112566Y-72061338D01*
X142909691Y-72225952D01*
X142707665Y-72395750D01*
X142506493Y-72570746D01*
X142306178Y-72750953D01*
X142106723Y-72936382D01*
X141908133Y-73127047D01*
X141710411Y-73322960D01*
X141514461Y-73522650D01*
X141324741Y-73721023D01*
X141141231Y-73918077D01*
X140963911Y-74113809D01*
X140792761Y-74308219D01*
X140627760Y-74501303D01*
X140468887Y-74693059D01*
X140316124Y-74883486D01*
X140176176Y-75065890D01*
X140045890Y-75245967D01*
X139925125Y-75423712D01*
X139813744Y-75599118D01*
X139711607Y-75772176D01*
X139618575Y-75942882D01*
X139534509Y-76111227D01*
X139459270Y-76277205D01*
X139426961Y-76355213D01*
X139396159Y-76435547D01*
X139339194Y-76603289D01*
X139288597Y-76780615D01*
X139244593Y-76967711D01*
X139207404Y-77164762D01*
X139177254Y-77371955D01*
X139154367Y-77589473D01*
X139138966Y-77817503D01*
X139130738Y-78061093D01*
X139129615Y-78318803D01*
X139135707Y-78590736D01*
X139149128Y-78876992D01*
X139169987Y-79177671D01*
X139198399Y-79492874D01*
X139234473Y-79822701D01*
X139278322Y-80167254D01*
X139329452Y-80520067D01*
X139388025Y-80879874D01*
X139454067Y-81246687D01*
X139527602Y-81620518D01*
X139608658Y-82001379D01*
X139697258Y-82389281D01*
X139793429Y-82784236D01*
X139897196Y-83186256D01*
X140006983Y-83588812D01*
X140121574Y-83986759D01*
X140240962Y-84380101D01*
X140365143Y-84768844D01*
X140494110Y-85152992D01*
X140627858Y-85532550D01*
X140766382Y-85907521D01*
X140909677Y-86277912D01*
X141055087Y-86631512D01*
X141206060Y-86971653D01*
X141362533Y-87298430D01*
X141524442Y-87611940D01*
X141691725Y-87912279D01*
X141864316Y-88199543D01*
X142042153Y-88473827D01*
X142225172Y-88735229D01*
X142315293Y-88855689D01*
X142408289Y-88973389D01*
X142504169Y-89088332D01*
X142602948Y-89200521D01*
X142704637Y-89309960D01*
X142809247Y-89416650D01*
X142916792Y-89520595D01*
X143027284Y-89621798D01*
X143140734Y-89720261D01*
X143257156Y-89815989D01*
X143376560Y-89908982D01*
X143498960Y-89999245D01*
X143624367Y-90086780D01*
X143752794Y-90171591D01*
X143884253Y-90253680D01*
X144018756Y-90333049D01*
X144303259Y-90488241D01*
X144601081Y-90635055D01*
X144912340Y-90773385D01*
X145237152Y-90903127D01*
X145575632Y-91024175D01*
X145927897Y-91136423D01*
X146294063Y-91239767D01*
X146674246Y-91334100D01*
X147070238Y-91421441D01*
X147471059Y-91500890D01*
X147876719Y-91572433D01*
X148287229Y-91636055D01*
X148702600Y-91691738D01*
X149122841Y-91739469D01*
X149547964Y-91779231D01*
X149977979Y-91811010D01*
X150411955Y-91836021D01*
X150839464Y-91854807D01*
X151260513Y-91867379D01*
X151675110Y-91873750D01*
X152083264Y-91873932D01*
X152484983Y-91867937D01*
X152880273Y-91855779D01*
X153269144Y-91837469D01*
X153637972Y-91811535D01*
X153991394Y-91775531D01*
X154329567Y-91729642D01*
X154652650Y-91674055D01*
X154808581Y-91642683D01*
X154960800Y-91608955D01*
X155109325Y-91572896D01*
X155254176Y-91534529D01*
X155395373Y-91493876D01*
X155532936Y-91450962D01*
X155666884Y-91405808D01*
X155797238Y-91358440D01*
X155911754Y-91312793D01*
X156023636Y-91263188D01*
X156132897Y-91209586D01*
X156239551Y-91151948D01*
X156343611Y-91090235D01*
X156445091Y-91024408D01*
X156544005Y-90954428D01*
X156640366Y-90880256D01*
X156734187Y-90801854D01*
X156825483Y-90719182D01*
X156914266Y-90632201D01*
X157000550Y-90540872D01*
X157084350Y-90445158D01*
X157165678Y-90345018D01*
X157244548Y-90240413D01*
X157320973Y-90131305D01*
X157397678Y-90013785D01*
X157472343Y-89891285D01*
X157544931Y-89763758D01*
X157615404Y-89631161D01*
X157683726Y-89493449D01*
X157749858Y-89350578D01*
X157813764Y-89202501D01*
X157875407Y-89049175D01*
X157934749Y-88890554D01*
X157991753Y-88726595D01*
X158046383Y-88557252D01*
X158098600Y-88382480D01*
X158148367Y-88202235D01*
X158195648Y-88016472D01*
X158282601Y-87628213D01*
X158361177Y-87217766D01*
X158430688Y-86798511D01*
X158491098Y-86370422D01*
X158542373Y-85933474D01*
X158584475Y-85487640D01*
X158617371Y-85032893D01*
X158641024Y-84569207D01*
X158655398Y-84096555D01*
X158665525Y-83137701D01*
X158663382Y-82666822D01*
X158656441Y-82201639D01*
X158644706Y-81742147D01*
X158628182Y-81288343D01*
X158606874Y-80840224D01*
X158580786Y-80397786D01*
X158549882Y-79967369D01*
X158513958Y-79553244D01*
X158473067Y-79155341D01*
X158427262Y-78773591D01*
X158376595Y-78407923D01*
X158321119Y-78058267D01*
X158260886Y-77724553D01*
X158195950Y-77406711D01*
X158162754Y-77261790D01*
X158127142Y-77121338D01*
X158089153Y-76985304D01*
X158048831Y-76853634D01*
X158006217Y-76726277D01*
X157961353Y-76603180D01*
X157914279Y-76484290D01*
X157865039Y-76369554D01*
X157813673Y-76258921D01*
X157760223Y-76152339D01*
X157704731Y-76049753D01*
X157647239Y-75951113D01*
X157587788Y-75856364D01*
X157526420Y-75765456D01*
X157463176Y-75678336D01*
X157398099Y-75594950D01*
X157330382Y-75514094D01*
X157259914Y-75435453D01*
X157186659Y-75359036D01*
X157110581Y-75284855D01*
X157031646Y-75212918D01*
X156949817Y-75143238D01*
X156865059Y-75075823D01*
X156777337Y-75010684D01*
X156686614Y-74947832D01*
X156592857Y-74887276D01*
X156496029Y-74829027D01*
X156396095Y-74773095D01*
X156293019Y-74719491D01*
X156186766Y-74668224D01*
X156077300Y-74619306D01*
X155964587Y-74572746D01*
X155723584Y-74483356D01*
X155475680Y-74403814D01*
X155220797Y-74334217D01*
X154958855Y-74274660D01*
X154689776Y-74225237D01*
X154413480Y-74186046D01*
X154129889Y-74157180D01*
X153838923Y-74138737D01*
X153542373Y-74130477D01*
X153246724Y-74132310D01*
X152951950Y-74144241D01*
X152658023Y-74166273D01*
X152364914Y-74198411D01*
X152072595Y-74240658D01*
X151781039Y-74293019D01*
X151490218Y-74355497D01*
X151204607Y-74427348D01*
X150925194Y-74508592D01*
X150787797Y-74552729D01*
X150651932Y-74599206D01*
X150517592Y-74648019D01*
X150384771Y-74699165D01*
X150253463Y-74752643D01*
X150123663Y-74808447D01*
X149995363Y-74866577D01*
X149868559Y-74927028D01*
X149743244Y-74989798D01*
X149619411Y-75054883D01*
X149497056Y-75122282D01*
X149376171Y-75191990D01*
X149255565Y-75264576D01*
X149136520Y-75339160D01*
X149019033Y-75415743D01*
X148903103Y-75494329D01*
X148788725Y-75574920D01*
X148675899Y-75657518D01*
X148564621Y-75742126D01*
X148454890Y-75828746D01*
X148346703Y-75917381D01*
X148240057Y-76008035D01*
X148134950Y-76100708D01*
X148031381Y-76195404D01*
X147929345Y-76292125D01*
X147828842Y-76390874D01*
X147729868Y-76491654D01*
X147632421Y-76594467D01*
X147437097Y-76809912D01*
X147247642Y-77030428D01*
X147064053Y-77256027D01*
X146886328Y-77486721D01*
X146714463Y-77722523D01*
X146548456Y-77963444D01*
X146388304Y-78209496D01*
X146234006Y-78460692D01*
X146084402Y-78717835D01*
X145941865Y-78975778D01*
X145806376Y-79234523D01*
X145677916Y-79494071D01*
X145556465Y-79754424D01*
X145442004Y-80015584D01*
X145334513Y-80277552D01*
X145233974Y-80540329D01*
X145141520Y-80801080D01*
X145057988Y-81057712D01*
X144983293Y-81310248D01*
X144917353Y-81558710D01*
X144860085Y-81803117D01*
X144811406Y-82043492D01*
X144771232Y-82279856D01*
X144739480Y-82512229D01*
X144727518Y-82622373D01*
X144718196Y-82730666D01*
X144711486Y-82837128D01*
X144707357Y-82941777D01*
X144705781Y-83044632D01*
X144706728Y-83145712D01*
X144710167Y-83245037D01*
X144716070Y-83342625D01*
X144724406Y-83438495D01*
X144735147Y-83532666D01*
X144748262Y-83625158D01*
X144763723Y-83715989D01*
X144781498Y-83805178D01*
X144801560Y-83892745D01*
X144823878Y-83978707D01*
X144848423Y-84063085D01*
X144874588Y-84143738D01*
X144903431Y-84223822D01*
X144934989Y-84303340D01*
X144969294Y-84382294D01*
X145006382Y-84460686D01*
X145046287Y-84538518D01*
X145089044Y-84615793D01*
X145134687Y-84692512D01*
X145183250Y-84768677D01*
X145234769Y-84844291D01*
X145289277Y-84919356D01*
X145346809Y-84993874D01*
X145407400Y-85067847D01*
X145471084Y-85141277D01*
X145537896Y-85214167D01*
X145607870Y-85286518D01*
X145762604Y-85435786D01*
X145928311Y-85582809D01*
X146105142Y-85727508D01*
X146293249Y-85869810D01*
X146492786Y-86009636D01*
X146703903Y-86146913D01*
X146926753Y-86281563D01*
X147161489Y-86413511D01*
X147408236Y-86543515D01*
X147660012Y-86668604D01*
X147916837Y-86788760D01*
X148178726Y-86903965D01*
X148445699Y-87014204D01*
X148717771Y-87119458D01*
X148994960Y-87219712D01*
X149277283Y-87314947D01*
X149562022Y-87404535D01*
X149843260Y-87486891D01*
X150121007Y-87562051D01*
X150395276Y-87630049D01*
X150666079Y-87690923D01*
X150933427Y-87744706D01*
X151197332Y-87791436D01*
X151457806Y-87831148D01*
X151708891Y-87862579D01*
X151948983Y-87885101D01*
X152178225Y-87898956D01*
X152396763Y-87904388D01*
X152604740Y-87901641D01*
X152704814Y-87897277D01*
X152802301Y-87890958D01*
X152897220Y-87882717D01*
X152989589Y-87872582D01*
X153079427Y-87860586D01*
X153166750Y-87846757D01*
X153250786Y-87831292D01*
X153332218Y-87814136D01*
X153411088Y-87795326D01*
X153487441Y-87774895D01*
X153561320Y-87752878D01*
X153632768Y-87729310D01*
X153701828Y-87704225D01*
X153768545Y-87677657D01*
X153832960Y-87649641D01*
X153895119Y-87620212D01*
X153955064Y-87589404D01*
X154012838Y-87557251D01*
X154068485Y-87523788D01*
X154122049Y-87489050D01*
X154173573Y-87453071D01*
X154223099Y-87415885D01*
X154276944Y-87372844D01*
X154329636Y-87328443D01*
X154381175Y-87282670D01*
X154431562Y-87235510D01*
X154480797Y-87186950D01*
X154528880Y-87136977D01*
X154575813Y-87085576D01*
X154621595Y-87032735D01*
X154666226Y-86978440D01*
X154709708Y-86922677D01*
X154752040Y-86865433D01*
X154793222Y-86806694D01*
X154833256Y-86746447D01*
X154872142Y-86684677D01*
X154909879Y-86621372D01*
X154946469Y-86556518D01*
X155020836Y-86415019D01*
X155090529Y-86269993D01*
X155155525Y-86121398D01*
X155215799Y-85969193D01*
X155271330Y-85813335D01*
X155322093Y-85653783D01*
X155368066Y-85490495D01*
X155409226Y-85323429D01*
X155445759Y-85152311D01*
X155476982Y-84981253D01*
X155502906Y-84810243D01*
X155523542Y-84639265D01*
X155538901Y-84468305D01*
X155548994Y-84297351D01*
X155553831Y-84126387D01*
X155553424Y-83955400D01*
X155547741Y-83787545D01*
X155536681Y-83623180D01*
X155520301Y-83462260D01*
X155498655Y-83304740D01*
X155471801Y-83150574D01*
X155439794Y-82999719D01*
X155402689Y-82852128D01*
X155360543Y-82707757D01*
X155337550Y-82636548D01*
X155313470Y-82566483D01*
X155288309Y-82497554D01*
X155262070Y-82429752D01*
X155234760Y-82363069D01*
X155206383Y-82297496D01*
X155176943Y-82233024D01*
X155146445Y-82169644D01*
X155114896Y-82107348D01*
X155082298Y-82046127D01*
X155048657Y-81985972D01*
X155013978Y-81926875D01*
X154978266Y-81868826D01*
X154941526Y-81811817D01*
X154903762Y-81755840D01*
X154864979Y-81700885D01*
X154823537Y-81644519D01*
X154781362Y-81589220D01*
X154738455Y-81534984D01*
X154694814Y-81481805D01*
X154650441Y-81429679D01*
X154605334Y-81378600D01*
X154559493Y-81328564D01*
X154512917Y-81279564D01*
X154465607Y-81231597D01*
X154417561Y-81184656D01*
X154368780Y-81138737D01*
X154319263Y-81093836D01*
X154269009Y-81049945D01*
X154218018Y-81007062D01*
X154166291Y-80965180D01*
X154113825Y-80924294D01*
X154002880Y-80842131D01*
X153890997Y-80764455D01*
X153778172Y-80691227D01*
X153664398Y-80622407D01*
X153549669Y-80557958D01*
X153433979Y-80497838D01*
X153317322Y-80442009D01*
X153199691Y-80390431D01*
X153150339Y-80370650D01*
X153099501Y-80352031D01*
X153047152Y-80334607D01*
X152993266Y-80318411D01*
X152937817Y-80303478D01*
X152880780Y-80289840D01*
X152822129Y-80277531D01*
X152761838Y-80266585D01*
X152699883Y-80257036D01*
X152636237Y-80248917D01*
X152570874Y-80242262D01*
X152503770Y-80237104D01*
X152434899Y-80233477D01*
X152364235Y-80231414D01*
X152291752Y-80230950D01*
X152217425Y-80232117D01*
X152143887Y-80234896D01*
X152071150Y-80239305D01*
X151999204Y-80245338D01*
X151928039Y-80252988D01*
X151857644Y-80262251D01*
X151788007Y-80273119D01*
X151719119Y-80285588D01*
X151650969Y-80299650D01*
X151583546Y-80315301D01*
X151516839Y-80332533D01*
X151450838Y-80351341D01*
X151385532Y-80371719D01*
X151320911Y-80393662D01*
X151256963Y-80417162D01*
X151193679Y-80442215D01*
X151131047Y-80468813D01*
X151067769Y-80497491D01*
X151007852Y-80526389D01*
X150951212Y-80555467D01*
X150897759Y-80584682D01*
X150847408Y-80613993D01*
X150800072Y-80643357D01*
X150755664Y-80672733D01*
X150714096Y-80702078D01*
X150675282Y-80731351D01*
X150639136Y-80760509D01*
X150605569Y-80789511D01*
X150574496Y-80818315D01*
X150545829Y-80846879D01*
X150519482Y-80875161D01*
X150495367Y-80903118D01*
X150473398Y-80930709D01*
X150453337Y-80958101D01*
X150433642Y-80987370D01*
X150414377Y-81018584D01*
X150395603Y-81051814D01*
X150377383Y-81087127D01*
X150359781Y-81124594D01*
X150342857Y-81164283D01*
X150326676Y-81206263D01*
X150311299Y-81250604D01*
X150296790Y-81297374D01*
X150283210Y-81346643D01*
X150270623Y-81398480D01*
X150259091Y-81452954D01*
X150248676Y-81510133D01*
X150239441Y-81570088D01*
X150231450Y-81632887D01*
X150227341Y-81677107D01*
X150225181Y-81721389D01*
X150225046Y-81765775D01*
X150227010Y-81810305D01*
X150231149Y-81855020D01*
X150237540Y-81899961D01*
X150246257Y-81945170D01*
X150257377Y-81990686D01*
X150270974Y-82036552D01*
X150287125Y-82082807D01*
X150305905Y-82129492D01*
X150327390Y-82176649D01*
X150351654Y-82224319D01*
X150378775Y-82272541D01*
X150408827Y-82321358D01*
X150441886Y-82370810D01*
X150465102Y-82402479D01*
X150490384Y-82433319D01*
X150517935Y-82463217D01*
X150547957Y-82492063D01*
X150580651Y-82519747D01*
X150616220Y-82546157D01*
X150654865Y-82571183D01*
X150696789Y-82594714D01*
X150742193Y-82616638D01*
X150791279Y-82636845D01*
X150844250Y-82655225D01*
X150901307Y-82671666D01*
X150962652Y-82686058D01*
X151028488Y-82698289D01*
X151099015Y-82708249D01*
X151174437Y-82715826D01*
X151300965Y-82726751D01*
X151422766Y-82738730D01*
X151539532Y-82751825D01*
X151650953Y-82766097D01*
X151692233Y-82761047D01*
X151733601Y-82757602D01*
X151775024Y-82755764D01*
X151816468Y-82755533D01*
X151857901Y-82756908D01*
X151899288Y-82759891D01*
X151940598Y-82764481D01*
X151981797Y-82770678D01*
X152022852Y-82778483D01*
X152063730Y-82787896D01*
X152104397Y-82798917D01*
X152144820Y-82811546D01*
X152184967Y-82825783D01*
X152224804Y-82841630D01*
X152264297Y-82859084D01*
X152303415Y-82878148D01*
X152352706Y-82904823D01*
X152400190Y-82933560D01*
X152445826Y-82964304D01*
X152489572Y-82996996D01*
X152531385Y-83031580D01*
X152571224Y-83067997D01*
X152609046Y-83106192D01*
X152644810Y-83146105D01*
X152678473Y-83187681D01*
X152709993Y-83230861D01*
X152739329Y-83275588D01*
X152766438Y-83321805D01*
X152791277Y-83369455D01*
X152813806Y-83418479D01*
X152833982Y-83468822D01*
X152851763Y-83520424D01*
X152861667Y-83551958D01*
X152870590Y-83583643D01*
X152878535Y-83615463D01*
X152885500Y-83647404D01*
X152891486Y-83679448D01*
X152896493Y-83711580D01*
X152900522Y-83743785D01*
X152903572Y-83776045D01*
X152905644Y-83808346D01*
X152906738Y-83840671D01*
X152906855Y-83873005D01*
X152905993Y-83905332D01*
X152904154Y-83937635D01*
X152901338Y-83969899D01*
X152897544Y-84002108D01*
X152892774Y-84034246D01*
X152887335Y-84066302D01*
X152880943Y-84098117D01*
X152873603Y-84129676D01*
X152865319Y-84160966D01*
X152856098Y-84191971D01*
X152845944Y-84222678D01*
X152834863Y-84253070D01*
X152822858Y-84283135D01*
X152809935Y-84312857D01*
X152796100Y-84342222D01*
X152781357Y-84371216D01*
X152765712Y-84399823D01*
X152749169Y-84428029D01*
X152731733Y-84455820D01*
X152713410Y-84483182D01*
X152694204Y-84510099D01*
X152674503Y-84536640D01*
X152654106Y-84562480D01*
X152633023Y-84587609D01*
X152611270Y-84612019D01*
X152588857Y-84635699D01*
X152565798Y-84658641D01*
X152542106Y-84680834D01*
X152517793Y-84702269D01*
X152492873Y-84722936D01*
X152467358Y-84742827D01*
X152441260Y-84761931D01*
X152414594Y-84780240D01*
X152387370Y-84797743D01*
X152359603Y-84814431D01*
X152331305Y-84830295D01*
X152302489Y-84845325D01*
X152273377Y-84859754D01*
X152243896Y-84873274D01*
X152214061Y-84885878D01*
X152183887Y-84897562D01*
X152153390Y-84908321D01*
X152122586Y-84918151D01*
X152091488Y-84927047D01*
X152060114Y-84935003D01*
X152028477Y-84942015D01*
X151996594Y-84948078D01*
X151964479Y-84953187D01*
X151932148Y-84957337D01*
X151899617Y-84960524D01*
X151866900Y-84962743D01*
X151834013Y-84963988D01*
X151800971Y-84964256D01*
X151776904Y-84964139D01*
X151752928Y-84963493D01*
X151729045Y-84962323D01*
X151705258Y-84960634D01*
X151681570Y-84958431D01*
X151657984Y-84955717D01*
X151634504Y-84952498D01*
X151611132Y-84948778D01*
X151591837Y-84947642D01*
X151564715Y-84946346D01*
X151529184Y-84945075D01*
X151484662Y-84944015D01*
X151400878Y-84943108D01*
X151303340Y-84943205D01*
X151191787Y-84944368D01*
X151065959Y-84946660D01*
X150974150Y-84947325D01*
X150882684Y-84945362D01*
X150791570Y-84940786D01*
X150700819Y-84933615D01*
X150610442Y-84923866D01*
X150520449Y-84911553D01*
X150430851Y-84896695D01*
X150341657Y-84879307D01*
X150252879Y-84859407D01*
X150164528Y-84837009D01*
X150076613Y-84812132D01*
X149989145Y-84784791D01*
X149902135Y-84755003D01*
X149815593Y-84722784D01*
X149729530Y-84688151D01*
X149643956Y-84651121D01*
X149556987Y-84610649D01*
X149471755Y-84567909D01*
X149388295Y-84522893D01*
X149306642Y-84475593D01*
X149226831Y-84426000D01*
X149148896Y-84374108D01*
X149072873Y-84319907D01*
X148998796Y-84263391D01*
X148926700Y-84204550D01*
X148856621Y-84143378D01*
X148788592Y-84079866D01*
X148722650Y-84014006D01*
X148658828Y-83945791D01*
X148597162Y-83875212D01*
X148537687Y-83802261D01*
X148480437Y-83726931D01*
X148425614Y-83649420D01*
X148373823Y-83570545D01*
X148325054Y-83490334D01*
X148279300Y-83408817D01*
X148236552Y-83326022D01*
X148196802Y-83241977D01*
X148160040Y-83156711D01*
X148126260Y-83070252D01*
X148095451Y-82982629D01*
X148067606Y-82893870D01*
X148042717Y-82804004D01*
X148020774Y-82713059D01*
X148001770Y-82621063D01*
X147985696Y-82528046D01*
X147972543Y-82434036D01*
X147962304Y-82339060D01*
X147955038Y-82244420D01*
X147950665Y-82149966D01*
X147949164Y-82055711D01*
X147950514Y-81961668D01*
X147954694Y-81867850D01*
X147961683Y-81774269D01*
X147971460Y-81680938D01*
X147984004Y-81587870D01*
X147999295Y-81495077D01*
X148017311Y-81402573D01*
X148038032Y-81310369D01*
X148061436Y-81218479D01*
X148087503Y-81126916D01*
X148116212Y-81035692D01*
X148147542Y-80944819D01*
X148181472Y-80854311D01*
X148215393Y-80769763D01*
X148250868Y-80686088D01*
X148287895Y-80603291D01*
X148326471Y-80521374D01*
X148366593Y-80440343D01*
X148408260Y-80360200D01*
X148451470Y-80280950D01*
X148496220Y-80202596D01*
X148542507Y-80125143D01*
X148590331Y-80048594D01*
X148639687Y-79972953D01*
X148690575Y-79898225D01*
X148742992Y-79824412D01*
X148796935Y-79751519D01*
X148852403Y-79679549D01*
X148909393Y-79608508D01*
X148967262Y-79539131D01*
X149026163Y-79471182D01*
X149086099Y-79404672D01*
X149147073Y-79339617D01*
X149209086Y-79276027D01*
X149272142Y-79213918D01*
X149336243Y-79153301D01*
X149401390Y-79094191D01*
X149467588Y-79036599D01*
X149534838Y-78980541D01*
X149603142Y-78926028D01*
X149672503Y-78873073D01*
X149742924Y-78821691D01*
X149814407Y-78771894D01*
X149886955Y-78723695D01*
X149960569Y-78677107D01*
X150036219Y-78631640D01*
X150112610Y-78588193D01*
X150189736Y-78546778D01*
X150267590Y-78507406D01*
X150346167Y-78470087D01*
X150425458Y-78434833D01*
X150505459Y-78401656D01*
X150586163Y-78370565D01*
X150667563Y-78341572D01*
X150749654Y-78314689D01*
X150832427Y-78289926D01*
X150915878Y-78267295D01*
X151000000Y-78246806D01*
X151084786Y-78228470D01*
X151170231Y-78212300D01*
X151256326Y-78198305D01*
X151340243Y-78186751D01*
X151424406Y-78177098D01*
X151508811Y-78169332D01*
X151593449Y-78163439D01*
X151678314Y-78159404D01*
X151763400Y-78157215D01*
X151934206Y-78158314D01*
X152105811Y-78166625D01*
X152278162Y-78182036D01*
X152451205Y-78204433D01*
X152624884Y-78233706D01*
X152796041Y-78268840D01*
X152966905Y-78309835D01*
X153137469Y-78356625D01*
X153307723Y-78409145D01*
X153477662Y-78467327D01*
X153647277Y-78531105D01*
X153816560Y-78600415D01*
X153985503Y-78675190D01*
X154157187Y-78757494D01*
X154326260Y-78845453D01*
X154492712Y-78939031D01*
X154656536Y-79038192D01*
X154817725Y-79142899D01*
X154976271Y-79253116D01*
X155132165Y-79368806D01*
X155285401Y-79489934D01*
X155363035Y-79554410D01*
X155439370Y-79620242D01*
X155514405Y-79687427D01*
X155588140Y-79755959D01*
X155660576Y-79825835D01*
X155731711Y-79897048D01*
X155801546Y-79969595D01*
X155870081Y-80043471D01*
X155937314Y-80118671D01*
X156003247Y-80195190D01*
X156067879Y-80273024D01*
X156131210Y-80352168D01*
X156193239Y-80432617D01*
X156253967Y-80514367D01*
X156313392Y-80597413D01*
X156371516Y-80681750D01*
X156429412Y-80769269D01*
X156485481Y-80857911D01*
X156592149Y-81038534D01*
X156691557Y-81223562D01*
X156783737Y-81412935D01*
X156868724Y-81606596D01*
X156946551Y-81804486D01*
X157017253Y-82006548D01*
X157080865Y-82212721D01*
X157137122Y-82422203D01*
X157185870Y-82634101D01*
X157227152Y-82848378D01*
X157261012Y-83064994D01*
X157287492Y-83283910D01*
X157306635Y-83505089D01*
X157318487Y-83728490D01*
X157323088Y-83954076D01*
X157320604Y-84179822D01*
X157311173Y-84405108D01*
X157294805Y-84629923D01*
X157271513Y-84854255D01*
X157241306Y-85078091D01*
X157204195Y-85301418D01*
X157160192Y-85524224D01*
X157109307Y-85746498D01*
X157050695Y-85969553D01*
X156984973Y-86188833D01*
X156912114Y-86404296D01*
X156832089Y-86615901D01*
X156744871Y-86823605D01*
X156650432Y-87027367D01*
X156548744Y-87227145D01*
X156439778Y-87422897D01*
X156380357Y-87522377D01*
X156318876Y-87619942D01*
X156255334Y-87715579D01*
X156189733Y-87809277D01*
X156122074Y-87901024D01*
X156052358Y-87990808D01*
X155980586Y-88078617D01*
X155906759Y-88164440D01*
X155830878Y-88248265D01*
X155752943Y-88330079D01*
X155672957Y-88409872D01*
X155590919Y-88487631D01*
X155506831Y-88563344D01*
X155420694Y-88637000D01*
X155332508Y-88708587D01*
X155242276Y-88778093D01*
X155145041Y-88848574D01*
X155045647Y-88915773D01*
X154944130Y-88979720D01*
X154840526Y-89040445D01*
X154734871Y-89097977D01*
X154627201Y-89152346D01*
X154517552Y-89203581D01*
X154405960Y-89251712D01*
X154292461Y-89296770D01*
X154177092Y-89338782D01*
X154059887Y-89377780D01*
X153940884Y-89413792D01*
X153820119Y-89446849D01*
X153697626Y-89476979D01*
X153573443Y-89504214D01*
X153447606Y-89528581D01*
X153319762Y-89550095D01*
X153190243Y-89568668D01*
X152926249Y-89597113D01*
X152655761Y-89614154D01*
X152378921Y-89620029D01*
X152095867Y-89614978D01*
X151806738Y-89599238D01*
X151511676Y-89573050D01*
X151210818Y-89536651D01*
X150907671Y-89491235D01*
X150602479Y-89437462D01*
X150295253Y-89375374D01*
X149986002Y-89305010D01*
X149674737Y-89226410D01*
X149361469Y-89139616D01*
X149046206Y-89044667D01*
X148728961Y-88941604D01*
X148412852Y-88831463D01*
X148101493Y-88715442D01*
X147794898Y-88593526D01*
X147493083Y-88465702D01*
X147196066Y-88331956D01*
X146903860Y-88192274D01*
X146616484Y-88046642D01*
X146333952Y-87895046D01*
X146193191Y-87815990D01*
X146054931Y-87735534D01*
X145919189Y-87653668D01*
X145785982Y-87570383D01*
X145655328Y-87485672D01*
X145527246Y-87399525D01*
X145401754Y-87311933D01*
X145278868Y-87222888D01*
X145158608Y-87132381D01*
X145040991Y-87040404D01*
X144926034Y-86946947D01*
X144813757Y-86852002D01*
X144704176Y-86755560D01*
X144597309Y-86657612D01*
X144493175Y-86558151D01*
X144391791Y-86457166D01*
X144290574Y-86351451D01*
X144192946Y-86243904D01*
X144098937Y-86134530D01*
X144008577Y-86023328D01*
X143921897Y-85910302D01*
X143838926Y-85795454D01*
X143759696Y-85678784D01*
X143684236Y-85560295D01*
X143612577Y-85439990D01*
X143544749Y-85317869D01*
X143480782Y-85193936D01*
X143420707Y-85068191D01*
X143364553Y-84940637D01*
X143312351Y-84811276D01*
X143264132Y-84680109D01*
X143219926Y-84547140D01*
X143180406Y-84415224D01*
X143144589Y-84282119D01*
X143112447Y-84147842D01*
X143083956Y-84012411D01*
X143059088Y-83875843D01*
X143037818Y-83738155D01*
X143020120Y-83599364D01*
X143005967Y-83459488D01*
X142995334Y-83318543D01*
X142988194Y-83176548D01*
X142984521Y-83033519D01*
X142984290Y-82889474D01*
X142987473Y-82744429D01*
X142994046Y-82598403D01*
X143003982Y-82451412D01*
X143017255Y-82303474D01*
X143051652Y-82012239D01*
X143096385Y-81718977D01*
X143151369Y-81423709D01*
X143216516Y-81126457D01*
X143291740Y-80827240D01*
X143376954Y-80526081D01*
X143472072Y-80222999D01*
X143577007Y-79918017D01*
X143690784Y-79613303D01*
X143812696Y-79310343D01*
X143942723Y-79009137D01*
X144080840Y-78709688D01*
X144227026Y-78411999D01*
X144381260Y-78116073D01*
X144543517Y-77821912D01*
X144713776Y-77529518D01*
X144892849Y-77238578D01*
X145078969Y-76953132D01*
X145272132Y-76673189D01*
X145472333Y-76398759D01*
X145679568Y-76129853D01*
X145893831Y-75866480D01*
X146115118Y-75608651D01*
X146343424Y-75356375D01*
X146462779Y-75230155D01*
X146584080Y-75106321D01*
X146707326Y-74984874D01*
X146832513Y-74865817D01*
X146959640Y-74749152D01*
X147088703Y-74634881D01*
X147219700Y-74523006D01*
X147352629Y-74413530D01*
X147487487Y-74306454D01*
X147624271Y-74201782D01*
X147762980Y-74099515D01*
X147903610Y-73999655D01*
X148046158Y-73902205D01*
X148190623Y-73807166D01*
X148337002Y-73714542D01*
X148485292Y-73624334D01*
X148790698Y-73450451D01*
X149102701Y-73289069D01*
X149421248Y-73140168D01*
X149746291Y-73003724D01*
X150077779Y-72879716D01*
X150415662Y-72768122D01*
X150759888Y-72668920D01*
X151110408Y-72582087D01*
X151462395Y-72508134D01*
X151815572Y-72446531D01*
X152169915Y-72397282D01*
X152525400Y-72360386D01*
X152882000Y-72335846D01*
X153239692Y-72323662D01*
X153598450Y-72323836D01*
X153958251Y-72336368D01*
X154316367Y-72361183D01*
X154669760Y-72398227D01*
X155018380Y-72447551D01*
X155362180Y-72509206D01*
X155701113Y-72583242D01*
X156035129Y-72669712D01*
X156364181Y-72768665D01*
X156688222Y-72880153D01*
X156851401Y-72942190D01*
X157012269Y-73007898D01*
X157170817Y-73077273D01*
X157327035Y-73150314D01*
X157480913Y-73227018D01*
X157632441Y-73307383D01*
X157781608Y-73391406D01*
X157928406Y-73479084D01*
X158072824Y-73570415D01*
X158214853Y-73665397D01*
X158354482Y-73764028D01*
X158491702Y-73866303D01*
X158626503Y-73972222D01*
X158758875Y-74081782D01*
X158888807Y-74194980D01*
X159016291Y-74311814D01*
X159145052Y-74436807D01*
X159270008Y-74566196D01*
X159391185Y-74699939D01*
X159508608Y-74837990D01*
X159622301Y-74980309D01*
X159732291Y-75126850D01*
X159838601Y-75277571D01*
X159941257Y-75432428D01*
X160040284Y-75591379D01*
X160135707Y-75754380D01*
X160227550Y-75921387D01*
X160315839Y-76092358D01*
X160400599Y-76267249D01*
X160481855Y-76446017D01*
X160559631Y-76628619D01*
X160633954Y-76815010D01*
X160772266Y-77201352D01*
X160895033Y-77602145D01*
X161002449Y-78017225D01*
X161094708Y-78446426D01*
X161172004Y-78889583D01*
X161234530Y-79346530D01*
X161282480Y-79817102D01*
X161316048Y-80301134D01*
X161336349Y-80790470D01*
X161344780Y-81283866D01*
X161341368Y-81781309D01*
X161326135Y-82282790D01*
X161299109Y-82788296D01*
X161260312Y-83297817D01*
X161209771Y-83811342D01*
X161147509Y-84328859D01*
X161075528Y-84841748D01*
X160995102Y-85346347D01*
X160906209Y-85842636D01*
X160808825Y-86330597D01*
X160702927Y-86810211D01*
X160588491Y-87281460D01*
X160465495Y-87744325D01*
X160333914Y-88198787D01*
X160191738Y-88645813D01*
X160039463Y-89077733D01*
X159876962Y-89494373D01*
X159791837Y-89696909D01*
X159704108Y-89895560D01*
X159613759Y-90090304D01*
X159520774Y-90281120D01*
X159425137Y-90467985D01*
X159326833Y-90650879D01*
X159225845Y-90829779D01*
X159122157Y-91004664D01*
X159015755Y-91175512D01*
X158906621Y-91342302D01*
X158790495Y-91510008D01*
X158670326Y-91672841D01*
X158546119Y-91830775D01*
X158417880Y-91983788D01*
X158285613Y-92131853D01*
X158149325Y-92274947D01*
X158009022Y-92413045D01*
X157864708Y-92546122D01*
X157716390Y-92674156D01*
X157564073Y-92797120D01*
X157407764Y-92914990D01*
X157247466Y-93027743D01*
X157083187Y-93135353D01*
X156914931Y-93237797D01*
X156742705Y-93335049D01*
X156566514Y-93427085D01*
X156390304Y-93512376D01*
X156210843Y-93593097D01*
X156028155Y-93669275D01*
X155842267Y-93740939D01*
X155653204Y-93808116D01*
X155460991Y-93870834D01*
X155265655Y-93929122D01*
X155067220Y-93983007D01*
X154865713Y-94032517D01*
X154661158Y-94077681D01*
X154453582Y-94118525D01*
X154243010Y-94155078D01*
X154029467Y-94187367D01*
X153812980Y-94215421D01*
X153371274Y-94258935D01*
X152929456Y-94287454D01*
X152482996Y-94303879D01*
X152031916Y-94308246D01*
X151576236Y-94300590D01*
X151115977Y-94280948D01*
X150651162Y-94249355D01*
X150181811Y-94205846D01*
X149707946Y-94150457D01*
X149237178Y-94085175D01*
X148771252Y-94011160D01*
X148310178Y-93928398D01*
X147853967Y-93836876D01*
X147402628Y-93736579D01*
X146956173Y-93627493D01*
X146514611Y-93509605D01*
X146077955Y-93382900D01*
X145646743Y-93246707D01*
X145226245Y-93101714D01*
X144816525Y-92947867D01*
X144417646Y-92785108D01*
X144029674Y-92613382D01*
X143652672Y-92432633D01*
X143286704Y-92242805D01*
X142931834Y-92043844D01*
X142754536Y-91937846D01*
X142580608Y-91828409D01*
X142410063Y-91715536D01*
X142242910Y-91599226D01*
X142079160Y-91479479D01*
X141918824Y-91356297D01*
X141761912Y-91229680D01*
X141608435Y-91099628D01*
X141458403Y-90966143D01*
X141311827Y-90829224D01*
X141168717Y-90688872D01*
X141029085Y-90545089D01*
X140892941Y-90397873D01*
X140760294Y-90247227D01*
X140631157Y-90093150D01*
X140505539Y-89935644D01*
X140384254Y-89776054D01*
X140266108Y-89613159D01*
X140151089Y-89446973D01*
X140039189Y-89277511D01*
X139930396Y-89104788D01*
X139824699Y-88928819D01*
X139722089Y-88749619D01*
X139622555Y-88567202D01*
X139432673Y-88192780D01*
X139254970Y-87805672D01*
X139089362Y-87405997D01*
X138935766Y-86993875D01*
X138795869Y-86584686D01*
X138663522Y-86171411D01*
X138538718Y-85754060D01*
X138421449Y-85332639D01*
X138311709Y-84907156D01*
X138209491Y-84477619D01*
X138114788Y-84044036D01*
X138027593Y-83606414D01*
X137874018Y-82755598D01*
X137741470Y-81931972D01*
X137683110Y-81530373D01*
X137630041Y-81135592D01*
X137582274Y-80747636D01*
X137539820Y-80366512D01*
X137503256Y-79993893D01*
X137473327Y-79632665D01*
X137450114Y-79282911D01*
X137433696Y-78944716D01*
X137424152Y-78618162D01*
X137421562Y-78303332D01*
X137426006Y-78000312D01*
X137437563Y-77709183D01*
X137458167Y-77420071D01*
X137472326Y-77277951D01*
X137489094Y-77137487D01*
X137508499Y-76998703D01*
X137530570Y-76861621D01*
X137555335Y-76726268D01*
X137582822Y-76592664D01*
X137613060Y-76460836D01*
X137646077Y-76330805D01*
X137681902Y-76202596D01*
X137720563Y-76076233D01*
X137762088Y-75951739D01*
X137806506Y-75829139D01*
X137853846Y-75708455D01*
X137904134Y-75589712D01*
X138006961Y-75367143D01*
X138119335Y-75145311D01*
X138241134Y-74924210D01*
X138372234Y-74703832D01*
X138512511Y-74484170D01*
X138661842Y-74265217D01*
X138820104Y-74046967D01*
X138987174Y-73829412D01*
X139155025Y-73619549D01*
X139328309Y-73408405D01*
X139507012Y-73195979D01*
X139691118Y-72982273D01*
X139880615Y-72767285D01*
X140075488Y-72551016D01*
X140275722Y-72333466D01*
X140481303Y-72114634D01*
X140689839Y-71896949D01*
X140899196Y-71682580D01*
X141109376Y-71471532D01*
X141320378Y-71263806D01*
X141532204Y-71059405D01*
X141744856Y-70858334D01*
X141958333Y-70660593D01*
X142172639Y-70466188D01*
X142389387Y-70274691D01*
X142604816Y-70090534D01*
X142818927Y-69913771D01*
X142898526Y-69850436D01*
X150188230Y-69850436D01*
X150189397Y-69850851D01*
X150190273Y-69851152D01*
X150190851Y-69851343D01*
X150191123Y-69851423D01*
X150191142Y-69851427D01*
X150191141Y-69851423D01*
X150191079Y-69851395D01*
X150190714Y-69851260D01*
X150190018Y-69851020D01*
X150188985Y-69850674D01*
X150188711Y-69850585D01*
X150188465Y-69850507D01*
X150188230Y-69850436D01*
X142898526Y-69850436D01*
X143031721Y-69744457D01*
X143243197Y-69582646D01*
X143453357Y-69428393D01*
X143662201Y-69281752D01*
X143869729Y-69142778D01*
X144076264Y-69011554D01*
X144281533Y-68888638D01*
X144485510Y-68774248D01*
X144688168Y-68668599D01*
X144889480Y-68571908D01*
X145089420Y-68484390D01*
X145287961Y-68406262D01*
X145386699Y-68370787D01*
X145485077Y-68337741D01*
X145667728Y-68281047D01*
X145849381Y-68229728D01*
X146030012Y-68183866D01*
X146209596Y-68143542D01*
X146388111Y-68108838D01*
X146565533Y-68079838D01*
X146741838Y-68056621D01*
X146917001Y-68039272D01*
X147074835Y-68027276D01*
X147231636Y-68017396D01*
X147387400Y-68009638D01*
X147542122Y-68004011D01*
X147695800Y-68000524D01*
X147848427Y-67999184D01*
X148000000Y-68000000D01*
G37*
%LPC*%
D11*
%TO.C,SW6*%
X200000000Y-78600000D03*
X200000000Y-76300000D03*
%TD*%
D12*
%TO.C,H5*%
X198000000Y-125000000D03*
%TD*%
%TO.C,H6*%
X98000000Y-125000000D03*
%TD*%
D11*
%TO.C,SW7*%
X200000000Y-92300000D03*
X200000000Y-90000000D03*
%TD*%
D12*
%TO.C,H3*%
X98000000Y-64000000D03*
%TD*%
D13*
%TO.C,USB1*%
X94384549Y-110640000D03*
D14*
X98594549Y-110640000D03*
D13*
X94384549Y-102000000D03*
D14*
X98594549Y-102000000D03*
D15*
X98064549Y-109210000D03*
X98064549Y-103430000D03*
%TD*%
D12*
%TO.C,H4*%
X198000000Y-64000000D03*
%TD*%
D11*
%TO.C,SW5*%
X110032277Y-61709046D03*
X107732277Y-61709046D03*
%TD*%
D16*
%TO.C,CN2*%
X97874544Y-115404078D03*
X100924544Y-121404078D03*
X100924544Y-116454078D03*
X104124544Y-115974078D03*
X104124544Y-121404078D03*
X94824544Y-116274078D03*
X94824544Y-121404078D03*
D17*
X102124544Y-118664078D03*
X95124544Y-118664078D03*
%TD*%
D18*
%TO.C,Card1*%
X192050000Y-79000000D03*
X184050000Y-79000000D03*
%TD*%
%LPD*%
M02*
