%TF.GenerationSoftware,KiCad,Pcbnew,7.0.7*%
%TF.CreationDate,2023-10-03T15:02:23+02:00*%
%TF.ProjectId,Untitled,556e7469-746c-4656-942e-6b696361645f,rev?*%
%TF.SameCoordinates,Original*%
%TF.FileFunction,Legend,Bot*%
%TF.FilePolarity,Positive*%
%FSLAX46Y46*%
G04 Gerber Fmt 4.6, Leading zero omitted, Abs format (unit mm)*
G04 Created by KiCad (PCBNEW 7.0.7) date 2023-10-03 15:02:23*
%MOMM*%
%LPD*%
G01*
G04 APERTURE LIST*
%ADD10C,0.152400*%
%ADD11C,0.000000*%
%ADD12C,5.700000*%
%ADD13C,1.200000*%
%ADD14O,2.000000X1.200000*%
%ADD15O,1.800000X1.200000*%
%ADD16C,0.700000*%
%ADD17O,2.000000X1.000000*%
%ADD18C,1.500000*%
G04 APERTURE END LIST*
D10*
X109435279Y-100466851D02*
X109319165Y-100505556D01*
X109319165Y-100505556D02*
X109280460Y-100544260D01*
X109280460Y-100544260D02*
X109241756Y-100621670D01*
X109241756Y-100621670D02*
X109241756Y-100737784D01*
X109241756Y-100737784D02*
X109280460Y-100815194D01*
X109280460Y-100815194D02*
X109319165Y-100853899D01*
X109319165Y-100853899D02*
X109396575Y-100892603D01*
X109396575Y-100892603D02*
X109706213Y-100892603D01*
X109706213Y-100892603D02*
X109706213Y-100079803D01*
X109706213Y-100079803D02*
X109435279Y-100079803D01*
X109435279Y-100079803D02*
X109357870Y-100118508D01*
X109357870Y-100118508D02*
X109319165Y-100157213D01*
X109319165Y-100157213D02*
X109280460Y-100234622D01*
X109280460Y-100234622D02*
X109280460Y-100312032D01*
X109280460Y-100312032D02*
X109319165Y-100389441D01*
X109319165Y-100389441D02*
X109357870Y-100428146D01*
X109357870Y-100428146D02*
X109435279Y-100466851D01*
X109435279Y-100466851D02*
X109706213Y-100466851D01*
X108893413Y-100466851D02*
X108622479Y-100466851D01*
X108506365Y-100892603D02*
X108893413Y-100892603D01*
X108893413Y-100892603D02*
X108893413Y-100079803D01*
X108893413Y-100079803D02*
X108506365Y-100079803D01*
X108274137Y-100079803D02*
X107809680Y-100079803D01*
X108041908Y-100892603D02*
X108041908Y-100079803D01*
X107577451Y-100660375D02*
X107190404Y-100660375D01*
X107654861Y-100892603D02*
X107383928Y-100079803D01*
X107383928Y-100079803D02*
X107112994Y-100892603D01*
D11*
G36*
X114852085Y-114730373D02*
G01*
X113412487Y-115500839D01*
X108253112Y-112061256D01*
X108253112Y-111290787D01*
X110436187Y-111290787D01*
X113000000Y-113000000D01*
X113000000Y-109581577D01*
X110436187Y-111290787D01*
X108253112Y-111290787D01*
X108253112Y-110520321D01*
X113412487Y-107080738D01*
X114852085Y-107851204D01*
X114852085Y-109581577D01*
X114852085Y-114730373D01*
G37*
G36*
X176801920Y-107128864D02*
G01*
X175000000Y-109000000D01*
X179701832Y-109000000D01*
X179701832Y-110852085D01*
X175000000Y-110852085D01*
X176801920Y-112723217D01*
X175467810Y-114008034D01*
X171537055Y-109926041D01*
X175467810Y-105844051D01*
X176801920Y-107128864D01*
G37*
G36*
X127948959Y-115391830D02*
G01*
X120011459Y-115391830D01*
X120011459Y-113539745D01*
X121863540Y-113539745D01*
X126096874Y-113539745D01*
X126096874Y-109306412D01*
X121863540Y-109306412D01*
X121863540Y-113539745D01*
X120011459Y-113539745D01*
X120011459Y-107454330D01*
X127948959Y-107454330D01*
X127948959Y-109306412D01*
X127948959Y-115391830D01*
G37*
G36*
X194481191Y-109793751D02*
G01*
X190550437Y-113875740D01*
X189216354Y-112590927D01*
X191018245Y-110719791D01*
X186316414Y-110719791D01*
X186316414Y-108867710D01*
X191018245Y-108867710D01*
X189216354Y-106996574D01*
X190550437Y-105711761D01*
X194481191Y-109793751D01*
G37*
G36*
X113630199Y-94567672D02*
G01*
X110190616Y-94567672D01*
X110190616Y-80412463D01*
X113630199Y-80412463D01*
X113630199Y-94567672D01*
G37*
G36*
X140390655Y-60969305D02*
G01*
X140687039Y-60980357D01*
X140977716Y-60998590D01*
X141262715Y-61023848D01*
X141815797Y-61094828D01*
X142346517Y-61192064D01*
X142855110Y-61314324D01*
X143341810Y-61460379D01*
X143806850Y-61628994D01*
X144250463Y-61818939D01*
X144672884Y-62028982D01*
X145074346Y-62257891D01*
X145455083Y-62504434D01*
X145815329Y-62767380D01*
X146155317Y-63045497D01*
X146475281Y-63337553D01*
X146775455Y-63642316D01*
X147056072Y-63958555D01*
X147306873Y-64271214D01*
X147538548Y-64589751D01*
X147751645Y-64912848D01*
X147946713Y-65239186D01*
X148124301Y-65567446D01*
X148284959Y-65896311D01*
X148429235Y-66224462D01*
X148557680Y-66550579D01*
X148670842Y-66873344D01*
X148769270Y-67191439D01*
X148853514Y-67503545D01*
X148924122Y-67808344D01*
X148981645Y-68104517D01*
X149026630Y-68390744D01*
X149059628Y-68665709D01*
X149081188Y-68928091D01*
X149082579Y-68954890D01*
X149083572Y-68981706D01*
X149084167Y-69008536D01*
X149084365Y-69035380D01*
X149084365Y-88729903D01*
X149083434Y-88992138D01*
X149070820Y-89266568D01*
X149045789Y-89551850D01*
X149007604Y-89846636D01*
X148955528Y-90149579D01*
X148888825Y-90459333D01*
X148806759Y-90774552D01*
X148708592Y-91093890D01*
X148593590Y-91415999D01*
X148461015Y-91739534D01*
X148310130Y-92063149D01*
X148140200Y-92385495D01*
X147950489Y-92705228D01*
X147740259Y-93021001D01*
X147508774Y-93331467D01*
X147255298Y-93635280D01*
X146967914Y-93942298D01*
X146659652Y-94234868D01*
X146330289Y-94512048D01*
X145979602Y-94772896D01*
X145607370Y-95016471D01*
X145213369Y-95241831D01*
X144797377Y-95448034D01*
X144359172Y-95634139D01*
X143898531Y-95799203D01*
X143415231Y-95942284D01*
X142909051Y-96062441D01*
X142379768Y-96158733D01*
X141827159Y-96230216D01*
X141251002Y-96275950D01*
X140651074Y-96294993D01*
X140027153Y-96286403D01*
X139412104Y-96252153D01*
X138820995Y-96194813D01*
X138253545Y-96115233D01*
X137709471Y-96014259D01*
X137188492Y-95892738D01*
X136690327Y-95751520D01*
X136214692Y-95591450D01*
X135761307Y-95413377D01*
X135329889Y-95218149D01*
X134920158Y-95006613D01*
X134531830Y-94779617D01*
X134164625Y-94538008D01*
X133818261Y-94282634D01*
X133492455Y-94014342D01*
X133186927Y-93733981D01*
X132901393Y-93442397D01*
X132643883Y-93150222D01*
X132407328Y-92852424D01*
X132191130Y-92550172D01*
X131994690Y-92244632D01*
X131817409Y-91936974D01*
X131658687Y-91628364D01*
X131517925Y-91319970D01*
X131394525Y-91012960D01*
X131287886Y-90708502D01*
X131197409Y-90407763D01*
X131122496Y-90111912D01*
X131062548Y-89822116D01*
X131016964Y-89539543D01*
X130985146Y-89265360D01*
X130966495Y-89000735D01*
X130960411Y-88746837D01*
X130960411Y-80412463D01*
X130962648Y-80323964D01*
X130969289Y-80236627D01*
X130980225Y-80150559D01*
X130995349Y-80065870D01*
X131014552Y-79982665D01*
X131037725Y-79901055D01*
X131064762Y-79821147D01*
X131095554Y-79743049D01*
X131129994Y-79666869D01*
X131167972Y-79592715D01*
X131209381Y-79520695D01*
X131254113Y-79450918D01*
X131302060Y-79383491D01*
X131353114Y-79318522D01*
X131407167Y-79256120D01*
X131464110Y-79196393D01*
X131523837Y-79139448D01*
X131586238Y-79085393D01*
X131651206Y-79034338D01*
X131718632Y-78986389D01*
X131788409Y-78941655D01*
X131860429Y-78900244D01*
X131934583Y-78862265D01*
X132010764Y-78827824D01*
X132088863Y-78797030D01*
X132168773Y-78769992D01*
X132250386Y-78746816D01*
X132333592Y-78727613D01*
X132418285Y-78712488D01*
X132504356Y-78701551D01*
X132591698Y-78694910D01*
X132680202Y-78692672D01*
X141014575Y-78692672D01*
X141014575Y-82132255D01*
X134399993Y-82132255D01*
X134399993Y-88746837D01*
X134402775Y-88851034D01*
X134411442Y-88964833D01*
X134426481Y-89087406D01*
X134448375Y-89217924D01*
X134477609Y-89355560D01*
X134514669Y-89499485D01*
X134560040Y-89648870D01*
X134614205Y-89802889D01*
X134677651Y-89960711D01*
X134750862Y-90121510D01*
X134834322Y-90284457D01*
X134928517Y-90448724D01*
X135033931Y-90613482D01*
X135151050Y-90777903D01*
X135280358Y-90941159D01*
X135422340Y-91102422D01*
X135571116Y-91254665D01*
X135735703Y-91406522D01*
X135916903Y-91556845D01*
X136115521Y-91704486D01*
X136332359Y-91848296D01*
X136568220Y-91987127D01*
X136823910Y-92119830D01*
X137100230Y-92245257D01*
X137397984Y-92362260D01*
X137717976Y-92469691D01*
X138061010Y-92566400D01*
X138427888Y-92651240D01*
X138819414Y-92723062D01*
X139236392Y-92780718D01*
X139679626Y-92823059D01*
X140149917Y-92848937D01*
X140383952Y-92854845D01*
X140610874Y-92855713D01*
X140830799Y-92851706D01*
X141043839Y-92842990D01*
X141250109Y-92829730D01*
X141449722Y-92812092D01*
X141642792Y-92790242D01*
X141829433Y-92764346D01*
X142009759Y-92734568D01*
X142183884Y-92701074D01*
X142351922Y-92664031D01*
X142513986Y-92623603D01*
X142670190Y-92579956D01*
X142820648Y-92533256D01*
X142965474Y-92483669D01*
X143104783Y-92431359D01*
X143238686Y-92376493D01*
X143367300Y-92319237D01*
X143490737Y-92259754D01*
X143609110Y-92198213D01*
X143831126Y-92069612D01*
X144034256Y-91934761D01*
X144219412Y-91794982D01*
X144387504Y-91651601D01*
X144539445Y-91505943D01*
X144676143Y-91359332D01*
X144810491Y-91197958D01*
X144933200Y-91032431D01*
X145044658Y-90863654D01*
X145145249Y-90692529D01*
X145235361Y-90519957D01*
X145315378Y-90346841D01*
X145385688Y-90174082D01*
X145446676Y-90002582D01*
X145498728Y-89833244D01*
X145542230Y-89666968D01*
X145577568Y-89504658D01*
X145605128Y-89347214D01*
X145625297Y-89195538D01*
X145638460Y-89050533D01*
X145645003Y-88913101D01*
X145645313Y-88784143D01*
X145644947Y-88765490D01*
X145644828Y-88756163D01*
X145644782Y-88746837D01*
X145644782Y-69094620D01*
X145630570Y-68947926D01*
X145609465Y-68792050D01*
X145581174Y-68627936D01*
X145545402Y-68456530D01*
X145501856Y-68278777D01*
X145450240Y-68095620D01*
X145390262Y-67908004D01*
X145321627Y-67716875D01*
X145244040Y-67523177D01*
X145157207Y-67327854D01*
X145060835Y-67131852D01*
X144954629Y-66936114D01*
X144838295Y-66741586D01*
X144711539Y-66549211D01*
X144574066Y-66359936D01*
X144425582Y-66174705D01*
X144272358Y-66001440D01*
X144106352Y-65831428D01*
X143926936Y-65665760D01*
X143733482Y-65505532D01*
X143525362Y-65351837D01*
X143301949Y-65205769D01*
X143062614Y-65068421D01*
X142806730Y-64940887D01*
X142533668Y-64824261D01*
X142242802Y-64719636D01*
X141933502Y-64628107D01*
X141605142Y-64550767D01*
X141257093Y-64488710D01*
X140888727Y-64443029D01*
X140499417Y-64414818D01*
X140088535Y-64405172D01*
X139880173Y-64407612D01*
X139677116Y-64414841D01*
X139479291Y-64426726D01*
X139286623Y-64443130D01*
X139099040Y-64463920D01*
X138916469Y-64488961D01*
X138738836Y-64518118D01*
X138566068Y-64551256D01*
X138398091Y-64588240D01*
X138234833Y-64628936D01*
X138076219Y-64673208D01*
X137922178Y-64720923D01*
X137772634Y-64771945D01*
X137627516Y-64826139D01*
X137486749Y-64883371D01*
X137350261Y-64943506D01*
X137089827Y-65071946D01*
X136845627Y-65210381D01*
X136617076Y-65357732D01*
X136403585Y-65512922D01*
X136204570Y-65674872D01*
X136019443Y-65842503D01*
X135847619Y-66014739D01*
X135688510Y-66190500D01*
X135531475Y-66381658D01*
X135386000Y-66576965D01*
X135251784Y-66775406D01*
X135128526Y-66975966D01*
X135015922Y-67177629D01*
X134913672Y-67379378D01*
X134821472Y-67580199D01*
X134739023Y-67779075D01*
X134666020Y-67974992D01*
X134602164Y-68166932D01*
X134547151Y-68353881D01*
X134500679Y-68534822D01*
X134462447Y-68708741D01*
X134432154Y-68874621D01*
X134409496Y-69031447D01*
X134394172Y-69178202D01*
X130966495Y-68892557D01*
X130993444Y-68630423D01*
X131032066Y-68355880D01*
X131082874Y-68070237D01*
X131146379Y-67774804D01*
X131223092Y-67470892D01*
X131313525Y-67159809D01*
X131418190Y-66842866D01*
X131537598Y-66521372D01*
X131672261Y-66196637D01*
X131822691Y-65869971D01*
X131989398Y-65542683D01*
X132172896Y-65216083D01*
X132373694Y-64891481D01*
X132592306Y-64570187D01*
X132829242Y-64253510D01*
X133085014Y-63942759D01*
X133369930Y-63629017D01*
X133674166Y-63326477D01*
X133997947Y-63036385D01*
X134341499Y-62759990D01*
X134705049Y-62498538D01*
X135088821Y-62253278D01*
X135493043Y-62025455D01*
X135917940Y-61816318D01*
X136363738Y-61627115D01*
X136830663Y-61459091D01*
X137318941Y-61313495D01*
X137828798Y-61191574D01*
X138360460Y-61094576D01*
X138914153Y-61023747D01*
X139490102Y-60980334D01*
X140088535Y-60965587D01*
X140390655Y-60969305D01*
G37*
G36*
X129769783Y-94567672D02*
G01*
X126330203Y-94567672D01*
X126330203Y-91831880D01*
X114937244Y-98937263D01*
X113117176Y-96018909D01*
X119652912Y-91942741D01*
X119458436Y-91886727D01*
X119264429Y-91825121D01*
X119071170Y-91757730D01*
X118878934Y-91684362D01*
X118687998Y-91604825D01*
X118498641Y-91518928D01*
X118311138Y-91426479D01*
X118125768Y-91327285D01*
X117942807Y-91221156D01*
X117762532Y-91107899D01*
X117585220Y-90987322D01*
X117411149Y-90859233D01*
X117240596Y-90723441D01*
X117073837Y-90579754D01*
X116911149Y-90427980D01*
X116752811Y-90267926D01*
X116570643Y-90066596D01*
X116398627Y-89856750D01*
X116236821Y-89638463D01*
X116085281Y-89411807D01*
X115944064Y-89176855D01*
X115813228Y-88933682D01*
X115692829Y-88682361D01*
X115582924Y-88422964D01*
X115483571Y-88155566D01*
X115394825Y-87880239D01*
X115316745Y-87597058D01*
X115249387Y-87306095D01*
X115192807Y-87007423D01*
X115147064Y-86701117D01*
X115112214Y-86387250D01*
X115088314Y-86065894D01*
X115076557Y-85724567D01*
X115076885Y-85694549D01*
X118515919Y-85694549D01*
X118522342Y-85871530D01*
X118536705Y-86066818D01*
X118556834Y-86251344D01*
X118582377Y-86425455D01*
X118612980Y-86589498D01*
X118648290Y-86743819D01*
X118687952Y-86888765D01*
X118731615Y-87024682D01*
X118778923Y-87151918D01*
X118829525Y-87270818D01*
X118883066Y-87381730D01*
X118939192Y-87484999D01*
X118997551Y-87580973D01*
X119057789Y-87669998D01*
X119119553Y-87752421D01*
X119182488Y-87828589D01*
X119246242Y-87898847D01*
X119315633Y-87968451D01*
X119389191Y-88035651D01*
X119466961Y-88100405D01*
X119548988Y-88162670D01*
X119635314Y-88222405D01*
X119725986Y-88279568D01*
X119821046Y-88334117D01*
X119920539Y-88386011D01*
X120024510Y-88435207D01*
X120133001Y-88481664D01*
X120246058Y-88525340D01*
X120363725Y-88566192D01*
X120486046Y-88604180D01*
X120613065Y-88639260D01*
X120744826Y-88671392D01*
X120881374Y-88700534D01*
X121175249Y-88750523D01*
X121477629Y-88785912D01*
X121787017Y-88807474D01*
X122101914Y-88815980D01*
X122420823Y-88812202D01*
X122742247Y-88796915D01*
X123064688Y-88770889D01*
X123386648Y-88734897D01*
X123706630Y-88689713D01*
X124023136Y-88636107D01*
X124334668Y-88574853D01*
X124639730Y-88506724D01*
X124936823Y-88432490D01*
X125224450Y-88352926D01*
X125501114Y-88268803D01*
X125765315Y-88180894D01*
X125800291Y-88169136D01*
X125835361Y-88158167D01*
X125870515Y-88147983D01*
X125905742Y-88138581D01*
X125941031Y-88129955D01*
X125976371Y-88122101D01*
X126047162Y-88108695D01*
X126118027Y-88098327D01*
X126188880Y-88090964D01*
X126259635Y-88086571D01*
X126330203Y-88085115D01*
X126330203Y-81998615D01*
X125723591Y-81984690D01*
X125099687Y-81990266D01*
X124465260Y-82017335D01*
X123827078Y-82067895D01*
X123508695Y-82102606D01*
X123191910Y-82143938D01*
X122877572Y-82192140D01*
X122566525Y-82247461D01*
X122259615Y-82310151D01*
X121957689Y-82380459D01*
X121661593Y-82458633D01*
X121372173Y-82544925D01*
X121185817Y-82606240D01*
X121005868Y-82670211D01*
X120832333Y-82736783D01*
X120665220Y-82805900D01*
X120504536Y-82877507D01*
X120350288Y-82951547D01*
X120202484Y-83027965D01*
X120061131Y-83106705D01*
X119926237Y-83187711D01*
X119797808Y-83270928D01*
X119675853Y-83356299D01*
X119560378Y-83443769D01*
X119451391Y-83533283D01*
X119348900Y-83624783D01*
X119252911Y-83718216D01*
X119163433Y-83813524D01*
X119086653Y-83903059D01*
X119013464Y-83996570D01*
X118944145Y-84094324D01*
X118878976Y-84196583D01*
X118818236Y-84303613D01*
X118762205Y-84415679D01*
X118711162Y-84533045D01*
X118665387Y-84655976D01*
X118625158Y-84784737D01*
X118590756Y-84919592D01*
X118562459Y-85060806D01*
X118540547Y-85208644D01*
X118525301Y-85363371D01*
X118516998Y-85525251D01*
X118515919Y-85694549D01*
X115076885Y-85694549D01*
X115080202Y-85390529D01*
X115098988Y-85063851D01*
X115132651Y-84744602D01*
X115180931Y-84432851D01*
X115243565Y-84128669D01*
X115320290Y-83832124D01*
X115410846Y-83543287D01*
X115514970Y-83262227D01*
X115632400Y-82989014D01*
X115762874Y-82723718D01*
X115906130Y-82466407D01*
X116061906Y-82217153D01*
X116229940Y-81976024D01*
X116409970Y-81743090D01*
X116601734Y-81518420D01*
X116795633Y-81311571D01*
X116997266Y-81114698D01*
X117206103Y-80927550D01*
X117421610Y-80749877D01*
X117643256Y-80581429D01*
X117870510Y-80421953D01*
X118102840Y-80271200D01*
X118339714Y-80128919D01*
X118580599Y-79994859D01*
X118824966Y-79868770D01*
X119072281Y-79750400D01*
X119322013Y-79639500D01*
X119573630Y-79535817D01*
X119826601Y-79439102D01*
X120080393Y-79349105D01*
X120334476Y-79265573D01*
X120844029Y-79116184D01*
X121362404Y-78986535D01*
X121887310Y-78875664D01*
X122416457Y-78782611D01*
X122947555Y-78706414D01*
X123478312Y-78646112D01*
X124006438Y-78600746D01*
X124529644Y-78569352D01*
X125045637Y-78550972D01*
X125552127Y-78544644D01*
X126527439Y-78564299D01*
X127437254Y-78620631D01*
X128263248Y-78705953D01*
X128343295Y-78717852D01*
X128422004Y-78733318D01*
X128499296Y-78752261D01*
X128575093Y-78774593D01*
X128649316Y-78800223D01*
X128721884Y-78829063D01*
X128792721Y-78861022D01*
X128861746Y-78896012D01*
X128928882Y-78933943D01*
X128994048Y-78974726D01*
X129057166Y-79018271D01*
X129118157Y-79064489D01*
X129176942Y-79113291D01*
X129233442Y-79164586D01*
X129287579Y-79218286D01*
X129339273Y-79274302D01*
X129388445Y-79332543D01*
X129435018Y-79392921D01*
X129478910Y-79455345D01*
X129520045Y-79519728D01*
X129558342Y-79585978D01*
X129593723Y-79654007D01*
X129626109Y-79723726D01*
X129655421Y-79795045D01*
X129681580Y-79867874D01*
X129704507Y-79942124D01*
X129724123Y-80017706D01*
X129740350Y-80094531D01*
X129753108Y-80172508D01*
X129762319Y-80251549D01*
X129767904Y-80331564D01*
X129769783Y-80412463D01*
X129769783Y-88085115D01*
X129769783Y-94567672D01*
G37*
G36*
X155038547Y-94567672D02*
G01*
X151598964Y-94567672D01*
X151598964Y-80412463D01*
X155038547Y-80412463D01*
X155038547Y-94567672D01*
G37*
G36*
X181798996Y-60969303D02*
G01*
X182095375Y-60980355D01*
X182386047Y-60998588D01*
X182671041Y-61023846D01*
X183224111Y-61094826D01*
X183754821Y-61192062D01*
X184263403Y-61314322D01*
X184750091Y-61460377D01*
X185215120Y-61628992D01*
X185658723Y-61818937D01*
X186081134Y-62028980D01*
X186482587Y-62257889D01*
X186863316Y-62504433D01*
X187223555Y-62767379D01*
X187563537Y-63045496D01*
X187883497Y-63337552D01*
X188183667Y-63642316D01*
X188464283Y-63958555D01*
X188715105Y-64271213D01*
X188946799Y-64589750D01*
X189159914Y-64912845D01*
X189354999Y-65239182D01*
X189532602Y-65567441D01*
X189693272Y-65896304D01*
X189837559Y-66224453D01*
X189966009Y-66550569D01*
X190079173Y-66873333D01*
X190177599Y-67191428D01*
X190261835Y-67503534D01*
X190332430Y-67808333D01*
X190389934Y-68104507D01*
X190434893Y-68390737D01*
X190467858Y-68665704D01*
X190489377Y-68928091D01*
X190490841Y-68954890D01*
X190491888Y-68981706D01*
X190492516Y-69008537D01*
X190492726Y-69035380D01*
X190492726Y-88729903D01*
X190491796Y-88992137D01*
X190479185Y-89266568D01*
X190454155Y-89551850D01*
X190415969Y-89846636D01*
X190363891Y-90149579D01*
X190297185Y-90459333D01*
X190215113Y-90774552D01*
X190116939Y-91093890D01*
X190001927Y-91415999D01*
X189869339Y-91739534D01*
X189718439Y-92063149D01*
X189548491Y-92385495D01*
X189358757Y-92705228D01*
X189148502Y-93021001D01*
X188916989Y-93331467D01*
X188663480Y-93635280D01*
X188376100Y-93942298D01*
X188067845Y-94234868D01*
X187738492Y-94512048D01*
X187387818Y-94772896D01*
X187015599Y-95016471D01*
X186621614Y-95241831D01*
X186205638Y-95448034D01*
X185767449Y-95634139D01*
X185306824Y-95799203D01*
X184823540Y-95942284D01*
X184317373Y-96062441D01*
X183788101Y-96158733D01*
X183235500Y-96230216D01*
X182659348Y-96275950D01*
X182059422Y-96294993D01*
X181435498Y-96286403D01*
X180820418Y-96252153D01*
X180229283Y-96194813D01*
X179661811Y-96115233D01*
X179117721Y-96014259D01*
X178596730Y-95892738D01*
X178098556Y-95751520D01*
X177622917Y-95591450D01*
X177169531Y-95413378D01*
X176738117Y-95218149D01*
X176328391Y-95006613D01*
X175940073Y-94779617D01*
X175572879Y-94538008D01*
X175226528Y-94282634D01*
X174900738Y-94014342D01*
X174595227Y-93733981D01*
X174309713Y-93442397D01*
X174052185Y-93150222D01*
X173815618Y-92852424D01*
X173599413Y-92550172D01*
X173402970Y-92244632D01*
X173225688Y-91936974D01*
X173066969Y-91628364D01*
X172926212Y-91319970D01*
X172802818Y-91012960D01*
X172696187Y-90708502D01*
X172605719Y-90407763D01*
X172530815Y-90111912D01*
X172470875Y-89822116D01*
X172425299Y-89539543D01*
X172393487Y-89265360D01*
X172374839Y-89000735D01*
X172368757Y-88746837D01*
X172368757Y-80412463D01*
X172370995Y-80323962D01*
X172377636Y-80236623D01*
X172388573Y-80150553D01*
X172403697Y-80065862D01*
X172422901Y-79982657D01*
X172446076Y-79901045D01*
X172473115Y-79821136D01*
X172503908Y-79743038D01*
X172538349Y-79666857D01*
X172576329Y-79592703D01*
X172617740Y-79520683D01*
X172662474Y-79450906D01*
X172710423Y-79383479D01*
X172761478Y-79318511D01*
X172815532Y-79256110D01*
X172872477Y-79196382D01*
X172932205Y-79139438D01*
X172994607Y-79085385D01*
X173059576Y-79034330D01*
X173127003Y-78986382D01*
X173196780Y-78941649D01*
X173268800Y-78900239D01*
X173342954Y-78862260D01*
X173419134Y-78827820D01*
X173497232Y-78797027D01*
X173577140Y-78769989D01*
X173658750Y-78746815D01*
X173741954Y-78727612D01*
X173826644Y-78712488D01*
X173912712Y-78701551D01*
X174000049Y-78694910D01*
X174088548Y-78692672D01*
X182422923Y-78692672D01*
X182422923Y-82132255D01*
X175808340Y-82132255D01*
X175808340Y-88746837D01*
X175811120Y-88851034D01*
X175819783Y-88964833D01*
X175834816Y-89087406D01*
X175856703Y-89217924D01*
X175885930Y-89355560D01*
X175922983Y-89499485D01*
X175968346Y-89648870D01*
X176022506Y-89802889D01*
X176085948Y-89960711D01*
X176159158Y-90121510D01*
X176242620Y-90284457D01*
X176336821Y-90448724D01*
X176442245Y-90613482D01*
X176559379Y-90777903D01*
X176688708Y-90941159D01*
X176830717Y-91102422D01*
X176979465Y-91254665D01*
X177144029Y-91406522D01*
X177325210Y-91556845D01*
X177523813Y-91704486D01*
X177740641Y-91848296D01*
X177976496Y-91987127D01*
X178232181Y-92119830D01*
X178508501Y-92245257D01*
X178806258Y-92362260D01*
X179126256Y-92469691D01*
X179469297Y-92566400D01*
X179836184Y-92651240D01*
X180227721Y-92723062D01*
X180644711Y-92780718D01*
X181087958Y-92823059D01*
X181558263Y-92848937D01*
X181792298Y-92854845D01*
X182019221Y-92855713D01*
X182239146Y-92851706D01*
X182452186Y-92842990D01*
X182658456Y-92829730D01*
X182858069Y-92812092D01*
X183051139Y-92790242D01*
X183237780Y-92764346D01*
X183418105Y-92734568D01*
X183592230Y-92701074D01*
X183760266Y-92664031D01*
X183922329Y-92623603D01*
X184078532Y-92579956D01*
X184228989Y-92533256D01*
X184373814Y-92483669D01*
X184513121Y-92431359D01*
X184647022Y-92376493D01*
X184775634Y-92319237D01*
X184899068Y-92259754D01*
X185017439Y-92198213D01*
X185239448Y-92069612D01*
X185442570Y-91934761D01*
X185627717Y-91794982D01*
X185795799Y-91651601D01*
X185947727Y-91505943D01*
X186084412Y-91359332D01*
X186218778Y-91197958D01*
X186341503Y-91032431D01*
X186452975Y-90863654D01*
X186553577Y-90692529D01*
X186643697Y-90519957D01*
X186723720Y-90346841D01*
X186794033Y-90174082D01*
X186855020Y-90002582D01*
X186907070Y-89833244D01*
X186950566Y-89666968D01*
X186985896Y-89504658D01*
X187013445Y-89347214D01*
X187033599Y-89195538D01*
X187046745Y-89050533D01*
X187053268Y-88913101D01*
X187053554Y-88784143D01*
X187053243Y-88765490D01*
X187053160Y-88756163D01*
X187053131Y-88746837D01*
X187053131Y-69094620D01*
X187038899Y-68947926D01*
X187017778Y-68792050D01*
X186989473Y-68627936D01*
X186953689Y-68456530D01*
X186910133Y-68278777D01*
X186858509Y-68095620D01*
X186798524Y-67908004D01*
X186729882Y-67716875D01*
X186652291Y-67523177D01*
X186565455Y-67327854D01*
X186469081Y-67131851D01*
X186362873Y-66936114D01*
X186246538Y-66741586D01*
X186119781Y-66549212D01*
X185982308Y-66359936D01*
X185833825Y-66174705D01*
X185680602Y-66001436D01*
X185514601Y-65831420D01*
X185335193Y-65665751D01*
X185141748Y-65505521D01*
X184933640Y-65351826D01*
X184710239Y-65205757D01*
X184470916Y-65068410D01*
X184215045Y-64940877D01*
X183941995Y-64824252D01*
X183651139Y-64719629D01*
X183341848Y-64628102D01*
X183013495Y-64550763D01*
X182665450Y-64488708D01*
X182297085Y-64443028D01*
X181907771Y-64414818D01*
X181496881Y-64405172D01*
X181288503Y-64407612D01*
X181085433Y-64414841D01*
X180887596Y-64426725D01*
X180694920Y-64443129D01*
X180507330Y-64463919D01*
X180324754Y-64488959D01*
X180147118Y-64518115D01*
X179974348Y-64551252D01*
X179806371Y-64588235D01*
X179643114Y-64628930D01*
X179484504Y-64673202D01*
X179330466Y-64720916D01*
X179180927Y-64771937D01*
X179035814Y-64826130D01*
X178895054Y-64883362D01*
X178758572Y-64943496D01*
X178498153Y-65071935D01*
X178253968Y-65210369D01*
X178025430Y-65357720D01*
X177811952Y-65512911D01*
X177612946Y-65674862D01*
X177427825Y-65842496D01*
X177256001Y-66014735D01*
X177096886Y-66190500D01*
X176939824Y-66381658D01*
X176794329Y-66576965D01*
X176660099Y-66775406D01*
X176536831Y-66975966D01*
X176424222Y-67177629D01*
X176321969Y-67379378D01*
X176229769Y-67580199D01*
X176147320Y-67779075D01*
X176074319Y-67974992D01*
X176010463Y-68166932D01*
X175955449Y-68353881D01*
X175908974Y-68534823D01*
X175870736Y-68708741D01*
X175840431Y-68874621D01*
X175817758Y-69031447D01*
X175802412Y-69178202D01*
X172374710Y-68892557D01*
X172401665Y-68630423D01*
X172440297Y-68355880D01*
X172491117Y-68070237D01*
X172554636Y-67774804D01*
X172631364Y-67470892D01*
X172721813Y-67159809D01*
X172826493Y-66842866D01*
X172945915Y-66521372D01*
X173080591Y-66196637D01*
X173231031Y-65869971D01*
X173397746Y-65542683D01*
X173581248Y-65216083D01*
X173782046Y-64891481D01*
X174000653Y-64570187D01*
X174237578Y-64253510D01*
X174493333Y-63942760D01*
X174778258Y-63629017D01*
X175082500Y-63326476D01*
X175406285Y-63036384D01*
X175749838Y-62759989D01*
X176113388Y-62498537D01*
X176497160Y-62253276D01*
X176901379Y-62025453D01*
X177326274Y-61816317D01*
X177772070Y-61627113D01*
X178238993Y-61459089D01*
X178727269Y-61313493D01*
X179237126Y-61191572D01*
X179768789Y-61094574D01*
X180322485Y-61023745D01*
X180898440Y-60980333D01*
X181496881Y-60965585D01*
X181798996Y-60969303D01*
G37*
G36*
X171178131Y-94567672D02*
G01*
X167738548Y-94567672D01*
X167738548Y-91831880D01*
X156345592Y-98937263D01*
X154525257Y-96018909D01*
X161061260Y-91942741D01*
X160866784Y-91886727D01*
X160672778Y-91825121D01*
X160479518Y-91757730D01*
X160287282Y-91684362D01*
X160096347Y-91604825D01*
X159906990Y-91518928D01*
X159719487Y-91426479D01*
X159534117Y-91327285D01*
X159351156Y-91221156D01*
X159170881Y-91107899D01*
X158993569Y-90987322D01*
X158819498Y-90859233D01*
X158648945Y-90723441D01*
X158482187Y-90579754D01*
X158319500Y-90427980D01*
X158161163Y-90267926D01*
X157978991Y-90066596D01*
X157806966Y-89856750D01*
X157645146Y-89638463D01*
X157493589Y-89411807D01*
X157352352Y-89176855D01*
X157221493Y-88933682D01*
X157101070Y-88682361D01*
X156991140Y-88422964D01*
X156891762Y-88155566D01*
X156802993Y-87880239D01*
X156724890Y-87597058D01*
X156657513Y-87306095D01*
X156600917Y-87007423D01*
X156555162Y-86701117D01*
X156520304Y-86387250D01*
X156496402Y-86065894D01*
X156484688Y-85724567D01*
X156485019Y-85694549D01*
X159924269Y-85694549D01*
X159930694Y-85871530D01*
X159945056Y-86066818D01*
X159965185Y-86251344D01*
X159990728Y-86425455D01*
X160021331Y-86589498D01*
X160056640Y-86743819D01*
X160096303Y-86888765D01*
X160139965Y-87024682D01*
X160187274Y-87151918D01*
X160237875Y-87270818D01*
X160291416Y-87381730D01*
X160347543Y-87484999D01*
X160405902Y-87580973D01*
X160466140Y-87669998D01*
X160527904Y-87752421D01*
X160590840Y-87828589D01*
X160654594Y-87898847D01*
X160723983Y-87968451D01*
X160797540Y-88035651D01*
X160875309Y-88100405D01*
X160957335Y-88162670D01*
X161043661Y-88222405D01*
X161134332Y-88279568D01*
X161229392Y-88334117D01*
X161328885Y-88386011D01*
X161432855Y-88435207D01*
X161541346Y-88481664D01*
X161654403Y-88525340D01*
X161772070Y-88566192D01*
X161894391Y-88604180D01*
X162021409Y-88639260D01*
X162153170Y-88671392D01*
X162289718Y-88700534D01*
X162583592Y-88750523D01*
X162885969Y-88785913D01*
X163195351Y-88807474D01*
X163510242Y-88815980D01*
X163829143Y-88812202D01*
X164150559Y-88796915D01*
X164472991Y-88770889D01*
X164794942Y-88734897D01*
X165114916Y-88689713D01*
X165431414Y-88636107D01*
X165742941Y-88574853D01*
X166047997Y-88506724D01*
X166345087Y-88432490D01*
X166632713Y-88352926D01*
X166909377Y-88268803D01*
X167173583Y-88180894D01*
X167208582Y-88169136D01*
X167243670Y-88158167D01*
X167278838Y-88147983D01*
X167314076Y-88138581D01*
X167349372Y-88129955D01*
X167384717Y-88122101D01*
X167455511Y-88108695D01*
X167526374Y-88098327D01*
X167597223Y-88090964D01*
X167667975Y-88086571D01*
X167738548Y-88085115D01*
X167738548Y-81998615D01*
X167131908Y-81984683D01*
X166507995Y-81990254D01*
X165873573Y-82017324D01*
X165235404Y-82067885D01*
X164917028Y-82102598D01*
X164600252Y-82143931D01*
X164285920Y-82192135D01*
X163974879Y-82247458D01*
X163667972Y-82310149D01*
X163366047Y-82380457D01*
X163069948Y-82458633D01*
X162780521Y-82544925D01*
X162594165Y-82606240D01*
X162414216Y-82670211D01*
X162240681Y-82736783D01*
X162073567Y-82805900D01*
X161912883Y-82877507D01*
X161758635Y-82951547D01*
X161610831Y-83027965D01*
X161469478Y-83106705D01*
X161334584Y-83187711D01*
X161206155Y-83270928D01*
X161084200Y-83356299D01*
X160968725Y-83443769D01*
X160859739Y-83533283D01*
X160757248Y-83624783D01*
X160661259Y-83718216D01*
X160571781Y-83813524D01*
X160495001Y-83903059D01*
X160421812Y-83996570D01*
X160352493Y-84094323D01*
X160287324Y-84196583D01*
X160226584Y-84303613D01*
X160170553Y-84415679D01*
X160119510Y-84533045D01*
X160073734Y-84655976D01*
X160033506Y-84784737D01*
X159999104Y-84919592D01*
X159970807Y-85060806D01*
X159948896Y-85208644D01*
X159933650Y-85363371D01*
X159925348Y-85525251D01*
X159924269Y-85694549D01*
X156485019Y-85694549D01*
X156488366Y-85390529D01*
X156507174Y-85063851D01*
X156540852Y-84744602D01*
X156589141Y-84432851D01*
X156651779Y-84128669D01*
X156728506Y-83832124D01*
X156819062Y-83543287D01*
X156923186Y-83262227D01*
X157040618Y-82989014D01*
X157171097Y-82723718D01*
X157314363Y-82466407D01*
X157470155Y-82217153D01*
X157638213Y-81976024D01*
X157818277Y-81743090D01*
X158010086Y-81518420D01*
X158203941Y-81311571D01*
X158405543Y-81114698D01*
X158614357Y-80927550D01*
X158829851Y-80749877D01*
X159051492Y-80581429D01*
X159278747Y-80421953D01*
X159511083Y-80271200D01*
X159747967Y-80128919D01*
X159988866Y-79994859D01*
X160233248Y-79868770D01*
X160480579Y-79750400D01*
X160730327Y-79639500D01*
X160981958Y-79535817D01*
X161234940Y-79439102D01*
X161488740Y-79349104D01*
X161742824Y-79265573D01*
X162252363Y-79116184D01*
X162770723Y-78986535D01*
X163295617Y-78875664D01*
X163824752Y-78782611D01*
X164355839Y-78706414D01*
X164886589Y-78646112D01*
X165414710Y-78600746D01*
X165937913Y-78569352D01*
X166453908Y-78550972D01*
X166960404Y-78544644D01*
X167935742Y-78564299D01*
X168845605Y-78620631D01*
X169671672Y-78705953D01*
X169751715Y-78717852D01*
X169830419Y-78733318D01*
X169907707Y-78752261D01*
X169983500Y-78774593D01*
X170057718Y-78800223D01*
X170130283Y-78829063D01*
X170201116Y-78861022D01*
X170270138Y-78896012D01*
X170337270Y-78933943D01*
X170402432Y-78974726D01*
X170465547Y-79018271D01*
X170526535Y-79064489D01*
X170585317Y-79113291D01*
X170641815Y-79164586D01*
X170695949Y-79218286D01*
X170747641Y-79274302D01*
X170796811Y-79332543D01*
X170843381Y-79392921D01*
X170887271Y-79455345D01*
X170928404Y-79519728D01*
X170966699Y-79585978D01*
X171002079Y-79654007D01*
X171034463Y-79723726D01*
X171063774Y-79795045D01*
X171089932Y-79867874D01*
X171112858Y-79942124D01*
X171132473Y-80017706D01*
X171148700Y-80094531D01*
X171161457Y-80172508D01*
X171170668Y-80251549D01*
X171176252Y-80331564D01*
X171178131Y-80412463D01*
X171178131Y-88085115D01*
X171178131Y-94567672D01*
G37*
%LPC*%
D12*
%TO.C,H6*%
X98000000Y-125000000D03*
%TD*%
%TO.C,H5*%
X198000000Y-125000000D03*
%TD*%
%TO.C,H4*%
X198000000Y-64000000D03*
%TD*%
%TO.C,H3*%
X98000000Y-64000000D03*
%TD*%
D13*
%TO.C,Card1*%
X185100000Y-79000000D03*
X193100000Y-79000000D03*
%TD*%
D14*
%TO.C,USB1*%
X98594549Y-101952072D03*
X98594549Y-110592072D03*
D15*
X94384549Y-101952072D03*
X94384549Y-110592072D03*
D16*
X98064549Y-103382072D03*
X98064549Y-109162072D03*
%TD*%
D17*
%TO.C,CN2*%
X94824544Y-121404078D03*
X94824544Y-116274078D03*
X104124544Y-121404078D03*
X104124544Y-115974078D03*
X100924544Y-116454078D03*
X100924544Y-121404078D03*
X97874544Y-115404078D03*
D18*
X95124544Y-118664078D03*
X102124544Y-118664078D03*
%TD*%
%LPD*%
M02*
