%TF.GenerationSoftware,KiCad,Pcbnew,7.0.7*%
%TF.CreationDate,2023-12-09T23:21:29+01:00*%
%TF.ProjectId,Untitled,556e7469-746c-4656-942e-6b696361645f,rev?*%
%TF.SameCoordinates,Original*%
%TF.FileFunction,Legend,Bot*%
%TF.FilePolarity,Positive*%
%FSLAX46Y46*%
G04 Gerber Fmt 4.6, Leading zero omitted, Abs format (unit mm)*
G04 Created by KiCad (PCBNEW 7.0.7) date 2023-12-09 23:21:29*
%MOMM*%
%LPD*%
G01*
G04 APERTURE LIST*
%ADD10C,0.400000*%
%ADD11C,0.152400*%
%ADD12C,0.000000*%
%ADD13C,0.900000*%
%ADD14C,5.700000*%
%ADD15O,1.800000X1.200000*%
%ADD16O,2.000000X1.200000*%
%ADD17C,0.700000*%
%ADD18O,2.000000X1.000000*%
%ADD19C,1.500000*%
%ADD20C,1.200000*%
G04 APERTURE END LIST*
D10*
X132213033Y-72829676D02*
X132403509Y-72734438D01*
X132403509Y-72734438D02*
X132689223Y-72734438D01*
X132689223Y-72734438D02*
X132974938Y-72829676D01*
X132974938Y-72829676D02*
X133165414Y-73020152D01*
X133165414Y-73020152D02*
X133260652Y-73210628D01*
X133260652Y-73210628D02*
X133355890Y-73591580D01*
X133355890Y-73591580D02*
X133355890Y-73877295D01*
X133355890Y-73877295D02*
X133260652Y-74258247D01*
X133260652Y-74258247D02*
X133165414Y-74448723D01*
X133165414Y-74448723D02*
X132974938Y-74639200D01*
X132974938Y-74639200D02*
X132689223Y-74734438D01*
X132689223Y-74734438D02*
X132498747Y-74734438D01*
X132498747Y-74734438D02*
X132213033Y-74639200D01*
X132213033Y-74639200D02*
X132117795Y-74543961D01*
X132117795Y-74543961D02*
X132117795Y-73877295D01*
X132117795Y-73877295D02*
X132498747Y-73877295D01*
X130117795Y-74734438D02*
X130784462Y-73782057D01*
X131260652Y-74734438D02*
X131260652Y-72734438D01*
X131260652Y-72734438D02*
X130498747Y-72734438D01*
X130498747Y-72734438D02*
X130308271Y-72829676D01*
X130308271Y-72829676D02*
X130213033Y-72924914D01*
X130213033Y-72924914D02*
X130117795Y-73115390D01*
X130117795Y-73115390D02*
X130117795Y-73401104D01*
X130117795Y-73401104D02*
X130213033Y-73591580D01*
X130213033Y-73591580D02*
X130308271Y-73686819D01*
X130308271Y-73686819D02*
X130498747Y-73782057D01*
X130498747Y-73782057D02*
X131260652Y-73782057D01*
X129260652Y-74734438D02*
X129260652Y-72734438D01*
X127260652Y-72829676D02*
X127451128Y-72734438D01*
X127451128Y-72734438D02*
X127736842Y-72734438D01*
X127736842Y-72734438D02*
X128022557Y-72829676D01*
X128022557Y-72829676D02*
X128213033Y-73020152D01*
X128213033Y-73020152D02*
X128308271Y-73210628D01*
X128308271Y-73210628D02*
X128403509Y-73591580D01*
X128403509Y-73591580D02*
X128403509Y-73877295D01*
X128403509Y-73877295D02*
X128308271Y-74258247D01*
X128308271Y-74258247D02*
X128213033Y-74448723D01*
X128213033Y-74448723D02*
X128022557Y-74639200D01*
X128022557Y-74639200D02*
X127736842Y-74734438D01*
X127736842Y-74734438D02*
X127546366Y-74734438D01*
X127546366Y-74734438D02*
X127260652Y-74639200D01*
X127260652Y-74639200D02*
X127165414Y-74543961D01*
X127165414Y-74543961D02*
X127165414Y-73877295D01*
X127165414Y-73877295D02*
X127546366Y-73877295D01*
X125165414Y-74734438D02*
X125832081Y-73782057D01*
X126308271Y-74734438D02*
X126308271Y-72734438D01*
X126308271Y-72734438D02*
X125546366Y-72734438D01*
X125546366Y-72734438D02*
X125355890Y-72829676D01*
X125355890Y-72829676D02*
X125260652Y-72924914D01*
X125260652Y-72924914D02*
X125165414Y-73115390D01*
X125165414Y-73115390D02*
X125165414Y-73401104D01*
X125165414Y-73401104D02*
X125260652Y-73591580D01*
X125260652Y-73591580D02*
X125355890Y-73686819D01*
X125355890Y-73686819D02*
X125546366Y-73782057D01*
X125546366Y-73782057D02*
X126308271Y-73782057D01*
X124308271Y-74734438D02*
X124308271Y-72734438D01*
D11*
X132835441Y-77865894D02*
X132835441Y-76865894D01*
X132406870Y-77865894D02*
X132406870Y-77342084D01*
X132406870Y-77342084D02*
X132454489Y-77246846D01*
X132454489Y-77246846D02*
X132549727Y-77199227D01*
X132549727Y-77199227D02*
X132692584Y-77199227D01*
X132692584Y-77199227D02*
X132787822Y-77246846D01*
X132787822Y-77246846D02*
X132835441Y-77294465D01*
X132073536Y-77199227D02*
X131692584Y-77199227D01*
X131930679Y-76865894D02*
X131930679Y-77723036D01*
X131930679Y-77723036D02*
X131883060Y-77818275D01*
X131883060Y-77818275D02*
X131787822Y-77865894D01*
X131787822Y-77865894D02*
X131692584Y-77865894D01*
X131502107Y-77199227D02*
X131121155Y-77199227D01*
X131359250Y-76865894D02*
X131359250Y-77723036D01*
X131359250Y-77723036D02*
X131311631Y-77818275D01*
X131311631Y-77818275D02*
X131216393Y-77865894D01*
X131216393Y-77865894D02*
X131121155Y-77865894D01*
X130787821Y-77199227D02*
X130787821Y-78199227D01*
X130787821Y-77246846D02*
X130692583Y-77199227D01*
X130692583Y-77199227D02*
X130502107Y-77199227D01*
X130502107Y-77199227D02*
X130406869Y-77246846D01*
X130406869Y-77246846D02*
X130359250Y-77294465D01*
X130359250Y-77294465D02*
X130311631Y-77389703D01*
X130311631Y-77389703D02*
X130311631Y-77675417D01*
X130311631Y-77675417D02*
X130359250Y-77770655D01*
X130359250Y-77770655D02*
X130406869Y-77818275D01*
X130406869Y-77818275D02*
X130502107Y-77865894D01*
X130502107Y-77865894D02*
X130692583Y-77865894D01*
X130692583Y-77865894D02*
X130787821Y-77818275D01*
X129930678Y-77818275D02*
X129835440Y-77865894D01*
X129835440Y-77865894D02*
X129644964Y-77865894D01*
X129644964Y-77865894D02*
X129549726Y-77818275D01*
X129549726Y-77818275D02*
X129502107Y-77723036D01*
X129502107Y-77723036D02*
X129502107Y-77675417D01*
X129502107Y-77675417D02*
X129549726Y-77580179D01*
X129549726Y-77580179D02*
X129644964Y-77532560D01*
X129644964Y-77532560D02*
X129787821Y-77532560D01*
X129787821Y-77532560D02*
X129883059Y-77484941D01*
X129883059Y-77484941D02*
X129930678Y-77389703D01*
X129930678Y-77389703D02*
X129930678Y-77342084D01*
X129930678Y-77342084D02*
X129883059Y-77246846D01*
X129883059Y-77246846D02*
X129787821Y-77199227D01*
X129787821Y-77199227D02*
X129644964Y-77199227D01*
X129644964Y-77199227D02*
X129549726Y-77246846D01*
X129073535Y-77770655D02*
X129025916Y-77818275D01*
X129025916Y-77818275D02*
X129073535Y-77865894D01*
X129073535Y-77865894D02*
X129121154Y-77818275D01*
X129121154Y-77818275D02*
X129073535Y-77770655D01*
X129073535Y-77770655D02*
X129073535Y-77865894D01*
X129073535Y-77246846D02*
X129025916Y-77294465D01*
X129025916Y-77294465D02*
X129073535Y-77342084D01*
X129073535Y-77342084D02*
X129121154Y-77294465D01*
X129121154Y-77294465D02*
X129073535Y-77246846D01*
X129073535Y-77246846D02*
X129073535Y-77342084D01*
X127883060Y-76818275D02*
X128740202Y-78103989D01*
X126835441Y-76818275D02*
X127692583Y-78103989D01*
X126073536Y-77199227D02*
X126073536Y-78008751D01*
X126073536Y-78008751D02*
X126121155Y-78103989D01*
X126121155Y-78103989D02*
X126168774Y-78151608D01*
X126168774Y-78151608D02*
X126264012Y-78199227D01*
X126264012Y-78199227D02*
X126406869Y-78199227D01*
X126406869Y-78199227D02*
X126502107Y-78151608D01*
X126073536Y-77818275D02*
X126168774Y-77865894D01*
X126168774Y-77865894D02*
X126359250Y-77865894D01*
X126359250Y-77865894D02*
X126454488Y-77818275D01*
X126454488Y-77818275D02*
X126502107Y-77770655D01*
X126502107Y-77770655D02*
X126549726Y-77675417D01*
X126549726Y-77675417D02*
X126549726Y-77389703D01*
X126549726Y-77389703D02*
X126502107Y-77294465D01*
X126502107Y-77294465D02*
X126454488Y-77246846D01*
X126454488Y-77246846D02*
X126359250Y-77199227D01*
X126359250Y-77199227D02*
X126168774Y-77199227D01*
X126168774Y-77199227D02*
X126073536Y-77246846D01*
X125597345Y-77865894D02*
X125597345Y-77199227D01*
X125597345Y-76865894D02*
X125644964Y-76913513D01*
X125644964Y-76913513D02*
X125597345Y-76961132D01*
X125597345Y-76961132D02*
X125549726Y-76913513D01*
X125549726Y-76913513D02*
X125597345Y-76865894D01*
X125597345Y-76865894D02*
X125597345Y-76961132D01*
X125264012Y-77199227D02*
X124883060Y-77199227D01*
X125121155Y-76865894D02*
X125121155Y-77723036D01*
X125121155Y-77723036D02*
X125073536Y-77818275D01*
X125073536Y-77818275D02*
X124978298Y-77865894D01*
X124978298Y-77865894D02*
X124883060Y-77865894D01*
X124549726Y-77865894D02*
X124549726Y-76865894D01*
X124121155Y-77865894D02*
X124121155Y-77342084D01*
X124121155Y-77342084D02*
X124168774Y-77246846D01*
X124168774Y-77246846D02*
X124264012Y-77199227D01*
X124264012Y-77199227D02*
X124406869Y-77199227D01*
X124406869Y-77199227D02*
X124502107Y-77246846D01*
X124502107Y-77246846D02*
X124549726Y-77294465D01*
X123216393Y-77199227D02*
X123216393Y-77865894D01*
X123644964Y-77199227D02*
X123644964Y-77723036D01*
X123644964Y-77723036D02*
X123597345Y-77818275D01*
X123597345Y-77818275D02*
X123502107Y-77865894D01*
X123502107Y-77865894D02*
X123359250Y-77865894D01*
X123359250Y-77865894D02*
X123264012Y-77818275D01*
X123264012Y-77818275D02*
X123216393Y-77770655D01*
X122740202Y-77865894D02*
X122740202Y-76865894D01*
X122740202Y-77246846D02*
X122644964Y-77199227D01*
X122644964Y-77199227D02*
X122454488Y-77199227D01*
X122454488Y-77199227D02*
X122359250Y-77246846D01*
X122359250Y-77246846D02*
X122311631Y-77294465D01*
X122311631Y-77294465D02*
X122264012Y-77389703D01*
X122264012Y-77389703D02*
X122264012Y-77675417D01*
X122264012Y-77675417D02*
X122311631Y-77770655D01*
X122311631Y-77770655D02*
X122359250Y-77818275D01*
X122359250Y-77818275D02*
X122454488Y-77865894D01*
X122454488Y-77865894D02*
X122644964Y-77865894D01*
X122644964Y-77865894D02*
X122740202Y-77818275D01*
X121835440Y-77770655D02*
X121787821Y-77818275D01*
X121787821Y-77818275D02*
X121835440Y-77865894D01*
X121835440Y-77865894D02*
X121883059Y-77818275D01*
X121883059Y-77818275D02*
X121835440Y-77770655D01*
X121835440Y-77770655D02*
X121835440Y-77865894D01*
X120930679Y-77818275D02*
X121025917Y-77865894D01*
X121025917Y-77865894D02*
X121216393Y-77865894D01*
X121216393Y-77865894D02*
X121311631Y-77818275D01*
X121311631Y-77818275D02*
X121359250Y-77770655D01*
X121359250Y-77770655D02*
X121406869Y-77675417D01*
X121406869Y-77675417D02*
X121406869Y-77389703D01*
X121406869Y-77389703D02*
X121359250Y-77294465D01*
X121359250Y-77294465D02*
X121311631Y-77246846D01*
X121311631Y-77246846D02*
X121216393Y-77199227D01*
X121216393Y-77199227D02*
X121025917Y-77199227D01*
X121025917Y-77199227D02*
X120930679Y-77246846D01*
X120359250Y-77865894D02*
X120454488Y-77818275D01*
X120454488Y-77818275D02*
X120502107Y-77770655D01*
X120502107Y-77770655D02*
X120549726Y-77675417D01*
X120549726Y-77675417D02*
X120549726Y-77389703D01*
X120549726Y-77389703D02*
X120502107Y-77294465D01*
X120502107Y-77294465D02*
X120454488Y-77246846D01*
X120454488Y-77246846D02*
X120359250Y-77199227D01*
X120359250Y-77199227D02*
X120216393Y-77199227D01*
X120216393Y-77199227D02*
X120121155Y-77246846D01*
X120121155Y-77246846D02*
X120073536Y-77294465D01*
X120073536Y-77294465D02*
X120025917Y-77389703D01*
X120025917Y-77389703D02*
X120025917Y-77675417D01*
X120025917Y-77675417D02*
X120073536Y-77770655D01*
X120073536Y-77770655D02*
X120121155Y-77818275D01*
X120121155Y-77818275D02*
X120216393Y-77865894D01*
X120216393Y-77865894D02*
X120359250Y-77865894D01*
X119597345Y-77865894D02*
X119597345Y-77199227D01*
X119597345Y-77294465D02*
X119549726Y-77246846D01*
X119549726Y-77246846D02*
X119454488Y-77199227D01*
X119454488Y-77199227D02*
X119311631Y-77199227D01*
X119311631Y-77199227D02*
X119216393Y-77246846D01*
X119216393Y-77246846D02*
X119168774Y-77342084D01*
X119168774Y-77342084D02*
X119168774Y-77865894D01*
X119168774Y-77342084D02*
X119121155Y-77246846D01*
X119121155Y-77246846D02*
X119025917Y-77199227D01*
X119025917Y-77199227D02*
X118883060Y-77199227D01*
X118883060Y-77199227D02*
X118787821Y-77246846D01*
X118787821Y-77246846D02*
X118740202Y-77342084D01*
X118740202Y-77342084D02*
X118740202Y-77865894D01*
X117549727Y-76818275D02*
X118406869Y-78103989D01*
X117073536Y-77865894D02*
X117168774Y-77818275D01*
X117168774Y-77818275D02*
X117216393Y-77770655D01*
X117216393Y-77770655D02*
X117264012Y-77675417D01*
X117264012Y-77675417D02*
X117264012Y-77389703D01*
X117264012Y-77389703D02*
X117216393Y-77294465D01*
X117216393Y-77294465D02*
X117168774Y-77246846D01*
X117168774Y-77246846D02*
X117073536Y-77199227D01*
X117073536Y-77199227D02*
X116930679Y-77199227D01*
X116930679Y-77199227D02*
X116835441Y-77246846D01*
X116835441Y-77246846D02*
X116787822Y-77294465D01*
X116787822Y-77294465D02*
X116740203Y-77389703D01*
X116740203Y-77389703D02*
X116740203Y-77675417D01*
X116740203Y-77675417D02*
X116787822Y-77770655D01*
X116787822Y-77770655D02*
X116835441Y-77818275D01*
X116835441Y-77818275D02*
X116930679Y-77865894D01*
X116930679Y-77865894D02*
X117073536Y-77865894D01*
X116168774Y-77865894D02*
X116264012Y-77818275D01*
X116264012Y-77818275D02*
X116311631Y-77723036D01*
X116311631Y-77723036D02*
X116311631Y-76865894D01*
X115359250Y-77199227D02*
X115359250Y-77865894D01*
X115787821Y-77199227D02*
X115787821Y-77723036D01*
X115787821Y-77723036D02*
X115740202Y-77818275D01*
X115740202Y-77818275D02*
X115644964Y-77865894D01*
X115644964Y-77865894D02*
X115502107Y-77865894D01*
X115502107Y-77865894D02*
X115406869Y-77818275D01*
X115406869Y-77818275D02*
X115359250Y-77770655D01*
X114883059Y-77199227D02*
X114883059Y-78199227D01*
X114883059Y-77246846D02*
X114787821Y-77199227D01*
X114787821Y-77199227D02*
X114597345Y-77199227D01*
X114597345Y-77199227D02*
X114502107Y-77246846D01*
X114502107Y-77246846D02*
X114454488Y-77294465D01*
X114454488Y-77294465D02*
X114406869Y-77389703D01*
X114406869Y-77389703D02*
X114406869Y-77675417D01*
X114406869Y-77675417D02*
X114454488Y-77770655D01*
X114454488Y-77770655D02*
X114502107Y-77818275D01*
X114502107Y-77818275D02*
X114597345Y-77865894D01*
X114597345Y-77865894D02*
X114787821Y-77865894D01*
X114787821Y-77865894D02*
X114883059Y-77818275D01*
X113264012Y-76818275D02*
X114121154Y-78103989D01*
X112502107Y-77199227D02*
X112502107Y-78008751D01*
X112502107Y-78008751D02*
X112549726Y-78103989D01*
X112549726Y-78103989D02*
X112597345Y-78151608D01*
X112597345Y-78151608D02*
X112692583Y-78199227D01*
X112692583Y-78199227D02*
X112835440Y-78199227D01*
X112835440Y-78199227D02*
X112930678Y-78151608D01*
X112502107Y-77818275D02*
X112597345Y-77865894D01*
X112597345Y-77865894D02*
X112787821Y-77865894D01*
X112787821Y-77865894D02*
X112883059Y-77818275D01*
X112883059Y-77818275D02*
X112930678Y-77770655D01*
X112930678Y-77770655D02*
X112978297Y-77675417D01*
X112978297Y-77675417D02*
X112978297Y-77389703D01*
X112978297Y-77389703D02*
X112930678Y-77294465D01*
X112930678Y-77294465D02*
X112883059Y-77246846D01*
X112883059Y-77246846D02*
X112787821Y-77199227D01*
X112787821Y-77199227D02*
X112597345Y-77199227D01*
X112597345Y-77199227D02*
X112502107Y-77246846D01*
X112025916Y-77865894D02*
X112025916Y-77199227D01*
X112025916Y-77389703D02*
X111978297Y-77294465D01*
X111978297Y-77294465D02*
X111930678Y-77246846D01*
X111930678Y-77246846D02*
X111835440Y-77199227D01*
X111835440Y-77199227D02*
X111740202Y-77199227D01*
X111406868Y-77865894D02*
X111406868Y-77199227D01*
X111406868Y-76865894D02*
X111454487Y-76913513D01*
X111454487Y-76913513D02*
X111406868Y-76961132D01*
X111406868Y-76961132D02*
X111359249Y-76913513D01*
X111359249Y-76913513D02*
X111406868Y-76865894D01*
X111406868Y-76865894D02*
X111406868Y-76961132D01*
X110502107Y-77199227D02*
X110502107Y-78008751D01*
X110502107Y-78008751D02*
X110549726Y-78103989D01*
X110549726Y-78103989D02*
X110597345Y-78151608D01*
X110597345Y-78151608D02*
X110692583Y-78199227D01*
X110692583Y-78199227D02*
X110835440Y-78199227D01*
X110835440Y-78199227D02*
X110930678Y-78151608D01*
X110502107Y-77818275D02*
X110597345Y-77865894D01*
X110597345Y-77865894D02*
X110787821Y-77865894D01*
X110787821Y-77865894D02*
X110883059Y-77818275D01*
X110883059Y-77818275D02*
X110930678Y-77770655D01*
X110930678Y-77770655D02*
X110978297Y-77675417D01*
X110978297Y-77675417D02*
X110978297Y-77389703D01*
X110978297Y-77389703D02*
X110930678Y-77294465D01*
X110930678Y-77294465D02*
X110883059Y-77246846D01*
X110883059Y-77246846D02*
X110787821Y-77199227D01*
X110787821Y-77199227D02*
X110597345Y-77199227D01*
X110597345Y-77199227D02*
X110502107Y-77246846D01*
X110025916Y-77865894D02*
X110025916Y-77199227D01*
X110025916Y-77389703D02*
X109978297Y-77294465D01*
X109978297Y-77294465D02*
X109930678Y-77246846D01*
X109930678Y-77246846D02*
X109835440Y-77199227D01*
X109835440Y-77199227D02*
X109740202Y-77199227D01*
X109406868Y-77865894D02*
X109406868Y-77199227D01*
X109406868Y-76865894D02*
X109454487Y-76913513D01*
X109454487Y-76913513D02*
X109406868Y-76961132D01*
X109406868Y-76961132D02*
X109359249Y-76913513D01*
X109359249Y-76913513D02*
X109406868Y-76865894D01*
X109406868Y-76865894D02*
X109406868Y-76961132D01*
X132502108Y-80562084D02*
X132359251Y-80609703D01*
X132359251Y-80609703D02*
X132311632Y-80657322D01*
X132311632Y-80657322D02*
X132264013Y-80752560D01*
X132264013Y-80752560D02*
X132264013Y-80895417D01*
X132264013Y-80895417D02*
X132311632Y-80990655D01*
X132311632Y-80990655D02*
X132359251Y-81038275D01*
X132359251Y-81038275D02*
X132454489Y-81085894D01*
X132454489Y-81085894D02*
X132835441Y-81085894D01*
X132835441Y-81085894D02*
X132835441Y-80085894D01*
X132835441Y-80085894D02*
X132502108Y-80085894D01*
X132502108Y-80085894D02*
X132406870Y-80133513D01*
X132406870Y-80133513D02*
X132359251Y-80181132D01*
X132359251Y-80181132D02*
X132311632Y-80276370D01*
X132311632Y-80276370D02*
X132311632Y-80371608D01*
X132311632Y-80371608D02*
X132359251Y-80466846D01*
X132359251Y-80466846D02*
X132406870Y-80514465D01*
X132406870Y-80514465D02*
X132502108Y-80562084D01*
X132502108Y-80562084D02*
X132835441Y-80562084D01*
X131406870Y-80419227D02*
X131406870Y-81085894D01*
X131835441Y-80419227D02*
X131835441Y-80943036D01*
X131835441Y-80943036D02*
X131787822Y-81038275D01*
X131787822Y-81038275D02*
X131692584Y-81085894D01*
X131692584Y-81085894D02*
X131549727Y-81085894D01*
X131549727Y-81085894D02*
X131454489Y-81038275D01*
X131454489Y-81038275D02*
X131406870Y-80990655D01*
X130930679Y-81085894D02*
X130930679Y-80419227D01*
X130930679Y-80085894D02*
X130978298Y-80133513D01*
X130978298Y-80133513D02*
X130930679Y-80181132D01*
X130930679Y-80181132D02*
X130883060Y-80133513D01*
X130883060Y-80133513D02*
X130930679Y-80085894D01*
X130930679Y-80085894D02*
X130930679Y-80181132D01*
X130311632Y-81085894D02*
X130406870Y-81038275D01*
X130406870Y-81038275D02*
X130454489Y-80943036D01*
X130454489Y-80943036D02*
X130454489Y-80085894D01*
X129502108Y-81085894D02*
X129502108Y-80085894D01*
X129502108Y-81038275D02*
X129597346Y-81085894D01*
X129597346Y-81085894D02*
X129787822Y-81085894D01*
X129787822Y-81085894D02*
X129883060Y-81038275D01*
X129883060Y-81038275D02*
X129930679Y-80990655D01*
X129930679Y-80990655D02*
X129978298Y-80895417D01*
X129978298Y-80895417D02*
X129978298Y-80609703D01*
X129978298Y-80609703D02*
X129930679Y-80514465D01*
X129930679Y-80514465D02*
X129883060Y-80466846D01*
X129883060Y-80466846D02*
X129787822Y-80419227D01*
X129787822Y-80419227D02*
X129597346Y-80419227D01*
X129597346Y-80419227D02*
X129502108Y-80466846D01*
X128264012Y-81085894D02*
X128264012Y-80085894D01*
X128264012Y-80466846D02*
X128168774Y-80419227D01*
X128168774Y-80419227D02*
X127978298Y-80419227D01*
X127978298Y-80419227D02*
X127883060Y-80466846D01*
X127883060Y-80466846D02*
X127835441Y-80514465D01*
X127835441Y-80514465D02*
X127787822Y-80609703D01*
X127787822Y-80609703D02*
X127787822Y-80895417D01*
X127787822Y-80895417D02*
X127835441Y-80990655D01*
X127835441Y-80990655D02*
X127883060Y-81038275D01*
X127883060Y-81038275D02*
X127978298Y-81085894D01*
X127978298Y-81085894D02*
X128168774Y-81085894D01*
X128168774Y-81085894D02*
X128264012Y-81038275D01*
X127454488Y-80419227D02*
X127216393Y-81085894D01*
X126978298Y-80419227D02*
X127216393Y-81085894D01*
X127216393Y-81085894D02*
X127311631Y-81323989D01*
X127311631Y-81323989D02*
X127359250Y-81371608D01*
X127359250Y-81371608D02*
X127454488Y-81419227D01*
X125644964Y-80085894D02*
X125454488Y-80085894D01*
X125454488Y-80085894D02*
X125359250Y-80133513D01*
X125359250Y-80133513D02*
X125264012Y-80228751D01*
X125264012Y-80228751D02*
X125216393Y-80419227D01*
X125216393Y-80419227D02*
X125216393Y-80752560D01*
X125216393Y-80752560D02*
X125264012Y-80943036D01*
X125264012Y-80943036D02*
X125359250Y-81038275D01*
X125359250Y-81038275D02*
X125454488Y-81085894D01*
X125454488Y-81085894D02*
X125644964Y-81085894D01*
X125644964Y-81085894D02*
X125740202Y-81038275D01*
X125740202Y-81038275D02*
X125835440Y-80943036D01*
X125835440Y-80943036D02*
X125883059Y-80752560D01*
X125883059Y-80752560D02*
X125883059Y-80419227D01*
X125883059Y-80419227D02*
X125835440Y-80228751D01*
X125835440Y-80228751D02*
X125740202Y-80133513D01*
X125740202Y-80133513D02*
X125644964Y-80085894D01*
X124644964Y-81085894D02*
X124740202Y-81038275D01*
X124740202Y-81038275D02*
X124787821Y-80943036D01*
X124787821Y-80943036D02*
X124787821Y-80085894D01*
X123835440Y-80419227D02*
X123835440Y-81085894D01*
X124264011Y-80419227D02*
X124264011Y-80943036D01*
X124264011Y-80943036D02*
X124216392Y-81038275D01*
X124216392Y-81038275D02*
X124121154Y-81085894D01*
X124121154Y-81085894D02*
X123978297Y-81085894D01*
X123978297Y-81085894D02*
X123883059Y-81038275D01*
X123883059Y-81038275D02*
X123835440Y-80990655D01*
X123359249Y-80419227D02*
X123359249Y-81419227D01*
X123359249Y-80466846D02*
X123264011Y-80419227D01*
X123264011Y-80419227D02*
X123073535Y-80419227D01*
X123073535Y-80419227D02*
X122978297Y-80466846D01*
X122978297Y-80466846D02*
X122930678Y-80514465D01*
X122930678Y-80514465D02*
X122883059Y-80609703D01*
X122883059Y-80609703D02*
X122883059Y-80895417D01*
X122883059Y-80895417D02*
X122930678Y-80990655D01*
X122930678Y-80990655D02*
X122978297Y-81038275D01*
X122978297Y-81038275D02*
X123073535Y-81085894D01*
X123073535Y-81085894D02*
X123264011Y-81085894D01*
X123264011Y-81085894D02*
X123359249Y-81038275D01*
X121264011Y-81085894D02*
X121264011Y-80562084D01*
X121264011Y-80562084D02*
X121311630Y-80466846D01*
X121311630Y-80466846D02*
X121406868Y-80419227D01*
X121406868Y-80419227D02*
X121597344Y-80419227D01*
X121597344Y-80419227D02*
X121692582Y-80466846D01*
X121264011Y-81038275D02*
X121359249Y-81085894D01*
X121359249Y-81085894D02*
X121597344Y-81085894D01*
X121597344Y-81085894D02*
X121692582Y-81038275D01*
X121692582Y-81038275D02*
X121740201Y-80943036D01*
X121740201Y-80943036D02*
X121740201Y-80847798D01*
X121740201Y-80847798D02*
X121692582Y-80752560D01*
X121692582Y-80752560D02*
X121597344Y-80704941D01*
X121597344Y-80704941D02*
X121359249Y-80704941D01*
X121359249Y-80704941D02*
X121264011Y-80657322D01*
X120787820Y-80419227D02*
X120787820Y-81085894D01*
X120787820Y-80514465D02*
X120740201Y-80466846D01*
X120740201Y-80466846D02*
X120644963Y-80419227D01*
X120644963Y-80419227D02*
X120502106Y-80419227D01*
X120502106Y-80419227D02*
X120406868Y-80466846D01*
X120406868Y-80466846D02*
X120359249Y-80562084D01*
X120359249Y-80562084D02*
X120359249Y-81085894D01*
X119454487Y-81085894D02*
X119454487Y-80085894D01*
X119454487Y-81038275D02*
X119549725Y-81085894D01*
X119549725Y-81085894D02*
X119740201Y-81085894D01*
X119740201Y-81085894D02*
X119835439Y-81038275D01*
X119835439Y-81038275D02*
X119883058Y-80990655D01*
X119883058Y-80990655D02*
X119930677Y-80895417D01*
X119930677Y-80895417D02*
X119930677Y-80609703D01*
X119930677Y-80609703D02*
X119883058Y-80514465D01*
X119883058Y-80514465D02*
X119835439Y-80466846D01*
X119835439Y-80466846D02*
X119740201Y-80419227D01*
X119740201Y-80419227D02*
X119549725Y-80419227D01*
X119549725Y-80419227D02*
X119454487Y-80466846D01*
X117930677Y-80085894D02*
X117930677Y-80800179D01*
X117930677Y-80800179D02*
X117978296Y-80943036D01*
X117978296Y-80943036D02*
X118073534Y-81038275D01*
X118073534Y-81038275D02*
X118216391Y-81085894D01*
X118216391Y-81085894D02*
X118311629Y-81085894D01*
X117073534Y-81038275D02*
X117168772Y-81085894D01*
X117168772Y-81085894D02*
X117359248Y-81085894D01*
X117359248Y-81085894D02*
X117454486Y-81038275D01*
X117454486Y-81038275D02*
X117502105Y-80943036D01*
X117502105Y-80943036D02*
X117502105Y-80562084D01*
X117502105Y-80562084D02*
X117454486Y-80466846D01*
X117454486Y-80466846D02*
X117359248Y-80419227D01*
X117359248Y-80419227D02*
X117168772Y-80419227D01*
X117168772Y-80419227D02*
X117073534Y-80466846D01*
X117073534Y-80466846D02*
X117025915Y-80562084D01*
X117025915Y-80562084D02*
X117025915Y-80657322D01*
X117025915Y-80657322D02*
X117502105Y-80752560D01*
X116597343Y-81085894D02*
X116597343Y-80419227D01*
X116597343Y-80609703D02*
X116549724Y-80514465D01*
X116549724Y-80514465D02*
X116502105Y-80466846D01*
X116502105Y-80466846D02*
X116406867Y-80419227D01*
X116406867Y-80419227D02*
X116311629Y-80419227D01*
X115597343Y-81038275D02*
X115692581Y-81085894D01*
X115692581Y-81085894D02*
X115883057Y-81085894D01*
X115883057Y-81085894D02*
X115978295Y-81038275D01*
X115978295Y-81038275D02*
X116025914Y-80943036D01*
X116025914Y-80943036D02*
X116025914Y-80562084D01*
X116025914Y-80562084D02*
X115978295Y-80466846D01*
X115978295Y-80466846D02*
X115883057Y-80419227D01*
X115883057Y-80419227D02*
X115692581Y-80419227D01*
X115692581Y-80419227D02*
X115597343Y-80466846D01*
X115597343Y-80466846D02*
X115549724Y-80562084D01*
X115549724Y-80562084D02*
X115549724Y-80657322D01*
X115549724Y-80657322D02*
X116025914Y-80752560D01*
X115121152Y-81085894D02*
X115121152Y-80419227D01*
X115121152Y-80514465D02*
X115073533Y-80466846D01*
X115073533Y-80466846D02*
X114978295Y-80419227D01*
X114978295Y-80419227D02*
X114835438Y-80419227D01*
X114835438Y-80419227D02*
X114740200Y-80466846D01*
X114740200Y-80466846D02*
X114692581Y-80562084D01*
X114692581Y-80562084D02*
X114692581Y-81085894D01*
X114692581Y-80562084D02*
X114644962Y-80466846D01*
X114644962Y-80466846D02*
X114549724Y-80419227D01*
X114549724Y-80419227D02*
X114406867Y-80419227D01*
X114406867Y-80419227D02*
X114311628Y-80466846D01*
X114311628Y-80466846D02*
X114264009Y-80562084D01*
X114264009Y-80562084D02*
X114264009Y-81085894D01*
X132930679Y-81695894D02*
X132692584Y-82695894D01*
X132692584Y-82695894D02*
X132502108Y-81981608D01*
X132502108Y-81981608D02*
X132311632Y-82695894D01*
X132311632Y-82695894D02*
X132073537Y-81695894D01*
X131692584Y-82695894D02*
X131692584Y-82029227D01*
X131692584Y-81695894D02*
X131740203Y-81743513D01*
X131740203Y-81743513D02*
X131692584Y-81791132D01*
X131692584Y-81791132D02*
X131644965Y-81743513D01*
X131644965Y-81743513D02*
X131692584Y-81695894D01*
X131692584Y-81695894D02*
X131692584Y-81791132D01*
X131359251Y-82029227D02*
X130978299Y-82029227D01*
X131216394Y-81695894D02*
X131216394Y-82553036D01*
X131216394Y-82553036D02*
X131168775Y-82648275D01*
X131168775Y-82648275D02*
X131073537Y-82695894D01*
X131073537Y-82695894D02*
X130978299Y-82695894D01*
X130644965Y-82695894D02*
X130644965Y-81695894D01*
X130216394Y-82695894D02*
X130216394Y-82172084D01*
X130216394Y-82172084D02*
X130264013Y-82076846D01*
X130264013Y-82076846D02*
X130359251Y-82029227D01*
X130359251Y-82029227D02*
X130502108Y-82029227D01*
X130502108Y-82029227D02*
X130597346Y-82076846D01*
X130597346Y-82076846D02*
X130644965Y-82124465D01*
X128978298Y-82695894D02*
X128978298Y-81695894D01*
X128549727Y-82695894D02*
X128549727Y-82172084D01*
X128549727Y-82172084D02*
X128597346Y-82076846D01*
X128597346Y-82076846D02*
X128692584Y-82029227D01*
X128692584Y-82029227D02*
X128835441Y-82029227D01*
X128835441Y-82029227D02*
X128930679Y-82076846D01*
X128930679Y-82076846D02*
X128978298Y-82124465D01*
X127692584Y-82648275D02*
X127787822Y-82695894D01*
X127787822Y-82695894D02*
X127978298Y-82695894D01*
X127978298Y-82695894D02*
X128073536Y-82648275D01*
X128073536Y-82648275D02*
X128121155Y-82553036D01*
X128121155Y-82553036D02*
X128121155Y-82172084D01*
X128121155Y-82172084D02*
X128073536Y-82076846D01*
X128073536Y-82076846D02*
X127978298Y-82029227D01*
X127978298Y-82029227D02*
X127787822Y-82029227D01*
X127787822Y-82029227D02*
X127692584Y-82076846D01*
X127692584Y-82076846D02*
X127644965Y-82172084D01*
X127644965Y-82172084D02*
X127644965Y-82267322D01*
X127644965Y-82267322D02*
X128121155Y-82362560D01*
X127073536Y-82695894D02*
X127168774Y-82648275D01*
X127168774Y-82648275D02*
X127216393Y-82553036D01*
X127216393Y-82553036D02*
X127216393Y-81695894D01*
X126692583Y-82029227D02*
X126692583Y-83029227D01*
X126692583Y-82076846D02*
X126597345Y-82029227D01*
X126597345Y-82029227D02*
X126406869Y-82029227D01*
X126406869Y-82029227D02*
X126311631Y-82076846D01*
X126311631Y-82076846D02*
X126264012Y-82124465D01*
X126264012Y-82124465D02*
X126216393Y-82219703D01*
X126216393Y-82219703D02*
X126216393Y-82505417D01*
X126216393Y-82505417D02*
X126264012Y-82600655D01*
X126264012Y-82600655D02*
X126311631Y-82648275D01*
X126311631Y-82648275D02*
X126406869Y-82695894D01*
X126406869Y-82695894D02*
X126597345Y-82695894D01*
X126597345Y-82695894D02*
X126692583Y-82648275D01*
X125168773Y-82029227D02*
X124787821Y-82029227D01*
X125025916Y-82695894D02*
X125025916Y-81838751D01*
X125025916Y-81838751D02*
X124978297Y-81743513D01*
X124978297Y-81743513D02*
X124883059Y-81695894D01*
X124883059Y-81695894D02*
X124787821Y-81695894D01*
X124454487Y-82695894D02*
X124454487Y-82029227D01*
X124454487Y-82219703D02*
X124406868Y-82124465D01*
X124406868Y-82124465D02*
X124359249Y-82076846D01*
X124359249Y-82076846D02*
X124264011Y-82029227D01*
X124264011Y-82029227D02*
X124168773Y-82029227D01*
X123692582Y-82695894D02*
X123787820Y-82648275D01*
X123787820Y-82648275D02*
X123835439Y-82600655D01*
X123835439Y-82600655D02*
X123883058Y-82505417D01*
X123883058Y-82505417D02*
X123883058Y-82219703D01*
X123883058Y-82219703D02*
X123835439Y-82124465D01*
X123835439Y-82124465D02*
X123787820Y-82076846D01*
X123787820Y-82076846D02*
X123692582Y-82029227D01*
X123692582Y-82029227D02*
X123549725Y-82029227D01*
X123549725Y-82029227D02*
X123454487Y-82076846D01*
X123454487Y-82076846D02*
X123406868Y-82124465D01*
X123406868Y-82124465D02*
X123359249Y-82219703D01*
X123359249Y-82219703D02*
X123359249Y-82505417D01*
X123359249Y-82505417D02*
X123406868Y-82600655D01*
X123406868Y-82600655D02*
X123454487Y-82648275D01*
X123454487Y-82648275D02*
X123549725Y-82695894D01*
X123549725Y-82695894D02*
X123692582Y-82695894D01*
X122930677Y-82695894D02*
X122930677Y-82029227D01*
X122930677Y-82124465D02*
X122883058Y-82076846D01*
X122883058Y-82076846D02*
X122787820Y-82029227D01*
X122787820Y-82029227D02*
X122644963Y-82029227D01*
X122644963Y-82029227D02*
X122549725Y-82076846D01*
X122549725Y-82076846D02*
X122502106Y-82172084D01*
X122502106Y-82172084D02*
X122502106Y-82695894D01*
X122502106Y-82172084D02*
X122454487Y-82076846D01*
X122454487Y-82076846D02*
X122359249Y-82029227D01*
X122359249Y-82029227D02*
X122216392Y-82029227D01*
X122216392Y-82029227D02*
X122121153Y-82076846D01*
X122121153Y-82076846D02*
X122073534Y-82172084D01*
X122073534Y-82172084D02*
X122073534Y-82695894D01*
X120264011Y-82600655D02*
X120311630Y-82648275D01*
X120311630Y-82648275D02*
X120454487Y-82695894D01*
X120454487Y-82695894D02*
X120549725Y-82695894D01*
X120549725Y-82695894D02*
X120692582Y-82648275D01*
X120692582Y-82648275D02*
X120787820Y-82553036D01*
X120787820Y-82553036D02*
X120835439Y-82457798D01*
X120835439Y-82457798D02*
X120883058Y-82267322D01*
X120883058Y-82267322D02*
X120883058Y-82124465D01*
X120883058Y-82124465D02*
X120835439Y-81933989D01*
X120835439Y-81933989D02*
X120787820Y-81838751D01*
X120787820Y-81838751D02*
X120692582Y-81743513D01*
X120692582Y-81743513D02*
X120549725Y-81695894D01*
X120549725Y-81695894D02*
X120454487Y-81695894D01*
X120454487Y-81695894D02*
X120311630Y-81743513D01*
X120311630Y-81743513D02*
X120264011Y-81791132D01*
X119930677Y-82029227D02*
X119692582Y-82695894D01*
X119454487Y-82029227D02*
X119692582Y-82695894D01*
X119692582Y-82695894D02*
X119787820Y-82933989D01*
X119787820Y-82933989D02*
X119835439Y-82981608D01*
X119835439Y-82981608D02*
X119930677Y-83029227D01*
X119073534Y-82695894D02*
X119073534Y-82029227D01*
X119073534Y-82219703D02*
X119025915Y-82124465D01*
X119025915Y-82124465D02*
X118978296Y-82076846D01*
X118978296Y-82076846D02*
X118883058Y-82029227D01*
X118883058Y-82029227D02*
X118787820Y-82029227D01*
X118454486Y-82695894D02*
X118454486Y-82029227D01*
X118454486Y-81695894D02*
X118502105Y-81743513D01*
X118502105Y-81743513D02*
X118454486Y-81791132D01*
X118454486Y-81791132D02*
X118406867Y-81743513D01*
X118406867Y-81743513D02*
X118454486Y-81695894D01*
X118454486Y-81695894D02*
X118454486Y-81791132D01*
X117835439Y-82695894D02*
X117930677Y-82648275D01*
X117930677Y-82648275D02*
X117978296Y-82553036D01*
X117978296Y-82553036D02*
X117978296Y-81695894D01*
X117406867Y-82648275D02*
X117406867Y-82695894D01*
X117406867Y-82695894D02*
X117454486Y-82791132D01*
X117454486Y-82791132D02*
X117502105Y-82838751D01*
X115883058Y-82172084D02*
X116216391Y-82172084D01*
X116216391Y-82695894D02*
X116216391Y-81695894D01*
X116216391Y-81695894D02*
X115740201Y-81695894D01*
X115359248Y-82695894D02*
X115359248Y-82029227D01*
X115359248Y-82219703D02*
X115311629Y-82124465D01*
X115311629Y-82124465D02*
X115264010Y-82076846D01*
X115264010Y-82076846D02*
X115168772Y-82029227D01*
X115168772Y-82029227D02*
X115073534Y-82029227D01*
X114359248Y-82648275D02*
X114454486Y-82695894D01*
X114454486Y-82695894D02*
X114644962Y-82695894D01*
X114644962Y-82695894D02*
X114740200Y-82648275D01*
X114740200Y-82648275D02*
X114787819Y-82553036D01*
X114787819Y-82553036D02*
X114787819Y-82172084D01*
X114787819Y-82172084D02*
X114740200Y-82076846D01*
X114740200Y-82076846D02*
X114644962Y-82029227D01*
X114644962Y-82029227D02*
X114454486Y-82029227D01*
X114454486Y-82029227D02*
X114359248Y-82076846D01*
X114359248Y-82076846D02*
X114311629Y-82172084D01*
X114311629Y-82172084D02*
X114311629Y-82267322D01*
X114311629Y-82267322D02*
X114787819Y-82362560D01*
X113454486Y-82695894D02*
X113454486Y-81695894D01*
X113454486Y-82648275D02*
X113549724Y-82695894D01*
X113549724Y-82695894D02*
X113740200Y-82695894D01*
X113740200Y-82695894D02*
X113835438Y-82648275D01*
X113835438Y-82648275D02*
X113883057Y-82600655D01*
X113883057Y-82600655D02*
X113930676Y-82505417D01*
X113930676Y-82505417D02*
X113930676Y-82219703D01*
X113930676Y-82219703D02*
X113883057Y-82124465D01*
X113883057Y-82124465D02*
X113835438Y-82076846D01*
X113835438Y-82076846D02*
X113740200Y-82029227D01*
X113740200Y-82029227D02*
X113549724Y-82029227D01*
X113549724Y-82029227D02*
X113454486Y-82076846D01*
X112597343Y-82648275D02*
X112692581Y-82695894D01*
X112692581Y-82695894D02*
X112883057Y-82695894D01*
X112883057Y-82695894D02*
X112978295Y-82648275D01*
X112978295Y-82648275D02*
X113025914Y-82553036D01*
X113025914Y-82553036D02*
X113025914Y-82172084D01*
X113025914Y-82172084D02*
X112978295Y-82076846D01*
X112978295Y-82076846D02*
X112883057Y-82029227D01*
X112883057Y-82029227D02*
X112692581Y-82029227D01*
X112692581Y-82029227D02*
X112597343Y-82076846D01*
X112597343Y-82076846D02*
X112549724Y-82172084D01*
X112549724Y-82172084D02*
X112549724Y-82267322D01*
X112549724Y-82267322D02*
X113025914Y-82362560D01*
X112121152Y-82695894D02*
X112121152Y-82029227D01*
X112121152Y-82219703D02*
X112073533Y-82124465D01*
X112073533Y-82124465D02*
X112025914Y-82076846D01*
X112025914Y-82076846D02*
X111930676Y-82029227D01*
X111930676Y-82029227D02*
X111835438Y-82029227D01*
X111502104Y-82695894D02*
X111502104Y-82029227D01*
X111502104Y-81695894D02*
X111549723Y-81743513D01*
X111549723Y-81743513D02*
X111502104Y-81791132D01*
X111502104Y-81791132D02*
X111454485Y-81743513D01*
X111454485Y-81743513D02*
X111502104Y-81695894D01*
X111502104Y-81695894D02*
X111502104Y-81791132D01*
X111025914Y-82695894D02*
X111025914Y-82029227D01*
X111025914Y-82219703D02*
X110978295Y-82124465D01*
X110978295Y-82124465D02*
X110930676Y-82076846D01*
X110930676Y-82076846D02*
X110835438Y-82029227D01*
X110835438Y-82029227D02*
X110740200Y-82029227D01*
X132978298Y-84915894D02*
X132406870Y-84915894D01*
X132692584Y-85915894D02*
X132692584Y-84915894D01*
X132073536Y-85915894D02*
X132073536Y-84915894D01*
X131644965Y-85915894D02*
X131644965Y-85392084D01*
X131644965Y-85392084D02*
X131692584Y-85296846D01*
X131692584Y-85296846D02*
X131787822Y-85249227D01*
X131787822Y-85249227D02*
X131930679Y-85249227D01*
X131930679Y-85249227D02*
X132025917Y-85296846D01*
X132025917Y-85296846D02*
X132073536Y-85344465D01*
X130740203Y-85915894D02*
X130740203Y-85392084D01*
X130740203Y-85392084D02*
X130787822Y-85296846D01*
X130787822Y-85296846D02*
X130883060Y-85249227D01*
X130883060Y-85249227D02*
X131073536Y-85249227D01*
X131073536Y-85249227D02*
X131168774Y-85296846D01*
X130740203Y-85868275D02*
X130835441Y-85915894D01*
X130835441Y-85915894D02*
X131073536Y-85915894D01*
X131073536Y-85915894D02*
X131168774Y-85868275D01*
X131168774Y-85868275D02*
X131216393Y-85773036D01*
X131216393Y-85773036D02*
X131216393Y-85677798D01*
X131216393Y-85677798D02*
X131168774Y-85582560D01*
X131168774Y-85582560D02*
X131073536Y-85534941D01*
X131073536Y-85534941D02*
X130835441Y-85534941D01*
X130835441Y-85534941D02*
X130740203Y-85487322D01*
X130264012Y-85249227D02*
X130264012Y-85915894D01*
X130264012Y-85344465D02*
X130216393Y-85296846D01*
X130216393Y-85296846D02*
X130121155Y-85249227D01*
X130121155Y-85249227D02*
X129978298Y-85249227D01*
X129978298Y-85249227D02*
X129883060Y-85296846D01*
X129883060Y-85296846D02*
X129835441Y-85392084D01*
X129835441Y-85392084D02*
X129835441Y-85915894D01*
X129359250Y-85915894D02*
X129359250Y-84915894D01*
X129264012Y-85534941D02*
X128978298Y-85915894D01*
X128978298Y-85249227D02*
X129359250Y-85630179D01*
X128597345Y-85868275D02*
X128502107Y-85915894D01*
X128502107Y-85915894D02*
X128311631Y-85915894D01*
X128311631Y-85915894D02*
X128216393Y-85868275D01*
X128216393Y-85868275D02*
X128168774Y-85773036D01*
X128168774Y-85773036D02*
X128168774Y-85725417D01*
X128168774Y-85725417D02*
X128216393Y-85630179D01*
X128216393Y-85630179D02*
X128311631Y-85582560D01*
X128311631Y-85582560D02*
X128454488Y-85582560D01*
X128454488Y-85582560D02*
X128549726Y-85534941D01*
X128549726Y-85534941D02*
X128597345Y-85439703D01*
X128597345Y-85439703D02*
X128597345Y-85392084D01*
X128597345Y-85392084D02*
X128549726Y-85296846D01*
X128549726Y-85296846D02*
X128454488Y-85249227D01*
X128454488Y-85249227D02*
X128311631Y-85249227D01*
X128311631Y-85249227D02*
X128216393Y-85296846D01*
X127121154Y-85249227D02*
X126740202Y-85249227D01*
X126978297Y-84915894D02*
X126978297Y-85773036D01*
X126978297Y-85773036D02*
X126930678Y-85868275D01*
X126930678Y-85868275D02*
X126835440Y-85915894D01*
X126835440Y-85915894D02*
X126740202Y-85915894D01*
X126264011Y-85915894D02*
X126359249Y-85868275D01*
X126359249Y-85868275D02*
X126406868Y-85820655D01*
X126406868Y-85820655D02*
X126454487Y-85725417D01*
X126454487Y-85725417D02*
X126454487Y-85439703D01*
X126454487Y-85439703D02*
X126406868Y-85344465D01*
X126406868Y-85344465D02*
X126359249Y-85296846D01*
X126359249Y-85296846D02*
X126264011Y-85249227D01*
X126264011Y-85249227D02*
X126121154Y-85249227D01*
X126121154Y-85249227D02*
X126025916Y-85296846D01*
X126025916Y-85296846D02*
X125978297Y-85344465D01*
X125978297Y-85344465D02*
X125930678Y-85439703D01*
X125930678Y-85439703D02*
X125930678Y-85725417D01*
X125930678Y-85725417D02*
X125978297Y-85820655D01*
X125978297Y-85820655D02*
X126025916Y-85868275D01*
X126025916Y-85868275D02*
X126121154Y-85915894D01*
X126121154Y-85915894D02*
X126264011Y-85915894D01*
X124883058Y-85249227D02*
X124502106Y-85249227D01*
X124740201Y-84915894D02*
X124740201Y-85773036D01*
X124740201Y-85773036D02*
X124692582Y-85868275D01*
X124692582Y-85868275D02*
X124597344Y-85915894D01*
X124597344Y-85915894D02*
X124502106Y-85915894D01*
X124168772Y-85915894D02*
X124168772Y-84915894D01*
X123740201Y-85915894D02*
X123740201Y-85392084D01*
X123740201Y-85392084D02*
X123787820Y-85296846D01*
X123787820Y-85296846D02*
X123883058Y-85249227D01*
X123883058Y-85249227D02*
X124025915Y-85249227D01*
X124025915Y-85249227D02*
X124121153Y-85296846D01*
X124121153Y-85296846D02*
X124168772Y-85344465D01*
X122883058Y-85868275D02*
X122978296Y-85915894D01*
X122978296Y-85915894D02*
X123168772Y-85915894D01*
X123168772Y-85915894D02*
X123264010Y-85868275D01*
X123264010Y-85868275D02*
X123311629Y-85773036D01*
X123311629Y-85773036D02*
X123311629Y-85392084D01*
X123311629Y-85392084D02*
X123264010Y-85296846D01*
X123264010Y-85296846D02*
X123168772Y-85249227D01*
X123168772Y-85249227D02*
X122978296Y-85249227D01*
X122978296Y-85249227D02*
X122883058Y-85296846D01*
X122883058Y-85296846D02*
X122835439Y-85392084D01*
X122835439Y-85392084D02*
X122835439Y-85487322D01*
X122835439Y-85487322D02*
X123311629Y-85582560D01*
X121216391Y-85249227D02*
X121216391Y-86058751D01*
X121216391Y-86058751D02*
X121264010Y-86153989D01*
X121264010Y-86153989D02*
X121311629Y-86201608D01*
X121311629Y-86201608D02*
X121406867Y-86249227D01*
X121406867Y-86249227D02*
X121549724Y-86249227D01*
X121549724Y-86249227D02*
X121644962Y-86201608D01*
X121216391Y-85868275D02*
X121311629Y-85915894D01*
X121311629Y-85915894D02*
X121502105Y-85915894D01*
X121502105Y-85915894D02*
X121597343Y-85868275D01*
X121597343Y-85868275D02*
X121644962Y-85820655D01*
X121644962Y-85820655D02*
X121692581Y-85725417D01*
X121692581Y-85725417D02*
X121692581Y-85439703D01*
X121692581Y-85439703D02*
X121644962Y-85344465D01*
X121644962Y-85344465D02*
X121597343Y-85296846D01*
X121597343Y-85296846D02*
X121502105Y-85249227D01*
X121502105Y-85249227D02*
X121311629Y-85249227D01*
X121311629Y-85249227D02*
X121216391Y-85296846D01*
X120359248Y-85868275D02*
X120454486Y-85915894D01*
X120454486Y-85915894D02*
X120644962Y-85915894D01*
X120644962Y-85915894D02*
X120740200Y-85868275D01*
X120740200Y-85868275D02*
X120787819Y-85773036D01*
X120787819Y-85773036D02*
X120787819Y-85392084D01*
X120787819Y-85392084D02*
X120740200Y-85296846D01*
X120740200Y-85296846D02*
X120644962Y-85249227D01*
X120644962Y-85249227D02*
X120454486Y-85249227D01*
X120454486Y-85249227D02*
X120359248Y-85296846D01*
X120359248Y-85296846D02*
X120311629Y-85392084D01*
X120311629Y-85392084D02*
X120311629Y-85487322D01*
X120311629Y-85487322D02*
X120787819Y-85582560D01*
X119883057Y-85249227D02*
X119883057Y-85915894D01*
X119883057Y-85344465D02*
X119835438Y-85296846D01*
X119835438Y-85296846D02*
X119740200Y-85249227D01*
X119740200Y-85249227D02*
X119597343Y-85249227D01*
X119597343Y-85249227D02*
X119502105Y-85296846D01*
X119502105Y-85296846D02*
X119454486Y-85392084D01*
X119454486Y-85392084D02*
X119454486Y-85915894D01*
X118597343Y-85868275D02*
X118692581Y-85915894D01*
X118692581Y-85915894D02*
X118883057Y-85915894D01*
X118883057Y-85915894D02*
X118978295Y-85868275D01*
X118978295Y-85868275D02*
X119025914Y-85773036D01*
X119025914Y-85773036D02*
X119025914Y-85392084D01*
X119025914Y-85392084D02*
X118978295Y-85296846D01*
X118978295Y-85296846D02*
X118883057Y-85249227D01*
X118883057Y-85249227D02*
X118692581Y-85249227D01*
X118692581Y-85249227D02*
X118597343Y-85296846D01*
X118597343Y-85296846D02*
X118549724Y-85392084D01*
X118549724Y-85392084D02*
X118549724Y-85487322D01*
X118549724Y-85487322D02*
X119025914Y-85582560D01*
X118121152Y-85915894D02*
X118121152Y-85249227D01*
X118121152Y-85439703D02*
X118073533Y-85344465D01*
X118073533Y-85344465D02*
X118025914Y-85296846D01*
X118025914Y-85296846D02*
X117930676Y-85249227D01*
X117930676Y-85249227D02*
X117835438Y-85249227D01*
X117359247Y-85915894D02*
X117454485Y-85868275D01*
X117454485Y-85868275D02*
X117502104Y-85820655D01*
X117502104Y-85820655D02*
X117549723Y-85725417D01*
X117549723Y-85725417D02*
X117549723Y-85439703D01*
X117549723Y-85439703D02*
X117502104Y-85344465D01*
X117502104Y-85344465D02*
X117454485Y-85296846D01*
X117454485Y-85296846D02*
X117359247Y-85249227D01*
X117359247Y-85249227D02*
X117216390Y-85249227D01*
X117216390Y-85249227D02*
X117121152Y-85296846D01*
X117121152Y-85296846D02*
X117073533Y-85344465D01*
X117073533Y-85344465D02*
X117025914Y-85439703D01*
X117025914Y-85439703D02*
X117025914Y-85725417D01*
X117025914Y-85725417D02*
X117073533Y-85820655D01*
X117073533Y-85820655D02*
X117121152Y-85868275D01*
X117121152Y-85868275D02*
X117216390Y-85915894D01*
X117216390Y-85915894D02*
X117359247Y-85915894D01*
X116168771Y-85249227D02*
X116168771Y-85915894D01*
X116597342Y-85249227D02*
X116597342Y-85773036D01*
X116597342Y-85773036D02*
X116549723Y-85868275D01*
X116549723Y-85868275D02*
X116454485Y-85915894D01*
X116454485Y-85915894D02*
X116311628Y-85915894D01*
X116311628Y-85915894D02*
X116216390Y-85868275D01*
X116216390Y-85868275D02*
X116168771Y-85820655D01*
X115740199Y-85868275D02*
X115644961Y-85915894D01*
X115644961Y-85915894D02*
X115454485Y-85915894D01*
X115454485Y-85915894D02*
X115359247Y-85868275D01*
X115359247Y-85868275D02*
X115311628Y-85773036D01*
X115311628Y-85773036D02*
X115311628Y-85725417D01*
X115311628Y-85725417D02*
X115359247Y-85630179D01*
X115359247Y-85630179D02*
X115454485Y-85582560D01*
X115454485Y-85582560D02*
X115597342Y-85582560D01*
X115597342Y-85582560D02*
X115692580Y-85534941D01*
X115692580Y-85534941D02*
X115740199Y-85439703D01*
X115740199Y-85439703D02*
X115740199Y-85392084D01*
X115740199Y-85392084D02*
X115692580Y-85296846D01*
X115692580Y-85296846D02*
X115597342Y-85249227D01*
X115597342Y-85249227D02*
X115454485Y-85249227D01*
X115454485Y-85249227D02*
X115359247Y-85296846D01*
X114168770Y-85868275D02*
X114073532Y-85915894D01*
X114073532Y-85915894D02*
X113883056Y-85915894D01*
X113883056Y-85915894D02*
X113787818Y-85868275D01*
X113787818Y-85868275D02*
X113740199Y-85773036D01*
X113740199Y-85773036D02*
X113740199Y-85725417D01*
X113740199Y-85725417D02*
X113787818Y-85630179D01*
X113787818Y-85630179D02*
X113883056Y-85582560D01*
X113883056Y-85582560D02*
X114025913Y-85582560D01*
X114025913Y-85582560D02*
X114121151Y-85534941D01*
X114121151Y-85534941D02*
X114168770Y-85439703D01*
X114168770Y-85439703D02*
X114168770Y-85392084D01*
X114168770Y-85392084D02*
X114121151Y-85296846D01*
X114121151Y-85296846D02*
X114025913Y-85249227D01*
X114025913Y-85249227D02*
X113883056Y-85249227D01*
X113883056Y-85249227D02*
X113787818Y-85296846D01*
X113311627Y-85249227D02*
X113311627Y-86249227D01*
X113311627Y-85296846D02*
X113216389Y-85249227D01*
X113216389Y-85249227D02*
X113025913Y-85249227D01*
X113025913Y-85249227D02*
X112930675Y-85296846D01*
X112930675Y-85296846D02*
X112883056Y-85344465D01*
X112883056Y-85344465D02*
X112835437Y-85439703D01*
X112835437Y-85439703D02*
X112835437Y-85725417D01*
X112835437Y-85725417D02*
X112883056Y-85820655D01*
X112883056Y-85820655D02*
X112930675Y-85868275D01*
X112930675Y-85868275D02*
X113025913Y-85915894D01*
X113025913Y-85915894D02*
X113216389Y-85915894D01*
X113216389Y-85915894D02*
X113311627Y-85868275D01*
X112406865Y-85249227D02*
X112406865Y-85915894D01*
X112406865Y-85344465D02*
X112359246Y-85296846D01*
X112359246Y-85296846D02*
X112264008Y-85249227D01*
X112264008Y-85249227D02*
X112121151Y-85249227D01*
X112121151Y-85249227D02*
X112025913Y-85296846D01*
X112025913Y-85296846D02*
X111978294Y-85392084D01*
X111978294Y-85392084D02*
X111978294Y-85915894D01*
X111549722Y-85868275D02*
X111454484Y-85915894D01*
X111454484Y-85915894D02*
X111264008Y-85915894D01*
X111264008Y-85915894D02*
X111168770Y-85868275D01*
X111168770Y-85868275D02*
X111121151Y-85773036D01*
X111121151Y-85773036D02*
X111121151Y-85725417D01*
X111121151Y-85725417D02*
X111168770Y-85630179D01*
X111168770Y-85630179D02*
X111264008Y-85582560D01*
X111264008Y-85582560D02*
X111406865Y-85582560D01*
X111406865Y-85582560D02*
X111502103Y-85534941D01*
X111502103Y-85534941D02*
X111549722Y-85439703D01*
X111549722Y-85439703D02*
X111549722Y-85392084D01*
X111549722Y-85392084D02*
X111502103Y-85296846D01*
X111502103Y-85296846D02*
X111406865Y-85249227D01*
X111406865Y-85249227D02*
X111264008Y-85249227D01*
X111264008Y-85249227D02*
X111168770Y-85296846D01*
X110549722Y-85915894D02*
X110644960Y-85868275D01*
X110644960Y-85868275D02*
X110692579Y-85820655D01*
X110692579Y-85820655D02*
X110740198Y-85725417D01*
X110740198Y-85725417D02*
X110740198Y-85439703D01*
X110740198Y-85439703D02*
X110692579Y-85344465D01*
X110692579Y-85344465D02*
X110644960Y-85296846D01*
X110644960Y-85296846D02*
X110549722Y-85249227D01*
X110549722Y-85249227D02*
X110406865Y-85249227D01*
X110406865Y-85249227D02*
X110311627Y-85296846D01*
X110311627Y-85296846D02*
X110264008Y-85344465D01*
X110264008Y-85344465D02*
X110216389Y-85439703D01*
X110216389Y-85439703D02*
X110216389Y-85725417D01*
X110216389Y-85725417D02*
X110264008Y-85820655D01*
X110264008Y-85820655D02*
X110311627Y-85868275D01*
X110311627Y-85868275D02*
X110406865Y-85915894D01*
X110406865Y-85915894D02*
X110549722Y-85915894D01*
X109787817Y-85915894D02*
X109787817Y-85249227D01*
X109787817Y-85439703D02*
X109740198Y-85344465D01*
X109740198Y-85344465D02*
X109692579Y-85296846D01*
X109692579Y-85296846D02*
X109597341Y-85249227D01*
X109597341Y-85249227D02*
X109502103Y-85249227D01*
X109216388Y-85868275D02*
X109121150Y-85915894D01*
X109121150Y-85915894D02*
X108930674Y-85915894D01*
X108930674Y-85915894D02*
X108835436Y-85868275D01*
X108835436Y-85868275D02*
X108787817Y-85773036D01*
X108787817Y-85773036D02*
X108787817Y-85725417D01*
X108787817Y-85725417D02*
X108835436Y-85630179D01*
X108835436Y-85630179D02*
X108930674Y-85582560D01*
X108930674Y-85582560D02*
X109073531Y-85582560D01*
X109073531Y-85582560D02*
X109168769Y-85534941D01*
X109168769Y-85534941D02*
X109216388Y-85439703D01*
X109216388Y-85439703D02*
X109216388Y-85392084D01*
X109216388Y-85392084D02*
X109168769Y-85296846D01*
X109168769Y-85296846D02*
X109073531Y-85249227D01*
X109073531Y-85249227D02*
X108930674Y-85249227D01*
X108930674Y-85249227D02*
X108835436Y-85296846D01*
X107454483Y-85915894D02*
X107549721Y-85868275D01*
X107549721Y-85868275D02*
X107597340Y-85820655D01*
X107597340Y-85820655D02*
X107644959Y-85725417D01*
X107644959Y-85725417D02*
X107644959Y-85439703D01*
X107644959Y-85439703D02*
X107597340Y-85344465D01*
X107597340Y-85344465D02*
X107549721Y-85296846D01*
X107549721Y-85296846D02*
X107454483Y-85249227D01*
X107454483Y-85249227D02*
X107311626Y-85249227D01*
X107311626Y-85249227D02*
X107216388Y-85296846D01*
X107216388Y-85296846D02*
X107168769Y-85344465D01*
X107168769Y-85344465D02*
X107121150Y-85439703D01*
X107121150Y-85439703D02*
X107121150Y-85725417D01*
X107121150Y-85725417D02*
X107168769Y-85820655D01*
X107168769Y-85820655D02*
X107216388Y-85868275D01*
X107216388Y-85868275D02*
X107311626Y-85915894D01*
X107311626Y-85915894D02*
X107454483Y-85915894D01*
X106835435Y-85249227D02*
X106454483Y-85249227D01*
X106692578Y-85915894D02*
X106692578Y-85058751D01*
X106692578Y-85058751D02*
X106644959Y-84963513D01*
X106644959Y-84963513D02*
X106549721Y-84915894D01*
X106549721Y-84915894D02*
X106454483Y-84915894D01*
X105502101Y-85249227D02*
X105121149Y-85249227D01*
X105359244Y-84915894D02*
X105359244Y-85773036D01*
X105359244Y-85773036D02*
X105311625Y-85868275D01*
X105311625Y-85868275D02*
X105216387Y-85915894D01*
X105216387Y-85915894D02*
X105121149Y-85915894D01*
X104787815Y-85915894D02*
X104787815Y-84915894D01*
X104359244Y-85915894D02*
X104359244Y-85392084D01*
X104359244Y-85392084D02*
X104406863Y-85296846D01*
X104406863Y-85296846D02*
X104502101Y-85249227D01*
X104502101Y-85249227D02*
X104644958Y-85249227D01*
X104644958Y-85249227D02*
X104740196Y-85296846D01*
X104740196Y-85296846D02*
X104787815Y-85344465D01*
X103883053Y-85915894D02*
X103883053Y-85249227D01*
X103883053Y-84915894D02*
X103930672Y-84963513D01*
X103930672Y-84963513D02*
X103883053Y-85011132D01*
X103883053Y-85011132D02*
X103835434Y-84963513D01*
X103835434Y-84963513D02*
X103883053Y-84915894D01*
X103883053Y-84915894D02*
X103883053Y-85011132D01*
X103454482Y-85868275D02*
X103359244Y-85915894D01*
X103359244Y-85915894D02*
X103168768Y-85915894D01*
X103168768Y-85915894D02*
X103073530Y-85868275D01*
X103073530Y-85868275D02*
X103025911Y-85773036D01*
X103025911Y-85773036D02*
X103025911Y-85725417D01*
X103025911Y-85725417D02*
X103073530Y-85630179D01*
X103073530Y-85630179D02*
X103168768Y-85582560D01*
X103168768Y-85582560D02*
X103311625Y-85582560D01*
X103311625Y-85582560D02*
X103406863Y-85534941D01*
X103406863Y-85534941D02*
X103454482Y-85439703D01*
X103454482Y-85439703D02*
X103454482Y-85392084D01*
X103454482Y-85392084D02*
X103406863Y-85296846D01*
X103406863Y-85296846D02*
X103311625Y-85249227D01*
X103311625Y-85249227D02*
X103168768Y-85249227D01*
X103168768Y-85249227D02*
X103073530Y-85296846D01*
X132835441Y-86859227D02*
X132835441Y-87859227D01*
X132835441Y-86906846D02*
X132740203Y-86859227D01*
X132740203Y-86859227D02*
X132549727Y-86859227D01*
X132549727Y-86859227D02*
X132454489Y-86906846D01*
X132454489Y-86906846D02*
X132406870Y-86954465D01*
X132406870Y-86954465D02*
X132359251Y-87049703D01*
X132359251Y-87049703D02*
X132359251Y-87335417D01*
X132359251Y-87335417D02*
X132406870Y-87430655D01*
X132406870Y-87430655D02*
X132454489Y-87478275D01*
X132454489Y-87478275D02*
X132549727Y-87525894D01*
X132549727Y-87525894D02*
X132740203Y-87525894D01*
X132740203Y-87525894D02*
X132835441Y-87478275D01*
X131930679Y-87525894D02*
X131930679Y-86859227D01*
X131930679Y-87049703D02*
X131883060Y-86954465D01*
X131883060Y-86954465D02*
X131835441Y-86906846D01*
X131835441Y-86906846D02*
X131740203Y-86859227D01*
X131740203Y-86859227D02*
X131644965Y-86859227D01*
X131168774Y-87525894D02*
X131264012Y-87478275D01*
X131264012Y-87478275D02*
X131311631Y-87430655D01*
X131311631Y-87430655D02*
X131359250Y-87335417D01*
X131359250Y-87335417D02*
X131359250Y-87049703D01*
X131359250Y-87049703D02*
X131311631Y-86954465D01*
X131311631Y-86954465D02*
X131264012Y-86906846D01*
X131264012Y-86906846D02*
X131168774Y-86859227D01*
X131168774Y-86859227D02*
X131025917Y-86859227D01*
X131025917Y-86859227D02*
X130930679Y-86906846D01*
X130930679Y-86906846D02*
X130883060Y-86954465D01*
X130883060Y-86954465D02*
X130835441Y-87049703D01*
X130835441Y-87049703D02*
X130835441Y-87335417D01*
X130835441Y-87335417D02*
X130883060Y-87430655D01*
X130883060Y-87430655D02*
X130930679Y-87478275D01*
X130930679Y-87478275D02*
X131025917Y-87525894D01*
X131025917Y-87525894D02*
X131168774Y-87525894D01*
X130406869Y-86859227D02*
X130406869Y-87716370D01*
X130406869Y-87716370D02*
X130454488Y-87811608D01*
X130454488Y-87811608D02*
X130549726Y-87859227D01*
X130549726Y-87859227D02*
X130597345Y-87859227D01*
X130406869Y-86525894D02*
X130454488Y-86573513D01*
X130454488Y-86573513D02*
X130406869Y-86621132D01*
X130406869Y-86621132D02*
X130359250Y-86573513D01*
X130359250Y-86573513D02*
X130406869Y-86525894D01*
X130406869Y-86525894D02*
X130406869Y-86621132D01*
X129549727Y-87478275D02*
X129644965Y-87525894D01*
X129644965Y-87525894D02*
X129835441Y-87525894D01*
X129835441Y-87525894D02*
X129930679Y-87478275D01*
X129930679Y-87478275D02*
X129978298Y-87383036D01*
X129978298Y-87383036D02*
X129978298Y-87002084D01*
X129978298Y-87002084D02*
X129930679Y-86906846D01*
X129930679Y-86906846D02*
X129835441Y-86859227D01*
X129835441Y-86859227D02*
X129644965Y-86859227D01*
X129644965Y-86859227D02*
X129549727Y-86906846D01*
X129549727Y-86906846D02*
X129502108Y-87002084D01*
X129502108Y-87002084D02*
X129502108Y-87097322D01*
X129502108Y-87097322D02*
X129978298Y-87192560D01*
X128644965Y-87478275D02*
X128740203Y-87525894D01*
X128740203Y-87525894D02*
X128930679Y-87525894D01*
X128930679Y-87525894D02*
X129025917Y-87478275D01*
X129025917Y-87478275D02*
X129073536Y-87430655D01*
X129073536Y-87430655D02*
X129121155Y-87335417D01*
X129121155Y-87335417D02*
X129121155Y-87049703D01*
X129121155Y-87049703D02*
X129073536Y-86954465D01*
X129073536Y-86954465D02*
X129025917Y-86906846D01*
X129025917Y-86906846D02*
X128930679Y-86859227D01*
X128930679Y-86859227D02*
X128740203Y-86859227D01*
X128740203Y-86859227D02*
X128644965Y-86906846D01*
X128359250Y-86859227D02*
X127978298Y-86859227D01*
X128216393Y-86525894D02*
X128216393Y-87383036D01*
X128216393Y-87383036D02*
X128168774Y-87478275D01*
X128168774Y-87478275D02*
X128073536Y-87525894D01*
X128073536Y-87525894D02*
X127978298Y-87525894D01*
X127644964Y-87430655D02*
X127597345Y-87478275D01*
X127597345Y-87478275D02*
X127644964Y-87525894D01*
X127644964Y-87525894D02*
X127692583Y-87478275D01*
X127692583Y-87478275D02*
X127644964Y-87430655D01*
X127644964Y-87430655D02*
X127644964Y-87525894D01*
X127644964Y-86906846D02*
X127597345Y-86954465D01*
X127597345Y-86954465D02*
X127644964Y-87002084D01*
X127644964Y-87002084D02*
X127692583Y-86954465D01*
X127692583Y-86954465D02*
X127644964Y-86906846D01*
X127644964Y-86906846D02*
X127644964Y-87002084D01*
X132835441Y-90745894D02*
X132835441Y-89745894D01*
X132835441Y-89745894D02*
X132264013Y-90745894D01*
X132264013Y-90745894D02*
X132264013Y-89745894D01*
X131787822Y-90745894D02*
X131787822Y-90079227D01*
X131787822Y-89745894D02*
X131835441Y-89793513D01*
X131835441Y-89793513D02*
X131787822Y-89841132D01*
X131787822Y-89841132D02*
X131740203Y-89793513D01*
X131740203Y-89793513D02*
X131787822Y-89745894D01*
X131787822Y-89745894D02*
X131787822Y-89841132D01*
X130883061Y-90698275D02*
X130978299Y-90745894D01*
X130978299Y-90745894D02*
X131168775Y-90745894D01*
X131168775Y-90745894D02*
X131264013Y-90698275D01*
X131264013Y-90698275D02*
X131311632Y-90650655D01*
X131311632Y-90650655D02*
X131359251Y-90555417D01*
X131359251Y-90555417D02*
X131359251Y-90269703D01*
X131359251Y-90269703D02*
X131311632Y-90174465D01*
X131311632Y-90174465D02*
X131264013Y-90126846D01*
X131264013Y-90126846D02*
X131168775Y-90079227D01*
X131168775Y-90079227D02*
X130978299Y-90079227D01*
X130978299Y-90079227D02*
X130883061Y-90126846D01*
X130311632Y-90745894D02*
X130406870Y-90698275D01*
X130406870Y-90698275D02*
X130454489Y-90650655D01*
X130454489Y-90650655D02*
X130502108Y-90555417D01*
X130502108Y-90555417D02*
X130502108Y-90269703D01*
X130502108Y-90269703D02*
X130454489Y-90174465D01*
X130454489Y-90174465D02*
X130406870Y-90126846D01*
X130406870Y-90126846D02*
X130311632Y-90079227D01*
X130311632Y-90079227D02*
X130168775Y-90079227D01*
X130168775Y-90079227D02*
X130073537Y-90126846D01*
X130073537Y-90126846D02*
X130025918Y-90174465D01*
X130025918Y-90174465D02*
X129978299Y-90269703D01*
X129978299Y-90269703D02*
X129978299Y-90555417D01*
X129978299Y-90555417D02*
X130025918Y-90650655D01*
X130025918Y-90650655D02*
X130073537Y-90698275D01*
X130073537Y-90698275D02*
X130168775Y-90745894D01*
X130168775Y-90745894D02*
X130311632Y-90745894D01*
X129406870Y-90745894D02*
X129502108Y-90698275D01*
X129502108Y-90698275D02*
X129549727Y-90603036D01*
X129549727Y-90603036D02*
X129549727Y-89745894D01*
X128597346Y-90745894D02*
X128597346Y-90222084D01*
X128597346Y-90222084D02*
X128644965Y-90126846D01*
X128644965Y-90126846D02*
X128740203Y-90079227D01*
X128740203Y-90079227D02*
X128930679Y-90079227D01*
X128930679Y-90079227D02*
X129025917Y-90126846D01*
X128597346Y-90698275D02*
X128692584Y-90745894D01*
X128692584Y-90745894D02*
X128930679Y-90745894D01*
X128930679Y-90745894D02*
X129025917Y-90698275D01*
X129025917Y-90698275D02*
X129073536Y-90603036D01*
X129073536Y-90603036D02*
X129073536Y-90507798D01*
X129073536Y-90507798D02*
X129025917Y-90412560D01*
X129025917Y-90412560D02*
X128930679Y-90364941D01*
X128930679Y-90364941D02*
X128692584Y-90364941D01*
X128692584Y-90364941D02*
X128597346Y-90317322D01*
X128168774Y-90698275D02*
X128073536Y-90745894D01*
X128073536Y-90745894D02*
X127883060Y-90745894D01*
X127883060Y-90745894D02*
X127787822Y-90698275D01*
X127787822Y-90698275D02*
X127740203Y-90603036D01*
X127740203Y-90603036D02*
X127740203Y-90555417D01*
X127740203Y-90555417D02*
X127787822Y-90460179D01*
X127787822Y-90460179D02*
X127883060Y-90412560D01*
X127883060Y-90412560D02*
X128025917Y-90412560D01*
X128025917Y-90412560D02*
X128121155Y-90364941D01*
X128121155Y-90364941D02*
X128168774Y-90269703D01*
X128168774Y-90269703D02*
X128168774Y-90222084D01*
X128168774Y-90222084D02*
X128121155Y-90126846D01*
X128121155Y-90126846D02*
X128025917Y-90079227D01*
X128025917Y-90079227D02*
X127883060Y-90079227D01*
X127883060Y-90079227D02*
X127787822Y-90126846D01*
X126549726Y-90745894D02*
X126549726Y-89745894D01*
X126549726Y-89745894D02*
X126216393Y-90460179D01*
X126216393Y-90460179D02*
X125883060Y-89745894D01*
X125883060Y-89745894D02*
X125883060Y-90745894D01*
X125359250Y-90698275D02*
X125359250Y-90745894D01*
X125359250Y-90745894D02*
X125406869Y-90841132D01*
X125406869Y-90841132D02*
X125454488Y-90888751D01*
X124168774Y-90745894D02*
X124168774Y-89745894D01*
X124168774Y-89745894D02*
X123835441Y-90460179D01*
X123835441Y-90460179D02*
X123502108Y-89745894D01*
X123502108Y-89745894D02*
X123502108Y-90745894D01*
X122883060Y-90745894D02*
X122978298Y-90698275D01*
X122978298Y-90698275D02*
X123025917Y-90650655D01*
X123025917Y-90650655D02*
X123073536Y-90555417D01*
X123073536Y-90555417D02*
X123073536Y-90269703D01*
X123073536Y-90269703D02*
X123025917Y-90174465D01*
X123025917Y-90174465D02*
X122978298Y-90126846D01*
X122978298Y-90126846D02*
X122883060Y-90079227D01*
X122883060Y-90079227D02*
X122740203Y-90079227D01*
X122740203Y-90079227D02*
X122644965Y-90126846D01*
X122644965Y-90126846D02*
X122597346Y-90174465D01*
X122597346Y-90174465D02*
X122549727Y-90269703D01*
X122549727Y-90269703D02*
X122549727Y-90555417D01*
X122549727Y-90555417D02*
X122597346Y-90650655D01*
X122597346Y-90650655D02*
X122644965Y-90698275D01*
X122644965Y-90698275D02*
X122740203Y-90745894D01*
X122740203Y-90745894D02*
X122883060Y-90745894D01*
X122121155Y-90745894D02*
X122121155Y-90079227D01*
X122121155Y-90269703D02*
X122073536Y-90174465D01*
X122073536Y-90174465D02*
X122025917Y-90126846D01*
X122025917Y-90126846D02*
X121930679Y-90079227D01*
X121930679Y-90079227D02*
X121835441Y-90079227D01*
X121073536Y-90079227D02*
X121073536Y-90888751D01*
X121073536Y-90888751D02*
X121121155Y-90983989D01*
X121121155Y-90983989D02*
X121168774Y-91031608D01*
X121168774Y-91031608D02*
X121264012Y-91079227D01*
X121264012Y-91079227D02*
X121406869Y-91079227D01*
X121406869Y-91079227D02*
X121502107Y-91031608D01*
X121073536Y-90698275D02*
X121168774Y-90745894D01*
X121168774Y-90745894D02*
X121359250Y-90745894D01*
X121359250Y-90745894D02*
X121454488Y-90698275D01*
X121454488Y-90698275D02*
X121502107Y-90650655D01*
X121502107Y-90650655D02*
X121549726Y-90555417D01*
X121549726Y-90555417D02*
X121549726Y-90269703D01*
X121549726Y-90269703D02*
X121502107Y-90174465D01*
X121502107Y-90174465D02*
X121454488Y-90126846D01*
X121454488Y-90126846D02*
X121359250Y-90079227D01*
X121359250Y-90079227D02*
X121168774Y-90079227D01*
X121168774Y-90079227D02*
X121073536Y-90126846D01*
X120168774Y-90745894D02*
X120168774Y-90222084D01*
X120168774Y-90222084D02*
X120216393Y-90126846D01*
X120216393Y-90126846D02*
X120311631Y-90079227D01*
X120311631Y-90079227D02*
X120502107Y-90079227D01*
X120502107Y-90079227D02*
X120597345Y-90126846D01*
X120168774Y-90698275D02*
X120264012Y-90745894D01*
X120264012Y-90745894D02*
X120502107Y-90745894D01*
X120502107Y-90745894D02*
X120597345Y-90698275D01*
X120597345Y-90698275D02*
X120644964Y-90603036D01*
X120644964Y-90603036D02*
X120644964Y-90507798D01*
X120644964Y-90507798D02*
X120597345Y-90412560D01*
X120597345Y-90412560D02*
X120502107Y-90364941D01*
X120502107Y-90364941D02*
X120264012Y-90364941D01*
X120264012Y-90364941D02*
X120168774Y-90317322D01*
X119692583Y-90079227D02*
X119692583Y-90745894D01*
X119692583Y-90174465D02*
X119644964Y-90126846D01*
X119644964Y-90126846D02*
X119549726Y-90079227D01*
X119549726Y-90079227D02*
X119406869Y-90079227D01*
X119406869Y-90079227D02*
X119311631Y-90126846D01*
X119311631Y-90126846D02*
X119264012Y-90222084D01*
X119264012Y-90222084D02*
X119264012Y-90745894D01*
X118073535Y-90698275D02*
X117930678Y-90745894D01*
X117930678Y-90745894D02*
X117692583Y-90745894D01*
X117692583Y-90745894D02*
X117597345Y-90698275D01*
X117597345Y-90698275D02*
X117549726Y-90650655D01*
X117549726Y-90650655D02*
X117502107Y-90555417D01*
X117502107Y-90555417D02*
X117502107Y-90460179D01*
X117502107Y-90460179D02*
X117549726Y-90364941D01*
X117549726Y-90364941D02*
X117597345Y-90317322D01*
X117597345Y-90317322D02*
X117692583Y-90269703D01*
X117692583Y-90269703D02*
X117883059Y-90222084D01*
X117883059Y-90222084D02*
X117978297Y-90174465D01*
X117978297Y-90174465D02*
X118025916Y-90126846D01*
X118025916Y-90126846D02*
X118073535Y-90031608D01*
X118073535Y-90031608D02*
X118073535Y-89936370D01*
X118073535Y-89936370D02*
X118025916Y-89841132D01*
X118025916Y-89841132D02*
X117978297Y-89793513D01*
X117978297Y-89793513D02*
X117883059Y-89745894D01*
X117883059Y-89745894D02*
X117644964Y-89745894D01*
X117644964Y-89745894D02*
X117502107Y-89793513D01*
X117025916Y-90698275D02*
X117025916Y-90745894D01*
X117025916Y-90745894D02*
X117073535Y-90841132D01*
X117073535Y-90841132D02*
X117121154Y-90888751D01*
X115883059Y-90460179D02*
X115406869Y-90460179D01*
X115978297Y-90745894D02*
X115644964Y-89745894D01*
X115644964Y-89745894D02*
X115311631Y-90745894D01*
X114835440Y-90745894D02*
X114930678Y-90698275D01*
X114930678Y-90698275D02*
X114978297Y-90603036D01*
X114978297Y-90603036D02*
X114978297Y-89745894D01*
X114073535Y-90698275D02*
X114168773Y-90745894D01*
X114168773Y-90745894D02*
X114359249Y-90745894D01*
X114359249Y-90745894D02*
X114454487Y-90698275D01*
X114454487Y-90698275D02*
X114502106Y-90603036D01*
X114502106Y-90603036D02*
X114502106Y-90222084D01*
X114502106Y-90222084D02*
X114454487Y-90126846D01*
X114454487Y-90126846D02*
X114359249Y-90079227D01*
X114359249Y-90079227D02*
X114168773Y-90079227D01*
X114168773Y-90079227D02*
X114073535Y-90126846D01*
X114073535Y-90126846D02*
X114025916Y-90222084D01*
X114025916Y-90222084D02*
X114025916Y-90317322D01*
X114025916Y-90317322D02*
X114502106Y-90412560D01*
X113597344Y-90745894D02*
X113597344Y-89745894D01*
X113502106Y-90364941D02*
X113216392Y-90745894D01*
X113216392Y-90079227D02*
X113597344Y-90460179D01*
X112835439Y-90698275D02*
X112740201Y-90745894D01*
X112740201Y-90745894D02*
X112549725Y-90745894D01*
X112549725Y-90745894D02*
X112454487Y-90698275D01*
X112454487Y-90698275D02*
X112406868Y-90603036D01*
X112406868Y-90603036D02*
X112406868Y-90555417D01*
X112406868Y-90555417D02*
X112454487Y-90460179D01*
X112454487Y-90460179D02*
X112549725Y-90412560D01*
X112549725Y-90412560D02*
X112692582Y-90412560D01*
X112692582Y-90412560D02*
X112787820Y-90364941D01*
X112787820Y-90364941D02*
X112835439Y-90269703D01*
X112835439Y-90269703D02*
X112835439Y-90222084D01*
X112835439Y-90222084D02*
X112787820Y-90126846D01*
X112787820Y-90126846D02*
X112692582Y-90079227D01*
X112692582Y-90079227D02*
X112549725Y-90079227D01*
X112549725Y-90079227D02*
X112454487Y-90126846D01*
X111216391Y-90745894D02*
X111216391Y-89745894D01*
X111216391Y-89745894D02*
X110978296Y-89745894D01*
X110978296Y-89745894D02*
X110835439Y-89793513D01*
X110835439Y-89793513D02*
X110740201Y-89888751D01*
X110740201Y-89888751D02*
X110692582Y-89983989D01*
X110692582Y-89983989D02*
X110644963Y-90174465D01*
X110644963Y-90174465D02*
X110644963Y-90317322D01*
X110644963Y-90317322D02*
X110692582Y-90507798D01*
X110692582Y-90507798D02*
X110740201Y-90603036D01*
X110740201Y-90603036D02*
X110835439Y-90698275D01*
X110835439Y-90698275D02*
X110978296Y-90745894D01*
X110978296Y-90745894D02*
X111216391Y-90745894D01*
X110168772Y-90698275D02*
X110168772Y-90745894D01*
X110168772Y-90745894D02*
X110216391Y-90841132D01*
X110216391Y-90841132D02*
X110264010Y-90888751D01*
X108454487Y-89793513D02*
X108549725Y-89745894D01*
X108549725Y-89745894D02*
X108692582Y-89745894D01*
X108692582Y-89745894D02*
X108835439Y-89793513D01*
X108835439Y-89793513D02*
X108930677Y-89888751D01*
X108930677Y-89888751D02*
X108978296Y-89983989D01*
X108978296Y-89983989D02*
X109025915Y-90174465D01*
X109025915Y-90174465D02*
X109025915Y-90317322D01*
X109025915Y-90317322D02*
X108978296Y-90507798D01*
X108978296Y-90507798D02*
X108930677Y-90603036D01*
X108930677Y-90603036D02*
X108835439Y-90698275D01*
X108835439Y-90698275D02*
X108692582Y-90745894D01*
X108692582Y-90745894D02*
X108597344Y-90745894D01*
X108597344Y-90745894D02*
X108454487Y-90698275D01*
X108454487Y-90698275D02*
X108406868Y-90650655D01*
X108406868Y-90650655D02*
X108406868Y-90317322D01*
X108406868Y-90317322D02*
X108597344Y-90317322D01*
X107549725Y-90745894D02*
X107549725Y-90222084D01*
X107549725Y-90222084D02*
X107597344Y-90126846D01*
X107597344Y-90126846D02*
X107692582Y-90079227D01*
X107692582Y-90079227D02*
X107883058Y-90079227D01*
X107883058Y-90079227D02*
X107978296Y-90126846D01*
X107549725Y-90698275D02*
X107644963Y-90745894D01*
X107644963Y-90745894D02*
X107883058Y-90745894D01*
X107883058Y-90745894D02*
X107978296Y-90698275D01*
X107978296Y-90698275D02*
X108025915Y-90603036D01*
X108025915Y-90603036D02*
X108025915Y-90507798D01*
X108025915Y-90507798D02*
X107978296Y-90412560D01*
X107978296Y-90412560D02*
X107883058Y-90364941D01*
X107883058Y-90364941D02*
X107644963Y-90364941D01*
X107644963Y-90364941D02*
X107549725Y-90317322D01*
X107073534Y-90745894D02*
X107073534Y-89745894D01*
X107073534Y-90126846D02*
X106978296Y-90079227D01*
X106978296Y-90079227D02*
X106787820Y-90079227D01*
X106787820Y-90079227D02*
X106692582Y-90126846D01*
X106692582Y-90126846D02*
X106644963Y-90174465D01*
X106644963Y-90174465D02*
X106597344Y-90269703D01*
X106597344Y-90269703D02*
X106597344Y-90555417D01*
X106597344Y-90555417D02*
X106644963Y-90650655D01*
X106644963Y-90650655D02*
X106692582Y-90698275D01*
X106692582Y-90698275D02*
X106787820Y-90745894D01*
X106787820Y-90745894D02*
X106978296Y-90745894D01*
X106978296Y-90745894D02*
X107073534Y-90698275D01*
X105740201Y-90079227D02*
X105740201Y-90745894D01*
X106168772Y-90079227D02*
X106168772Y-90603036D01*
X106168772Y-90603036D02*
X106121153Y-90698275D01*
X106121153Y-90698275D02*
X106025915Y-90745894D01*
X106025915Y-90745894D02*
X105883058Y-90745894D01*
X105883058Y-90745894D02*
X105787820Y-90698275D01*
X105787820Y-90698275D02*
X105740201Y-90650655D01*
X103930677Y-90650655D02*
X103978296Y-90698275D01*
X103978296Y-90698275D02*
X104121153Y-90745894D01*
X104121153Y-90745894D02*
X104216391Y-90745894D01*
X104216391Y-90745894D02*
X104359248Y-90698275D01*
X104359248Y-90698275D02*
X104454486Y-90603036D01*
X104454486Y-90603036D02*
X104502105Y-90507798D01*
X104502105Y-90507798D02*
X104549724Y-90317322D01*
X104549724Y-90317322D02*
X104549724Y-90174465D01*
X104549724Y-90174465D02*
X104502105Y-89983989D01*
X104502105Y-89983989D02*
X104454486Y-89888751D01*
X104454486Y-89888751D02*
X104359248Y-89793513D01*
X104359248Y-89793513D02*
X104216391Y-89745894D01*
X104216391Y-89745894D02*
X104121153Y-89745894D01*
X104121153Y-89745894D02*
X103978296Y-89793513D01*
X103978296Y-89793513D02*
X103930677Y-89841132D01*
X103502105Y-90745894D02*
X103502105Y-90079227D01*
X103502105Y-89745894D02*
X103549724Y-89793513D01*
X103549724Y-89793513D02*
X103502105Y-89841132D01*
X103502105Y-89841132D02*
X103454486Y-89793513D01*
X103454486Y-89793513D02*
X103502105Y-89745894D01*
X103502105Y-89745894D02*
X103502105Y-89841132D01*
X103025915Y-90079227D02*
X103025915Y-90745894D01*
X103025915Y-90174465D02*
X102978296Y-90126846D01*
X102978296Y-90126846D02*
X102883058Y-90079227D01*
X102883058Y-90079227D02*
X102740201Y-90079227D01*
X102740201Y-90079227D02*
X102644963Y-90126846D01*
X102644963Y-90126846D02*
X102597344Y-90222084D01*
X102597344Y-90222084D02*
X102597344Y-90745894D01*
X101740201Y-90698275D02*
X101835439Y-90745894D01*
X101835439Y-90745894D02*
X102025915Y-90745894D01*
X102025915Y-90745894D02*
X102121153Y-90698275D01*
X102121153Y-90698275D02*
X102168772Y-90603036D01*
X102168772Y-90603036D02*
X102168772Y-90222084D01*
X102168772Y-90222084D02*
X102121153Y-90126846D01*
X102121153Y-90126846D02*
X102025915Y-90079227D01*
X102025915Y-90079227D02*
X101835439Y-90079227D01*
X101835439Y-90079227D02*
X101740201Y-90126846D01*
X101740201Y-90126846D02*
X101692582Y-90222084D01*
X101692582Y-90222084D02*
X101692582Y-90317322D01*
X101692582Y-90317322D02*
X102168772Y-90412560D01*
X101121153Y-90745894D02*
X101216391Y-90698275D01*
X101216391Y-90698275D02*
X101264010Y-90603036D01*
X101264010Y-90603036D02*
X101264010Y-89745894D01*
X100597343Y-90745894D02*
X100692581Y-90698275D01*
X100692581Y-90698275D02*
X100740200Y-90603036D01*
X100740200Y-90603036D02*
X100740200Y-89745894D01*
X99835438Y-90698275D02*
X99930676Y-90745894D01*
X99930676Y-90745894D02*
X100121152Y-90745894D01*
X100121152Y-90745894D02*
X100216390Y-90698275D01*
X100216390Y-90698275D02*
X100264009Y-90603036D01*
X100264009Y-90603036D02*
X100264009Y-90222084D01*
X100264009Y-90222084D02*
X100216390Y-90126846D01*
X100216390Y-90126846D02*
X100121152Y-90079227D01*
X100121152Y-90079227D02*
X99930676Y-90079227D01*
X99930676Y-90079227D02*
X99835438Y-90126846D01*
X99835438Y-90126846D02*
X99787819Y-90222084D01*
X99787819Y-90222084D02*
X99787819Y-90317322D01*
X99787819Y-90317322D02*
X100264009Y-90412560D01*
X99311628Y-90698275D02*
X99311628Y-90745894D01*
X99311628Y-90745894D02*
X99359247Y-90841132D01*
X99359247Y-90841132D02*
X99406866Y-90888751D01*
X132502108Y-91832084D02*
X132359251Y-91879703D01*
X132359251Y-91879703D02*
X132311632Y-91927322D01*
X132311632Y-91927322D02*
X132264013Y-92022560D01*
X132264013Y-92022560D02*
X132264013Y-92165417D01*
X132264013Y-92165417D02*
X132311632Y-92260655D01*
X132311632Y-92260655D02*
X132359251Y-92308275D01*
X132359251Y-92308275D02*
X132454489Y-92355894D01*
X132454489Y-92355894D02*
X132835441Y-92355894D01*
X132835441Y-92355894D02*
X132835441Y-91355894D01*
X132835441Y-91355894D02*
X132502108Y-91355894D01*
X132502108Y-91355894D02*
X132406870Y-91403513D01*
X132406870Y-91403513D02*
X132359251Y-91451132D01*
X132359251Y-91451132D02*
X132311632Y-91546370D01*
X132311632Y-91546370D02*
X132311632Y-91641608D01*
X132311632Y-91641608D02*
X132359251Y-91736846D01*
X132359251Y-91736846D02*
X132406870Y-91784465D01*
X132406870Y-91784465D02*
X132502108Y-91832084D01*
X132502108Y-91832084D02*
X132835441Y-91832084D01*
X131692584Y-92355894D02*
X131787822Y-92308275D01*
X131787822Y-92308275D02*
X131835441Y-92260655D01*
X131835441Y-92260655D02*
X131883060Y-92165417D01*
X131883060Y-92165417D02*
X131883060Y-91879703D01*
X131883060Y-91879703D02*
X131835441Y-91784465D01*
X131835441Y-91784465D02*
X131787822Y-91736846D01*
X131787822Y-91736846D02*
X131692584Y-91689227D01*
X131692584Y-91689227D02*
X131549727Y-91689227D01*
X131549727Y-91689227D02*
X131454489Y-91736846D01*
X131454489Y-91736846D02*
X131406870Y-91784465D01*
X131406870Y-91784465D02*
X131359251Y-91879703D01*
X131359251Y-91879703D02*
X131359251Y-92165417D01*
X131359251Y-92165417D02*
X131406870Y-92260655D01*
X131406870Y-92260655D02*
X131454489Y-92308275D01*
X131454489Y-92308275D02*
X131549727Y-92355894D01*
X131549727Y-92355894D02*
X131692584Y-92355894D01*
X130930679Y-92355894D02*
X130930679Y-91689227D01*
X130930679Y-91879703D02*
X130883060Y-91784465D01*
X130883060Y-91784465D02*
X130835441Y-91736846D01*
X130835441Y-91736846D02*
X130740203Y-91689227D01*
X130740203Y-91689227D02*
X130644965Y-91689227D01*
X130311631Y-92355894D02*
X130311631Y-91689227D01*
X130311631Y-91355894D02*
X130359250Y-91403513D01*
X130359250Y-91403513D02*
X130311631Y-91451132D01*
X130311631Y-91451132D02*
X130264012Y-91403513D01*
X130264012Y-91403513D02*
X130311631Y-91355894D01*
X130311631Y-91355894D02*
X130311631Y-91451132D01*
X129883060Y-92308275D02*
X129787822Y-92355894D01*
X129787822Y-92355894D02*
X129597346Y-92355894D01*
X129597346Y-92355894D02*
X129502108Y-92308275D01*
X129502108Y-92308275D02*
X129454489Y-92213036D01*
X129454489Y-92213036D02*
X129454489Y-92165417D01*
X129454489Y-92165417D02*
X129502108Y-92070179D01*
X129502108Y-92070179D02*
X129597346Y-92022560D01*
X129597346Y-92022560D02*
X129740203Y-92022560D01*
X129740203Y-92022560D02*
X129835441Y-91974941D01*
X129835441Y-91974941D02*
X129883060Y-91879703D01*
X129883060Y-91879703D02*
X129883060Y-91832084D01*
X129883060Y-91832084D02*
X129835441Y-91736846D01*
X129835441Y-91736846D02*
X129740203Y-91689227D01*
X129740203Y-91689227D02*
X129597346Y-91689227D01*
X129597346Y-91689227D02*
X129502108Y-91736846D01*
X127692584Y-92355894D02*
X128025917Y-91879703D01*
X128264012Y-92355894D02*
X128264012Y-91355894D01*
X128264012Y-91355894D02*
X127883060Y-91355894D01*
X127883060Y-91355894D02*
X127787822Y-91403513D01*
X127787822Y-91403513D02*
X127740203Y-91451132D01*
X127740203Y-91451132D02*
X127692584Y-91546370D01*
X127692584Y-91546370D02*
X127692584Y-91689227D01*
X127692584Y-91689227D02*
X127740203Y-91784465D01*
X127740203Y-91784465D02*
X127787822Y-91832084D01*
X127787822Y-91832084D02*
X127883060Y-91879703D01*
X127883060Y-91879703D02*
X128264012Y-91879703D01*
X127216393Y-92308275D02*
X127216393Y-92355894D01*
X127216393Y-92355894D02*
X127264012Y-92451132D01*
X127264012Y-92451132D02*
X127311631Y-92498751D01*
X126025917Y-92355894D02*
X126025917Y-91355894D01*
X125549727Y-92355894D02*
X125549727Y-91689227D01*
X125549727Y-91355894D02*
X125597346Y-91403513D01*
X125597346Y-91403513D02*
X125549727Y-91451132D01*
X125549727Y-91451132D02*
X125502108Y-91403513D01*
X125502108Y-91403513D02*
X125549727Y-91355894D01*
X125549727Y-91355894D02*
X125549727Y-91451132D01*
X125073537Y-91689227D02*
X125073537Y-92355894D01*
X125073537Y-91784465D02*
X125025918Y-91736846D01*
X125025918Y-91736846D02*
X124930680Y-91689227D01*
X124930680Y-91689227D02*
X124787823Y-91689227D01*
X124787823Y-91689227D02*
X124692585Y-91736846D01*
X124692585Y-91736846D02*
X124644966Y-91832084D01*
X124644966Y-91832084D02*
X124644966Y-92355894D01*
X123740204Y-91689227D02*
X123740204Y-92355894D01*
X124168775Y-91689227D02*
X124168775Y-92213036D01*
X124168775Y-92213036D02*
X124121156Y-92308275D01*
X124121156Y-92308275D02*
X124025918Y-92355894D01*
X124025918Y-92355894D02*
X123883061Y-92355894D01*
X123883061Y-92355894D02*
X123787823Y-92308275D01*
X123787823Y-92308275D02*
X123740204Y-92260655D01*
X123121156Y-92355894D02*
X123216394Y-92308275D01*
X123216394Y-92308275D02*
X123264013Y-92213036D01*
X123264013Y-92213036D02*
X123264013Y-91355894D01*
X122692584Y-92308275D02*
X122692584Y-92355894D01*
X122692584Y-92355894D02*
X122740203Y-92451132D01*
X122740203Y-92451132D02*
X122787822Y-92498751D01*
X121549727Y-92308275D02*
X121406870Y-92355894D01*
X121406870Y-92355894D02*
X121168775Y-92355894D01*
X121168775Y-92355894D02*
X121073537Y-92308275D01*
X121073537Y-92308275D02*
X121025918Y-92260655D01*
X121025918Y-92260655D02*
X120978299Y-92165417D01*
X120978299Y-92165417D02*
X120978299Y-92070179D01*
X120978299Y-92070179D02*
X121025918Y-91974941D01*
X121025918Y-91974941D02*
X121073537Y-91927322D01*
X121073537Y-91927322D02*
X121168775Y-91879703D01*
X121168775Y-91879703D02*
X121359251Y-91832084D01*
X121359251Y-91832084D02*
X121454489Y-91784465D01*
X121454489Y-91784465D02*
X121502108Y-91736846D01*
X121502108Y-91736846D02*
X121549727Y-91641608D01*
X121549727Y-91641608D02*
X121549727Y-91546370D01*
X121549727Y-91546370D02*
X121502108Y-91451132D01*
X121502108Y-91451132D02*
X121454489Y-91403513D01*
X121454489Y-91403513D02*
X121359251Y-91355894D01*
X121359251Y-91355894D02*
X121121156Y-91355894D01*
X121121156Y-91355894D02*
X120978299Y-91403513D01*
X120549727Y-92355894D02*
X120549727Y-91689227D01*
X120549727Y-91355894D02*
X120597346Y-91403513D01*
X120597346Y-91403513D02*
X120549727Y-91451132D01*
X120549727Y-91451132D02*
X120502108Y-91403513D01*
X120502108Y-91403513D02*
X120549727Y-91355894D01*
X120549727Y-91355894D02*
X120549727Y-91451132D01*
X120073537Y-92355894D02*
X120073537Y-91689227D01*
X120073537Y-91784465D02*
X120025918Y-91736846D01*
X120025918Y-91736846D02*
X119930680Y-91689227D01*
X119930680Y-91689227D02*
X119787823Y-91689227D01*
X119787823Y-91689227D02*
X119692585Y-91736846D01*
X119692585Y-91736846D02*
X119644966Y-91832084D01*
X119644966Y-91832084D02*
X119644966Y-92355894D01*
X119644966Y-91832084D02*
X119597347Y-91736846D01*
X119597347Y-91736846D02*
X119502109Y-91689227D01*
X119502109Y-91689227D02*
X119359252Y-91689227D01*
X119359252Y-91689227D02*
X119264013Y-91736846D01*
X119264013Y-91736846D02*
X119216394Y-91832084D01*
X119216394Y-91832084D02*
X119216394Y-92355894D01*
X118597347Y-92355894D02*
X118692585Y-92308275D01*
X118692585Y-92308275D02*
X118740204Y-92260655D01*
X118740204Y-92260655D02*
X118787823Y-92165417D01*
X118787823Y-92165417D02*
X118787823Y-91879703D01*
X118787823Y-91879703D02*
X118740204Y-91784465D01*
X118740204Y-91784465D02*
X118692585Y-91736846D01*
X118692585Y-91736846D02*
X118597347Y-91689227D01*
X118597347Y-91689227D02*
X118454490Y-91689227D01*
X118454490Y-91689227D02*
X118359252Y-91736846D01*
X118359252Y-91736846D02*
X118311633Y-91784465D01*
X118311633Y-91784465D02*
X118264014Y-91879703D01*
X118264014Y-91879703D02*
X118264014Y-92165417D01*
X118264014Y-92165417D02*
X118311633Y-92260655D01*
X118311633Y-92260655D02*
X118359252Y-92308275D01*
X118359252Y-92308275D02*
X118454490Y-92355894D01*
X118454490Y-92355894D02*
X118597347Y-92355894D01*
X117835442Y-91689227D02*
X117835442Y-92355894D01*
X117835442Y-91784465D02*
X117787823Y-91736846D01*
X117787823Y-91736846D02*
X117692585Y-91689227D01*
X117692585Y-91689227D02*
X117549728Y-91689227D01*
X117549728Y-91689227D02*
X117454490Y-91736846D01*
X117454490Y-91736846D02*
X117406871Y-91832084D01*
X117406871Y-91832084D02*
X117406871Y-92355894D01*
X116168775Y-92355894D02*
X116168775Y-91355894D01*
X116168775Y-91355894D02*
X115787823Y-91355894D01*
X115787823Y-91355894D02*
X115692585Y-91403513D01*
X115692585Y-91403513D02*
X115644966Y-91451132D01*
X115644966Y-91451132D02*
X115597347Y-91546370D01*
X115597347Y-91546370D02*
X115597347Y-91689227D01*
X115597347Y-91689227D02*
X115644966Y-91784465D01*
X115644966Y-91784465D02*
X115692585Y-91832084D01*
X115692585Y-91832084D02*
X115787823Y-91879703D01*
X115787823Y-91879703D02*
X116168775Y-91879703D01*
X115121156Y-92308275D02*
X115121156Y-92355894D01*
X115121156Y-92355894D02*
X115168775Y-92451132D01*
X115168775Y-92451132D02*
X115216394Y-92498751D01*
X113359252Y-92260655D02*
X113406871Y-92308275D01*
X113406871Y-92308275D02*
X113549728Y-92355894D01*
X113549728Y-92355894D02*
X113644966Y-92355894D01*
X113644966Y-92355894D02*
X113787823Y-92308275D01*
X113787823Y-92308275D02*
X113883061Y-92213036D01*
X113883061Y-92213036D02*
X113930680Y-92117798D01*
X113930680Y-92117798D02*
X113978299Y-91927322D01*
X113978299Y-91927322D02*
X113978299Y-91784465D01*
X113978299Y-91784465D02*
X113930680Y-91593989D01*
X113930680Y-91593989D02*
X113883061Y-91498751D01*
X113883061Y-91498751D02*
X113787823Y-91403513D01*
X113787823Y-91403513D02*
X113644966Y-91355894D01*
X113644966Y-91355894D02*
X113549728Y-91355894D01*
X113549728Y-91355894D02*
X113406871Y-91403513D01*
X113406871Y-91403513D02*
X113359252Y-91451132D01*
X113025918Y-91689227D02*
X112787823Y-92355894D01*
X112549728Y-91689227D02*
X112787823Y-92355894D01*
X112787823Y-92355894D02*
X112883061Y-92593989D01*
X112883061Y-92593989D02*
X112930680Y-92641608D01*
X112930680Y-92641608D02*
X113025918Y-92689227D01*
X112168775Y-92355894D02*
X112168775Y-91689227D01*
X112168775Y-91879703D02*
X112121156Y-91784465D01*
X112121156Y-91784465D02*
X112073537Y-91736846D01*
X112073537Y-91736846D02*
X111978299Y-91689227D01*
X111978299Y-91689227D02*
X111883061Y-91689227D01*
X111549727Y-92355894D02*
X111549727Y-91689227D01*
X111549727Y-91355894D02*
X111597346Y-91403513D01*
X111597346Y-91403513D02*
X111549727Y-91451132D01*
X111549727Y-91451132D02*
X111502108Y-91403513D01*
X111502108Y-91403513D02*
X111549727Y-91355894D01*
X111549727Y-91355894D02*
X111549727Y-91451132D01*
X110930680Y-92355894D02*
X111025918Y-92308275D01*
X111025918Y-92308275D02*
X111073537Y-92213036D01*
X111073537Y-92213036D02*
X111073537Y-91355894D01*
X109787822Y-92355894D02*
X109787822Y-91355894D01*
X109787822Y-91355894D02*
X109454489Y-92070179D01*
X109454489Y-92070179D02*
X109121156Y-91355894D01*
X109121156Y-91355894D02*
X109121156Y-92355894D01*
X108597346Y-92308275D02*
X108597346Y-92355894D01*
X108597346Y-92355894D02*
X108644965Y-92451132D01*
X108644965Y-92451132D02*
X108692584Y-92498751D01*
X106835442Y-92260655D02*
X106883061Y-92308275D01*
X106883061Y-92308275D02*
X107025918Y-92355894D01*
X107025918Y-92355894D02*
X107121156Y-92355894D01*
X107121156Y-92355894D02*
X107264013Y-92308275D01*
X107264013Y-92308275D02*
X107359251Y-92213036D01*
X107359251Y-92213036D02*
X107406870Y-92117798D01*
X107406870Y-92117798D02*
X107454489Y-91927322D01*
X107454489Y-91927322D02*
X107454489Y-91784465D01*
X107454489Y-91784465D02*
X107406870Y-91593989D01*
X107406870Y-91593989D02*
X107359251Y-91498751D01*
X107359251Y-91498751D02*
X107264013Y-91403513D01*
X107264013Y-91403513D02*
X107121156Y-91355894D01*
X107121156Y-91355894D02*
X107025918Y-91355894D01*
X107025918Y-91355894D02*
X106883061Y-91403513D01*
X106883061Y-91403513D02*
X106835442Y-91451132D01*
X105978299Y-92355894D02*
X105978299Y-91832084D01*
X105978299Y-91832084D02*
X106025918Y-91736846D01*
X106025918Y-91736846D02*
X106121156Y-91689227D01*
X106121156Y-91689227D02*
X106311632Y-91689227D01*
X106311632Y-91689227D02*
X106406870Y-91736846D01*
X105978299Y-92308275D02*
X106073537Y-92355894D01*
X106073537Y-92355894D02*
X106311632Y-92355894D01*
X106311632Y-92355894D02*
X106406870Y-92308275D01*
X106406870Y-92308275D02*
X106454489Y-92213036D01*
X106454489Y-92213036D02*
X106454489Y-92117798D01*
X106454489Y-92117798D02*
X106406870Y-92022560D01*
X106406870Y-92022560D02*
X106311632Y-91974941D01*
X106311632Y-91974941D02*
X106073537Y-91974941D01*
X106073537Y-91974941D02*
X105978299Y-91927322D01*
X105502108Y-92355894D02*
X105502108Y-91689227D01*
X105502108Y-91355894D02*
X105549727Y-91403513D01*
X105549727Y-91403513D02*
X105502108Y-91451132D01*
X105502108Y-91451132D02*
X105454489Y-91403513D01*
X105454489Y-91403513D02*
X105502108Y-91355894D01*
X105502108Y-91355894D02*
X105502108Y-91451132D01*
X105025918Y-91689227D02*
X105025918Y-92689227D01*
X105025918Y-91736846D02*
X104930680Y-91689227D01*
X104930680Y-91689227D02*
X104740204Y-91689227D01*
X104740204Y-91689227D02*
X104644966Y-91736846D01*
X104644966Y-91736846D02*
X104597347Y-91784465D01*
X104597347Y-91784465D02*
X104549728Y-91879703D01*
X104549728Y-91879703D02*
X104549728Y-92165417D01*
X104549728Y-92165417D02*
X104597347Y-92260655D01*
X104597347Y-92260655D02*
X104644966Y-92308275D01*
X104644966Y-92308275D02*
X104740204Y-92355894D01*
X104740204Y-92355894D02*
X104930680Y-92355894D01*
X104930680Y-92355894D02*
X105025918Y-92308275D01*
X104121156Y-92355894D02*
X104121156Y-91689227D01*
X104121156Y-91355894D02*
X104168775Y-91403513D01*
X104168775Y-91403513D02*
X104121156Y-91451132D01*
X104121156Y-91451132D02*
X104073537Y-91403513D01*
X104073537Y-91403513D02*
X104121156Y-91355894D01*
X104121156Y-91355894D02*
X104121156Y-91451132D01*
X103644966Y-92355894D02*
X103644966Y-91689227D01*
X103644966Y-91879703D02*
X103597347Y-91784465D01*
X103597347Y-91784465D02*
X103549728Y-91736846D01*
X103549728Y-91736846D02*
X103454490Y-91689227D01*
X103454490Y-91689227D02*
X103359252Y-91689227D01*
X103025918Y-92355894D02*
X103025918Y-91689227D01*
X103025918Y-91355894D02*
X103073537Y-91403513D01*
X103073537Y-91403513D02*
X103025918Y-91451132D01*
X103025918Y-91451132D02*
X102978299Y-91403513D01*
X102978299Y-91403513D02*
X103025918Y-91355894D01*
X103025918Y-91355894D02*
X103025918Y-91451132D01*
X102549728Y-91689227D02*
X102549728Y-92355894D01*
X102549728Y-91784465D02*
X102502109Y-91736846D01*
X102502109Y-91736846D02*
X102406871Y-91689227D01*
X102406871Y-91689227D02*
X102264014Y-91689227D01*
X102264014Y-91689227D02*
X102168776Y-91736846D01*
X102168776Y-91736846D02*
X102121157Y-91832084D01*
X102121157Y-91832084D02*
X102121157Y-92355894D01*
X101644966Y-92355894D02*
X101644966Y-91355894D01*
X101216395Y-92355894D02*
X101216395Y-91832084D01*
X101216395Y-91832084D02*
X101264014Y-91736846D01*
X101264014Y-91736846D02*
X101359252Y-91689227D01*
X101359252Y-91689227D02*
X101502109Y-91689227D01*
X101502109Y-91689227D02*
X101597347Y-91736846D01*
X101597347Y-91736846D02*
X101644966Y-91784465D01*
X100311633Y-92355894D02*
X100311633Y-91832084D01*
X100311633Y-91832084D02*
X100359252Y-91736846D01*
X100359252Y-91736846D02*
X100454490Y-91689227D01*
X100454490Y-91689227D02*
X100644966Y-91689227D01*
X100644966Y-91689227D02*
X100740204Y-91736846D01*
X100311633Y-92308275D02*
X100406871Y-92355894D01*
X100406871Y-92355894D02*
X100644966Y-92355894D01*
X100644966Y-92355894D02*
X100740204Y-92308275D01*
X100740204Y-92308275D02*
X100787823Y-92213036D01*
X100787823Y-92213036D02*
X100787823Y-92117798D01*
X100787823Y-92117798D02*
X100740204Y-92022560D01*
X100740204Y-92022560D02*
X100644966Y-91974941D01*
X100644966Y-91974941D02*
X100406871Y-91974941D01*
X100406871Y-91974941D02*
X100311633Y-91927322D01*
X132406870Y-93299227D02*
X132406870Y-93965894D01*
X132644965Y-92918275D02*
X132883060Y-93632560D01*
X132883060Y-93632560D02*
X132264013Y-93632560D01*
X131740203Y-93394465D02*
X131835441Y-93346846D01*
X131835441Y-93346846D02*
X131883060Y-93299227D01*
X131883060Y-93299227D02*
X131930679Y-93203989D01*
X131930679Y-93203989D02*
X131930679Y-93156370D01*
X131930679Y-93156370D02*
X131883060Y-93061132D01*
X131883060Y-93061132D02*
X131835441Y-93013513D01*
X131835441Y-93013513D02*
X131740203Y-92965894D01*
X131740203Y-92965894D02*
X131549727Y-92965894D01*
X131549727Y-92965894D02*
X131454489Y-93013513D01*
X131454489Y-93013513D02*
X131406870Y-93061132D01*
X131406870Y-93061132D02*
X131359251Y-93156370D01*
X131359251Y-93156370D02*
X131359251Y-93203989D01*
X131359251Y-93203989D02*
X131406870Y-93299227D01*
X131406870Y-93299227D02*
X131454489Y-93346846D01*
X131454489Y-93346846D02*
X131549727Y-93394465D01*
X131549727Y-93394465D02*
X131740203Y-93394465D01*
X131740203Y-93394465D02*
X131835441Y-93442084D01*
X131835441Y-93442084D02*
X131883060Y-93489703D01*
X131883060Y-93489703D02*
X131930679Y-93584941D01*
X131930679Y-93584941D02*
X131930679Y-93775417D01*
X131930679Y-93775417D02*
X131883060Y-93870655D01*
X131883060Y-93870655D02*
X131835441Y-93918275D01*
X131835441Y-93918275D02*
X131740203Y-93965894D01*
X131740203Y-93965894D02*
X131549727Y-93965894D01*
X131549727Y-93965894D02*
X131454489Y-93918275D01*
X131454489Y-93918275D02*
X131406870Y-93870655D01*
X131406870Y-93870655D02*
X131359251Y-93775417D01*
X131359251Y-93775417D02*
X131359251Y-93584941D01*
X131359251Y-93584941D02*
X131406870Y-93489703D01*
X131406870Y-93489703D02*
X131454489Y-93442084D01*
X131454489Y-93442084D02*
X131549727Y-93394465D01*
X130883060Y-93965894D02*
X130692584Y-93965894D01*
X130692584Y-93965894D02*
X130597346Y-93918275D01*
X130597346Y-93918275D02*
X130549727Y-93870655D01*
X130549727Y-93870655D02*
X130454489Y-93727798D01*
X130454489Y-93727798D02*
X130406870Y-93537322D01*
X130406870Y-93537322D02*
X130406870Y-93156370D01*
X130406870Y-93156370D02*
X130454489Y-93061132D01*
X130454489Y-93061132D02*
X130502108Y-93013513D01*
X130502108Y-93013513D02*
X130597346Y-92965894D01*
X130597346Y-92965894D02*
X130787822Y-92965894D01*
X130787822Y-92965894D02*
X130883060Y-93013513D01*
X130883060Y-93013513D02*
X130930679Y-93061132D01*
X130930679Y-93061132D02*
X130978298Y-93156370D01*
X130978298Y-93156370D02*
X130978298Y-93394465D01*
X130978298Y-93394465D02*
X130930679Y-93489703D01*
X130930679Y-93489703D02*
X130883060Y-93537322D01*
X130883060Y-93537322D02*
X130787822Y-93584941D01*
X130787822Y-93584941D02*
X130597346Y-93584941D01*
X130597346Y-93584941D02*
X130502108Y-93537322D01*
X130502108Y-93537322D02*
X130454489Y-93489703D01*
X130454489Y-93489703D02*
X130406870Y-93394465D01*
X129930679Y-93965894D02*
X129740203Y-93965894D01*
X129740203Y-93965894D02*
X129644965Y-93918275D01*
X129644965Y-93918275D02*
X129597346Y-93870655D01*
X129597346Y-93870655D02*
X129502108Y-93727798D01*
X129502108Y-93727798D02*
X129454489Y-93537322D01*
X129454489Y-93537322D02*
X129454489Y-93156370D01*
X129454489Y-93156370D02*
X129502108Y-93061132D01*
X129502108Y-93061132D02*
X129549727Y-93013513D01*
X129549727Y-93013513D02*
X129644965Y-92965894D01*
X129644965Y-92965894D02*
X129835441Y-92965894D01*
X129835441Y-92965894D02*
X129930679Y-93013513D01*
X129930679Y-93013513D02*
X129978298Y-93061132D01*
X129978298Y-93061132D02*
X130025917Y-93156370D01*
X130025917Y-93156370D02*
X130025917Y-93394465D01*
X130025917Y-93394465D02*
X129978298Y-93489703D01*
X129978298Y-93489703D02*
X129930679Y-93537322D01*
X129930679Y-93537322D02*
X129835441Y-93584941D01*
X129835441Y-93584941D02*
X129644965Y-93584941D01*
X129644965Y-93584941D02*
X129549727Y-93537322D01*
X129549727Y-93537322D02*
X129502108Y-93489703D01*
X129502108Y-93489703D02*
X129454489Y-93394465D01*
X128978298Y-93918275D02*
X128978298Y-93965894D01*
X128978298Y-93965894D02*
X129025917Y-94061132D01*
X129025917Y-94061132D02*
X129073536Y-94108751D01*
X127359251Y-93965894D02*
X127359251Y-93442084D01*
X127359251Y-93442084D02*
X127406870Y-93346846D01*
X127406870Y-93346846D02*
X127502108Y-93299227D01*
X127502108Y-93299227D02*
X127692584Y-93299227D01*
X127692584Y-93299227D02*
X127787822Y-93346846D01*
X127359251Y-93918275D02*
X127454489Y-93965894D01*
X127454489Y-93965894D02*
X127692584Y-93965894D01*
X127692584Y-93965894D02*
X127787822Y-93918275D01*
X127787822Y-93918275D02*
X127835441Y-93823036D01*
X127835441Y-93823036D02*
X127835441Y-93727798D01*
X127835441Y-93727798D02*
X127787822Y-93632560D01*
X127787822Y-93632560D02*
X127692584Y-93584941D01*
X127692584Y-93584941D02*
X127454489Y-93584941D01*
X127454489Y-93584941D02*
X127359251Y-93537322D01*
X126883060Y-93299227D02*
X126883060Y-93965894D01*
X126883060Y-93394465D02*
X126835441Y-93346846D01*
X126835441Y-93346846D02*
X126740203Y-93299227D01*
X126740203Y-93299227D02*
X126597346Y-93299227D01*
X126597346Y-93299227D02*
X126502108Y-93346846D01*
X126502108Y-93346846D02*
X126454489Y-93442084D01*
X126454489Y-93442084D02*
X126454489Y-93965894D01*
X125549727Y-93965894D02*
X125549727Y-92965894D01*
X125549727Y-93918275D02*
X125644965Y-93965894D01*
X125644965Y-93965894D02*
X125835441Y-93965894D01*
X125835441Y-93965894D02*
X125930679Y-93918275D01*
X125930679Y-93918275D02*
X125978298Y-93870655D01*
X125978298Y-93870655D02*
X126025917Y-93775417D01*
X126025917Y-93775417D02*
X126025917Y-93489703D01*
X126025917Y-93489703D02*
X125978298Y-93394465D01*
X125978298Y-93394465D02*
X125930679Y-93346846D01*
X125930679Y-93346846D02*
X125835441Y-93299227D01*
X125835441Y-93299227D02*
X125644965Y-93299227D01*
X125644965Y-93299227D02*
X125549727Y-93346846D01*
X123883060Y-93965894D02*
X123883060Y-93442084D01*
X123883060Y-93442084D02*
X123930679Y-93346846D01*
X123930679Y-93346846D02*
X124025917Y-93299227D01*
X124025917Y-93299227D02*
X124216393Y-93299227D01*
X124216393Y-93299227D02*
X124311631Y-93346846D01*
X123883060Y-93918275D02*
X123978298Y-93965894D01*
X123978298Y-93965894D02*
X124216393Y-93965894D01*
X124216393Y-93965894D02*
X124311631Y-93918275D01*
X124311631Y-93918275D02*
X124359250Y-93823036D01*
X124359250Y-93823036D02*
X124359250Y-93727798D01*
X124359250Y-93727798D02*
X124311631Y-93632560D01*
X124311631Y-93632560D02*
X124216393Y-93584941D01*
X124216393Y-93584941D02*
X123978298Y-93584941D01*
X123978298Y-93584941D02*
X123883060Y-93537322D01*
X122216393Y-93918275D02*
X122311631Y-93965894D01*
X122311631Y-93965894D02*
X122502107Y-93965894D01*
X122502107Y-93965894D02*
X122597345Y-93918275D01*
X122597345Y-93918275D02*
X122644964Y-93870655D01*
X122644964Y-93870655D02*
X122692583Y-93775417D01*
X122692583Y-93775417D02*
X122692583Y-93489703D01*
X122692583Y-93489703D02*
X122644964Y-93394465D01*
X122644964Y-93394465D02*
X122597345Y-93346846D01*
X122597345Y-93346846D02*
X122502107Y-93299227D01*
X122502107Y-93299227D02*
X122311631Y-93299227D01*
X122311631Y-93299227D02*
X122216393Y-93346846D01*
X121644964Y-93965894D02*
X121740202Y-93918275D01*
X121740202Y-93918275D02*
X121787821Y-93870655D01*
X121787821Y-93870655D02*
X121835440Y-93775417D01*
X121835440Y-93775417D02*
X121835440Y-93489703D01*
X121835440Y-93489703D02*
X121787821Y-93394465D01*
X121787821Y-93394465D02*
X121740202Y-93346846D01*
X121740202Y-93346846D02*
X121644964Y-93299227D01*
X121644964Y-93299227D02*
X121502107Y-93299227D01*
X121502107Y-93299227D02*
X121406869Y-93346846D01*
X121406869Y-93346846D02*
X121359250Y-93394465D01*
X121359250Y-93394465D02*
X121311631Y-93489703D01*
X121311631Y-93489703D02*
X121311631Y-93775417D01*
X121311631Y-93775417D02*
X121359250Y-93870655D01*
X121359250Y-93870655D02*
X121406869Y-93918275D01*
X121406869Y-93918275D02*
X121502107Y-93965894D01*
X121502107Y-93965894D02*
X121644964Y-93965894D01*
X120454488Y-93299227D02*
X120454488Y-93965894D01*
X120883059Y-93299227D02*
X120883059Y-93823036D01*
X120883059Y-93823036D02*
X120835440Y-93918275D01*
X120835440Y-93918275D02*
X120740202Y-93965894D01*
X120740202Y-93965894D02*
X120597345Y-93965894D01*
X120597345Y-93965894D02*
X120502107Y-93918275D01*
X120502107Y-93918275D02*
X120454488Y-93870655D01*
X119978297Y-93299227D02*
X119978297Y-94299227D01*
X119978297Y-93346846D02*
X119883059Y-93299227D01*
X119883059Y-93299227D02*
X119692583Y-93299227D01*
X119692583Y-93299227D02*
X119597345Y-93346846D01*
X119597345Y-93346846D02*
X119549726Y-93394465D01*
X119549726Y-93394465D02*
X119502107Y-93489703D01*
X119502107Y-93489703D02*
X119502107Y-93775417D01*
X119502107Y-93775417D02*
X119549726Y-93870655D01*
X119549726Y-93870655D02*
X119597345Y-93918275D01*
X119597345Y-93918275D02*
X119692583Y-93965894D01*
X119692583Y-93965894D02*
X119883059Y-93965894D01*
X119883059Y-93965894D02*
X119978297Y-93918275D01*
X118930678Y-93965894D02*
X119025916Y-93918275D01*
X119025916Y-93918275D02*
X119073535Y-93823036D01*
X119073535Y-93823036D02*
X119073535Y-92965894D01*
X118168773Y-93918275D02*
X118264011Y-93965894D01*
X118264011Y-93965894D02*
X118454487Y-93965894D01*
X118454487Y-93965894D02*
X118549725Y-93918275D01*
X118549725Y-93918275D02*
X118597344Y-93823036D01*
X118597344Y-93823036D02*
X118597344Y-93442084D01*
X118597344Y-93442084D02*
X118549725Y-93346846D01*
X118549725Y-93346846D02*
X118454487Y-93299227D01*
X118454487Y-93299227D02*
X118264011Y-93299227D01*
X118264011Y-93299227D02*
X118168773Y-93346846D01*
X118168773Y-93346846D02*
X118121154Y-93442084D01*
X118121154Y-93442084D02*
X118121154Y-93537322D01*
X118121154Y-93537322D02*
X118597344Y-93632560D01*
X116787820Y-93965894D02*
X116883058Y-93918275D01*
X116883058Y-93918275D02*
X116930677Y-93870655D01*
X116930677Y-93870655D02*
X116978296Y-93775417D01*
X116978296Y-93775417D02*
X116978296Y-93489703D01*
X116978296Y-93489703D02*
X116930677Y-93394465D01*
X116930677Y-93394465D02*
X116883058Y-93346846D01*
X116883058Y-93346846D02*
X116787820Y-93299227D01*
X116787820Y-93299227D02*
X116644963Y-93299227D01*
X116644963Y-93299227D02*
X116549725Y-93346846D01*
X116549725Y-93346846D02*
X116502106Y-93394465D01*
X116502106Y-93394465D02*
X116454487Y-93489703D01*
X116454487Y-93489703D02*
X116454487Y-93775417D01*
X116454487Y-93775417D02*
X116502106Y-93870655D01*
X116502106Y-93870655D02*
X116549725Y-93918275D01*
X116549725Y-93918275D02*
X116644963Y-93965894D01*
X116644963Y-93965894D02*
X116787820Y-93965894D01*
X116168772Y-93299227D02*
X115787820Y-93299227D01*
X116025915Y-93965894D02*
X116025915Y-93108751D01*
X116025915Y-93108751D02*
X115978296Y-93013513D01*
X115978296Y-93013513D02*
X115883058Y-92965894D01*
X115883058Y-92965894D02*
X115787820Y-92965894D01*
X114264010Y-93965894D02*
X114264010Y-93442084D01*
X114264010Y-93442084D02*
X114311629Y-93346846D01*
X114311629Y-93346846D02*
X114406867Y-93299227D01*
X114406867Y-93299227D02*
X114597343Y-93299227D01*
X114597343Y-93299227D02*
X114692581Y-93346846D01*
X114264010Y-93918275D02*
X114359248Y-93965894D01*
X114359248Y-93965894D02*
X114597343Y-93965894D01*
X114597343Y-93965894D02*
X114692581Y-93918275D01*
X114692581Y-93918275D02*
X114740200Y-93823036D01*
X114740200Y-93823036D02*
X114740200Y-93727798D01*
X114740200Y-93727798D02*
X114692581Y-93632560D01*
X114692581Y-93632560D02*
X114597343Y-93584941D01*
X114597343Y-93584941D02*
X114359248Y-93584941D01*
X114359248Y-93584941D02*
X114264010Y-93537322D01*
X113787819Y-93299227D02*
X113787819Y-93965894D01*
X113787819Y-93394465D02*
X113740200Y-93346846D01*
X113740200Y-93346846D02*
X113644962Y-93299227D01*
X113644962Y-93299227D02*
X113502105Y-93299227D01*
X113502105Y-93299227D02*
X113406867Y-93346846D01*
X113406867Y-93346846D02*
X113359248Y-93442084D01*
X113359248Y-93442084D02*
X113359248Y-93965894D01*
X112740200Y-93965894D02*
X112835438Y-93918275D01*
X112835438Y-93918275D02*
X112883057Y-93870655D01*
X112883057Y-93870655D02*
X112930676Y-93775417D01*
X112930676Y-93775417D02*
X112930676Y-93489703D01*
X112930676Y-93489703D02*
X112883057Y-93394465D01*
X112883057Y-93394465D02*
X112835438Y-93346846D01*
X112835438Y-93346846D02*
X112740200Y-93299227D01*
X112740200Y-93299227D02*
X112597343Y-93299227D01*
X112597343Y-93299227D02*
X112502105Y-93346846D01*
X112502105Y-93346846D02*
X112454486Y-93394465D01*
X112454486Y-93394465D02*
X112406867Y-93489703D01*
X112406867Y-93489703D02*
X112406867Y-93775417D01*
X112406867Y-93775417D02*
X112454486Y-93870655D01*
X112454486Y-93870655D02*
X112502105Y-93918275D01*
X112502105Y-93918275D02*
X112597343Y-93965894D01*
X112597343Y-93965894D02*
X112740200Y-93965894D01*
X111978295Y-93299227D02*
X111978295Y-93965894D01*
X111978295Y-93394465D02*
X111930676Y-93346846D01*
X111930676Y-93346846D02*
X111835438Y-93299227D01*
X111835438Y-93299227D02*
X111692581Y-93299227D01*
X111692581Y-93299227D02*
X111597343Y-93346846D01*
X111597343Y-93346846D02*
X111549724Y-93442084D01*
X111549724Y-93442084D02*
X111549724Y-93965894D01*
X111168771Y-93299227D02*
X110930676Y-93965894D01*
X110692581Y-93299227D02*
X110930676Y-93965894D01*
X110930676Y-93965894D02*
X111025914Y-94203989D01*
X111025914Y-94203989D02*
X111073533Y-94251608D01*
X111073533Y-94251608D02*
X111168771Y-94299227D01*
X110311628Y-93965894D02*
X110311628Y-93299227D01*
X110311628Y-93394465D02*
X110264009Y-93346846D01*
X110264009Y-93346846D02*
X110168771Y-93299227D01*
X110168771Y-93299227D02*
X110025914Y-93299227D01*
X110025914Y-93299227D02*
X109930676Y-93346846D01*
X109930676Y-93346846D02*
X109883057Y-93442084D01*
X109883057Y-93442084D02*
X109883057Y-93965894D01*
X109883057Y-93442084D02*
X109835438Y-93346846D01*
X109835438Y-93346846D02*
X109740200Y-93299227D01*
X109740200Y-93299227D02*
X109597343Y-93299227D01*
X109597343Y-93299227D02*
X109502104Y-93346846D01*
X109502104Y-93346846D02*
X109454485Y-93442084D01*
X109454485Y-93442084D02*
X109454485Y-93965894D01*
X108835438Y-93965894D02*
X108930676Y-93918275D01*
X108930676Y-93918275D02*
X108978295Y-93870655D01*
X108978295Y-93870655D02*
X109025914Y-93775417D01*
X109025914Y-93775417D02*
X109025914Y-93489703D01*
X109025914Y-93489703D02*
X108978295Y-93394465D01*
X108978295Y-93394465D02*
X108930676Y-93346846D01*
X108930676Y-93346846D02*
X108835438Y-93299227D01*
X108835438Y-93299227D02*
X108692581Y-93299227D01*
X108692581Y-93299227D02*
X108597343Y-93346846D01*
X108597343Y-93346846D02*
X108549724Y-93394465D01*
X108549724Y-93394465D02*
X108502105Y-93489703D01*
X108502105Y-93489703D02*
X108502105Y-93775417D01*
X108502105Y-93775417D02*
X108549724Y-93870655D01*
X108549724Y-93870655D02*
X108597343Y-93918275D01*
X108597343Y-93918275D02*
X108692581Y-93965894D01*
X108692581Y-93965894D02*
X108835438Y-93965894D01*
X107644962Y-93299227D02*
X107644962Y-93965894D01*
X108073533Y-93299227D02*
X108073533Y-93823036D01*
X108073533Y-93823036D02*
X108025914Y-93918275D01*
X108025914Y-93918275D02*
X107930676Y-93965894D01*
X107930676Y-93965894D02*
X107787819Y-93965894D01*
X107787819Y-93965894D02*
X107692581Y-93918275D01*
X107692581Y-93918275D02*
X107644962Y-93870655D01*
X107216390Y-93918275D02*
X107121152Y-93965894D01*
X107121152Y-93965894D02*
X106930676Y-93965894D01*
X106930676Y-93965894D02*
X106835438Y-93918275D01*
X106835438Y-93918275D02*
X106787819Y-93823036D01*
X106787819Y-93823036D02*
X106787819Y-93775417D01*
X106787819Y-93775417D02*
X106835438Y-93680179D01*
X106835438Y-93680179D02*
X106930676Y-93632560D01*
X106930676Y-93632560D02*
X107073533Y-93632560D01*
X107073533Y-93632560D02*
X107168771Y-93584941D01*
X107168771Y-93584941D02*
X107216390Y-93489703D01*
X107216390Y-93489703D02*
X107216390Y-93442084D01*
X107216390Y-93442084D02*
X107168771Y-93346846D01*
X107168771Y-93346846D02*
X107073533Y-93299227D01*
X107073533Y-93299227D02*
X106930676Y-93299227D01*
X106930676Y-93299227D02*
X106835438Y-93346846D01*
X98000000Y-76000000D02*
X134000000Y-76000000D01*
X134000000Y-95000000D01*
X98000000Y-95000000D01*
X98000000Y-76000000D01*
D12*
G36*
X146706387Y-68915270D02*
G01*
X146856901Y-68918250D01*
X147001674Y-68922900D01*
X147143912Y-68928946D01*
X147283596Y-68936402D01*
X147420711Y-68945282D01*
X147555239Y-68955600D01*
X147687164Y-68967372D01*
X147816468Y-68980612D01*
X147943135Y-68995334D01*
X148178946Y-69026010D01*
X148409015Y-69059152D01*
X148633313Y-69094782D01*
X148851808Y-69132922D01*
X148956311Y-69152581D01*
X149054402Y-69172270D01*
X149145553Y-69192020D01*
X149188361Y-69201926D01*
X149229236Y-69211857D01*
X149301680Y-69230786D01*
X149344346Y-69243088D01*
X149390064Y-69257486D01*
X149437898Y-69274137D01*
X149486914Y-69293195D01*
X149511574Y-69303675D01*
X149536178Y-69314815D01*
X149560611Y-69326633D01*
X149584756Y-69339150D01*
X149623666Y-69361027D01*
X149661500Y-69384282D01*
X149698234Y-69408890D01*
X149733843Y-69434823D01*
X149768302Y-69462057D01*
X149801587Y-69490565D01*
X149833674Y-69520321D01*
X149864537Y-69551299D01*
X149894152Y-69583473D01*
X149922494Y-69616817D01*
X149949539Y-69651304D01*
X149975263Y-69686910D01*
X149999640Y-69723607D01*
X150022645Y-69761371D01*
X150044256Y-69800173D01*
X150064446Y-69839990D01*
X150083056Y-69880558D01*
X150099990Y-69921610D01*
X150115242Y-69963109D01*
X150128808Y-70005021D01*
X150140681Y-70047309D01*
X150150857Y-70089938D01*
X150159330Y-70132872D01*
X150166095Y-70176075D01*
X150171148Y-70219512D01*
X150174482Y-70263146D01*
X150176092Y-70306942D01*
X150175974Y-70350865D01*
X150174121Y-70394879D01*
X150170530Y-70438947D01*
X150165194Y-70483034D01*
X150158108Y-70527105D01*
X150149319Y-70570871D01*
X150138888Y-70614040D01*
X150126833Y-70656582D01*
X150113170Y-70698465D01*
X150097917Y-70739656D01*
X150081090Y-70780124D01*
X150062706Y-70819837D01*
X150042783Y-70858764D01*
X150021337Y-70896872D01*
X149998387Y-70934131D01*
X149973948Y-70970507D01*
X149948038Y-71005971D01*
X149920673Y-71040489D01*
X149891872Y-71074030D01*
X149861650Y-71106562D01*
X149830026Y-71138054D01*
X149585815Y-71371933D01*
X148134602Y-71311476D01*
X148121981Y-71310550D01*
X146736292Y-71208566D01*
X145953231Y-71210669D01*
X145772176Y-71213376D01*
X145599143Y-71220415D01*
X145434025Y-71231653D01*
X145276711Y-71246955D01*
X145127095Y-71266188D01*
X144985067Y-71289219D01*
X144850518Y-71315913D01*
X144723341Y-71346136D01*
X144595050Y-71381906D01*
X144460664Y-71424551D01*
X144320133Y-71474243D01*
X144173412Y-71531156D01*
X144020452Y-71595462D01*
X143861207Y-71667333D01*
X143695628Y-71746943D01*
X143523668Y-71834464D01*
X143351396Y-71927489D01*
X143174754Y-72028859D01*
X142993735Y-72138662D01*
X142808329Y-72256982D01*
X142618529Y-72383907D01*
X142424325Y-72519522D01*
X142225710Y-72663913D01*
X142022674Y-72817166D01*
X141818953Y-72976608D01*
X141616078Y-73141222D01*
X141414052Y-73311020D01*
X141212880Y-73486016D01*
X141012565Y-73666223D01*
X140813110Y-73851652D01*
X140614520Y-74042317D01*
X140416798Y-74238230D01*
X140220848Y-74437920D01*
X140031128Y-74636293D01*
X139847618Y-74833347D01*
X139670298Y-75029079D01*
X139499148Y-75223489D01*
X139334147Y-75416573D01*
X139175274Y-75608329D01*
X139022511Y-75798756D01*
X138882563Y-75981160D01*
X138752277Y-76161237D01*
X138631512Y-76338982D01*
X138520131Y-76514388D01*
X138417994Y-76687446D01*
X138324962Y-76858152D01*
X138240896Y-77026497D01*
X138165657Y-77192475D01*
X138133348Y-77270483D01*
X138102546Y-77350817D01*
X138045581Y-77518559D01*
X137994984Y-77695885D01*
X137950980Y-77882981D01*
X137913791Y-78080032D01*
X137883641Y-78287225D01*
X137860754Y-78504743D01*
X137845353Y-78732773D01*
X137837125Y-78976363D01*
X137836002Y-79234073D01*
X137842094Y-79506006D01*
X137855515Y-79792262D01*
X137876374Y-80092941D01*
X137904786Y-80408144D01*
X137940860Y-80737971D01*
X137984709Y-81082524D01*
X138035839Y-81435337D01*
X138094412Y-81795144D01*
X138160454Y-82161957D01*
X138233989Y-82535788D01*
X138315045Y-82916649D01*
X138403645Y-83304551D01*
X138499816Y-83699506D01*
X138603583Y-84101526D01*
X138713370Y-84504082D01*
X138827961Y-84902029D01*
X138947349Y-85295371D01*
X139071530Y-85684114D01*
X139200497Y-86068262D01*
X139334245Y-86447820D01*
X139472769Y-86822791D01*
X139616064Y-87193182D01*
X139761474Y-87546782D01*
X139912447Y-87886923D01*
X140068920Y-88213700D01*
X140230829Y-88527210D01*
X140398112Y-88827549D01*
X140570703Y-89114813D01*
X140748540Y-89389097D01*
X140931559Y-89650499D01*
X141021680Y-89770959D01*
X141114676Y-89888659D01*
X141210556Y-90003602D01*
X141309335Y-90115791D01*
X141411024Y-90225230D01*
X141515634Y-90331920D01*
X141623179Y-90435865D01*
X141733671Y-90537068D01*
X141847121Y-90635531D01*
X141963543Y-90731259D01*
X142082947Y-90824252D01*
X142205347Y-90914515D01*
X142330754Y-91002050D01*
X142459181Y-91086861D01*
X142590640Y-91168950D01*
X142725143Y-91248319D01*
X143009646Y-91403511D01*
X143307468Y-91550325D01*
X143618727Y-91688655D01*
X143943539Y-91818397D01*
X144282019Y-91939445D01*
X144634284Y-92051693D01*
X145000450Y-92155037D01*
X145380633Y-92249370D01*
X145776625Y-92336711D01*
X146177446Y-92416160D01*
X146583106Y-92487703D01*
X146993616Y-92551325D01*
X147408987Y-92607008D01*
X147829228Y-92654739D01*
X148254351Y-92694501D01*
X148684366Y-92726280D01*
X149118342Y-92751291D01*
X149545851Y-92770077D01*
X149966900Y-92782649D01*
X150381497Y-92789020D01*
X150789651Y-92789202D01*
X151191370Y-92783207D01*
X151586660Y-92771049D01*
X151975531Y-92752739D01*
X152344359Y-92726805D01*
X152697781Y-92690801D01*
X153035954Y-92644912D01*
X153359037Y-92589325D01*
X153514968Y-92557953D01*
X153667187Y-92524225D01*
X153815712Y-92488166D01*
X153960563Y-92449799D01*
X154101760Y-92409146D01*
X154239323Y-92366232D01*
X154373271Y-92321078D01*
X154503625Y-92273710D01*
X154618141Y-92228063D01*
X154730023Y-92178458D01*
X154839284Y-92124856D01*
X154945938Y-92067218D01*
X155049998Y-92005505D01*
X155151478Y-91939678D01*
X155250392Y-91869698D01*
X155346753Y-91795526D01*
X155440574Y-91717124D01*
X155531870Y-91634452D01*
X155620653Y-91547471D01*
X155706937Y-91456142D01*
X155790737Y-91360428D01*
X155872065Y-91260288D01*
X155950935Y-91155683D01*
X156027360Y-91046575D01*
X156104065Y-90929055D01*
X156178730Y-90806555D01*
X156251318Y-90679028D01*
X156321791Y-90546431D01*
X156390113Y-90408719D01*
X156456245Y-90265848D01*
X156520151Y-90117771D01*
X156581794Y-89964445D01*
X156641136Y-89805824D01*
X156698140Y-89641865D01*
X156752770Y-89472522D01*
X156804987Y-89297750D01*
X156854754Y-89117505D01*
X156902035Y-88931742D01*
X156988988Y-88543483D01*
X157067564Y-88133036D01*
X157137075Y-87713781D01*
X157197485Y-87285692D01*
X157248760Y-86848744D01*
X157290862Y-86402910D01*
X157323758Y-85948163D01*
X157347411Y-85484477D01*
X157361785Y-85011825D01*
X157371912Y-84052971D01*
X157369769Y-83582092D01*
X157362828Y-83116909D01*
X157351093Y-82657417D01*
X157334569Y-82203613D01*
X157313261Y-81755494D01*
X157287173Y-81313056D01*
X157256269Y-80882639D01*
X157220345Y-80468514D01*
X157179454Y-80070611D01*
X157133649Y-79688861D01*
X157082982Y-79323193D01*
X157027506Y-78973537D01*
X156967273Y-78639823D01*
X156902337Y-78321981D01*
X156869141Y-78177060D01*
X156833529Y-78036608D01*
X156795540Y-77900574D01*
X156755218Y-77768904D01*
X156712604Y-77641547D01*
X156667740Y-77518450D01*
X156620666Y-77399560D01*
X156571426Y-77284824D01*
X156520060Y-77174191D01*
X156466610Y-77067609D01*
X156411118Y-76965023D01*
X156353626Y-76866383D01*
X156294175Y-76771634D01*
X156232807Y-76680726D01*
X156169563Y-76593606D01*
X156104486Y-76510220D01*
X156036769Y-76429364D01*
X155966301Y-76350723D01*
X155893046Y-76274306D01*
X155816968Y-76200125D01*
X155738033Y-76128188D01*
X155656204Y-76058508D01*
X155571446Y-75991093D01*
X155483724Y-75925954D01*
X155393001Y-75863102D01*
X155299244Y-75802546D01*
X155202416Y-75744297D01*
X155102482Y-75688365D01*
X154999406Y-75634761D01*
X154893153Y-75583494D01*
X154783687Y-75534576D01*
X154670974Y-75488016D01*
X154429971Y-75398626D01*
X154182067Y-75319084D01*
X153927184Y-75249487D01*
X153665242Y-75189930D01*
X153396163Y-75140507D01*
X153119867Y-75101316D01*
X152836276Y-75072450D01*
X152545310Y-75054007D01*
X152248760Y-75045747D01*
X151953111Y-75047580D01*
X151658337Y-75059511D01*
X151364410Y-75081543D01*
X151071301Y-75113681D01*
X150778982Y-75155928D01*
X150487426Y-75208289D01*
X150196605Y-75270767D01*
X149910994Y-75342618D01*
X149631581Y-75423862D01*
X149494184Y-75467999D01*
X149358319Y-75514476D01*
X149223979Y-75563289D01*
X149091158Y-75614435D01*
X148959850Y-75667913D01*
X148830050Y-75723717D01*
X148701750Y-75781847D01*
X148574946Y-75842298D01*
X148449631Y-75905068D01*
X148325798Y-75970153D01*
X148203443Y-76037552D01*
X148082558Y-76107260D01*
X147961952Y-76179846D01*
X147842907Y-76254430D01*
X147725420Y-76331013D01*
X147609490Y-76409599D01*
X147495112Y-76490190D01*
X147382286Y-76572788D01*
X147271008Y-76657396D01*
X147161277Y-76744016D01*
X147053090Y-76832651D01*
X146946444Y-76923305D01*
X146841337Y-77015978D01*
X146737768Y-77110674D01*
X146635732Y-77207395D01*
X146535229Y-77306144D01*
X146436255Y-77406924D01*
X146338808Y-77509737D01*
X146143484Y-77725182D01*
X145954029Y-77945698D01*
X145770440Y-78171297D01*
X145592715Y-78401991D01*
X145420850Y-78637793D01*
X145254843Y-78878714D01*
X145094691Y-79124766D01*
X144940393Y-79375962D01*
X144790789Y-79633105D01*
X144648252Y-79891048D01*
X144512763Y-80149793D01*
X144384303Y-80409341D01*
X144262852Y-80669694D01*
X144148391Y-80930854D01*
X144040900Y-81192822D01*
X143940361Y-81455599D01*
X143847907Y-81716350D01*
X143764375Y-81972982D01*
X143689680Y-82225518D01*
X143623740Y-82473980D01*
X143566472Y-82718387D01*
X143517793Y-82958762D01*
X143477619Y-83195126D01*
X143445867Y-83427499D01*
X143433905Y-83537643D01*
X143424583Y-83645936D01*
X143417873Y-83752398D01*
X143413744Y-83857047D01*
X143412168Y-83959902D01*
X143413115Y-84060982D01*
X143416554Y-84160307D01*
X143422457Y-84257895D01*
X143430793Y-84353765D01*
X143441534Y-84447936D01*
X143454649Y-84540428D01*
X143470110Y-84631259D01*
X143487885Y-84720448D01*
X143507947Y-84808015D01*
X143530265Y-84893977D01*
X143554810Y-84978355D01*
X143580975Y-85059008D01*
X143609818Y-85139092D01*
X143641376Y-85218610D01*
X143675681Y-85297564D01*
X143712769Y-85375956D01*
X143752674Y-85453788D01*
X143795431Y-85531063D01*
X143841074Y-85607782D01*
X143889637Y-85683947D01*
X143941156Y-85759561D01*
X143995664Y-85834626D01*
X144053196Y-85909144D01*
X144113787Y-85983117D01*
X144177471Y-86056547D01*
X144244283Y-86129437D01*
X144314257Y-86201788D01*
X144468991Y-86351056D01*
X144634698Y-86498079D01*
X144811529Y-86642778D01*
X144999636Y-86785080D01*
X145199173Y-86924906D01*
X145410290Y-87062183D01*
X145633140Y-87196833D01*
X145867876Y-87328781D01*
X146114623Y-87458785D01*
X146366399Y-87583874D01*
X146623224Y-87704030D01*
X146885113Y-87819235D01*
X147152086Y-87929474D01*
X147424158Y-88034728D01*
X147701347Y-88134982D01*
X147983670Y-88230217D01*
X148268409Y-88319805D01*
X148549647Y-88402161D01*
X148827394Y-88477321D01*
X149101663Y-88545319D01*
X149372466Y-88606193D01*
X149639814Y-88659976D01*
X149903719Y-88706706D01*
X150164193Y-88746418D01*
X150415278Y-88777849D01*
X150655370Y-88800371D01*
X150884612Y-88814226D01*
X151103150Y-88819658D01*
X151311127Y-88816911D01*
X151411201Y-88812547D01*
X151508688Y-88806228D01*
X151603607Y-88797987D01*
X151695976Y-88787852D01*
X151785814Y-88775856D01*
X151873137Y-88762027D01*
X151957173Y-88746562D01*
X152038605Y-88729406D01*
X152117475Y-88710596D01*
X152193828Y-88690165D01*
X152267707Y-88668148D01*
X152339155Y-88644580D01*
X152408215Y-88619495D01*
X152474932Y-88592927D01*
X152539347Y-88564911D01*
X152601506Y-88535482D01*
X152661451Y-88504674D01*
X152719225Y-88472521D01*
X152774872Y-88439058D01*
X152828436Y-88404320D01*
X152879960Y-88368341D01*
X152929486Y-88331155D01*
X152983331Y-88288114D01*
X153036023Y-88243713D01*
X153087562Y-88197940D01*
X153137949Y-88150780D01*
X153187184Y-88102220D01*
X153235267Y-88052247D01*
X153282200Y-88000846D01*
X153327982Y-87948005D01*
X153372613Y-87893710D01*
X153416095Y-87837947D01*
X153458427Y-87780703D01*
X153499609Y-87721964D01*
X153539643Y-87661717D01*
X153578529Y-87599947D01*
X153616266Y-87536642D01*
X153652856Y-87471788D01*
X153727223Y-87330289D01*
X153796916Y-87185263D01*
X153861912Y-87036668D01*
X153922186Y-86884463D01*
X153977717Y-86728605D01*
X154028480Y-86569053D01*
X154074453Y-86405765D01*
X154115613Y-86238699D01*
X154152146Y-86067581D01*
X154183369Y-85896523D01*
X154209293Y-85725513D01*
X154229929Y-85554535D01*
X154245288Y-85383575D01*
X154255381Y-85212621D01*
X154260218Y-85041657D01*
X154259811Y-84870670D01*
X154254128Y-84702815D01*
X154243068Y-84538450D01*
X154226688Y-84377530D01*
X154205042Y-84220010D01*
X154178188Y-84065844D01*
X154146181Y-83914989D01*
X154109076Y-83767398D01*
X154066930Y-83623027D01*
X154043937Y-83551818D01*
X154019857Y-83481753D01*
X153994696Y-83412824D01*
X153968457Y-83345022D01*
X153941147Y-83278339D01*
X153912770Y-83212766D01*
X153883330Y-83148294D01*
X153852832Y-83084914D01*
X153821283Y-83022618D01*
X153788685Y-82961397D01*
X153755044Y-82901242D01*
X153720365Y-82842145D01*
X153684653Y-82784096D01*
X153647913Y-82727087D01*
X153610149Y-82671110D01*
X153571366Y-82616155D01*
X153529924Y-82559789D01*
X153487749Y-82504490D01*
X153444842Y-82450254D01*
X153401201Y-82397075D01*
X153356828Y-82344949D01*
X153311721Y-82293870D01*
X153265880Y-82243834D01*
X153219304Y-82194834D01*
X153171994Y-82146867D01*
X153123948Y-82099926D01*
X153075167Y-82054007D01*
X153025650Y-82009106D01*
X152975396Y-81965215D01*
X152924405Y-81922332D01*
X152872678Y-81880450D01*
X152820212Y-81839564D01*
X152709267Y-81757401D01*
X152597384Y-81679725D01*
X152484559Y-81606497D01*
X152370785Y-81537677D01*
X152256056Y-81473228D01*
X152140366Y-81413108D01*
X152023709Y-81357279D01*
X151906078Y-81305701D01*
X151856726Y-81285920D01*
X151805888Y-81267301D01*
X151753539Y-81249877D01*
X151699653Y-81233681D01*
X151644204Y-81218748D01*
X151587167Y-81205110D01*
X151528516Y-81192801D01*
X151468225Y-81181855D01*
X151406270Y-81172306D01*
X151342624Y-81164187D01*
X151277261Y-81157532D01*
X151210157Y-81152374D01*
X151141286Y-81148747D01*
X151070622Y-81146684D01*
X150998139Y-81146220D01*
X150923812Y-81147387D01*
X150850274Y-81150166D01*
X150777537Y-81154575D01*
X150705591Y-81160608D01*
X150634426Y-81168258D01*
X150564031Y-81177521D01*
X150494394Y-81188389D01*
X150425506Y-81200858D01*
X150357356Y-81214920D01*
X150289933Y-81230571D01*
X150223226Y-81247803D01*
X150157225Y-81266611D01*
X150091919Y-81286989D01*
X150027298Y-81308932D01*
X149963350Y-81332432D01*
X149900066Y-81357485D01*
X149837434Y-81384083D01*
X149774156Y-81412761D01*
X149714239Y-81441659D01*
X149657599Y-81470737D01*
X149604146Y-81499952D01*
X149553795Y-81529263D01*
X149506459Y-81558627D01*
X149462051Y-81588003D01*
X149420483Y-81617348D01*
X149381669Y-81646621D01*
X149345523Y-81675779D01*
X149311956Y-81704781D01*
X149280883Y-81733585D01*
X149252216Y-81762149D01*
X149225869Y-81790431D01*
X149201754Y-81818388D01*
X149179785Y-81845979D01*
X149159724Y-81873371D01*
X149140029Y-81902640D01*
X149120764Y-81933854D01*
X149101990Y-81967084D01*
X149083770Y-82002397D01*
X149066168Y-82039864D01*
X149049244Y-82079553D01*
X149033063Y-82121533D01*
X149017686Y-82165874D01*
X149003177Y-82212644D01*
X148989597Y-82261913D01*
X148977010Y-82313750D01*
X148965478Y-82368224D01*
X148955063Y-82425403D01*
X148945828Y-82485358D01*
X148937837Y-82548157D01*
X148933728Y-82592377D01*
X148931568Y-82636659D01*
X148931433Y-82681045D01*
X148933397Y-82725575D01*
X148937536Y-82770290D01*
X148943927Y-82815231D01*
X148952644Y-82860440D01*
X148963764Y-82905956D01*
X148977361Y-82951822D01*
X148993512Y-82998077D01*
X149012292Y-83044762D01*
X149033777Y-83091919D01*
X149058041Y-83139589D01*
X149085162Y-83187811D01*
X149115214Y-83236628D01*
X149148273Y-83286080D01*
X149171489Y-83317749D01*
X149196771Y-83348589D01*
X149224322Y-83378487D01*
X149254344Y-83407333D01*
X149287038Y-83435017D01*
X149322607Y-83461427D01*
X149361252Y-83486453D01*
X149403176Y-83509984D01*
X149448580Y-83531908D01*
X149497666Y-83552115D01*
X149550637Y-83570495D01*
X149607694Y-83586936D01*
X149669039Y-83601328D01*
X149734875Y-83613559D01*
X149805402Y-83623519D01*
X149880824Y-83631096D01*
X150007352Y-83642021D01*
X150129153Y-83654000D01*
X150245919Y-83667095D01*
X150357340Y-83681367D01*
X150398620Y-83676317D01*
X150439988Y-83672872D01*
X150481411Y-83671034D01*
X150522855Y-83670803D01*
X150564288Y-83672178D01*
X150605675Y-83675161D01*
X150646985Y-83679751D01*
X150688184Y-83685948D01*
X150729239Y-83693753D01*
X150770117Y-83703166D01*
X150810784Y-83714187D01*
X150851207Y-83726816D01*
X150891354Y-83741053D01*
X150931191Y-83756900D01*
X150970684Y-83774354D01*
X151009802Y-83793418D01*
X151059093Y-83820093D01*
X151106577Y-83848830D01*
X151152213Y-83879574D01*
X151195959Y-83912266D01*
X151237772Y-83946850D01*
X151277611Y-83983267D01*
X151315433Y-84021462D01*
X151351197Y-84061375D01*
X151384860Y-84102951D01*
X151416380Y-84146131D01*
X151445716Y-84190858D01*
X151472825Y-84237075D01*
X151497664Y-84284725D01*
X151520193Y-84333749D01*
X151540369Y-84384092D01*
X151558150Y-84435694D01*
X151568054Y-84467228D01*
X151576977Y-84498913D01*
X151584922Y-84530733D01*
X151591887Y-84562674D01*
X151597873Y-84594718D01*
X151602880Y-84626850D01*
X151606909Y-84659055D01*
X151609959Y-84691315D01*
X151612031Y-84723616D01*
X151613125Y-84755941D01*
X151613242Y-84788275D01*
X151612380Y-84820602D01*
X151610541Y-84852905D01*
X151607725Y-84885169D01*
X151603931Y-84917378D01*
X151599161Y-84949516D01*
X151593722Y-84981572D01*
X151587330Y-85013387D01*
X151579990Y-85044946D01*
X151571706Y-85076236D01*
X151562485Y-85107241D01*
X151552331Y-85137948D01*
X151541250Y-85168340D01*
X151529245Y-85198405D01*
X151516322Y-85228127D01*
X151502487Y-85257492D01*
X151487744Y-85286486D01*
X151472099Y-85315093D01*
X151455556Y-85343299D01*
X151438120Y-85371090D01*
X151419797Y-85398452D01*
X151400591Y-85425369D01*
X151380890Y-85451910D01*
X151360493Y-85477750D01*
X151339410Y-85502879D01*
X151317657Y-85527289D01*
X151295244Y-85550969D01*
X151272185Y-85573911D01*
X151248493Y-85596104D01*
X151224180Y-85617539D01*
X151199260Y-85638206D01*
X151173745Y-85658097D01*
X151147647Y-85677201D01*
X151120981Y-85695510D01*
X151093757Y-85713013D01*
X151065990Y-85729701D01*
X151037692Y-85745565D01*
X151008876Y-85760595D01*
X150979764Y-85775024D01*
X150950283Y-85788544D01*
X150920448Y-85801148D01*
X150890274Y-85812832D01*
X150859777Y-85823591D01*
X150828973Y-85833421D01*
X150797875Y-85842317D01*
X150766501Y-85850273D01*
X150734864Y-85857285D01*
X150702981Y-85863348D01*
X150670866Y-85868457D01*
X150638535Y-85872607D01*
X150606004Y-85875794D01*
X150573287Y-85878013D01*
X150540400Y-85879258D01*
X150507358Y-85879526D01*
X150483291Y-85879409D01*
X150459315Y-85878763D01*
X150435432Y-85877593D01*
X150411645Y-85875904D01*
X150387957Y-85873701D01*
X150364371Y-85870987D01*
X150340891Y-85867768D01*
X150317519Y-85864048D01*
X150298224Y-85862912D01*
X150271102Y-85861616D01*
X150235571Y-85860345D01*
X150191049Y-85859285D01*
X150107265Y-85858378D01*
X150009727Y-85858475D01*
X149898174Y-85859638D01*
X149772346Y-85861930D01*
X149680537Y-85862595D01*
X149589071Y-85860632D01*
X149497957Y-85856056D01*
X149407206Y-85848885D01*
X149316829Y-85839136D01*
X149226836Y-85826823D01*
X149137238Y-85811965D01*
X149048044Y-85794577D01*
X148959266Y-85774677D01*
X148870915Y-85752279D01*
X148783000Y-85727402D01*
X148695532Y-85700061D01*
X148608522Y-85670273D01*
X148521980Y-85638054D01*
X148435917Y-85603421D01*
X148350343Y-85566391D01*
X148263374Y-85525919D01*
X148178142Y-85483179D01*
X148094682Y-85438163D01*
X148013029Y-85390863D01*
X147933218Y-85341270D01*
X147855283Y-85289378D01*
X147779260Y-85235177D01*
X147705183Y-85178661D01*
X147633087Y-85119820D01*
X147563008Y-85058648D01*
X147494979Y-84995136D01*
X147429037Y-84929276D01*
X147365215Y-84861061D01*
X147303549Y-84790482D01*
X147244074Y-84717531D01*
X147186824Y-84642201D01*
X147132001Y-84564690D01*
X147080210Y-84485815D01*
X147031441Y-84405604D01*
X146985687Y-84324087D01*
X146942939Y-84241292D01*
X146903189Y-84157247D01*
X146866427Y-84071981D01*
X146832647Y-83985522D01*
X146801838Y-83897899D01*
X146773993Y-83809140D01*
X146749104Y-83719274D01*
X146727161Y-83628329D01*
X146708157Y-83536333D01*
X146692083Y-83443316D01*
X146678930Y-83349306D01*
X146668691Y-83254330D01*
X146661425Y-83159690D01*
X146657052Y-83065236D01*
X146655551Y-82970981D01*
X146656901Y-82876938D01*
X146661081Y-82783120D01*
X146668070Y-82689539D01*
X146677847Y-82596208D01*
X146690391Y-82503140D01*
X146705682Y-82410347D01*
X146723698Y-82317843D01*
X146744419Y-82225639D01*
X146767823Y-82133749D01*
X146793890Y-82042186D01*
X146822599Y-81950962D01*
X146853929Y-81860089D01*
X146887859Y-81769581D01*
X146921780Y-81685033D01*
X146957255Y-81601358D01*
X146994282Y-81518561D01*
X147032858Y-81436644D01*
X147072980Y-81355613D01*
X147114647Y-81275470D01*
X147157857Y-81196220D01*
X147202607Y-81117866D01*
X147248894Y-81040413D01*
X147296718Y-80963864D01*
X147346074Y-80888223D01*
X147396962Y-80813495D01*
X147449379Y-80739682D01*
X147503322Y-80666789D01*
X147558790Y-80594819D01*
X147615780Y-80523778D01*
X147673649Y-80454401D01*
X147732550Y-80386452D01*
X147792486Y-80319942D01*
X147853460Y-80254887D01*
X147915473Y-80191297D01*
X147978529Y-80129188D01*
X148042630Y-80068571D01*
X148107777Y-80009461D01*
X148173975Y-79951869D01*
X148241225Y-79895811D01*
X148309529Y-79841298D01*
X148378890Y-79788343D01*
X148449311Y-79736961D01*
X148520794Y-79687164D01*
X148593342Y-79638965D01*
X148666956Y-79592377D01*
X148742606Y-79546910D01*
X148818997Y-79503463D01*
X148896123Y-79462048D01*
X148973977Y-79422676D01*
X149052554Y-79385357D01*
X149131845Y-79350103D01*
X149211846Y-79316926D01*
X149292550Y-79285835D01*
X149373950Y-79256842D01*
X149456041Y-79229959D01*
X149538814Y-79205196D01*
X149622265Y-79182565D01*
X149706387Y-79162076D01*
X149791173Y-79143740D01*
X149876618Y-79127570D01*
X149962713Y-79113575D01*
X150046630Y-79102021D01*
X150130793Y-79092368D01*
X150215198Y-79084602D01*
X150299836Y-79078709D01*
X150384701Y-79074674D01*
X150469787Y-79072485D01*
X150640593Y-79073584D01*
X150812198Y-79081895D01*
X150984549Y-79097306D01*
X151157592Y-79119703D01*
X151331271Y-79148976D01*
X151502428Y-79184110D01*
X151673292Y-79225105D01*
X151843856Y-79271895D01*
X152014110Y-79324415D01*
X152184049Y-79382597D01*
X152353664Y-79446375D01*
X152522947Y-79515685D01*
X152691890Y-79590460D01*
X152863574Y-79672764D01*
X153032647Y-79760723D01*
X153199099Y-79854301D01*
X153362923Y-79953462D01*
X153524112Y-80058169D01*
X153682658Y-80168386D01*
X153838552Y-80284076D01*
X153991788Y-80405204D01*
X154069422Y-80469680D01*
X154145757Y-80535512D01*
X154220792Y-80602697D01*
X154294527Y-80671229D01*
X154366963Y-80741105D01*
X154438098Y-80812318D01*
X154507933Y-80884865D01*
X154576468Y-80958741D01*
X154643701Y-81033941D01*
X154709634Y-81110460D01*
X154774266Y-81188294D01*
X154837597Y-81267438D01*
X154899626Y-81347887D01*
X154960354Y-81429637D01*
X155019779Y-81512683D01*
X155077903Y-81597020D01*
X155135799Y-81684539D01*
X155191868Y-81773181D01*
X155298536Y-81953804D01*
X155397944Y-82138832D01*
X155490124Y-82328205D01*
X155575111Y-82521866D01*
X155652938Y-82719756D01*
X155723640Y-82921818D01*
X155787252Y-83127991D01*
X155843509Y-83337473D01*
X155892257Y-83549371D01*
X155933539Y-83763648D01*
X155967399Y-83980264D01*
X155993879Y-84199180D01*
X156013022Y-84420359D01*
X156024874Y-84643760D01*
X156029475Y-84869346D01*
X156026991Y-85095092D01*
X156017560Y-85320378D01*
X156001192Y-85545193D01*
X155977900Y-85769525D01*
X155947693Y-85993361D01*
X155910582Y-86216688D01*
X155866579Y-86439494D01*
X155815694Y-86661768D01*
X155757082Y-86884823D01*
X155691360Y-87104103D01*
X155618501Y-87319566D01*
X155538476Y-87531171D01*
X155451258Y-87738875D01*
X155356819Y-87942637D01*
X155255131Y-88142415D01*
X155146165Y-88338167D01*
X155086744Y-88437647D01*
X155025263Y-88535212D01*
X154961721Y-88630849D01*
X154896120Y-88724547D01*
X154828461Y-88816294D01*
X154758745Y-88906078D01*
X154686973Y-88993887D01*
X154613146Y-89079710D01*
X154537265Y-89163535D01*
X154459330Y-89245349D01*
X154379344Y-89325142D01*
X154297306Y-89402901D01*
X154213218Y-89478614D01*
X154127081Y-89552270D01*
X154038895Y-89623857D01*
X153948663Y-89693363D01*
X153851428Y-89763844D01*
X153752034Y-89831043D01*
X153650517Y-89894990D01*
X153546913Y-89955715D01*
X153441258Y-90013247D01*
X153333588Y-90067616D01*
X153223939Y-90118851D01*
X153112347Y-90166982D01*
X152998848Y-90212040D01*
X152883479Y-90254052D01*
X152766274Y-90293050D01*
X152647271Y-90329062D01*
X152526506Y-90362119D01*
X152404013Y-90392249D01*
X152279830Y-90419484D01*
X152153993Y-90443851D01*
X152026149Y-90465365D01*
X151896630Y-90483938D01*
X151632636Y-90512383D01*
X151362148Y-90529424D01*
X151085308Y-90535299D01*
X150802254Y-90530248D01*
X150513125Y-90514508D01*
X150218063Y-90488320D01*
X149917205Y-90451921D01*
X149614058Y-90406505D01*
X149308866Y-90352732D01*
X149001640Y-90290644D01*
X148692389Y-90220280D01*
X148381124Y-90141680D01*
X148067856Y-90054886D01*
X147752593Y-89959937D01*
X147435348Y-89856874D01*
X147119239Y-89746733D01*
X146807880Y-89630712D01*
X146501285Y-89508796D01*
X146199470Y-89380972D01*
X145902453Y-89247226D01*
X145610247Y-89107544D01*
X145322871Y-88961912D01*
X145040339Y-88810316D01*
X144899578Y-88731260D01*
X144761318Y-88650804D01*
X144625576Y-88568938D01*
X144492369Y-88485653D01*
X144361715Y-88400942D01*
X144233633Y-88314795D01*
X144108141Y-88227203D01*
X143985255Y-88138158D01*
X143864995Y-88047651D01*
X143747378Y-87955674D01*
X143632421Y-87862217D01*
X143520144Y-87767272D01*
X143410563Y-87670830D01*
X143303696Y-87572882D01*
X143199562Y-87473421D01*
X143098178Y-87372436D01*
X142996961Y-87266721D01*
X142899333Y-87159174D01*
X142805324Y-87049800D01*
X142714964Y-86938598D01*
X142628284Y-86825572D01*
X142545313Y-86710724D01*
X142466083Y-86594054D01*
X142390623Y-86475565D01*
X142318964Y-86355260D01*
X142251136Y-86233139D01*
X142187169Y-86109206D01*
X142127094Y-85983461D01*
X142070940Y-85855907D01*
X142018738Y-85726546D01*
X141970519Y-85595379D01*
X141926313Y-85462410D01*
X141886793Y-85330494D01*
X141850976Y-85197389D01*
X141818834Y-85063112D01*
X141790343Y-84927681D01*
X141765475Y-84791113D01*
X141744205Y-84653425D01*
X141726507Y-84514634D01*
X141712354Y-84374758D01*
X141701721Y-84233813D01*
X141694581Y-84091818D01*
X141690908Y-83948789D01*
X141690677Y-83804744D01*
X141693860Y-83659699D01*
X141700433Y-83513673D01*
X141710369Y-83366682D01*
X141723642Y-83218744D01*
X141758039Y-82927509D01*
X141802772Y-82634247D01*
X141857756Y-82338979D01*
X141922903Y-82041727D01*
X141998127Y-81742510D01*
X142083341Y-81441351D01*
X142178459Y-81138269D01*
X142283394Y-80833287D01*
X142397171Y-80528573D01*
X142519083Y-80225613D01*
X142649110Y-79924407D01*
X142787227Y-79624958D01*
X142933413Y-79327269D01*
X143087647Y-79031343D01*
X143249904Y-78737182D01*
X143420163Y-78444788D01*
X143599236Y-78153848D01*
X143785356Y-77868402D01*
X143978519Y-77588459D01*
X144178720Y-77314029D01*
X144385955Y-77045123D01*
X144600218Y-76781750D01*
X144821505Y-76523921D01*
X145049811Y-76271645D01*
X145169166Y-76145425D01*
X145290467Y-76021591D01*
X145413713Y-75900144D01*
X145538900Y-75781087D01*
X145666027Y-75664422D01*
X145795090Y-75550151D01*
X145926087Y-75438276D01*
X146059016Y-75328800D01*
X146193874Y-75221724D01*
X146330658Y-75117052D01*
X146469367Y-75014785D01*
X146609997Y-74914925D01*
X146752545Y-74817475D01*
X146897010Y-74722436D01*
X147043389Y-74629812D01*
X147191679Y-74539604D01*
X147497085Y-74365721D01*
X147809088Y-74204339D01*
X148127635Y-74055438D01*
X148452678Y-73918994D01*
X148784166Y-73794986D01*
X149122049Y-73683392D01*
X149466275Y-73584190D01*
X149816795Y-73497357D01*
X150168782Y-73423404D01*
X150521959Y-73361801D01*
X150876302Y-73312552D01*
X151231787Y-73275656D01*
X151588387Y-73251116D01*
X151946079Y-73238932D01*
X152304837Y-73239106D01*
X152664638Y-73251638D01*
X153022754Y-73276453D01*
X153376147Y-73313497D01*
X153724767Y-73362821D01*
X154068567Y-73424476D01*
X154407500Y-73498512D01*
X154741516Y-73584982D01*
X155070568Y-73683935D01*
X155394609Y-73795423D01*
X155557788Y-73857460D01*
X155718656Y-73923168D01*
X155877204Y-73992543D01*
X156033422Y-74065584D01*
X156187300Y-74142288D01*
X156338828Y-74222653D01*
X156487995Y-74306676D01*
X156634793Y-74394354D01*
X156779211Y-74485685D01*
X156921240Y-74580667D01*
X157060869Y-74679298D01*
X157198089Y-74781573D01*
X157332890Y-74887492D01*
X157465262Y-74997052D01*
X157595194Y-75110250D01*
X157722678Y-75227084D01*
X157851439Y-75352077D01*
X157976395Y-75481466D01*
X158097572Y-75615209D01*
X158214995Y-75753260D01*
X158328688Y-75895579D01*
X158438678Y-76042120D01*
X158544988Y-76192841D01*
X158647644Y-76347698D01*
X158746671Y-76506649D01*
X158842094Y-76669650D01*
X158933937Y-76836657D01*
X159022226Y-77007628D01*
X159106986Y-77182519D01*
X159188242Y-77361287D01*
X159266018Y-77543889D01*
X159340341Y-77730280D01*
X159478653Y-78116622D01*
X159601420Y-78517415D01*
X159708836Y-78932495D01*
X159801095Y-79361696D01*
X159878391Y-79804853D01*
X159940917Y-80261800D01*
X159988867Y-80732372D01*
X160022435Y-81216404D01*
X160042736Y-81705740D01*
X160051167Y-82199136D01*
X160047755Y-82696579D01*
X160032522Y-83198060D01*
X160005496Y-83703566D01*
X159966699Y-84213087D01*
X159916158Y-84726612D01*
X159853896Y-85244129D01*
X159781915Y-85757018D01*
X159701489Y-86261617D01*
X159612596Y-86757906D01*
X159515212Y-87245867D01*
X159409314Y-87725481D01*
X159294878Y-88196730D01*
X159171882Y-88659595D01*
X159040301Y-89114057D01*
X158898125Y-89561083D01*
X158745850Y-89993003D01*
X158583349Y-90409643D01*
X158498224Y-90612179D01*
X158410495Y-90810830D01*
X158320146Y-91005574D01*
X158227161Y-91196390D01*
X158131524Y-91383255D01*
X158033220Y-91566149D01*
X157932232Y-91745049D01*
X157828544Y-91919934D01*
X157722142Y-92090782D01*
X157613008Y-92257572D01*
X157496882Y-92425278D01*
X157376713Y-92588111D01*
X157252506Y-92746045D01*
X157124267Y-92899058D01*
X156992000Y-93047123D01*
X156855712Y-93190217D01*
X156715409Y-93328315D01*
X156571095Y-93461392D01*
X156422777Y-93589426D01*
X156270460Y-93712390D01*
X156114151Y-93830260D01*
X155953853Y-93943013D01*
X155789574Y-94050623D01*
X155621318Y-94153067D01*
X155449092Y-94250319D01*
X155272901Y-94342355D01*
X155096691Y-94427646D01*
X154917230Y-94508367D01*
X154734542Y-94584545D01*
X154548654Y-94656209D01*
X154359591Y-94723386D01*
X154167378Y-94786104D01*
X153972042Y-94844392D01*
X153773607Y-94898277D01*
X153572100Y-94947787D01*
X153367545Y-94992951D01*
X153159969Y-95033795D01*
X152949397Y-95070348D01*
X152735854Y-95102637D01*
X152519367Y-95130691D01*
X152077661Y-95174205D01*
X151635843Y-95202724D01*
X151189383Y-95219149D01*
X150738303Y-95223516D01*
X150282623Y-95215860D01*
X149822364Y-95196218D01*
X149357549Y-95164625D01*
X148888198Y-95121116D01*
X148414333Y-95065727D01*
X147943565Y-95000445D01*
X147477639Y-94926430D01*
X147016565Y-94843668D01*
X146560354Y-94752146D01*
X146109015Y-94651849D01*
X145662560Y-94542763D01*
X145220998Y-94424875D01*
X144784342Y-94298170D01*
X144353130Y-94161977D01*
X143932632Y-94016984D01*
X143522912Y-93863137D01*
X143124033Y-93700378D01*
X142736061Y-93528652D01*
X142359059Y-93347903D01*
X141993091Y-93158075D01*
X141638221Y-92959114D01*
X141460923Y-92853116D01*
X141286995Y-92743679D01*
X141116450Y-92630806D01*
X140949297Y-92514496D01*
X140785547Y-92394749D01*
X140625211Y-92271567D01*
X140468299Y-92144950D01*
X140314822Y-92014898D01*
X140164790Y-91881413D01*
X140018214Y-91744494D01*
X139875104Y-91604142D01*
X139735472Y-91460359D01*
X139599328Y-91313143D01*
X139466681Y-91162497D01*
X139337544Y-91008420D01*
X139211926Y-90850914D01*
X139090641Y-90691324D01*
X138972495Y-90528429D01*
X138857476Y-90362243D01*
X138745576Y-90192781D01*
X138636783Y-90020058D01*
X138531086Y-89844089D01*
X138428476Y-89664889D01*
X138328942Y-89482472D01*
X138139060Y-89108050D01*
X137961357Y-88720942D01*
X137795749Y-88321267D01*
X137642153Y-87909145D01*
X137502256Y-87499956D01*
X137369909Y-87086681D01*
X137245105Y-86669330D01*
X137127836Y-86247909D01*
X137018096Y-85822426D01*
X136915878Y-85392889D01*
X136821175Y-84959306D01*
X136733980Y-84521684D01*
X136580405Y-83670868D01*
X136447857Y-82847242D01*
X136389497Y-82445643D01*
X136336428Y-82050862D01*
X136288661Y-81662906D01*
X136246207Y-81281782D01*
X136209643Y-80909163D01*
X136179714Y-80547935D01*
X136156501Y-80198181D01*
X136140083Y-79859986D01*
X136130539Y-79533432D01*
X136127949Y-79218602D01*
X136132393Y-78915582D01*
X136143950Y-78624453D01*
X136164554Y-78335341D01*
X136178713Y-78193221D01*
X136195481Y-78052757D01*
X136214886Y-77913973D01*
X136236957Y-77776891D01*
X136261722Y-77641538D01*
X136289209Y-77507934D01*
X136319447Y-77376106D01*
X136352464Y-77246075D01*
X136388289Y-77117866D01*
X136426950Y-76991503D01*
X136468475Y-76867009D01*
X136512893Y-76744409D01*
X136560233Y-76623725D01*
X136610521Y-76504982D01*
X136713348Y-76282413D01*
X136825722Y-76060581D01*
X136947521Y-75839480D01*
X137078621Y-75619102D01*
X137218898Y-75399440D01*
X137368229Y-75180487D01*
X137526491Y-74962237D01*
X137693561Y-74744682D01*
X137861412Y-74534819D01*
X138034696Y-74323675D01*
X138213399Y-74111249D01*
X138397505Y-73897543D01*
X138587002Y-73682555D01*
X138781875Y-73466286D01*
X138982109Y-73248736D01*
X139187690Y-73029904D01*
X139396226Y-72812219D01*
X139605583Y-72597850D01*
X139815763Y-72386802D01*
X140026765Y-72179076D01*
X140238591Y-71974675D01*
X140451243Y-71773604D01*
X140664720Y-71575863D01*
X140879026Y-71381458D01*
X141095774Y-71189961D01*
X141311203Y-71005804D01*
X141525314Y-70829041D01*
X141604913Y-70765706D01*
X148894617Y-70765706D01*
X148895784Y-70766121D01*
X148896660Y-70766422D01*
X148897238Y-70766613D01*
X148897510Y-70766693D01*
X148897529Y-70766697D01*
X148897528Y-70766693D01*
X148897466Y-70766665D01*
X148897101Y-70766530D01*
X148896405Y-70766290D01*
X148895372Y-70765944D01*
X148895098Y-70765855D01*
X148894852Y-70765777D01*
X148894617Y-70765706D01*
X141604913Y-70765706D01*
X141738108Y-70659727D01*
X141949584Y-70497916D01*
X142159744Y-70343663D01*
X142368588Y-70197022D01*
X142576116Y-70058048D01*
X142782651Y-69926824D01*
X142987920Y-69803908D01*
X143191897Y-69689518D01*
X143394555Y-69583869D01*
X143595867Y-69487178D01*
X143795807Y-69399660D01*
X143994348Y-69321532D01*
X144093086Y-69286057D01*
X144191464Y-69253011D01*
X144374115Y-69196317D01*
X144555768Y-69144998D01*
X144736399Y-69099136D01*
X144915983Y-69058812D01*
X145094498Y-69024108D01*
X145271920Y-68995108D01*
X145448225Y-68971891D01*
X145623388Y-68954542D01*
X145781222Y-68942546D01*
X145938023Y-68932666D01*
X146093787Y-68924908D01*
X146248509Y-68919281D01*
X146402187Y-68915794D01*
X146554814Y-68914454D01*
X146706387Y-68915270D01*
G37*
%LPC*%
D13*
%TO.C,SW6*%
X200000000Y-78600000D03*
X200000000Y-76300000D03*
%TD*%
D14*
%TO.C,H5*%
X198000000Y-125000000D03*
%TD*%
%TO.C,H6*%
X98000000Y-125000000D03*
%TD*%
D13*
%TO.C,SW7*%
X200000000Y-92300000D03*
X200000000Y-90000000D03*
%TD*%
D14*
%TO.C,H3*%
X98000000Y-64000000D03*
%TD*%
D15*
%TO.C,USB1*%
X94384549Y-110640000D03*
D16*
X98594549Y-110640000D03*
D15*
X94384549Y-102000000D03*
D16*
X98594549Y-102000000D03*
D17*
X98064549Y-109210000D03*
X98064549Y-103430000D03*
%TD*%
D14*
%TO.C,H4*%
X198000000Y-64000000D03*
%TD*%
D13*
%TO.C,SW5*%
X110032277Y-61709046D03*
X107732277Y-61709046D03*
%TD*%
D18*
%TO.C,CN2*%
X97874544Y-115404078D03*
X100924544Y-121404078D03*
X100924544Y-116454078D03*
X104124544Y-115974078D03*
X104124544Y-121404078D03*
X94824544Y-116274078D03*
X94824544Y-121404078D03*
D19*
X102124544Y-118664078D03*
X95124544Y-118664078D03*
%TD*%
D20*
%TO.C,Card1*%
X192050000Y-79000000D03*
X184050000Y-79000000D03*
%TD*%
%LPD*%
M02*
