%TF.GenerationSoftware,KiCad,Pcbnew,7.0.7*%
%TF.CreationDate,2023-12-09T23:21:29+01:00*%
%TF.ProjectId,Untitled,556e7469-746c-4656-942e-6b696361645f,rev?*%
%TF.SameCoordinates,Original*%
%TF.FileFunction,Other,Comment*%
%FSLAX46Y46*%
G04 Gerber Fmt 4.6, Leading zero omitted, Abs format (unit mm)*
G04 Created by KiCad (PCBNEW 7.0.7) date 2023-12-09 23:21:29*
%MOMM*%
%LPD*%
G01*
G04 APERTURE LIST*
%ADD10C,0.200000*%
%ADD11C,0.350000*%
%ADD12C,0.150000*%
%ADD13C,0.500000*%
%ADD14C,0.250000*%
%ADD15C,0.240000*%
%ADD16C,0.400000*%
G04 APERTURE END LIST*
D10*
%TO.C,D2*%
X105570000Y-109130000D02*
G75*
G03*
X105570000Y-109130000I-100000J0D01*
G01*
D11*
%TO.C,SW6*%
X200180000Y-78600000D02*
G75*
G03*
X200180000Y-78600000I-180000J0D01*
G01*
X200180000Y-76300000D02*
G75*
G03*
X200180000Y-76300000I-180000J0D01*
G01*
D10*
%TO.C,U2*%
X133880000Y-96890000D02*
G75*
G03*
X133880000Y-96890000I-100000J0D01*
G01*
%TO.C,Q3*%
X141560000Y-81100000D02*
G75*
G03*
X141560000Y-81100000I-100000J0D01*
G01*
D12*
%TO.C,H5*%
X200850000Y-125000000D02*
G75*
G03*
X200850000Y-125000000I-2850000J0D01*
G01*
%TO.C,H6*%
X100850000Y-125000000D02*
G75*
G03*
X100850000Y-125000000I-2850000J0D01*
G01*
D11*
%TO.C,SW7*%
X200180000Y-92300000D02*
G75*
G03*
X200180000Y-92300000I-180000J0D01*
G01*
X200180000Y-90000000D02*
G75*
G03*
X200180000Y-90000000I-180000J0D01*
G01*
D13*
%TO.C,H2*%
X125440000Y-108340000D02*
G75*
G03*
X125440000Y-108340000I-250000J0D01*
G01*
%TO.C,U1*%
X101060000Y-87430000D02*
G75*
G03*
X101060000Y-87430000I-250000J0D01*
G01*
D14*
%TO.C,U3*%
X118640000Y-97610000D02*
G75*
G03*
X118640000Y-97610000I-130000J0D01*
G01*
D12*
%TO.C,H3*%
X100850000Y-64000000D02*
G75*
G03*
X100850000Y-64000000I-2850000J0D01*
G01*
D14*
%TO.C,USB1*%
X98184549Y-109210000D02*
G75*
G03*
X98184549Y-109210000I-120000J0D01*
G01*
X98184549Y-103430000D02*
G75*
G03*
X98184549Y-103430000I-120000J0D01*
G01*
D15*
%TO.C,J8*%
X151980000Y-94200000D02*
G75*
G03*
X151980000Y-94200000I-120000J0D01*
G01*
D13*
%TO.C,H1*%
X170865390Y-106010000D02*
G75*
G03*
X170865390Y-106010000I-250000J0D01*
G01*
D12*
%TO.C,H4*%
X200850000Y-64000000D02*
G75*
G03*
X200850000Y-64000000I-2850000J0D01*
G01*
D11*
%TO.C,SW5*%
X110212277Y-61709046D02*
G75*
G03*
X110212277Y-61709046I-180000J0D01*
G01*
X107912277Y-61709046D02*
G75*
G03*
X107912277Y-61709046I-180000J0D01*
G01*
D10*
%TO.C,Q1*%
X123560000Y-100050000D02*
G75*
G03*
X123560000Y-100050000I-100000J0D01*
G01*
D16*
%TO.C,Card1*%
X192250000Y-79000000D02*
G75*
G03*
X192250000Y-79000000I-200000J0D01*
G01*
D14*
X191940000Y-67670000D02*
G75*
G03*
X191940000Y-67670000I-130000J0D01*
G01*
D16*
X184250000Y-79000000D02*
G75*
G03*
X184250000Y-79000000I-200000J0D01*
G01*
D10*
%TO.C,U6*%
X115700000Y-124760000D02*
G75*
G03*
X115700000Y-124760000I-100000J0D01*
G01*
%TD*%
M02*
